<svg xmlns="http://www.w3.org/2000/svg" width="600" height="600" viewBox="0 0 158.75 158.75"><g fill="maroon" fill-opacity=".69"><path d="M68.217 10.29c16.89-1.105 29.143-.682 45.843 8.658 15.644 9.691 28.333 25.191 29.935 43.833 0 0 4.017 21.161-14.648 14.572-14.72-20.195-19.723-30.143-36.948-40.747-14.832-9.044-28.786-1.877-43.33 5.389-58.877 26.549-6.377-28.973 19.148-31.705zM34.774 126.524c11.826 10.635 54.813 30.87 70.068 14.035 15.254-16.835 32.487-17.4 30.82-27.421-1.667-10.022-15.316-30.168-25.344-13.96-10.027 16.207-16.473 18.976-26.374 11.171-9.9-7.804-9.09-24.054-22.081-15.472-12.992 8.583 2.262-8.252-16.934-12.208-43.022-14.911-27.855 26.316-10.155 43.855z"/><path d="M57.914 58.554c17.538-6.858 41.062-8.115 41.516 3.89.455 12.006-2.758 20.508 6.301 21.915 9.059 1.406-5.704 19.798-16.01 8.317-10.305-11.48.409-16.09-15.624-21.82-16.032-5.73-22.702-4.62-16.183-12.302z"/></g></svg>