<svg xmlns="http://www.w3.org/2000/svg" width="600" height="600" viewBox="0 0 158.75 158.75"><path d="M72.68 34.536c3.084-4.13 8.785-5.085 12.735-2.137 3.95 2.95 4.651 8.688 1.568 12.818-3.085 4.13-8.786 5.086-12.737 2.137-3.949-2.95-4.65-8.688-1.566-12.818" fill="#631a1d"/><path d="M72.465 34.823c2.936-3.932 8.294-4.896 11.967-2.154 3.672 2.744 4.268 8.153 1.332 12.085-2.936 3.932-8.293 4.896-11.965 2.153-3.672-2.742-4.27-8.153-1.334-12.084" fill="#93292e"/><path d="M80.885 43.101c.616-.414 1.394-.335 1.739.179.345.512.126 1.263-.49 1.677-.614.414-1.392.334-1.738-.179-.344-.512-.126-1.263.489-1.677m-5.909-4.476c.616-.412 1.48-.204 1.932.468.452.67.32 1.55-.295 1.964-.614.414-1.48.206-1.93-.465-.454-.671-.321-1.551.293-1.967m8.937-3.497c.444-.298 1.073-.141 1.404.351.33.492.24 1.134-.203 1.432-.444.299-1.073.142-1.404-.35-.332-.492-.24-1.134.203-1.433m-4.246-1.413c.554-.373 1.275-.273 1.609.224.335.499.157 1.204-.396 1.577-.554.373-1.275.272-1.61-.225-.334-.497-.157-1.202.397-1.576m1.443 4.962c.36-.243.838-.162 1.068.18.23.34.124.813-.234 1.055-.36.242-.838.162-1.068-.18-.23-.34-.124-.814.234-1.055m-8.422-2.438c.274-.185.615-.156.763.063.148.22.046.547-.227.732-.273.182-.615.154-.763-.065-.147-.22-.046-.546.227-.73m.804 7.075c-.171-.282-.126-.622.1-.76.225-.138.547-.02.719.262.171.281.127.622-.1.76-.225.136-.548.02-.719-.262m3.845-7.064c.36-.242.838-.162 1.069.18.229.34.123.813-.235 1.055-.36.242-.838.163-1.069-.18-.229-.34-.124-.814.235-1.056m-.604-3.079c.502-.338 1.08-.358 1.291-.044.21.313-.025.84-.527 1.179-.502.338-1.08.358-1.29.044-.211-.313.024-.84.526-1.178M74.706 44.56c.36-.24.836-.16 1.067.18.228.342.124.815-.234 1.057-.36.242-.839.161-1.069-.18-.229-.341-.124-.814.236-1.056m9.194-3.187c.36-.243.837-.163 1.067.18.23.34.125.814-.234 1.055-.36.243-.838.162-1.067-.179-.23-.342-.126-.815.234-1.056" fill="#f79387"/><path d="M53.012 110.958c-.7-5.107 2.693-9.787 7.577-10.457 4.884-.669 9.409 2.93 10.11 8.036.697 5.106-2.694 9.787-7.579 10.457-4.884.668-9.408-2.93-10.108-8.036" fill="#631a1d"/><path d="M53.06 111.314c-.665-4.863 2.476-9.308 7.018-9.93 4.541-.621 8.76 2.816 9.427 7.677.665 4.862-2.476 9.307-7.017 9.928-4.54.622-8.762-2.815-9.428-7.675" fill="#93292e"/><path d="M64.868 111.306c.148-.727.759-1.216 1.364-1.093.605.123.977.813.828 1.539-.147.726-.758 1.215-1.364 1.092-.604-.123-.976-.811-.828-1.538m-7.351.955c.15-.725.912-1.184 1.705-1.022.792.16 1.316.88 1.168 1.607-.148.726-.911 1.185-1.703 1.023-.793-.16-1.316-.88-1.17-1.608m3.916-8.761c.107-.525.665-.853 1.247-.735.58.119.966.64.86 1.163-.108.524-.665.854-1.247.735-.582-.118-.966-.639-.86-1.163m-4.017 1.971c.133-.654.717-1.088 1.304-.968.588.12.956.747.823 1.401s-.718 1.088-1.304.969c-.588-.12-.956-.747-.823-1.402m4.509 2.524c.086-.425.483-.703.887-.621.402.081.66.493.573.917-.086.425-.483.703-.886.62-.403-.081-.66-.493-.574-.916m-7.713 4.171c.066-.324.33-.543.588-.49.26.052.417.357.352.68-.067.322-.33.542-.59.49-.259-.054-.415-.358-.35-.68m5.536 4.478c-.32-.081-.526-.355-.461-.61.064-.258.376-.4.696-.32.32.081.526.354.462.612-.065.255-.377.399-.697.318m-2.215-7.732c.087-.425.484-.703.888-.621.402.082.658.493.573.917-.087.425-.483.704-.888.621-.402-.082-.66-.493-.573-.917m-2.591-1.77c.12-.594.518-1.013.89-.938.369.076.571.617.45 1.21-.12.593-.518 1.013-.888.937-.37-.075-.572-.616-.452-1.21m6.546 9.54c.088-.425.483-.702.887-.62.402.082.66.493.574.917-.087.425-.484.703-.887.621-.403-.082-.66-.493-.574-.918m4.317-8.721c.086-.426.483-.703.886-.62.404.081.66.492.574.916-.087.426-.483.703-.886.621-.403-.082-.661-.492-.574-.918" fill="#f79387"/><path d="M73.058 115.234c3.084-4.13 8.785-5.086 12.735-2.137 3.95 2.95 4.651 8.688 1.568 12.818-3.085 4.13-8.786 5.086-12.737 2.137-3.949-2.95-4.65-8.688-1.566-12.818" fill="#631a1d"/><path d="M72.843 115.521c2.936-3.932 8.294-4.896 11.967-2.154 3.672 2.743 4.268 8.153 1.332 12.085-2.936 3.931-8.293 4.896-11.965 2.153-3.672-2.742-4.27-8.153-1.334-12.084" fill="#93292e"/><path d="M81.263 123.8c.616-.415 1.394-.336 1.739.177.345.513.126 1.264-.49 1.678-.614.414-1.392.334-1.738-.179-.344-.512-.126-1.263.489-1.677m-5.909-4.476c.615-.412 1.48-.204 1.932.468.452.67.32 1.55-.295 1.964-.614.414-1.48.206-1.931-.466-.453-.67-.32-1.55.294-1.966m8.936-3.497c.445-.298 1.074-.141 1.405.351.33.492.24 1.134-.203 1.432-.444.298-1.073.142-1.404-.35-.332-.493-.24-1.134.203-1.433m-4.246-1.413c.554-.373 1.275-.273 1.609.224.335.499.157 1.204-.396 1.577-.554.373-1.275.272-1.61-.225-.335-.497-.157-1.203.397-1.576m1.443 4.962c.36-.243.838-.162 1.068.18.23.34.124.813-.234 1.055-.36.242-.838.162-1.068-.18-.23-.34-.124-.814.234-1.055m-8.422-2.438c.274-.185.615-.156.763.063.148.22.046.547-.227.732-.273.182-.615.154-.763-.065-.148-.22-.046-.546.227-.73m.804 7.074c-.171-.281-.126-.621.1-.758.225-.139.547-.02.719.261.171.281.127.621-.1.76-.225.136-.548.02-.719-.263m3.845-7.064c.36-.241.838-.161 1.069.18.229.342.123.814-.235 1.056-.36.242-.838.163-1.069-.18-.229-.34-.124-.814.235-1.056m-.605-3.079c.503-.338 1.08-.358 1.292-.044.21.313-.025.84-.527 1.179-.502.338-1.08.358-1.291.044-.21-.313.025-.84.527-1.179m-2.027 11.391c.36-.242.836-.162 1.067.18.228.34.124.814-.234 1.056-.36.242-.839.161-1.069-.18-.229-.341-.124-.814.236-1.056m9.194-3.188c.36-.242.837-.162 1.067.18.23.342.125.814-.234 1.056-.36.243-.838.162-1.067-.179-.23-.342-.126-.815.234-1.057" fill="#f79387"/><path d="M72.581 92.734c2.798-3.746 7.969-4.613 11.552-1.939 3.583 2.676 4.219 7.88 1.422 11.627-2.798 3.746-7.969 4.614-11.553 1.939-3.582-2.677-4.218-7.88-1.42-11.627" fill="#631a1d"/><path d="M72.386 92.994c2.664-3.566 7.523-4.44 10.855-1.953 3.33 2.488 3.872 7.395 1.209 10.961-2.663 3.566-7.522 4.441-10.853 1.954-3.332-2.488-3.873-7.396-1.21-10.962" fill="#93292e"/><path d="M80.024 100.503c.558-.376 1.264-.304 1.577.162.313.464.114 1.146-.443 1.521-.558.376-1.264.303-1.578-.162-.312-.464-.114-1.145.444-1.52m-5.36-4.061c.558-.374 1.343-.185 1.753.424.41.608.29 1.406-.268 1.782-.557.375-1.343.187-1.752-.422-.41-.61-.29-1.407.267-1.784m8.106-3.173c.404-.27.973-.127 1.274.32.3.445.218 1.028-.184 1.298-.403.27-.973.129-1.273-.318-.302-.446-.219-1.028.183-1.3m-3.85-1.28c.502-.34 1.155-.248 1.458.203.304.452.143 1.091-.359 1.43-.502.338-1.156.246-1.46-.204-.303-.451-.143-1.091.36-1.43m1.309 4.501c.327-.22.76-.147.969.163.208.308.113.738-.213.957-.326.22-.76.148-.968-.162-.208-.31-.113-.74.212-.958m-7.639-2.212c.248-.167.558-.141.692.058.134.198.041.496-.207.663-.247.166-.557.14-.692-.058-.133-.2-.04-.496.207-.663m.729 6.418c-.155-.256-.115-.564.09-.689.205-.125.497-.018.653.237.155.255.115.564-.09.69-.205.123-.498.017-.653-.238m3.488-6.408c.327-.22.76-.147.969.163.208.31.112.738-.213.958-.327.22-.76.148-.97-.163-.207-.309-.112-.739.214-.958m-.549-2.793c.456-.307.98-.325 1.172-.04.19.284-.023.762-.478 1.069-.455.307-.98.325-1.171.04-.191-.283.022-.762.477-1.069m-1.838 10.332c.327-.219.759-.146.968.163.207.31.112.738-.213.959-.326.219-.76.146-.969-.164-.208-.31-.113-.739.214-.958m8.341-2.891c.325-.22.758-.147.966.163.21.31.114.739-.212.958-.327.22-.76.147-.968-.163-.208-.31-.114-.739.213-.958" fill="#f79387"/><path d="M89.852 102.174c2.766-3.703 7.878-4.56 11.42-1.916 3.543 2.645 4.171 7.79 1.406 11.495-2.766 3.702-7.878 4.56-11.421 1.916-3.541-2.646-4.17-7.791-1.405-11.495" fill="#631a1d"/><path d="M89.66 102.432c2.633-3.526 7.437-4.39 10.73-1.932 3.294 2.46 3.828 7.312 1.196 10.838-2.633 3.525-7.437 4.39-10.73 1.93-3.293-2.459-3.829-7.31-1.197-10.836" fill="#93292e"/><path d="M97.21 109.855c.552-.371 1.25-.3 1.56.16.309.46.112 1.133-.44 1.504-.55.372-1.248.3-1.558-.16-.31-.459-.113-1.132.438-1.504m-5.299-4.013c.552-.37 1.328-.184 1.733.418s.287 1.39-.265 1.762c-.55.371-1.327.185-1.731-.417-.406-.602-.288-1.391.263-1.763m8.014-3.137c.399-.267.962-.126 1.26.315.296.441.215 1.017-.183 1.284-.398.268-.962.128-1.258-.314-.298-.441-.216-1.016.181-1.285m-3.807-1.267c.497-.334 1.143-.244 1.443.201.3.447.14 1.08-.356 1.414-.496.334-1.143.244-1.443-.201-.3-.446-.141-1.079.356-1.414m1.294 4.45c.323-.218.752-.146.957.16.207.306.112.73-.21.947-.322.217-.75.146-.957-.16-.206-.307-.111-.73.21-.947m-7.552-2.187c.245-.165.551-.14.684.057.132.197.04.49-.204.656-.245.164-.552.139-.684-.058s-.041-.49.204-.655m.72 6.345c-.153-.253-.113-.558.09-.68.202-.125.491-.019.645.233.153.253.114.558-.09.681-.202.123-.491.018-.644-.234m3.447-6.336c.324-.216.752-.144.959.162.205.306.11.73-.21.947-.324.217-.752.146-.959-.161-.206-.306-.112-.73.21-.947m-.541-2.761c.45-.304.968-.322 1.158-.04.188.28-.023.753-.473 1.057-.45.303-.969.321-1.158.04-.188-.28.022-.754.473-1.057m-1.818 10.214c.323-.216.75-.145.957.162.205.305.11.73-.21.947-.323.217-.752.144-.958-.162-.206-.306-.112-.73.21-.947m8.246-2.858c.323-.218.75-.146.957.16.206.307.112.731-.21.948-.324.217-.752.145-.957-.16-.206-.307-.113-.731.21-.948" fill="#f79387"/><path d="M93.533 122.535c3.18-4.258 9.057-5.243 13.13-2.204 4.072 3.041 4.795 8.958 1.616 13.216-3.18 4.257-9.058 5.243-13.131 2.203-4.071-3.042-4.794-8.957-1.615-13.215" fill="#631a1d"/><path d="M93.311 122.831c3.028-4.054 8.551-5.048 12.338-2.22 3.786 2.827 4.4 8.405 1.374 12.458-3.027 4.054-8.55 5.048-12.336 2.22-3.786-2.827-4.402-8.405-1.376-12.458" fill="#93292e"/><path d="M101.992 131.365c.635-.427 1.438-.345 1.793.184.356.528.13 1.303-.504 1.73-.634.426-1.436.344-1.793-.185-.355-.527-.13-1.302.504-1.729M95.9 126.75c.635-.425 1.527-.21 1.992.482.466.692.33 1.599-.304 2.026-.633.427-1.526.212-1.99-.48-.467-.692-.331-1.6.302-2.027m9.214-3.606c.458-.308 1.106-.146 1.447.362.342.507.248 1.169-.209 1.476-.458.308-1.106.147-1.447-.361-.343-.507-.248-1.168.209-1.477m-4.377-1.457c.571-.384 1.314-.281 1.658.232.345.513.162 1.24-.408 1.625-.571.384-1.315.28-1.66-.232-.345-.513-.162-1.24.41-1.625m1.488 5.116c.37-.25.863-.167 1.1.185.237.35.129.84-.241 1.088-.371.25-.864.168-1.1-.185-.238-.352-.129-.84.24-1.088m-8.683-2.514c.282-.19.635-.16.787.065.153.226.047.565-.234.755-.282.188-.634.16-.787-.067-.152-.227-.047-.563.234-.753m.829 7.294c-.176-.29-.13-.64.103-.782.233-.143.565-.021.742.27.176.29.13.64-.103.782-.233.141-.566.02-.742-.27m3.964-7.283c.372-.249.864-.166 1.102.186.236.352.127.838-.242 1.088-.372.25-.864.168-1.101-.185-.237-.351-.129-.84.241-1.089m-.623-3.174c.518-.349 1.114-.37 1.332-.046.216.323-.026.866-.543 1.215-.518.349-1.114.37-1.332.046-.216-.322.026-.867.543-1.215m-2.089 11.743c.37-.249.862-.166 1.1.186.235.35.127.839-.242 1.089-.371.249-.864.166-1.101-.186-.236-.352-.128-.84.243-1.09m9.479-3.285c.37-.25.863-.167 1.1.185.237.352.128.84-.242 1.09-.371.249-.863.166-1.1-.186-.237-.352-.13-.84.242-1.089" fill="#f79387"/><path d="M66.763 122.313c4.606 2.314 6.546 7.759 4.335 12.164-2.212 4.406-7.74 6.101-12.346 3.79-4.605-2.314-6.546-7.76-4.334-12.166 2.213-4.405 7.738-6.1 12.345-3.788" fill="#631a1d"/><path d="M66.442 122.152c4.386 2.203 6.274 7.308 4.217 11.405-2.057 4.096-7.279 5.63-11.664 3.429-4.385-2.202-6.273-7.307-4.216-11.403 2.056-4.096 7.279-5.632 11.663-3.43" fill="#93292e"/><path d="M59.767 131.892c.516.534.574 1.314.13 1.743-.444.43-1.223.346-1.738-.187-.515-.533-.573-1.313-.128-1.743.443-.43 1.22-.346 1.736.187m3.372-6.602c.514.534.46 1.423-.122 1.985-.58.562-1.47.587-1.985.053-.516-.532-.462-1.421.12-1.982.581-.564 1.47-.588 1.987-.055m5.009 8.186c.371.385.327 1.031-.1 1.443-.426.412-1.074.436-1.445.052-.372-.385-.328-1.032.099-1.444.426-.413 1.073-.436 1.446-.051m.647-4.428c.464.48.492 1.207.061 1.623-.432.417-1.157.366-1.621-.114-.464-.48-.492-1.207-.061-1.624.43-.416 1.156-.365 1.621.115m-4.632 2.291c.302.31.306.796.01 1.082-.295.286-.78.265-1.08-.046-.302-.312-.307-.797-.01-1.083.295-.285.78-.265 1.08.046m.925-8.719c.23.237.261.578.071.762-.19.184-.53.141-.76-.096-.228-.236-.26-.578-.07-.762.191-.183.53-.14.759.096m-6.825 2.03c.248-.217.59-.232.765-.034.176.198.116.536-.131.754-.247.218-.59.234-.765.035-.174-.198-.116-.537.131-.754m7.629 2.548c.3.313.306.796.01 1.083-.296.286-.78.264-1.08-.046-.302-.313-.308-.796-.01-1.083.294-.286.779-.265 1.08.046m2.925-1.134c.421.435.542 1 .27 1.263-.271.262-.831.123-1.252-.312-.421-.435-.542-1-.27-1.263.27-.262.832-.123 1.252.312m-11.569-.001c.3.312.305.796.01 1.082-.296.285-.78.265-1.082-.045-.3-.313-.305-.797-.01-1.083.297-.286.78-.266 1.082.046m4.749 8.494c.301.312.306.796.01 1.082-.296.286-.78.265-1.081-.046-.302-.312-.306-.796-.01-1.082.295-.286.78-.266 1.08.046" fill="#f79387"/><path d="M36.394 112.966c3.084-4.13 8.785-5.085 12.735-2.137 3.95 2.95 4.651 8.688 1.568 12.818-3.084 4.13-8.785 5.086-12.736 2.137-3.95-2.95-4.65-8.688-1.567-12.818" fill="#631a1d"/><path d="M36.18 113.254c2.936-3.932 8.293-4.897 11.966-2.155 3.672 2.744 4.268 8.153 1.333 12.085-2.936 3.932-8.293 4.896-11.965 2.154-3.673-2.743-4.27-8.154-1.335-12.084" fill="#93292e"/><path d="M44.6 121.531c.615-.414 1.393-.334 1.738.179.345.512.126 1.264-.489 1.677-.615.414-1.393.334-1.739-.179-.344-.511-.126-1.263.49-1.677m-5.91-4.475c.616-.413 1.481-.205 1.932.467.453.67.32 1.55-.295 1.964-.614.414-1.48.206-1.93-.465-.453-.671-.321-1.551.294-1.966m8.936-3.498c.445-.298 1.073-.141 1.404.351.331.492.24 1.134-.203 1.432-.444.299-1.072.142-1.403-.35-.333-.492-.241-1.134.202-1.433m-4.246-1.413c.555-.373 1.275-.273 1.61.225.334.498.156 1.203-.397 1.576-.554.373-1.275.272-1.61-.225-.334-.497-.157-1.202.397-1.576m1.444 4.962c.36-.243.838-.162 1.067.18.23.34.125.813-.234 1.055-.36.242-.838.163-1.068-.18-.23-.34-.124-.814.235-1.055m-8.423-2.438c.274-.185.616-.156.763.063.148.22.046.547-.227.732-.273.183-.615.154-.763-.065-.147-.22-.046-.546.227-.73m.804 7.075c-.17-.282-.126-.622.1-.759.226-.138.548-.02.72.261.17.281.126.622-.1.76-.226.136-.549.02-.72-.262m3.845-7.064c.36-.242.838-.162 1.069.18.229.34.123.813-.235 1.055-.36.242-.838.163-1.068-.18-.23-.34-.125-.814.234-1.056m-.604-3.079c.502-.338 1.08-.358 1.292-.044.21.313-.026.84-.527 1.179-.502.338-1.08.358-1.292.044-.21-.313.025-.84.527-1.178M38.42 122.99c.36-.24.837-.16 1.067.181.229.34.124.814-.234 1.057-.36.24-.838.16-1.068-.18-.23-.342-.125-.815.235-1.057m9.195-3.187c.36-.243.837-.163 1.066.18.23.34.125.814-.234 1.055-.36.243-.838.162-1.067-.179-.23-.341-.126-.815.235-1.056" fill="#f79387"/><path d="M21.397 107.142c-1.556-4.914.992-10.102 5.69-11.592 4.7-1.489 9.77 1.288 11.328 6.202 1.555 4.913-.992 10.102-5.692 11.592-4.7 1.488-9.77-1.288-11.326-6.202" fill="#631a1d"/><path d="M21.505 107.484c-1.482-4.678.86-9.593 5.229-10.977 4.37-1.384 9.112 1.287 10.594 5.965 1.482 4.677-.859 9.591-5.228 10.975-4.37 1.384-9.113-1.286-10.595-5.963" fill="#93292e"/><path d="M33.14 105.471c.023-.741.541-1.327 1.159-1.308.617.018 1.1.635 1.077 1.375-.022.741-.54 1.326-1.159 1.309-.616-.02-1.1-.635-1.077-1.376m-7.082 2.19c.024-.74.697-1.322 1.506-1.297.809.024 1.447.644 1.424 1.386-.022.74-.696 1.322-1.504 1.297-.81-.024-1.447-.644-1.426-1.386m2.37-9.299c.017-.535.511-.954 1.105-.936.592.018 1.06.466 1.045 1-.017.535-.51.954-1.104.936-.593-.017-1.06-.465-1.046-1m-3.623 2.625c.02-.668.521-1.194 1.12-1.176.6.019 1.07.574 1.05 1.241-.02.668-.523 1.195-1.121 1.177-.6-.018-1.069-.574-1.05-1.242m4.873 1.721c.013-.434.357-.775.768-.762.411.011.734.373.721.805-.013.434-.356.776-.768.763-.41-.012-.734-.374-.72-.806m-6.893 5.42c.01-.33.232-.59.496-.582.265.007.472.281.462.61-.01.33-.233.59-.497.583-.265-.009-.47-.282-.46-.61m6.215 3.471c-.329-.025-.578-.259-.558-.522.02-.265.303-.457.632-.432.328.025.579.259.558.523-.02.263-.303.457-.632.432m-3.496-7.243c.014-.434.357-.775.77-.763.41.013.732.374.72.806-.014.434-.356.776-.77.763-.41-.012-.733-.373-.72-.806m-2.854-1.305c.018-.605.339-1.086.717-1.075.377.012.668.51.65 1.116-.018.605-.339 1.086-.716 1.075-.377-.012-.67-.51-.65-1.116m8.07 8.289c.014-.433.357-.774.769-.762.41.013.733.374.721.807-.013.433-.358.775-.769.763-.41-.013-.734-.374-.721-.808m2.773-9.328c.013-.433.356-.774.768-.761.411.012.734.373.721.806-.013.434-.357.775-.768.762-.411-.013-.735-.373-.721-.807" fill="#f79387"/><path d="M45.943 85.46c5.143-.347 9.578 3.36 9.91 8.278.331 4.919-3.57 9.185-8.712 9.532-5.143.345-9.579-3.36-9.91-8.28-.33-4.918 3.57-9.185 8.712-9.53" fill="#631a1d"/><path d="M45.585 85.483c4.896-.33 9.115 3.111 9.423 7.685.307 4.573-3.413 8.546-8.309 8.876-4.895.329-9.114-3.111-9.42-7.684-.309-4.573 3.411-8.548 8.306-8.877" fill="#93292e"/><path d="M44.78 97.263c.714.198 1.16.84.995 1.436-.164.596-.877.919-1.591.72-.715-.197-1.16-.84-.996-1.436.164-.594.877-.917 1.591-.72m-.447-7.399c.714.199 1.12.991.903 1.77-.215.78-.969 1.253-1.684 1.055-.714-.197-1.12-.99-.903-1.769.215-.78.97-1.252 1.684-1.056m8.472 4.509c.515.144.805.723.646 1.295-.158.571-.704.92-1.219.778-.515-.143-.806-.722-.647-1.294.157-.573.704-.92 1.22-.779m-1.69-4.143c.643.178 1.036.79.876 1.368-.16.578-.812.903-1.455.725-.643-.178-1.036-.791-.877-1.368.16-.578.811-.902 1.456-.725m-2.829 4.325c.419.115.669.53.559.927-.109.397-.537.625-.954.51-.418-.116-.669-.53-.559-.928.11-.396.538-.624.954-.509m-3.629-7.981c.318.087.518.365.448.62s-.386.39-.703.303c-.317-.088-.518-.366-.448-.62.071-.256.385-.391.703-.303m-4.849 5.214c.103-.313.39-.5.64-.418.253.081.373.403.27.716-.101.313-.389.5-.64.419-.251-.083-.373-.404-.27-.717m7.866-1.678c.418.117.668.531.558.929-.11.396-.537.623-.954.509-.418-.117-.669-.53-.558-.929.109-.395.537-.624.954-.509m1.944-2.462c.584.16.975.586.875.951-.102.364-.655.528-1.238.367-.584-.16-.975-.587-.874-.95.1-.364.654-.53 1.237-.368m-9.967 5.873c.417.117.667.53.557.928-.11.395-.537.623-.954.51-.418-.117-.668-.533-.558-.93.11-.395.537-.624.955-.508m8.403 4.907c.418.116.668.53.558.927-.11.397-.537.625-.954.51-.419-.116-.668-.531-.559-.927.11-.397.537-.626.955-.51" fill="#f79387"/><path d="M17.25 85.465c-1.285-4.992 1.543-10.033 6.316-11.263 4.775-1.229 9.685 1.821 10.971 6.813 1.284 4.991-1.544 10.033-6.318 11.263-4.774 1.228-9.684-1.822-10.97-6.813" fill="#631a1d"/><path d="M17.339 85.812c-1.223-4.752 1.383-9.53 5.822-10.674 4.439-1.142 9.028 1.784 10.252 6.536 1.223 4.752-1.383 9.53-5.822 10.673-4.439 1.143-9.03-1.783-10.252-6.535" fill="#93292e"/><path d="M29.066 84.44c.064-.74.613-1.296 1.23-1.243.614.052 1.063.694 1 1.432-.063.739-.613 1.295-1.23 1.243-.614-.053-1.062-.693-1-1.432m-7.191 1.799c.064-.739.769-1.282 1.575-1.213.806.068 1.41.722 1.346 1.461-.062.739-.767 1.283-1.573 1.213-.807-.068-1.41-.722-1.348-1.461m2.876-9.156c.047-.533.563-.924 1.154-.874.59.05 1.034.524.989 1.056-.046.533-.562.925-1.153.874-.592-.05-1.034-.523-.99-1.056m-3.761 2.423c.056-.666.586-1.164 1.183-1.113.598.051 1.036.632.98 1.297-.057.665-.587 1.164-1.184 1.113-.598-.051-1.036-.631-.98-1.297m4.771 1.985c.037-.432.399-.754.81-.72.408.035.712.414.675.845-.037.432-.399.755-.809.72-.41-.036-.712-.414-.676-.845m-7.178 5.034c.027-.328.264-.577.527-.554.264.022.455.307.428.635-.03.328-.265.576-.529.555-.264-.024-.454-.307-.426-.635m6.016 3.807c-.327-.043-.563-.29-.529-.552.034-.263.328-.44.655-.397.326.042.564.29.529.553-.035.262-.328.44-.655.396m-3.094-7.423c.037-.433.399-.754.81-.72.41.035.71.414.675.845-.037.432-.398.755-.81.72-.409-.035-.712-.414-.675-.845m-2.778-1.46c.05-.602.397-1.065.774-1.034.376.033.64.547.589 1.15-.051.603-.398 1.066-.775 1.034-.375-.032-.64-.546-.588-1.15m7.604 8.72c.038-.432.4-.754.81-.72.409.036.711.414.676.846-.037.432-.4.754-.81.719-.41-.035-.712-.413-.676-.846m3.28-9.162c.037-.432.398-.753.809-.718.41.035.712.413.676.844-.037.433-.399.754-.809.72-.41-.036-.714-.413-.676-.846" fill="#f79387"/><path d="M23.072 54.552c4.787-1.913 10.148.247 11.979 4.824 1.83 4.578-.568 9.838-5.353 11.752-4.786 1.912-10.148-.247-11.98-4.825-1.828-4.578.568-9.838 5.354-11.75" fill="#631a1d"/><path d="M22.74 54.685c4.556-1.821 9.63.152 11.331 4.409 1.7 4.256-.615 9.182-5.171 11.003-4.556 1.821-9.629-.152-11.33-4.408-1.701-4.256.614-9.183 5.17-11.004" fill="#93292e"/><path d="M25.6 66.14c.742-.031 1.365.443 1.391 1.06.027.617-.552 1.144-1.293 1.176-.74.032-1.362-.442-1.39-1.06-.026-.616.552-1.143 1.293-1.175m-2.704-6.902c.74-.031 1.37.598 1.404 1.407.036.808-.536 1.49-1.277 1.521-.74.033-1.37-.597-1.404-1.405-.036-.808.536-1.49 1.277-1.523m9.448 1.681c.535-.023.989.44 1.014 1.032.026.593-.386 1.093-.92 1.116-.535.023-.99-.439-1.014-1.032-.027-.593.386-1.092.92-1.116m-2.884-3.421c.668-.03 1.23.432 1.255 1.03.026.6-.494 1.11-1.16 1.139-.668.029-1.23-.434-1.256-1.032-.026-.599.493-1.108 1.161-1.137m-1.359 4.986c.434-.02.8.298.817.71.019.41-.318.759-.75.778-.434.018-.8-.299-.817-.71-.018-.411.319-.76.75-.778m-5.912-6.476c.33-.015.607.188.618.452.012.264-.246.49-.575.505-.329.014-.605-.189-.617-.453-.011-.265.246-.49.575-.504m-3.007 6.454c.001-.33.217-.596.48-.595.266 0 .479.268.478.598 0 .33-.216.597-.481.596-.264-.001-.478-.27-.477-.599m6.966-4.019c.434-.018.8.3.818.712.018.41-.32.757-.75.778-.435.018-.8-.299-.818-.711-.018-.41.318-.76.75-.779m1.092-2.941c.605-.027 1.109.257 1.125.636.016.376-.46.703-1.065.73-.604.027-1.108-.258-1.124-.636-.016-.376.46-.704 1.064-.73m-7.674 8.657c.433-.017.798.3.817.711.017.41-.32.759-.752.779-.433.018-.799-.3-.817-.711-.017-.411.319-.76.752-.779m9.507 2.08c.433-.018.798.3.816.71.018.412-.319.76-.751.78-.434.018-.8-.3-.817-.71-.018-.412.318-.761.752-.78" fill="#f79387"/><path d="M44.126 64.111c5.143.356 9.033 4.631 8.694 9.549-.34 4.918-4.785 8.615-9.928 8.26-5.14-.358-9.032-4.632-8.693-9.55.342-4.918 4.786-8.615 9.927-8.259" fill="#631a1d"/><path d="M43.769 64.086c4.895.34 8.607 4.321 8.29 8.894-.317 4.572-4.542 8.003-9.437 7.664-4.895-.339-8.607-4.32-8.29-8.892.317-4.573 4.542-8.005 9.437-7.666" fill="#93292e"/><path d="M41.37 75.647c.68.294 1.036.991.791 1.559-.244.567-.994.79-1.675.497-.681-.293-1.035-.99-.791-1.558.243-.567.993-.79 1.674-.498m.563-7.391c.68.294.974 1.134.654 1.877-.319.744-1.13 1.11-1.812.816-.68-.292-.974-1.133-.654-1.875.32-.744 1.13-1.11 1.812-.818m7.78 5.619c.491.212.7.825.465 1.37-.234.545-.823.816-1.314.606-.491-.212-.7-.825-.465-1.37.234-.546.822-.817 1.314-.606M48.6 69.54c.614.265.92.924.683 1.475-.237.55-.927.784-1.54.52s-.919-.924-.682-1.474c.236-.551.925-.784 1.54-.52m-3.391 3.9c.4.171.59.617.428.995-.161.377-.617.545-1.014.374-.399-.171-.59-.616-.428-.994.163-.378.618-.546 1.015-.375M42.7 65.04c.303.13.464.433.36.676-.105.243-.436.335-.739.205-.301-.13-.463-.433-.359-.677.106-.242.435-.334.738-.204m-5.513 4.507c.145-.296.454-.442.692-.327.239.115.314.45.17.746s-.454.444-.692.328c-.237-.116-.314-.45-.17-.747m8.021-.593c.398.173.59.617.427.996-.162.377-.616.544-1.014.375-.399-.173-.591-.617-.428-.996.162-.377.617-.546 1.015-.375m2.262-2.175c.556.239.886.714.736 1.061-.15.347-.72.434-1.276.196-.556-.24-.886-.714-.737-1.062.15-.346.72-.434 1.276-.195m-10.673 4.464c.398.172.589.616.426.995-.162.376-.617.544-1.015.375-.398-.172-.589-.618-.427-.996.163-.377.618-.546 1.016-.374m7.659 6.004c.398.17.59.615.426.994-.162.378-.617.546-1.015.375-.398-.172-.59-.617-.427-.994.163-.379.617-.547 1.016-.375" fill="#f79387"/><path d="M50.12 46.527c3.297 3.961 2.898 9.728-.89 12.882-3.788 3.154-9.532 2.499-12.83-1.462-3.297-3.962-2.899-9.729.89-12.884 3.79-3.152 9.532-2.498 12.83 1.464" fill="#631a1d"/><path d="M49.89 46.25c3.14 3.773 2.83 9.207-.693 12.14-3.524 2.932-8.923 2.251-12.063-1.52-3.139-3.771-2.829-9.205.694-12.137 3.523-2.933 8.924-2.253 12.062 1.518" fill="#93292e"/><path d="M39.878 52.51c.26.695.001 1.434-.578 1.65-.579.216-1.259-.173-1.517-.867-.26-.694 0-1.432.578-1.65.579-.215 1.258.173 1.517.867m5.73-4.703c.258.694-.146 1.488-.905 1.77-.757.283-1.582-.05-1.841-.745-.26-.694.145-1.488.903-1.77.758-.283 1.582.05 1.843.745m1.319 9.506c.186.501-.113 1.076-.67 1.283-.554.207-1.157-.03-1.344-.53-.187-.502.112-1.077.668-1.284.556-.209 1.158.03 1.346.53m2.363-3.799c.234.626-.032 1.303-.593 1.512-.562.21-1.207-.127-1.44-.753-.234-.625.032-1.303.593-1.512.562-.21 1.206.127 1.44.753m-5.162.247c.153.407-.037.853-.423.997-.384.144-.82-.069-.972-.474-.151-.407.038-.853.423-.997.386-.143.821.07.972.474m4.334-7.622c.116.309.008.635-.24.727-.247.093-.542-.083-.658-.391-.114-.309-.007-.634.24-.727.25-.092.543.083.658.391m-7.067-.867c.314-.1.634.022.714.274.082.252-.108.537-.421.639-.314.1-.634-.022-.716-.274-.08-.252.109-.538.423-.639m5.974 5.386c.15.406-.039.852-.425.997-.385.143-.82-.07-.972-.474-.15-.408.037-.854.424-.998.385-.143.82.069.973.475m3.134.129c.212.567.097 1.134-.257 1.267-.354.13-.812-.22-1.024-.788-.212-.567-.096-1.134.258-1.266.353-.131.812.22 1.023.787M39.9 46.16c.15.407-.04.852-.425.997-.384.143-.82-.07-.973-.474-.15-.407.04-.853.425-.997.385-.144.82.069.972.475m.957 9.684c.152.406-.037.852-.423.995-.386.145-.821-.068-.973-.473-.151-.407.038-.853.423-.996.386-.144.822.067.973.474" fill="#f79387"/><path d="M42.096 33.075c-1.788-4.835.51-10.138 5.134-11.85 4.623-1.71 9.82.824 11.609 5.658 1.786 4.834-.512 10.138-5.136 11.85-4.623 1.708-9.82-.824-11.607-5.658" fill="#631a1d"/><path d="M42.22 33.411c-1.702-4.603.403-9.622 4.702-11.213 4.3-1.589 9.163.853 10.865 5.456 1.702 4.602-.402 9.621-4.701 11.21-4.3 1.59-9.164-.851-10.866-5.453" fill="#93292e"/><path d="M53.746 30.849c-.012-.742.478-1.352 1.096-1.362.617-.011 1.129.582 1.141 1.322.013.742-.477 1.35-1.096 1.362-.616.01-1.128-.581-1.14-1.322m-6.971 2.523c-.011-.74.634-1.354 1.443-1.367.809-.015 1.475.575 1.488 1.316.013.741-.632 1.355-1.441 1.367-.81.015-1.476-.574-1.49-1.316m1.927-9.402c-.009-.534.465-.976 1.058-.986.593-.01 1.082.415 1.091.949.01.535-.464.977-1.057.987-.594.011-1.082-.414-1.092-.95m-3.495 2.795c-.012-.668.464-1.218 1.063-1.228.6-.01 1.096.523 1.107 1.19.012.668-.465 1.218-1.064 1.228-.6.01-1.094-.522-1.106-1.19m4.948 1.488c-.008-.434.32-.791.731-.798.411-.008.751.338.759.77.007.434-.32.792-.731.799-.412.007-.751-.339-.759-.77m-6.627 5.74c-.006-.33.204-.601.468-.606.264-.005.484.26.49.589.005.328-.205.6-.469.605-.265.004-.483-.259-.489-.588m6.374 3.174c-.33-.01-.59-.232-.583-.496.007-.265.281-.471.61-.462.33.01.591.231.584.496-.008.264-.282.472-.611.462m-3.836-7.069c-.007-.434.32-.791.732-.799.41-.007.75.339.758.771.007.434-.319.792-.732.799-.41.007-.75-.338-.758-.771m-2.913-1.168c-.01-.605.287-1.101.665-1.108.378-.006.692.478.703 1.083.01.606-.287 1.102-.665 1.108-.377.006-.692-.478-.703-1.083m8.456 7.897c-.007-.434.32-.79.731-.798.41-.006.75.34.76.772.006.433-.322.79-.733.798-.411.007-.751-.339-.759-.772m2.328-9.449c-.008-.434.319-.79.73-.798.412-.007.752.339.76.772.007.434-.32.79-.731.798-.412.006-.753-.338-.76-.772" fill="#f79387"/><path d="M61.887 27.303c-3.406-3.869-3.167-9.644.532-12.902 3.7-3.258 9.46-2.762 12.866 1.106 3.405 3.869 3.167 9.645-.532 12.904-3.701 3.256-9.46 2.76-12.866-1.108" fill="#631a1d"/><path d="M62.124 27.573c-3.243-3.684-3.083-9.125.357-12.154 3.44-3.029 8.857-2.498 12.1 1.185 3.242 3.683 3.083 9.124-.357 12.152-3.44 3.03-8.858 2.499-12.1-1.183" fill="#93292e"/><path d="M71.959 21.038c-.279-.687-.04-1.433.532-1.664.573-.233 1.263.137 1.54.824.28.687.041 1.431-.532 1.664-.572.232-1.262-.137-1.54-.824m-5.597 4.86c-.278-.687.104-1.49.855-1.794.749-.304 1.583.006 1.861.693.279.687-.103 1.492-.853 1.794-.75.305-1.584-.006-1.863-.693m-1.582-9.465c-.2-.497.083-1.079.633-1.302.55-.222 1.159-.001 1.36.494.2.496-.083 1.079-.633 1.301-.55.224-1.158.003-1.36-.493m-2.257 3.863c-.251-.619-.005-1.303.55-1.527.557-.225 1.211.094 1.462.712.25.619.004 1.304-.551 1.529-.556.225-1.21-.094-1.461-.714m5.153-.39c-.164-.402.014-.853.395-1.007.38-.155.822.046.985.446.163.402-.014.854-.396 1.008-.38.154-.822-.046-.984-.447m-4.121 7.74c-.124-.306-.026-.634.219-.734.245-.1.545.068.669.373.123.305.024.634-.22.734-.246.098-.545-.068-.668-.373m7.088.67c-.31.11-.634-.004-.722-.253-.088-.25.093-.54.404-.65.31-.11.635.003.723.253.087.25-.094.541-.405.65m-6.12-5.217c-.162-.403.014-.854.396-1.009.381-.154.821.047.985.447.162.403-.013.854-.396 1.009-.38.154-.822-.046-.985-.447m-3.138-.043c-.227-.561-.128-1.13.223-1.273.35-.141.817.198 1.045.758.227.561.128 1.131-.222 1.273-.35.141-.818-.197-1.046-.758m10.729 4.33c-.162-.402.014-.852.396-1.007.38-.154.822.046.986.446.162.403-.016.854-.397 1.009-.381.154-.822-.046-.985-.448m-1.224-9.654c-.164-.402.013-.853.395-1.007.381-.155.822.046.985.447.163.402-.014.853-.395 1.007-.382.155-.824-.045-.986-.447" fill="#f79387"/><path d="M80.24 15.637c3.084-4.13 8.784-5.085 12.734-2.137 3.95 2.95 4.652 8.688 1.568 12.818-3.084 4.13-8.785 5.086-12.736 2.137-3.95-2.95-4.65-8.688-1.567-12.818" fill="#631a1d"/><path d="M80.024 15.925c2.937-3.932 8.294-4.897 11.967-2.154 3.672 2.743 4.269 8.153 1.333 12.084-2.936 3.932-8.293 4.896-11.965 2.154-3.673-2.743-4.27-8.154-1.335-12.084" fill="#93292e"/><path d="M88.444 24.203c.616-.415 1.395-.335 1.74.178.344.512.125 1.264-.49 1.677-.615.414-1.392.334-1.738-.178-.345-.512-.126-1.263.488-1.677m-5.908-4.476c.615-.413 1.48-.205 1.932.467.452.67.32 1.55-.295 1.964-.615.414-1.48.206-1.931-.465-.453-.671-.32-1.551.294-1.966m8.936-3.497c.445-.3 1.073-.142 1.404.35.331.492.24 1.134-.202 1.432-.445.299-1.073.142-1.404-.35-.332-.492-.241-1.133.202-1.433m-4.245-1.413c.554-.373 1.274-.273 1.608.225.335.498.158 1.203-.396 1.576s-1.275.272-1.61-.225c-.334-.497-.157-1.202.398-1.576m1.443 4.962c.36-.242.838-.162 1.067.18.23.34.125.814-.234 1.055-.36.242-.838.163-1.067-.18-.23-.34-.125-.813.234-1.055m-8.422-2.438c.273-.184.615-.156.762.063.149.22.046.547-.227.732-.273.183-.615.154-.763-.065-.147-.22-.045-.546.228-.73m.804 7.075c-.171-.282-.127-.622.099-.759.226-.138.548-.02.72.261.17.281.126.622-.1.76-.226.136-.549.02-.72-.262m3.846-7.065c.36-.24.837-.161 1.068.18.23.342.123.814-.234 1.056-.361.242-.839.163-1.069-.18-.23-.34-.125-.814.235-1.056m-.605-3.078c.502-.339 1.08-.359 1.292-.045.21.313-.026.84-.527 1.179-.502.338-1.08.358-1.291.045-.21-.313.024-.841.526-1.18m-2.027 11.391c.36-.241.837-.161 1.067.18.229.34.124.814-.234 1.057-.36.241-.838.16-1.068-.18-.23-.342-.125-.815.235-1.057m9.195-3.187c.36-.243.837-.162 1.066.18.23.34.125.814-.234 1.056-.36.242-.837.161-1.067-.18-.23-.341-.126-.815.235-1.056" fill="#f79387"/><path d="M98.004 21.685c3.084-4.13 8.785-5.086 12.735-2.137 3.95 2.95 4.651 8.688 1.568 12.818-3.084 4.129-8.785 5.086-12.736 2.137-3.95-2.95-4.65-8.688-1.567-12.818" fill="#631a1d"/><path d="M97.79 21.972c2.936-3.932 8.293-4.896 11.966-2.154 3.672 2.743 4.268 8.153 1.333 12.085-2.936 3.931-8.293 4.896-11.965 2.153-3.673-2.742-4.27-8.153-1.335-12.084" fill="#93292e"/><path d="M106.21 30.25c.615-.414 1.394-.335 1.738.178.345.513.126 1.264-.489 1.678-.615.414-1.393.334-1.739-.179-.344-.512-.126-1.263.49-1.677m-5.91-4.476c.616-.412 1.481-.204 1.932.467.453.67.32 1.551-.294 1.965-.615.414-1.481.206-1.932-.466-.452-.67-.32-1.55.295-1.966m8.936-3.497c.445-.299 1.073-.141 1.404.351.331.492.24 1.134-.203 1.432-.444.298-1.072.142-1.403-.35-.333-.493-.241-1.134.202-1.433m-4.245-1.413c.554-.373 1.274-.273 1.608.224.335.498.158 1.204-.396 1.577s-1.275.272-1.61-.225c-.334-.497-.157-1.203.398-1.576m1.443 4.962c.36-.243.838-.162 1.067.18.23.34.125.813-.234 1.055-.36.242-.838.162-1.067-.18-.23-.34-.125-.814.234-1.055m-8.422-2.438c.273-.185.615-.156.762.063.148.219.046.547-.227.731-.273.183-.615.155-.763-.064-.147-.22-.045-.547.228-.73m.804 7.074c-.172-.281-.127-.621.099-.758.226-.139.548-.02.72.26.17.282.126.622-.1.76-.226.137-.549.02-.72-.262m3.845-7.064c.361-.241.838-.161 1.069.18.229.341.123.813-.235 1.056-.36.242-.838.163-1.068-.18-.23-.34-.125-.814.234-1.056m-.604-3.078c.502-.339 1.08-.36 1.292-.045.21.313-.026.84-.527 1.178-.502.339-1.08.359-1.292.045-.21-.313.025-.84.527-1.179M100.03 31.71c.36-.242.837-.162 1.067.18.229.34.124.813-.234 1.056-.36.242-.838.161-1.068-.18-.23-.341-.125-.814.235-1.057m9.195-3.187c.36-.242.837-.162 1.066.18.23.341.125.814-.234 1.056-.36.242-.837.162-1.067-.179-.23-.342-.126-.815.235-1.057" fill="#f79387"/><path d="M112.745 33.024c3.085-4.13 8.785-5.085 12.735-2.137 3.95 2.95 4.651 8.688 1.568 12.818-3.084 4.13-8.785 5.086-12.736 2.137-3.95-2.95-4.65-8.688-1.567-12.818" fill="#631a1d"/><path d="M112.53 33.312c2.937-3.932 8.294-4.897 11.967-2.155 3.672 2.744 4.269 8.153 1.333 12.085-2.936 3.932-8.293 4.896-11.965 2.154-3.673-2.743-4.27-8.154-1.335-12.084" fill="#93292e"/><path d="M120.95 41.59c.616-.415 1.395-.335 1.74.178.344.512.125 1.264-.49 1.677-.615.414-1.392.334-1.739-.179-.344-.511-.125-1.262.49-1.677m-5.909-4.475c.615-.413 1.48-.205 1.932.467.452.67.32 1.55-.295 1.964-.615.414-1.481.206-1.931-.465-.453-.671-.32-1.551.294-1.966m8.936-3.498c.445-.298 1.073-.141 1.404.351.331.492.24 1.134-.202 1.432-.445.299-1.073.142-1.404-.35-.332-.492-.241-1.133.202-1.433m-4.245-1.413c.554-.373 1.274-.273 1.608.225.335.498.158 1.203-.396 1.576s-1.275.272-1.61-.225c-.334-.497-.157-1.202.398-1.576m1.443 4.962c.36-.243.838-.162 1.067.18.23.34.125.814-.234 1.055-.36.242-.838.163-1.067-.18-.23-.34-.125-.814.234-1.055m-8.422-2.438c.273-.185.615-.156.762.063.149.22.046.547-.227.732-.273.183-.615.154-.763-.065-.147-.22-.045-.546.228-.73m.804 7.075c-.171-.282-.127-.622.099-.759.226-.138.548-.02.72.261.17.281.126.622-.1.76-.226.136-.549.02-.72-.262m3.846-7.065c.36-.241.837-.161 1.068.18.23.342.123.814-.234 1.056-.361.242-.839.163-1.069-.18-.23-.34-.125-.814.235-1.056m-.605-3.078c.502-.339 1.08-.359 1.292-.045.21.313-.026.84-.527 1.179-.502.338-1.08.358-1.291.045-.21-.314.024-.842.526-1.18m-2.027 11.391c.36-.241.837-.161 1.067.18.229.34.124.814-.234 1.057-.36.241-.838.16-1.068-.18-.23-.342-.125-.815.235-1.057m9.195-3.187c.36-.243.837-.163 1.066.18.23.34.125.814-.234 1.055-.36.243-.837.162-1.067-.179-.23-.341-.126-.815.235-1.056" fill="#f79387"/><g><path d="M125.107 46.067c3.085-4.13 8.785-5.086 12.736-2.137 3.95 2.95 4.65 8.688 1.567 12.818-3.084 4.13-8.785 5.086-12.736 2.137-3.949-2.95-4.65-8.688-1.567-12.818" fill="#631a1d"/><path d="M124.893 46.354c2.936-3.932 8.293-4.896 11.966-2.154 3.673 2.744 4.269 8.153 1.333 12.085-2.936 3.932-8.293 4.896-11.965 2.153-3.673-2.742-4.27-8.153-1.334-12.084" fill="#93292e"/><path d="M133.313 54.632c.615-.414 1.394-.335 1.738.178.345.513.126 1.264-.488 1.678-.615.414-1.393.334-1.74-.179-.344-.512-.125-1.263.49-1.677m-5.909-4.476c.615-.412 1.48-.204 1.932.468.452.67.32 1.55-.295 1.964-.615.414-1.48.206-1.931-.466-.453-.67-.32-1.55.294-1.966m8.936-3.497c.445-.298 1.073-.141 1.405.351.33.492.24 1.134-.203 1.432-.444.298-1.073.142-1.404-.35-.332-.493-.24-1.134.203-1.433m-4.246-1.413c.554-.373 1.274-.273 1.609.224.334.499.157 1.204-.397 1.577s-1.275.272-1.609-.225c-.335-.497-.157-1.203.397-1.576m1.443 4.962c.36-.243.838-.162 1.068.18.23.34.124.813-.235 1.055-.36.242-.838.162-1.067-.18-.23-.34-.124-.814.234-1.055m-8.422-2.438c.273-.185.615-.156.763.063.148.22.045.547-.228.732-.273.182-.615.154-.763-.065-.147-.22-.045-.546.228-.73m.804 7.074c-.171-.281-.126-.621.099-.758.226-.139.548-.02.72.261.17.281.127.622-.1.76-.226.136-.548.02-.72-.263m3.846-7.064c.36-.241.838-.161 1.068.18.23.342.123.814-.234 1.056-.361.242-.838.163-1.069-.18-.23-.34-.124-.814.235-1.056m-.605-3.079c.502-.338 1.08-.358 1.292-.044.21.313-.025.84-.527 1.179-.502.338-1.08.358-1.291.044-.21-.313.024-.84.526-1.179m-2.027 11.391c.36-.242.837-.162 1.068.18.228.34.123.814-.235 1.056-.36.242-.838.161-1.068-.18-.23-.341-.124-.814.235-1.056m9.195-3.188c.36-.242.837-.162 1.067.18.23.342.125.814-.235 1.056-.36.243-.837.162-1.067-.179-.23-.342-.125-.815.235-1.057" fill="#f79387"/></g><g><path d="M125.407 66.475c3.085-4.13 8.785-5.086 12.736-2.137 3.95 2.95 4.65 8.688 1.567 12.818-3.084 4.13-8.785 5.086-12.736 2.137-3.949-2.95-4.65-8.688-1.567-12.818" fill="#631a1d"/><path d="M125.193 66.762c2.936-3.932 8.293-4.896 11.966-2.154 3.673 2.744 4.269 8.153 1.333 12.085-2.936 3.932-8.293 4.896-11.965 2.153-3.673-2.742-4.27-8.153-1.334-12.084" fill="#93292e"/><path d="M133.613 75.04c.615-.414 1.394-.335 1.738.179.345.512.126 1.263-.488 1.677-.615.414-1.393.334-1.74-.179-.344-.512-.125-1.263.49-1.677m-5.909-4.476c.615-.412 1.48-.204 1.932.468.452.67.32 1.55-.295 1.964-.615.414-1.48.206-1.931-.466-.453-.67-.32-1.55.294-1.966m8.936-3.497c.445-.298 1.073-.141 1.405.351.33.492.24 1.134-.203 1.432-.444.299-1.073.142-1.404-.35-.332-.493-.24-1.134.203-1.433m-4.246-1.413c.554-.373 1.274-.273 1.609.224.334.499.157 1.204-.397 1.577s-1.275.272-1.609-.225c-.335-.497-.157-1.202.397-1.576m1.443 4.962c.36-.243.838-.162 1.068.18.23.34.124.813-.235 1.055-.36.242-.838.162-1.067-.18-.23-.34-.124-.814.234-1.055m-8.422-2.438c.273-.185.615-.156.763.063.148.22.045.547-.228.732-.273.182-.615.154-.763-.065-.147-.22-.045-.546.228-.73m.804 7.075c-.171-.282-.126-.622.099-.76.226-.138.548-.02.72.262.17.281.127.622-.1.76-.226.136-.548.02-.72-.262m3.846-7.065c.36-.241.838-.161 1.068.18.23.342.123.814-.234 1.056-.361.242-.838.163-1.069-.18-.23-.34-.124-.814.235-1.056m-.605-3.078c.502-.339 1.08-.36 1.292-.045.21.313-.025.84-.527 1.179-.502.338-1.08.358-1.291.044-.21-.313.024-.84.526-1.179M127.433 76.5c.36-.241.837-.162 1.068.18.228.34.123.814-.235 1.056-.36.242-.838.161-1.068-.18-.23-.341-.124-.814.235-1.056m9.195-3.187c.36-.243.837-.163 1.067.18.23.34.125.814-.235 1.055-.36.243-.837.162-1.067-.179-.23-.342-.125-.815.235-1.056" fill="#f79387"/></g><g><path d="M124.268 84.936c3.085-4.13 8.785-5.085 12.736-2.137 3.95 2.95 4.65 8.688 1.567 12.819-3.084 4.128-8.785 5.085-12.736 2.136-3.949-2.95-4.65-8.688-1.567-12.818" fill="#631a1d"/><path d="M124.053 85.224c2.937-3.932 8.294-4.896 11.967-2.154 3.672 2.743 4.269 8.153 1.333 12.085-2.936 3.93-8.293 4.895-11.965 2.153-3.673-2.743-4.27-8.153-1.335-12.084" fill="#93292e"/><path d="M132.474 93.502c.615-.415 1.394-.335 1.738.178.345.512.126 1.264-.489 1.677-.614.414-1.392.334-1.738-.178-.345-.512-.126-1.263.489-1.677m-5.909-4.476c.615-.413 1.48-.205 1.932.467.452.67.32 1.55-.295 1.964-.615.414-1.48.206-1.931-.465-.453-.671-.32-1.551.294-1.966m8.936-3.498c.445-.298 1.073-.141 1.405.352.33.491.24 1.133-.203 1.431-.444.299-1.073.142-1.404-.35-.332-.492-.241-1.133.202-1.433m-4.245-1.413c.554-.373 1.274-.272 1.608.225.335.498.158 1.203-.396 1.576s-1.275.272-1.61-.224c-.334-.498-.156-1.203.398-1.577m1.443 4.962c.36-.242.838-.162 1.067.18.23.34.125.814-.234 1.055-.36.242-.838.163-1.067-.179-.23-.341-.124-.814.234-1.056m-8.422-2.438c.273-.184.615-.156.762.063.149.22.046.547-.227.732-.273.183-.615.154-.763-.065-.147-.22-.045-.546.228-.73m.803 7.075c-.17-.282-.126-.622.1-.759.226-.138.548-.02.72.261.17.281.127.622-.1.76-.226.136-.548.02-.72-.262m3.846-7.064c.36-.242.838-.162 1.068.18.23.34.123.813-.234 1.055-.361.242-.839.163-1.069-.18-.23-.34-.124-.813.235-1.055m-.605-3.08c.502-.338 1.08-.358 1.292-.044.21.313-.026.84-.527 1.179-.502.338-1.08.358-1.291.045-.21-.313.024-.841.526-1.18m-2.027 11.39c.36-.24.837-.16 1.067.181.23.34.124.814-.234 1.057-.36.241-.838.16-1.068-.18-.23-.342-.125-.815.235-1.057m9.196-3.187c.359-.243.836-.162 1.066.18.23.34.124.814-.235 1.056-.36.242-.837.162-1.067-.18-.23-.341-.125-.815.235-1.056" fill="#f79387"/></g><g><path d="M114.479 104.858c3.401-4.555 9.688-5.61 14.044-2.358 4.357 3.253 5.13 9.582 1.73 14.137-3.402 4.554-9.69 5.609-14.047 2.356-4.355-3.253-5.128-9.58-1.727-14.135" fill="#631a1d"/><path d="M114.242 105.174c3.238-4.336 9.146-5.4 13.197-2.375 4.05 3.025 4.707 8.991 1.47 13.327-3.238 4.336-9.146 5.4-13.196 2.375-4.05-3.024-4.709-8.992-1.471-13.327" fill="#93292e"/><path d="M123.528 114.304c.678-.457 1.537-.37 1.917.196.38.565.14 1.394-.54 1.85-.677.457-1.535.368-1.917-.197-.38-.565-.139-1.393.54-1.85m-6.517-4.936c.679-.455 1.633-.225 2.13.516.5.739.354 1.71-.325 2.166-.677.457-1.632.227-2.13-.513s-.352-1.71.325-2.169m9.856-3.857c.49-.329 1.183-.156 1.548.388.365.542.265 1.25-.223 1.579-.49.329-1.184.156-1.549-.387-.366-.543-.265-1.25.224-1.58m-4.682-1.558c.61-.411 1.405-.3 1.774.247.369.55.173 1.328-.437 1.74-.611.41-1.406.3-1.775-.249-.37-.548-.174-1.326.438-1.738m1.591 5.472c.397-.267.924-.179 1.177.198.254.375.138.898-.258 1.164-.397.267-.924.18-1.177-.198-.253-.376-.137-.898.258-1.164m-9.288-2.689c.301-.203.678-.172.841.07.163.242.05.603-.25.807-.302.201-.679.17-.842-.071-.162-.243-.05-.603.25-.806m.887 7.803c-.188-.311-.139-.686.11-.837.25-.153.604-.023.793.288.19.31.14.685-.11.837-.248.151-.604.022-.792-.288m4.24-7.791c.397-.266.924-.178 1.178.199.253.376.136.896-.258 1.164-.398.266-.925.18-1.179-.199-.253-.375-.137-.897.259-1.164m-.667-3.396c.554-.373 1.191-.395 1.425-.049.231.346-.028.927-.582 1.3-.553.373-1.19.395-1.424.05-.231-.346.028-.928.581-1.3m-2.235 12.561c.397-.266.923-.178 1.177.199.252.375.136.897-.259 1.165-.397.266-.924.177-1.178-.199-.253-.376-.137-.898.26-1.165m10.14-3.515c.397-.267.923-.179 1.176.198.254.377.138.898-.258 1.165-.397.267-.924.179-1.177-.198s-.138-.899.26-1.165" fill="#f79387"/></g><g><path d="M103.429 85.044c3.274-4.384 9.327-5.399 13.52-2.269 4.194 3.132 4.939 9.224 1.665 13.61-3.275 4.383-9.327 5.4-13.522 2.268-4.193-3.132-4.937-9.224-1.663-13.609" fill="#631a1d"/><path d="M103.2 85.35c3.118-4.175 8.806-5.199 12.706-2.288 3.898 2.913 4.531 8.656 1.414 12.831-3.116 4.174-8.804 5.198-12.703 2.286-3.899-2.911-4.533-8.656-1.416-12.83" fill="#93292e"/><path d="M112.14 94.138c.654-.44 1.48-.355 1.846.19.367.543.134 1.341-.519 1.78-.653.44-1.479.355-1.846-.19-.366-.543-.134-1.34.52-1.78m-6.274-4.752c.653-.438 1.572-.217 2.05.496.481.712.341 1.646-.312 2.086-.653.44-1.572.218-2.05-.495-.481-.712-.34-1.646.312-2.087m9.488-3.713c.472-.317 1.139-.15 1.49.373.352.522.256 1.203-.215 1.52-.471.317-1.139.15-1.49-.372-.353-.523-.256-1.203.215-1.521m-4.508-1.5c.589-.396 1.353-.29 1.708.238.356.529.167 1.278-.42 1.674-.589.395-1.354.289-1.71-.239-.355-.528-.166-1.277.422-1.673m1.533 5.268c.382-.258.889-.172 1.133.19s.132.865-.249 1.12c-.382.258-.89.173-1.133-.19-.244-.362-.132-.864.248-1.12m-8.941-2.589c.29-.196.653-.165.81.067.157.233.048.581-.242.777-.29.194-.653.164-.81-.068-.156-.234-.048-.58.242-.776m.853 7.511c-.181-.299-.134-.66.105-.805.24-.147.582-.022.765.277.181.299.134.66-.106.806-.24.146-.583.022-.764-.278m4.082-7.5c.383-.256.89-.171 1.135.192.243.362.13.863-.25 1.12-.382.257-.89.173-1.134-.19-.243-.362-.132-.865.25-1.122m-.642-3.268c.533-.36 1.146-.381 1.371-.048.223.333-.027.892-.56 1.252-.533.359-1.146.38-1.37.047-.224-.332.026-.893.559-1.251m-2.152 12.092c.382-.256.888-.17 1.133.192.242.362.131.864-.25 1.122-.381.256-.889.17-1.133-.192s-.132-.864.25-1.122m9.762-3.383c.381-.258.888-.172 1.132.19.244.363.133.865-.249 1.122-.382.257-.889.172-1.133-.19-.244-.363-.133-.866.25-1.122" fill="#f79387"/></g><g><path d="M104.351 64.783c3.243-4.342 9.237-5.347 13.39-2.247 4.154 3.101 4.89 9.135 1.649 13.477-3.243 4.342-9.237 5.348-13.391 2.247-4.152-3.102-4.89-9.135-1.648-13.477" fill="#631a1d"/><path d="M104.126 65.085c3.087-4.134 8.72-5.148 12.582-2.265 3.86 2.885 4.487 8.573 1.4 12.707-3.086 4.133-8.718 5.147-12.58 2.264-3.86-2.884-4.489-8.573-1.402-12.706" fill="#93292e"/><path d="M112.979 73.789c.647-.436 1.465-.352 1.828.187.363.539.132 1.329-.514 1.764-.647.435-1.465.351-1.829-.188-.362-.538-.132-1.328.515-1.763m-6.213-4.706c.647-.434 1.557-.215 2.031.49.476.706.337 1.631-.31 2.066-.646.436-1.557.217-2.03-.49-.476-.705-.337-1.63.31-2.066m9.395-3.678c.467-.313 1.128-.148 1.476.37.348.517.253 1.192-.213 1.505-.467.314-1.128.15-1.476-.368-.35-.518-.253-1.192.213-1.507m-4.464-1.485c.583-.392 1.34-.287 1.692.236.352.524.165 1.265-.417 1.657-.582.392-1.34.286-1.692-.236-.352-.523-.166-1.264.417-1.657m1.518 5.217c.378-.255.88-.17 1.122.188.242.358.13.856-.246 1.11-.379.255-.881.171-1.123-.188-.241-.359-.13-.856.247-1.11m-8.856-2.564c.288-.194.647-.164.802.067.156.23.048.575-.239.769-.287.192-.646.163-.802-.068-.155-.231-.048-.574.24-.768m.845 7.439c-.18-.296-.133-.654.104-.798.238-.145.576-.021.757.275.18.295.133.653-.105.798-.237.144-.577.021-.756-.275m4.042-7.428c.38-.253.881-.17 1.124.19.24.359.13.855-.247 1.11-.38.254-.881.171-1.123-.19-.241-.357-.131-.855.246-1.11m-.635-3.237c.528-.355 1.135-.377 1.358-.047.22.33-.027.884-.554 1.24-.528.355-1.136.376-1.358.047-.221-.33.026-.884.554-1.24m-2.131 11.976c.378-.253.88-.17 1.122.19.24.358.13.855-.247 1.11-.378.254-.881.17-1.123-.189-.24-.359-.13-.856.248-1.11m9.668-3.352c.377-.255.879-.17 1.12.189.242.359.132.856-.246 1.11-.379.255-.88.17-1.122-.188-.241-.36-.132-.857.247-1.11" fill="#f79387"/></g><g><path d="M96.51 44.829c3.084-4.13 8.785-5.086 12.735-2.137 3.95 2.95 4.651 8.688 1.568 12.818-3.085 4.13-8.785 5.086-12.737 2.137-3.949-2.95-4.65-8.688-1.566-12.818" fill="#631a1d"/><path d="M96.295 45.116c2.936-3.932 8.294-4.896 11.967-2.154 3.672 2.743 4.268 8.153 1.332 12.085-2.936 3.931-8.292 4.896-11.965 2.153-3.672-2.742-4.27-8.153-1.334-12.084" fill="#93292e"/><path d="M104.715 53.394c.616-.414 1.394-.335 1.739.178.345.513.126 1.264-.49 1.678-.614.414-1.392.334-1.738-.179-.344-.512-.126-1.263.489-1.677m-5.909-4.476c.616-.412 1.48-.204 1.932.468.452.67.32 1.55-.295 1.964-.614.414-1.48.206-1.93-.466-.454-.67-.321-1.55.293-1.966m8.937-3.498c.444-.297 1.073-.14 1.404.352.33.492.24 1.134-.203 1.432-.444.298-1.073.142-1.404-.35-.332-.493-.24-1.134.203-1.433m-4.246-1.413c.554-.373 1.275-.273 1.609.224.335.499.157 1.204-.396 1.577-.554.373-1.275.272-1.61-.225-.334-.497-.157-1.203.397-1.576m1.443 4.962c.36-.243.838-.162 1.068.18.23.34.124.813-.234 1.055-.36.242-.838.162-1.068-.18-.23-.34-.124-.814.234-1.055m-8.422-2.438c.274-.185.615-.156.763.063.148.22.046.547-.227.731-.273.183-.615.155-.763-.064-.147-.22-.046-.546.227-.73m.804 7.074c-.17-.281-.126-.621.1-.758.225-.139.548-.02.719.261.171.281.127.621-.1.76-.225.136-.548.02-.719-.263m3.845-7.064c.36-.241.838-.161 1.069.18.229.342.123.814-.235 1.056-.36.242-.838.163-1.068-.18-.23-.34-.125-.814.234-1.056m-.604-3.079c.502-.338 1.08-.358 1.291-.044.21.313-.025.84-.527 1.179-.502.338-1.08.358-1.29.044-.211-.313.024-.84.526-1.179m-2.027 11.391c.36-.242.837-.162 1.067.18.229.34.124.814-.234 1.056-.36.242-.839.161-1.069-.18-.229-.341-.124-.814.236-1.056m9.194-3.188c.36-.242.837-.162 1.067.18.23.341.125.814-.234 1.056-.36.243-.838.162-1.067-.179-.23-.342-.126-.815.235-1.057" fill="#f79387"/></g><g><path d="M54.348 42.852c3.084-4.13 8.785-5.086 12.735-2.138 3.95 2.95 4.651 8.688 1.568 12.819-3.084 4.129-8.785 5.085-12.736 2.136-3.95-2.95-4.65-8.687-1.567-12.817" fill="#631a1d"/><path d="M54.133 43.139c2.937-3.932 8.294-4.896 11.967-2.154 3.672 2.743 4.268 8.153 1.332 12.085-2.935 3.931-8.292 4.896-11.964 2.153-3.673-2.742-4.27-8.153-1.335-12.084" fill="#93292e"/><path d="M62.553 51.417c.616-.414 1.394-.335 1.739.178.345.512.126 1.264-.489 1.677-.615.414-1.393.335-1.739-.178-.344-.512-.126-1.263.49-1.677m-5.91-4.477c.616-.412 1.481-.204 1.932.468.453.67.32 1.55-.295 1.964-.614.415-1.48.206-1.93-.465-.453-.671-.321-1.551.293-1.966m8.937-3.498c.444-.298 1.073-.14 1.404.352.331.492.24 1.133-.203 1.432-.444.298-1.073.142-1.403-.351-.333-.492-.241-1.133.202-1.433m-4.246-1.413c.555-.372 1.275-.272 1.609.225.335.498.157 1.204-.396 1.576-.554.373-1.275.273-1.61-.224-.334-.498-.157-1.203.397-1.576m1.444 4.962c.36-.243.837-.163 1.067.179.23.34.125.814-.234 1.055-.36.243-.838.163-1.068-.179-.23-.341-.124-.814.235-1.055m-8.423-2.439c.274-.184.616-.156.763.064.148.219.046.547-.227.731-.273.183-.615.155-.763-.064-.147-.22-.046-.547.227-.73m.804 7.074c-.17-.282-.126-.621.1-.759s.548-.02.72.262c.17.28.126.621-.1.759-.226.137-.549.02-.72-.262m3.845-7.064c.36-.242.838-.162 1.069.18.229.341.123.813-.235 1.056-.36.241-.838.163-1.068-.18-.23-.34-.125-.814.234-1.056m-.605-3.079c.503-.338 1.08-.359 1.292-.045.21.314-.025.84-.527 1.18-.502.337-1.08.357-1.29.044-.211-.313.024-.841.526-1.179m-2.027 11.39c.36-.241.837-.161 1.067.18.229.341.124.814-.234 1.057-.36.241-.838.16-1.068-.18-.23-.342-.125-.815.235-1.057m9.195-3.187c.36-.243.836-.162 1.066.18.23.341.125.814-.234 1.056-.36.242-.838.162-1.067-.18-.23-.341-.126-.814.235-1.056" fill="#f79387"/></g><g><path d="M57.56 61.561c3.085-4.13 8.786-5.085 12.736-2.137 3.95 2.95 4.65 8.688 1.568 12.819-3.085 4.128-8.786 5.085-12.737 2.136-3.949-2.95-4.65-8.688-1.566-12.818" fill="#631a1d"/><path d="M57.346 61.849c2.936-3.932 8.294-4.896 11.967-2.154 3.672 2.743 4.268 8.153 1.332 12.085-2.936 3.93-8.293 4.895-11.965 2.153-3.672-2.743-4.27-8.153-1.334-12.084" fill="#93292e"/><path d="M65.766 70.127c.616-.414 1.394-.335 1.739.178.345.512.126 1.264-.49 1.677-.614.414-1.392.334-1.738-.178-.344-.512-.126-1.263.489-1.677m-5.909-4.477c.615-.412 1.48-.204 1.932.468.452.67.32 1.55-.295 1.964-.614.414-1.48.206-1.931-.465-.453-.671-.32-1.551.294-1.966m8.937-3.498c.444-.298 1.073-.141 1.404.352.33.491.24 1.133-.203 1.431-.444.299-1.073.142-1.404-.35-.332-.492-.24-1.133.203-1.433m-4.246-1.413c.554-.373 1.275-.272 1.609.225.335.498.157 1.203-.396 1.576-.554.373-1.275.272-1.61-.224-.335-.498-.157-1.203.397-1.577m1.443 4.962c.36-.242.838-.162 1.068.18.23.34.124.814-.234 1.055-.36.242-.838.163-1.068-.179-.23-.341-.124-.814.234-1.056m-8.421-2.438c.273-.184.614-.156.762.063.148.22.046.548-.227.732-.273.183-.615.155-.763-.065-.148-.22-.046-.546.227-.73m.804 7.075c-.171-.282-.126-.622.1-.759.225-.138.547-.02.719.261.171.282.127.622-.1.76-.225.136-.548.02-.719-.262m3.845-7.064c.36-.242.838-.162 1.069.18.229.34.123.813-.235 1.055-.36.242-.838.163-1.069-.18-.229-.34-.124-.813.235-1.055m-.604-3.079c.502-.339 1.08-.359 1.291-.045.21.314-.025.84-.527 1.179-.502.338-1.08.358-1.291.045-.21-.313.025-.841.527-1.18m-2.027 11.391c.36-.241.836-.161 1.067.18.228.34.124.814-.234 1.057-.36.241-.839.16-1.069-.18-.229-.342-.124-.815.236-1.057m9.194-3.187c.36-.243.837-.162 1.067.18.23.34.125.814-.234 1.056-.36.242-.838.162-1.067-.18-.23-.341-.126-.815.234-1.056" fill="#f79387"/></g><g><path d="M76.185 54.224c2.957-3.96 8.422-4.876 12.209-2.049 3.787 2.828 4.459 8.33 1.503 12.289-2.957 3.958-8.422 4.876-12.21 2.048-3.786-2.828-4.459-8.329-1.502-12.288" fill="#631a1d"/><path d="M75.979 54.5c2.815-3.77 7.95-4.694 11.472-2.066 3.52 2.63 4.092 7.817 1.278 11.586-2.815 3.77-7.95 4.694-11.47 2.064-3.522-2.629-4.095-7.816-1.28-11.585" fill="#93292e"/><path d="M84.051 62.435c.59-.397 1.337-.32 1.667.171.33.491.12 1.212-.469 1.608-.59.397-1.335.32-1.667-.17-.33-.492-.12-1.212.469-1.609m-5.665-4.291c.59-.395 1.42-.196 1.852.448.434.643.307 1.487-.282 1.884-.59.397-1.42.197-1.852-.447-.434-.643-.307-1.487.282-1.885m8.568-3.353c.426-.286 1.028-.135 1.346.337.317.472.23 1.087-.195 1.373-.425.286-1.028.136-1.345-.336-.319-.472-.231-1.086.194-1.374m-4.07-1.354c.53-.358 1.221-.262 1.542.215.32.478.15 1.154-.38 1.511-.531.358-1.222.261-1.543-.215-.32-.477-.15-1.153.38-1.511m1.384 4.757c.345-.233.803-.156 1.024.172.22.326.119.78-.225 1.012-.345.232-.803.156-1.023-.172-.22-.327-.12-.78.224-1.012m-8.074-2.338c.262-.176.59-.149.731.061.142.21.044.525-.218.701-.262.176-.59.149-.731-.061-.141-.212-.044-.524.218-.7m.771 6.782c-.165-.27-.122-.596.095-.727.216-.133.525-.02.69.25.164.27.121.596-.096.728-.216.131-.526.02-.69-.251m3.687-6.773c.345-.231.803-.154 1.024.173.22.327.118.78-.225 1.012-.346.232-.803.157-1.024-.172-.22-.327-.12-.78.225-1.013m-.58-2.951c.482-.325 1.036-.344 1.238-.043.202.3-.024.806-.505 1.13-.481.324-1.035.344-1.238.043-.201-.3.024-.806.505-1.13m-1.943 10.92c.345-.232.802-.155 1.023.172.22.327.119.78-.225 1.013-.345.232-.803.154-1.024-.173-.22-.327-.119-.78.226-1.012m8.815-3.056c.345-.232.802-.155 1.022.172.22.328.12.781-.224 1.013-.345.232-.803.155-1.023-.172-.22-.328-.12-.781.225-1.013" fill="#f79387"/></g><g><path d="M56.323 83.334c1.425-4.954 6.419-7.863 11.157-6.503 4.738 1.363 7.423 6.482 6 11.436-1.426 4.953-6.42 7.864-11.158 6.503-4.738-1.363-7.423-6.482-5.999-11.436" fill="#631a1d"/><path d="M56.246 88.34c-1.4-4.704 1.027-9.577 5.42-10.885 4.394-1.306 9.088 1.447 10.488 6.15 1.4 4.703-1.026 9.575-5.42 10.882-4.393 1.308-9.089-1.445-10.488-6.148" fill="#93292e"/><path d="M67.027 88.444c.43-.605 1.186-.806 1.69-.448.504.357.565 1.138.136 1.742-.43.605-1.185.805-1.69.448-.503-.357-.564-1.137-.136-1.742m-7.109-2.097c.43-.603 1.312-.715 1.972-.246.66.467.848 1.337.419 1.942-.429.604-1.313.716-1.971.247-.661-.467-.849-1.337-.42-1.943m7.122-6.432c.31-.436.953-.511 1.437-.167.484.343.626.975.317 1.41-.31.437-.953.513-1.437.169-.485-.343-.626-.975-.317-1.412m-4.471.18c.386-.545 1.096-.706 1.584-.359.49.348.573 1.07.187 1.615-.386.545-1.097.705-1.585.359-.49-.347-.573-1.07-.186-1.615m3.105 4.131c.25-.354.726-.448 1.061-.21.336.237.405.718.155 1.07-.251.354-.727.449-1.062.21-.336-.238-.404-.717-.154-1.07m-8.741.698c.19-.27.52-.363.736-.21.216.152.236.495.046.764-.19.268-.52.362-.736.21-.216-.154-.236-.495-.046-.764m3.254 6.333c-.26-.203-.338-.536-.175-.744.162-.21.505-.213.765-.01.26.202.339.536.176.745-.163.208-.506.212-.766.01m1.098-7.968c.252-.354.727-.448 1.064-.21.334.239.402.717.154 1.07-.252.355-.727.45-1.064.21-.334-.237-.404-.717-.154-1.07m-1.654-2.666c.35-.494.884-.718 1.193-.499.307.219.273.795-.076 1.29-.35.493-.884.716-1.192.498-.308-.219-.275-.796.075-1.29m2.132 11.372c.252-.353.726-.447 1.062-.21.335.239.404.718.155 1.072-.252.353-.727.447-1.063.21-.335-.24-.405-.719-.154-1.072m7.474-6.233c.25-.354.725-.448 1.06-.21.337.239.406.718.155 1.071-.25.354-.726.448-1.061.21-.336-.238-.406-.718-.154-1.071" fill="#f79387"/></g><g><path d="M83.448 70.883c3.338-4.47 9.507-5.504 13.783-2.313 4.275 3.193 5.033 9.403 1.696 13.873-3.338 4.469-9.508 5.504-13.784 2.313-4.274-3.193-5.033-9.403-1.695-13.873" fill="#631a1d"/><path d="M83.215 71.194c3.178-4.255 8.976-5.299 12.952-2.331 3.974 2.969 4.619 8.824 1.442 13.08-3.178 4.254-8.975 5.298-12.95 2.33-3.974-2.968-4.62-8.824-1.444-13.079" fill="#93292e"/><path d="M92.328 80.153c.666-.448 1.509-.362 1.882.193.373.554.136 1.368-.53 1.815-.665.449-1.507.362-1.881-.193-.373-.554-.137-1.367.529-1.815m-6.395-4.843c.666-.448 1.603-.222 2.09.505.49.725.348 1.678-.318 2.126-.665.448-1.603.223-2.09-.504-.49-.726-.347-1.679.318-2.128m9.672-3.785c.481-.323 1.16-.153 1.52.38.358.532.26 1.227-.22 1.55-.48.323-1.161.153-1.52-.38-.359-.532-.26-1.226.22-1.55m-4.595-1.529c.6-.404 1.38-.295 1.74.243.363.539.171 1.302-.428 1.706-.6.403-1.38.294-1.742-.243-.362-.539-.17-1.302.43-1.706m1.562 5.37c.39-.263.907-.176 1.155.194.25.368.135.881-.253 1.142-.39.263-.907.176-1.156-.194-.248-.369-.134-.88.254-1.142m-9.115-2.639c.296-.2.666-.169.825.069.16.237.05.592-.246.791-.295.198-.665.168-.825-.07-.16-.238-.05-.59.246-.79m.87 7.657c-.185-.305-.137-.673.107-.821.245-.15.594-.022.78.282.184.305.137.673-.109.822-.244.148-.593.022-.778-.283m4.161-7.646c.39-.26.907-.174 1.157.196.247.369.133.88-.254 1.142-.39.262-.907.176-1.157-.195-.248-.368-.135-.88.254-1.143m-.654-3.332c.543-.366 1.169-.388 1.398-.048.227.34-.028.91-.57 1.276-.544.366-1.17.388-1.398.048-.227-.339.027-.91.57-1.276M85.64 81.733c.39-.261.906-.175 1.155.195.248.368.134.88-.253 1.143-.39.261-.907.174-1.156-.195-.249-.37-.135-.881.254-1.143m9.952-3.45c.389-.262.905-.175 1.154.195.249.37.135.881-.254 1.143-.39.262-.906.175-1.155-.194-.248-.37-.136-.882.255-1.144" fill="#f79387"/></g></svg>