<svg xmlns="http://www.w3.org/2000/svg" width="600" height="600" viewBox="0 0 158.75 158.75"><g fill-rule="evenodd"><path d="M80.36 26.805c-1.858 8.325 12.652 21.157 22.419 14.407 7.197-4.976 7.796-11.359 5.767-16.174-1.435-3.402-4.522-6.499-9.85-8.36-7.363-2.571-16.698 2.78-18.336 10.127zm5.602 6.914c2.617 3.743 8.527 6.34 12.904 4.578 5.33-2.142 9.097-9.077 5.803-14.374-1.267-2.039-4.945-4.178-7.376-4.367a25.559 25.559 0 0 0-4.897.066c-6.074.639-10.005 8.99-6.434 14.097" fill="#552842"/><path d="M104.897 38.334c8.474-8.703 2.527-19.466-7.708-21.448-8.131-1.576-16.158 4.805-16.605 11.479-.26 3.882 3.106 7.226 5.65 9.616 5.345 5.02 13.134 6.03 18.663.353zM85.962 33.72c2.617 3.743 8.527 6.34 12.903 4.58 5.331-2.144 9.099-9.078 5.804-14.376-1.267-2.039-4.945-4.178-7.376-4.367a25.615 25.615 0 0 0-4.897.066c-6.074.639-10.005 8.991-6.434 14.097" fill="#d7cdc1"/><path d="M82.954 32.05c2.004 5.094 8.169 9.78 13.769 8.954 6.817-1.007 13.15-8.04 10.791-15.141-.907-2.733-4.597-6.259-7.38-7.16a30.713 30.713 0 0 0-5.73-1.295c-7.264-.953-14.185 7.686-11.45 14.642zm3.008 1.669c2.617 3.743 8.527 6.341 12.903 4.58 5.331-2.144 9.098-9.08 5.804-14.376-1.267-2.039-4.945-4.178-7.376-4.367a25.559 25.559 0 0 0-4.897.066c-6.074.639-10.007 8.99-6.434 14.097" fill="#7b4c70"/><path d="M83.79 32.42c2.171 4.757 8.286 8.912 13.58 7.836 6.448-1.306 12.13-8.334 9.52-14.983-1.003-2.558-4.7-5.732-7.4-6.45a29.272 29.272 0 0 0-5.527-.942c-6.975-.541-13.134 8.047-10.173 14.54zm2.171 1.3c2.618 3.742 8.528 6.34 12.905 4.577 5.33-2.142 9.097-9.077 5.803-14.374-1.267-2.039-4.945-4.178-7.376-4.367a25.644 25.644 0 0 0-4.897.066c-6.074.639-10.006 8.99-6.435 14.097" fill="#9a648d"/><path d="M84.318 32.255c2.07 4.536 7.9 8.497 12.95 7.472 6.15-1.246 11.568-7.947 9.08-14.287-.958-2.44-4.484-5.467-7.059-6.153a27.972 27.972 0 0 0-5.27-.896c-6.65-.517-12.524 7.673-9.7 13.864zm1.834 1.364c2.563 3.664 8.35 6.21 12.638 4.484 5.22-2.098 8.908-8.89 5.683-14.078-1.242-1.997-4.843-4.092-7.225-4.278a25.071 25.071 0 0 0-4.795.065c-5.95.626-9.798 8.806-6.301 13.807" fill="#d7cdc1"/><path d="M20.489 103.674c3.57 7.161 21.724 7.927 24.846-2.764 2.3-7.88-1.039-12.883-5.363-15.189-3.057-1.63-7.136-2.06-12.118-.264-6.882 2.481-10.516 11.898-7.365 18.217zm8.168 1.723c4.119 1.178 9.959-.424 12.105-4.296 2.615-4.712 1.257-11.99-4.273-13.9-2.129-.735-6.073-.118-7.955 1.181a23.977 23.977 0 0 0-3.527 2.944c-4.046 4.057-1.97 12.463 3.65 14.07" fill="#552842"/><path d="M45.176 97.562c1.025-11.349-9.67-15.671-18.296-11.063-6.854 3.66-8.927 13.054-5.305 18.178 2.106 2.982 6.534 3.427 9.8 3.663 6.86.495 13.13-3.375 13.8-10.778zm-16.52 7.835c4.12 1.178 9.96-.424 12.106-4.295 2.615-4.713 1.259-11.99-4.273-13.901-2.129-.735-6.073-.118-7.955 1.181a24.03 24.03 0 0 0-3.527 2.944c-4.046 4.057-1.97 12.464 3.65 14.07" fill="#d7cdc1"/><path d="M25.48 105.96c4.471 2.525 11.731 2.292 15.321-1.62 4.37-4.765 4.823-13.631-1.094-17.408-2.276-1.454-7.048-1.84-9.609-.851a28.812 28.812 0 0 0-4.938 2.445c-5.853 3.601-5.786 13.985.32 17.433zm3.177-.563c4.119 1.178 9.96-.424 12.105-4.295 2.615-4.713 1.257-11.99-4.273-13.901-2.129-.735-6.073-.118-7.955 1.181a23.977 23.977 0 0 0-3.527 2.944c-4.046 4.057-1.971 12.464 3.65 14.07" fill="#7b4c70"/><path d="M26.307 105.735c4.394 2.181 11.304 1.591 14.524-2.323 3.923-4.764 3.906-13.242-1.926-16.541-2.244-1.27-6.813-1.395-9.204-.322a27.46 27.46 0 0 0-4.582 2.583c-5.4 3.73-4.807 13.626 1.188 16.603zm2.35-.338c4.119 1.178 9.959-.424 12.105-4.296 2.615-4.712 1.257-11.99-4.273-13.9-2.129-.735-6.073-.118-7.955 1.181a24.057 24.057 0 0 0-3.527 2.944c-4.046 4.057-1.971 12.463 3.65 14.071" fill="#9a648d"/><path d="M26.594 105.302c4.19 2.08 10.778 1.518 13.85-2.215 3.741-4.543 3.725-12.627-1.836-15.774-2.14-1.211-6.498-1.33-8.778-.307a26.24 26.24 0 0 0-4.368 2.463c-5.15 3.557-4.585 12.994 1.132 15.833zm2.142-.09c4.034 1.152 9.753-.416 11.855-4.207 2.561-4.615 1.232-11.743-4.185-13.613-2.085-.72-5.947-.117-7.791 1.156a23.52 23.52 0 0 0-3.453 2.882c-3.964 3.974-1.93 12.207 3.574 13.782" fill="#d7cdc1"/><path d="M118.397 87.302c3.57 7.161 21.724 7.927 24.846-2.764 2.3-7.88-1.039-12.882-5.363-15.189-3.057-1.63-7.136-2.06-12.118-.264-6.882 2.481-10.516 11.898-7.365 18.217zm8.168 1.723c4.119 1.178 9.959-.424 12.105-4.296 2.615-4.712 1.257-11.99-4.273-13.9-2.129-.735-6.073-.118-7.955 1.181a23.977 23.977 0 0 0-3.527 2.944c-4.046 4.057-1.97 12.464 3.65 14.071" fill="#552842"/><path d="M143.084 81.19c1.025-11.349-9.67-15.671-18.296-11.063-6.854 3.66-8.927 13.054-5.305 18.179 2.106 2.981 6.534 3.426 9.8 3.662 6.86.495 13.13-3.375 13.8-10.778zm-16.52 7.835c4.12 1.178 9.96-.424 12.106-4.295 2.615-4.713 1.259-11.99-4.273-13.9-2.129-.736-6.073-.12-7.955 1.18a24.03 24.03 0 0 0-3.527 2.944c-4.046 4.057-1.97 12.465 3.65 14.071" fill="#d7cdc1"/><path d="M123.387 89.588c4.472 2.525 11.732 2.292 15.322-1.62 4.37-4.765 4.823-13.631-1.094-17.408-2.276-1.454-7.048-1.84-9.609-.85a28.812 28.812 0 0 0-4.938 2.444c-5.853 3.601-5.786 13.985.32 17.434zm3.178-.563c4.119 1.178 9.96-.424 12.105-4.295 2.615-4.713 1.257-11.99-4.273-13.9-2.129-.736-6.073-.12-7.955 1.18a23.977 23.977 0 0 0-3.527 2.944c-4.046 4.057-1.971 12.465 3.65 14.071" fill="#7b4c70"/><path d="M124.215 89.363c4.394 2.181 11.304 1.591 14.524-2.323 3.923-4.764 3.906-13.242-1.926-16.54-2.244-1.27-6.813-1.396-9.204-.323a27.46 27.46 0 0 0-4.582 2.583c-5.4 3.73-4.807 13.626 1.188 16.603zm2.35-.337c4.119 1.177 9.959-.425 12.105-4.297 2.615-4.711 1.257-11.99-4.273-13.9-2.129-.735-6.073-.118-7.955 1.181a24.057 24.057 0 0 0-3.527 2.944c-4.046 4.057-1.971 12.464 3.65 14.072" fill="#9a648d"/><path d="M124.502 88.93c4.19 2.08 10.778 1.518 13.85-2.214 3.741-4.544 3.725-12.628-1.836-15.774-2.14-1.212-6.498-1.33-8.778-.308a26.24 26.24 0 0 0-4.368 2.463c-5.15 3.557-4.585 12.994 1.132 15.834zm2.142-.09c4.034 1.153 9.753-.416 11.855-4.207 2.561-4.614 1.232-11.743-4.185-13.613-2.085-.72-5.947-.117-7.791 1.156a23.52 23.52 0 0 0-3.453 2.883c-3.964 3.973-1.93 12.207 3.574 13.78" fill="#d7cdc1"/><path d="M84.107 135.842c3.927 7.877 23.895 8.72 27.33-3.04 2.529-8.668-1.143-14.17-5.9-16.708-3.362-1.792-7.849-2.265-13.328-.29-7.57 2.729-11.567 13.087-8.102 20.038zm8.985 1.895c4.53 1.296 10.954-.467 13.315-4.725 2.876-5.183 1.382-13.189-4.7-15.29-2.342-.808-6.68-.13-8.75 1.3a26.373 26.373 0 0 0-3.88 3.237c-4.45 4.463-2.167 13.71 4.015 15.478" fill="#552842"/><path d="M111.262 129.119c1.127-12.483-10.636-17.238-20.124-12.169-7.54 4.027-9.82 14.359-5.836 19.995 2.316 3.28 7.187 3.77 10.78 4.029 7.546.544 14.442-3.712 15.18-11.855zm-18.17 8.618c4.53 1.296 10.954-.467 13.315-4.724 2.876-5.184 1.384-13.19-4.7-15.29-2.342-.81-6.68-.131-8.75 1.298a26.431 26.431 0 0 0-3.88 3.238c-4.45 4.463-2.167 13.71 4.015 15.478" fill="#d7cdc1"/><path d="M89.597 138.355c4.918 2.778 12.904 2.522 16.853-1.782 4.807-5.24 5.305-14.992-1.203-19.147-2.504-1.599-7.753-2.024-10.57-.936a31.692 31.692 0 0 0-5.432 2.69c-6.438 3.96-6.364 15.383.352 19.175zm3.495-.618c4.53 1.296 10.955-.467 13.315-4.724 2.876-5.184 1.382-13.19-4.7-15.29-2.342-.81-6.68-.131-8.75 1.298a26.373 26.373 0 0 0-3.88 3.238c-4.45 4.463-2.168 13.71 4.015 15.478" fill="#7b4c70"/><path d="M90.507 138.109c4.833 2.399 12.433 1.75 15.976-2.555 4.315-5.24 4.296-14.566-2.12-18.195-2.467-1.397-7.493-1.534-10.123-.354a30.204 30.204 0 0 0-5.04 2.84c-5.94 4.104-5.287 14.99 1.307 18.264zm2.585-.372c4.53 1.296 10.954-.467 13.315-4.725 2.876-5.183 1.382-13.189-4.7-15.29-2.342-.808-6.68-.13-8.75 1.3a26.461 26.461 0 0 0-3.88 3.237c-4.45 4.463-2.168 13.71 4.015 15.478" fill="#9a648d"/><path d="M90.822 137.633c4.609 2.287 11.856 1.669 15.235-2.437 4.115-4.997 4.097-13.89-2.02-17.35-2.354-1.333-7.147-1.464-9.655-.338a28.863 28.863 0 0 0-4.805 2.709c-5.664 3.912-5.042 14.293 1.245 17.416zm2.357-.1c4.437 1.268 10.728-.457 13.04-4.627 2.817-5.076 1.354-12.917-4.603-14.974-2.294-.792-6.542-.129-8.57 1.272a25.87 25.87 0 0 0-3.8 3.17c-4.358 4.371-2.121 13.427 3.933 15.159" fill="#d7cdc1"/><path d="M17.415 53.99c-2.648 7.55 9.454 21.104 19.297 15.892 7.254-3.842 8.515-9.722 7.155-14.431-.961-3.328-3.495-6.553-8.255-8.875-6.575-3.206-15.861.75-18.197 7.413zm4.456 7.058c2.026 3.775 7.245 6.847 11.517 5.688 5.202-1.409 9.475-7.454 6.99-12.752-.955-2.039-4.146-4.437-6.39-4.882a23.977 23.977 0 0 0-4.569-.478c-5.73-.074-10.311 7.274-7.548 12.424" fill="#552842"/><path d="M39.002 67.435c8.854-7.174 4.5-17.856-4.816-20.83-7.402-2.365-15.583 2.694-16.734 8.863-.67 3.588 2.096 7.074 4.203 9.58 4.426 5.266 11.57 7.065 17.347 2.387zm-17.13-6.387c2.025 3.775 7.244 6.847 11.515 5.688 5.203-1.409 9.477-7.453 6.992-12.752-.956-2.039-4.147-4.437-6.39-4.882a24.03 24.03 0 0 0-4.57-.478c-5.73-.074-10.312 7.274-7.548 12.424" fill="#d7cdc1"/><path d="M19.254 59.161c1.305 4.967 6.531 10.012 11.84 9.86 6.461-.187 13.136-6.04 11.721-12.916-.544-2.646-3.592-6.337-6.086-7.484a28.812 28.812 0 0 0-5.195-1.838c-6.662-1.688-14.062 5.597-12.28 12.378zm2.617 1.887c2.026 3.775 7.245 6.848 11.516 5.688 5.203-1.409 9.476-7.454 6.992-12.752-.956-2.039-4.147-4.437-6.39-4.882a23.977 23.977 0 0 0-4.57-.478c-5.73-.074-10.313 7.273-7.548 12.424" fill="#7b4c70"/><path d="M19.992 59.599c1.497 4.67 6.736 9.215 11.787 8.797 6.15-.507 12.219-6.427 10.52-12.91-.652-2.493-3.747-5.858-6.183-6.824a27.46 27.46 0 0 0-5.045-1.486c-6.438-1.274-13.123 6.049-11.08 12.423zm1.879 1.45c2.026 3.774 7.245 6.846 11.517 5.687 5.202-1.408 9.475-7.454 6.99-12.752-.955-2.039-4.146-4.437-6.39-4.882a24.057 24.057 0 0 0-4.569-.478c-5.73-.074-10.312 7.272-7.548 12.424" fill="#9a648d"/><path d="M20.501 59.503c1.429 4.454 6.423 8.787 11.241 8.389 5.866-.484 11.652-6.129 10.033-12.31-.623-2.379-3.574-5.587-5.897-6.51a26.24 26.24 0 0 0-4.81-1.415c-6.14-1.215-12.514 5.767-10.567 11.846zm1.558 1.473c1.985 3.696 7.095 6.705 11.28 5.57 5.093-1.379 9.279-7.3 6.846-12.488-.937-1.997-4.06-4.347-6.26-4.782a23.52 23.52 0 0 0-4.473-.468c-5.612-.073-10.1 7.123-7.393 12.168" fill="#d7cdc1"/><path d="M47.642 31.028c-.605 7.978 14.59 17.942 22.75 10.362 6.014-5.587 5.713-11.593 3.181-15.79-1.789-2.967-5.07-5.427-10.269-6.439-7.18-1.397-15.128 4.826-15.662 11.867zm6.13 5.666c2.933 3.123 8.77 4.74 12.596 2.516 4.661-2.705 7.226-9.65 3.456-14.125-1.45-1.722-5.153-3.214-7.435-3.063-1.61.105-2.989.326-4.537.719-5.554 1.41-8.08 9.692-4.08 13.953" fill="#552842"/><path d="M71.972 38.434c6.698-9.219-.27-18.412-10.038-18.877-7.761-.37-14.356 6.633-13.874 12.889.28 3.64 3.855 6.292 6.538 8.168 5.637 3.942 13.004 3.833 17.374-2.18zm-18.2-1.74c2.933 3.123 8.77 4.74 12.596 2.517 4.661-2.706 7.227-9.65 3.456-14.126-1.45-1.722-5.153-3.214-7.435-3.063a24.03 24.03 0 0 0-4.537.719c-5.554 1.41-8.081 9.693-4.08 13.953" fill="#d7cdc1"/><path d="M50.756 35.548c2.545 4.46 8.898 7.982 13.986 6.463 6.195-1.85 11.128-9.231 7.984-15.508-1.21-2.415-5.109-5.192-7.814-5.655a28.812 28.812 0 0 0-5.494-.432c-6.872.091-12.137 9.042-8.662 15.132zm3.017 1.146c2.932 3.123 8.769 4.741 12.595 2.517 4.661-2.706 7.226-9.651 3.456-14.126-1.45-1.722-5.153-3.214-7.435-3.063-1.61.105-2.989.326-4.537.719-5.554 1.41-8.082 9.692-4.08 13.953" fill="#7b4c70"/><path d="M51.582 35.78c2.655 4.125 8.89 7.16 13.661 5.45 5.81-2.08 10.142-9.367 6.825-15.19-1.275-2.24-5.135-4.69-7.738-4.994a27.46 27.46 0 0 0-5.257-.131c-6.55.434-11.113 9.236-7.491 14.865zm2.19.914c2.933 3.123 8.77 4.74 12.596 2.516 4.66-2.705 7.226-9.65 3.456-14.125-1.45-1.722-5.153-3.214-7.435-3.063a24.057 24.057 0 0 0-4.537.719c-5.554 1.41-8.082 9.691-4.08 13.953" fill="#9a648d"/><path d="M52.05 35.555c2.531 3.934 8.476 6.828 13.027 5.198 5.541-1.984 9.671-8.933 6.51-14.485-1.217-2.137-4.898-4.474-7.38-4.764a26.24 26.24 0 0 0-5.013-.124c-6.245.414-10.597 8.807-7.144 14.175zm1.885 1.02c2.873 3.058 8.588 4.643 12.336 2.465 4.564-2.65 7.077-9.451 3.385-13.834-1.421-1.687-5.046-3.148-7.283-3a23.52 23.52 0 0 0-4.442.704c-5.44 1.38-7.914 9.492-3.996 13.665" fill="#d7cdc1"/><path d="M40.335 117.357c-2.267 9.044 13.223 23.479 24.087 16.38 8.007-5.232 8.843-12.19 6.763-17.508-1.471-3.76-4.756-7.23-10.526-9.416-7.972-3.019-18.325 2.563-20.324 10.544zm5.925 7.715c2.753 4.164 9.136 7.171 13.97 5.37 5.885-2.19 10.198-9.66 6.75-15.542-1.327-2.264-5.285-4.706-7.936-4.983a27.938 27.938 0 0 0-5.352-.067c-6.656.526-11.189 9.54-7.432 15.222" fill="#552842"/><path d="M66.819 130.654c9.507-9.27 3.316-21.2-7.812-23.657-8.84-1.953-17.794 4.791-18.471 12.071-.395 4.235 3.188 7.985 5.9 10.668 5.697 5.638 14.18 6.963 20.383.918zm-20.56-5.582c2.754 4.164 9.137 7.171 13.97 5.37 5.886-2.19 10.2-9.66 6.751-15.542-1.327-2.264-5.285-4.706-7.936-4.983a28 28 0 0 0-5.352-.067c-6.656.526-11.19 9.541-7.432 15.222" fill="#d7cdc1"/><path d="M43.02 123.162c2.045 5.623 8.648 10.92 14.79 10.176 7.48-.906 14.599-8.41 12.224-16.238-.914-3.012-4.845-6.97-7.862-8.034a33.572 33.572 0 0 0-6.224-1.578c-7.91-1.248-15.718 7.995-12.927 15.674zm3.24 1.91c2.753 4.164 9.137 7.172 13.969 5.37 5.886-2.19 10.2-9.66 6.751-15.542-1.327-2.264-5.285-4.706-7.936-4.983a27.938 27.938 0 0 0-5.352-.067c-6.656.526-11.19 9.54-7.432 15.222" fill="#7b4c70"/><path d="M43.924 123.59c2.236 5.26 8.8 9.974 14.616 8.95 7.083-1.244 13.492-8.762 10.829-16.102-1.023-2.824-4.974-6.397-7.903-7.26a31.997 31.997 0 0 0-6.013-1.185c-7.606-.79-14.58 8.42-11.53 15.598zm2.335 1.482c2.754 4.164 9.137 7.171 13.97 5.37 5.886-2.19 10.2-9.66 6.751-15.542-1.327-2.264-5.285-4.706-7.936-4.983a28.032 28.032 0 0 0-5.352-.067c-6.656.526-11.19 9.54-7.433 15.222" fill="#9a648d"/><path d="M44.505 123.425c2.133 5.015 8.39 9.51 13.938 8.534 6.755-1.187 12.866-8.355 10.328-15.354-.976-2.694-4.744-6.102-7.537-6.924a30.575 30.575 0 0 0-5.733-1.13c-7.254-.753-13.905 8.029-10.996 14.874zm1.965 1.542c2.697 4.078 8.948 7.023 13.682 5.26 5.763-2.144 9.988-9.461 6.611-15.221-1.3-2.218-5.175-4.61-7.773-4.88a27.405 27.405 0 0 0-5.241-.066c-6.52.514-10.958 9.344-7.279 14.907" fill="#d7cdc1"/><path d="M62.55 76.545c8.366 3.386 24.279-9.528 18.931-20.894-3.942-8.376-10.5-10.11-15.877-8.83-3.8.907-7.569 3.59-10.437 8.829-3.963 7.237 0 17.909 7.383 20.895zm8.19-4.645c4.36-2.08 8.099-7.797 7.02-12.672-1.31-5.935-7.894-11.07-13.994-8.554-2.348.969-5.22 4.436-5.84 6.94a27.042 27.042 0 0 0-.781 5.122c-.389 6.45 7.645 12.004 13.594 9.164" fill="#552842"/><path d="M78.846 52.94c-7.61-10.356-19.877-6.02-23.724 4.318-3.057 8.213 2.208 17.7 9.095 19.324 4.007.947 8.082-1.985 11.018-4.225 6.167-4.706 8.574-12.66 3.611-19.416zM70.74 71.9c4.361-2.08 8.1-7.797 7.022-12.67-1.311-5.937-7.893-11.074-13.995-8.556-2.348.969-5.22 4.436-5.84 6.94a27.102 27.102 0 0 0-.781 5.122c-.389 6.45 7.645 12.004 13.594 9.164" fill="#d7cdc1"/><path d="M68.474 74.749c5.665-1.206 11.627-6.826 11.738-12.814.134-7.29-6.106-15.12-13.927-13.893-3.01.472-7.33 3.71-8.756 6.459a32.496 32.496 0 0 0-2.346 5.755c-2.257 7.415 5.557 16.14 13.291 14.493zM70.74 71.9c4.361-2.08 8.1-7.798 7.022-12.67-1.311-5.937-7.895-11.073-13.995-8.556-2.348.969-5.22 4.436-5.84 6.94a27.042 27.042 0 0 0-.781 5.122c-.389 6.45 7.644 12.005 13.594 9.164" fill="#7b4c70"/><path d="M69.006 73.94c5.343-1.438 10.74-7.098 10.539-12.81-.244-6.957-6.59-14.108-13.984-12.54-2.844.603-6.8 3.91-8.018 6.603a30.97 30.97 0 0 0-1.943 5.605c-1.777 7.186 6.117 15.106 13.406 13.143zm1.734-2.04c4.36-2.08 8.099-7.797 7.02-12.672-1.31-5.935-7.894-11.07-13.994-8.554-2.348.969-5.22 4.436-5.84 6.94a27.132 27.132 0 0 0-.781 5.122c-.389 6.45 7.643 12.005 13.595 9.165" fill="#9a648d"/><path d="M68.925 73.361c5.094-1.372 10.241-6.768 10.05-12.217-.233-6.634-6.285-13.453-13.334-11.958-2.714.575-6.485 3.73-7.648 6.297a29.595 29.595 0 0 0-1.851 5.344c-1.695 6.852 5.832 14.405 12.783 12.534zm1.743-1.676c4.27-2.04 7.931-7.637 6.876-12.41-1.283-5.813-7.731-10.843-13.705-8.378-2.3.949-5.113 4.343-5.72 6.797a26.526 26.526 0 0 0-.766 5.015c-.38 6.318 7.488 11.756 13.315 8.976" fill="#d7cdc1"/><g><path d="M81.948 83.518c-.567 7.47 13.659 16.797 21.299 9.702 5.63-5.23 5.347-10.854 2.978-14.784-1.676-2.776-4.748-5.08-9.614-6.027-6.723-1.308-14.163 4.518-14.663 11.11zm5.74 5.305c2.745 2.924 8.208 4.438 11.791 2.356 4.364-2.533 6.765-9.035 3.236-13.224-1.358-1.612-4.825-3.01-6.961-2.868a22.446 22.446 0 0 0-4.248.673c-5.2 1.32-7.565 9.074-3.819 13.063" fill="#552842"/><path d="M104.726 90.452c6.27-8.63-.253-17.237-9.398-17.672-7.266-.347-13.44 6.21-12.988 12.066.262 3.407 3.608 5.89 6.12 7.647 5.277 3.69 12.174 3.588 16.266-2.041zm-17.039-1.63c2.746 2.925 8.21 4.44 11.792 2.358 4.364-2.534 6.766-9.035 3.236-13.225-1.358-1.612-4.825-3.01-6.961-2.868a22.496 22.496 0 0 0-4.248.673c-5.2 1.32-7.565 9.075-3.819 13.063" fill="#d7cdc1"/><path d="M84.863 87.75c2.383 4.176 8.33 7.473 13.094 6.05 5.799-1.732 10.418-8.642 7.474-14.517-1.132-2.261-4.783-4.861-7.316-5.295a26.973 26.973 0 0 0-5.143-.404c-6.433.085-11.362 8.465-8.109 14.166zm2.824 1.073c2.746 2.924 8.21 4.439 11.792 2.357 4.364-2.534 6.765-9.036 3.236-13.225-1.358-1.612-4.825-3.01-6.961-2.868a22.446 22.446 0 0 0-4.248.673c-5.2 1.32-7.566 9.074-3.819 13.063" fill="#7b4c70"/><path d="M85.637 87.967c2.485 3.862 8.322 6.703 12.789 5.103 5.44-1.947 9.494-8.77 6.39-14.221-1.195-2.097-4.808-4.391-7.245-4.676a25.707 25.707 0 0 0-4.922-.122c-6.13.407-10.403 8.646-7.012 13.916zm2.05.856c2.746 2.924 8.21 4.438 11.792 2.356 4.363-2.533 6.765-9.035 3.236-13.224-1.358-1.612-4.825-3.01-6.961-2.868a22.522 22.522 0 0 0-4.248.673c-5.2 1.32-7.566 9.073-3.819 13.063" fill="#9a648d"/><path d="M86.074 87.757c2.37 3.682 7.936 6.392 12.196 4.866 5.188-1.857 9.054-8.363 6.095-13.56-1.14-2.002-4.586-4.189-6.91-4.46a24.565 24.565 0 0 0-4.693-.117c-5.846.388-9.92 8.246-6.688 13.27zm1.766.955c2.689 2.862 8.04 4.346 11.548 2.307 4.273-2.48 6.625-8.848 3.169-12.95-1.33-1.58-4.724-2.948-6.818-2.81-1.474.097-2.74.299-4.16.66-5.092 1.292-7.408 8.886-3.74 12.793" fill="#d7cdc1"/></g><g><path d="M107.51 46.18c-6.088 4.366-4.09 21.26 6.255 22.552 7.626.951 11.752-2.879 13.24-7.22 1.05-3.068.84-6.902-1.562-11.239-3.318-5.99-12.563-7.946-17.934-4.093zm-.376 7.806c-.476 3.983 1.875 9.142 5.773 10.548 4.745 1.715 11.27-.624 12.211-6.02.362-2.077-.795-5.63-2.277-7.177a22.446 22.446 0 0 0-3.246-2.82c-4.353-3.136-11.813.036-12.461 5.469" fill="#552842"/><path d="M116.836 68.086c10.642-.743 13.044-11.272 7.5-18.557-4.405-5.79-13.396-6.306-17.592-2.196-2.442 2.39-2.194 6.55-1.926 9.604.565 6.415 5.076 11.633 12.018 11.15zm-9.702-14.1c-.476 3.983 1.875 9.142 5.773 10.548 4.745 1.715 11.27-.623 12.211-6.02.362-2.077-.795-5.63-2.277-7.177a22.496 22.496 0 0 0-3.246-2.82c-4.353-3.136-11.814.036-12.461 5.469" fill="#d7cdc1"/><path d="M106.14 51.133c-1.667 4.51-.37 11.185 3.78 13.92 5.055 3.329 13.317 2.427 15.927-3.605 1.004-2.32.65-6.788-.646-9.007a26.973 26.973 0 0 0-2.996-4.2c-4.2-4.874-13.787-3.264-16.065 2.892zm.994 2.853c-.476 3.983 1.875 9.142 5.773 10.548 4.745 1.715 11.27-.624 12.211-6.02.362-2.077-.795-5.63-2.277-7.177a22.446 22.446 0 0 0-3.246-2.82c-4.353-3.136-11.814.034-12.461 5.469" fill="#7b4c70"/><path d="M106.471 51.865c-1.361 4.386.214 10.684 4.31 13.077 4.989 2.916 12.822 1.638 15.002-4.244.84-2.263.274-6.505-1.074-8.555a25.707 25.707 0 0 0-3.07-3.85c-4.251-4.435-13.31-2.413-15.168 3.572zm.662 2.121c-.475 3.983 1.876 9.142 5.774 10.548 4.745 1.715 11.27-.624 12.211-6.02.362-2.077-.795-5.63-2.277-7.177a22.522 22.522 0 0 0-3.246-2.82c-4.353-3.136-11.813.034-12.462 5.47" fill="#9a648d"/><path d="M106.914 52.065c-1.298 4.182.203 10.188 4.11 12.471 4.757 2.78 12.226 1.562 14.306-4.047.8-2.158.262-6.204-1.024-8.159a24.565 24.565 0 0 0-2.927-3.67c-4.055-4.23-12.693-2.301-14.465 3.405zm.403 1.967c-.465 3.9 1.837 8.952 5.654 10.33 4.646 1.68 11.037-.611 11.959-5.896.355-2.035-.778-5.514-2.23-7.03a22.018 22.018 0 0 0-3.179-2.761c-4.263-3.071-11.57.035-12.204 5.357" fill="#d7cdc1"/></g><g><path d="M54.585 90.981c-1.7 6.781 9.914 17.604 18.06 12.282 6.003-3.923 6.63-9.14 5.07-13.128-1.103-2.818-3.566-5.42-7.892-7.06-5.977-2.263-13.74 1.923-15.238 7.906zm4.442 5.784c2.064 3.123 6.85 5.377 10.474 4.027 4.413-1.642 7.647-7.243 5.061-11.653-.994-1.697-3.962-3.529-5.95-3.736a20.947 20.947 0 0 0-4.013-.05c-4.99.394-8.389 7.153-5.572 11.412" fill="#552842"/><path d="M74.441 100.95c7.129-6.949 2.487-15.894-5.856-17.736-6.63-1.465-13.342 3.592-13.85 9.05-.296 3.176 2.39 5.987 4.424 8 4.272 4.226 10.632 5.22 15.282.687zm-15.414-4.185c2.064 3.123 6.85 5.377 10.474 4.028 4.413-1.643 7.648-7.243 5.061-11.654-.994-1.697-3.962-3.529-5.95-3.736a20.994 20.994 0 0 0-4.013-.05c-4.99.394-8.39 7.153-5.572 11.412" fill="#d7cdc1"/><path d="M56.598 95.334c1.533 4.216 6.484 8.187 11.09 7.63 5.607-.68 10.945-6.307 9.164-12.175-.685-2.258-3.633-5.226-5.894-6.024a25.172 25.172 0 0 0-4.667-1.183c-5.93-.936-11.785 5.995-9.693 11.752zm2.429 1.431c2.064 3.123 6.85 5.378 10.474 4.028 4.413-1.643 7.647-7.244 5.061-11.654-.994-1.697-3.962-3.529-5.95-3.736a20.947 20.947 0 0 0-4.013-.05c-4.99.394-8.39 7.152-5.572 11.412" fill="#7b4c70"/><path d="M57.275 95.655c1.677 3.944 6.598 7.478 10.96 6.71 5.31-.933 10.115-6.57 8.119-12.073-.768-2.117-3.73-4.796-5.926-5.443a23.99 23.99 0 0 0-4.508-.888c-5.703-.593-10.932 6.312-8.645 11.694zm1.751 1.11c2.065 3.123 6.851 5.377 10.475 4.027 4.413-1.641 7.647-7.243 5.061-11.653-.994-1.697-3.962-3.529-5.95-3.736a21.03 21.03 0 0 0-4.013-.05c-4.99.394-8.39 7.152-5.573 11.413" fill="#9a648d"/><path d="M57.711 95.53c1.6 3.761 6.291 7.131 10.45 6.4 5.065-.89 9.647-6.265 7.744-11.512-.732-2.02-3.556-4.575-5.651-5.192a22.925 22.925 0 0 0-4.298-.847c-5.439-.565-10.426 6.02-8.245 11.152zm1.474 1.157c2.022 3.057 6.709 5.266 10.258 3.944 4.32-1.607 7.489-7.094 4.957-11.412-.975-1.663-3.88-3.457-5.829-3.66a20.548 20.548 0 0 0-3.929-.049c-4.888.386-8.216 7.006-5.457 11.177" fill="#d7cdc1"/></g><g><path d="M112.906 114.883c6.702 1.986 18.009-9.157 13.038-17.522-3.664-6.165-8.85-7.013-12.9-5.624-2.863.982-5.568 3.332-7.39 7.585-2.515 5.876 1.337 13.808 7.252 15.56zm5.967-4.193c3.207-1.93 5.664-6.615 4.468-10.294-1.452-4.478-6.911-7.947-11.427-5.552-1.738.922-3.694 3.81-3.985 5.787a20.947 20.947 0 0 0-.22 4.007c.18 5.003 6.789 8.685 11.164 6.052" fill="#552842"/><path d="M123.71 95.467c-6.64-7.417-15.774-3.159-17.97 5.098-1.745 6.56 3.022 13.482 8.454 14.222 3.16.43 6.083-2.134 8.18-4.08 4.404-4.088 5.667-10.4 1.336-15.24zm-4.837 15.223c3.207-1.93 5.664-6.615 4.47-10.293-1.454-4.48-6.912-7.95-11.43-5.553-1.737.922-3.693 3.81-3.984 5.787a20.994 20.994 0 0 0-.22 4.007c.18 5.003 6.79 8.686 11.164 6.052" fill="#d7cdc1"/><path d="M117.34 113.056c4.277-1.353 8.455-6.13 8.094-10.755-.44-5.631-5.835-11.204-11.774-9.674-2.285.589-5.375 3.407-6.27 5.633a25.172 25.172 0 0 0-1.38 4.612c-1.186 5.886 5.489 12.03 11.33 10.184zm1.533-2.366c3.207-1.93 5.664-6.616 4.47-10.293-1.454-4.48-6.913-7.948-11.43-5.553-1.737.922-3.693 3.81-3.984 5.787a20.947 20.947 0 0 0-.22 4.007c.18 5.003 6.788 8.687 11.164 6.052" fill="#7b4c70"/><path d="M117.69 112.393c4.011-1.508 7.751-6.274 7.17-10.664-.707-5.345-6.134-10.386-11.717-8.625-2.148.677-4.951 3.522-5.69 5.689a23.99 23.99 0 0 0-1.08 4.466c-.834 5.673 5.842 11.19 11.316 9.134zm1.184-1.702c3.206-1.93 5.663-6.616 4.467-10.295-1.452-4.478-6.911-7.947-11.427-5.552-1.738.922-3.694 3.81-3.985 5.787a21.017 21.017 0 0 0-.22 4.007c.18 5.003 6.788 8.686 11.165 6.053" fill="#9a648d"/><path d="M117.584 111.952c3.825-1.438 7.391-5.982 6.837-10.169-.674-5.098-5.849-9.904-11.172-8.226-2.05.646-4.722 3.36-5.427 5.426a22.925 22.925 0 0 0-1.03 4.258c-.795 5.41 5.572 10.672 10.792 8.711zm1.218-1.423c3.14-1.89 5.546-6.479 4.376-10.081-1.422-4.386-6.769-7.783-11.191-5.438-1.703.904-3.618 3.73-3.904 5.668a20.548 20.548 0 0 0-.216 3.924c.177 4.9 6.65 8.506 10.935 5.927" fill="#d7cdc1"/></g></g></svg>