<svg xmlns="http://www.w3.org/2000/svg" width="600" height="600" viewBox="0 0 158.75 158.75"><g fill-rule="evenodd"><path d="M77.475 124.756c2.512 1.214 4.759 1.435 7.56 1.503-1.39-2.81-4.309-2.484-7.106-2.854l-.454 1.35" fill="#de6a4f"/><path d="M77.106 124.102c2.507.904 5.366 1.064 8.698.24-1.81-1.018-3.288-1.557-5.394-1.49l.466-.438c-1.174-.424-2.434-.462-3.88.352l.11 1.336" fill="#e8795e"/><path d="M78.165 124.88c-.18.24-.612.45-.869.576-.44.217-.881.415-1.314.65l-.01.006-.01.003c-.245.1-.488.204-.732.308-.14.061-.283.116-.425.171-.393.15-.75.344-1.128.53-.258.127-.601.289-.865.186-.23-.088-.323-.343-.368-.585-.023-.127-.145-.309-.212-.41-.136-.199-.281-.392-.414-.593-.226-.34-.494-.8-.439-1.26.066-.557-.479-.781-.43-1.17.02-.158.127-.276.252-.363.1-.069.22-.127.33-.173.154-.066.31-.124.467-.177.391-.134.794-.244 1.192-.335.322-.075.648-.14.971-.18a3.43 3.43 0 0 1 .802-.026c.16.018.322.035.484.05.439.045.88.08 1.314.144.316.047.717.117.99.274.375.214.536.532.588.99.04.33.04 1.1-.173 1.383" fill="#e8795e"/><path d="M77.998 124.817c-.244.325-1.165.652-2.113 1.167-.787.317-.632.277-1.156.475-1.238.473-1.953 1.25-2.137.254-.092-.496-1.158-1.411-1.064-2.203.094-.79-.782-1.02-.271-1.377.471-.33 2.733-.963 3.634-.858 1.053.123 2.238.167 2.728.448.248.142.45.355.509.865.043.362.016 1.034-.13 1.23" fill="#fab6a5"/><path d="M71.846 128.061c-.225-.016-.47-.198-.644-.33-.278-.21-.544-.427-.83-.626l-.009-.006-.007-.008c-.236-.216-.482-.42-.713-.64-.242-.232-.506-.45-.735-.694-.179-.19-.368-.436-.358-.735.007-.239.136-.444.302-.616.425-.443.868-.854 1.39-1.152.186-.108.369-.223.555-.331.38-.222.967-.548 1.362-.347a.426.426 0 0 1 .166.148c.08.122.096.278.105.429.009.15.014.294.046.437.024.106.157.265.217.354.061.09.119.187.153.297.095.305.27.554.33.882.009.052.015.105.02.158.012.146.007.293.006.44a1.54 1.54 0 0 0 .02.335l.009.03c.062.183.244.296.233.525-.022.403-.187.695-.49.972-.226.21-.846.499-1.127.478" fill="#e06b50"/><path d="M71.88 127.869c-.303-.022-.728-.465-1.397-.929-.48-.439-.4-.342-.711-.64-.736-.704-1.418-1.125-.802-1.766.307-.32.774-.788 1.344-1.113.569-.327 1.338-.88 1.752-.67.25.127.14.492.233.905.048.215.07.53.15.783.093.296.492.439.547.741.057.321-.282.721-.223.982.047.208.517.31.51.461-.014.26-.09.52-.419.822-.231.213-.802.438-.985.424" fill="#fab6a5"/><path d="M71.119 129.365c-.126.045-.316.02-.442.003-.212-.03-.423-.07-.633-.111-.562-.106-1.125-.208-1.702-.252-.59-.045-1.192.082-1.775.247-.217.061-.437.132-.655.183-.164.037-.387.08-.494-.071-.067-.097-.051-.218-.004-.328.016-.038.028-.092.04-.133l.067-.263c.062-.238.127-.476.205-.71.094-.281.223-.61.402-.85a27.813 27.813 0 0 1 1.239-1.497c.287-.319.591-.645.912-.927.198-.174.534-.453.797-.45.462.008.823.212 1.105.558.095.116.14.28.19.423a.638.638 0 0 0 .12.226c.163.167.353.313.52.476.11.105.215.219.302.344.092.132.158.278.219.43.049.121.095.248.16.36.019.031.037.06.06.088.094.124.208.22.326.32.105.089.23.191.284.323a.441.441 0 0 1 .024.276c-.028.117-.102.21-.175.303a1.808 1.808 0 0 0-.203.316c-.152.312-.576.604-.888.715" fill="#e06b50"/><path d="M70.884 129.106c-.247.093-1.404-.255-2.608-.333-1.452-.094-2.938.887-2.703.32.085-.202.308-1.387.692-1.906.399-.542 2.186-2.812 2.73-2.812.323 0 .43.062.717.425.12.154.06.64.217.806.204.214.868.378 1.073.686.194.288.094.744.277.991.212.287.637.306.702.476.091.239-.14.314-.344.733-.145.297-.566.544-.753.614" fill="#fab6a5"/><path d="M72.14 127.486c.283-.08.566-.173.859-.18a1.734 1.734 0 0 1-.135.139 1.884 1.884 0 0 1-.508.296.782.782 0 0 0-.215-.255m-1.257 1.62c-.123.048-.477-.017-.95-.103.603-.471.952-1.231 1.809-1.413.116.05.21.096.238.168.091.24-.14.314-.344.734-.145.297-.566.544-.753.614" fill="#f79f89"/><path d="M69.234 132.438c-.249.11-.495.223-.742.339-.142.067-.286.13-.43.19-.378.158-.65.43-.869.779-.08.126-.146.254-.219.384-.068.125-.155.271-.31.278-.217.009-.285-.28-.328-.447-.043-.162-.147-.336-.231-.476-.132-.216-.272-.425-.403-.641-.33-.55-.596-1.123-.676-1.789-.072-.603-.047-2.109.508-2.524.422-.314 1.068-.247 1.53-.202.192.019.37.097.548.16.09.03.188.059.286.066.499.034 1.01-.097 1.512-.064a.86.86 0 0 1 .406.157c.061.038.154.103.229.114.04.006.081.007.122.004.215-.013.48-.11.676-.015.405.198.596.508.683.964.064.328.12 1.097-.083 1.389-.171.248-.606.477-.865.614-.443.236-.888.455-1.323.709l-.01.005-.01.005" fill="#e06b50"/><path d="M71.042 130.9c-.227.337-1.134.716-2.06 1.283-.774.363-.622.312-1.135.542-1.22.543-1.211 2.099-1.449 1.122-.15-.619-1.077-1.491-1.215-2.845-.062-.613.012-1.988.442-2.322.314-.243.58-.035 1.14.013.254.021.743.26 1.027.276.483.026.717-.256 1.176-.232.243.014.594.407.798.434.263.036.629-.401.784-.326.257.127.471.325.558.828.061.358.071 1.025-.066 1.226" fill="#fab6a5"/><path d="M71.042 130.9c-.09.134-.29.275-.556.433-.225-.09-.764.468-.46-.28.303-.747.217-1.374-.26-1.882.263.036.629-.401.784-.326.257.127.471.325.558.828.062.358.071 1.025-.066 1.226" fill="#f79f89"/><path d="M72.42 131.91c-.032.292-.303.71-.464.962-.274.43-.56.846-.82 1.286l-.006.01-.006.01c-.166.223-.327.447-.487.674-.093.13-.19.259-.288.385-.254.332-.399.682-.507 1.077-.038.14-.07.283-.113.42-.042.132-.102.273-.23.34-.21.108-.417-.07-.554-.196a1.487 1.487 0 0 0-.179-.134c-.091-.062-.186-.12-.28-.178-.237-.146-.474-.29-.706-.444-.336-.223-.804-.556-.998-.927a6.425 6.425 0 0 0-.315-.522c-.239-.373-.619-.92-.502-1.43a.822.822 0 0 1 .138-.303c.122-.165.3-.264.474-.346.181-.084.364-.155.542-.249a.36.36 0 0 0 .067-.045c.101-.08.192-.213.273-.315.126-.16.255-.297.43-.393.174-.093.396-.072.574-.059.08.007.295.026.37-.016.373-.209.633-.63 1.021-.821.278-.136.622-.294.917-.335.45-.063.764.081 1.059.397.211.226.627.81.59 1.153" fill="#e06b50"/><path d="M68.36 136.254c-.54-.332-1.199-.75-1.416-1.167-.342-.656-1.023-1.366-.76-1.943.144-.317.782-.193 1.22-.424.3-.16.205-.77.554-.959.231-.126.916.324 1.149.193.39-.218.579-.735.92-.9.336-.167.523-.47.748-.502.297-.042.59-.004.919.348.114.122.253.311.363.5-.202.033-.4.12-.604.274-.28.212-.555.575-.764.863-.287.397-.555.81-.827 1.216-.1.152-.202.301-.304.451-.264.383-.557.75-.81 1.138-.178.27-.358.59-.388.912" fill="#fab6a5"/><path d="M71.516 138.625a2.59 2.59 0 0 1-.755-.253c-.283-.137-.557-.3-.831-.451-.177-.1-.354-.195-.528-.3-.417-.251-1.011-.653-1.037-1.24-.018-.378.193-.763.4-1.083.256-.398.554-.773.82-1.165.105-.153.207-.307.31-.461.276-.416.548-.84.84-1.247.211-.294.49-.667.773-.885.389-.3.749-.356 1.174-.258.592.134.967.692 1.173 1.262.247.68.312 1.498.232 2.262a6.77 6.77 0 0 1-.07.483c-.155.807-.503 1.675-.997 2.357-.35.483-.926 1.065-1.504.98" fill="#e06b50"/><path d="M71.563 138.436c-.476-.073-.907-.338-1.537-.687-.629-.346-1.455-.776-1.488-1.382-.03-.56.869-1.116 1.441-1.949.67-.972 1.064-2.211 1.568-2.592.255-.192.545-.318 1.016-.207 1.05.243 1.553 2.063 1.24 3.737-.31 1.674-1.435 3.204-2.24 3.08" fill="#fab6a5"/><path d="M70.707 132.464c.334-1.363.083-1.337-.68-1.41.336-.167.523-.47.748-.502.297-.042.59-.004.919.348.09.098.198.238.293.386a1.46 1.46 0 0 0-.479.254c-.283.218-.562.59-.774.885l-.027.039m.261.166c.192-.358.376-.65.579-.804.254-.192.545-.318 1.016-.207.906.209 1.404 1.592 1.325 3.044-.868-1.685-1.034-2.094-2.92-2.034" fill="#f79f89"/><path d="M69.57 135.34c-.253.809.16.847.831 1.388.44.355.921.694 1.283.727.647.062 1.163-.575 1.724-1.834-.327 1.635-.969 2.72-1.894 2.602-.488-.061-1.501-.635-2.093-1.178-.588-.54-.746-.736.149-1.704m-1.146.037c.393-.666.298-.468-.319-.825-.6-.348-1.047-.81-1.58-1.358.228.959.656 1.62 1.335 2.237.361.329.321.357.564-.054m-2.087-3.027c.342-.24.256-.204.058-.56-.54-.969-.72-1.704-.428-2.882-.902.811-.533 2.002-.15 3.08.17.48.072.678.52.362m.256-4.624c.184-.445 1.72-2.434 1.977-2.853-.436.267-2.068 2.178-2.304 2.595-.147.26-.277.341.028.432.25.074.202.061.299-.174" fill="#fcdbd5"/><path d="M78.705 124.16l2.482.281 2.341-.15.835-.165-2.422-.58-2.292-.482.594-.468-1.615-.035.103.726-.026.873" fill="#f18d75"/><path d="M73.79 126.39c.103.285 1.078-.286 1.34-.397.955-.4 1.833-.825 2.675-1.553-1.238.52-2.475 1.042-3.713 1.561-.3.128-.418.07-.302.388" fill="#fcdbd5"/><path d="M64.969 28.77c1.757-2.467 2.402-4.832 2.984-7.818-3.26.977-3.442 4.16-4.347 7.086l1.363.732" fill="#de6a4f"/><path d="M64.203 29.045c1.423-2.518 2.115-5.549 1.838-9.264-1.418 1.751-2.264 3.236-2.574 5.501l-.385-.578c-.668 1.18-.937 2.52-.33 4.216l1.45.125" fill="#e8795e"/><path d="M65.227 28.053c.225.238.371.737.46 1.035.15.51.283 1.02.456 1.525l.005.011.001.012c.063.28.129.56.196.84.04.161.073.323.106.485.088.448.232.865.362 1.303.089.3.2.697.042.96-.137.23-.426.283-.694.287-.14.002-.356.1-.477.153-.237.11-.47.23-.71.335-.405.18-.945.383-1.428.24-.583-.172-.923.37-1.33.248-.165-.05-.272-.186-.343-.335a2.122 2.122 0 0 1-.125-.386 6.746 6.746 0 0 1-.104-.531 13.028 13.028 0 0 1-.143-1.336 11 11 0 0 1-.015-1.073c.013-.284.039-.596.118-.862.049-.17.096-.34.143-.51.126-.46.245-.927.392-1.38.108-.328.255-.745.473-1.01.297-.36.667-.476 1.167-.449.36.019 1.183.158 1.448.437" fill="#e8795e"/><path d="M65.13 28.22c.304.322.486 1.366.864 2.475.197.9.182.726.299 1.323.281 1.41.983 2.317-.117 2.333-.548.008-1.72.982-2.551.738-.83-.244-1.235.65-1.523.04-.267-.565-.534-3.1-.258-4.046.324-1.104.586-2.364.976-2.838.197-.239.462-.417 1.018-.387.395.02 1.11.171 1.292.363" fill="#fab6a5"/><path d="M67.483 35.394c-.059.238-.298.468-.47.63-.275.259-.556.504-.821.774l-.009.008-.01.007c-.273.213-.536.44-.815.646-.292.217-.573.46-.876.66-.236.157-.533.315-.85.25-.255-.051-.452-.227-.606-.435-.396-.535-.755-1.084-.98-1.697-.08-.219-.17-.436-.252-.655-.168-.447-.411-1.134-.125-1.52a.462.462 0 0 1 .189-.15c.146-.065.315-.053.479-.035.161.017.317.038.476.03.117-.006.311-.12.418-.168a1.24 1.24 0 0 1 .346-.11c.343-.046.642-.188 1.003-.191.058 0 .116.002.173.006.159.014.315.046.473.074.116.022.248.044.362.039l.034-.004c.206-.033.36-.208.603-.153.427.096.71.326.952.7.182.28.38.996.306 1.294" fill="#e06b50"/><path d="M67.283 35.324c-.078.32-.63.694-1.248 1.325-.556.434-.439.366-.814.645-.888.66-1.462 1.312-2.036.536-.286-.386-.702-.971-.947-1.64-.246-.668-.698-1.592-.397-1.997.181-.244.55-.06 1.01-.085.239-.012.58.021.866-.018.333-.045.559-.447.892-.45.354-.003.72.433 1.01.417.232-.012.426-.496.586-.46.275.06.54.19.803.596.186.286.323.938.275 1.13" fill="#fab6a5"/><path d="M68.746 36.41c.025.143-.036.341-.077.473-.07.221-.153.44-.235.658-.215.581-.427 1.165-.579 1.774-.154.624-.128 1.29-.058 1.946.026.242.062.491.077.734.01.181.015.428-.166.515-.116.054-.243.015-.352-.055-.038-.024-.094-.047-.135-.067l-.27-.12c-.243-.11-.485-.222-.722-.349-.284-.151-.612-.348-.837-.585a30.19 30.19 0 0 1-1.376-1.598c-.289-.364-.583-.75-.826-1.144-.15-.244-.388-.654-.336-.934.092-.493.376-.842.797-1.082.142-.08.326-.097.488-.127a.692.692 0 0 0 .264-.087c.207-.143.4-.32.604-.47.131-.097.272-.19.423-.26.158-.074.326-.118.5-.156.138-.03.282-.057.415-.106a.82.82 0 0 0 .104-.047c.15-.079.273-.183.402-.291.114-.097.246-.213.397-.246.1-.021.2-.02.3.025.12.051.205.147.292.242.097.103.186.192.301.275.306.22.542.726.604 1.08" fill="#e06b50"/><path d="M68.426 36.614c.055.282-.528 1.456-.83 2.73-.365 1.537.415 3.306-.15 2.95-.201-.127-1.428-.581-1.914-1.086-.507-.525-2.611-2.85-2.512-3.434.06-.345.145-.449.585-.69.186-.1.696.053.902-.085.266-.18.562-.86.929-1.024.344-.155.814.035 1.111-.115.345-.176.443-.626.636-.665.273-.054.312.206.723.501.292.21.48.705.52.918" fill="#fab6a5"/><path d="M66.92 34.974c-.033-.316-.082-.636-.035-.95.042.05.082.106.123.169.093.142.174.376.225.598a.849.849 0 0 0-.313.183m1.506 1.64c.029.14-.105.507-.283.998-.395-.731-1.144-1.243-1.184-2.193.075-.115.141-.208.224-.224.273-.054.31.207.723.501.292.21.48.705.52.918" fill="#f79f89"/><path d="M71.691 38.985c.073.287.149.571.228.856.047.164.087.33.125.496.101.432.341.772.676 1.07.12.108.246.203.371.305.121.095.262.216.241.382-.03.234-.351.254-.538.27-.18.016-.386.096-.55.161-.256.102-.506.213-.76.314-.65.254-1.31.434-2.038.398-.658-.032-2.265-.333-2.609-1.003-.259-.508-.07-1.187.063-1.674.055-.202.171-.377.27-.557a1.26 1.26 0 0 0 .123-.294c.127-.527.08-1.1.207-1.63.04-.165.133-.284.241-.406.052-.058.138-.145.164-.223a.594.594 0 0 0 .026-.13c.026-.233-.03-.535.108-.727.285-.398.652-.545 1.155-.556.363-.008 1.196.072 1.471.342.235.228.4.735.5 1.037.173.517.326 1.034.518 1.545l.005.011.002.012" fill="#e06b50"/><path d="M70.374 36.77c.32.306.56 1.345 1 2.44.246.893.22.721.372 1.312.36 1.404 2.026 1.678.938 1.754-.69.05-1.792.882-3.266.783-.668-.044-2.125-.374-2.404-.895-.204-.38.067-.626.22-1.217.07-.269.414-.748.483-1.05.116-.51-.144-.813-.034-1.3.059-.258.543-.561.61-.775.085-.274-.316-.746-.207-.898.182-.252.433-.445.987-.446.394-.001 1.11.11 1.3.293" fill="#fab6a5"/><path d="M70.374 36.77c.127.122.242.362.363.675-.138.224.361.902-.383.441-.745-.46-1.432-.481-2.062-.064.087-.274-.315-.746-.206-.898.182-.252.433-.445.988-.446.393-.001 1.11.11 1.3.293" fill="#f79f89"/><path d="M71.706 35.48c.306.087.705.454.944.671.41.372.805.753 1.228 1.112l.01.008.009.009c.209.218.42.43.633.643.123.124.242.25.36.378.308.333.657.552 1.06.739.142.066.29.125.429.197.133.07.273.16.321.308.078.245-.15.434-.31.558a1.72 1.72 0 0 0-.176.167c-.083.086-.162.177-.242.267-.199.227-.395.455-.602.675-.3.318-.742.759-1.174.899-.21.067-.415.156-.616.243-.442.187-1.098.494-1.622.276a.892.892 0 0 1-.299-.203c-.154-.16-.228-.369-.284-.57-.057-.209-.1-.417-.168-.625a.39.39 0 0 0-.036-.08c-.067-.123-.192-.244-.288-.35a1.528 1.528 0 0 1-.341-.532c-.068-.202-.006-.436.04-.623.023-.084.083-.312.051-.399-.156-.438-.559-.792-.693-1.243-.095-.322-.201-.719-.192-1.041.015-.494.226-.804.618-1.062.28-.185.98-.523 1.34-.42" fill="#e06b50"/><path d="M75.616 40.615c-.453.518-1.021 1.146-1.506 1.303-.765.247-1.648.846-2.218.46-.313-.212-.064-.872-.231-1.383-.117-.35-.788-.359-.926-.767-.093-.27.513-.921.415-1.195-.162-.456-.68-.753-.796-1.147-.117-.39-.408-.645-.401-.892.01-.326.103-.632.54-.92.151-.1.379-.215.602-.298-.002.223.056.449.183.696.175.338.514.699.784.975.373.379.765.741 1.151 1.106.144.135.286.27.427.407.362.352.7.733 1.07 1.075.258.239.567.489.906.58" fill="#fab6a5"/><path d="M78.728 37.669a2.81 2.81 0 0 1-.409.761c-.197.279-.421.542-.634.808-.138.172-.273.344-.416.51-.345.401-.883.964-1.517.885-.407-.05-.78-.345-1.085-.625-.38-.347-.726-.733-1.097-1.09-.146-.14-.292-.277-.438-.415-.395-.372-.799-.74-1.181-1.125-.277-.28-.626-.647-.807-.99-.25-.47-.245-.865-.063-1.302.251-.61.917-.909 1.565-1.027.772-.14 1.66-.06 2.463.164.168.048.336.102.504.163.835.312 1.7.843 2.34 1.495.454.462.971 1.185.775 1.788" fill="#e06b50"/><path d="M78.534 37.585c-.165.495-.528.908-1.014 1.519-.486.61-1.096 1.416-1.75 1.341-.605-.07-1.037-1.133-1.824-1.897-.918-.893-2.173-1.54-2.488-2.149-.16-.308-.241-.64-.038-1.125.452-1.08 2.49-1.286 4.225-.648 1.736.637 3.168 2.12 2.889 2.959" fill="#fab6a5"/><path d="M71.987 37.414c-1.398-.605-1.416-.332-1.633.472-.117-.39-.408-.645-.401-.892.01-.326.103-.632.54-.92.121-.08.29-.169.466-.244.021.179.081.362.185.559.181.342.53.709.807.989l.036.036m.224-.249c-.347-.27-.626-.521-.753-.766-.16-.307-.241-.64-.038-1.125.389-.931 1.96-1.213 3.498-.864-1.96.623-2.428.726-2.707 2.755" fill="#f79f89"/><path d="M74.859 39.154c.819.418.935-.017 1.636-.637.46-.406.91-.86 1.011-1.24.184-.682-.403-1.35-1.649-2.179 1.69.647 2.734 1.531 2.44 2.5-.154.51-.952 1.49-1.641 2.026-.684.53-.923.663-1.797-.47m-.169 1.233c-.64-.542-.446-.403-.94.191-.482.579-1.058.974-1.74 1.444 1.067-.07 1.852-.407 2.635-1.022.418-.326.441-.278.045-.613m-3.618 1.683c-.194-.41-.172-.31-.59-.164-1.134.403-1.954.46-3.161-.066.704 1.113 2.045.935 3.268.721.545-.096.74.046.483-.49m-4.902-1.116c-.443-.278-2.292-2.284-2.693-2.634.205.515 1.954 2.609 2.358 2.937.251.204.314.358.467.048.124-.253.102-.205-.132-.35" fill="#fcdbd5"/><path d="M64.555 27.345l.753-2.606.265-2.532-.025-.923-1.06 2.486-.934 2.366-.393-.72-.331 1.72.796.022.93.187" fill="#f18d75"/><path d="M66.047 33.01c.325-.058-.109-1.205-.18-1.506-.254-1.095-.55-2.111-1.176-3.145l.996 4.257c.082.345-.001.46.36.394" fill="#fcdbd5"/><path d="M102.542 39.775c-2.615 1.66-4.137 3.65-5.839 6.254 3.464.331 4.863-2.613 6.848-5.036l-1.01-1.218" fill="#de6a4f"/><path d="M103.373 39.81c-2.317 1.836-4.14 4.44-5.31 8.065 2.017-1.112 3.39-2.192 4.558-4.218l.141.695c1.087-.86 1.86-2.025 1.937-3.866l-1.326-.677" fill="#e8795e"/><path d="M102.021 40.354c-.12-.312-.067-.841-.036-1.157.053-.541.124-1.075.155-1.62v-.013l.003-.011c.049-.29.093-.58.138-.87.024-.17.056-.336.087-.502.089-.458.113-.908.16-1.373.03-.318.078-.737.33-.926.218-.166.512-.104.767-.005.133.053.376.044.51.04.268-.013.534-.036.802-.044.453-.015 1.043.001 1.445.323.486.387 1.017.004 1.355.277.138.111.186.282.196.45a2.17 2.17 0 0 1-.03.414 6.898 6.898 0 0 1-.106.543c-.103.448-.234.892-.38 1.32-.118.348-.248.693-.399 1.022-.122.265-.266.55-.444.771l-.331.428c-.298.388-.59.784-.903 1.156-.23.27-.53.608-.837.774-.421.228-.816.194-1.28-.025-.332-.155-1.059-.605-1.202-.97" fill="#e8795e"/><path d="M102.178 40.233c-.164-.421.065-1.48.134-2.676.16-.928.109-.759.227-1.369.278-1.444-.038-2.573 1.01-2.164.522.203 2.008-.267 2.7.284.692.55 1.42-.14 1.459.55.034.636-.69 3.141-1.315 3.93-.732.921-1.466 2.013-2.018 2.312-.28.15-.598.217-1.113-.026-.367-.172-.986-.59-1.084-.841" fill="#fab6a5"/><path d="M102.713 32.532c.148-.203.463-.328.688-.415.36-.14.72-.263 1.076-.417l.012-.005.011-.002c.342-.097.678-.21 1.021-.298.36-.093.72-.214 1.084-.288.284-.057.627-.092.902.092.222.146.34.388.406.645.169.66.298 1.317.274 1.985-.008.238-.006.478-.013.717-.013.489-.048 1.233-.468 1.488a.472.472 0 0 1-.236.07c-.164.005-.32-.072-.467-.152-.146-.079-.286-.159-.44-.212-.114-.04-.34-.007-.46-.002a1.268 1.268 0 0 1-.37-.03c-.343-.088-.681-.068-1.024-.204a2.076 2.076 0 0 1-.162-.073c-.144-.074-.28-.165-.419-.252a1.736 1.736 0 0 0-.328-.177c-.011-.002-.021-.007-.033-.01-.209-.047-.421.06-.63-.086-.368-.256-.547-.583-.632-1.03-.065-.336.024-1.09.208-1.343" fill="#e06b50"/><path d="M102.876 32.676c.196-.273.863-.415 1.692-.774.694-.197.556-.178 1.02-.297 1.095-.283 1.89-.68 2.135.276.121.476.29 1.19.264 1.918-.024.728.048 1.777-.393 2.045-.265.161-.545-.156-.989-.31-.231-.08-.541-.242-.827-.316-.333-.086-.702.208-1.019.083-.336-.134-.515-.688-.796-.785-.224-.077-.595.307-.732.211-.237-.164-.438-.388-.531-.874-.066-.343.055-1.013.176-1.177" fill="#fab6a5"/><path d="M101.909 31.084c.03-.146.165-.31.255-.42.152-.182.314-.357.475-.531.428-.469.854-.94 1.232-1.458.387-.53.62-1.173.805-1.82.07-.24.131-.49.21-.725.06-.176.15-.412.356-.424.13-.007.236.079.312.187.027.038.07.081.103.116.069.073.14.145.208.218.189.197.374.397.55.608.21.253.445.566.567.876a30.87 30.87 0 0 1 .688 2.044c.133.457.263.935.341 1.402.048.289.116.77-.042 1.015-.276.43-.68.653-1.171.717-.166.021-.347-.033-.51-.068-.088-.019-.2-.039-.285-.019-.251.056-.501.15-.753.213a2.652 2.652 0 0 1-.5.083 2.375 2.375 0 0 1-.534-.045c-.143-.025-.29-.055-.434-.06-.04 0-.077 0-.117.005-.172.017-.33.068-.493.121-.145.048-.315.106-.47.08a.49.49 0 0 1-.275-.14c-.094-.095-.138-.218-.184-.341a2.006 2.006 0 0 0-.179-.377c-.205-.326-.233-.896-.155-1.256" fill="#e06b50"/><path d="M102.29 31.014c.057-.289 1.062-1.176 1.839-2.266.937-1.315.88-3.291 1.278-2.737.141.198 1.128 1.101 1.394 1.767.278.692 1.375 3.705 1.056 4.22-.189.303-.31.37-.82.427-.215.024-.639-.317-.887-.267-.32.068-.863.6-1.274.612-.386.015-.757-.346-1.097-.318-.395.033-.66.422-.859.384-.279-.053-.215-.315-.49-.753-.197-.31-.183-.853-.14-1.07" fill="#fab6a5"/><path d="M103.084 33.147c-.09.312-.167.634-.333.914a1.917 1.917 0 0 1-.051-.208c-.033-.17-.02-.423.018-.653a.868.868 0 0 0 .366-.053m-.794-2.133c.027-.145.295-.44.653-.836.092.844.605 1.617.276 2.532-.115.08-.214.143-.299.126-.279-.053-.213-.315-.49-.753-.197-.31-.183-.853-.14-1.07" fill="#f79f89"/><path d="M100.111 27.51c.042-.3.08-.598.114-.899.02-.173.045-.346.073-.517.07-.449-.026-.864-.228-1.275-.072-.149-.155-.287-.234-.431-.078-.137-.165-.306-.081-.455.118-.21.43-.105.614-.049.177.054.403.059.583.06.281.002.56-.007.841-.005.713.01 1.408.094 2.083.409.61.284 2.017 1.187 2.084 1.954.05.582-.39 1.152-.704 1.562-.13.17-.307.291-.47.423a1.288 1.288 0 0 0-.23.232c-.324.45-.5 1.01-.824 1.463-.103.142-.236.219-.385.292-.072.035-.187.084-.242.149a.607.607 0 0 0-.075.113c-.113.21-.177.517-.381.646-.423.267-.828.266-1.309.082-.346-.132-1.104-.53-1.261-.89-.135-.308-.096-.852-.074-1.176.036-.556.09-1.104.105-1.663v-.012l.001-.012" fill="#e06b50"/><path d="M100.506 30.115c-.186-.413-.014-1.49-.007-2.696.11-.941.07-.768.152-1.387.201-1.467-1.272-2.37-.212-2.022.672.22 2.037-.144 3.395.517.615.3 1.868 1.173 1.932 1.774.046.438-.305.567-.678 1.068-.169.228-.68.549-.86.807-.308.44-.178.827-.47 1.245-.155.222-.73.323-.876.5-.187.226.011.828-.151.93-.27.169-.581.255-1.107.042-.373-.15-1.009-.532-1.118-.779" fill="#fab6a5"/><path d="M100.506 30.115c-.074-.165-.091-.436-.084-.779.217-.16.005-.994.532-.27.529.722 1.17 1.007 1.928.855-.187.226.011.828-.151.93-.27.169-.581.255-1.107.042-.373-.15-1.009-.532-1.118-.779" fill="#f79f89"/><path d="M98.747 30.823c-.257-.2-.493-.701-.636-1-.245-.51-.472-1.022-.734-1.524l-.007-.012-.005-.012a37.35 37.35 0 0 0-.352-.854c-.069-.164-.132-.33-.195-.496-.164-.434-.41-.776-.72-1.109-.108-.117-.226-.23-.33-.352-.1-.116-.197-.255-.185-.415.02-.262.309-.353.508-.409a1.65 1.65 0 0 0 .231-.09c.112-.05.222-.105.332-.16.276-.138.55-.278.831-.407.407-.186.995-.433 1.458-.399.226.017.454.012.677.008.492-.008 1.23-.046 1.643.363a.912.912 0 0 1 .205.307c.084.212.074.437.05.65-.027.22-.068.433-.083.656a.4.4 0 0 0 .003.09c.016.142.089.305.138.442.078.211.132.413.119.635-.013.218-.163.416-.28.575-.052.071-.197.264-.2.358-.021.475.224.966.177 1.445-.034.34-.086.758-.22 1.06-.204.461-.523.674-.993.767-.337.067-1.13.118-1.432-.118" fill="#e06b50"/><path d="M97.022 24.453c.629-.316 1.41-.692 1.928-.653.82.06 1.887-.167 2.278.419.215.32-.276.85-.313 1.399-.025.375.608.643.58 1.082-.015.293-.84.675-.853.972-.022.495.355.976.312 1.394-.04.415.138.768.036 1-.134.304-.341.558-.866.663a3.268 3.268 0 0 1-.685.05c.088-.21.12-.447.095-.73-.036-.388-.217-.86-.367-1.225-.207-.503-.439-.997-.664-1.492a47.65 47.65 0 0 1-.248-.55c-.206-.472-.38-.964-.6-1.43-.15-.325-.347-.682-.633-.898" fill="#fab6a5"/><path d="M92.94 26.045c.194-.23.43-.406.68-.564.294-.187.608-.35.912-.52.196-.11.39-.22.59-.324.482-.246 1.208-.572 1.778-.253.366.204.606.628.787 1.01.225.475.405.975.619 1.456.084.188.17.374.255.56.23.505.471 1.01.685 1.522.154.372.343.853.383 1.247.055.542-.102.915-.443 1.258-.472.481-1.218.508-1.877.37-.785-.164-1.595-.581-2.27-1.104a7.517 7.517 0 0 1-.414-.349c-.671-.617-1.286-1.453-1.64-2.317-.252-.613-.464-1.497-.045-1.992" fill="#e06b50"/><path d="M93.091 26.2c.347-.407.85-.658 1.546-1.048.694-.391 1.583-.92 2.174-.597.545.3.545 1.473.996 2.5.526 1.2 1.465 2.296 1.529 2.994.033.353-.019.7-.398 1.08-.844.849-2.854.258-4.252-1.014-1.397-1.273-2.183-3.228-1.595-3.916" fill="#fab6a5"/><path d="M99.226 28.883c1.09 1.112 1.213.86 1.728.183-.04.415.138.768.036 1-.134.304-.341.558-.866.663-.145.028-.34.047-.535.05.049-.177.062-.373.04-.6-.04-.394-.229-.875-.383-1.247l-.02-.049m-.309.15c.225.39.393.735.419 1.016.033.352-.019.7-.398 1.08-.727.732-2.323.393-3.646-.53 2.096.166 2.58.249 3.625-1.566" fill="#f79f89"/><path d="M97.176 26.129c-.614-.711-.892-.344-1.795-.027-.591.207-1.192.464-1.436.785-.437.575-.137 1.434.723 2.699-1.352-1.265-2-2.504-1.348-3.308.343-.424 1.477-1.045 2.335-1.286.853-.24 1.13-.273 1.521 1.137m.635-1.103c.398.76.267.554.965.181.679-.362 1.377-.514 2.204-.697-1.038-.344-1.911-.327-2.89-.047-.522.148-.525.093-.279.563m4.076-.2c.026.463.043.361.494.382 1.23.057 2.029.318 2.97 1.282-.238-1.325-1.577-1.674-2.818-1.943-.553-.119-.682-.327-.646.28m4.213 2.944c.312.434 1.29 3.046 1.535 3.533.004-.567-.846-3.224-1.101-3.69-.16-.291-.16-.46-.424-.226-.215.192-.176.154-.01.383" fill="#fcdbd5"/><path d="M102.385 41.284l-1.717 2.178-1.227 2.296-.332.883 1.963-1.945 1.795-1.881.094.834.978-1.503-.746-.327-.808-.535" fill="#f18d75"/><path d="M103.155 35.343c-.33-.07-.362 1.184-.41 1.497-.181 1.134-.293 2.21-.098 3.43.232-1.47.463-2.943.697-4.415.056-.358.178-.435-.19-.512" fill="#fcdbd5"/><g><path d="M123.435 87.945c2.616-.971 4.331-2.44 6.32-4.414-2.99-.943-4.776 1.39-6.98 3.151l.66 1.263" fill="#de6a4f"/><path d="M122.709 87.759c2.387-1.183 4.483-3.135 6.195-6.11-1.987.6-3.4 1.295-4.809 2.86l.006-.639c-1.12.553-2.019 1.436-2.433 3.043l1.04.846" fill="#e8795e"/><path d="M124.003 87.533c.048.297-.099.753-.186 1.026-.148.467-.31.924-.44 1.399l-.003.01-.005.01a66.51 66.51 0 0 0-.285.741c-.053.144-.112.285-.17.426-.165.386-.271.779-.4 1.18-.086.274-.207.634-.464.753-.224.105-.471-.004-.677-.14-.107-.071-.323-.109-.443-.13-.238-.04-.477-.069-.714-.112-.402-.073-.919-.197-1.213-.556-.356-.433-.895-.195-1.142-.5-.1-.123-.11-.282-.088-.433.02-.12.062-.247.104-.358.06-.156.125-.31.196-.459.174-.375.373-.742.583-1.092.169-.284.349-.564.543-.826.157-.21.338-.434.536-.596.125-.104.248-.209.373-.315.335-.285.666-.58 1.013-.848.252-.195.58-.436.882-.525.414-.122.756-.018 1.123.262.264.2.82.732.877 1.082" fill="#e8795e"/><path d="M123.842 87.61c.066.402-.336 1.292-.621 2.333-.316.787-.238.648-.457 1.163-.516 1.22-.45 2.275-1.297 1.718-.422-.278-1.82-.142-2.326-.758-.506-.615-1.278-.143-1.182-.758.09-.568 1.198-2.64 1.898-3.216.817-.675 1.67-1.499 2.212-1.659.274-.08.567-.079.976.232.29.22.758.705.797.945" fill="#fab6a5"/><path d="M121.923 94.295c-.167.151-.469.202-.684.236-.343.056-.684.097-1.026.166l-.011.002h-.01c-.32.02-.637.057-.957.07-.334.015-.674.054-1.009.05-.261-.002-.57-.036-.778-.25-.167-.17-.226-.406-.236-.645-.025-.612-.014-1.216.132-1.8.051-.208.095-.42.146-.63.103-.428.273-1.077.692-1.223a.426.426 0 0 1 .221-.017c.145.027.268.124.383.221.114.097.222.194.348.27.092.056.299.07.405.088a1.2 1.2 0 0 1 .32.096c.286.142.588.188.864.373.044.029.087.061.129.094.113.093.217.198.322.301.077.077.166.162.255.217.01.004.018.01.028.015.175.08.383.028.54.195.276.294.372.616.363 1.026-.006.308-.226.956-.436 1.145" fill="#e06b50"/><path d="M121.807 94.138c-.224.203-.839.203-1.636.364-.65.043-.524.052-.955.07-1.018.044-1.793.244-1.83-.644-.017-.443-.031-1.104.128-1.74.159-.637.292-1.575.73-1.728.265-.092.451.24.814.458.189.114.431.316.67.434.277.139.657-.051.913.12.27.18.325.701.554.84.183.11.581-.158.685-.049.177.19.312.425.303.87-.006.315-.239.883-.376 1.005" fill="#fab6a5"/><path d="M122.36 95.723c-.054.122-.204.241-.304.32-.167.133-.343.257-.518.38-.465.332-.929.668-1.36 1.054-.44.394-.766.917-1.05 1.452-.107.198-.208.407-.322.6-.087.143-.21.334-.393.306-.117-.018-.193-.114-.24-.224-.017-.038-.047-.084-.069-.12l-.143-.232c-.129-.209-.255-.42-.37-.64-.138-.262-.286-.582-.335-.878a27.813 27.813 0 0 1-.222-1.93 11.241 11.241 0 0 1-.037-1.3c.011-.263.042-.699.227-.886.325-.328.722-.447 1.167-.412.15.013.3.095.437.156a.638.638 0 0 0 .247.07c.232-.002.47-.038.703-.046a2.39 2.39 0 0 1 .458.02c.159.026.309.08.46.141.122.048.246.103.372.134a.755.755 0 0 0 .104.017c.155.018.303.002.457-.013.137-.015.298-.035.43.018a.435.435 0 0 1 .215.174c.066.101.08.218.098.336.02.128.042.243.088.365.12.326.036.834-.1 1.137" fill="#e06b50"/><path d="M122.012 95.713c-.105.243-1.157.836-2.047 1.65-1.073.983-1.394 2.735-1.64 2.173-.088-.202-.788-1.183-.897-1.82-.114-.662-.515-3.523-.138-3.916.224-.233.343-.268.803-.223.194.019.503.4.732.402.295 0 .873-.366 1.237-.3.343.06.603.447.907.487.354.045.661-.248.83-.178.235.1.13.319.29.756.115.31.001.786-.077.969" fill="#fab6a5"/><path d="M121.712 93.684c.138-.259.267-.527.465-.743a1.7 1.7 0 0 1 .006.193 1.884 1.884 0 0 1-.138.572.782.782 0 0 0-.333-.022m.3 2.029c-.052.122-.343.332-.733.614.078-.761-.23-1.54.232-2.284.117-.049.215-.085.287-.055.236.1.13.318.291.756.115.31.001.786-.077.969" fill="#f79f89"/><path d="M123.272 99.21c-.092.256-.182.512-.268.77-.05.15-.105.296-.162.442-.147.382-.14.766-.039 1.166.036.145.083.282.126.424.042.136.088.3-.014.416-.144.163-.4.012-.55-.072-.147-.081-.344-.127-.503-.163-.248-.054-.495-.099-.742-.153-.626-.143-1.223-.347-1.758-.751-.486-.366-1.555-1.426-1.47-2.114.065-.522.56-.942.914-1.244.146-.126.325-.199.494-.285a1.16 1.16 0 0 0 .246-.16c.37-.336.63-.797 1-1.135a.86.86 0 0 1 .395-.185c.07-.018.18-.04.24-.086a.547.547 0 0 0 .088-.086c.14-.164.254-.422.458-.497.423-.156.779-.079 1.168.174.28.18.874.673.944 1.021.061.296-.075.768-.155 1.05-.137.483-.287.956-.405 1.446l-.003.01-.003.01" fill="#e06b50"/><path d="M123.414 96.84c.087.398-.268 1.315-.5 2.376-.274.81-.205.664-.395 1.194-.453 1.256.676 2.327-.193 1.822-.55-.32-1.822-.256-2.894-1.093-.486-.38-1.426-1.385-1.37-1.927.042-.395.376-.442.799-.813.191-.17.702-.356.91-.55.353-.33.312-.695.647-1.01.178-.165.705-.146.866-.275.208-.164.146-.731.308-.79.269-.099.56-.116.983.17.3.203.79.658.84.896" fill="#fab6a5"/><path d="M123.414 96.84c.035.159-.001.4-.072.702-.221.1-.19.875-.52.138-.33-.736-.842-1.108-1.538-1.116.208-.164.146-.731.308-.79.269-.099.56-.116.983.17.3.203.79.658.84.896" fill="#f79f89"/><path d="M125.098 96.546c.188.225.302.71.372 1 .12.496.224.99.36 1.482l.004.012.002.011c.047.274.097.546.15.819.03.157.055.315.078.474.063.413.216.76.427 1.112.073.123.156.245.224.372.066.121.126.262.086.4-.068.228-.339.254-.525.265-.071.005-.149.02-.22.036a7.236 7.236 0 0 0-.323.079c-.27.07-.537.142-.809.203-.393.087-.958.194-1.36.077a6.425 6.425 0 0 0-.595-.134c-.434-.086-1.093-.19-1.379-.628a.822.822 0 0 1-.123-.31c-.034-.202.017-.399.078-.58.065-.19.14-.37.196-.564a.36.36 0 0 0 .014-.08c.013-.128-.02-.286-.038-.415a1.406 1.406 0 0 1 .015-.582c.052-.19.221-.336.354-.455.06-.052.223-.195.244-.277.108-.415-.016-.893.115-1.306.094-.294.219-.652.393-.894.266-.368.588-.495 1.02-.489.309.004 1.018.108 1.24.373" fill="#e06b50"/><path d="M125.42 102.483c-.613.16-1.371.345-1.821.214-.711-.208-1.694-.208-1.929-.797-.13-.324.403-.698.54-1.174.091-.327-.416-.681-.31-1.063.07-.255.869-.437.935-.696.113-.432-.129-.927-.013-1.287.113-.358.023-.703.156-.887.176-.244.406-.429.888-.422.167.002.4.032.613.084-.117.169-.19.371-.22.625-.042.349.03.8.093 1.15.087.48.2.96.304 1.438.04.177.078.354.115.532.094.455.155.92.26 1.372.072.315.179.666.39.911" fill="#fab6a5"/><path d="M129.317 101.848a2.59 2.59 0 0 1-.706.369c-.294.11-.601.195-.9.287-.195.06-.387.12-.582.174-.47.127-1.172.277-1.614-.11-.284-.25-.416-.668-.504-1.039-.109-.46-.174-.935-.271-1.399l-.12-.542c-.109-.488-.226-.977-.318-1.47-.066-.356-.142-.815-.103-1.17.053-.488.262-.787.627-1.026.506-.334 1.169-.218 1.723.027.661.293 1.297.812 1.793 1.4.104.123.203.252.3.385.475.67.86 1.522 1.01 2.35.106.587.127 1.406-.335 1.764" fill="#e06b50"/><path d="M129.213 101.683c-.382.293-.872.42-1.56.633-.685.214-1.568.513-2.028.117-.424-.367-.203-1.4-.408-2.39-.237-1.155-.859-2.298-.784-2.925.037-.318.148-.613.553-.877.904-.59 2.564.308 3.556 1.692.993 1.384 1.318 3.255.67 3.75" fill="#fab6a5"/><path d="M124.31 98.166c-.751-1.185-.906-.987-1.488-.486.113-.358.023-.703.156-.887.176-.244.406-.429.888-.422.134.002.309.021.481.055a1.467 1.467 0 0 0-.148.522c-.039.355.037.814.103 1.17l.009.048m.299-.074c-.124-.386-.207-.722-.177-.974.037-.317.148-.613.553-.877.779-.509 2.122.09 3.114 1.152-1.816-.54-2.226-.704-3.49.699" fill="#f79f89"/><path d="M125.6 100.978c.407.742.72.47 1.576.36.56-.071 1.138-.184 1.413-.421.493-.425.39-1.238-.13-2.514.954 1.368 1.291 2.581.567 3.168-.382.31-1.498.643-2.3.695-.796.05-1.047.028-1.127-1.288m-.766.852c-.208-.745-.131-.538-.816-.34-.666.19-1.31.194-2.073.2.85.498 1.622.647 2.538.584.487-.033.48.016.35-.444m-3.628-.59c.064-.412.03-.325-.364-.429-1.073-.28-1.728-.661-2.376-1.687-.039 1.212 1.075 1.77 2.118 2.241.465.209.54.417.622-.124m-3.159-3.387c-.194-.44-.565-2.927-.69-3.401-.11.499.14 3 .278 3.458.086.287.054.436.33.279.227-.129.185-.103.082-.336" fill="#fcdbd5"/><path d="M123.857 86.645l1.922-1.596 1.512-1.793.46-.717-2.096 1.346-1.935 1.32.073-.752-1.143 1.14.596.429.611.623" fill="#f18d75"/><path d="M122.062 91.735c.279.123.541-.975.643-1.241.373-.966.673-1.894.73-3.006a1537.1 1537.1 0 0 1-1.443 3.76c-.116.306-.239.35.07.487" fill="#fcdbd5"/></g><g><path d="M50.295 117.774c-2.356 1.496-3.727 3.29-5.261 5.635 3.12.299 4.382-2.355 6.17-4.538l-.91-1.097" fill="#de6a4f"/><path d="M51.044 117.805c-2.088 1.655-3.73 4.001-4.785 7.267 1.818-1.002 3.055-1.975 4.107-3.8l.127.626c.98-.774 1.675-1.825 1.745-3.483l-1.194-.61" fill="#e8795e"/><path d="M49.826 118.296c-.11-.28-.061-.758-.033-1.043.048-.487.111-.968.14-1.46v-.01l.002-.011c.044-.262.085-.522.125-.784.022-.152.05-.302.078-.452.08-.412.102-.818.144-1.237.028-.287.071-.664.297-.834.197-.15.462-.094.692-.004.12.047.338.039.46.035.24-.011.48-.032.722-.04.408-.013.94.002 1.302.291.438.35.916.005 1.22.25.125.1.168.254.177.406.006.121-.009.254-.027.372a6.215 6.215 0 0 1-.096.49c-.092.403-.21.803-.342 1.19a9.705 9.705 0 0 1-.36.92c-.109.238-.24.495-.4.695-.1.127-.199.256-.298.385-.268.35-.53.706-.814 1.042-.206.243-.476.547-.753.697-.38.205-.735.175-1.153-.022-.3-.14-.955-.545-1.083-.875" fill="#e8795e"/><path d="M49.967 118.187c-.148-.38.059-1.334.12-2.411.146-.837.099-.684.205-1.233.25-1.302-.034-2.32.91-1.95.47.183 1.81-.241 2.433.255.623.497 1.28-.126 1.314.495.031.574-.621 2.831-1.185 3.542-.66.83-1.32 1.813-1.818 2.083-.251.135-.538.196-1.003-.024-.33-.154-.888-.53-.976-.757" fill="#fab6a5"/><path d="M50.45 111.249c.132-.183.416-.296.619-.374.324-.126.65-.238.97-.376l.01-.004.01-.003c.308-.087.61-.188.92-.268.324-.084.649-.193.977-.26.256-.051.564-.083.813.083.199.132.306.35.365.582.152.594.268 1.186.247 1.788-.007.214-.005.43-.012.646-.012.44-.043 1.11-.422 1.34a.426.426 0 0 1-.212.063c-.147.005-.288-.065-.421-.136-.132-.071-.258-.143-.396-.191-.103-.036-.307-.007-.415-.002a1.14 1.14 0 0 1-.333-.027c-.31-.08-.614-.061-.923-.184a1.87 1.87 0 0 1-.145-.066c-.13-.067-.254-.148-.378-.227a1.564 1.564 0 0 0-.295-.159l-.03-.008c-.188-.043-.38.052-.569-.079-.331-.23-.492-.525-.569-.928-.058-.302.022-.982.188-1.21" fill="#e06b50"/><path d="M50.595 111.378c.178-.246.779-.374 1.525-.698.626-.177.502-.16.919-.267.987-.255 1.703-.613 1.924.249.109.429.261 1.073.238 1.728-.022.656.043 1.6-.354 1.842-.24.146-.491-.14-.891-.278-.209-.073-.488-.22-.746-.285-.3-.078-.632.187-.917.074-.303-.12-.465-.62-.718-.707-.201-.07-.536.276-.66.19-.213-.148-.394-.35-.478-.787-.059-.31.05-.914.158-1.06" fill="#fab6a5"/><path d="M49.724 109.943c.028-.13.15-.279.23-.377.137-.164.283-.322.429-.48.385-.421.769-.846 1.11-1.313.348-.478.557-1.057.725-1.64.062-.216.118-.44.19-.653.054-.158.135-.37.32-.382.117-.006.212.071.28.169.025.034.064.073.093.104l.188.196c.17.178.337.358.496.549.189.227.4.51.51.79.095.243.182.493.268.74.124.365.243.732.352 1.1.12.412.237.843.308 1.264.043.26.103.693-.038.914-.25.388-.613.588-1.056.646-.149.019-.312-.03-.46-.061-.078-.017-.18-.035-.256-.017-.226.05-.451.134-.678.191a2.39 2.39 0 0 1-.451.075 2.14 2.14 0 0 1-.48-.04c-.13-.023-.261-.05-.392-.054-.035 0-.07 0-.105.005-.155.015-.297.06-.444.108-.131.043-.284.096-.424.072a.441.441 0 0 1-.247-.125c-.085-.086-.125-.197-.166-.309a1.808 1.808 0 0 0-.162-.338c-.185-.294-.21-.808-.14-1.133" fill="#e06b50"/><path d="M50.067 109.88c.052-.26.957-1.06 1.657-2.041.845-1.185.794-2.965 1.152-2.466.127.179 1.017.992 1.256 1.592.25.624 1.24 3.339.952 3.802-.17.274-.28.333-.739.385-.194.022-.576-.286-.8-.24-.289.06-.777.54-1.147.551-.348.013-.683-.312-.989-.287-.355.03-.595.38-.773.346-.252-.048-.194-.284-.443-.678-.176-.28-.164-.768-.126-.964" fill="#fab6a5"/><path d="M50.783 111.802c-.08.282-.15.571-.3.824a1.727 1.727 0 0 1-.046-.188 1.884 1.884 0 0 1 .016-.588.782.782 0 0 0 .33-.048m-.716-1.922c.025-.13.266-.396.59-.753.082.76.544 1.458.248 2.282-.104.072-.193.128-.27.113-.25-.048-.192-.284-.442-.678-.176-.28-.164-.768-.126-.964" fill="#f79f89"/><path d="M48.105 106.723c.037-.27.071-.539.102-.81.018-.156.041-.311.066-.466.064-.404-.023-.777-.205-1.148-.065-.134-.14-.258-.212-.389-.07-.123-.148-.275-.072-.41.106-.189.388-.094.553-.043.16.049.363.052.526.054.253.001.504-.007.757-.004.642.008 1.269.084 1.876.367.551.256 1.818 1.07 1.879 1.762.044.523-.353 1.037-.635 1.407-.117.153-.277.262-.424.38a1.16 1.16 0 0 0-.207.21c-.291.405-.45.91-.742 1.318a.86.86 0 0 1-.347.263c-.065.032-.168.076-.218.134a.547.547 0 0 0-.067.102c-.102.19-.16.466-.344.582-.381.24-.746.24-1.18.073-.311-.118-.994-.476-1.136-.802-.12-.276-.086-.766-.066-1.058.032-.501.08-.996.094-1.499v-.01l.002-.011" fill="#e06b50"/><path d="M48.46 109.07c-.167-.371-.012-1.342-.006-2.428.1-.848.062-.692.137-1.25.181-1.322-1.146-2.135-.19-1.822.605.198 1.835-.13 3.058.466.554.27 1.683 1.057 1.74 1.599.042.394-.274.51-.61.961-.152.206-.613.495-.776.728-.276.397-.16.744-.423 1.122-.14.2-.658.29-.788.45-.17.204.01.745-.137.838-.242.152-.523.23-.997.038-.336-.136-.91-.48-1.008-.702" fill="#fab6a5"/><path d="M48.46 109.07c-.066-.148-.082-.392-.076-.701.196-.144.005-.896.48-.244.477.651 1.055.908 1.738.77-.17.205.01.746-.137.839-.242.152-.523.23-.997.038-.336-.136-.91-.48-1.008-.702" fill="#f79f89"/><path d="M46.875 109.709c-.23-.18-.444-.632-.573-.9-.22-.46-.425-.923-.661-1.375l-.006-.01-.005-.011a35.362 35.362 0 0 0-.316-.77c-.062-.147-.12-.297-.176-.447-.148-.39-.37-.698-.649-.998-.097-.106-.204-.208-.297-.317-.09-.106-.178-.23-.167-.374.018-.237.278-.32.457-.369.07-.02.142-.05.209-.081.1-.045.2-.095.3-.144.248-.125.495-.251.748-.367.366-.168.896-.39 1.314-.36.203.016.408.011.61.007.442-.006 1.108-.04 1.48.327a.822.822 0 0 1 .184.277c.076.19.067.394.045.585-.024.198-.06.39-.074.592a.36.36 0 0 0 .003.08c.014.129.08.276.124.399.07.19.118.373.107.573-.012.195-.147.374-.252.517-.048.065-.178.238-.18.323-.02.428.2.87.159 1.301-.031.308-.078.684-.198.956-.184.416-.472.607-.895.691-.303.06-1.019.107-1.29-.106" fill="#e06b50"/><path d="M45.321 103.97c.567-.285 1.27-.624 1.738-.59.738.055 1.7-.15 2.052.378.194.29-.248.767-.282 1.26-.022.34.547.58.523.976-.014.264-.758.608-.769.876-.02.446.32.879.281 1.255-.035.374.124.693.033.9-.122.275-.308.505-.78.599a2.945 2.945 0 0 1-.617.045c.078-.19.108-.403.085-.657-.032-.35-.196-.776-.331-1.105-.186-.453-.396-.898-.598-1.344a35.92 35.92 0 0 1-.223-.495c-.187-.426-.344-.868-.54-1.289-.137-.293-.314-.614-.572-.81" fill="#fab6a5"/><path d="M41.643 105.404a2.59 2.59 0 0 1 .613-.509c.265-.168.548-.316.822-.469.177-.098.352-.198.532-.29.434-.223 1.088-.516 1.601-.23.33.185.547.567.71.911.203.428.365.878.557 1.312.076.17.153.337.23.505.208.455.425.909.617 1.37.139.336.31.77.345 1.125.05.488-.092.824-.399 1.133-.425.433-1.097.457-1.69.333-.708-.148-1.438-.524-2.046-.994a6.772 6.772 0 0 1-.373-.315c-.605-.556-1.159-1.31-1.479-2.088-.226-.552-.417-1.348-.04-1.794" fill="#e06b50"/><path d="M41.78 105.543c.312-.366.765-.593 1.392-.944.626-.353 1.427-.83 1.96-.538.49.27.49 1.327.897 2.252.473 1.081 1.32 2.07 1.377 2.698.03.318-.016.63-.358.973-.76.765-2.572.233-3.831-.914-1.26-1.146-1.967-2.908-1.437-3.527" fill="#fab6a5"/><path d="M47.307 107.96c.983 1.003 1.093.776 1.557.165-.035.374.124.693.033.9-.122.275-.308.505-.78.599a2.895 2.895 0 0 1-.483.046c.044-.16.056-.337.036-.541-.036-.356-.206-.79-.345-1.124l-.018-.044m-.278.135c.202.351.354.662.377.915.03.317-.016.63-.358.973-.655.66-2.094.354-3.285-.477 1.888.15 2.323.224 3.266-1.411" fill="#f79f89"/><path d="M45.46 105.48c-.553-.642-.803-.31-1.617-.025-.533.187-1.075.418-1.294.707-.394.518-.124 1.292.651 2.432-1.217-1.14-1.8-2.256-1.214-2.98.309-.383 1.33-.942 2.104-1.16.768-.215 1.018-.245 1.37 1.025m.573-.993c.358.685.24.499.869.163.611-.326 1.24-.463 1.986-.628-.935-.31-1.723-.295-2.605-.043-.47.134-.472.084-.25.508m3.671-.18c.024.416.039.325.446.344 1.108.05 1.827.286 2.675 1.155-.214-1.195-1.42-1.508-2.539-1.75-.497-.108-.614-.296-.582.25m3.796 2.654c.282.39 1.164 2.745 1.384 3.183.003-.51-.762-2.905-.993-3.325-.144-.262-.144-.415-.381-.203-.194.173-.159.139-.01.345" fill="#fcdbd5"/><path d="M50.153 119.133l-1.546 1.963-1.106 2.069-.3.796 1.77-1.753 1.617-1.695.085.751.88-1.354-.672-.294-.728-.483" fill="#f18d75"/><path d="M50.847 113.781c-.298-.062-.326 1.067-.37 1.348-.163 1.022-.263 1.992-.088 3.092l.628-3.979c.05-.322.161-.391-.17-.46" fill="#fcdbd5"/></g><g><path d="M118.86 51.76c1.708 2.205 3.622 3.404 6.1 4.712.007-3.135-2.752-4.143-5.092-5.72l-1.008 1.007" fill="#de6a4f"/><path d="M118.821 51.01c1.842 1.925 4.331 3.342 7.681 4.088-1.167-1.717-2.25-2.858-4.166-3.735l.612-.185c-.862-.904-1.973-1.498-3.63-1.413l-.497 1.245" fill="#e8795e"/><path d="M119.423 52.178c-.269.134-.749.13-1.035.13-.49-.003-.974-.022-1.466-.004l-.011.001-.011-.002c-.264-.02-.527-.035-.792-.05a10.924 10.924 0 0 1-.457-.036c-.418-.042-.825-.026-1.245-.028-.288-.002-.668-.01-.858-.218-.168-.183-.137-.452-.07-.689.037-.123.009-.34-.007-.46-.033-.24-.077-.477-.106-.716-.051-.406-.086-.936.168-1.324.307-.469-.081-.913.135-1.239.088-.133.237-.19.388-.213a1.94 1.94 0 0 1 .373-.008c.167.01.332.027.496.05.41.054.82.135 1.217.23.321.076.642.164.95.272.247.087.515.193.729.333.136.088.273.175.411.262.373.234.753.463 1.113.713.261.183.59.424.765.686.24.359.242.715.085 1.15-.112.311-.454 1-.77 1.16" fill="#e8795e"/><path d="M119.302 52.047c-.364.183-1.334.066-2.412.104-.846-.066-.69-.033-1.247-.089-1.32-.127-2.306.25-2.027-.724.14-.486-.408-1.78.029-2.446.436-.667-.246-1.263.37-1.355.569-.084 2.877.356 3.637.85.887.58 1.928 1.147 2.243 1.617.158.237.245.518.07 1-.123.344-.446.934-.663 1.044" fill="#fab6a5"/><path d="M112.349 52.213c-.195-.115-.333-.388-.43-.582-.156-.312-.297-.625-.465-.93l-.005-.01-.003-.01c-.116-.299-.245-.591-.353-.892-.114-.315-.253-.627-.35-.948-.074-.25-.135-.554.007-.817.113-.21.32-.337.545-.418.577-.207 1.157-.377 1.758-.412.214-.013.429-.035.644-.049.44-.029 1.11-.06 1.374.295.045.062.074.13.083.207.018.146-.039.292-.097.431-.059.138-.119.27-.154.412-.025.105.023.306.037.413.014.11.023.221.004.335-.05.315-.004.616-.097.936a1.87 1.87 0 0 1-.052.15c-.054.137-.124.266-.191.397-.05.097-.105.208-.13.31l-.006.03c-.026.191.087.373-.026.573-.198.352-.477.54-.87.653-.296.087-.98.07-1.223-.074" fill="#e06b50"/><path d="M112.464 52.055c-.261-.153-.445-.74-.837-1.453-.234-.606-.206-.484-.351-.89-.346-.958-.769-1.639.068-1.939.417-.148 1.044-.36 1.699-.397.655-.04 1.59-.192 1.867.18.167.225-.094.502-.194.914-.053.214-.173.506-.215.768-.049.306.246.612.16.907-.092.313-.574.52-.637.78-.05.208.324.508.25.64-.127.226-.311.425-.74.55-.302.087-.913.034-1.07-.06" fill="#fab6a5"/><path d="M111.116 53.056c-.133-.015-.291-.122-.397-.194-.176-.12-.347-.251-.517-.382-.456-.344-.914-.686-1.411-.982-.508-.303-1.104-.457-1.7-.57-.221-.041-.45-.076-.668-.128-.163-.04-.382-.1-.41-.283-.017-.116.05-.218.142-.296.031-.027.066-.07.095-.101l.178-.206c.16-.185.325-.369.5-.544.209-.21.47-.447.738-.582a27.813 27.813 0 0 1 1.776-.789c.398-.157.816-.314 1.229-.424.255-.067.68-.167.913-.047.41.212.643.556.742.99.033.148 0 .314-.018.464a.638.638 0 0 0 .007.257c.07.22.176.437.254.657.05.143.094.291.116.443.024.16.017.319.004.482-.01.13-.025.264-.016.394.002.036.006.07.014.105.03.153.088.29.15.432.054.126.121.274.11.416a.441.441 0 0 1-.101.257c-.078.093-.185.142-.292.194a1.838 1.838 0 0 0-.322.192c-.276.212-.785.284-1.114.245" fill="#e06b50"/><path d="M111.022 52.72c-.263-.027-1.144-.854-2.187-1.46-1.258-.73-3.026-.513-2.563-.917.167-.143.894-1.104 1.469-1.399.598-.307 3.208-1.544 3.696-1.301.289.144.358.247.453.7.04.19-.232.6-.165.818.087.282.61.724.656 1.092.045.345-.248.708-.194 1.01.063.352.434.558.417.739-.025.255-.265.22-.635.504-.262.201-.75.235-.947.214" fill="#fab6a5"/><path d="M112.869 51.829c.288.054.582.097.847.222a1.727 1.727 0 0 1-.182.063c-.15.044-.378.053-.587.04a.782.782 0 0 0-.078-.325m-1.847.891c-.132-.012-.42-.227-.805-.516.75-.153 1.4-.678 2.249-.46.081.097.146.18.138.258-.025.255-.265.218-.635.504-.262.201-.75.235-.947.214" fill="#f79f89"/><path d="M108.061 54.968c-.272-.012-.543-.02-.815-.026a9.488 9.488 0 0 1-.47-.022c-.409-.026-.773.095-1.125.31-.127.078-.244.164-.367.248-.117.08-.26.173-.402.11-.198-.089-.13-.377-.095-.547.034-.163.019-.366.005-.528-.022-.252-.053-.502-.075-.754-.05-.64-.034-1.27.192-1.902.204-.573.896-1.91 1.579-2.034.517-.094 1.065.254 1.46.5.163.103.286.252.419.387.067.068.142.137.227.187.43.252.948.363 1.382.616a.86.86 0 0 1 .294.321c.037.061.091.16.153.204.034.024.07.042.108.058.198.084.48.116.612.288.275.357.307.72.183 1.167-.09.322-.382 1.035-.693 1.206-.264.147-.755.158-1.048.165-.502.015-.999.012-1.5.046h-.022" fill="#e06b50"/><path d="M110.365 54.396c-.354.201-1.335.137-2.418.232-.853-.02-.694.003-1.256-.02-1.334-.057-2.02 1.34-1.797.36.14-.622-.3-1.816.179-3.089.217-.577.896-1.774 1.43-1.882.389-.078.534.226 1.014.518.219.133.55.565.797.705.42.239.756.09 1.156.317.212.12.35.628.522.743.219.15.741-.08.847.058.174.227.277.5.13.99-.103.347-.392.95-.604 1.068" fill="#fab6a5"/><path d="M110.365 54.396c-.141.08-.383.118-.692.14-.16-.18-.891.08-.287-.454.604-.535.806-1.135.606-1.802.219.15.741-.079.847.058.174.227.277.5.13.99-.103.347-.392.95-.604 1.068" fill="#f79f89"/><path d="M111.148 55.915c-.158.247-.588.5-.843.654-.437.262-.878.509-1.307.786l-.01.007-.01.006c-.248.126-.491.255-.736.387-.142.075-.285.147-.43.216-.375.184-.66.434-.933.74-.096.106-.188.221-.288.324-.097.1-.213.2-.357.202-.237.004-.343-.247-.41-.421a1.487 1.487 0 0 0-.1-.2c-.054-.096-.113-.19-.171-.285-.147-.236-.296-.47-.435-.711-.201-.35-.472-.856-.48-1.275a6.425 6.425 0 0 0-.05-.608c-.048-.44-.144-1.1.187-1.503a.822.822 0 0 1 .259-.21c.183-.093.386-.103.578-.1.2.006.395.025.596.02a.36.36 0 0 0 .08-.01c.127-.027.267-.106.385-.162.184-.087.36-.152.56-.16.197-.006.387.112.54.203.068.041.253.155.338.15.427-.02.847-.282 1.28-.28.31.002.688.014.97.108.432.144.649.413.772.827.089.296.2 1.004.014 1.295" fill="#e06b50"/><path d="M105.579 57.996c-.337-.538-.74-1.206-.748-1.675-.015-.74-.308-1.679.184-2.079.27-.22.787.177 1.282.164.339-.01.526-.599.922-.612.264-.01.676.698.943.685.446-.022.846-.4 1.224-.397.376 0 .678-.188.894-.116.284.095.53.259.668.72.048.16.088.392.102.61a1.36 1.36 0 0 0-.662-.023c-.345.065-.754.267-1.069.432-.433.228-.857.478-1.282.72l-.473.27c-.406.224-.832.422-1.232.657-.28.163-.583.37-.753.644" fill="#fab6a5"/><path d="M107.349 61.525a2.59 2.59 0 0 1-.563-.563c-.193-.249-.366-.516-.544-.774-.114-.168-.23-.333-.339-.504-.261-.41-.615-1.035-.377-1.573.153-.346.513-.596.84-.79.407-.242.841-.446 1.255-.678.162-.091.321-.184.482-.275.433-.25.865-.508 1.307-.743.32-.169.736-.38 1.086-.448.482-.095.83.015 1.166.292.471.383.558 1.05.49 1.652-.082.719-.389 1.48-.8 2.13-.088.135-.18.269-.279.4-.497.654-1.196 1.276-1.941 1.667-.529.277-1.304.54-1.783.207" fill="#e06b50"/><path d="M107.475 61.376c-.394-.277-.662-.707-1.07-1.299-.409-.59-.958-1.343-.717-1.9.223-.515 1.275-.613 2.158-1.104 1.032-.572 1.937-1.506 2.558-1.622.314-.06.63-.042 1.002.266.833.686.472 2.539-.553 3.9-1.024 1.36-2.712 2.229-3.378 1.759" fill="#fab6a5"/><path d="M109.368 55.647c.906-1.071.67-1.16.018-1.565.376 0 .678-.188.894-.116.285.095.53.259.668.72.038.129.071.302.09.476a1.467 1.467 0 0 0-.541.015c-.35.069-.767.279-1.087.448l-.042.022m.16.265c.33-.234.626-.414.876-.461.313-.06.63-.042 1.002.266.718.591.548 2.051-.17 3.316-.026-1.895.008-2.335-1.708-3.121" fill="#f79f89"/><path d="M107.069 57.717c-.587.611-.234.83.126 1.613.236.513.516 1.03.825 1.222.552.344 1.298.003 2.36-.875-1.02 1.319-2.078 2.004-2.854 1.487-.41-.272-1.061-1.237-1.35-1.987-.286-.745-.34-.991.893-1.46m-1.043-.477c.649-.42.475-.286.082-.88-.382-.58-.577-1.193-.81-1.92-.223.96-.134 1.743.2 2.597.176.456.127.463.528.203m-.521-3.64c.413-.061.32-.068.301-.475-.052-1.108.115-1.846.901-2.771-1.169.325-1.369 1.555-1.507 2.69-.06.506-.236.64.305.557m2.289-4.027c.362-.316 2.624-1.413 3.04-1.674-.509.045-2.821 1.03-3.218 1.298-.248.168-.4.182-.167.4.19.176.153.144.344-.024" fill="#fcdbd5"/><path d="M120.227 51.774l2.097 1.357 2.163.908.82.224-1.91-1.598-1.837-1.453.74-.154-1.43-.75-.23.696-.413.77" fill="#f18d75"/><path d="M114.833 51.581c-.035.302 1.092.225 1.377.243 1.033.067 2.008.077 3.086-.2l-4.02-.256c-.325-.02-.404-.123-.443.213" fill="#fcdbd5"/></g><g><path d="M26.957 88.988c-2.379-1.46-4.592-1.903-7.374-2.25 1.103 2.934 4.04 2.902 6.787 3.55l.587-1.3" fill="#de6a4f"/><path d="M27.258 89.675c-2.404-1.149-5.233-1.594-8.63-1.106 1.698 1.193 3.116 1.877 5.218 2.02l-.507.39c1.126.54 2.375.702 3.896.037l.023-1.341" fill="#e8795e"/><path d="M26.282 88.796c.204-.221.654-.387.922-.487.46-.172.919-.325 1.373-.516l.01-.005.01-.002c.255-.075.506-.154.76-.233a10 10 0 0 1 .44-.128c.405-.109.78-.268 1.174-.414.27-.1.628-.228.88-.1.22.112.287.374.308.62.01.128.113.321.17.428.116.212.24.419.353.632.19.361.411.844.31 1.298-.12.547.4.824.312 1.206-.035.156-.154.262-.287.337a1.955 1.955 0 0 1-.346.139c-.16.05-.32.092-.482.13-.403.093-.814.163-1.22.214a9.705 9.705 0 0 1-.984.082c-.262.006-.55.002-.8-.054a43.695 43.695 0 0 0-.477-.1c-.432-.087-.868-.166-1.293-.273-.31-.078-.701-.187-.958-.37-.351-.252-.48-.584-.486-1.046-.006-.33.07-1.097.31-1.357" fill="#e8795e"/><path d="M26.442 88.875c.276-.3 1.224-.533 2.22-.95.814-.238.656-.213 1.196-.358 1.28-.347 2.069-1.05 2.152-.04.042.504 1.011 1.52.84 2.299-.173.777.675 1.094.132 1.397-.502.28-2.816.686-3.702.491-1.036-.227-2.21-.39-2.67-.718-.232-.166-.413-.398-.42-.911-.006-.365.087-1.031.252-1.21" fill="#fab6a5"/><path d="M32.887 86.26c.222.04.448.245.608.393.255.236.498.48.763.706l.009.007.006.009c.214.238.438.465.646.708.217.255.458.498.661.764.16.207.323.47.284.766-.031.237-.18.429-.362.584-.467.397-.949.762-1.499 1.007-.195.088-.389.184-.585.274-.4.182-1.016.449-1.39.21a.426.426 0 0 1-.15-.164c-.068-.13-.067-.287-.062-.438.006-.15.016-.294-.002-.44-.013-.107-.13-.278-.18-.373a1.143 1.143 0 0 1-.123-.311c-.064-.313-.214-.579-.24-.91a1.87 1.87 0 0 1-.004-.16c.002-.146.021-.292.038-.439.012-.108.024-.23.013-.335l-.006-.03c-.044-.188-.214-.319-.18-.546.062-.398.256-.673.584-.919.247-.185.892-.411 1.17-.362" fill="#e06b50"/><path d="M32.835 86.449c.298.051.677.535 1.296 1.063.434.484.364.38.644.708.663.774 1.299 1.261.622 1.838-.338.286-.85.706-1.449.973-.598.268-1.419.741-1.81.49-.236-.15-.09-.502-.141-.922-.026-.219-.018-.534-.072-.795-.062-.304-.445-.485-.47-.792-.024-.325.353-.689.32-.955-.026-.211-.483-.36-.46-.509.039-.256.14-.508.497-.776.252-.189.843-.356 1.023-.323" fill="#fab6a5"/><path d="M33.74 85.036c.13-.033.317.011.44.041.208.05.414.112.62.174.548.161 1.098.319 1.667.42.583.103 1.195.037 1.792-.069.221-.039.448-.087.67-.117.166-.02.393-.04.484.12.057.103.029.222-.028.327-.02.037-.038.09-.053.129l-.094.255c-.085.23-.174.46-.275.686-.121.27-.282.584-.485.806a27.813 27.813 0 0 1-1.382 1.366 11.14 11.14 0 0 1-1 .83c-.214.154-.576.398-.837.368-.459-.053-.798-.292-1.044-.664-.083-.126-.11-.294-.148-.44a.638.638 0 0 0-.097-.238c-.144-.181-.319-.346-.47-.525a2.39 2.39 0 0 1-.265-.373 2.14 2.14 0 0 1-.175-.45c-.036-.125-.07-.255-.124-.374a.755.755 0 0 0-.05-.092c-.082-.133-.185-.24-.292-.352-.097-.098-.211-.213-.251-.35a.441.441 0 0 1 .003-.276c.04-.114.123-.198.205-.285.088-.094.165-.182.233-.293.183-.296.634-.544.956-.624" fill="#e06b50"/><path d="M33.948 85.316c.256-.067 1.372.395 2.562.592 1.435.239 3.012-.59 2.721-.048-.105.193-.444 1.349-.878 1.828-.45.498-2.455 2.58-2.997 2.525-.321-.033-.422-.105-.671-.495-.105-.164.004-.643-.135-.823-.182-.234-.827-.463-1-.79-.164-.306-.02-.75-.176-1.014-.183-.306-.603-.367-.651-.543-.067-.247.17-.299.415-.695.174-.282.618-.485.81-.537" fill="#fab6a5"/><path d="M32.536 86.804c-.288.05-.58.115-.871.092.043-.041.092-.081.147-.124.126-.094.335-.183.536-.244a.782.782 0 0 0 .188.276m1.412-1.488c.128-.034.473.065.935.198-.647.409-1.07 1.13-1.94 1.226-.11-.062-.2-.116-.22-.192-.068-.247.17-.297.415-.695.174-.282.618-.485.81-.537" fill="#f79f89"/><path d="M35.922 82.167c.26-.086.516-.173.772-.264.149-.053.298-.1.448-.146.391-.12.689-.362.942-.689.091-.117.17-.238.256-.36.08-.117.182-.254.336-.246.217.013.256.307.282.478.027.165.113.35.183.496.11.228.227.45.337.679.274.58.481 1.177.493 1.847.012.607-.163 2.103-.757 2.461-.45.27-1.086.14-1.543.048-.189-.038-.357-.134-.528-.213a1.16 1.16 0 0 0-.279-.094c-.492-.084-1.015-.005-1.51-.088a.86.86 0 0 1-.389-.197c-.057-.044-.142-.117-.216-.136a.547.547 0 0 0-.121-.016c-.215-.009-.489.061-.674-.053-.384-.237-.542-.565-.584-1.027-.03-.333-.009-1.103.221-1.373.196-.23.651-.415.922-.525.465-.191.93-.365 1.388-.574l.01-.004.01-.004" fill="#e06b50"/><path d="M33.97 83.517c.26-.314 1.2-.6 2.179-1.072.805-.284.649-.248 1.183-.426 1.267-.418 1.414-1.968 1.553-.972.088.63.923 1.592.925 2.952 0 .617-.21 1.977-.672 2.266-.336.211-.58-.022-1.132-.126-.251-.046-.713-.333-.995-.377-.477-.074-.738.183-1.193.113-.24-.038-.55-.464-.75-.511-.258-.062-.666.336-.814.246-.242-.152-.436-.37-.471-.88-.026-.361.03-1.027.187-1.213" fill="#fab6a5"/><path d="M33.97 83.517c.104-.125.316-.246.597-.376.215.112.806-.39.43.324-.376.714-.353 1.346.07 1.899-.257-.062-.665.336-.813.245-.242-.15-.436-.37-.472-.879-.025-.362.031-1.027.188-1.213" fill="#f79f89"/><path d="M32.7 82.373c.06-.287.373-.676.557-.91.316-.4.642-.787.944-1.198l.007-.01.008-.009c.187-.205.37-.412.552-.622.105-.12.214-.238.324-.354.286-.305.466-.64.612-1.022.052-.134.097-.274.155-.406.055-.127.129-.26.262-.314.22-.088.409.11.532.249.048.053.108.105.165.151.085.071.173.138.26.206.222.169.444.335.66.511.31.256.744.634.9 1.023.075.189.169.371.261.55.2.395.524.978.356 1.474a.822.822 0 0 1-.167.287c-.138.152-.325.233-.506.297-.189.066-.378.118-.564.194a.36.36 0 0 0-.072.038c-.108.069-.212.192-.303.286a1.4 1.4 0 0 1-.467.348c-.181.075-.401.032-.576.001-.079-.014-.291-.055-.37-.02-.392.17-.693.563-1.098.715-.29.107-.648.23-.945.242-.455.017-.753-.157-1.015-.501-.187-.246-.543-.868-.471-1.206" fill="#e06b50"/><path d="M37.173 78.456c.505.384 1.118.867 1.292 1.302.276.688.882 1.462.563 2.01-.175.302-.798.114-1.257.3-.313.129-.28.747-.646.899-.243.103-.88-.414-1.124-.306-.41.178-.65.673-1.005.804-.351.132-.567.415-.794.424-.3.012-.588-.055-.88-.438a2.945 2.945 0 0 1-.312-.534c.205-.013.41-.08.628-.212.3-.183.61-.517.847-.783.325-.366.633-.75.944-1.127.116-.14.231-.28.348-.419.3-.354.629-.69.92-1.05.203-.252.414-.552.476-.87" fill="#fab6a5"/><path d="M34.27 75.782c.262.066.499.188.725.328.268.164.525.353.782.531.167.116.333.23.496.351.39.292.94.751.908 1.338-.02.378-.268.74-.506 1.037-.295.37-.628.714-.933 1.077-.12.143-.236.286-.354.428-.316.387-.63.781-.96 1.157-.24.272-.554.616-.858.804-.416.259-.78.28-1.193.14-.576-.193-.893-.786-1.042-1.373-.178-.701-.16-1.522-.005-2.274.033-.158.073-.316.118-.474.235-.788.668-1.616 1.227-2.245.396-.446 1.027-.968 1.594-.825" fill="#e06b50"/><path d="M34.204 75.966c.466.12.869.427 1.46.836.591.408 1.371.918 1.343 1.524-.027.56-.976 1.024-1.628 1.796-.763.9-1.28 2.094-1.819 2.422-.273.166-.574.262-1.031.105-1.022-.347-1.34-2.207-.862-3.842.476-1.635 1.748-3.045 2.537-2.841" fill="#fab6a5"/><path d="M34.46 81.994c-.468 1.323-.217 1.322.536 1.47-.351.133-.567.416-.795.425-.3.012-.587-.055-.88-.438a2.895 2.895 0 0 1-.252-.413c.162-.03.327-.097.501-.205.304-.188.618-.532.858-.804l.032-.035m-.243-.191c-.227.336-.44.609-.657.741-.272.166-.574.262-1.031.105-.881-.298-1.238-1.724-1.015-3.16.696 1.762.82 2.186 2.703 2.314" fill="#f79f89"/><path d="M35.878 79.245c.333-.78-.074-.859-.689-1.464-.402-.397-.847-.782-1.203-.851-.639-.127-1.215.455-1.899 1.652.489-1.594 1.235-2.608 2.144-2.4.48.11 1.43.782 1.966 1.381.53.596.668.807-.319 1.682m1.144.077c-.458.623-.343.435.235.853.562.406.961.91 1.437 1.508-.132-.977-.492-1.677-1.106-2.359-.326-.363-.283-.387-.566-.002m1.775 3.22c-.364.204-.275.177-.114.551.441 1.018.546 1.768.138 2.91.979-.716.73-1.938.457-3.05-.122-.493-.004-.68-.481-.411m-.717 4.575c-.227.425-1.954 2.25-2.25 2.641.46-.221 2.274-1.96 2.55-2.352.172-.244.31-.311.015-.432-.24-.098-.195-.081-.314.143" fill="#fcdbd5"/><path d="M25.673 89.458l-2.442-.527-2.344-.085-.847.081 2.352.819 2.233.709-.638.406 1.603.196-.03-.733.113-.866" fill="#f18d75"/><path d="M30.786 87.73c-.074-.295-1.1.176-1.373.26-.99.303-1.906.639-2.816 1.28l3.85-1.184c.312-.097.422-.028.34-.356" fill="#fcdbd5"/></g><g><path d="M40.079 58.776c-2.356 1.496-3.727 3.29-5.261 5.635 3.121.299 4.382-2.355 6.17-4.538l-.91-1.097" fill="#de6a4f"/><path d="M40.828 58.807c-2.088 1.655-3.73 4.001-4.785 7.267 1.818-1.002 3.055-1.975 4.107-3.8l.127.626c.98-.774 1.675-1.825 1.745-3.483l-1.194-.61" fill="#e8795e"/><path d="M39.61 59.298c-.11-.28-.06-.758-.033-1.043.048-.487.111-.968.14-1.46v-.01l.003-.011c.043-.261.084-.522.124-.784.022-.152.05-.302.078-.452.08-.412.102-.818.144-1.237.028-.287.071-.664.297-.834.197-.15.462-.094.692-.004.12.047.338.039.46.035.24-.011.48-.032.722-.04.408-.012.94.002 1.302.291.438.35.916.005 1.22.25.125.1.168.254.177.406.006.121-.009.254-.027.372a6.215 6.215 0 0 1-.095.49c-.093.403-.211.803-.343 1.19a9.705 9.705 0 0 1-.36.92c-.109.238-.24.495-.4.695-.1.127-.198.256-.298.385-.268.35-.53.706-.813 1.042-.207.243-.477.547-.754.697-.38.205-.735.175-1.153-.022-.3-.14-.955-.545-1.083-.875" fill="#e8795e"/><path d="M39.75 59.189c-.147-.38.06-1.334.122-2.411.145-.836.098-.684.204-1.233.25-1.302-.034-2.32.91-1.95.47.183 1.81-.241 2.433.255.623.497 1.28-.126 1.314.495.031.574-.621 2.831-1.185 3.542-.659.83-1.32 1.813-1.818 2.083-.251.135-.538.196-1.003-.024-.33-.154-.888-.53-.976-.757" fill="#fab6a5"/><path d="M40.233 52.25c.133-.182.417-.295.62-.373.324-.126.65-.238.97-.376l.01-.004.01-.002c.308-.088.61-.19.92-.27.324-.083.649-.192.977-.258.256-.052.564-.084.813.082.199.132.306.35.365.582.152.594.268 1.187.247 1.788-.007.215-.005.43-.011.646-.012.44-.044 1.11-.422 1.34a.426.426 0 0 1-.213.064c-.147.004-.288-.066-.42-.137-.133-.071-.259-.143-.397-.191-.102-.035-.307-.006-.415-.002a1.14 1.14 0 0 1-.333-.027c-.31-.079-.614-.061-.923-.184a1.87 1.87 0 0 1-.145-.066c-.13-.067-.253-.148-.378-.227a1.564 1.564 0 0 0-.295-.159l-.03-.008c-.188-.043-.38.052-.569-.079-.33-.23-.492-.525-.569-.928-.058-.302.022-.982.188-1.21" fill="#e06b50"/><path d="M40.38 52.38c.177-.246.778-.374 1.524-.698.626-.177.502-.16.92-.267.986-.255 1.702-.613 1.923.249.109.429.261 1.073.238 1.728-.022.656.043 1.6-.354 1.842-.24.146-.491-.14-.891-.278-.208-.073-.488-.22-.746-.285-.3-.078-.632.187-.917.074-.303-.12-.465-.62-.718-.707-.201-.07-.535.276-.66.19-.213-.148-.394-.35-.478-.787-.059-.31.05-.913.159-1.06" fill="#fab6a5"/><path d="M39.508 50.945c.028-.13.15-.279.23-.377.137-.164.283-.322.429-.48.385-.421.769-.846 1.11-1.313.348-.478.557-1.057.725-1.64.062-.216.118-.44.19-.653.054-.158.135-.37.32-.382.117-.006.212.071.28.169.025.034.064.073.093.104l.188.196c.17.178.337.359.496.549.19.227.4.51.51.79.095.243.182.493.268.74.124.365.243.732.352 1.1.12.412.237.843.308 1.264.043.26.104.693-.038.914-.25.388-.613.588-1.056.646-.149.02-.312-.03-.46-.061-.078-.017-.18-.035-.256-.017-.226.05-.451.134-.678.191a2.39 2.39 0 0 1-.451.075 2.14 2.14 0 0 1-.48-.04c-.13-.023-.261-.05-.392-.054-.035 0-.07 0-.105.005-.155.015-.297.06-.444.108-.131.043-.284.096-.424.072a.441.441 0 0 1-.247-.125c-.085-.086-.125-.197-.166-.308a1.808 1.808 0 0 0-.162-.34c-.185-.293-.21-.807-.14-1.131" fill="#e06b50"/><path d="M39.851 50.882c.052-.26.957-1.06 1.657-2.04.845-1.186.794-2.966 1.152-2.467.127.179 1.017.992 1.256 1.592.25.624 1.24 3.339.952 3.802-.17.274-.28.333-.739.385-.194.022-.576-.286-.799-.24-.29.06-.778.54-1.148.551-.348.013-.683-.312-.989-.287-.355.03-.595.38-.773.346-.252-.048-.194-.284-.443-.678-.176-.28-.164-.768-.126-.964" fill="#fab6a5"/><path d="M40.567 52.804c-.08.282-.15.571-.3.824a1.727 1.727 0 0 1-.046-.187 1.884 1.884 0 0 1 .016-.589.782.782 0 0 0 .33-.048m-.716-1.922c.025-.13.266-.396.59-.753.082.76.544 1.458.248 2.282-.104.072-.193.128-.27.113-.25-.048-.192-.284-.442-.678-.176-.28-.164-.768-.126-.964" fill="#f79f89"/><path d="M37.889 47.725c.037-.27.071-.538.102-.81.018-.156.041-.311.066-.465.064-.404-.023-.778-.205-1.149-.065-.134-.14-.258-.212-.388-.07-.124-.148-.276-.072-.41.107-.19.388-.095.553-.044.16.049.363.052.526.054.253.001.504-.006.757-.004.642.008 1.269.084 1.876.368.551.256 1.818 1.07 1.879 1.76.044.524-.353 1.038-.635 1.408-.117.153-.277.262-.424.38a1.16 1.16 0 0 0-.207.21c-.291.405-.45.91-.742 1.318a.86.86 0 0 1-.347.263c-.065.032-.168.076-.218.134a.547.547 0 0 0-.067.102c-.102.19-.16.466-.344.583-.381.24-.746.238-1.179.073-.312-.119-.995-.477-1.137-.803-.12-.276-.086-.766-.066-1.058.032-.501.08-.996.094-1.499v-.01l.002-.011" fill="#e06b50"/><path d="M38.244 50.072c-.167-.371-.012-1.342-.006-2.428.1-.848.062-.692.137-1.25.182-1.322-1.146-2.135-.19-1.822.605.198 1.835-.13 3.058.466.554.27 1.683 1.057 1.74 1.599.042.394-.274.51-.61.962-.152.205-.613.494-.776.727-.276.397-.16.744-.423 1.122-.139.2-.658.29-.788.45-.17.204.01.746-.137.838-.242.152-.523.23-.997.038-.336-.136-.91-.48-1.008-.702" fill="#fab6a5"/><path d="M38.244 50.072c-.066-.148-.082-.392-.075-.701.195-.144.004-.896.48-.244.476.651 1.054.908 1.737.77-.17.205.01.747-.137.839-.242.152-.523.23-.997.038-.336-.136-.91-.48-1.008-.702" fill="#f79f89"/><path d="M36.66 50.71c-.232-.18-.445-.631-.574-.9-.22-.46-.425-.922-.661-1.374l-.006-.01-.005-.011a35.362 35.362 0 0 0-.316-.77c-.062-.147-.12-.297-.176-.447-.148-.39-.37-.698-.649-.998-.097-.106-.203-.208-.297-.317-.09-.105-.178-.23-.167-.374.018-.237.278-.319.458-.369.068-.02.141-.05.208-.081.1-.045.2-.095.3-.144.248-.125.495-.251.748-.367.367-.168.896-.39 1.314-.36.203.016.408.011.61.007.442-.006 1.108-.04 1.48.327a.822.822 0 0 1 .184.277c.076.19.067.394.045.585-.024.198-.06.39-.074.592a.36.36 0 0 0 .003.08c.014.129.08.276.124.399.07.19.118.373.107.573-.012.195-.147.374-.252.518-.048.064-.178.237-.18.322-.02.428.2.87.159 1.302-.031.307-.078.683-.198.955-.184.416-.472.607-.895.691-.303.06-1.019.107-1.29-.106" fill="#e06b50"/><path d="M35.105 44.972c.567-.285 1.27-.624 1.738-.59.738.056 1.7-.15 2.052.378.194.29-.248.767-.282 1.261-.022.338.547.58.523.975-.014.264-.758.608-.769.876-.02.446.32.879.281 1.255-.035.374.124.693.033.9-.121.275-.308.505-.78.599a2.945 2.945 0 0 1-.617.045c.078-.19.108-.403.085-.657-.032-.35-.196-.776-.33-1.105-.187-.453-.396-.898-.599-1.344a35.92 35.92 0 0 1-.223-.495c-.187-.426-.344-.868-.54-1.289-.137-.293-.314-.614-.572-.81" fill="#fab6a5"/><path d="M31.427 46.406a2.59 2.59 0 0 1 .613-.508c.266-.17.548-.317.822-.47.177-.098.352-.198.532-.29.434-.222 1.088-.516 1.601-.229.33.184.547.566.71.91.203.428.365.878.557 1.312.076.17.153.337.23.505.208.455.425.909.617 1.37.139.336.31.77.345 1.125.05.488-.092.824-.398 1.133-.426.433-1.098.457-1.692.333-.707-.148-1.437-.524-2.045-.994a6.772 6.772 0 0 1-.373-.315c-.605-.556-1.159-1.31-1.478-2.088-.227-.552-.418-1.348-.04-1.794" fill="#e06b50"/><path d="M31.564 46.545c.312-.366.765-.593 1.392-.944.626-.352 1.427-.829 1.96-.538.49.27.49 1.327.897 2.252.473 1.081 1.32 2.07 1.377 2.698.03.318-.016.63-.358.973-.76.765-2.572.233-3.83-.914-1.26-1.146-1.968-2.908-1.438-3.527" fill="#fab6a5"/><path d="M37.091 48.963c.983 1.002 1.093.775 1.557.164-.035.374.124.693.033.9-.121.275-.308.505-.78.599a2.895 2.895 0 0 1-.483.046c.044-.16.057-.337.036-.541-.036-.355-.206-.79-.345-1.124l-.018-.044m-.278.135c.202.351.354.662.377.915.03.317-.016.63-.358.973-.655.66-2.094.355-3.285-.477 1.889.15 2.323.224 3.266-1.411" fill="#f79f89"/><path d="M35.245 46.481c-.554-.64-.804-.31-1.618-.024-.533.187-1.074.418-1.293.707-.394.518-.125 1.292.65 2.432-1.217-1.14-1.8-2.256-1.214-2.98.309-.382 1.33-.942 2.104-1.16.768-.215 1.018-.245 1.37 1.025m.573-.993c.358.685.24.499.869.163.611-.326 1.24-.463 1.986-.628-.935-.31-1.723-.295-2.605-.043-.47.134-.472.084-.25.508m3.671-.18c.024.416.04.325.446.344 1.108.05 1.828.286 2.675 1.155-.214-1.194-1.42-1.508-2.539-1.75-.497-.108-.614-.296-.582.25m3.797 2.654c.28.39 1.163 2.745 1.383 3.183.003-.51-.762-2.905-.993-3.325-.143-.262-.143-.415-.381-.203-.194.173-.159.139-.01.345" fill="#fcdbd5"/><path d="M39.937 60.135l-1.546 1.963-1.106 2.069-.3.796 1.77-1.753 1.617-1.695.085.751.88-1.354-.672-.294-.728-.483" fill="#f18d75"/><path d="M40.631 54.783c-.298-.062-.326 1.067-.37 1.348-.163 1.023-.263 1.992-.088 3.092.21-1.326.418-2.653.629-3.979.05-.322.16-.391-.17-.46" fill="#fcdbd5"/></g><g><path d="M102.506 124.757c-2.742-.515-4.97-.14-7.691.527 2.076 2.348 4.81 1.27 7.606.896l.085-1.423" fill="#de6a4f"/><path d="M103.032 125.292c-2.655-.217-5.457.376-8.457 2.043 2.012.509 3.58.643 5.595.027l-.335.544c1.245.103 2.47-.19 3.653-1.353l-.456-1.261" fill="#e8795e"/><path d="M101.807 124.818c.112-.28.473-.595.688-.784.368-.323.742-.631 1.098-.971l.008-.008.01-.006c.21-.16.417-.324.625-.488.12-.096.243-.187.366-.277.34-.246.633-.528.95-.805.216-.19.505-.437.786-.407.246.025.402.247.508.469.055.116.22.26.312.34.184.156.374.305.555.464.307.27.685.642.753 1.102.082.554.666.628.721 1.016.023.157-.05.3-.148.417-.079.092-.18.18-.274.253-.13.103-.266.2-.404.293a12.102 12.102 0 0 1-1.953 1.062c-.243.1-.514.198-.767.235l-.481.078c-.434.072-.87.153-1.306.205-.316.037-.722.075-1.027-.005-.417-.109-.656-.374-.827-.803-.123-.307-.325-1.05-.194-1.379" fill="#e8795e"/><path d="M101.984 124.835c.151-.378.954-.934 1.735-1.68.677-.511.538-.432.991-.76 1.071-.78 1.558-1.718 1.997-.804.218.455 1.486 1.06 1.603 1.848.116.788 1.021.78.622 1.258-.37.441-2.387 1.645-3.284 1.779-1.048.157-2.203.424-2.75.281-.276-.073-.528-.225-.717-.702-.136-.338-.286-.994-.197-1.22" fill="#fab6a5"/><path d="M107.074 120.095c.221-.043.506.068.708.15.323.13.636.27.964.387l.011.004.01.005c.283.147.574.28.855.432.294.16.605.302.89.477.223.137.47.325.538.616.056.232-.015.464-.13.674-.294.538-.614 1.05-1.04 1.475-.152.152-.298.311-.45.465-.31.313-.79.781-1.224.691a.426.426 0 0 1-.198-.1c-.11-.097-.165-.243-.214-.386-.048-.142-.09-.28-.16-.41-.05-.096-.219-.215-.3-.285a1.143 1.143 0 0 1-.226-.247c-.172-.269-.406-.464-.548-.765a1.87 1.87 0 0 1-.062-.147c-.05-.138-.084-.281-.12-.424a1.564 1.564 0 0 0-.108-.317c-.006-.01-.01-.019-.016-.027-.108-.16-.314-.221-.362-.446-.085-.394-.001-.72.218-1.066.164-.261.686-.703.963-.756" fill="#e06b50"/><path d="M107.092 120.289c.297-.058.824.258 1.59.531.578.298.476.226.854.432.895.487 1.663.715 1.236 1.495-.213.388-.541.963-1.006 1.426-.463.464-1.061 1.199-1.516 1.104-.274-.057-.263-.438-.46-.812-.104-.195-.208-.493-.351-.717-.166-.261-.59-.294-.721-.572-.14-.295.083-.77-.042-1.006-.1-.189-.58-.164-.612-.312-.055-.254-.05-.525.188-.902.168-.266.66-.633.84-.667" fill="#fab6a5"/><path d="M107.435 118.646c.11-.077.3-.102.426-.119.212-.027.426-.042.64-.058.57-.045 1.14-.093 1.708-.202.58-.111 1.129-.391 1.649-.703.193-.115.387-.241.584-.348.148-.078.353-.178.495-.06.09.075.107.197.09.315-.005.042-.003.097-.003.14l.003.271c.003.246.002.492-.012.739-.017.296-.055.646-.166.926-.097.243-.204.484-.31.724-.158.35-.322.7-.494 1.044-.194.383-.402.778-.638 1.133-.146.22-.397.577-.651.642-.448.114-.85.012-1.213-.248-.122-.088-.207-.235-.294-.359a.638.638 0 0 0-.176-.187c-.2-.118-.421-.21-.626-.323a2.39 2.39 0 0 1-.381-.254 2.14 2.14 0 0 1-.323-.357c-.08-.104-.157-.214-.25-.306a.755.755 0 0 0-.08-.069c-.123-.095-.258-.158-.398-.224-.125-.058-.273-.124-.36-.237a.441.441 0 0 1-.094-.26c-.004-.12.043-.229.09-.339.048-.12.088-.23.113-.357.065-.341.398-.734.67-.923" fill="#e06b50"/><path d="M107.729 118.834c.215-.154 1.422-.12 2.604-.36 1.426-.29 2.604-1.625 2.525-1.016-.029.218.066 1.42-.169 2.021-.243.627-1.374 3.285-1.9 3.428-.311.083-.431.052-.803-.223-.156-.117-.225-.602-.42-.721-.253-.154-.937-.137-1.215-.381-.263-.228-.286-.694-.526-.885-.28-.22-.695-.128-.802-.275-.15-.207.052-.34.14-.798.062-.325.404-.674.566-.79" fill="#fab6a5"/><path d="M106.94 120.727c-.252.15-.5.315-.781.397.025-.054.057-.11.093-.168.084-.133.248-.29.414-.42.07.087.174.143.274.191m.789-1.893c.107-.078.465-.108.944-.148-.459.612-.597 1.437-1.376 1.837-.125-.019-.228-.038-.274-.101-.151-.207.053-.339.14-.798.062-.325.404-.673.566-.79" fill="#f79f89"/><path d="M108.45 115.187c.212-.172.42-.345.627-.521.12-.103.243-.2.367-.296.322-.252.514-.584.634-.98.044-.142.074-.283.11-.427.034-.138.08-.303.227-.35.208-.065.349.196.434.346.084.145.23.286.348.399.184.173.373.34.556.514.463.444.87.927 1.12 1.55.228.562.598 2.022.17 2.568-.325.414-.965.518-1.424.595-.19.032-.381.003-.57-.01a1.16 1.16 0 0 0-.294.01c-.49.098-.95.359-1.442.457a.86.86 0 0 1-.433-.045c-.07-.02-.175-.059-.25-.05a.547.547 0 0 0-.12.028c-.204.069-.435.232-.649.191-.442-.084-.708-.334-.911-.751-.147-.3-.402-1.028-.283-1.362.1-.285.46-.62.674-.82.366-.343.739-.671 1.092-1.03l.008-.008.008-.006" fill="#e06b50"/><path d="M107.107 117.145c.132-.386.908-.989 1.654-1.779.651-.551.518-.463.953-.819 1.035-.843.62-2.343 1.105-1.462.307.558 1.43 1.158 1.916 2.428.221.576.509 1.922.181 2.357-.239.317-.55.185-1.103.286-.251.046-.785-.057-1.063.002-.473.101-.625.435-1.075.531-.238.05-.68-.237-.884-.21-.263.034-.502.552-.672.52-.28-.055-.539-.19-.754-.653-.153-.33-.337-.971-.257-1.2" fill="#fab6a5"/><path d="M107.107 117.145c.053-.154.208-.342.424-.564.24.028.614-.651.517.15-.097.8.15 1.383.743 1.748-.263.034-.502.552-.672.52-.28-.055-.539-.19-.754-.653-.153-.33-.337-.971-.258-1.201" fill="#f79f89"/><path d="M105.513 116.53c-.045-.29.107-.765.196-1.05.153-.486.32-.963.455-1.455l.003-.012.004-.011c.102-.259.198-.517.294-.778.055-.15.115-.3.177-.447.159-.387.207-.763.208-1.172 0-.144-.008-.291 0-.435.005-.138.026-.29.132-.388.175-.16.42-.043.586.044.063.033.138.06.208.082.104.036.21.068.317.1.266.078.533.154.797.242.383.128.922.327 1.205.635.139.15.292.287.442.421.328.297.838.727.858 1.25a.822.822 0 0 1-.054.328c-.075.19-.22.333-.367.458-.153.128-.31.244-.458.382a.36.36 0 0 0-.053.06c-.077.104-.13.256-.181.376-.08.187-.168.354-.313.492-.143.135-.363.173-.537.207-.08.014-.293.051-.353.112-.306.3-.447.773-.772 1.06-.232.203-.523.446-.796.563-.419.178-.76.121-1.127-.107-.263-.162-.816-.617-.87-.958" fill="#e06b50"/><path d="M108.296 111.275c.608.179 1.353.411 1.671.756.503.544 1.345 1.05 1.243 1.677-.056.344-.705.39-1.068.728-.247.232.005.798-.283 1.07-.19.183-.969-.073-1.16.115-.318.312-.366.86-.651 1.11-.282.248-.382.59-.591.68-.276.117-.569.158-.979-.096a2.945 2.945 0 0 1-.481-.388c.187-.085.354-.22.51-.422.216-.278.387-.7.513-1.033.173-.458.324-.927.48-1.39.058-.173.116-.344.176-.515.154-.438.342-.869.485-1.31.1-.308.19-.663.135-.982" fill="#fab6a5"/><path d="M104.63 109.812a2.59 2.59 0 0 1 .794.047c.31.058.616.143.92.218.197.05.394.096.588.151.469.134 1.148.366 1.326.926.116.36.013.787-.103 1.15-.143.45-.332.89-.488 1.339-.06.175-.118.35-.177.526-.158.474-.31.954-.485 1.423-.127.34-.298.772-.515 1.056-.297.391-.63.54-1.065.556-.607.026-1.114-.415-1.463-.91-.416-.592-.693-1.365-.815-2.124a6.772 6.772 0 0 1-.059-.484c-.062-.82.048-1.748.346-2.535.21-.558.615-1.27 1.195-1.339" fill="#e06b50"/><path d="M104.634 110.007c.478-.055.964.09 1.662.26s1.609.37 1.799.946c.174.532-.547 1.305-.882 2.258-.392 1.113-.448 2.412-.835 2.911-.196.253-.443.45-.926.466-1.079.04-2.039-1.585-2.176-3.282-.137-1.698.548-3.468 1.358-3.56" fill="#fab6a5"/><path d="M107.022 115.547c.034 1.403.27 1.313 1.026 1.183-.282.25-.382.591-.591.68-.276.118-.57.159-.979-.095a2.895 2.895 0 0 1-.383-.296c.14-.086.27-.208.395-.37.217-.285.388-.718.515-1.057l.017-.045m-.295-.091c-.092.395-.194.725-.35.926-.194.252-.442.45-.925.466-.93.035-1.772-1.17-2.075-2.591 1.278 1.399 1.545 1.75 3.35 1.199" fill="#f79f89"/><path d="M107.367 112.473c.033-.846-.376-.775-1.165-1.122-.517-.227-1.07-.428-1.428-.366-.642.11-.973.86-1.185 2.221-.112-1.664.224-2.878 1.147-3.007.487-.068 1.615.22 2.33.59.708.367.91.515.301 1.684m1.096-.335c-.205.745-.165.529.524.712.67.18 1.222.509 1.88.897-.471-.865-1.057-1.391-1.874-1.809-.434-.223-.403-.261-.53.2m2.807 2.375c-.268.32-.194.264.09.556.775.794 1.14 1.456 1.166 2.67.659-1.02-.008-2.072-.66-3.013-.29-.418-.247-.635-.597-.213m.963 4.53c-.062.478-1.024 2.8-1.162 3.27.35-.37 1.426-2.642 1.544-3.107.074-.29.178-.401-.14-.409-.26-.006-.21-.006-.242.246" fill="#fcdbd5"/><path d="M101.474 125.654l-2.47.378-2.22.757-.762.377 2.49-.073 2.338-.134-.45.607 1.567-.389-.29-.674-.203-.85" fill="#f18d75"/><path d="M105.635 122.217c-.175-.25-.966.557-1.19.733-.817.635-1.553 1.275-2.175 2.198 1.058-.826 2.116-1.653 3.175-2.478.257-.201.385-.176.19-.453" fill="#fcdbd5"/></g><g><path d="M93.539 69.467c-.812 2.918-.613 5.36-.144 8.367 2.733-2.029 1.82-5.084 1.674-8.144l-1.53-.223" fill="#de6a4f"/><path d="M94.165 68.947c-.48 2.852-.098 5.937 1.427 9.336.736-2.129 1.026-3.813.547-6.049l.558.413c.227-1.337.023-2.69-1.126-4.076l-1.406.376" fill="#e8795e"/><path d="M93.54 70.228c-.292-.147-.6-.566-.784-.816-.316-.428-.614-.862-.95-1.278l-.007-.01-.005-.01a58.01 58.01 0 0 0-.47-.722c-.093-.139-.18-.28-.266-.421-.235-.39-.512-.734-.783-1.102-.186-.251-.425-.587-.367-.888.05-.264.304-.412.554-.507.131-.048.302-.214.397-.306.186-.183.364-.375.553-.556.32-.308.758-.682 1.261-.713.607-.037.742-.662 1.166-.685.173-.01.32.082.437.198.093.094.178.212.249.32.1.151.192.306.279.464.219.392.414.8.589 1.208.142.33.273.665.38 1.003.084.272.166.574.182.851.012.175.026.351.04.528.038.476.085.955.1 1.43.012.347.015.788-.1 1.111-.157.441-.465.675-.945.82-.343.105-1.166.255-1.51.082" fill="#e8795e"/><path d="M93.574 70.038c-.395-.198-.922-1.118-1.655-2.032-.491-.779-.418-.621-.731-1.142-.745-1.231-1.714-1.844-.685-2.234.513-.194 1.284-1.51 2.147-1.562.863-.053.94-1.033 1.42-.556.442.44 1.557 2.733 1.619 3.716.072 1.148.254 2.422.049 3-.104.292-.292.55-.826.71-.378.116-1.102.218-1.338.1" fill="#fab6a5"/><path d="M88.92 64.095c-.027-.244.12-.541.227-.752.17-.338.35-.664.508-1.008l.005-.01.007-.01c.185-.294.355-.596.546-.886.201-.303.383-.627.6-.918.168-.228.394-.478.714-.525.257-.039.502.06.718.203.554.368 1.079.762 1.499 1.262.15.178.309.351.46.53.31.363.773.926.635 1.387a.462.462 0 0 1-.126.205c-.116.11-.279.156-.438.196-.158.038-.312.072-.459.134-.108.046-.252.218-.335.3a1.24 1.24 0 0 1-.288.22c-.307.161-.54.397-.878.522a2.03 2.03 0 0 1-.165.053c-.154.041-.312.065-.47.092a1.702 1.702 0 0 0-.353.086l-.03.016c-.184.102-.269.318-.516.35-.434.055-.779-.066-1.133-.335-.267-.201-.696-.807-.729-1.112" fill="#e06b50"/><path d="M89.131 64.093c-.036-.327.356-.867.722-1.671.376-.598.288-.494.546-.884.61-.923.928-1.732 1.732-1.198.4.267.99.675 1.448 1.22.459.545 1.199 1.26 1.054 1.742-.087.292-.498.244-.92.424-.221.093-.553.178-.809.312-.298.156-.373.61-.685.727-.332.123-.825-.161-1.093-.048-.213.09-.23.612-.393.633-.28.036-.572.005-.958-.287-.273-.207-.624-.773-.644-.97" fill="#fab6a5"/><path d="M87.386 63.57c-.073-.126-.083-.334-.089-.472-.01-.232-.006-.465-.003-.698.004-.62.004-1.241-.06-1.865-.067-.64-.32-1.258-.608-1.85-.107-.219-.225-.44-.322-.664-.071-.167-.16-.397-.02-.54.09-.09.223-.097.35-.069.044.01.104.013.15.017l.294.022c.266.02.532.043.798.081.318.046.694.12.986.265a30.19 30.19 0 0 1 1.838 1.034c.396.245.803.507 1.166.795.224.178.588.483.634.764.082.494-.066.92-.38 1.288-.107.124-.274.203-.416.285a.692.692 0 0 0-.219.173c-.146.205-.266.437-.407.647-.091.136-.192.27-.31.389a2.323 2.323 0 0 1-.416.316c-.12.076-.246.15-.354.242a.82.82 0 0 0-.082.08c-.114.125-.195.265-.279.41-.074.13-.16.284-.29.366a.479.479 0 0 1-.29.08c-.13-.009-.243-.07-.358-.129a1.962 1.962 0 0 0-.376-.156c-.363-.102-.757-.499-.936-.81" fill="#e06b50"/><path d="M87.617 63.27c-.148-.247 0-1.55-.149-2.85-.18-1.57-1.516-2.968-.864-2.826.232.052 1.54.06 2.17.37.655.321 3.426 1.79 3.53 2.373.062.344.018.471-.314.848-.141.158-.673.187-.82.387-.189.26-.235 1-.524 1.279-.27.263-.777.244-1.006.487-.265.283-.203.74-.371.842-.238.144-.363-.088-.85-.226-.346-.097-.691-.5-.802-.685" fill="#fab6a5"/><path d="M89.59 64.298c.14.286.295.57.358.882a1.875 1.875 0 0 1-.174-.117c-.135-.103-.29-.295-.414-.486a.85.85 0 0 0 .231-.28m-1.974-1.027c-.075-.124-.074-.514-.073-1.036.62.553 1.498.78 1.859 1.659-.031.133-.062.243-.134.287-.238.144-.362-.09-.85-.226-.346-.097-.691-.5-.802-.685" fill="#f79f89"/><path d="M83.74 62.151a39.57 39.57 0 0 0-.506-.727 9.22 9.22 0 0 1-.286-.423c-.243-.372-.585-.61-1-.777-.15-.06-.3-.107-.454-.16-.145-.048-.32-.113-.356-.277-.052-.23.244-.358.414-.437.164-.077.33-.222.463-.339.205-.183.402-.372.608-.554.523-.46 1.083-.854 1.78-1.068.63-.194 2.242-.459 2.794.054.417.39.47 1.093.511 1.596.017.208-.032.413-.065.615a1.26 1.26 0 0 0-.014.319c.06.539.298 1.06.36 1.603.018.17-.028.313-.089.464-.029.072-.08.183-.078.266a.594.594 0 0 0 .02.131c.055.227.21.492.146.72-.132.47-.427.734-.897.916-.338.131-1.148.339-1.5.18-.298-.135-.626-.556-.823-.805-.338-.428-.658-.862-1.013-1.277l-.008-.009-.006-.01" fill="#e06b50"/><path d="M85.732 63.785c-.405-.178-.985-1.073-1.77-1.953-.536-.756-.453-.603-.798-1.107-.815-1.198-2.476-.888-1.478-1.33.631-.281 1.384-1.44 2.803-1.848.643-.186 2.126-.372 2.566.023.32.288.15.611.207 1.22.026.275-.135.843-.097 1.15.066.52.413.716.475 1.211.033.263-.32.713-.309.936.013.288.55.594.5.775-.085.299-.255.566-.776.755-.37.136-1.081.275-1.323.168" fill="#fab6a5"/><path d="M85.732 63.785c-.16-.071-.35-.257-.57-.51.052-.259-.648-.726.209-.546.857.179 1.51-.035 1.96-.642.013.288.55.594.5.775-.085.299-.255.566-.776.755-.37.136-1.082.275-1.323.168" fill="#f79f89"/><path d="M84.919 65.452c-.318.022-.817-.187-1.116-.31-.512-.21-1.013-.434-1.533-.626l-.012-.005-.012-.005a38.04 38.04 0 0 0-.814-.39 13.062 13.062 0 0 1-.467-.233c-.403-.207-.806-.294-1.249-.333-.155-.014-.315-.019-.47-.04-.149-.019-.31-.056-.407-.18-.157-.203-.007-.458.101-.629.042-.066.078-.144.11-.217.048-.11.092-.222.136-.334.11-.28.217-.562.336-.84.174-.401.44-.966.798-1.244.175-.136.337-.289.497-.439.352-.327.864-.838 1.43-.812a.892.892 0 0 1 .35.089c.2.099.34.27.462.439.124.177.235.359.37.531a.39.39 0 0 0 .061.063c.105.093.265.164.39.23.195.104.366.215.502.385.133.166.154.408.174.6.009.086.03.32.089.392.296.358.795.554 1.075.932.198.27.434.608.535.914.154.47.061.833-.22 1.208-.2.27-.743.827-1.117.853" fill="#e06b50"/><path d="M79.494 61.956c.25-.642.57-1.426.972-1.738.636-.493 1.262-1.357 1.929-1.188.367.092.357.798.689 1.221.228.29.863.07 1.13.406.18.223-.168 1.04.017 1.265.309.374.897.476 1.14.807.243.328.604.468.68.703.103.309.12.63-.194 1.049-.108.145-.283.33-.464.485a1.473 1.473 0 0 0-.409-.592c-.28-.259-.722-.483-1.07-.65-.479-.23-.971-.436-1.458-.648a43.991 43.991 0 0 1-.54-.237c-.46-.208-.909-.45-1.373-.646-.323-.137-.7-.267-1.049-.237" fill="#fab6a5"/><path d="M77.572 65.785a2.81 2.81 0 0 1 .125-.855c.09-.329.211-.653.32-.975.072-.209.14-.416.218-.622.188-.494.503-1.207 1.125-1.348.4-.092.852.059 1.233.218.475.197.933.442 1.403.652l.553.24c.498.215 1.003.424 1.494.656.355.17.808.395 1.095.655.395.358.525.731.503 1.204-.029.658-.553 1.166-1.121 1.498-.678.395-1.54.622-2.372.685a7.351 7.351 0 0 1-.53.018c-.891-.009-1.885-.214-2.71-.609-.583-.28-1.316-.783-1.336-1.417" fill="#e06b50"/><path d="M77.783 65.798c-.015-.522.186-1.034.436-1.773.249-.74.548-1.706 1.189-1.858.592-.139 1.36.713 2.36 1.163 1.168.527 2.568.708 3.072 1.173.255.235.445.52.418 1.045-.057 1.17-1.903 2.057-3.752 2.049-1.848-.009-3.7-.914-3.723-1.799" fill="#fab6a5"/><path d="M83.996 63.729c1.52.093 1.445-.17 1.375-1 .243.328.604.468.68.703.103.309.12.63-.194 1.049a3.143 3.143 0 0 1-.355.387c-.08-.16-.2-.312-.364-.462-.287-.26-.74-.486-1.095-.655l-.047-.022m-.126.311c.419.136.767.276.97.463.254.234.445.52.418 1.045-.048 1.008-1.43 1.808-2.995 2.004 1.631-1.253 2.036-1.51 1.607-3.512" fill="#f79f89"/><path d="M80.704 63.07c-.913-.113-.874.336-1.322 1.157-.293.538-.562 1.118-.528 1.51.059.705.839 1.133 2.292 1.488-1.81-.033-3.091-.509-3.145-1.52-.03-.532.388-1.726.853-2.464.463-.732.642-.938 1.85-.17m-.261-1.217c.787.292.556.228.819-.5.256-.707.663-1.275 1.144-1.95-.98.43-1.603 1.014-2.13 1.859-.282.449-.32.411.167.591m2.828-2.814c.322.319.268.234.61-.047.93-.765 1.68-1.098 2.996-1.014-1.041-.807-2.242-.183-3.32.435-.479.275-.71.209-.286.626m4.989-.621c.51.11 2.933 1.366 3.43 1.56-.37-.414-2.727-1.788-3.218-1.959-.306-.106-.418-.23-.456.114-.03.28-.026.227.244.285" fill="#fcdbd5"/><path d="M94.413 70.666l.18 2.706.613 2.47.337.86.151-2.699.072-2.541.615.543-.275-1.731-.756.251-.937.14" fill="#f18d75"/><path d="M91.081 65.847c-.286.166.513 1.096.682 1.355.612.943 1.236 1.798 2.177 2.556-.796-1.22-1.592-2.441-2.386-3.663-.194-.297-.155-.433-.473-.248" fill="#fcdbd5"/></g><g><path d="M55.222 73.743c.898-2.892.772-5.34.391-8.359-2.791 1.947-1.97 5.028-1.914 8.09l1.523.27" fill="#de6a4f"/><path d="M54.58 74.244c.565-2.836.275-5.932-1.149-9.374-.8 2.106-1.139 3.78-.726 6.03l-.546-.429c-.266 1.33-.103 2.687 1.005 4.108l1.417-.335" fill="#e8795e"/><path d="M55.244 72.982c.287.156.582.584.76.84.303.437.587.879.91 1.305l.008.01.005.01c.147.247.297.49.448.736.089.141.17.285.253.428.223.398.49.75.75 1.125.178.257.408.6.34.899-.057.262-.316.402-.569.49-.132.044-.307.205-.405.294-.191.178-.375.364-.57.54-.328.297-.778.659-1.281.675-.608.018-.76.64-1.186.65-.173.005-.316-.092-.43-.21a2.122 2.122 0 0 1-.24-.328 6.746 6.746 0 0 1-.265-.472c-.207-.399-.39-.813-.553-1.225a10.534 10.534 0 0 1-.35-1.014c-.076-.274-.15-.578-.157-.856a47.43 47.43 0 0 0-.024-.528c-.024-.478-.057-.958-.059-1.434 0-.346.01-.788.134-1.107.17-.436.485-.66.968-.791.347-.095 1.173-.22 1.512-.038" fill="#e8795e"/><path d="M55.204 73.171c.388.21.888 1.145 1.594 2.08.468.793.4.634.697 1.164.708 1.252 1.658 1.894.618 2.253-.518.179-1.327 1.47-2.192 1.498-.864.027-.97 1.004-1.435.514-.429-.453-1.476-2.779-1.509-3.762-.038-1.15-.182-2.429.04-3.001.113-.289.308-.54.846-.686.382-.104 1.108-.185 1.34-.06" fill="#fab6a5"/><path d="M59.68 79.25c.02.244-.136.537-.25.745-.179.332-.37.652-.537.992l-.005.01-.008.01c-.193.288-.372.585-.572.869-.21.296-.4.615-.625.9-.176.223-.409.466-.73.504-.258.03-.5-.075-.712-.225-.543-.384-1.056-.793-1.46-1.305-.146-.183-.3-.36-.446-.543-.299-.372-.744-.949-.593-1.406a.462.462 0 0 1 .132-.201c.119-.107.284-.148.444-.183.16-.034.314-.062.462-.12.11-.043.258-.21.344-.29a1.24 1.24 0 0 1 .295-.212c.311-.152.551-.38.893-.496a2.03 2.03 0 0 1 .167-.048c.154-.036.313-.055.471-.077a1.72 1.72 0 0 0 .356-.077c.01-.005.021-.008.031-.014.186-.097.278-.31.526-.335.435-.042.776.089 1.122.368.261.21.672.828.696 1.133" fill="#e06b50"/><path d="M59.469 79.246c.026.327-.381.855-.77 1.648-.394.586-.304.485-.573.867-.637.905-.979 1.704-1.766 1.147-.392-.279-.97-.704-1.412-1.263-.443-.558-1.16-1.294-1.002-1.772.096-.289.505-.23.933-.396.223-.087.557-.162.817-.289.302-.146.39-.599.707-.706.335-.113.82.186 1.09.08.216-.084.25-.604.412-.62.28-.028.572.012.95.315.266.214.6.79.614.988" fill="#fab6a5"/><path d="M61.198 79.82c.069.128.073.336.075.474.002.232-.008.465-.018.697-.022.62-.04 1.241.005 1.867.048.64.282 1.266.553 1.866.1.223.212.448.303.674.066.169.148.402.003.54-.093.089-.226.091-.351.059-.044-.011-.104-.016-.15-.021l-.293-.03c-.266-.028-.531-.06-.796-.106-.316-.055-.69-.14-.977-.294a30.19 30.19 0 0 1-1.807-1.088 12.13 12.13 0 0 1-1.142-.829c-.219-.184-.573-.5-.611-.782-.067-.497.093-.918.419-1.276.11-.121.279-.195.423-.273a.692.692 0 0 0 .224-.166c.152-.2.279-.429.426-.635.095-.133.2-.265.321-.38.127-.12.273-.213.426-.303.122-.073.25-.143.361-.231a.82.82 0 0 0 .084-.078c.118-.121.203-.26.291-.402.078-.127.168-.278.3-.357a.479.479 0 0 1 .293-.07c.13.011.241.075.354.138.123.068.236.125.371.167.36.113.742.52.912.838" fill="#e06b50"/><path d="M60.958 80.113c.14.251-.047 1.55.064 2.854.134 1.573 1.428 3.01.781 2.85-.231-.06-1.539-.107-2.158-.435-.646-.34-3.372-1.891-3.46-2.476-.051-.346-.002-.472.34-.838.146-.154.678-.168.83-.363.198-.254.265-.993.563-1.263.278-.255.784-.222 1.02-.457.273-.275.224-.733.396-.83.242-.137.36.098.843.25.343.107.676.52.781.708" fill="#fab6a5"/><path d="M59.015 79.027c-.13-.29-.276-.579-.33-.892.055.034.11.075.17.122.132.106.282.303.4.498a.849.849 0 0 0-.24.272m1.943 1.086c.071.126.06.515.043 1.037-.603-.571-1.475-.823-1.81-1.713.036-.132.07-.241.143-.283.242-.137.359.1.843.25.343.108.676.52.781.71" fill="#f79f89"/><path d="M64.8 81.346c.16.25.32.495.485.741.095.142.185.287.273.432.231.379.566.627.977.806.148.065.297.115.448.173.144.053.316.123.348.288.045.231-.254.35-.427.424-.166.072-.337.212-.472.325-.21.177-.413.36-.624.537-.537.443-1.109.821-1.81 1.014-.636.175-2.256.392-2.792-.137-.405-.402-.438-1.106-.464-1.61-.011-.209.045-.411.083-.613a1.26 1.26 0 0 0 .024-.318c-.044-.54-.267-1.07-.313-1.613-.013-.17.038-.312.103-.461.03-.071.086-.181.086-.264a.594.594 0 0 0-.016-.132c-.049-.228-.196-.498-.125-.723.146-.467.449-.722.924-.89.341-.12 1.158-.304 1.504-.134.294.143.61.573.799.828.325.438.632.88.975 1.307l.007.008.007.01" fill="#e06b50"/><path d="M62.857 79.654c.4.19.953 1.102 1.712 2.005.514.77.435.616.765 1.13.78 1.22 2.448.96 1.438 1.373-.64.262-1.426 1.397-2.857 1.764-.648.166-2.135.308-2.564-.1-.311-.296-.131-.615-.17-1.224-.019-.277.16-.84.13-1.147-.05-.523-.391-.728-.439-1.225-.025-.263.34-.703.337-.927-.004-.287-.533-.61-.477-.789.094-.296.272-.558.798-.732.374-.124 1.09-.243 1.327-.128" fill="#fab6a5"/><path d="M62.857 79.654c.16.075.343.267.556.527-.061.256.625.744-.226.538-.852-.203-1.51-.01-1.978.584-.004-.287-.533-.61-.477-.789.094-.296.272-.558.798-.732.374-.124 1.09-.243 1.327-.128" fill="#f79f89"/><path d="M63.72 78.012c.318-.013.811.21 1.106.342.506.225 1 .464 1.513.672l.013.004.011.006c.266.142.533.278.802.414.156.078.309.162.46.246.397.22.797.318 1.239.37.155.019.314.029.468.054.149.023.31.065.402.191.15.21-.006.46-.12.627a1.614 1.614 0 0 0-.115.214c-.052.108-.1.219-.147.33-.118.277-.233.555-.36.829-.187.396-.468.953-.835 1.22-.179.13-.346.279-.51.424-.36.316-.888.813-1.453.77a.892.892 0 0 1-.348-.1c-.197-.104-.332-.279-.448-.452-.12-.181-.224-.366-.355-.542a.39.39 0 0 0-.059-.065c-.102-.096-.26-.172-.382-.242-.192-.109-.36-.225-.491-.398-.128-.17-.142-.413-.156-.606-.006-.086-.02-.321-.077-.394-.285-.367-.779-.578-1.047-.964-.19-.276-.416-.62-.508-.93-.14-.473-.036-.833.255-1.2.208-.264.768-.804 1.142-.82" fill="#e06b50"/><path d="M69.039 81.667c-.27.634-.613 1.408-1.024 1.708-.65.474-1.3 1.32-1.963 1.13-.364-.103-.333-.808-.652-1.241-.22-.295-.86-.094-1.119-.439-.173-.228.2-1.035.021-1.265-.297-.382-.882-.502-1.115-.84-.233-.335-.59-.486-.66-.723-.092-.312-.1-.633.226-1.043.112-.142.292-.322.478-.47.068.212.193.409.391.603.273.267.707.504 1.05.681.473.244.959.465 1.44.692.178.083.355.167.533.253.453.22.894.476 1.352.686.319.146.691.287 1.042.268" fill="#fab6a5"/><path d="M71.073 77.896c.001.294-.063.575-.15.85-.1.327-.23.647-.35.966-.077.206-.151.412-.236.615-.202.488-.537 1.191-1.163 1.314-.403.08-.85-.084-1.227-.254-.468-.211-.92-.47-1.383-.693-.182-.087-.364-.172-.545-.257-.492-.23-.99-.453-1.474-.7-.35-.18-.796-.418-1.075-.687-.385-.369-.504-.746-.467-1.218.048-.657.587-1.15 1.165-1.464.69-.375 1.557-.577 2.39-.614.175-.008.352-.008.53-.003.891.035 1.879.27 2.69.688.576.298 1.294.822 1.295 1.457" fill="#e06b50"/><path d="M70.863 77.876c-.001.523-.217 1.028-.489 1.76-.27.731-.598 1.689-1.243 1.822-.596.121-1.339-.753-2.325-1.232-1.151-.562-2.546-.784-3.035-1.264-.249-.242-.43-.533-.388-1.057.092-1.167 1.964-2 3.811-1.936 1.848.063 3.671 1.023 3.669 1.907" fill="#fab6a5"/><path d="M64.59 79.761c-1.516-.138-1.448.126-1.403.958-.233-.334-.59-.485-.66-.722-.092-.312-.1-.633.226-1.043.09-.113.223-.25.366-.376.076.163.19.318.35.472.28.269.726.508 1.076.687l.046.024m.135-.307c-.414-.149-.758-.3-.955-.492-.248-.242-.43-.533-.388-1.057.078-1.006 1.483-1.764 3.053-1.914-1.667 1.204-2.08 1.448-1.71 3.463" fill="#f79f89"/><path d="M67.862 80.516c.909.14.883-.309 1.356-1.117.309-.529.595-1.1.572-1.494-.038-.705-.805-1.156-2.247-1.554 1.808.087 3.075.6 3.1 1.612.012.533-.44 1.714-.927 2.437-.484.719-.67.92-1.854.116m.225 1.224c-.778-.315-.55-.244-.833.476-.277.7-.7 1.255-1.202 1.915.992-.4 1.633-.966 2.185-1.795.294-.44.332-.402-.15-.596m-2.91 2.73c-.313-.329-.26-.242-.61.028-.954.737-1.714 1.048-3.026.925 1.017.837 2.235.249 3.331-.336.487-.262.716-.188.305-.617m-5.005.473c-.508-.126-2.891-1.453-3.382-1.66.357.424 2.672 1.866 3.158 2.052.303.116.41.242.459-.1.039-.28.033-.227-.235-.292" fill="#fcdbd5"/><path d="M54.384 72.52l-.1-2.71-.54-2.49-.311-.868-.231 2.693-.147 2.539-.599-.562.224 1.739.763-.229.941-.113" fill="#f18d75"/><path d="M57.572 77.434c.29-.157-.48-1.11-.642-1.375-.584-.96-1.182-1.833-2.1-2.619.759 1.244 1.519 2.488 2.277 3.733.185.302.142.437.465.261" fill="#fcdbd5"/></g><g><path d="M77.012 95.63c-3-.412-5.395.113-8.31.982 2.377 2.435 5.282 1.12 8.294.565l.016-1.547" fill="#de6a4f"/><path d="M77.611 96.181c-2.89-.093-5.897.7-9.06 2.667 2.209.445 3.916.506 6.067-.27l-.333.609c1.355.045 2.668-.338 3.888-1.663l-.562-1.343" fill="#e8795e"/><path d="M76.257 95.734c.107-.31.481-.67.704-.887.382-.37.771-.724 1.14-1.112l.007-.009.01-.007c.22-.186.436-.373.653-.563.125-.11.253-.215.381-.319.356-.285.659-.606.987-.924.224-.218.524-.5.83-.483.269.014.45.246.577.481.066.124.253.27.356.352.208.16.422.31.626.474.348.275.778.66.876 1.154.118.596.756.646.836 1.063.033.17-.04.328-.138.46-.08.104-.186.204-.284.29-.136.118-.278.23-.422.338-.36.27-.738.518-1.118.746-.308.185-.623.36-.943.51-.258.121-.546.243-.819.296a47.43 47.43 0 0 0-.517.11c-.468.101-.936.213-1.405.292-.341.057-.779.12-1.114.05-.458-.096-.731-.37-.94-.827-.15-.326-.408-1.12-.283-1.484" fill="#e8795e"/><path d="M76.45 95.742c.144-.418.985-1.064 1.792-1.913.706-.591.56-.497 1.033-.878 1.12-.903 1.598-1.946 2.122-.978.261.482 1.668 1.069 1.837 1.918.168.848 1.149.792.741 1.33-.376.498-2.5 1.911-3.465 2.105-1.128.225-2.366.577-2.966.451-.304-.064-.584-.215-.815-.722-.166-.36-.364-1.063-.278-1.313" fill="#fab6a5"/><path d="M81.715 90.331c.238-.058.553.048.776.125.357.123.704.259 1.066.368l.012.004.01.005c.316.144.639.272.951.423.327.158.673.295.99.47.25.136.527.326.617.638.073.249.008.505-.105.738-.29.599-.61 1.172-1.05 1.655-.156.173-.306.353-.462.527-.318.357-.814.89-1.29.816a.462.462 0 0 1-.22-.098c-.125-.1-.192-.255-.253-.408-.06-.151-.113-.299-.194-.436-.06-.1-.25-.22-.342-.292a1.24 1.24 0 0 1-.258-.256c-.2-.282-.465-.481-.635-.8a2.03 2.03 0 0 1-.075-.156c-.06-.147-.106-.3-.153-.453a1.698 1.698 0 0 0-.134-.339l-.019-.028c-.125-.167-.351-.223-.416-.464-.113-.423-.04-.78.18-1.167.163-.292.706-.799 1.004-.872" fill="#e06b50"/><path d="M81.746 90.54c.319-.078.906.237 1.752.492.643.292.528.219.949.423.996.48 1.841.686 1.42 1.554-.21.433-.536 1.073-1.015 1.6-.478.527-1.086 1.356-1.585 1.278-.3-.047-.308-.46-.543-.856-.122-.206-.25-.523-.418-.758-.194-.275-.655-.288-.812-.582-.167-.313.05-.84-.1-1.089-.118-.199-.637-.147-.68-.305-.072-.272-.08-.566.157-.988.168-.298.681-.722.874-.768" fill="#fab6a5"/><path d="M82.03 88.741c.114-.089.319-.126.455-.151.228-.04.46-.069.69-.097.616-.08 1.231-.162 1.841-.31.624-.152 1.203-.485 1.751-.85.203-.136.407-.283.615-.41.156-.092.372-.212.533-.09.102.076.126.207.115.336-.004.045.002.105.004.151l.018.294c.016.267.028.534.026.802-.003.322-.026.704-.13 1.012a30.19 30.19 0 0 1-.778 1.96c-.19.426-.394.865-.63 1.264-.147.245-.4.646-.673.73-.479.147-.92.058-1.328-.204-.137-.09-.237-.244-.338-.373a.692.692 0 0 0-.2-.194c-.223-.117-.469-.205-.696-.317a2.594 2.594 0 0 1-.427-.254 2.323 2.323 0 0 1-.37-.371c-.09-.109-.181-.224-.286-.318a.82.82 0 0 0-.09-.07c-.14-.097-.29-.158-.445-.222-.138-.056-.302-.12-.402-.238a.479.479 0 0 1-.117-.277c-.01-.13.035-.25.08-.372a2.03 2.03 0 0 0 .103-.393c.053-.374.393-.817.678-1.037" fill="#e06b50"/><path d="M82.358 88.93c.225-.18 1.536-.207 2.804-.53 1.531-.39 2.737-1.901 2.684-1.236-.02.237.147 1.535-.075 2.2-.23.692-1.315 3.635-1.877 3.817-.334.108-.466.08-.883-.198-.176-.118-.276-.641-.494-.76-.282-.152-1.023-.098-1.338-.348-.297-.233-.346-.737-.618-.93-.315-.225-.76-.103-.883-.256-.175-.217.038-.372.109-.873.05-.355.402-.752.571-.886" fill="#fab6a5"/><path d="M81.604 91.024c-.265.177-.526.368-.826.472a1.8 1.8 0 0 1 .093-.187c.083-.149.253-.328.426-.477.08.09.197.146.307.192m.754-2.094c.112-.09.498-.143 1.016-.212-.465.688-.57 1.59-1.394 2.065-.137-.013-.25-.028-.302-.094-.175-.217.04-.37.109-.873.05-.355.402-.752.57-.886" fill="#f79f89"/><path d="M82.945 84.937c.22-.197.437-.396.653-.599.124-.117.252-.23.381-.34.336-.29.526-.66.635-1.095.04-.157.066-.312.097-.47.03-.152.07-.333.228-.391.22-.082.387.193.488.351.099.153.265.298.398.414.21.178.423.348.631.528.526.457.992.959 1.297 1.62.277.598.756 2.16.322 2.776-.33.465-1.02.613-1.513.721-.204.045-.413.023-.618.019a1.26 1.26 0 0 0-.318.028c-.526.131-1.011.438-1.54.572-.166.04-.314.014-.472-.026-.075-.019-.192-.055-.274-.041a.594.594 0 0 0-.127.037c-.218.085-.46.274-.694.241-.484-.068-.785-.324-1.028-.766-.175-.317-.49-1.092-.38-1.461.094-.314.467-.696.688-.924.378-.393.765-.768 1.129-1.176l.008-.008.008-.008" fill="#e06b50"/><path d="M81.594 87.132c.122-.426.931-1.121 1.698-2.017.677-.633.537-.53.99-.94 1.077-.968.547-2.572 1.119-1.643.363.588 1.612 1.179 2.208 2.53.27.612.653 2.056.321 2.545-.242.357-.585.23-1.18.37-.27.063-.855-.02-1.153.058-.507.135-.654.505-1.137.633-.256.068-.75-.22-.969-.18-.283.05-.515.625-.7.6-.308-.045-.595-.178-.853-.669-.184-.348-.418-1.034-.344-1.287" fill="#fab6a5"/><path d="M81.594 87.132c.049-.17.207-.383.43-.635.262.018.63-.739.567.135-.061.873.238 1.491.9 1.856-.283.05-.515.625-.7.6-.308-.045-.595-.178-.853-.669-.184-.348-.418-1.034-.344-1.288" fill="#f79f89"/><path d="M79.833 86.55c-.065-.312.075-.836.157-1.148.14-.536.294-1.062.415-1.603l.003-.013.003-.012c.097-.286.187-.571.277-.86.052-.166.11-.33.168-.494.152-.427.184-.838.163-1.282-.007-.156-.024-.315-.024-.47-.001-.15.014-.316.123-.428.182-.183.454-.069.638.016.07.032.153.057.23.078.115.034.232.062.349.09.293.072.586.14.877.221.422.119 1.017.306 1.34.624.159.155.332.295.502.433.37.305.947.743.997 1.309a.892.892 0 0 1-.041.359c-.071.21-.221.373-.373.516-.16.147-.324.281-.477.438a.39.39 0 0 0-.054.07c-.078.115-.127.283-.176.416a1.539 1.539 0 0 1-.313.55c-.147.154-.384.207-.572.253-.084.02-.314.071-.376.14-.316.341-.443.862-.78 1.19-.241.233-.544.512-.834.654-.444.215-.817.172-1.226-.056-.294-.162-.919-.625-.995-.992" fill="#e06b50"/><path d="M82.57 80.704c.668.161 1.489.374 1.852.73.573.563 1.514 1.068 1.436 1.752-.042.376-.743.46-1.118.847-.256.265.048.864-.25 1.175-.197.208-1.054-.027-1.251.186-.33.356-.352.953-.648 1.238-.291.284-.382.66-.604.769-.293.142-.608.201-1.066-.052a3.197 3.197 0 0 1-.543-.395c.199-.102.372-.258.532-.485.218-.312.381-.78.5-1.147.163-.506.302-1.022.447-1.533.053-.19.107-.378.162-.567.144-.484.324-.96.456-1.447.092-.338.17-.728.094-1.07" fill="#fab6a5"/><path d="M78.516 79.314a2.81 2.81 0 0 1 .864.008c.338.046.676.122 1.01.187.216.043.43.083.645.133.515.12 1.263.335 1.487.933.145.384.056.852-.05 1.251-.132.497-.313.984-.458 1.478-.056.194-.11.387-.164.58-.146.523-.285 1.051-.45 1.569-.12.375-.282.854-.502 1.173-.3.44-.653.619-1.125.66-.656.06-1.23-.391-1.634-.91-.483-.619-.824-1.442-.998-2.258a7.351 7.351 0 0 1-.089-.522c-.11-.885-.042-1.898.24-2.767.198-.616.598-1.41 1.224-1.515" fill="#e06b50"/><path d="M78.531 79.525c.516-.085 1.05.045 1.816.194.766.147 1.764.313 2 .928.218.568-.523 1.444-.835 2.495-.365 1.228-.356 2.64-.75 3.202-.198.284-.456.51-.979.554-1.167.101-2.294-1.61-2.534-3.443-.24-1.832.41-3.788 1.282-3.93" fill="#fab6a5"/><path d="M81.416 85.404c.112 1.519.362 1.408 1.175 1.228-.291.284-.382.66-.604.769-.293.142-.608.202-1.066-.052a3.143 3.143 0 0 1-.431-.3c.148-.101.282-.24.408-.423.22-.32.383-.798.503-1.173l.015-.05m-.324-.083c-.08.434-.172.797-.33 1.024-.198.283-.456.51-.979.554-1.006.088-1.983-1.174-2.388-2.698 1.46 1.448 1.769 1.815 3.697 1.12" fill="#f79f89"/><path d="M81.626 82.053c-.01-.92-.449-.82-1.323-1.155-.573-.218-1.183-.407-1.568-.32-.69.153-1.009.983-1.165 2.47-.21-1.797.088-3.13 1.082-3.32.525-.1 1.763.152 2.557.514.788.36 1.016.51.417 1.81m1.171-.422c-.183.82-.151.583.606.745.735.159 1.352.486 2.086.872-.557-.913-1.22-1.452-2.128-1.861-.483-.219-.451-.262-.564.244m3.169 2.426c-.273.361-.196.296.128.597.882.82 1.313 1.519 1.407 2.833.66-1.14-.12-2.246-.877-3.23-.337-.439-.302-.676-.658-.2m1.285 4.86c-.041.52-.96 3.09-1.085 3.607.36-.42 1.405-2.941 1.509-3.45.064-.319.171-.446-.174-.437-.282.007-.229.004-.25.28" fill="#fcdbd5"/><path d="M75.941 96.657l-2.657.542-2.367.94-.806.45 2.695-.213 2.528-.27-.456.682 1.679-.505-.35-.715-.266-.91" fill="#f18d75"/><path d="M80.269 92.709c-.203-.261-1.018.655-1.252.858-.851.732-1.615 1.465-2.24 2.5l3.31-2.857c.268-.232.408-.211.182-.501" fill="#fcdbd5"/></g></g></svg>