<svg xmlns="http://www.w3.org/2000/svg" width="600" height="600" viewBox="0 0 158.75 158.75"><g fill-rule="evenodd"><path d="M95.867 23.304a4.04 4.04 0 0 1 .195-.266 5.166 5.166 0 0 1 1.322-1.16c1.232-.76 2.68-.973 4.031-.395 1.716.735 3.068 1.955 3.71 3.735 2.512 6.96-6.048 16.155-13.16 14.165-1.823-.51-3.138-1.768-3.997-3.426-.676-1.304-.57-2.765.098-4.05a5.172 5.172 0 0 1 1.059-1.403c.08-.073.164-.145.251-.214-.813-.693-1.713-1.29-2.522-1.987a4.962 4.962 0 0 1-.941-1.053l-.321-.495a48.079 48.079 0 0 0 6.47-6.966l.518.283c.415.228.787.529 1.12.863.755.756 1.416 1.61 2.167 2.369" fill="#826e34"/><path d="M89.378 23.784a44.514 44.514 0 0 0 2.715-3.23l.104-.137.15.082c.373.205.708.479 1.01.779.907.91 1.684 1.962 2.64 2.823a2.8 2.8 0 0 1 .445-.76 4.69 4.69 0 0 1 1.197-1.049c1.095-.675 2.38-.877 3.585-.361 5.836 2.498 4.085 9.445.687 13.272l.003.002-.003.004-.004.004c-.034.039-.07.076-.107.114-.035.04-.07.076-.105.115l-.002.002-.004.004-.001-.001c-3.567 3.67-10.367 5.926-13.287.288-.603-1.164-.495-2.46.097-3.601a4.7 4.7 0 0 1 .958-1.27c.201-.186.455-.38.725-.502-.929-.889-2.035-1.587-3.009-2.425a4.53 4.53 0 0 1-.851-.95l-.093-.143.129-.115a44.217 44.217 0 0 0 3.022-2.944" fill="#d0b462"/><path d="M101.145 22.114c1.286.55 2.408 1.826 3.028 3.204 1.399 3.112-.424 6.838-2.756 9.426h.002l-.003.003-.004.004c-.031.036-.065.07-.098.105l-.016.017-.098.106-.004.003-.002.003-.002-.001c-2.41 2.516-5.991 4.607-9.198 3.44-1.42-.517-2.775-1.542-3.418-2.784-1.237-2.389.839-4.996 1.976-5.192-.975-1.006-2.177-1.74-3.25-2.666a4.27 4.27 0 0 1-.814-.906 45.005 45.005 0 0 0 3.036-2.959 44.681 44.681 0 0 0 2.727-3.245c.316.174.638.419.964.745 1.002 1.003 1.823 2.147 2.897 3.047.112-1.15 2.56-3.41 5.033-2.352zm.272 12.63a4.114 4.114 0 0 1-.103.113" fill="#f2dd9e"/><path d="M91.899 21.131c.119-.152.237-.305.352-.457.317.174.638.418.964.744 1.002 1.004 1.823 2.148 2.897 3.048.02-.2.11-.434.258-.677l.008.017c.527-.87 1.674-1.66 2.54-1.416.732.205 1.318 1 1.394 1.609.167 1.318-.734 2.608-1.828 3.162v-.001l-6.587-6.028" fill="#d8bf7a"/><path d="M99.364 25.466c-.1.425-.575 1.22-.878 1.693a20.645 20.645 0 0 1-1.148-1.05c.244-.135.644-.54.797-.87.09-.2.113-.403.084-.59-.114-.717-.746-.743-.775.035-.709-.646.021-1.512.592-1.615.758-.137 1.756.567 1.328 2.397" fill="#705b27"/><path d="M97.536 26.302l-.198-.192c.244-.136.644-.54.797-.871.144-.315.153-.903-.199-1.096.557.21.652.538.557.902-.155.591-.452.97-.957 1.257" fill="#826e34"/><path d="M86.918 26.492l-.43.386c.196.302.464.605.813.906 1.074.925 2.276 1.66 3.252 2.666-.198.034-.424.14-.656.307l.017.007c-.828.589-1.532 1.791-1.226 2.637.259.715 1.095 1.24 1.707 1.273 1.328.069 2.546-.924 3.019-2.056l-6.495-6.126" fill="#d8bf7a"/><path d="M91.789 33.62c.416-.13 1.174-.664 1.625-1.001a20.89 20.89 0 0 0-1.132-1.067c-.118.252-.491.681-.81.858a1.03 1.03 0 0 1-.582.128c-.723-.061-.796-.69-.022-.776-.696-.66-1.506.133-1.567.709-.08.766.695 1.71 2.488 1.148" fill="#705b27"/><path d="M92.489 31.734c-.075-.066-.144-.13-.207-.183-.117.253-.491.682-.81.859-.303.167-.889.219-1.108-.118.25.54.586.61.94.49.58-.198.935-.522 1.185-1.048" fill="#826e34"/><path d="M100.332 22.025c3.745 1.514 4.04 4.064 3.895 5.93-.17 2.177-1.401 4.542-3.135 6.487l.003.003c-.036.04-.075.08-.113.12l-.112.121-.002-.002c-1.813 1.871-4.08 3.273-6.24 3.602-1.85.281-4.414.174-6.2-3.45 3.272 4.274 8.092 2.26 11.223-1.283l-.009-.008c.04-.038.079-.078.117-.116.037-.041.073-.083.108-.126l.008.008c3.304-3.382 4.958-8.338.456-11.287" fill="#fef7de"/><path d="M90.704 23.137l-.82.916-.855.886c2.279 1.853 4.232 3.848 5.616 6.518l1.288-1.331.01.01.22-.248.23-.238-.01-.01 1.234-1.381c-2.765-1.185-4.898-2.986-6.913-5.122" fill="#fef7de"/><path d="M129.539 52.435c.06.1.115.201.166.303a5.41 5.41 0 0 1 .512 1.769c.173 1.506-.269 2.975-1.417 3.999-1.46 1.3-3.217 2.04-5.19 1.859-7.716-.71-12.634-12.915-7.587-18.775 1.293-1.502 3.072-2.19 5.025-2.268 1.538-.062 2.876.689 3.797 1.892.372.484.676 1.045.86 1.628.035.108.065.22.092.333 1.018-.463 1.984-1.052 3.005-1.51a5.24 5.24 0 0 1 1.417-.424l.612-.084a50.353 50.353 0 0 0 3.731 9.232l-.498.365c-.4.292-.851.511-1.316.678-1.052.38-2.156.628-3.21 1.003" fill="#826e34"/><path d="M131.966 46.068a46.619 46.619 0 0 0 1.858 4.01l.083.159-.144.106a4.75 4.75 0 0 1-1.187.61c-1.267.458-2.61.727-3.851 1.25.22.22.395.504.523.761.246.494.4 1.054.463 1.601.154 1.338-.226 2.647-1.25 3.56-4.963 4.426-10.774-.322-12.893-5.245l-.003.002-.003-.005-.001-.006c-.022-.05-.041-.1-.061-.151-.022-.05-.04-.101-.062-.15l-.002-.004-.001-.005.001-.001c-1.895-5.013-1.014-12.465 5.63-12.73 1.372-.053 2.553.624 3.372 1.693.335.438.613.947.78 1.473.086.273.158.6.152.91 1.257-.485 2.41-1.224 3.638-1.776a4.745 4.745 0 0 1 1.279-.385l.177-.024.051.173a46.308 46.308 0 0 0 1.45 4.174" fill="#d0b462"/><path d="M128.322 57.97c-1.093.974-2.802 1.472-4.384 1.447-3.573-.056-6.297-3.44-7.715-6.802l-.001.002-.001-.004-.002-.005c-.02-.046-.038-.093-.057-.14l-.009-.023-.056-.14-.002-.005-.001-.003.002-.001c-1.316-3.403-1.707-7.73.824-10.252 1.12-1.117 2.695-1.946 4.159-2.004 2.815-.113 4.365 3.015 4.045 4.18 1.388-.478 2.618-1.291 3.974-1.898a4.5 4.5 0 0 1 1.22-.37c.4 1.362.887 2.77 1.457 4.195a46.794 46.794 0 0 0 1.866 4.028 4.52 4.52 0 0 1-1.134.583c-1.397.505-2.847.775-4.178 1.394 1.04.617 2.097 3.943-.005 5.818zm-12.099-5.354a4.309 4.309 0 0 1-.061-.148" fill="#f2dd9e"/><path d="M133.362 49.637c.092.18.184.36.278.537-.306.223-.681.42-1.135.584-1.397.504-2.847.775-4.177 1.393.18.108.362.297.527.546l-.02-.001c.59.887.83 2.326.214 3.039-.52.603-1.533.805-2.144.607-1.325-.428-2.147-1.855-2.187-3.138l8.644-3.569" fill="#d8bf7a"/><path d="M125.934 54.79c-.359-.282-.9-1.086-1.216-1.584a21.62 21.62 0 0 1 1.506-.623c.02.292.226.852.472 1.143.149.175.331.286.522.342.73.21 1.036-.378.31-.75.929-.386 1.425.691 1.27 1.278-.208.78-1.318 1.414-2.864.195" fill="#705b27"/><path d="M125.954 52.686l.27-.103c.02.292.226.851.472 1.143.234.276.788.547 1.128.299-.446.435-.8.378-1.103.127-.492-.41-.72-.86-.767-1.467" fill="#826e34"/><path d="M130.491 42.532l-.174-.58a4.47 4.47 0 0 0-1.221.37c-1.355.606-2.586 1.42-3.973 1.898.055-.202.055-.465 0-.759l-.015.013c-.19-1.047-1.017-2.248-1.956-2.334-.793-.072-1.663.488-1.965 1.054-.655 1.228-.255 2.825.608 3.776l8.696-3.438" fill="#d8bf7a"/><path d="M121.568 43.984c-.062.453.107 1.409.227 1.986a21.38 21.38 0 0 0 1.514-.6c-.187-.223-.428-.769-.454-1.15a1.08 1.08 0 0 1 .138-.608c.379-.659 1.008-.448.745.324.935-.367.544-1.487.024-1.801-.69-.416-1.93-.1-2.194 1.85" fill="#705b27"/><path d="M123.044 45.485c.096-.041.187-.078.265-.114-.187-.224-.428-.77-.454-1.15-.023-.362.188-.94.604-.998-.624-.003-.839.284-.882.674-.069.637.08 1.118.467 1.588" fill="#826e34"/><path d="M128.768 57.237c-3.1 2.88-5.65 2.026-7.356 1.06-1.989-1.128-3.683-3.347-4.758-5.855l-.004.001c-.023-.053-.043-.106-.064-.16a4.885 4.885 0 0 1-.065-.16l.004-.002c-.97-2.55-1.293-5.324-.645-7.517.556-1.88 1.796-4.265 6.027-4.348-5.507 1.204-5.739 6.67-3.77 11.214l.012-.005.058.163c.023.053.047.106.072.157l-.012.005c1.74 4.636 5.705 8.406 10.501 5.447" fill="#fef7de"/><path d="M131.991 47.613l-.505-1.186-.46-1.204c-2.77 1.338-5.53 2.304-8.677 2.43l.69 1.813-.013.006.137.318.123.324.013-.005.763 1.784c2.352-2.096 5.008-3.318 7.93-4.28" fill="#fef7de"/><path d="M50.448 75.215a4.362 4.362 0 0 1-.235.254 5.41 5.41 0 0 1-1.515 1.046c-1.373.642-2.906.69-4.242-.075-1.696-.972-2.955-2.404-3.41-4.333-1.772-7.542 8.242-16.077 15.4-13.149 1.835.75 3.052 2.218 3.745 4.046.547 1.44.26 2.946-.59 4.201a5.417 5.417 0 0 1-1.27 1.333c-.093.066-.19.13-.288.192.762.819 1.627 1.549 2.385 2.371.334.364.632.765.852 1.21l.274.553a50.353 50.353 0 0 0-7.573 6.467l-.503-.358a5.211 5.211 0 0 1-1.061-1.032c-.694-.877-1.28-1.845-1.97-2.726" fill="#826e34"/><path d="M57.256 75.498a46.619 46.619 0 0 0-3.213 3.034l-.125.13-.146-.104a4.75 4.75 0 0 1-.956-.932c-.835-1.056-1.517-2.245-2.407-3.256a2.933 2.933 0 0 1-.555.738 4.88 4.88 0 0 1-1.372.946c-1.22.57-2.581.626-3.773-.056-5.77-3.303-3.11-10.32.886-13.89l-.003-.004.005-.003.004-.004c.04-.036.082-.07.125-.105.04-.037.082-.07.123-.107l.002-.002.005-.004.001.002c4.153-3.388 11.5-4.916 13.858 1.302.486 1.284.218 2.62-.536 3.735a4.922 4.922 0 0 1-1.15 1.206c-.232.169-.52.34-.815.434.86 1.037 1.926 1.897 2.838 2.886.302.328.573.69.771 1.09l.08.161-.148.103a46.308 46.308 0 0 0-3.499 2.699" fill="#d0b462"/><path d="M44.813 75.817c-1.27-.728-2.285-2.19-2.763-3.699-1.08-3.407 1.265-7.063 4.004-9.473l-.002-.002.003-.001.004-.004c.038-.034.077-.066.115-.098l.02-.016.114-.098.005-.003.002-.002.001.001c2.81-2.327 6.79-4.07 9.985-2.47 1.414.71 2.7 1.94 3.22 3.31.998 2.633-1.476 5.096-2.683 5.162.894 1.164 2.056 2.073 3.061 3.166.328.355.57.702.737 1.04a47.134 47.134 0 0 0-3.515 2.712 46.794 46.794 0 0 0-3.229 3.047 4.52 4.52 0 0 1-.912-.89c-.922-1.166-1.639-2.455-2.648-3.52-.255 1.182-3.074 3.239-5.519 1.84zm1.24-13.172c.04-.036.081-.071.122-.105" fill="#f2dd9e"/><path d="M54.314 77.954c-.142.145-.283.29-.421.434a4.526 4.526 0 0 1-.914-.891c-.921-1.165-1.638-2.454-2.646-3.52-.045.206-.167.438-.35.673l-.006-.02c-.653.842-1.942 1.525-2.814 1.168-.737-.302-1.25-1.2-1.256-1.842-.014-1.392 1.079-2.624 2.283-3.069v.001l6.126 7.065" fill="#d8bf7a"/><path d="M47.07 72.544c.155-.43.746-1.199 1.118-1.656.313.327.795.888 1.068 1.23-.27.113-.736.485-.934.811a1.08 1.08 0 0 0-.16.603c.033.76.688.863.812.057.66.758-.205 1.57-.81 1.609-.806.05-1.759-.801-1.094-2.654" fill="#705b27"/><path d="M49.073 71.895c.067.08.129.157.183.224-.27.111-.735.484-.934.81-.188.31-.269.92.074 1.164-.554-.285-.612-.639-.47-1.005.233-.597.587-.955 1.148-1.193" fill="#826e34"/><path d="M60.142 72.978l.494-.35a4.494 4.494 0 0 0-.737-1.04c-1.006-1.093-2.167-2.002-3.061-3.166.21-.012.458-.095.72-.24l-.017-.01c.933-.513 1.81-1.678 1.593-2.596-.183-.775-.99-1.422-1.622-1.53-1.373-.231-2.76.655-3.389 1.775l6.019 7.157" fill="#d8bf7a"/><path d="M55.935 64.976c-.45.085-1.302.548-1.811.845.274.36.752.924 1.048 1.246.153-.249.594-.65.947-.795a1.08 1.08 0 0 1 .62-.063c.745.15.745.814-.07.81.644.77 1.582.044 1.715-.549.176-.787-.516-1.862-2.45-1.494" fill="#705b27"/><path d="M54.98 66.852c.069.078.133.153.192.215.153-.248.594-.65.947-.795.335-.137.95-.12 1.137.256-.195-.592-.535-.705-.919-.622-.625.136-1.035.43-1.358.946" fill="#826e34"/><path d="M45.649 76.008c-3.714-2.028-3.712-4.716-3.337-6.64.438-2.245 2.005-4.555 4.043-6.37l-.002-.003c.042-.039.087-.075.132-.112l.13-.113.003.004c2.112-1.729 4.64-2.914 6.925-2.995 1.959-.07 4.614.35 6.035 4.336-2.888-4.84-8.147-3.327-11.83-.019l.008.01-.136.107a3.474 3.474 0 0 0-.127.118l-.008-.01c-3.845 3.12-6.163 8.076-1.836 11.687" fill="#fef7de"/><path d="M55.799 76.012l.964-.855.996-.818c-2.148-2.203-3.938-4.514-5.057-7.459l-1.5 1.23-.01-.01-.258.23-.268.22.01.01-1.45 1.29c2.733 1.565 4.734 3.697 6.573 6.162" fill="#fef7de"/><path d="M38.09 41.1a4.362 4.362 0 0 1-.329-.103 5.41 5.41 0 0 1-1.592-.926c-1.166-.969-1.861-2.336-1.739-3.87.157-1.948.916-3.697 2.468-4.93 6.07-4.817 18.056.609 18.456 8.332.103 1.98-.707 3.706-2.065 5.112-1.07 1.107-2.556 1.489-4.053 1.256a5.417 5.417 0 0 1-1.747-.583 5.089 5.089 0 0 1-.296-.178c-.416 1.038-.708 2.132-1.13 3.168a5.197 5.197 0 0 1-.731 1.286l-.384.483a50.353 50.353 0 0 0-9.076-4.096l.109-.608c.087-.489.261-.958.482-1.4.498-1.002 1.124-1.944 1.627-2.942" fill="#826e34"/><path d="M40.734 47.381a46.619 46.619 0 0 0-4.113-1.615l-.17-.058.031-.176a4.75 4.75 0 0 1 .436-1.262c.6-1.205 1.385-2.328 1.92-3.564a2.933 2.933 0 0 1-.903-.189 4.912 4.912 0 0 1-1.44-.837c-1.037-.862-1.666-2.07-1.557-3.438.53-6.628 8.011-7.21 12.945-5.115l.001-.004.006.002.004.003c.05.02.1.045.15.068.05.021.098.045.148.066l.003.001.005.003v.002c4.833 2.314 9.345 8.31 4.724 13.092-.955.987-2.277 1.313-3.608 1.106a4.922 4.922 0 0 1-1.58-.526 2.958 2.958 0 0 1-.74-.553c-.573 1.219-.896 2.55-1.403 3.797a4.745 4.745 0 0 1-.658 1.162l-.112.14-.156-.09a46.308 46.308 0 0 0-3.931-2.016" fill="#d0b462"/><path d="M35.146 36.259c.117-1.46 1.009-3 2.17-4.075 2.622-2.428 6.929-1.864 10.276-.413v-.002l.004.002.005.002.137.062.023.01.137.063.005.003h.003v.003c3.301 1.551 6.573 4.408 6.486 7.981-.038 1.581-.604 3.27-1.622 4.322-1.957 2.026-5.239.837-5.813-.227-.673 1.304-1 2.742-1.56 4.117a4.473 4.473 0 0 1-.628 1.11 47.134 47.134 0 0 0-3.951-2.025 46.794 46.794 0 0 0-4.132-1.623 4.52 4.52 0 0 1 .417-1.205c.662-1.33 1.523-2.528 2.057-3.894-1.178.272-4.24-1.402-4.015-4.21zm12.446-4.488c.05.02.099.042.147.064" fill="#f2dd9e"/><path d="M37.26 45.765a41.421 41.421 0 0 0-.573-.196c.068-.373.203-.774.418-1.206.661-1.33 1.522-2.527 2.057-3.894-.205.048-.467.036-.758-.03l.015-.013c-1.04-.233-2.207-1.108-2.255-2.049-.04-.795.553-1.642 1.132-1.92 1.253-.607 2.833-.143 3.748.757l-3.783 8.552" fill="#d8bf7a"/><path d="M39.069 36.907c.455-.043 1.402.164 1.974.306a21.62 21.62 0 0 1-.659 1.49c-.216-.197-.751-.459-1.13-.5a1.08 1.08 0 0 0-.614.114c-.674.352-.488.989.294.757-.405.92-1.508.484-1.801-.048-.39-.707-.024-1.932 1.936-2.119" fill="#705b27"/><path d="M40.509 38.443c-.044.094-.087.183-.125.26-.216-.196-.751-.459-1.13-.5-.36-.037-.948.15-1.022.563.022-.622.317-.826.71-.853.638-.044 1.113.124 1.567.53" fill="#826e34"/><path d="M44.244 48.919l.526.298c.235-.296.446-.663.628-1.11.56-1.376.888-2.814 1.56-4.118.1.185.282.374.525.548l.001-.019c.861.626 2.29.923 3.027.336.623-.496.865-1.5.693-2.12-.375-1.34-1.768-2.218-3.049-2.31v.001l-3.912 8.493" fill="#d8bf7a"/><path d="M49.692 41.703c-.269-.37-1.051-.944-1.536-1.278a21.772 21.772 0 0 0-.681 1.48c.29.032.84.26 1.122.517.169.155.273.341.321.535.182.738-.42 1.02-.762.28-.423.912.634 1.451 1.227 1.32.787-.177 1.465-1.261.309-2.854" fill="#705b27"/><path d="M47.587 41.638l-.113.266c.29.033.841.26 1.123.518.267.245.514.81.253 1.139.453-.43.41-.786.172-1.097-.39-.508-.83-.754-1.435-.826" fill="#826e34"/><path d="M35.33 37.096c.252-4.223 2.684-5.367 4.586-5.847 2.217-.56 4.975-.126 7.485.945l.002-.004c.053.023.104.048.157.073.053.022.105.045.158.07l-.002.003c2.463 1.175 4.612 2.956 5.659 4.99.897 1.743 1.648 4.324-1.353 7.307 3.15-4.675-.46-8.787-5.022-10.711l-.005.011-.155-.078a3.474 3.474 0 0 0-.16-.064l.005-.011c-4.46-2.15-9.932-2.137-11.356 3.317" fill="#fef7de"/><path d="M39.649 46.281l1.184.508 1.165.553c1.077-2.881 2.406-5.486 4.594-7.752l-1.752-.833.006-.013-.319-.136-.313-.149-.006.013-1.784-.763c-.252 3.14-1.328 5.859-2.775 8.572" fill="#fef7de"/><path d="M76.54 94.821a4.598 4.598 0 0 1-.26-.254 5.702 5.702 0 0 1-1.06-1.626c-.638-1.465-.644-3.082.199-4.467 1.071-1.76 2.616-3.047 4.661-3.47 7.998-1.656 16.708 9.136 13.42 16.596-.841 1.913-2.423 3.153-4.368 3.832-1.532.535-3.111.19-4.41-.74a5.71 5.71 0 0 1-1.368-1.377 5.364 5.364 0 0 1-.194-.308c-.885.78-1.678 1.67-2.567 2.446a5.478 5.478 0 0 1-1.298.864l-.59.273a53.075 53.075 0 0 0-6.6-8.161l.39-.521c.314-.418.7-.777 1.117-1.089.944-.706 1.98-1.296 2.928-1.998" fill="#826e34"/><path d="M76.05 101.987a49.14 49.14 0 0 0-3.106-3.471l-.132-.135.112-.151a5 5 0 0 1 1.01-.982c1.136-.85 2.407-1.534 3.498-2.443a3.091 3.091 0 0 1-.762-.607 5.167 5.167 0 0 1-.958-1.471c-.567-1.302-.587-2.738.166-3.974 3.642-5.988 10.96-2.987 14.61 1.325l.004-.003.004.005.003.004c.037.044.072.09.108.135.037.044.072.089.109.132l.002.003.004.005-.002.001c3.452 4.472 4.855 12.256-1.763 14.565-1.367.476-2.766.156-3.92-.67a5.188 5.188 0 0 1-1.239-1.245 3.118 3.118 0 0 1-.434-.871c-1.117.876-2.053 1.975-3.121 2.909a5.002 5.002 0 0 1-1.17.781l-.172.08-.105-.16a48.811 48.811 0 0 0-2.745-3.762" fill="#d0b462"/><path d="M76.065 88.867c.803-1.318 2.373-2.345 3.975-2.807 3.62-1.042 7.407 1.533 9.87 4.486v-.002l.003.004.004.004c.034.04.067.083.1.124l.016.02.1.124.003.005.002.003h-.001c2.372 3.028 4.097 7.27 2.32 10.59-.786 1.471-2.119 2.792-3.577 3.3-2.803.979-5.328-1.698-5.364-2.971-1.252.908-2.243 2.107-3.422 3.135a4.74 4.74 0 0 1-1.118.748 49.682 49.682 0 0 0-2.758-3.781 49.324 49.324 0 0 0-3.12-3.488c.24-.318.558-.632.965-.936 1.254-.939 2.632-1.657 3.783-2.69-1.238-.302-3.326-3.331-1.783-5.868zm13.844 1.679l.108.13" fill="#f2dd9e"/><path d="M73.545 98.818a43.66 43.66 0 0 0-.445-.456 4.77 4.77 0 0 1 .965-.937c1.253-.939 2.632-1.657 3.783-2.69-.215-.052-.456-.188-.699-.388l.02-.005c-.868-.712-1.551-2.09-1.15-2.998.338-.768 1.299-1.283 1.976-1.271 1.467.024 2.735 1.21 3.17 2.491h-.002.001l-7.618 6.256" fill="#d8bf7a"/><path d="M79.45 91.338c.449.175 1.242.82 1.713 1.225-.353.32-.957.812-1.327 1.09-.11-.288-.49-.789-.827-1.007a1.14 1.14 0 0 0-.631-.185c-.801.013-.929.7-.083.853-.817.674-1.649-.26-1.672-.9-.031-.85.894-1.83 2.827-1.076" fill="#705b27"/><path d="M80.077 93.467c-.086.068-.168.13-.24.186-.11-.288-.49-.789-.828-1.007-.321-.206-.962-.31-1.229.045.316-.575.691-.627 1.073-.467.622.262.99.646 1.225 1.243" fill="#826e34"/><path d="M78.624 105.099l.354.53a4.737 4.737 0 0 0 1.118-.747c1.18-1.028 2.17-2.227 3.422-3.136.006.222.087.486.233.765l.01-.017c.514.997 1.718 1.954 2.69 1.752.822-.171 1.527-1.003 1.658-1.667.283-1.44-.612-2.927-1.774-3.62l-7.711 6.14" fill="#d8bf7a"/><path d="M87.175 100.891c-.077-.475-.542-1.387-.84-1.932a22.95 22.95 0 0 0-1.343 1.07c.258.168.669.644.812 1.02.085.226.094.45.048.656-.18.78-.879.76-.85-.098-.831.658-.092 1.667.529 1.824.824.207 1.976-.492 1.644-2.54" fill="#705b27"/><path d="M85.224 99.832c-.084.071-.164.137-.232.197.258.168.669.644.812 1.02.134.357.1 1.005-.302 1.192.63-.19.758-.545.681-.952-.125-.663-.423-1.103-.959-1.457" fill="#826e34"/><path d="M75.84 89.743c2.242-3.856 5.074-3.78 7.091-3.33 2.353.526 4.743 2.242 6.598 4.44l.003-.002c.04.046.076.094.114.143l.115.14-.003.003c1.761 2.274 2.94 4.97 2.96 7.381.018 2.066-.5 4.852-4.739 6.236 5.182-2.906 3.735-8.49.353-12.464l-.01.008-.109-.146a3.662 3.662 0 0 0-.12-.137l.01-.008c-3.179-4.14-8.336-6.722-12.263-2.264" fill="#fef7de"/><path d="M75.55 100.437l.873 1.04.835 1.073c2.38-2.2 4.867-4.023 8.001-5.118l-1.254-1.616.012-.009-.236-.279-.224-.288-.011.009-1.318-1.565c-1.726 2.837-4.029 4.886-6.678 6.753" fill="#fef7de"/><path d="M96.938 64.43c.108-.053.218-.101.327-.144a5.601 5.601 0 0 1 1.87-.37c1.57-.044 3.045.543 3.999 1.82 1.21 1.62 1.816 3.5 1.453 5.52-1.424 7.894-14.452 11.874-20.044 6.144-1.434-1.469-1.985-3.364-1.89-5.386.073-1.592.967-2.905 2.29-3.748a5.608 5.608 0 0 1 1.757-.742c.114-.025.233-.046.352-.064-.386-1.091-.907-2.14-1.288-3.234a5.38 5.38 0 0 1-.31-1.5l-.033-.639a52.132 52.132 0 0 0 9.856-3.022l.332.547c.266.44.451.923.582 1.417.298 1.12.455 2.28.747 3.4" fill="#826e34"/><path d="M90.588 61.356a48.266 48.266 0 0 0 4.302-1.557l.172-.072.096.158c.24.396.405.835.524 1.28.358 1.347.516 2.756.945 4.083.245-.207.554-.363.831-.471a5.086 5.086 0 0 1 1.693-.334c1.394-.04 2.71.469 3.56 1.608 4.12 5.514-1.297 11.083-6.564 12.828l.001.004-.005.002-.006.002c-.053.018-.107.032-.162.049-.054.018-.107.032-.16.05l-.004.001-.006.002v-.002c-5.34 1.506-12.948-.07-12.626-6.947.067-1.42.872-2.577 2.048-3.326a5.096 5.096 0 0 1 1.588-.673c.29-.064.634-.109.953-.075-.388-1.34-1.047-2.596-1.506-3.911a4.913 4.913 0 0 1-.283-1.354l-.01-.185.184-.037a47.944 47.944 0 0 0 4.434-1.122" fill="#d0b462"/><path d="M102.538 66.18c.907 1.214 1.267 3.022 1.1 4.651-.377 3.681-4.111 6.188-7.706 7.35l.001.001h-.003l-.006.002c-.05.017-.1.031-.149.046l-.024.007-.15.046h-.005l-.004.002v-.002c-3.628 1.052-8.126 1.07-10.501-1.768-1.052-1.255-1.766-2.954-1.695-4.469.136-2.913 3.5-4.233 4.674-3.798-.37-1.474-1.098-2.816-1.603-4.269a4.63 4.63 0 0 1-.271-1.292 48.8 48.8 0 0 0 4.456-1.127 48.448 48.448 0 0 0 4.322-1.564c.202.335.372.74.5 1.222.395 1.486.545 3.006 1.064 4.434.73-1.018 4.255-1.81 6 .526zm-6.605 12a4.461 4.461 0 0 1-.159.05" fill="#f2dd9e"/><path d="M94.394 60.236c.195-.08.388-.158.58-.239.202.336.37.74.5 1.223.395 1.486.544 3.006 1.063 4.433.127-.177.338-.347.61-.494l-.003.02c.968-.53 2.473-.648 3.154.05.575.59.693 1.655.434 2.267-.56 1.328-2.106 2.049-3.433 1.975v-.001l-2.907-9.234" fill="#d8bf7a"/><path d="M99.045 68.359c-.324.344-1.202.83-1.744 1.112-.162-.44-.389-1.17-.507-1.61.303.006.899-.156 1.221-.384.194-.137.325-.316.4-.507.283-.735-.297-1.103-.747-.388-.314-.992.841-1.408 1.433-1.195.786.284 1.34 1.486-.056 2.972" fill="#705b27"/><path d="M96.876 68.15l-.082-.288c.303.005.898-.157 1.22-.385.307-.217.636-.763.41-1.136.409.499.319.86.033 1.149-.467.47-.951.665-1.582.66" fill="#826e34"/><path d="M86.809 62.56l-.614.129c.02.39.107.82.271 1.292.505 1.452 1.234 2.795 1.604 4.268-.205-.075-.475-.098-.783-.068l.012.016c-1.097.103-2.41.849-2.583 1.81-.145.81.354 1.758.911 2.12 1.208.786 2.892.516 3.95-.288l-2.768-9.278" fill="#d8bf7a"/><path d="M87.508 71.895c.461.104 1.462.015 2.068-.056a22.542 22.542 0 0 0-.482-1.616c-.248.173-.832.373-1.227.365a1.118 1.118 0 0 1-.615-.196c-.646-.45-.372-1.08.4-.74-.294-.998-1.485-.694-1.855-.186-.491.675-.277 1.982 1.71 2.43" fill="#705b27"/><path d="M89.188 70.506c-.034-.102-.064-.2-.094-.283-.248.173-.832.373-1.227.365-.375-.008-.953-.277-.975-.712-.059.643.218.89.617.97.65.128 1.16.018 1.68-.34" fill="#826e34"/><path d="M101.823 65.654c2.692 3.456 1.583 6.009.433 7.682-1.34 1.951-3.78 3.5-6.464 4.385v.004a4.756 4.756 0 0 1-.17.05 5.057 5.057 0 0 1-.171.054l-.001-.004c-2.718.772-5.607.857-7.812-.008-1.89-.741-4.238-2.234-3.945-6.605.749 5.787 6.367 6.516 11.229 4.891l-.004-.012.173-.045c.057-.019.114-.039.17-.06l.003.012c4.937-1.379 9.181-5.131 6.559-10.344" fill="#fef7de"/><path d="M92.184 61.469l-1.268.414-1.284.367c1.133 2.977 1.882 5.91 1.73 9.168l1.932-.55.005.014.34-.113.345-.098-.004-.014 1.909-.627c-1.952-2.613-2.975-5.463-3.705-8.562" fill="#fef7de"/><g><path d="M55.112 122.964a5.15 5.15 0 0 1-.325.204 6.01 6.01 0 0 1-1.93.68c-1.66.288-3.317-.108-4.525-1.317-1.536-1.536-2.468-3.438-2.393-5.639.298-8.603 13.522-14.834 20.342-9.608 1.748 1.34 2.625 3.268 2.836 5.43.166 1.701-.581 3.233-1.857 4.331a6.018 6.018 0 0 1-1.751 1.058c-.118.045-.24.085-.364.122.578 1.1 1.293 2.135 1.865 3.238.253.487.455 1.004.56 1.545l.133.673a55.94 55.94 0 0 0-10.002 4.725l-.436-.53a5.79 5.79 0 0 1-.837-1.415c-.488-1.143-.834-2.352-1.316-3.497" fill="#826e34"/><path d="M62.329 125.252a51.793 51.793 0 0 0-4.33 2.316l-.171.102-.127-.153a5.278 5.278 0 0 1-.753-1.278c-.588-1.376-.972-2.848-1.631-4.192-.229.258-.534.47-.81.629a5.457 5.457 0 0 1-1.747.615c-1.474.256-2.95-.082-4.028-1.16-5.224-5.223-.328-11.97 4.998-14.634l-.002-.004.006-.002.005-.003c.054-.027.11-.051.165-.077.054-.027.109-.051.163-.078l.003-.002.006-.002.001.002c5.44-2.421 13.761-1.918 14.476 5.435.148 1.518-.529 2.872-1.663 3.848a5.468 5.468 0 0 1-1.583.958 3.286 3.286 0 0 1-1 .227c.618 1.362 1.51 2.596 2.2 3.922.228.439.413.907.51 1.394l.037.195-.188.068a51.447 51.447 0 0 0-4.537 1.873" fill="#d0b462"/><path d="M48.896 121.967c-1.15-1.15-1.811-3.014-1.884-4.77-.165-3.968 3.415-7.204 7.053-8.99l-.001-.002h.004l.005-.004c.05-.025.101-.048.152-.071l.025-.012.151-.071.006-.002.004-.002v.002c3.691-1.675 8.465-2.385 11.424.263 1.31 1.172 2.33 2.865 2.487 4.485.304 3.115-3.066 5.034-4.38 4.753.62 1.508 1.6 2.822 2.359 4.286.248.477.406.919.487 1.331a52.365 52.365 0 0 0-4.56 1.882 51.988 51.988 0 0 0-4.348 2.326 5.02 5.02 0 0 1-.72-1.221c-.648-1.518-1.04-3.108-1.811-4.545-.618 1.193-4.24 2.576-6.454.364zm5.17-13.76c.052-.027.106-.053.16-.077" fill="#f2dd9e"/><path d="M58.459 127.027c-.195.114-.388.228-.579.342a5.028 5.028 0 0 1-.719-1.22c-.648-1.518-1.04-3.11-1.811-4.546-.108.208-.306.421-.572.62v-.022c-.946.711-2.527 1.068-3.357.43-.702-.537-.99-1.65-.81-2.34.39-1.496 1.921-2.499 3.342-2.625v.001l4.507 9.36" fill="#d8bf7a"/><path d="M52.27 119.116c.29-.416 1.148-1.068 1.68-1.449.24.441.594 1.183.787 1.63-.323.041-.93.305-1.238.597a1.2 1.2 0 0 0-.346.6c-.187.824.485 1.125.853.297.486 1.005-.677 1.624-1.338 1.489-.879-.18-1.652-1.371-.398-3.164" fill="#705b27"/><path d="M54.606 119.004c.048.105.092.206.13.293-.321.041-.929.305-1.236.597-.292.277-.557.908-.26 1.27-.511-.468-.471-.864-.212-1.216.424-.571.908-.852 1.578-.944" fill="#826e34"/><path d="M66.157 123.392l.631-.231a4.993 4.993 0 0 0-.486-1.33c-.76-1.465-1.74-2.779-2.36-4.287.229.049.52.032.842-.048l-.015-.015c1.15-.278 2.43-1.272 2.465-2.318.03-.885-.647-1.813-1.294-2.113-1.404-.649-3.15-.103-4.15.914l4.366 9.428" fill="#d8bf7a"/><path d="M63.979 113.586c-.507-.04-1.556.209-2.188.378.19.465.537 1.21.76 1.642.237-.222.826-.524 1.247-.577a1.2 1.2 0 0 1 .684.114c.754.378.56 1.09-.313.847.467 1.015 1.685.509 2-.087.418-.793-.01-2.147-2.19-2.317" fill="#705b27"/><path d="M62.407 115.32c.052.103.1.202.144.286.237-.222.826-.524 1.247-.576.4-.05 1.055.147 1.145.606-.036-.692-.368-.913-.804-.935-.71-.037-1.235.159-1.732.618" fill="#826e34"/><path d="M49.736 122.415c-3.39-3.256-2.605-6.137-1.642-8.091 1.124-2.278 3.478-4.299 6.192-5.65l-.002-.005a4.61 4.61 0 0 1 .174-.08c.057-.029.114-.057.173-.083l.001.004c2.768-1.238 5.823-1.772 8.297-1.192 2.12.496 4.845 1.72 5.206 6.407-1.685-6.03-7.763-5.94-12.677-3.468l.006.013c-.06.024-.119.05-.177.074a3.86 3.86 0 0 0-.17.09l-.006-.012c-5.031 2.223-8.962 6.861-5.375 11.993" fill="#fef7de"/><path d="M60.616 125.378l1.283-.635 1.306-.587c-1.66-2.987-2.906-5.987-3.247-9.47l-1.967.881-.006-.014-.345.172-.351.157.006.014-1.93.96c2.474 2.475 3.999 5.343 5.251 8.522" fill="#fef7de"/></g><g><path d="M99.683 130.849c-.047.105-.1.21-.154.309a5.41 5.41 0 0 1-1.16 1.43c-1.137 1.002-2.595 1.478-4.092 1.12-1.9-.455-3.512-1.475-4.49-3.2-3.822-6.739 3.389-17.745 11.082-16.947 1.971.204 3.552 1.27 4.731 2.83.929 1.227 1.077 2.754.615 4.197a5.417 5.417 0 0 1-.845 1.636c-.07.09-.144.179-.221.265.96.572 1.996 1.029 2.954 1.606a5.18 5.18 0 0 1 1.158.92l.419.455a50.353 50.353 0 0 0-5.449 8.334l-.584-.2a5.211 5.211 0 0 1-1.308-.693c-.913-.647-1.747-1.411-2.656-2.062" fill="#826e34"/><path d="M106.296 129.206a46.619 46.619 0 0 0-2.23 3.814l-.084.16-.17-.058a4.75 4.75 0 0 1-1.179-.626c-1.098-.779-2.086-1.727-3.225-2.448a2.933 2.933 0 0 1-.325.864c-.266.484-.638.93-1.05 1.294-1.011.89-2.302 1.326-3.637 1.007-6.467-1.547-5.887-9.028-3.055-13.58l-.004-.001.003-.005.003-.005c.029-.046.06-.09.09-.136.029-.047.06-.09.088-.137l.002-.003.004-.004h.001c3.033-4.418 9.654-7.95 13.665-2.646.828 1.096.946 2.452.536 3.735a4.922 4.922 0 0 1-.764 1.48 2.958 2.958 0 0 1-.66.646c1.116.754 2.381 1.28 3.535 1.972.381.23.743.502 1.046.83l.121.132-.113.14a46.308 46.308 0 0 0-2.598 3.573" fill="#d0b462"/><path d="M94.445 133.01c-1.424-.34-2.809-1.46-3.692-2.773-1.994-2.965-.771-7.134 1.179-10.217h-.002l.002-.003.003-.005c.027-.043.055-.084.083-.126l.014-.02.082-.127.004-.004.002-.003.001.001c2.043-3.023 5.37-5.815 8.887-5.177 1.557.282 3.137 1.101 4.02 2.27 1.7 2.247.018 5.305-1.122 5.708 1.185.866 2.556 1.412 3.828 2.178.414.248.744.513 1 .791a47.134 47.134 0 0 0-2.612 3.591 46.794 46.794 0 0 0-2.24 3.832 4.52 4.52 0 0 1-1.128-.598c-1.211-.86-2.262-1.895-3.53-2.634.088 1.207-2.04 3.973-4.779 3.318zm-2.513-12.99l.086-.134" fill="#f2dd9e"/><path d="M104.164 132.39c-.097.178-.191.357-.283.534a4.526 4.526 0 0 1-1.127-.598c-1.212-.859-2.262-1.894-3.53-2.634.016.21-.036.467-.147.745l-.01-.017c-.39.99-1.435 2.01-2.372 1.911-.792-.082-1.537-.8-1.723-1.414-.406-1.332.297-2.822 1.327-3.587l7.865 5.059" fill="#d8bf7a"/><path d="M95.69 129.234c.028-.456.38-1.36.608-1.903a21.62 21.62 0 0 1 1.37.881c-.227.183-.57.672-.668 1.04a1.08 1.08 0 0 0 .017.624c.244.72.902.635.794-.174.846.542.246 1.565-.325 1.772-.759.275-1.913-.274-1.795-2.24" fill="#705b27"/><path d="M97.43 128.049c.087.058.168.114.239.163-.228.183-.57.671-.669 1.04-.093.35.001.96.399 1.096-.612-.118-.768-.44-.734-.832.055-.638.295-1.082.766-1.468" fill="#826e34"/><path d="M108.357 125.976l.376-.474a4.494 4.494 0 0 0-1-.792c-1.272-.766-2.642-1.312-3.828-2.177.199-.07.413-.22.624-.434l-.02-.004c.752-.754 1.266-2.12.8-2.939-.394-.692-1.35-1.086-1.987-1.011-1.383.163-2.465 1.404-2.753 2.655l7.788 5.176" fill="#d8bf7a"/><path d="M102.07 119.48c-.407.207-1.096.892-1.5 1.32.363.267.981.675 1.356.9.077-.28.387-.79.685-1.029.18-.142.379-.216.578-.234.757-.065.943.572.159.797.836.558 1.532-.403 1.493-1.009-.053-.805-1.02-1.642-2.772-.746" fill="#705b27"/><path d="M101.68 121.549c.089.055.171.108.246.152.076-.282.387-.79.685-1.03.283-.225.878-.383 1.163-.074-.353-.513-.712-.526-1.057-.338-.562.306-.872.703-1.037 1.29" fill="#826e34"/><path d="M95.3 132.958c-4.133-.902-4.888-3.481-5.069-5.434-.21-2.277.644-4.935 2.09-7.25l-.004-.002c.03-.049.063-.096.096-.144.03-.048.061-.097.093-.145l.004.002c1.54-2.252 3.632-4.1 5.803-4.82 1.86-.618 4.527-.961 7.01 2.464-4.132-3.833-8.752-.902-11.358 3.308l.01.007-.1.14c-.03.05-.06.1-.088.15l-.01-.007c-2.813 4.075-3.644 9.483 1.524 11.731" fill="#fef7de"/><path d="M105.042 130.108l.685-1.091.726-1.065c-2.68-1.51-5.049-3.225-6.95-5.736l-1.094 1.602-.012-.008-.183.294-.195.286.011.008-1.03 1.645c3.065.734 5.585 2.217 8.042 4.065" fill="#fef7de"/></g><g><path d="M123.51 92.061a4.362 4.362 0 0 1-.223-.263 5.41 5.41 0 0 1-.86-1.629c-.473-1.44-.337-2.968.58-4.202 1.167-1.57 2.739-2.649 4.708-2.87 7.7-.863 14.983 10.095 11.224 16.854-.963 1.733-2.566 2.766-4.463 3.237-1.494.371-2.956-.093-4.101-1.085a5.417 5.417 0 0 1-1.172-1.42 5.089 5.089 0 0 1-.157-.309c-.903.66-1.73 1.431-2.638 2.085-.4.29-.835.538-1.302.703l-.582.206a50.353 50.353 0 0 0-5.52-8.288l.415-.458c.333-.367.73-.672 1.15-.93.954-.585 1.985-1.051 2.941-1.63" fill="#826e34"/><path d="M122.42 98.788a46.619 46.619 0 0 0-2.63-3.552l-.114-.14.12-.132c.3-.33.66-.605 1.04-.838 1.147-.704 2.408-1.24 3.518-2.002a2.943 2.943 0 0 1-.666-.64 4.912 4.912 0 0 1-.777-1.474c-.42-1.28-.314-2.638.505-3.74 3.966-5.336 10.616-1.86 13.687 2.532l.003-.002.003.005.003.004c.031.045.06.09.09.137.032.044.06.09.091.134l.002.004.003.004-.001.001c2.869 4.527 3.512 12.003-2.942 13.605-1.333.33-2.626-.095-3.645-.977a4.922 4.922 0 0 1-1.06-1.284 2.958 2.958 0 0 1-.334-.862c-1.132.73-2.113 1.687-3.203 2.475a4.79 4.79 0 0 1-1.175.636l-.169.06-.085-.16a46.308 46.308 0 0 0-2.263-3.794" fill="#d0b462"/><path d="M123.584 86.395c.873-1.175 2.446-2.008 4-2.303 3.512-.667 6.863 2.096 8.93 5.102l.002-.002.002.004.003.004c.03.041.056.084.083.126l.014.02.083.126.003.005.002.003-.002.001c1.976 3.067 3.234 7.225 1.265 10.207-.872 1.32-2.247 2.45-3.668 2.803-2.735.68-4.885-2.07-4.807-3.277-1.262.75-2.303 1.794-3.508 2.663a4.473 4.473 0 0 1-1.121.608 47.134 47.134 0 0 0-2.274-3.813 46.794 46.794 0 0 0-2.642-3.568 4.52 4.52 0 0 1 .994-.8c1.266-.777 2.631-1.335 3.809-2.21-1.143-.394-2.85-3.438-1.17-5.7zm12.93 2.799c.031.043.062.088.09.132" fill="#f2dd9e"/><path d="M120.331 95.575a41.421 41.421 0 0 0-.38-.47 4.48 4.48 0 0 1 .993-.801c1.267-.777 2.632-1.335 3.81-2.21-.2-.068-.415-.217-.627-.427l.02-.004c-.758-.748-1.283-2.11-.824-2.932.387-.696 1.34-1.099 1.978-1.028 1.384.151 2.477 1.383 2.775 2.631l-7.744 5.242" fill="#d8bf7a"/><path d="M126.565 89.026c.408.204 1.101.883 1.51 1.307a21.62 21.62 0 0 1-1.348.913c-.079-.282-.394-.788-.693-1.023a1.08 1.08 0 0 0-.58-.23c-.759-.059-.94.58-.153.798-.831.565-1.535-.39-1.501-.996.045-.806 1.004-1.65 2.765-.77" fill="#705b27"/><path d="M126.97 91.092c-.086.056-.17.109-.243.154-.079-.281-.393-.788-.693-1.023-.286-.224-.882-.377-1.165-.065.349-.516.707-.533 1.054-.348.565.303.878.697 1.048 1.282" fill="#826e34"/><path d="M124.579 101.953l.288.532c.356-.126.73-.325 1.121-.608 1.204-.869 2.246-1.914 3.507-2.663-.013.21.04.467.154.743l.011-.015c.398.987 1.451 1.997 2.388 1.89.791-.089 1.53-.813 1.711-1.429.394-1.335-.32-2.818-1.358-3.575l-7.822 5.124" fill="#d8bf7a"/><path d="M133.025 98.727c-.031-.456-.39-1.358-.624-1.898-.39.23-1.007.637-1.362.892.229.182.575.667.677 1.035.06.22.05.434-.012.624-.238.721-.897.642-.795-.168-.842.55-.232 1.567.34 1.77.76.268 1.91-.292 1.776-2.255" fill="#705b27"/><path d="M131.275 97.555c-.085.06-.167.115-.236.166.228.181.575.667.677 1.035.096.35.006.958-.39 1.099.612-.123.764-.448.727-.839-.06-.637-.303-1.079-.778-1.46" fill="#826e34"/><path d="M123.295 87.202c2.455-3.446 5.123-3.125 6.99-2.523 2.176.702 4.284 2.533 5.843 4.772l.004-.002c.033.047.063.096.095.145.032.046.065.094.096.143l-.003.002c1.464 2.302 2.34 4.953 2.15 7.232-.165 1.953-.898 4.54-5.024 5.476 5.15-2.292 4.272-7.693 1.426-11.744l-.01.007-.09-.148a3.474 3.474 0 0 0-.103-.14l.01-.006c-2.64-4.19-7.285-7.08-11.384-3.214" fill="#fef7de"/><path d="M122.083 97.28l.734 1.058.694 1.087c2.442-1.87 4.95-3.374 8.007-4.134l-1.043-1.636.012-.007-.198-.284-.186-.293-.012.008-1.107-1.593c-1.88 2.528-4.235 4.261-6.9 5.794" fill="#fef7de"/></g><g><path d="M20.846 72.818a4.362 4.362 0 0 1-.199-.282 5.41 5.41 0 0 1-.71-1.7c-.344-1.476-.072-2.986.952-4.134 1.302-1.458 2.964-2.393 4.945-2.438 7.746-.172 14.022 11.392 9.675 17.789-1.114 1.64-2.802 2.526-4.734 2.826-1.521.236-2.936-.357-3.988-1.447a5.417 5.417 0 0 1-1.04-1.52 5.089 5.089 0 0 1-.129-.32c-.959.575-1.852 1.27-2.814 1.841a5.23 5.23 0 0 1-1.36.583l-.598.154a50.353 50.353 0 0 0-4.758-8.748l.454-.419a5.211 5.211 0 0 1 1.23-.824c1.002-.497 2.07-.87 3.074-1.362" fill="#826e34"/><path d="M19.16 79.42a46.619 46.619 0 0 0-2.303-3.772l-.1-.15.131-.12a4.75 4.75 0 0 1 1.11-.743c1.206-.598 2.51-1.019 3.683-1.68a2.933 2.933 0 0 1-.606-.696 4.912 4.912 0 0 1-.642-1.538c-.305-1.312-.078-2.655.837-3.68 4.426-4.961 10.74-.906 13.405 3.744l.004-.002.002.005.003.005c.027.047.052.095.077.143.028.048.052.096.08.143v.003l.003.005-.001.001c2.453 4.765 2.427 12.269-4.145 13.287-1.356.21-2.607-.328-3.542-1.297a4.922 4.922 0 0 1-.942-1.375 2.958 2.958 0 0 1-.256-.887c-1.192.626-2.255 1.491-3.411 2.179a4.745 4.745 0 0 1-1.227.528l-.173.044-.07-.166a46.308 46.308 0 0 0-1.916-3.981" fill="#d0b462"/><path d="M21.425 67.18c.975-1.092 2.616-1.78 4.19-1.936 3.557-.351 6.649 2.7 8.44 5.878h.001l.001.003.003.004c.026.044.048.089.072.133l.012.022.072.132.002.005.002.003-.002.001c1.694 3.231 2.576 7.485.348 10.28-.986 1.236-2.456 2.24-3.904 2.464-2.783.432-4.68-2.498-4.495-3.693-1.324.633-2.454 1.582-3.731 2.339a4.473 4.473 0 0 1-1.171.505 47.134 47.134 0 0 0-1.925-4 46.794 46.794 0 0 0-2.312-3.79 4.52 4.52 0 0 1 1.06-.708c1.331-.66 2.74-1.095 3.992-1.861-1.104-.495-2.532-3.679-.657-5.78zm12.63 3.942l.077.14" fill="#f2dd9e"/><path d="M17.366 76.033a33.69 33.69 0 0 0-.337-.502 4.526 4.526 0 0 1 1.061-.71c1.33-.66 2.74-1.093 3.992-1.86-.192-.085-.394-.253-.586-.481l.02-.002c-.688-.813-1.09-2.216-.56-2.994.448-.659 1.433-.975 2.063-.848 1.364.275 2.344 1.599 2.53 2.87l-.002-.001h.001l-8.181 4.53" fill="#d8bf7a"/><path d="M24.16 70.067c.388.24 1.018.977 1.388 1.436a21.62 21.62 0 0 1-1.426.79c-.053-.288-.32-.82-.599-1.082a1.08 1.08 0 0 0-.557-.28c-.75-.126-.986.493-.223.781-.878.488-1.494-.525-1.406-1.126.117-.798 1.147-1.554 2.822-.52" fill="#705b27"/><path d="M24.38 72.16c-.093.05-.18.094-.257.133-.054-.287-.322-.82-.6-1.081-.264-.248-.844-.454-1.154-.17.394-.482.752-.466 1.081-.251.536.351.813.772.93 1.37" fill="#826e34"/><path d="M21.027 82.765l.24.556a4.494 4.494 0 0 0 1.17-.506c1.278-.757 2.408-1.705 3.732-2.339-.032.208-.002.468.086.754l.013-.014c.308 1.018 1.267 2.118 2.21 2.096.796-.018 1.596-.674 1.832-1.27.511-1.295-.069-2.837-1.034-3.683l-8.249 4.406" fill="#d8bf7a"/><path d="M29.728 80.306c.01-.457-.268-1.387-.452-1.947-.408.194-1.06.545-1.437.768.212.201.513.715.582 1.09a1.08 1.08 0 0 1-.067.621c-.301.697-.95.56-.777-.237-.888.471-.37 1.54.18 1.792.735.335 1.93-.12 1.97-2.087" fill="#705b27"/><path d="M28.09 78.983c-.09.052-.177.1-.25.144.21.2.512.715.581 1.09.065.357-.079.956-.486 1.06.62-.067.801-.377.8-.77-.004-.64-.207-1.102-.645-1.524" fill="#826e34"/><path d="M21.065 67.959c2.753-3.214 5.382-2.656 7.187-1.89 2.105.894 4.041 2.905 5.395 5.275l.003-.002c.029.05.055.101.082.153l.083.15-.003.003c1.253 2.423 1.89 5.142 1.495 7.395-.337 1.93-1.298 4.441-5.492 5.005 5.334-1.823 4.942-7.28 2.468-11.57l-.01.007-.077-.156c-.028-.05-.058-.1-.09-.148l.012-.006c-2.256-4.407-6.624-7.702-11.053-4.216" fill="#fef7de"/><path d="M18.959 77.888l.637 1.12.594 1.144c2.6-1.645 5.231-2.918 8.344-3.403l-.893-1.722.013-.007-.173-.3-.159-.308-.012.006-.961-1.685c-2.098 2.35-4.598 3.867-7.39 5.155" fill="#fef7de"/></g><g><path d="M66.539 29.463a3.892 3.892 0 0 1-.261.163 4.827 4.827 0 0 1-1.55.547c-1.332.231-2.664-.087-3.634-1.058-1.234-1.234-1.982-2.761-1.922-4.529.24-6.909 10.86-11.912 16.337-7.716 1.404 1.076 2.108 2.624 2.277 4.36.134 1.367-.467 2.597-1.491 3.48a4.833 4.833 0 0 1-1.406.85 4.54 4.54 0 0 1-.293.097c.465.884 1.039 1.714 1.498 2.6.203.391.366.807.45 1.241l.107.54a44.926 44.926 0 0 0-8.033 3.795l-.35-.425a4.65 4.65 0 0 1-.672-1.137c-.392-.918-.67-1.889-1.057-2.808" fill="#826e34"/><path d="M72.335 31.3a41.595 41.595 0 0 0-3.477 1.86l-.138.082-.102-.123a4.239 4.239 0 0 1-.605-1.026c-.471-1.105-.78-2.288-1.31-3.367a2.617 2.617 0 0 1-.65.505 4.39 4.39 0 0 1-1.403.494c-1.184.206-2.369-.065-3.235-.932-4.195-4.194-.263-9.612 4.014-11.751l-.001-.004.004-.002.004-.002c.044-.022.088-.041.133-.062.043-.022.087-.04.13-.063h.003l.005-.003v.002c4.37-1.945 11.052-1.54 11.627 4.365.118 1.22-.425 2.306-1.336 3.09-.373.32-.812.594-1.272.77a2.64 2.64 0 0 1-.803.182c.497 1.094 1.214 2.084 1.768 3.15.183.352.331.728.408 1.119l.03.157-.15.054a41.317 41.317 0 0 0-3.644 1.504" fill="#d0b462"/><path d="M61.547 28.662c-.924-.924-1.455-2.42-1.513-3.831-.133-3.186 2.742-5.785 5.664-7.22v-.001h.002l.005-.003.122-.058.02-.009.121-.057.005-.002.003-.001v.001c2.965-1.345 6.798-1.915 9.175.211 1.051.941 1.87 2.302 1.997 3.603.244 2.501-2.463 4.042-3.517 3.817.497 1.211 1.284 2.266 1.894 3.442.199.382.326.738.391 1.069-1.192.426-2.421.93-3.662 1.511a41.751 41.751 0 0 0-3.492 1.868 4.032 4.032 0 0 1-.578-.98c-.52-1.22-.836-2.497-1.455-3.65-.496.958-3.405 2.068-5.183.291zm4.151-11.05l.129-.063" fill="#f2dd9e"/><path d="M69.227 32.726c-.157.091-.312.183-.465.275a4.038 4.038 0 0 1-.577-.981c-.521-1.219-.836-2.496-1.455-3.65-.087.167-.246.338-.46.497v-.017c-.76.57-2.029.858-2.695.346-.564-.432-.796-1.325-.65-1.88.313-1.202 1.542-2.007 2.683-2.108v.001l3.62 7.517" fill="#d8bf7a"/><path d="M64.256 26.372c.234-.334.923-.857 1.35-1.163.193.354.477.95.631 1.31-.258.032-.746.244-.993.478a.964.964 0 0 0-.278.482c-.15.662.39.904.684.239.39.807-.543 1.304-1.074 1.195-.705-.144-1.326-1.1-.32-2.54" fill="#705b27"/><path d="M66.133 26.283l.105.235c-.26.033-.747.245-.994.479-.234.223-.447.73-.209 1.02-.41-.376-.378-.694-.17-.976.34-.46.73-.685 1.268-.758" fill="#826e34"/><path d="M75.409 29.806l.507-.185a4.01 4.01 0 0 0-.39-1.069c-.61-1.176-1.398-2.23-1.895-3.442.183.04.417.025.676-.039l-.012-.012c.923-.223 1.95-1.021 1.979-1.862.024-.71-.52-1.456-1.04-1.696-1.126-.521-2.529-.083-3.332.734l3.507 7.571" fill="#d8bf7a"/><path d="M73.66 21.931c-.407-.031-1.25.168-1.757.304.152.374.431.972.61 1.319.19-.179.664-.421 1.002-.463a.963.963 0 0 1 .549.09c.606.305.45.876-.251.681.375.815 1.353.409 1.606-.07.335-.637-.009-1.724-1.76-1.86" fill="#705b27"/><path d="M72.398 23.323c.042.084.08.163.116.23.19-.178.663-.42 1-.462.322-.04.848.118.92.486-.029-.555-.296-.732-.645-.75-.57-.03-.992.127-1.391.496" fill="#826e34"/><path d="M62.222 29.022c-2.723-2.615-2.093-4.929-1.319-6.498.903-1.83 2.793-3.453 4.972-4.538l-.001-.003a2.99 2.99 0 0 1 .14-.065c.045-.023.092-.045.139-.067v.004c2.223-.994 4.677-1.423 6.664-.958 1.703.399 3.89 1.382 4.18 5.146-1.353-4.843-6.234-4.771-10.18-2.785l.005.01-.143.06a3.1 3.1 0 0 0-.136.072l-.005-.01c-4.04 1.786-7.197 5.51-4.316 9.632" fill="#fef7de"/><path d="M70.96 31.401l1.03-.51 1.049-.471c-1.334-2.4-2.335-4.808-2.608-7.606l-1.58.708-.005-.011-.276.138-.283.126.005.012-1.55.77c1.987 1.988 3.212 4.292 4.218 6.844" fill="#fef7de"/></g><g><path d="M31.867 99.586a4.492 4.492 0 0 1-.34-.108 5.571 5.571 0 0 1-1.638-.953c-1.2-.999-1.915-2.407-1.788-3.987.162-2.006.946-3.807 2.545-5.075 6.253-4.956 18.593.639 19 8.593.104 2.038-.731 3.815-2.131 5.262-1.102 1.14-2.632 1.532-4.174 1.29a5.578 5.578 0 0 1-1.799-.6 5.24 5.24 0 0 1-.304-.184c-.43 1.069-.73 2.194-1.166 3.26a5.351 5.351 0 0 1-.754 1.325l-.396.497a51.852 51.852 0 0 0-9.343-4.224l.112-.626c.09-.503.27-.986.498-1.441.513-1.031 1.16-2.001 1.678-3.03" fill="#826e34"/><path d="M34.585 106.055a48.007 48.007 0 0 0-4.234-1.666l-.176-.06.033-.181c.08-.452.246-.89.45-1.3.618-1.24 1.427-2.396 1.98-3.668a3.02 3.02 0 0 1-.931-.195 5.058 5.058 0 0 1-1.483-.863c-1.066-.888-1.714-2.132-1.6-3.542.55-6.824 8.255-7.419 13.333-5.258l.002-.004.005.002.005.003c.052.021.102.046.154.07.052.022.101.046.153.068l.003.001.005.003v.002c4.975 2.387 9.617 8.564 4.855 13.485-.983 1.016-2.345 1.35-3.715 1.136a5.068 5.068 0 0 1-1.628-.542 3.046 3.046 0 0 1-.76-.57c-.591 1.255-.925 2.626-1.448 3.91a4.886 4.886 0 0 1-.678 1.195l-.115.144-.161-.092a47.686 47.686 0 0 0-4.048-2.079" fill="#d0b462"/><path d="M28.838 94.598c.122-1.503 1.041-3.089 2.237-4.195 2.702-2.499 7.137-1.915 10.583-.418v-.002l.003.002.006.002c.048.02.094.042.141.064l.023.01.142.065.004.003.004.001-.001.002c3.4 1.6 6.767 4.544 6.675 8.223-.041 1.629-.624 3.366-1.673 4.45-2.018 2.085-5.396.858-5.987-.238-.693 1.343-1.032 2.824-1.61 4.24a4.606 4.606 0 0 1-.647 1.142 48.537 48.537 0 0 0-4.067-2.089 48.187 48.187 0 0 0-4.254-1.674c.07-.383.21-.796.431-1.24.682-1.37 1.57-2.602 2.12-4.01-1.213.28-4.365-1.446-4.131-4.337zm12.82-4.613c.05.02.101.043.15.066" fill="#f2dd9e"/><path d="M31.008 104.389c-.197-.07-.394-.137-.589-.203a4.66 4.66 0 0 1 .43-1.241c.683-1.37 1.57-2.602 2.122-4.009-.212.05-.481.037-.78-.031l.014-.014c-1.07-.24-2.271-1.142-2.32-2.111-.041-.819.57-1.69 1.166-1.977 1.291-.623 2.919-.145 3.86.783l-3.902 8.804" fill="#d8bf7a"/><path d="M32.877 95.268c.469-.044 1.444.17 2.033.317a22.67 22.67 0 0 1-.68 1.534c-.222-.203-.773-.474-1.164-.516a1.113 1.113 0 0 0-.632.116c-.693.363-.503 1.019.303.78-.418.947-1.554.498-1.855-.05-.4-.728-.023-1.99 1.995-2.18" fill="#705b27"/><path d="M34.36 96.85c-.046.098-.09.19-.13.269-.222-.203-.773-.473-1.163-.516-.371-.039-.976.153-1.053.58.023-.642.327-.852.731-.88.658-.044 1.147.13 1.614.548" fill="#826e34"/><path d="M38.198 107.64l.542.308c.242-.304.46-.682.647-1.143.578-1.415.917-2.896 1.61-4.24.103.191.29.386.54.566v-.02c.887.645 2.358.952 3.118.348.642-.51.892-1.545.714-2.182-.384-1.38-1.818-2.286-3.137-2.38l-4.034 8.743" fill="#d8bf7a"/><path d="M43.813 100.214c-.276-.38-1.081-.973-1.58-1.317a22.42 22.42 0 0 0-.703 1.523c.299.033.866.268 1.156.534.173.16.28.351.33.55.186.76-.433 1.05-.786.289-.436.939.653 1.495 1.263 1.36.81-.182 1.51-1.298.32-2.939" fill="#705b27"/><path d="M41.646 100.146c-.042.099-.084.191-.116.274.298.033.866.268 1.156.534.274.252.528.833.26 1.172.466-.441.422-.808.176-1.13-.4-.522-.853-.776-1.476-.85" fill="#826e34"/><path d="M29.027 95.46c.263-4.349 2.768-5.525 4.726-6.018 2.284-.574 5.124-.126 7.708.978l.001-.003c.055.023.108.049.162.074.054.023.109.047.163.072l-.002.004c2.535 1.211 4.747 3.047 5.824 5.142.923 1.795 1.694 4.454-1.398 7.523 3.246-4.811-.468-9.049-5.164-11.033l-.006.012-.159-.08a3.577 3.577 0 0 0-.166-.066l.006-.012c-4.591-2.217-10.226-2.207-11.696 3.408" fill="#fef7de"/><path d="M33.468 104.922l1.22.524 1.198.57c1.112-2.966 2.482-5.648 4.736-7.98l-1.803-.86.006-.012-.328-.14-.322-.154-.007.013-1.836-.787c-.262 3.234-1.372 6.033-2.864 8.826" fill="#fef7de"/></g><g><path d="M122.84 73.334c.116.001.232.007.345.016a5.41 5.41 0 0 1 1.777.483c1.376.636 2.4 1.777 2.678 3.29.352 1.924.069 3.81-1.113 5.4-4.62 6.22-17.601 4.07-19.98-3.288-.61-1.887-.273-3.763.677-5.472.747-1.345 2.084-2.098 3.591-2.259a5.417 5.417 0 0 1 1.838.112c.11.028.222.06.332.096.135-1.11.134-2.242.275-3.351.062-.49.176-.977.375-1.432l.246-.566a50.38 50.38 0 0 0 9.825 1.617l.052.615c.042.494-.006.993-.105 1.476-.222 1.097-.585 2.169-.813 3.263" fill="#826e34"/><path d="M118.665 67.948c1.455.235 2.921.405 4.391.5l.18.012.015.178a4.75 4.75 0 0 1-.096 1.332c-.268 1.32-.737 2.607-.936 3.939.301-.074.636-.076.922-.051.55.047 1.108.207 1.608.438 1.223.564 2.143 1.569 2.39 2.92 1.197 6.54-5.88 9.032-11.187 8.28v.005l-.006-.001-.006-.001-.16-.027-.162-.026h-.003l-.006-.001v-.002c-5.266-.99-11.172-5.62-7.94-11.431.667-1.2 1.86-1.856 3.199-1.999a4.922 4.922 0 0 1 1.663.1c.279.069.596.178.857.344.239-1.326.208-2.696.376-4.03.056-.442.158-.884.336-1.293l.072-.164.174.046c1.423.381 2.866.69 4.318.934" fill="#d0b462"/><path d="M126.933 77.253c.264 1.44-.2 3.159-1.044 4.497-1.907 3.022-6.214 3.588-9.822 3.05v.002l-.004-.002h-.005c-.05-.007-.1-.016-.15-.025l-.023-.004-.15-.025-.004-.001h-.004v-.003c-3.59-.647-7.489-2.563-8.326-6.037-.37-1.538-.26-3.315.452-4.595 1.369-2.462 4.846-2.16 5.675-1.28.313-1.433.26-2.907.446-4.38.06-.48.169-.889.32-1.235 1.37.366 2.825.683 4.34.938 1.515.245 2.995.41 4.41.502.031.377.004.8-.092 1.272-.296 1.456-.819 2.835-.983 4.293 1.068-.567 4.459.26 4.966 3.032zM116.067 84.8a4.309 4.309 0 0 1-.159-.025" fill="#f2dd9e"/><path d="M122.44 68.613c.202.016.403.03.603.043.031.377.004.8-.092 1.272-.296 1.456-.82 2.835-.983 4.293.186-.099.442-.155.74-.166l-.011.016c1.064-.043 2.418.501 2.706 1.398.245.758-.11 1.729-.597 2.147-1.055.91-2.701.869-3.818.235h.001l1.45-9.238" fill="#d8bf7a"/><path d="M122.976 77.638c-.428.16-1.396.204-1.986.214.048-.45.166-1.18.252-1.61.26.135.845.25 1.222.192a1.08 1.08 0 0 0 .563-.268c.56-.514.217-1.082-.48-.656.155-.993 1.333-.857 1.753-.418.558.582.522 1.86-1.324 2.546" fill="#705b27"/><path d="M121.189 76.526c.018-.102.037-.2.053-.284.26.135.844.25 1.221.191.358-.056.877-.388.843-.807.139.607-.094.88-.466 1.008-.606.207-1.108.167-1.651-.108" fill="#826e34"/><path d="M114.878 67.369l-.586-.153c-.15.347-.26.755-.32 1.235-.186 1.473-.132 2.947-.445 4.38-.144-.152-.368-.288-.648-.394l.003.019c-.993-.382-2.45-.3-3.01.456-.475.64-.45 1.674-.123 2.227.708 1.198 2.28 1.687 3.541 1.445l1.589-9.215" fill="#d8bf7a"/><path d="M111.476 75.745c.354.288 1.259.64 1.813.839.098-.442.222-1.171.277-1.605-.289.043-.88-.035-1.218-.21a1.08 1.08 0 0 1-.448-.435c-.366-.666.142-1.093.664-.467.173-.99-.987-1.239-1.526-.958-.714.373-1.09 1.595.438 2.836" fill="#705b27"/><path d="M113.526 75.265c.015-.104.03-.2.04-.286-.288.043-.88-.035-1.218-.21-.321-.169-.706-.65-.538-1.035-.327.53-.194.864.117 1.103.507.39.996.514 1.6.428" fill="#826e34"/><path d="M126.54 76.491c.846 4.146-1.21 5.878-2.922 6.833-1.998 1.112-4.775 1.405-7.476 1.018v.003c-.058-.008-.114-.019-.171-.029a4.885 4.885 0 0 1-.17-.027v-.004c-2.682-.499-5.219-1.666-6.755-3.36-1.316-1.453-2.707-3.753-.577-7.41-1.837 5.33 2.71 8.372 7.615 9.054l.002-.012.17.035c.056.008.114.015.171.02l-.002.012c4.864.927 10.147-.497 10.115-6.133" fill="#fef7de"/><path d="M119.998 68.731l-1.275-.185-1.268-.234c-.298 3.062-.91 5.921-2.439 8.675l1.908.353-.003.014.343.049.34.063.004-.014 1.92.277c-.567-3.099-.228-6.003.47-8.998" fill="#fef7de"/></g><g><path d="M72.278 50.7c.057-.118.119-.233.183-.344a6.104 6.104 0 0 1 1.353-1.577c1.313-1.095 2.973-1.587 4.649-1.137 2.13.572 3.915 1.773 4.965 3.747 4.102 7.72-4.37 19.909-13.022 18.771-2.217-.29-3.966-1.543-5.248-3.337-1.01-1.413-1.129-3.14-.564-4.753a6.111 6.111 0 0 1 1.004-1.82 5.78 5.78 0 0 1 .258-.291c-1.066-.675-2.22-1.222-3.283-1.902-.47-.3-.91-.653-1.277-1.075l-.458-.525a56.808 56.808 0 0 0 6.403-9.23l.652.244a5.88 5.88 0 0 1 1.454.821c1.01.758 1.926 1.646 2.931 2.408" fill="#826e34"/><path d="M64.77 52.348a52.595 52.595 0 0 0 2.633-4.233l.1-.177.188.071c.472.177.91.441 1.311.742 1.215.912 2.3 2.013 3.561 2.86.07-.342.23-.685.394-.964a5.542 5.542 0 0 1 1.225-1.427c1.167-.973 2.636-1.424 4.132-1.023 7.245 1.945 6.36 10.364 3.026 15.409l.004.002-.004.006-.004.005c-.033.05-.07.1-.105.15-.034.052-.07.101-.104.152l-.002.004-.004.005-.002-.002c-3.557 4.89-11.133 8.668-15.492 2.562-.9-1.26-.991-2.794-.49-4.228a5.553 5.553 0 0 1 .908-1.647c.205-.25.47-.52.765-.707-1.235-.884-2.646-1.516-3.926-2.333a5.353 5.353 0 0 1-1.154-.968l-.133-.153.132-.155a52.244 52.244 0 0 0 3.04-3.95" fill="#d0b462"/><path d="M78.253 48.425c1.595.428 3.122 1.733 4.077 3.24 2.157 3.407.65 8.07-1.645 11.487h.002l-.003.003-.003.006c-.031.047-.065.093-.097.14l-.016.022-.097.14-.005.005-.002.003-.001-.001c-2.398 3.346-6.237 6.391-10.183 5.564-1.747-.367-3.504-1.34-4.464-2.685-1.847-2.586.145-5.984 1.442-6.403-1.31-1.013-2.838-1.67-4.249-2.574a5.046 5.046 0 0 1-1.103-.924 53.176 53.176 0 0 0 3.056-3.968 52.793 52.793 0 0 0 2.646-4.253c.4.151.817.383 1.252.71 1.34 1.006 2.493 2.207 3.9 3.079-.062-1.363 2.423-4.417 5.492-3.593zm2.432 14.727c-.033.05-.067.1-.102.149" fill="#f2dd9e"/><path d="M67.273 48.824c.114-.2.226-.397.335-.595.4.151.817.383 1.253.71 1.34 1.006 2.492 2.206 3.899 3.08-.011-.238.056-.526.188-.835l.012.019c.471-1.106 1.68-2.222 2.734-2.082.89.117 1.709.949 1.9 1.648.416 1.514-.423 3.173-1.608 4.004l-8.714-5.948" fill="#d8bf7a"/><path d="M76.73 52.644c-.044.514-.468 1.522-.743 2.128a24.393 24.393 0 0 1-1.518-1.036c.262-.2.663-.74.786-1.152a1.22 1.22 0 0 0 0-.705c-.253-.819-.998-.743-.901.172-.937-.638-.228-1.772.422-1.988.864-.287 2.148.368 1.955 2.581" fill="#705b27"/><path d="M74.732 53.928l-.264-.192c.263-.2.664-.74.786-1.152.116-.392.03-1.082-.415-1.25.686.153.852.522.802.963-.082.717-.366 1.21-.91 1.63" fill="#826e34"/><path d="M62.345 55.927l-.439.523c.28.322.644.63 1.104.924 1.41.903 2.94 1.561 4.25 2.574-.226.073-.473.236-.717.47l.021.005c-.87.827-1.492 2.351-.992 3.29.422.793 1.488 1.267 2.21 1.202 1.564-.142 2.823-1.507 3.187-2.91h-.001l-8.622-6.078" fill="#d8bf7a"/><path d="M69.235 63.448c.466-.222 1.263-.972 1.733-1.442a24.563 24.563 0 0 0-1.502-1.059c-.095.316-.46.88-.804 1.14a1.218 1.218 0 0 1-.66.247c-.855.05-1.045-.674-.154-.904-.925-.655-1.74.407-1.715 1.092.035.909 1.099 1.883 3.102.926" fill="#705b27"/><path d="M69.738 61.126c-.098-.065-.19-.127-.272-.179-.095.315-.46.88-.804 1.14-.327.246-1.003.405-1.315.048.383.59.787.615 1.182.414.643-.328 1.006-.766 1.21-1.423" fill="#826e34"/><path d="M77.286 48.457c4.634 1.144 5.405 4.077 5.549 6.285.167 2.574-.878 5.545-2.58 8.111l.003.003c-.035.054-.074.106-.112.16a5.51 5.51 0 0 1-.11.16l-.004-.003c-1.807 2.493-4.223 4.512-6.694 5.258-2.117.639-5.134.943-7.83-2.997 4.542 4.451 9.844 1.289 12.912-3.38l-.012-.007c.04-.052.08-.104.118-.156a3.92 3.92 0 0 0 .104-.166l.012.009c3.298-4.508 4.403-10.582-1.356-13.278" fill="#fef7de"/><path d="M66.211 51.37l-.806 1.209-.851 1.179c2.976 1.785 5.594 3.792 7.66 6.683l1.284-1.773.013.01.215-.326.23-.317-.013-.01 1.211-1.822c-3.432-.923-6.228-2.673-8.943-4.834" fill="#fef7de"/></g></g></svg>