<svg xmlns="http://www.w3.org/2000/svg" width="600" height="600" viewBox="0 0 158.75 158.75"><path d="M87.196 35c-.292-3.422 1.55-6.405 4.118-6.661 2.567-.256 4.884 2.314 5.178 5.735.292 3.423-1.551 6.408-4.118 6.664-2.567.255-4.885-2.314-5.178-5.738" fill="#221d20"/><path d="M90.759 35.072c-.125-1.466.781-2.753 2.024-2.877 1.244-.125 2.353.962 2.478 2.428.126 1.466-.78 2.754-2.025 2.877-1.242.123-2.351-.964-2.477-2.428" fill="#695240"/><path d="M92.75 34.942c-.049-.58.31-1.094.806-1.143.492-.05.934.383.983.966.052.581-.31 1.094-.804 1.143-.494.048-.934-.382-.984-.966" fill="#fff"/><path d="M36.998 82.605c-2.542-2.31-3.221-5.75-1.514-7.684 1.707-1.934 5.154-1.628 7.697.68 2.543 2.31 3.223 5.751 1.516 7.685-1.707 1.934-5.154 1.628-7.699-.681" fill="#221d20"/><path d="M39.659 80.233c-1.09-.99-1.301-2.55-.475-3.486.827-.937 2.38-.895 3.468.094 1.09.989 1.302 2.55.474 3.486-.827.935-2.38.893-3.467-.094" fill="#695240"/><path d="M41.03 78.782c-.432-.391-.518-1.012-.188-1.385.327-.372.945-.355 1.377.039.434.39.518 1.012.19 1.385-.33.371-.945.355-1.38-.039" fill="#fff"/><path d="M61.577 123.48c2.192-2.645 5.598-3.478 7.607-1.86 2.009 1.618 1.859 5.075-.332 7.72-2.193 2.645-5.6 3.479-7.61 1.861-2.007-1.618-1.858-5.075.335-7.721" fill="#221d20"/><path d="M64.066 126.03c.94-1.132 2.488-1.415 3.46-.631.975.784 1.003 2.336.064 3.47-.939 1.132-2.488 1.414-3.462.63-.971-.785-.999-2.337-.062-3.469" fill="#695240"/><path d="M65.577 127.334c.372-.448.988-.562 1.376-.25.385.31.396.928.023 1.378-.371.451-.988.563-1.375.251-.386-.312-.398-.927-.024-1.38" fill="#fff"/><path d="M113.993 94.45c-.032-3.435 2.032-6.27 4.612-6.33 2.578-.06 4.694 2.678 4.727 6.112.031 3.436-2.033 6.271-4.612 6.331-2.579.06-4.695-2.678-4.727-6.114" fill="#221d20"/><path d="M117.54 94.792c-.013-1.472.988-2.687 2.237-2.716 1.25-.03 2.273 1.139 2.286 2.61.014 1.47-.988 2.686-2.238 2.715-1.247.028-2.27-1.14-2.285-2.61" fill="#695240"/><path d="M119.536 94.813c-.006-.582.391-1.067.89-1.079.494-.012.901.453.906 1.038.008.584-.391 1.068-.888 1.08-.496.01-.902-.453-.908-1.04" fill="#fff"/><path d="M63.761 53.66c.283-3.423 2.598-6.056 5.172-5.88 2.573.176 4.43 3.096 4.148 6.518-.283 3.425-2.598 6.06-5.172 5.884-2.573-.177-4.43-3.097-4.148-6.522" fill="#221d20"/><path d="M67.262 54.326c.122-1.466 1.23-2.585 2.476-2.5 1.247.086 2.16 1.342 2.038 2.809-.12 1.466-1.23 2.584-2.477 2.498-1.245-.086-2.157-1.343-2.037-2.807" fill="#695240"/><path d="M69.248 54.53c.048-.58.487-1.027.984-.993.494.033.857.534.808 1.116-.045.583-.487 1.028-.983.994-.495-.035-.857-.533-.81-1.118" fill="#fff"/><g fill-rule="evenodd"><path d="M77.505 17.528a4.932 4.932 0 0 1 1.802.257c.543.186 1.048.47 1.497.835.86.703 1.486 1.7 1.721 2.812.058.27.091.545.1.822a5.313 5.313 0 0 1-1.222 3.542 4.588 4.588 0 0 1-3.527 1.656c-1.147.014-2.275-.286-3.211-.988a4.661 4.661 0 0 1-1.685-2.455 4.77 4.77 0 0 1-.182-1.418 5.475 5.475 0 0 1 1.301-3.412 4.687 4.687 0 0 1 3.406-1.65zm-2.02 3.79a2.73 2.73 0 0 1 .581-.785c.222-.21.478-.375.754-.493a2.435 2.435 0 0 1 1.684-.087 2.2 2.2 0 0 1 .387.166 2.696 2.696 0 0 1 1.244 1.494c.24.706.165 1.444-.184 2.098-.29.545-.713 1.002-1.265 1.263a2.275 2.275 0 0 1-2.188-.119 2.8 2.8 0 0 1-1.166-1.498 2.679 2.679 0 0 1 .153-2.039" fill="#1a1812"/><path d="M73.966 20.506c.245-.496.57-.943.969-1.317a4.348 4.348 0 0 1 1.266-.825 4.078 4.078 0 0 1 2.822-.146c.224.072.442.164.65.277A4.519 4.519 0 0 1 81.756 21c.4 1.183.278 2.421-.306 3.514-.49.915-1.199 1.68-2.122 2.118a3.824 3.824 0 0 1-2.542.272 3.859 3.859 0 0 1-1.125-.471 4.684 4.684 0 0 1-1.956-2.51 4.469 4.469 0 0 1 .26-3.417zm1.509.806a2.77 2.77 0 0 1 .581-.789 2.61 2.61 0 0 1 .76-.495 2.438 2.438 0 0 1 1.692-.087c.134.042.265.098.39.166a2.714 2.714 0 0 1 1.25 1.502 2.632 2.632 0 0 1-.185 2.107c-.293.549-.718 1.008-1.272 1.27a2.291 2.291 0 0 1-2.199-.12 2.811 2.811 0 0 1-1.17-1.504 2.684 2.684 0 0 1 .153-2.05" fill="#3c1b25"/><path d="M74.39 20.732c.218-.44.506-.836.86-1.169a3.85 3.85 0 0 1 1.125-.731 3.616 3.616 0 0 1 2.504-.13c.198.063.391.146.576.246a4.01 4.01 0 0 1 1.85 2.223c.355 1.05.246 2.149-.273 3.12-.434.81-1.062 1.49-1.882 1.88a3.39 3.39 0 0 1-3.255-.179 4.142 4.142 0 0 1-1.734-2.227 3.963 3.963 0 0 1 .23-3.033zm.879.47a3 3 0 0 1 .636-.862c.243-.228.522-.41.828-.54a2.665 2.665 0 0 1 1.845-.095c.146.047.29.107.424.181.632.345 1.13.941 1.367 1.64.26.774.179 1.584-.202 2.3-.32.598-.784 1.099-1.388 1.386a2.502 2.502 0 0 1-2.4-.131 3.064 3.064 0 0 1-1.279-1.642 2.932 2.932 0 0 1 .169-2.237" fill="#4d2434"/></g><g fill-rule="evenodd"><path d="M108.839 59.444a4.932 4.932 0 0 1 1.801.256c.543.186 1.049.47 1.497.836a5 5 0 0 1 1.722 2.812c.057.27.09.545.1.821a5.313 5.313 0 0 1-1.223 3.543 4.588 4.588 0 0 1-3.526 1.656c-1.148.014-2.276-.287-3.212-.988a4.661 4.661 0 0 1-1.684-2.455 4.77 4.77 0 0 1-.182-1.419 5.475 5.475 0 0 1 1.3-3.411 4.687 4.687 0 0 1 3.407-1.651zm-2.02 3.79c.147-.296.341-.562.58-.786.222-.209.478-.374.754-.493a2.435 2.435 0 0 1 1.685-.086c.133.042.262.098.387.165a2.696 2.696 0 0 1 1.244 1.494 2.61 2.61 0 0 1-.185 2.098c-.29.546-.713 1.003-1.265 1.264a2.275 2.275 0 0 1-2.188-.119 2.8 2.8 0 0 1-1.166-1.498 2.679 2.679 0 0 1 .154-2.039" fill="#1a1812"/><path d="M105.3 62.421a4.6 4.6 0 0 1 .968-1.317 4.348 4.348 0 0 1 1.266-.824 4.078 4.078 0 0 1 2.823-.147c.224.072.44.164.649.278a4.519 4.519 0 0 1 2.084 2.505c.4 1.183.278 2.42-.305 3.514-.49.914-1.2 1.68-2.123 2.117a3.824 3.824 0 0 1-2.542.272 3.859 3.859 0 0 1-1.125-.471 4.684 4.684 0 0 1-1.955-2.51 4.469 4.469 0 0 1 .26-3.417zm1.508.807a2.77 2.77 0 0 1 .582-.79 2.61 2.61 0 0 1 .76-.494 2.438 2.438 0 0 1 1.691-.088c.134.043.265.098.39.166a2.714 2.714 0 0 1 1.25 1.502c.239.71.165 1.452-.185 2.108-.292.548-.717 1.007-1.271 1.27a2.291 2.291 0 0 1-2.2-.12 2.811 2.811 0 0 1-1.17-1.505 2.684 2.684 0 0 1 .153-2.05" fill="#3c1b25"/><path d="M105.724 62.648c.217-.44.505-.837.86-1.17a3.85 3.85 0 0 1 1.125-.73 3.616 3.616 0 0 1 2.503-.13c.199.063.391.146.576.245a4.01 4.01 0 0 1 1.85 2.224c.355 1.05.246 2.148-.273 3.119-.433.81-1.062 1.49-1.882 1.88a3.39 3.39 0 0 1-3.255-.178 4.142 4.142 0 0 1-1.734-2.227 3.963 3.963 0 0 1 .23-3.033zm.878.47a3 3 0 0 1 .636-.862c.243-.229.523-.411.828-.54a2.665 2.665 0 0 1 1.846-.096c.146.047.289.108.424.182a2.96 2.96 0 0 1 1.366 1.64c.26.773.18 1.584-.202 2.3-.319.598-.784 1.098-1.388 1.385a2.502 2.502 0 0 1-2.4-.13 3.064 3.064 0 0 1-1.279-1.643 2.932 2.932 0 0 1 .17-2.237" fill="#4d2434"/></g><g fill-rule="evenodd"><path d="M68.48 84.567a4.932 4.932 0 0 1 1.803.257c.542.186 1.048.47 1.497.835.86.703 1.486 1.7 1.72 2.812.059.27.092.545.101.822a5.313 5.313 0 0 1-1.223 3.542 4.588 4.588 0 0 1-3.526 1.656c-1.147.014-2.275-.286-3.212-.988a4.661 4.661 0 0 1-1.684-2.455 4.77 4.77 0 0 1-.182-1.419 5.475 5.475 0 0 1 1.3-3.41 4.687 4.687 0 0 1 3.407-1.652zm-2.02 3.79c.148-.296.342-.562.581-.786.223-.208.479-.374.755-.492a2.435 2.435 0 0 1 1.684-.087c.134.043.263.098.387.165a2.696 2.696 0 0 1 1.244 1.495 2.613 2.613 0 0 1-.184 2.097c-.29.546-.714 1.003-1.266 1.264a2.275 2.275 0 0 1-2.188-.119 2.8 2.8 0 0 1-1.166-1.498 2.679 2.679 0 0 1 .154-2.039" fill="#1a1812"/><path d="M64.942 87.545c.245-.496.57-.943.969-1.317a4.348 4.348 0 0 1 1.265-.825A4.078 4.078 0 0 1 70 85.257c.224.072.441.164.649.277a4.519 4.519 0 0 1 2.084 2.505c.4 1.183.278 2.421-.305 3.514-.49.915-1.2 1.68-2.123 2.118a3.824 3.824 0 0 1-2.541.272 3.859 3.859 0 0 1-1.126-.472 4.684 4.684 0 0 1-1.955-2.51 4.469 4.469 0 0 1 .26-3.417zm1.508.806a2.77 2.77 0 0 1 .582-.79 2.61 2.61 0 0 1 .76-.494 2.438 2.438 0 0 1 1.692-.087c.133.042.264.098.389.166a2.714 2.714 0 0 1 1.25 1.502c.24.709.165 1.451-.185 2.107-.292.549-.717 1.008-1.271 1.27a2.291 2.291 0 0 1-2.2-.12 2.811 2.811 0 0 1-1.17-1.504 2.684 2.684 0 0 1 .153-2.05" fill="#3c1b25"/><path d="M65.366 87.771c.217-.44.506-.836.86-1.169a3.85 3.85 0 0 1 1.125-.732 3.616 3.616 0 0 1 2.504-.13c.198.064.39.147.576.247a4.01 4.01 0 0 1 1.849 2.223c.356 1.05.246 2.148-.273 3.12-.433.81-1.061 1.49-1.882 1.879a3.39 3.39 0 0 1-3.254-.178 4.142 4.142 0 0 1-1.735-2.227 3.963 3.963 0 0 1 .23-3.033zm.879.47a3 3 0 0 1 .635-.862 2.83 2.83 0 0 1 .828-.54 2.665 2.665 0 0 1 1.846-.095c.146.047.29.107.424.18.632.346 1.13.942 1.366 1.64.261.775.18 1.585-.202 2.3-.319.599-.784 1.1-1.388 1.387a2.502 2.502 0 0 1-2.4-.131 3.064 3.064 0 0 1-1.278-1.642 2.932 2.932 0 0 1 .169-2.237" fill="#4d2434"/></g><g fill-rule="evenodd"><path d="M43.892 42.071a4.932 4.932 0 0 1 1.802.257c.542.186 1.048.47 1.497.835.86.703 1.486 1.7 1.721 2.812.058.27.091.545.1.822a5.313 5.313 0 0 1-1.222 3.542 4.588 4.588 0 0 1-3.527 1.656c-1.147.014-2.275-.286-3.212-.988a4.661 4.661 0 0 1-1.684-2.455 4.77 4.77 0 0 1-.182-1.418 5.475 5.475 0 0 1 1.3-3.412 4.687 4.687 0 0 1 3.407-1.65zm-2.02 3.79c.147-.296.342-.562.58-.785.223-.21.479-.375.755-.493a2.435 2.435 0 0 1 1.684-.087 2.2 2.2 0 0 1 .387.166 2.696 2.696 0 0 1 1.244 1.494c.24.706.165 1.444-.184 2.097-.29.546-.713 1.003-1.266 1.264a2.275 2.275 0 0 1-2.188-.119 2.8 2.8 0 0 1-1.166-1.498 2.679 2.679 0 0 1 .154-2.039" fill="#1a1812"/><path d="M40.353 45.049c.245-.496.57-.943.969-1.317a4.348 4.348 0 0 1 1.265-.825 4.078 4.078 0 0 1 2.823-.146c.224.072.441.164.65.277a4.519 4.519 0 0 1 2.084 2.505c.4 1.183.278 2.421-.306 3.514-.49.915-1.2 1.68-2.122 2.118a3.824 3.824 0 0 1-2.542.272 3.859 3.859 0 0 1-1.125-.471 4.684 4.684 0 0 1-1.956-2.51 4.469 4.469 0 0 1 .26-3.417zm1.509.806a2.77 2.77 0 0 1 .581-.789 2.61 2.61 0 0 1 .76-.495 2.438 2.438 0 0 1 1.692-.087c.134.042.265.098.389.166a2.714 2.714 0 0 1 1.25 1.502c.24.709.165 1.451-.185 2.107-.292.549-.717 1.008-1.271 1.27a2.291 2.291 0 0 1-2.2-.12 2.811 2.811 0 0 1-1.17-1.504 2.684 2.684 0 0 1 .154-2.05" fill="#3c1b25"/><path d="M40.777 45.275c.217-.44.506-.836.86-1.169a3.85 3.85 0 0 1 1.125-.731 3.616 3.616 0 0 1 2.504-.13c.198.063.39.146.576.246a4.01 4.01 0 0 1 1.849 2.223c.356 1.05.247 2.149-.272 3.12-.434.81-1.062 1.49-1.883 1.88a3.39 3.39 0 0 1-3.254-.179 4.142 4.142 0 0 1-1.734-2.227 3.963 3.963 0 0 1 .23-3.033zm.879.47a3 3 0 0 1 .635-.862c.243-.228.523-.41.829-.54a2.665 2.665 0 0 1 1.845-.095c.146.047.29.107.424.181a2.96 2.96 0 0 1 1.366 1.64c.261.774.18 1.584-.202 2.3-.318.598-.783 1.099-1.388 1.386a2.502 2.502 0 0 1-2.4-.131 3.064 3.064 0 0 1-1.278-1.642 2.932 2.932 0 0 1 .169-2.237" fill="#4d2434"/></g><g fill-rule="evenodd"><path d="M97.079 100.603a4.932 4.932 0 0 1 1.801.257c.543.186 1.049.47 1.498.835.86.703 1.485 1.7 1.72 2.812.059.27.092.545.101.822a5.313 5.313 0 0 1-1.223 3.542 4.588 4.588 0 0 1-3.526 1.656c-1.147.014-2.276-.286-3.212-.988a4.661 4.661 0 0 1-1.684-2.455 4.77 4.77 0 0 1-.182-1.418 5.475 5.475 0 0 1 1.3-3.412 4.687 4.687 0 0 1 3.407-1.65zm-2.02 3.79c.147-.296.341-.562.58-.785.222-.21.479-.375.755-.493a2.435 2.435 0 0 1 1.684-.087 2.2 2.2 0 0 1 .387.166 2.696 2.696 0 0 1 1.244 1.494 2.615 2.615 0 0 1-.184 2.098c-.29.545-.714 1.002-1.266 1.263a2.275 2.275 0 0 1-2.188-.119 2.8 2.8 0 0 1-1.166-1.498 2.679 2.679 0 0 1 .154-2.039" fill="#1a1812"/><path d="M93.54 103.58c.244-.495.57-.942.968-1.316a4.348 4.348 0 0 1 1.266-.825 4.078 4.078 0 0 1 2.823-.146c.224.072.44.164.649.277a4.519 4.519 0 0 1 2.084 2.505c.4 1.183.278 2.421-.305 3.514-.49.915-1.2 1.68-2.123 2.118a3.824 3.824 0 0 1-2.542.272 3.859 3.859 0 0 1-1.125-.471 4.684 4.684 0 0 1-1.955-2.51 4.469 4.469 0 0 1 .26-3.417zm1.508.807a2.77 2.77 0 0 1 .582-.789 2.61 2.61 0 0 1 .76-.495 2.438 2.438 0 0 1 1.692-.087c.133.042.264.098.389.166a2.714 2.714 0 0 1 1.25 1.502c.24.709.165 1.451-.185 2.107-.292.549-.717 1.008-1.271 1.27a2.291 2.291 0 0 1-2.2-.12 2.811 2.811 0 0 1-1.17-1.504 2.684 2.684 0 0 1 .153-2.05" fill="#3c1b25"/><path d="M93.964 103.807c.217-.44.505-.836.86-1.169a3.85 3.85 0 0 1 1.125-.731 3.616 3.616 0 0 1 2.504-.13c.198.063.39.146.575.246a4.01 4.01 0 0 1 1.85 2.223c.355 1.05.246 2.149-.273 3.12-.433.81-1.061 1.49-1.882 1.88a3.39 3.39 0 0 1-3.254-.179 4.142 4.142 0 0 1-1.735-2.227 3.963 3.963 0 0 1 .23-3.033zm.878.47a3 3 0 0 1 .636-.862 2.83 2.83 0 0 1 .828-.54 2.665 2.665 0 0 1 1.846-.095c.146.047.29.107.424.181a2.964 2.964 0 0 1 1.366 1.64c.261.774.18 1.584-.202 2.3-.319.598-.784 1.099-1.388 1.386a2.502 2.502 0 0 1-2.4-.131 3.064 3.064 0 0 1-1.279-1.642 2.932 2.932 0 0 1 .17-2.237" fill="#4d2434"/></g><g fill-rule="evenodd"><path d="M33.469 102.474a4.932 4.932 0 0 1 1.801.257c.543.186 1.049.47 1.497.835a5 5 0 0 1 1.722 2.812c.057.27.09.545.1.822a5.313 5.313 0 0 1-1.223 3.542 4.588 4.588 0 0 1-3.527 1.656c-1.147.014-2.275-.286-3.211-.988a4.661 4.661 0 0 1-1.684-2.455 4.77 4.77 0 0 1-.182-1.419 5.475 5.475 0 0 1 1.3-3.41 4.687 4.687 0 0 1 3.407-1.652zm-2.02 3.79c.147-.296.341-.562.58-.785.222-.21.478-.375.754-.493a2.435 2.435 0 0 1 1.685-.087c.133.043.262.098.387.166a2.696 2.696 0 0 1 1.244 1.494 2.609 2.609 0 0 1-.185 2.097c-.29.546-.713 1.003-1.265 1.264a2.275 2.275 0 0 1-2.188-.119 2.8 2.8 0 0 1-1.166-1.498 2.679 2.679 0 0 1 .154-2.039" fill="#1a1812"/><path d="M29.93 105.452c.244-.496.57-.943.968-1.317a4.348 4.348 0 0 1 1.266-.825 4.078 4.078 0 0 1 2.823-.146c.224.072.44.164.649.277a4.519 4.519 0 0 1 2.084 2.505c.4 1.183.278 2.421-.305 3.514-.49.915-1.2 1.68-2.123 2.118a3.824 3.824 0 0 1-2.542.272 3.859 3.859 0 0 1-1.125-.472 4.684 4.684 0 0 1-1.955-2.51 4.469 4.469 0 0 1 .26-3.416zm1.508.806a2.77 2.77 0 0 1 .582-.79 2.61 2.61 0 0 1 .76-.494 2.438 2.438 0 0 1 1.691-.087c.134.042.265.098.39.166a2.714 2.714 0 0 1 1.25 1.502 2.632 2.632 0 0 1-.185 2.107c-.292.549-.717 1.008-1.271 1.27a2.291 2.291 0 0 1-2.2-.12 2.811 2.811 0 0 1-1.17-1.504 2.684 2.684 0 0 1 .153-2.05" fill="#3c1b25"/><path d="M30.354 105.678c.217-.44.505-.836.86-1.169a3.85 3.85 0 0 1 1.124-.732 3.616 3.616 0 0 1 2.504-.13c.199.064.391.147.576.247a4.01 4.01 0 0 1 1.85 2.223c.355 1.05.246 2.148-.273 3.12-.433.81-1.062 1.49-1.882 1.879a3.39 3.39 0 0 1-3.255-.178 4.142 4.142 0 0 1-1.734-2.227 3.963 3.963 0 0 1 .23-3.033zm.878.47a3 3 0 0 1 .636-.862 2.83 2.83 0 0 1 .828-.54 2.665 2.665 0 0 1 1.846-.095c.146.047.289.107.424.18a2.97 2.97 0 0 1 1.366 1.64c.26.775.18 1.585-.202 2.3-.319.6-.784 1.1-1.388 1.387a2.502 2.502 0 0 1-2.4-.131 3.064 3.064 0 0 1-1.279-1.642 2.932 2.932 0 0 1 .17-2.237" fill="#4d2434"/></g><g fill-rule="evenodd"><path d="M90.673 75.164a4.932 4.932 0 0 1 1.801.256c.543.186 1.049.47 1.497.835.86.704 1.486 1.7 1.722 2.813.057.27.09.544.1.82a5.313 5.313 0 0 1-1.223 3.544 4.588 4.588 0 0 1-3.526 1.655c-1.148.014-2.276-.286-3.212-.988a4.661 4.661 0 0 1-1.684-2.455 4.77 4.77 0 0 1-.182-1.418 5.475 5.475 0 0 1 1.3-3.412 4.687 4.687 0 0 1 3.407-1.65zm-2.02 3.79c.147-.296.341-.563.58-.786.222-.209.478-.375.754-.493a2.435 2.435 0 0 1 1.685-.086c.133.042.262.097.387.165a2.696 2.696 0 0 1 1.244 1.494 2.611 2.611 0 0 1-.185 2.098c-.29.545-.713 1.002-1.265 1.264a2.275 2.275 0 0 1-2.188-.12 2.8 2.8 0 0 1-1.166-1.498 2.679 2.679 0 0 1 .154-2.038" fill="#1a1812"/><path d="M87.134 78.14c.244-.495.57-.941.968-1.316A4.348 4.348 0 0 1 89.368 76a4.078 4.078 0 0 1 2.823-.146c.224.072.44.164.649.278a4.519 4.519 0 0 1 2.084 2.504c.4 1.184.278 2.422-.305 3.515-.49.914-1.2 1.68-2.123 2.117a3.824 3.824 0 0 1-2.542.272 3.859 3.859 0 0 1-1.125-.471 4.684 4.684 0 0 1-1.955-2.51 4.469 4.469 0 0 1 .26-3.417zm1.508.808a2.77 2.77 0 0 1 .582-.79 2.61 2.61 0 0 1 .76-.495 2.438 2.438 0 0 1 1.691-.087c.134.043.265.098.39.166a2.714 2.714 0 0 1 1.25 1.502 2.632 2.632 0 0 1-.185 2.107c-.292.549-.717 1.008-1.271 1.27a2.291 2.291 0 0 1-2.2-.12 2.811 2.811 0 0 1-1.17-1.504 2.684 2.684 0 0 1 .153-2.05" fill="#3c1b25"/><path d="M87.558 78.368c.217-.44.505-.837.86-1.17a3.85 3.85 0 0 1 1.125-.731 3.616 3.616 0 0 1 2.503-.13c.199.063.391.146.576.246a4.01 4.01 0 0 1 1.85 2.223c.355 1.05.246 2.149-.273 3.12-.433.81-1.062 1.49-1.882 1.88a3.39 3.39 0 0 1-3.255-.179 4.142 4.142 0 0 1-1.734-2.227 3.963 3.963 0 0 1 .23-3.033zm.878.469a3 3 0 0 1 .636-.861c.243-.229.523-.411.828-.54a2.665 2.665 0 0 1 1.846-.096c.146.047.289.108.424.181a2.967 2.967 0 0 1 1.366 1.64c.26.774.18 1.585-.202 2.3-.319.598-.784 1.099-1.388 1.386a2.502 2.502 0 0 1-2.4-.13 3.064 3.064 0 0 1-1.279-1.643 2.932 2.932 0 0 1 .17-2.237" fill="#4d2434"/></g><g fill-rule="evenodd"><path d="M22.778 59.711a4.932 4.932 0 0 1 1.801.256c.543.187 1.049.47 1.498.836.86.703 1.485 1.7 1.72 2.812.059.27.092.545.101.821a5.313 5.313 0 0 1-1.223 3.543 4.588 4.588 0 0 1-3.526 1.656c-1.147.014-2.275-.286-3.212-.988a4.661 4.661 0 0 1-1.684-2.455 4.77 4.77 0 0 1-.182-1.419 5.475 5.475 0 0 1 1.3-3.411 4.687 4.687 0 0 1 3.407-1.65zm-2.02 3.79c.147-.296.341-.562.58-.786a2.6 2.6 0 0 1 .755-.492 2.435 2.435 0 0 1 1.684-.087c.134.042.263.098.387.165a2.696 2.696 0 0 1 1.244 1.495 2.613 2.613 0 0 1-.184 2.097c-.29.546-.714 1.003-1.266 1.264a2.275 2.275 0 0 1-2.188-.119 2.8 2.8 0 0 1-1.166-1.498 2.679 2.679 0 0 1 .154-2.039" fill="#1a1812"/><path d="M19.239 62.688a4.6 4.6 0 0 1 .968-1.316 4.348 4.348 0 0 1 1.266-.825 4.078 4.078 0 0 1 2.823-.146c.224.072.441.164.649.277a4.519 4.519 0 0 1 2.084 2.505c.4 1.183.278 2.421-.305 3.514-.49.914-1.2 1.68-2.123 2.118a3.824 3.824 0 0 1-2.542.272 3.859 3.859 0 0 1-1.125-.472 4.684 4.684 0 0 1-1.955-2.51 4.469 4.469 0 0 1 .26-3.417zm1.508.807a2.77 2.77 0 0 1 .582-.79 2.61 2.61 0 0 1 .76-.494 2.438 2.438 0 0 1 1.692-.087c.133.042.264.098.389.166a2.714 2.714 0 0 1 1.25 1.502c.24.709.165 1.451-.185 2.107-.292.548-.717 1.008-1.271 1.27a2.291 2.291 0 0 1-2.2-.12 2.811 2.811 0 0 1-1.17-1.504 2.684 2.684 0 0 1 .153-2.05" fill="#3c1b25"/><path d="M19.663 62.915a4.06 4.06 0 0 1 .86-1.169 3.85 3.85 0 0 1 1.125-.732 3.616 3.616 0 0 1 2.504-.13c.198.064.39.147.575.247a4.01 4.01 0 0 1 1.85 2.223c.355 1.05.246 2.148-.273 3.12-.433.81-1.061 1.49-1.882 1.879a3.39 3.39 0 0 1-3.254-.178 4.142 4.142 0 0 1-1.735-2.227 3.963 3.963 0 0 1 .23-3.033zm.878.47a3 3 0 0 1 .636-.862 2.83 2.83 0 0 1 .828-.54 2.665 2.665 0 0 1 1.846-.095 2.4 2.4 0 0 1 .424.18 2.97 2.97 0 0 1 1.366 1.64c.261.775.18 1.585-.202 2.3-.319.599-.784 1.1-1.388 1.387a2.502 2.502 0 0 1-2.4-.131 3.064 3.064 0 0 1-1.278-1.643 2.932 2.932 0 0 1 .168-2.237" fill="#4d2434"/></g><g fill-rule="evenodd"><path d="M120.171 39.074a4.932 4.932 0 0 1 1.802.256c.543.186 1.049.47 1.497.836.86.703 1.486 1.7 1.721 2.812.058.27.091.545.101.821a5.313 5.313 0 0 1-1.223 3.543 4.588 4.588 0 0 1-3.527 1.656c-1.147.014-2.275-.286-3.211-.988a4.661 4.661 0 0 1-1.684-2.455 4.77 4.77 0 0 1-.183-1.419 5.475 5.475 0 0 1 1.301-3.411 4.687 4.687 0 0 1 3.406-1.65zm-2.02 3.79c.147-.296.342-.562.581-.786.222-.209.478-.374.754-.493a2.435 2.435 0 0 1 1.684-.086c.134.042.263.098.388.165a2.696 2.696 0 0 1 1.243 1.495c.24.706.165 1.444-.184 2.097-.29.546-.713 1.003-1.265 1.264a2.275 2.275 0 0 1-2.188-.119 2.8 2.8 0 0 1-1.166-1.498 2.679 2.679 0 0 1 .153-2.039" fill="#1a1812"/><path d="M116.632 42.051c.245-.495.57-.942.97-1.317a4.348 4.348 0 0 1 1.265-.824 4.078 4.078 0 0 1 2.822-.146c.224.071.442.163.65.277a4.519 4.519 0 0 1 2.084 2.505c.4 1.183.278 2.421-.306 3.514-.49.914-1.199 1.68-2.122 2.117a3.824 3.824 0 0 1-2.542.272 3.859 3.859 0 0 1-1.125-.47 4.684 4.684 0 0 1-1.956-2.51 4.469 4.469 0 0 1 .26-3.418zm1.509.807a2.77 2.77 0 0 1 .582-.79 2.61 2.61 0 0 1 .76-.494 2.438 2.438 0 0 1 1.691-.087c.134.042.265.097.39.165a2.714 2.714 0 0 1 1.25 1.503c.239.708.165 1.45-.185 2.107-.293.548-.718 1.007-1.272 1.27a2.291 2.291 0 0 1-2.199-.12 2.811 2.811 0 0 1-1.17-1.505 2.684 2.684 0 0 1 .153-2.05" fill="#3c1b25"/><path d="M117.056 42.278c.218-.44.506-.837.86-1.17a3.85 3.85 0 0 1 1.125-.73 3.616 3.616 0 0 1 2.504-.13c.198.063.391.146.576.245a4.01 4.01 0 0 1 1.85 2.224c.355 1.05.246 2.148-.273 3.119-.434.81-1.062 1.49-1.882 1.88a3.39 3.39 0 0 1-3.255-.178 4.142 4.142 0 0 1-1.734-2.227 3.963 3.963 0 0 1 .23-3.033zm.879.47a3 3 0 0 1 .636-.862 2.81 2.81 0 0 1 .828-.54 2.665 2.665 0 0 1 1.845-.096c.147.047.29.108.425.182.631.345 1.129.94 1.366 1.64.26.773.18 1.584-.202 2.3-.32.598-.784 1.098-1.388 1.385a2.502 2.502 0 0 1-2.4-.13 3.064 3.064 0 0 1-1.279-1.643 2.932 2.932 0 0 1 .169-2.237" fill="#4d2434"/></g><g fill-rule="evenodd"><path d="M85.319 126.529a4.932 4.932 0 0 1 1.802.256c.542.186 1.048.47 1.497.835.86.703 1.486 1.7 1.72 2.812.059.27.092.545.101.822a5.313 5.313 0 0 1-1.223 3.543 4.588 4.588 0 0 1-3.526 1.655c-1.147.014-2.275-.286-3.212-.988a4.661 4.661 0 0 1-1.684-2.455 4.77 4.77 0 0 1-.182-1.418 5.475 5.475 0 0 1 1.3-3.412 4.687 4.687 0 0 1 3.407-1.65zm-2.02 3.79c.147-.296.341-.563.58-.786.222-.209.479-.375.755-.493a2.435 2.435 0 0 1 1.684-.087 2.2 2.2 0 0 1 .387.166 2.696 2.696 0 0 1 1.244 1.494 2.615 2.615 0 0 1-.184 2.098c-.29.545-.714 1.002-1.266 1.264a2.275 2.275 0 0 1-2.188-.12 2.8 2.8 0 0 1-1.166-1.498 2.679 2.679 0 0 1 .154-2.038" fill="#1a1812"/><path d="M81.78 129.506c.245-.496.57-.943.969-1.317a4.348 4.348 0 0 1 1.265-.825 4.078 4.078 0 0 1 2.823-.146c.224.072.441.164.649.277A4.519 4.519 0 0 1 89.57 130c.4 1.183.278 2.422-.305 3.515-.49.914-1.2 1.68-2.123 2.117a3.824 3.824 0 0 1-2.541.272 3.859 3.859 0 0 1-1.126-.471 4.684 4.684 0 0 1-1.955-2.51 4.469 4.469 0 0 1 .26-3.417zm1.508.807a2.77 2.77 0 0 1 .582-.79 2.61 2.61 0 0 1 .76-.495 2.438 2.438 0 0 1 1.692-.087c.133.042.264.098.389.166a2.714 2.714 0 0 1 1.25 1.502c.24.709.165 1.452-.185 2.107-.292.549-.717 1.008-1.271 1.27a2.291 2.291 0 0 1-2.2-.12 2.811 2.811 0 0 1-1.17-1.504 2.684 2.684 0 0 1 .153-2.05" fill="#3c1b25"/><path d="M82.204 129.733c.217-.44.506-.837.86-1.17a3.85 3.85 0 0 1 1.125-.731 3.616 3.616 0 0 1 2.504-.13c.198.063.39.146.576.246a4.01 4.01 0 0 1 1.849 2.223c.356 1.05.246 2.149-.273 3.12-.433.81-1.061 1.49-1.882 1.88a3.39 3.39 0 0 1-3.254-.179 4.142 4.142 0 0 1-1.735-2.227 3.963 3.963 0 0 1 .23-3.033zm.878.469a3 3 0 0 1 .636-.861c.243-.229.523-.411.828-.54a2.665 2.665 0 0 1 1.846-.096c.146.047.29.108.424.181a2.96 2.96 0 0 1 1.366 1.64c.261.774.18 1.585-.202 2.3-.319.598-.784 1.099-1.388 1.386a2.502 2.502 0 0 1-2.4-.13 3.064 3.064 0 0 1-1.278-1.643 2.932 2.932 0 0 1 .168-2.237" fill="#4d2434"/></g><g fill-rule="evenodd"><path d="M56.721 103.276a4.932 4.932 0 0 1 1.802.256c.542.187 1.048.47 1.497.836.86.703 1.486 1.7 1.721 2.812.058.27.091.545.1.821a5.313 5.313 0 0 1-1.222 3.543 4.588 4.588 0 0 1-3.527 1.656c-1.147.014-2.275-.286-3.212-.988a4.661 4.661 0 0 1-1.684-2.455 4.77 4.77 0 0 1-.182-1.419 5.475 5.475 0 0 1 1.3-3.411 4.687 4.687 0 0 1 3.407-1.65zm-2.02 3.79a2.638 2.638 0 0 1 1.335-1.279 2.435 2.435 0 0 1 1.684-.086c.134.042.263.098.387.165a2.696 2.696 0 0 1 1.244 1.495c.24.706.165 1.444-.184 2.097-.29.546-.714 1.003-1.266 1.264a2.275 2.275 0 0 1-2.188-.119 2.8 2.8 0 0 1-1.166-1.498 2.679 2.679 0 0 1 .154-2.039" fill="#1a1812"/><path d="M53.182 106.253c.245-.495.57-.942.969-1.316a4.348 4.348 0 0 1 1.265-.825 4.078 4.078 0 0 1 2.823-.146c.224.072.441.164.649.277a4.519 4.519 0 0 1 2.084 2.505c.4 1.183.278 2.421-.305 3.514-.49.914-1.2 1.68-2.122 2.118a3.824 3.824 0 0 1-2.542.272 3.859 3.859 0 0 1-1.126-.472 4.684 4.684 0 0 1-1.955-2.51 4.469 4.469 0 0 1 .26-3.417zm1.509.807a2.77 2.77 0 0 1 .581-.79 2.61 2.61 0 0 1 .76-.494 2.438 2.438 0 0 1 1.692-.087c.134.042.265.098.389.166a2.714 2.714 0 0 1 1.25 1.502c.24.708.165 1.451-.185 2.107-.292.548-.717 1.007-1.271 1.27a2.291 2.291 0 0 1-2.2-.12 2.811 2.811 0 0 1-1.17-1.504 2.684 2.684 0 0 1 .154-2.05" fill="#3c1b25"/><path d="M53.606 106.48a4.06 4.06 0 0 1 .86-1.169 3.85 3.85 0 0 1 1.125-.732 3.616 3.616 0 0 1 2.504-.13c.198.064.39.147.576.247a4.01 4.01 0 0 1 1.849 2.223c.356 1.05.247 2.148-.272 3.12-.434.81-1.062 1.49-1.883 1.879a3.39 3.39 0 0 1-3.254-.178 4.142 4.142 0 0 1-1.735-2.227 3.963 3.963 0 0 1 .23-3.033zm.879.47a3 3 0 0 1 .635-.862c.243-.228.523-.41.829-.54a2.665 2.665 0 0 1 1.845-.095 2.4 2.4 0 0 1 .424.18c.632.346 1.13.942 1.366 1.64.261.774.18 1.585-.202 2.3-.318.599-.783 1.1-1.388 1.386a2.502 2.502 0 0 1-2.4-.13 3.064 3.064 0 0 1-1.278-1.643 2.932 2.932 0 0 1 .169-2.237" fill="#4d2434"/></g><g fill-rule="evenodd"><path d="M50.339 23.883a4.932 4.932 0 0 1 1.801.256c.543.187 1.049.47 1.498.836.86.703 1.485 1.7 1.72 2.812.059.27.092.545.101.821a5.313 5.313 0 0 1-1.223 3.543 4.588 4.588 0 0 1-3.526 1.656c-1.148.014-2.276-.286-3.212-.988a4.661 4.661 0 0 1-1.684-2.455 4.77 4.77 0 0 1-.182-1.419 5.475 5.475 0 0 1 1.3-3.411 4.687 4.687 0 0 1 3.407-1.65zm-2.02 3.79c.147-.296.341-.562.58-.786a2.59 2.59 0 0 1 .755-.493 2.435 2.435 0 0 1 1.684-.086c.133.042.262.098.387.165a2.696 2.696 0 0 1 1.244 1.495 2.613 2.613 0 0 1-.184 2.097c-.29.546-.714 1.003-1.266 1.264a2.275 2.275 0 0 1-2.188-.119 2.8 2.8 0 0 1-1.166-1.498 2.679 2.679 0 0 1 .154-2.039" fill="#1a1812"/><path d="M46.8 26.86a4.6 4.6 0 0 1 .968-1.317 4.348 4.348 0 0 1 1.266-.824 4.078 4.078 0 0 1 2.823-.146c.224.071.44.163.649.277a4.519 4.519 0 0 1 2.084 2.505c.4 1.183.278 2.421-.305 3.514-.49.914-1.2 1.68-2.123 2.117a3.824 3.824 0 0 1-2.542.273 3.859 3.859 0 0 1-1.125-.472 4.684 4.684 0 0 1-1.955-2.51 4.469 4.469 0 0 1 .26-3.417zm1.508.807a2.77 2.77 0 0 1 .582-.79 2.61 2.61 0 0 1 .76-.494 2.438 2.438 0 0 1 1.691-.087c.134.042.265.097.39.165a2.714 2.714 0 0 1 1.25 1.503c.24.708.165 1.451-.185 2.107-.292.548-.717 1.007-1.271 1.27a2.291 2.291 0 0 1-2.2-.12 2.811 2.811 0 0 1-1.17-1.505 2.684 2.684 0 0 1 .153-2.05" fill="#3c1b25"/><path d="M47.224 27.087c.217-.44.505-.837.86-1.17a3.85 3.85 0 0 1 1.125-.73 3.616 3.616 0 0 1 2.503-.13c.199.063.391.146.576.245a4.01 4.01 0 0 1 1.85 2.224c.355 1.05.246 2.148-.273 3.119-.433.81-1.061 1.49-1.882 1.88a3.39 3.39 0 0 1-3.255-.178 4.142 4.142 0 0 1-1.734-2.227 3.963 3.963 0 0 1 .23-3.033zm.878.47a3 3 0 0 1 .636-.862 2.81 2.81 0 0 1 .828-.54 2.665 2.665 0 0 1 1.846-.096c.146.047.29.108.424.182a2.96 2.96 0 0 1 1.366 1.64c.261.773.18 1.584-.202 2.3-.319.598-.784 1.098-1.388 1.385a2.502 2.502 0 0 1-2.4-.13 3.064 3.064 0 0 1-1.279-1.643 2.932 2.932 0 0 1 .17-2.237" fill="#4d2434"/></g><g fill-rule="evenodd"><path d="M46.26 125.072a4.932 4.932 0 0 1 1.8.256c.544.186 1.05.47 1.498.836.86.703 1.486 1.7 1.721 2.812.058.27.091.545.1.821a5.313 5.313 0 0 1-1.222 3.543 4.588 4.588 0 0 1-3.527 1.656c-1.147.014-2.275-.286-3.212-.988a4.661 4.661 0 0 1-1.684-2.455 4.77 4.77 0 0 1-.182-1.419 5.475 5.475 0 0 1 1.301-3.411 4.687 4.687 0 0 1 3.406-1.65zm-2.02 3.79c.146-.296.34-.562.58-.786.222-.209.478-.374.754-.493a2.435 2.435 0 0 1 1.684-.086c.134.042.263.098.387.165a2.696 2.696 0 0 1 1.244 1.495c.24.706.165 1.444-.184 2.097-.29.546-.713 1.003-1.266 1.264a2.275 2.275 0 0 1-2.187-.119 2.8 2.8 0 0 1-1.167-1.498 2.679 2.679 0 0 1 .154-2.039" fill="#1a1812"/><path d="M42.72 128.05c.245-.496.57-.943.969-1.318a4.348 4.348 0 0 1 1.266-.824 4.078 4.078 0 0 1 2.822-.146c.224.071.441.163.65.277a4.519 4.519 0 0 1 2.084 2.505c.4 1.183.278 2.421-.306 3.514-.49.914-1.2 1.68-2.122 2.117a3.824 3.824 0 0 1-2.542.273 3.859 3.859 0 0 1-1.125-.472 4.684 4.684 0 0 1-1.956-2.51 4.469 4.469 0 0 1 .26-3.417zm1.509.806a2.77 2.77 0 0 1 .581-.79 2.61 2.61 0 0 1 .76-.494 2.438 2.438 0 0 1 1.692-.087c.134.042.265.097.389.165a2.714 2.714 0 0 1 1.25 1.503c.24.708.166 1.451-.184 2.107-.293.548-.718 1.007-1.272 1.27a2.291 2.291 0 0 1-2.2-.12 2.811 2.811 0 0 1-1.17-1.505 2.684 2.684 0 0 1 .154-2.05" fill="#3c1b25"/><path d="M43.144 128.276c.218-.44.506-.837.86-1.17a3.85 3.85 0 0 1 1.125-.73 3.616 3.616 0 0 1 2.504-.13c.198.063.39.146.576.245a4.01 4.01 0 0 1 1.85 2.224c.355 1.05.246 2.148-.273 3.119-.434.81-1.062 1.49-1.883 1.88a3.39 3.39 0 0 1-3.254-.178 4.142 4.142 0 0 1-1.734-2.227 3.963 3.963 0 0 1 .23-3.033zm.879.47a3 3 0 0 1 .636-.862c.242-.229.522-.41.828-.54a2.665 2.665 0 0 1 1.845-.096c.146.047.29.108.424.182.632.345 1.13.94 1.367 1.64.26.773.179 1.584-.202 2.3-.32.598-.784 1.098-1.389 1.385a2.502 2.502 0 0 1-2.4-.13 3.064 3.064 0 0 1-1.278-1.643 2.932 2.932 0 0 1 .169-2.237" fill="#4d2434"/></g><g fill-rule="evenodd"><path d="M110.175 120.114a4.932 4.932 0 0 1 1.802.256c.542.187 1.048.47 1.497.836.86.703 1.486 1.7 1.72 2.812.059.27.092.545.102.821a5.313 5.313 0 0 1-1.223 3.543 4.588 4.588 0 0 1-3.527 1.656c-1.147.014-2.275-.286-3.212-.988a4.661 4.661 0 0 1-1.684-2.455 4.77 4.77 0 0 1-.182-1.419 5.475 5.475 0 0 1 1.3-3.411 4.687 4.687 0 0 1 3.407-1.65zm-2.02 3.79a2.638 2.638 0 0 1 1.335-1.279 2.435 2.435 0 0 1 1.684-.086c.134.042.263.098.387.165a2.696 2.696 0 0 1 1.244 1.495 2.613 2.613 0 0 1-.184 2.097c-.29.546-.714 1.003-1.266 1.264a2.275 2.275 0 0 1-2.188-.119 2.8 2.8 0 0 1-1.166-1.498 2.679 2.679 0 0 1 .154-2.039" fill="#1a1812"/><path d="M106.636 123.091c.245-.495.57-.942.969-1.316a4.348 4.348 0 0 1 1.265-.825 4.078 4.078 0 0 1 2.823-.146c.224.072.441.164.649.277a4.519 4.519 0 0 1 2.084 2.505c.4 1.183.278 2.421-.305 3.514-.49.914-1.2 1.68-2.123 2.118a3.824 3.824 0 0 1-2.541.272 3.859 3.859 0 0 1-1.126-.472 4.684 4.684 0 0 1-1.955-2.51 4.469 4.469 0 0 1 .26-3.417zm1.508.807a2.77 2.77 0 0 1 .582-.79 2.61 2.61 0 0 1 .76-.494 2.438 2.438 0 0 1 1.692-.087c.134.042.264.098.389.166a2.714 2.714 0 0 1 1.25 1.502c.24.708.165 1.451-.185 2.107-.292.548-.717 1.007-1.271 1.27a2.291 2.291 0 0 1-2.2-.12 2.811 2.811 0 0 1-1.17-1.504 2.684 2.684 0 0 1 .153-2.05" fill="#3c1b25"/><path d="M107.06 123.318a4.06 4.06 0 0 1 .86-1.169 3.85 3.85 0 0 1 1.125-.732 3.616 3.616 0 0 1 2.504-.13c.198.064.39.147.576.246a4.01 4.01 0 0 1 1.849 2.224c.356 1.05.247 2.148-.272 3.12-.434.81-1.062 1.49-1.883 1.879a3.39 3.39 0 0 1-3.254-.178 4.142 4.142 0 0 1-1.735-2.227 3.963 3.963 0 0 1 .23-3.033zm.879.47a3 3 0 0 1 .635-.862c.243-.228.523-.41.829-.54a2.665 2.665 0 0 1 1.845-.095 2.4 2.4 0 0 1 .424.18c.632.346 1.13.942 1.366 1.64.261.774.18 1.585-.202 2.3-.319.599-.783 1.1-1.388 1.386a2.502 2.502 0 0 1-2.4-.13 3.064 3.064 0 0 1-1.278-1.643 2.932 2.932 0 0 1 .169-2.237" fill="#4d2434"/></g><g fill-rule="evenodd"><path d="M100.019 41.002a4.932 4.932 0 0 1 1.801.257c.543.186 1.049.47 1.498.835.86.703 1.485 1.7 1.72 2.812.059.27.092.545.101.822a5.313 5.313 0 0 1-1.223 3.542 4.588 4.588 0 0 1-3.526 1.656c-1.147.014-2.276-.286-3.212-.988a4.661 4.661 0 0 1-1.684-2.455 4.77 4.77 0 0 1-.182-1.419 5.475 5.475 0 0 1 1.3-3.41 4.687 4.687 0 0 1 3.407-1.652zm-2.02 3.79c.147-.296.341-.562.58-.785a2.55 2.55 0 0 1 .755-.493 2.435 2.435 0 0 1 1.684-.087c.133.043.263.098.387.166a2.696 2.696 0 0 1 1.244 1.494 2.613 2.613 0 0 1-.184 2.097c-.29.546-.714 1.003-1.266 1.264a2.275 2.275 0 0 1-2.188-.119 2.8 2.8 0 0 1-1.166-1.498 2.679 2.679 0 0 1 .154-2.039" fill="#1a1812"/><path d="M96.48 43.98c.244-.496.57-.943.968-1.317a4.348 4.348 0 0 1 1.266-.825 4.078 4.078 0 0 1 2.823-.146c.224.072.44.164.649.277a4.519 4.519 0 0 1 2.084 2.505c.4 1.183.278 2.421-.305 3.514-.49.915-1.2 1.68-2.123 2.118a3.824 3.824 0 0 1-2.542.272 3.859 3.859 0 0 1-1.125-.472 4.684 4.684 0 0 1-1.955-2.51 4.469 4.469 0 0 1 .26-3.416zm1.508.806a2.77 2.77 0 0 1 .582-.79 2.61 2.61 0 0 1 .76-.494 2.438 2.438 0 0 1 1.691-.087c.134.042.265.098.39.166a2.714 2.714 0 0 1 1.25 1.502c.24.709.165 1.451-.185 2.107-.292.549-.717 1.008-1.271 1.27a2.291 2.291 0 0 1-2.2-.12 2.811 2.811 0 0 1-1.17-1.504 2.684 2.684 0 0 1 .153-2.05" fill="#3c1b25"/><path d="M96.904 44.206c.217-.44.505-.836.86-1.169a3.85 3.85 0 0 1 1.125-.732 3.616 3.616 0 0 1 2.503-.13c.199.064.391.147.576.247a4.01 4.01 0 0 1 1.85 2.223c.355 1.05.246 2.148-.273 3.12-.433.81-1.061 1.49-1.882 1.879a3.39 3.39 0 0 1-3.254-.178 4.142 4.142 0 0 1-1.735-2.227 3.963 3.963 0 0 1 .23-3.033zm.878.47a3 3 0 0 1 .636-.862 2.83 2.83 0 0 1 .828-.54 2.665 2.665 0 0 1 1.846-.095c.146.047.29.107.424.181a2.964 2.964 0 0 1 1.366 1.64c.261.774.18 1.584-.202 2.3-.319.598-.784 1.099-1.388 1.386a2.502 2.502 0 0 1-2.4-.131 3.064 3.064 0 0 1-1.279-1.642 2.932 2.932 0 0 1 .17-2.237" fill="#4d2434"/></g><g fill-rule="evenodd"><path d="M128.35 70.67a4.932 4.932 0 0 1 1.8.256c.544.186 1.05.47 1.498.835.86.703 1.486 1.7 1.721 2.812.058.27.091.545.1.822a5.313 5.313 0 0 1-1.222 3.542 4.588 4.588 0 0 1-3.527 1.656c-1.147.014-2.275-.286-3.211-.988a4.661 4.661 0 0 1-1.685-2.455 4.77 4.77 0 0 1-.182-1.419 5.475 5.475 0 0 1 1.301-3.411 4.687 4.687 0 0 1 3.406-1.65zm-2.02 3.789c.146-.296.34-.562.58-.786.222-.208.478-.374.754-.492a2.435 2.435 0 0 1 1.684-.087c.134.043.263.098.387.165a2.696 2.696 0 0 1 1.244 1.495c.24.706.165 1.444-.184 2.097-.29.546-.713 1.003-1.266 1.264a2.275 2.275 0 0 1-2.187-.119 2.8 2.8 0 0 1-1.167-1.498 2.679 2.679 0 0 1 .154-2.039" fill="#1a1812"/><path d="M124.81 73.647c.245-.496.57-.943.969-1.317a4.348 4.348 0 0 1 1.266-.825 4.078 4.078 0 0 1 2.822-.146c.224.072.441.164.65.277a4.519 4.519 0 0 1 2.084 2.505c.4 1.183.278 2.421-.306 3.514-.49.914-1.2 1.68-2.122 2.118a3.824 3.824 0 0 1-2.542.272 3.859 3.859 0 0 1-1.125-.472 4.684 4.684 0 0 1-1.956-2.51 4.469 4.469 0 0 1 .26-3.417zm1.509.806a2.77 2.77 0 0 1 .581-.79 2.61 2.61 0 0 1 .76-.494 2.438 2.438 0 0 1 1.692-.087c.134.042.265.098.39.166a2.714 2.714 0 0 1 1.25 1.502 2.632 2.632 0 0 1-.185 2.107c-.293.549-.718 1.008-1.272 1.27a2.291 2.291 0 0 1-2.2-.12 2.811 2.811 0 0 1-1.17-1.504 2.684 2.684 0 0 1 .154-2.05" fill="#3c1b25"/><path d="M125.234 73.873c.218-.44.506-.837.86-1.169a3.85 3.85 0 0 1 1.125-.732 3.616 3.616 0 0 1 2.504-.13c.198.064.39.147.576.247a4.01 4.01 0 0 1 1.85 2.223c.355 1.05.246 2.148-.273 3.12-.434.81-1.062 1.49-1.883 1.879a3.39 3.39 0 0 1-3.254-.178 4.142 4.142 0 0 1-1.734-2.227 3.963 3.963 0 0 1 .23-3.033zm.879.47a3 3 0 0 1 .636-.862c.242-.228.522-.41.828-.54a2.665 2.665 0 0 1 1.845-.095c.146.047.29.107.424.18.632.346 1.13.942 1.367 1.64a2.88 2.88 0 0 1-.202 2.3c-.32.599-.784 1.1-1.389 1.387a2.502 2.502 0 0 1-2.399-.131 3.064 3.064 0 0 1-1.279-1.643 2.932 2.932 0 0 1 .169-2.236" fill="#4d2434"/></g><g fill-rule="evenodd"><path d="M55.385 58.91a4.932 4.932 0 0 1 1.801.256c.543.186 1.049.47 1.498.835.86.703 1.485 1.7 1.72 2.812.059.27.092.545.101.822a5.313 5.313 0 0 1-1.223 3.542 4.588 4.588 0 0 1-3.526 1.656c-1.147.014-2.276-.286-3.212-.988a4.661 4.661 0 0 1-1.684-2.455 4.77 4.77 0 0 1-.182-1.419 5.475 5.475 0 0 1 1.3-3.41 4.687 4.687 0 0 1 3.407-1.652zm-2.02 3.79c.147-.297.341-.563.58-.786a2.55 2.55 0 0 1 .755-.493 2.435 2.435 0 0 1 1.684-.087c.133.043.263.098.387.166a2.696 2.696 0 0 1 1.244 1.494 2.613 2.613 0 0 1-.184 2.097c-.29.546-.714 1.003-1.266 1.264a2.275 2.275 0 0 1-2.188-.119 2.8 2.8 0 0 1-1.166-1.498 2.679 2.679 0 0 1 .154-2.039" fill="#1a1812"/><path d="M51.846 61.887c.244-.496.57-.943.968-1.317a4.348 4.348 0 0 1 1.266-.825 4.078 4.078 0 0 1 2.823-.146c.224.072.44.164.649.277a4.519 4.519 0 0 1 2.084 2.505c.4 1.183.278 2.421-.305 3.514-.49.915-1.2 1.68-2.123 2.118a3.824 3.824 0 0 1-2.542.272 3.859 3.859 0 0 1-1.125-.472 4.684 4.684 0 0 1-1.955-2.51 4.469 4.469 0 0 1 .26-3.416zm1.508.806a2.77 2.77 0 0 1 .582-.789 2.61 2.61 0 0 1 .76-.495 2.438 2.438 0 0 1 1.691-.087c.134.042.265.098.39.166a2.714 2.714 0 0 1 1.25 1.502c.24.709.165 1.451-.185 2.107-.292.549-.717 1.008-1.271 1.27a2.291 2.291 0 0 1-2.2-.12 2.811 2.811 0 0 1-1.17-1.504 2.684 2.684 0 0 1 .153-2.05" fill="#3c1b25"/><path d="M52.27 62.113c.217-.44.505-.836.86-1.169a3.85 3.85 0 0 1 1.125-.731 3.616 3.616 0 0 1 2.503-.13c.199.063.391.146.576.246a4.01 4.01 0 0 1 1.85 2.223c.355 1.05.246 2.149-.273 3.12-.433.81-1.061 1.49-1.882 1.88a3.39 3.39 0 0 1-3.254-.179 4.142 4.142 0 0 1-1.735-2.227 3.963 3.963 0 0 1 .23-3.033zm.878.47a3 3 0 0 1 .636-.862 2.83 2.83 0 0 1 .828-.54 2.665 2.665 0 0 1 1.846-.095c.146.047.29.107.424.181a2.964 2.964 0 0 1 1.366 1.64c.261.774.18 1.584-.202 2.3-.319.598-.784 1.099-1.388 1.386a2.502 2.502 0 0 1-2.4-.131 3.064 3.064 0 0 1-1.279-1.642 2.932 2.932 0 0 1 .17-2.237" fill="#4d2434"/></g></svg>