<svg xmlns="http://www.w3.org/2000/svg" width="600" height="600" viewBox="0 0 158.75 158.75"><g fill-rule="evenodd"><path d="M99.573 29.714l-12.9-7.208-1.11-2.008-.52.24c-.74.31-.529.873-.327 1.65l3.848 14.974c.3 1.15-.053 1.061 1.086 1.381l.658.184.451-.68c5.292-.805 7.361-3.446 8.814-8.533" fill="#fac009"/><path d="M97.149 37.406c-1.95 1.861-3.972 2.187-6.595 1.579l-.246-.058-4.551-17.562c-.286-1.095-.411-1.078.6-.513l15.66 8.75-.03.273c-.246 2.205-1.913 7.762-4.838 7.53" fill="#fac009"/><path d="M101.574 29.83l-15.428-8.62 4.502 17.37c2.571.595 4.476.257 6.354-1.612 2.637.463 4.326-4.93 4.572-7.138" fill="#f9f13a"/><path d="M86.865 22.23c-.37-1.082 1.075.359 1.5.621.423.263.912.36 1.104.676.194.313.136.61-.134.91-.27.297-1.003.595-1.32.694-.315.1-.283.44-.478-.13-.195-.57-.3-1.692-.672-2.771m11.946 6.853a7333.252 7333.252 0 0 1-5.56-3.267c-.614-.36-1.108-.641-1.788-.844-1.035-.306-.703-.152.462.84 1.826 1.556 1.198 1.732-.236.352-1.388-1.285-1.513-.643-.803.392 2.308 5.336-3.087-4.753-.013 1.604l3.725 5.992c1.053 1.692 2.341 1.741 2.627-.389.222-1.653-1.726-1.827-3.331-4.836 4.198 2.35 3.143 5.746 5.778 2.433.625-1.622.639-1.397-.86-2.277m-7.195 2.237c.941 1.76 2.177 2.94 2.02 4.404-.236 2.186-.846 1.147-1.36-.107-1.07-2.604-.638-1.28-.52.646.1 1.626-.1 1.162-.699.32-1.22-1.716-1.832-5.576-2.35-8.525a44.567 44.567 0 0 0-.441-2.28c1.881.91 2.48 3.677 3.35 5.542m30.26 51.08l-1.371 14.713-1.388 1.828.43.378c.583.55 1.012.13 1.642-.369l12.136-9.577c.93-.74.992-.38.823-1.552l-.097-.676-.805-.137c-2.877-4.514-6.13-5.338-11.37-4.608" fill="#fac009"/><path d="M129.892 81.505c2.491 1.03 3.608 2.747 4.113 5.392l.047.248-14.22 11.268c-.886.704-.82.812-.712-.342l1.666-17.862.262-.083c2.116-.667 7.873-1.39 8.844 1.379" fill="#fac009"/><path d="M121.174 80.523l-1.64 17.596 14.062-11.144c-.495-2.593-1.576-4.198-4.044-5.159-.644-2.6-6.259-1.961-8.378-1.293" fill="#f9f13a"/><path d="M120.175 97.05c-.84.776-.107-1.129-.038-1.623.068-.494-.04-.98.17-1.284.208-.304.504-.37.886-.246.381.127.95.677 1.17.926.218.248.516.082.074.491-.441.408-1.426.96-2.262 1.735m1.433-13.697c-.244 2.135-.49 4.271-.737 6.407-.08.707-.138 1.272-.048 1.976.138 1.07.144.705.58-.763.685-2.299 1.1-1.795.418.075-.614 1.788.024 1.643.684.575 3.945-4.27-3.098 4.746 1.471-.637l3.972-5.831c1.123-1.648.646-2.846-1.417-2.245-1.602.466-.973 2.317-3.075 5.003.45-4.79 3.983-5.2-.113-6.269-1.737.085-1.536-.019-1.735 1.709m4.957 5.674c1.229-1.573 1.808-3.18 3.21-3.629 2.095-.669 1.391.309.453 1.287-1.949 2.031-.913 1.102.801.214 1.446-.749 1.103-.378.576.51-1.077 1.81-4.358 3.931-6.846 5.597-.73.488-1.389.937-1.907 1.327.072-2.09 2.36-3.757 3.713-5.306M42.543 106.97l-1.372 14.712-1.387 1.828.43.378c.583.55 1.012.13 1.641-.369l12.136-9.577c.93-.74.992-.38.824-1.552l-.098-.676-.804-.137c-2.877-4.514-6.13-5.338-11.37-4.608" fill="#fac009"/><path d="M50.558 106.074c2.491 1.03 3.607 2.747 4.112 5.392l.047.248-14.219 11.268c-.886.704-.82.812-.712-.342l1.666-17.862.261-.083c2.117-.667 7.874-1.39 8.845 1.379" fill="#fac009"/><path d="M41.84 105.091l-1.641 17.597 14.062-11.144c-.495-2.593-1.575-4.198-4.043-5.159-.644-2.6-6.26-1.961-8.378-1.294" fill="#f9f13a"/><path d="M40.84 121.618c-.839.777-.106-1.128-.037-1.622.068-.494-.04-.98.17-1.284.208-.304.504-.37.886-.246.38.127.95.677 1.17.926.218.248.516.082.074.491-.442.408-1.426.96-2.262 1.735m1.433-13.698l-.738 6.408c-.08.707-.138 1.272-.048 1.976.138 1.07.145.704.582-.763.683-2.299 1.098-1.795.416.075-.613 1.788.025 1.643.684.575 3.946-4.27-3.097 4.746 1.472-.637l3.972-5.831c1.122-1.648.646-2.846-1.418-2.245-1.601.466-.972 2.317-3.075 5.003.451-4.79 3.983-5.2-.112-6.269-1.737.085-1.536-.019-1.735 1.709m4.956 5.674c1.23-1.573 1.809-3.18 3.21-3.629 2.095-.669 1.392.309.454 1.287-1.95 2.031-.913 1.102.801.214 1.446-.749 1.103-.378.575.51-1.076 1.81-4.357 3.931-6.846 5.597-.73.488-1.388.937-1.906 1.327.072-2.09 2.36-3.757 3.713-5.306m-8.449-54.847l.178-14.776 1.236-1.934-.459-.342c-.626-.502-1.02-.048-1.607.5L26.808 52.722c-.868.812-.958.46-.696 1.614l.152.666.813.071c3.232 4.267 6.54 4.825 11.705 3.675" fill="#fac009"/><path d="M30.865 60.288c-2.566-.826-3.817-2.448-4.534-5.043l-.067-.243 13.262-12.38c.827-.774.752-.876.738.284l-.218 17.937-.254.104c-2.055.836-7.735 2.022-8.927-.66" fill="#fac009"/><path d="M39.635 60.562l.214-17.672-13.117 12.245c.703 2.543 1.91 4.056 4.447 4.815.852 2.538 6.397 1.449 8.456.612" fill="#f9f13a"/><path d="M39.295 44.009c.774-.842.198 1.116.17 1.614-.03.497.118.974-.067 1.293-.183.32-.472.41-.863.317-.39-.095-1.002-.598-1.24-.829-.238-.23-.522-.04-.114-.483.407-.442 1.343-1.071 2.114-1.912m-.322 13.768c.071-2.148.145-4.297.218-6.445.023-.711.034-1.28-.112-1.974-.224-1.056-.201-.69-.518.807-.496 2.347-.95 1.879-.421-.04.467-1.832-.157-1.636-.728-.518-3.588 4.574 2.704-4.981-1.416.754l-3.488 6.132c-.985 1.733-.414 2.889 1.595 2.123 1.558-.593.782-2.388 2.66-5.235-.062 4.812-3.55 5.505.619 6.24 1.724-.226 1.533-.106 1.591-1.844m-5.399-5.255c-1.097 1.667-1.545 3.316-2.906 3.876-2.034.836-1.412-.195-.556-1.246 1.779-2.182.821-1.171-.816-.149-1.38.864-1.068.467-.614-.46.926-1.892 4.026-4.271 6.371-6.133a44.567 44.567 0 0 0 1.794-1.477c.096 2.089-2.05 3.935-3.273 5.59m5.95 40.059l-.39-14.772 1.16-1.98-.472-.324c-.644-.477-1.02-.01-1.586.561l-10.91 10.954c-.835.845-.939.496-.632 1.64l.177.66.815.04c3.395 4.139 6.722 4.57 11.838 3.22" fill="#fac009"/><path d="M31.672 94.425c-2.595-.726-3.908-2.299-4.724-4.864l-.077-.24 12.777-12.882c.796-.804.717-.903.748.255l.472 17.933-.25.113c-2.021.915-7.651 2.318-8.946-.315" fill="#fac009"/><path d="M40.446 94.362l-.466-17.667-12.636 12.74c.8 2.515 2.064 3.98 4.63 4.64.948 2.504 6.447 1.202 8.472.287" fill="#f9f13a"/><path d="M39.47 77.834c.741-.871.24 1.107.231 1.606-.01.499.157.969-.016 1.295-.17.327-.456.429-.851.35-.393-.08-1.024-.559-1.271-.78-.246-.22-.523-.02-.132-.479.39-.458 1.3-1.122 2.039-1.992m.208 13.771c-.012-2.15-.021-4.3-.03-6.45-.005-.711-.015-1.28-.188-1.968-.265-1.046-.228-.682-.487.827-.405 2.364-.877 1.914-.422-.024.396-1.849-.22-1.629-.748-.49-3.41 4.71 2.51-5.081-1.385.808l-3.25 6.262c-.918 1.77-.302 2.902 1.675 2.06 1.535-.653.69-2.416 2.458-5.333.122 4.81-3.336 5.637.858 6.21 1.714-.29 1.527-.163 1.519-1.902m-5.598-5.044c-1.032 1.708-1.416 3.373-2.754 3.985-2 .914-1.419-.14-.603-1.224 1.693-2.248.775-1.202-.821-.117-1.347.916-1.05.507-.632-.437.853-1.926 3.858-4.422 6.13-6.373a44.567 44.567 0 0 0 1.736-1.545c.177 2.084-1.896 4.011-3.055 5.711m60.877 35.643l-13.93-4.93-1.433-1.793-.472.324c-.676.431-.374.95-.044 1.682l6.316 14.11c.49 1.084.127 1.056 1.304 1.18l.68.07.33-.746c5.08-1.686 6.674-4.637 7.249-9.897" fill="#fac009"/><path d="M93.865 130.195c-1.608 2.163-3.547 2.825-6.235 2.667l-.251-.015-7.447-16.544c-.466-1.032-.586-.993.506-.607l16.911 5.986.017.274c.128 2.215-.579 7.974-3.501 8.238" fill="#fac009"/><path d="M96.95 121.981l-16.66-5.896 7.365 16.362c2.635.154 4.455-.5 5.991-2.659 2.678.012 3.433-5.588 3.305-7.807" fill="#f9f13a"/><path d="M81.17 116.969c-.547-1.004 1.12.173 1.583.36.462.187.96.2 1.203.48.244.276.237.578.021.919-.215.338-.888.755-1.183.907-.294.15-.206.48-.494-.048-.288-.528-.582-1.617-1.13-2.618m12.931 4.741l-6.032-2.283c-.665-.25-1.2-.445-1.904-.53-1.072-.128-.719-.032.597.75 2.062 1.226 1.472 1.505-.174.386-1.584-1.032-1.6-.378-.725.523 3.175 4.87-3.844-4.165.258 1.582l4.682 5.279c1.322 1.49 2.6 1.322 2.523-.826-.06-1.667-2.009-1.51-4.098-4.205 4.534 1.61 4.066 5.134 6.105 1.424.343-1.704.395-1.484-1.232-2.1m-6.714 3.418c1.224 1.576 2.64 2.531 2.733 4 .135 2.195-.64 1.274-1.36.125-1.492-2.387-.844-1.155-.403.724.372 1.585.097 1.162-.634.433-1.493-1.486-2.746-5.187-3.753-8.007a44.567 44.567 0 0 0-.82-2.174c2.008.582 3.065 3.208 4.237 4.899M117.331 52.21l9.407-11.395 2.175-.731-.142-.555c-.173-.783-.765-.677-1.565-.618l-15.421 1.096c-1.185.089-1.035-.242-1.554.82l-.3.615.589.566c-.159 5.35 2.067 7.86 6.811 10.203" fill="#fac009"/><path d="M110.2 48.445c-1.481-2.253-1.438-4.3-.369-6.772l.1-.23 18.095-1.324c1.129-.084 1.134-.21.396.683l-11.42 13.834-.263-.078c-2.125-.639-7.293-3.277-6.54-6.113" fill="#fac009"/><path d="M116.857 54.16l11.251-13.63-17.895 1.31c-1.048 2.421-1.058 4.356.443 6.539-.929 2.511 4.073 5.14 6.201 5.78" fill="#f9f13a"/><path d="M126.976 41.054c1.13-.17-.546.993-.88 1.363-.335.37-.519.833-.864.966-.343.134-.625.023-.87-.295-.244-.319-.406-1.094-.447-1.423-.04-.328-.381-.358.215-.448.594-.09 1.718.008 2.846-.163m-8.887 10.521l4.212-4.883c.464-.54.83-.975 1.151-1.608.488-.962.277-.664-.91.305-1.858 1.516-1.918.867-.302-.296 1.513-1.135.904-1.373-.242-.86-5.664 1.312 5.23-2.184-1.575-.301l-6.564 2.588c-1.854.731-2.134 1.99-.09 2.653 1.587.516 2.107-1.369 5.356-2.407-3.066 3.708-6.217 2.06-3.431 5.247 1.484.906 1.26.88 2.395-.438m-.909-7.479c-1.9.61-3.283 1.614-4.695 1.196-2.108-.625-.977-1.038.35-1.32 2.753-.583 1.374-.397-.543-.627-1.617-.193-1.124-.307-.19-.744 1.909-.892 5.815-.801 8.81-.78.877.007 1.674.006 2.322-.025-1.234 1.687-4.063 1.78-6.054 2.3M92.984 87.696l-12.893 7.22-2.292-.104-.068.568c-.122.792.468.908 1.235 1.142l14.773 4.558c1.137.346.877.6 1.746-.203l.501-.464-.343-.74c2.083-4.931.916-8.076-2.66-11.977" fill="#fac009"/><path d="M98.27 93.787c.565 2.636-.216 4.53-2.107 6.446l-.177.18L78.64 95.1c-1.083-.33-1.134-.214-.123-.78l15.653-8.765.216.168c1.75 1.364 5.613 5.693 3.884 8.064" fill="#fac009"/><path d="M94.13 86.051l-15.42 8.636 17.157 5.254c1.854-1.88 2.562-3.68 1.953-6.257 1.775-2.005-1.937-6.267-3.69-7.633" fill="#f9f13a"/><path d="M79.956 94.608c-1.116-.25.868-.728 1.314-.952.446-.224.785-.59 1.154-.589.368 0 .591.205.705.591.112.385-.018 1.166-.098 1.488-.081.32.225.472-.363.34-.586-.132-1.598-.63-2.712-.878m12.092-6.593c-1.897 1.01-3.796 2.02-5.694 3.028-.628.336-1.126.609-1.655 1.083-.803.72-.498.519.958.045 2.28-.741 2.102-.114.175.386-1.82.51-1.339.952-.085.889 5.755.826-5.666.143 1.36.85l7.055-.039c1.993-.01 2.709-1.083 1.043-2.44-1.292-1.055-2.46.514-5.864.307 4.2-2.348 6.542.328 5.097-3.65-1.055-1.382-.855-1.276-2.39-.46m-1.859 7.302c1.992.12 3.644-.316 4.81.584 1.739 1.345.534 1.32-.804 1.103-2.778-.452-1.425-.126.279.781 1.437.766.937.694-.093.763-2.101.141-5.71-1.357-8.494-2.46a44.567 44.567 0 0 0-2.175-.817c1.762-1.126 4.433-.189 6.477.046M49.797 30.815l12.946 3.262 1.44 1.492.396-.331c.572-.444.257-.886-.101-1.517l-6.87-12.16c-.531-.934-.203-.939-1.272-.95l-.617-.007-.234.699c-4.428 1.944-5.614 4.733-5.688 9.512" fill="#fac009"/><path d="M50.108 23.536c1.264-2.081 2.952-2.84 5.383-2.925l.228-.007 8.09 14.254c.507.89.612.845-.403.589L47.69 31.486l-.038-.245c-.302-1.981-.15-7.221 2.456-7.705" fill="#fac009"/><path d="M48.024 31.184l15.482 3.9-8.002-14.097c-2.383.083-3.966.825-5.165 2.896-2.41.215-2.618 5.316-2.315 7.3" fill="#f9f13a"/><path d="M62.64 34.364c.577.857-1.022-.061-1.454-.19-.431-.13-.88-.1-1.123-.33-.242-.229-.26-.502-.096-.826.165-.322.735-.754.988-.916.252-.16.145-.45.449.002.303.45.659 1.405 1.236 2.26m-12.03-3.177c1.872.514 3.745 1.03 5.617 1.546.62.17 1.117.3 1.758.317.975.025.65-.032-.6-.625-1.958-.929-1.451-1.23.124-.362 1.511.796 1.47.206.608-.53-3.266-4.114 3.808 3.422-.365-1.402l-4.656-4.354c-1.315-1.23-2.45-.97-2.2.955.194 1.494 1.934 1.189 4.04 3.438-4.214-1.066-4.09-4.276-5.611-.768-.165 1.562-.23 1.369 1.285 1.785m5.751-3.639c-1.233-1.315-2.589-2.054-2.795-3.368-.307-1.963.469-1.2 1.212-.226 1.544 2.02.857.967.302-.686-.468-1.395-.185-1.037.534-.443 1.468 1.211 2.907 4.435 4.05 6.887.335.719.644 1.369.92 1.886-1.855-.354-3.026-2.627-4.223-4.05" fill="#fac009"/><g><path d="M61.772 80.967L58.238 66.62l.71-2.181-.53-.217c-.731-.328-1 .21-1.43.887l-8.319 13.03c-.636 1.005-.812.686-.268 1.738l.314.606.805-.134c4.2 3.319 7.542 3.03 12.252.62" fill="#fac009"/><path d="M54.495 84.444c-2.69-.155-4.31-1.41-5.654-3.743l-.126-.219 9.732-15.311c.606-.956.508-1.036.785.09l4.29 17.418-.22.164c-1.78 1.324-6.98 3.898-8.807 1.601" fill="#fac009"/><path d="M63.053 82.51l-4.227-17.16-9.624 15.143c1.318 2.286 2.866 3.448 5.513 3.545 1.461 2.244 6.555-.202 8.338-1.528" fill="#f9f13a"/><path d="M58.571 66.571c.538-1.01.471 1.03.569 1.52.097.489.36.913.26 1.269-.097.355-.354.515-.756.523-.401.005-1.12-.327-1.409-.49-.287-.164-.515.091-.231-.44.283-.53 1.032-1.374 1.567-2.382m3.143 13.409c-.47-2.097-.938-4.196-1.407-6.294-.156-.694-.287-1.247-.603-1.883-.482-.965-.368-.617-.299.912.109 2.396-.448 2.057-.418.066-.008-1.89-.562-1.544-.835-.318-2.325 5.328 1.368-5.5-1.18 1.084l-1.838 6.812c-.52 1.925.324 2.9 2.076 1.655 1.36-.965.158-2.508 1.262-5.735 1.147 4.673-2.055 6.219 2.164 5.884 1.613-.65 1.457-.486 1.078-2.183m-6.544-3.732c-.645 1.889-.664 3.597-1.842 4.481-1.759 1.32-1.415.165-.85-1.067 1.174-2.558.5-1.34-.827.061-1.12 1.182-.918.72-.71-.292.421-2.064 2.825-5.144 4.628-7.535.53-.7 1.004-1.341 1.365-1.88.618 1.998-.995 4.324-1.765 6.232" fill="#fac009"/></g><g><path d="M78.626 43.668l-7.8 12.55-2.058 1.016.215.53c.276.753.848.569 1.633.404l15.136-3.147c1.163-.245 1.058.103 1.431-1.02l.215-.65-.659-.481c-.557-5.324-3.099-7.514-8.113-9.202" fill="#fac009"/><path d="M86.196 46.448c1.769 2.034 2 4.07 1.27 6.661l-.068.243-17.756 3.728c-1.107.234-1.096.36-.484-.624l9.47-15.235.271.042c2.192.35 7.665 2.274 7.297 5.185" fill="#fac009"/><path d="M78.835 41.674l-9.33 15.01 17.56-3.688c.716-2.54.467-4.459-1.312-6.422.585-2.613-4.724-4.55-6.918-4.9" fill="#f9f13a"/><path d="M70.558 56.013c-1.098.32.409-1.057.69-1.468.283-.411.403-.895.727-1.073.322-.178.616-.106.902.177.285.283.548 1.03.633 1.35.084.32.425.304-.153.473-.577.168-1.704.22-2.799.541M77.96 44.4l-3.522 5.402c-.388.596-.692 1.077-.926 1.747-.355 1.019-.186.694.86-.424 1.64-1.75 1.786-1.115.34.253-1.348 1.326-.712 1.481.355.82 5.438-2.057-4.892 2.863 1.601.088l6.159-3.442c1.74-.972 1.849-2.257-.266-2.641-1.64-.3-1.905 1.638-4.986 3.101 2.544-4.084 5.887-2.872 2.7-5.658-1.592-.7-1.366-.704-2.315.753m1.9 7.291c1.801-.858 3.038-2.038 4.492-1.812 2.173.337 1.107.898-.17 1.354-2.65.946-1.308.577.622.55 1.628-.025 1.155.153.287.712-1.772 1.139-5.655 1.57-8.625 1.95-.871.11-1.661.217-2.3.335.999-1.837 3.79-2.307 5.693-3.089" fill="#fac009"/></g><g><path d="M87.011 79.122l-.866-14.751 1.096-2.016-.482-.31c-.66-.456-1.02.025-1.567.613l-10.55 11.3c-.809.871-.924.526-.58 1.659l.198.654.816.013c3.526 4.028 6.865 4.351 11.935 2.838" fill="#fac009"/><path d="M79.223 81.218c-2.618-.642-3.98-2.172-4.879-4.71l-.084-.238 12.355-13.286c.77-.83.687-.926.755.231l1.05 17.908-.245.122c-1.991.978-7.573 2.563-8.952-.027" fill="#fac009"/><path d="M87.99 80.872l-1.035-17.643-12.218 13.14c.88 2.489 2.19 3.912 4.776 4.49 1.029 2.472 6.483.993 8.477.013" fill="#f9f13a"/><path d="M86.482 64.384c.712-.895.276 1.1.283 1.598.006.498.187.963.025 1.295-.16.332-.442.443-.839.377-.395-.068-1.041-.526-1.295-.739-.254-.213-.524-.003-.148-.474.374-.47 1.264-1.164 1.974-2.057m.652 13.756c-.081-2.147-.16-4.296-.239-6.444-.027-.711-.056-1.279-.25-1.961-.299-1.037-.25-.674-.46.842-.329 2.376-.815 1.94-.423-.01.336-1.861-.273-1.621-.763-.466-3.256 4.817 2.345-5.16-1.359.852l-3.046 6.364c-.86 1.798-.209 2.91 1.74 2.005 1.513-.702.612-2.438 2.285-5.41.277 4.804-3.152 5.741 1.058 6.18 1.704-.347 1.521-.213 1.457-1.951m-5.757-4.861c-.977 1.74-1.307 3.417-2.625 4.072-1.97.978-1.422-.095-.643-1.204 1.62-2.302.737-1.226-.824-.09-1.316.958-1.033.54-.646-.417.79-1.952 3.715-4.544 5.922-6.567a44.567 44.567 0 0 0 1.685-1.6c.244 2.076-1.765 4.07-2.869 5.806" fill="#fac009"/></g><g><path d="M113.632 63.293l-14.52 2.739-2.14-.83-.245.518c-.368.712.154 1.009.807 1.476l12.552 9.024c.968.69.64.849 1.72.364l.623-.28-.09-.812c3.545-4.01 3.44-7.364 1.293-12.2" fill="#fac009"/><path d="M116.703 70.75c-.303 2.678-1.646 4.225-4.049 5.44l-.225.113-14.752-10.56c-.922-.658-1.007-.564.132-.779l17.628-3.324.152.228c1.225 1.85 3.508 7.185 1.114 8.882" fill="#fac009"/><path d="M115.243 62.099l-17.367 3.276 14.59 10.443c2.356-1.19 3.6-2.672 3.844-5.31 2.321-1.335.16-6.556-1.067-8.41" fill="#f9f13a"/><path d="M99.082 65.696c-.979-.592 1.055-.413 1.549-.484.493-.07.93-.309 1.28-.19.35.116.496.382.481.784-.016.4-.388 1.1-.567 1.38-.179.278.063.518-.452.206-.514-.311-1.315-1.106-2.291-1.696m13.561-2.399l-6.362 1.057c-.701.118-1.26.219-1.913.5-.99.427-.637.333.894.348 2.398.023 2.029.56.043.42-1.888-.096-1.572.477-.364.817 5.193 2.615-5.417-1.669 1.018 1.238l6.7 2.21c1.893.625 2.914-.163 1.767-1.981-.89-1.411-2.495-.296-5.657-1.576 4.73-.888 6.097 2.394 5.995-1.837-.56-1.646-.405-1.482-2.12-1.196m-4.088 6.329c1.85.747 3.556.86 4.374 2.085 1.22 1.829.086 1.422-1.113.79-2.49-1.313-1.31-.574.015.83 1.12 1.183.668.955-.33.693-2.038-.536-4.981-3.105-7.27-5.037a44.567 44.567 0 0 0-1.8-1.467c2.028-.507 4.261 1.232 6.124 2.106" fill="#fac009"/></g><g><path d="M115.885 118.478l-5.525-13.705.395-2.26-.555-.14c-.77-.221-.96.35-1.29 1.08l-6.396 14.075c-.488 1.084-.707.794-.021 1.758l.397.556.778-.247c4.626 2.693 7.894 1.934 12.217-1.117" fill="#fac009"/><path d="M109.172 122.948c-2.686.226-4.466-.789-6.127-2.908l-.155-.198 7.472-16.532c.465-1.033.357-1.098.79-.023l6.707 16.638-.195.194c-1.575 1.563-6.36 4.844-8.492 2.829" fill="#fac009"/><path d="M117.37 119.824l-6.607-16.39-7.39 16.35c1.628 2.077 3.324 3.008 5.959 2.731 1.763 2.015 6.461-1.126 8.039-2.69" fill="#f9f13a"/><path d="M110.683 104.678c.39-1.075.612.954.777 1.425.166.47.485.853.438 1.22-.046.365-.278.56-.676.623-.396.063-1.154-.165-1.463-.286-.308-.121-.497.164-.291-.403.205-.565.827-1.506 1.215-2.578m5.005 12.831a7333.25 7333.25 0 0 1-2.282-6.033c-.252-.665-.46-1.194-.863-1.779-.613-.888-.451-.56-.167.945.446 2.356-.153 2.1-.404.125-.275-1.871-.775-1.45-.872-.198-1.55 5.604.578-5.638-1.015 1.24l-.858 7.004c-.242 1.978.73 2.825 2.289 1.345 1.21-1.148-.198-2.505.44-5.856 1.795 4.464-1.157 6.447 2.973 5.52 1.505-.872 1.374-.687.759-2.314m-7.006-2.771c-.372 1.961-.15 3.656-1.19 4.697-1.555 1.554-1.378.363-.993-.936.801-2.699.307-1.398-.81.177-.942 1.328-.807.841-.745-.19.127-2.102 2.071-5.491 3.519-8.112.425-.769.804-1.47 1.086-2.054.894 1.89-.375 4.42-.867 6.418" fill="#fac009"/></g><g><path d="M71.981 120.83l-1.283-14.722 1.038-2.046-.49-.295c-.673-.437-1.02.053-1.55.656L59.47 116.018c-.783.894-.908.552-.533 1.674l.218.648.815-.009c3.64 3.926 6.986 4.155 12.011 2.499" fill="#fac009"/><path d="M64.256 123.145c-2.635-.568-4.04-2.058-5.01-4.57l-.091-.235 11.973-13.63c.746-.852.66-.946.762.209l1.557 17.871-.243.128c-1.962 1.035-7.497 2.777-8.948.227" fill="#fac009"/><path d="M73.01 122.551l-1.535-17.606-11.841 13.481c.95 2.462 2.3 3.848 4.901 4.352 1.099 2.442 6.509.81 8.474-.227" fill="#f9f13a"/><path d="M71.035 106.112c.686-.914.306 1.091.327 1.59.021.498.215.957.063 1.293-.15.337-.43.455-.828.4-.397-.055-1.056-.495-1.316-.7-.26-.206-.523.01-.161-.47.36-.481 1.23-1.2 1.915-2.113m1.041 13.733c-.142-2.144-.281-4.29-.421-6.435-.048-.71-.092-1.277-.307-1.954-.327-1.028-.268-.667-.435.855-.261 2.384-.76 1.963-.423.002.283-1.87-.318-1.613-.776-.444-3.118 4.907 2.198-5.224-1.334.89l-2.864 6.448c-.81 1.821-.127 2.915 1.796 1.954 1.493-.744.542-2.453 2.13-5.472.414 4.794-2.988 5.829 1.233 6.147 1.693-.394 1.514-.255 1.4-1.99m-5.891-4.696c-.928 1.767-1.21 3.452-2.51 4.144-1.94 1.033-1.423-.054-.675-1.185 1.554-2.347.7-1.247-.827-.067-1.289.996-1.017.57-.657-.398.735-1.974 3.584-4.648 5.734-6.733.63-.61 1.198-1.17 1.638-1.646.303 2.068-1.65 4.118-2.703 5.885" fill="#fac009"/></g></g></svg>