<svg xmlns="http://www.w3.org/2000/svg" width="600" height="600" viewBox="0 0 158.75 158.75"><g fill-rule="evenodd"><path d="M76.111 43.778c2.06.482 3.988.472 5.612-1.255 1.26-1.337 2.133-2.522 2.355-4.332.077-.62.028-1.164-.073-1.76-.025-.15-.12-.616-.062-.766.051-.13.44-.45.552-.554.474-.437.813-.883 1.052-1.468.124-.305.267-.597.384-.905.164-.427.276-.852.335-1.297.188-1.441-.189-2.984-.632-4.293-.975-2.886-2.067-5.133-5.62-5.128-.147 0-1.033.008-1.14-.09-.07-.066-.215-.357-.271-.45a5.62 5.62 0 0 0-.962-1.146 4.306 4.306 0 0 0-2.319-1.132c-2.676-.422-5.736 1.402-7.761 3.195-1.618 1.432-3.221 3.276-3.307 5.42-.021.574.082 1.063.233 1.595.05.175.184.582.141.77-.054.232-.368.605-.52.802-.402.53-.703 1.029-.905 1.652-.796 2.447-.005 4.077 1.05 6.084 1.394 2.652 3.389 4.779 6.774 4.788.716.003 1.325-.24 1.976-.553.31-.148.832-.426 1.17-.412.1.004.311.18.382.238.26.219.495.45.779.642.237.16.49.288.778.355zm.168-.502c2.497.585 3.915.145 5.067-1.081 1.062-1.129 1.988-2.247 2.206-4.018.162-1.317-.316-2.113-.103-2.655.213-.541 1.117-.832 1.607-2.03.449-1.098 1.35-2.37.072-6.145-1.03-3.045-2.069-4.815-5.162-4.812-2.23.004-1.02-.225-2.711-1.814-2.507-2.357-6.591-.406-9.357 2.043-1.867 1.652-3.045 3.296-3.112 5.025-.046 1.157.497 1.872.359 2.462-.156.667-1.015 1.2-1.438 2.498-.762 2.342.09 3.93 1.022 5.703 1.222 2.324 3.036 4.532 6.349 4.541 1.292.003 2.26-1.004 3.168-.964.622.027 1.13 1.034 2.033 1.247" fill="#3d8133"/><path d="M76.28 43.276c2.496.585 3.914.145 5.066-1.081 1.062-1.129 1.988-2.247 2.206-4.017.162-1.318-.316-2.114-.103-2.656.213-.541 1.117-.832 1.607-2.03.449-1.098 1.35-2.37.072-6.145-1.03-3.046-2.069-4.815-5.162-4.812-2.23.004-1.02-.225-2.711-1.814-2.507-2.357-6.591-.406-9.357 2.043-1.867 1.652-3.045 3.296-3.112 5.025-.046 1.157.497 1.872.359 2.462-.156.667-1.015 1.2-1.438 2.498-.762 2.342.09 3.93 1.022 5.703 1.222 2.325 3.036 4.533 6.349 4.541 1.292.003 2.26-1.004 3.168-.964.622.027 1.13 1.034 2.033 1.247zm2.938-1.5c1.52-.455 2.62-1.922 2.661-3.99.033-1.655-5.13-1.961-2.957-4.497.696-.812 6.633 1.411 5.06-2.644-.661-1.708-.133-5.389-2.838-6.684-1.822-.874-3.362 2.512-4.304 3.205-.77.565-1.694.31-1.832-.347-.062-.298.53-1.022.508-1.187-.345-2.64 2.873-2.805-1.067-4.408-2.54-1.032-9.807 4.175-7.4 7.45.5.682 2.65.94 3.566 1.364.617.286.727 1.037.316 1.3-.542.35-1.008.435-2.445-.076-.853-.304-1.894 1.02-2.1 1.211-2.542 2.374 2.464 10.9 6.183 7.946.364-.291.13-1.65.032-2.73-.108-1.198 1.605-1.957 2.327-.974.586.799.077 2.203.342 3.017.551 1.742 1.77 2.693 3.948 2.043" fill="#88ca26"/><path d="M82.308 38.504c.65-1.525-1.345-2.83-1.122-3.7.307-1.203 4.399-.762 3.793-4.171-.383-2.16-.838-4.323-2.263-6.026-.952-1.138-2.226-2.024-3.915-.69-1.814 1.433-1.65.888-1.773-.82-.156-2.17-2.835-2.994-5.033-2.173-2.231.837-5.427 3.012-5.865 5.058a4.568 4.568 0 0 0 .087 2.172c.21.689.693 1.288.432 2.438-.324 1.419-1.82 2.241-1.673 4.268.23 3.2 2.731 7.556 6.313 6.689.936-.228 1.726-1.454 2.667-1.258.664.139.934 1.539 2.814 2.15 1.446.47 3.562.103 4.864-1.911.31-.482.297-1.145.674-2.026zm-3.09 3.271c1.52-.454 2.62-1.921 2.661-3.99.033-1.654-5.13-1.96-2.957-4.496.696-.812 6.633 1.411 5.06-2.644-.66-1.706-.133-5.389-2.838-6.684-1.822-.874-3.362 2.512-4.304 3.205-.77.565-1.694.31-1.832-.347-.062-.298.53-1.022.508-1.187-.345-2.64 2.873-2.805-1.067-4.408-2.54-1.032-9.807 4.175-7.4 7.45.5.682 2.65.939 3.566 1.364.617.286.727 1.037.316 1.3-.542.35-1.008.435-2.445-.076-.853-.304-1.894 1.02-2.1 1.211-2.542 2.375 2.464 10.9 6.182 7.945.365-.29.13-1.648.033-2.728-.108-1.199 1.605-1.958 2.327-.975.586.799.077 2.203.342 3.017.551 1.742 1.77 2.693 3.948 2.043" fill="#a4d71c"/></g><g fill-rule="evenodd"><path d="M122.162 56.567c.26-2.099.043-4.015-1.848-5.446-1.464-1.109-2.736-1.851-4.559-1.878-.625-.01-1.16.096-1.741.26-.148.041-.6.186-.755.144-.135-.037-.495-.39-.61-.49-.485-.425-.965-.713-1.572-.89-.317-.09-.623-.2-.941-.284a5.666 5.666 0 0 0-1.325-.194c-1.454-.034-2.948.506-4.202 1.086-2.765 1.278-4.882 2.604-4.498 6.136.016.146.118 1.027.032 1.142-.057.078-.331.253-.419.32a5.62 5.62 0 0 0-1.036 1.077 4.306 4.306 0 0 0-.878 2.427c-.133 2.706 2.007 5.554 4.006 7.376 1.597 1.455 3.601 2.853 5.743 2.708.572-.04 1.048-.194 1.56-.402.169-.067.56-.245.75-.222.238.03.642.302.854.43.57.345 1.098.59 1.74.725 2.517.53 4.054-.43 5.937-1.694 2.488-1.67 4.389-3.88 4.036-7.247-.073-.712-.38-1.292-.76-1.906-.18-.292-.513-.781-.536-1.12-.006-.099.146-.328.196-.404.19-.282.395-.54.556-.843a2.32 2.32 0 0 0 .27-.811zm-.517-.113c.314-2.545-.274-3.908-1.617-4.923-1.235-.935-2.446-1.736-4.23-1.764-1.327-.02-2.068.54-2.629.386-.56-.154-.946-1.02-2.191-1.38-1.139-.33-2.5-1.09-6.116.584-2.919 1.35-4.567 2.572-4.234 5.647.242 2.217-.114 1.039-1.514 2.89-2.076 2.744.3 6.596 3.031 9.085 1.842 1.679 3.603 2.675 5.33 2.557 1.155-.078 1.807-.695 2.408-.62.68.084 1.303.88 2.638 1.162 2.41.508 3.898-.509 5.561-1.625 2.18-1.463 4.182-3.503 3.837-6.797-.135-1.286-1.24-2.14-1.297-3.047-.04-.622.908-1.234 1.023-2.155" fill="#3d8133"/><path d="M121.645 56.454c.314-2.545-.274-3.908-1.617-4.923-1.235-.935-2.446-1.736-4.23-1.763-1.327-.021-2.068.54-2.629.385-.56-.154-.946-1.02-2.191-1.38-1.139-.33-2.5-1.09-6.116.584-2.92 1.35-4.567 2.572-4.234 5.647.242 2.217-.114 1.039-1.514 2.89-2.076 2.744.3 6.596 3.031 9.085 1.842 1.679 3.603 2.675 5.33 2.557 1.155-.078 1.807-.695 2.408-.62.68.084 1.303.88 2.638 1.162 2.41.508 3.898-.509 5.561-1.625 2.18-1.463 4.183-3.502 3.837-6.797-.135-1.286-1.24-2.14-1.297-3.047-.04-.622.908-1.234 1.023-2.155zm-1.807-2.762c-.613-1.462-2.19-2.399-4.25-2.22-1.65.144-1.402 5.31-4.156 3.421-.882-.605.695-6.746-3.17-4.749-1.627.84-5.343.708-6.342 3.536-.674 1.906 2.857 3.074 3.646 3.938.644.704.49 1.65-.149 1.858-.29.094-1.073-.417-1.234-.379-2.587.625-3.096-2.556-4.269 1.533-.755 2.635 5.2 9.304 8.199 6.562.624-.57.65-2.736.974-3.692.219-.644.953-.834 1.26-.453.404.502.54.955.185 2.44-.211.88 1.216 1.773 1.428 1.957 2.633 2.274 10.574-3.614 7.24-6.996-.328-.33-1.653.047-2.717.26-1.18.235-2.117-1.387-1.218-2.21.732-.668 2.183-.312 2.963-.662 1.674-.734 2.489-2.048 1.61-4.144" fill="#88ca26"/><path d="M116.256 50.97c-1.586-.485-2.67 1.639-3.56 1.51-1.228-.176-1.227-4.292-4.552-3.325-2.106.61-4.208 1.295-5.749 2.893-1.03 1.068-1.775 2.43-.267 3.967 1.618 1.65 1.058 1.546-.627 1.85-2.14.387-2.674 3.139-1.623 5.237 1.07 2.128 3.575 5.073 5.656 5.29.581.06 1.4-.002 2.15-.318.662-.282 1.206-.827 2.378-.69 1.445.17 2.423 1.57 4.422 1.208 3.158-.572 7.222-3.524 5.976-6.992-.326-.906-1.63-1.561-1.536-2.517.068-.676 1.43-1.093 1.837-3.028.314-1.488-.278-3.552-2.419-4.632-.512-.257-1.17-.173-2.086-.453zm3.582 2.722c-.613-1.462-2.19-2.399-4.25-2.22-1.65.144-1.402 5.31-4.156 3.421-.882-.605.695-6.746-3.17-4.749-1.625.84-5.343.708-6.342 3.536-.674 1.906 2.857 3.074 3.646 3.938.644.704.49 1.65-.149 1.858-.29.094-1.073-.417-1.234-.379-2.587.625-3.096-2.556-4.269 1.533-.755 2.635 5.2 9.304 8.199 6.562.624-.57.65-2.735.974-3.692.219-.644.953-.834 1.26-.453.404.502.54.955.185 2.44-.211.88 1.216 1.773 1.428 1.957 2.633 2.275 10.574-3.614 7.239-6.995-.327-.332-1.652.046-2.716.259-1.18.235-2.117-1.387-1.218-2.21.732-.668 2.183-.312 2.963-.662 1.674-.734 2.489-2.048 1.61-4.144" fill="#a4d71c"/></g><g fill-rule="evenodd"><path d="M50.11 101.855c1.606-1.374 2.74-2.934 2.31-5.266-.332-1.806-.77-3.212-2.098-4.462-.454-.43-.921-.712-1.46-.983-.138-.07-.569-.268-.655-.403-.074-.119-.102-.622-.12-.774-.071-.64-.23-1.177-.56-1.717-.172-.28-.324-.568-.502-.845a5.666 5.666 0 0 0-.847-1.037c-1.05-1.006-2.517-1.615-3.834-2.033-2.904-.923-5.36-1.373-7.46 1.493-.087.12-.605.838-.747.865-.095.019-.416-.037-.525-.047a5.62 5.62 0 0 0-1.492.097 4.31 4.31 0 0 0-2.285 1.199c-1.924 1.907-2.266 5.453-2.02 8.146.196 2.152.733 4.536 2.411 5.874.45.357.905.563 1.423.756.17.064.578.197.704.342.155.182.27.655.339.894.189.639.412 1.176.795 1.708 1.5 2.09 3.283 2.418 5.525 2.756 2.963.447 5.858.098 7.87-2.625.425-.575.59-1.21.724-1.92.064-.338.149-.923.36-1.188.062-.078.329-.144.418-.166.33-.08.656-.132.979-.247a2.32 2.32 0 0 0 .746-.417zm-.306-.432c1.949-1.666 2.434-3.07 2.128-4.725-.28-1.523-.634-2.932-1.932-4.156-.965-.91-1.89-.996-2.2-1.488-.311-.492-.01-1.393-.686-2.498-.62-1.01-1.111-2.49-4.91-3.695-3.064-.973-5.105-1.184-6.934 1.311-1.317 1.8-.785.69-3.067 1.111-3.384.625-4.229 5.072-3.893 8.751.227 2.482.854 4.405 2.208 5.483.905.722 1.803.707 2.197 1.168.445.521.366 1.53 1.162 2.638 1.436 2 3.22 2.254 5.201 2.552 2.597.391 5.45.236 7.418-2.428.768-1.04.529-2.416 1.099-3.124.39-.486 1.502-.298 2.209-.9" fill="#3d8133"/><path d="M49.804 101.423c1.949-1.666 2.434-3.07 2.128-4.725-.28-1.523-.634-2.932-1.932-4.155-.965-.91-1.89-.997-2.2-1.49-.311-.491-.01-1.392-.686-2.497-.62-1.01-1.111-2.49-4.91-3.695-3.064-.974-5.105-1.184-6.934 1.311-1.317 1.8-.785.69-3.067 1.111-3.384.625-4.229 5.072-3.893 8.751.227 2.482.854 4.405 2.208 5.483.905.722 1.803.707 2.197 1.168.445.521.366 1.53 1.162 2.638 1.436 2 3.22 2.254 5.201 2.552 2.597.392 5.45.237 7.418-2.428.768-1.04.529-2.416 1.099-3.124.39-.486 1.502-.298 2.209-.9zm.53-3.258c.534-1.493.002-3.248-1.64-4.506-1.314-1.007-4.617 2.973-5.375-.279-.242-1.042 5.065-4.51.865-5.643-1.768-.478-4.422-3.083-7.067-1.67-1.783.951.035 4.197.035 5.366 0 .955-.754 1.549-1.364 1.271-.277-.126-.51-1.032-.656-1.112-2.331-1.285-.56-3.976-4.184-1.75-2.336 1.436-2.441 10.376 1.623 10.376.845 0 2.327-1.58 3.21-2.067.596-.329 1.267.027 1.235.515-.04.643-.246 1.069-1.509 1.925-.75.508-.3 2.13-.266 2.409.408 3.454 10.242 4.467 10.063-.279-.019-.466-1.252-1.08-2.18-1.641-1.03-.623-.627-2.453.592-2.453.99 0 1.821 1.243 2.633 1.51 1.731.588 3.22.168 3.985-1.972" fill="#88ca26"/><path d="M49.527 93.739c-.844-1.428-3.077-.592-3.647-1.287-.787-.959 1.99-3.996-1.116-5.526-1.966-.97-3.98-1.883-6.195-1.743-1.482.093-2.95.595-2.874 2.747.081 2.31-.262 1.855-1.71.943-1.842-1.159-4.093.512-4.732 2.77-.647 2.293-.785 6.156.605 7.72a4.568 4.568 0 0 0 1.801 1.216c.68.24 1.449.204 2.221 1.096.952 1.1.728 2.794 2.449 3.875 2.716 1.709 7.707 2.272 9.128-1.128.37-.89-.15-2.252.565-2.895.506-.453 1.793.159 3.399-.995 1.235-.886 2.191-2.809 1.34-5.05-.206-.536-.747-.918-1.234-1.743zm.807 4.426c.534-1.493.002-3.248-1.64-4.506-1.314-1.007-4.617 2.973-5.375-.279-.242-1.042 5.065-4.51.865-5.643-1.766-.478-4.422-3.083-7.067-1.67-1.783.951.035 4.197.035 5.366 0 .955-.754 1.549-1.364 1.271-.277-.126-.51-1.032-.656-1.112-2.331-1.285-.56-3.976-4.184-1.75-2.336 1.436-2.441 10.376 1.623 10.376.845 0 2.325-1.58 3.21-2.067.596-.329 1.267.027 1.235.515-.04.643-.246 1.069-1.509 1.925-.75.508-.3 2.13-.266 2.409.408 3.455 10.242 4.467 10.062-.279-.017-.466-1.25-1.08-2.179-1.641-1.03-.623-.627-2.453.592-2.453.99 0 1.821 1.243 2.633 1.51 1.731.588 3.22.168 3.985-1.972" fill="#a4d71c"/></g><g fill-rule="evenodd"><path d="M77.065 137.237c1.608-1.374 2.741-2.934 2.311-5.266-.332-1.807-.77-3.213-2.098-4.463-.454-.43-.921-.711-1.46-.982-.137-.07-.569-.268-.655-.404-.074-.118-.102-.62-.12-.773-.07-.64-.23-1.178-.56-1.717-.172-.28-.323-.569-.502-.845a5.666 5.666 0 0 0-.847-1.038c-1.05-1.005-2.517-1.614-3.834-2.032-2.904-.923-5.36-1.373-7.46 1.493-.087.12-.605.838-.747.865-.095.019-.415-.037-.524-.047a5.62 5.62 0 0 0-1.493.096c-.86.16-1.635.555-2.285 1.2-1.924 1.907-2.266 5.453-2.02 8.146.196 2.151.733 4.535 2.412 5.874.449.357.904.563 1.422.756.17.064.579.196.704.342.155.182.27.655.339.894.19.638.413 1.176.796 1.708 1.5 2.09 3.282 2.418 5.525 2.755 2.962.447 5.857.099 7.868-2.624.427-.575.591-1.21.725-1.92.064-.338.149-.923.36-1.188.063-.078.329-.144.418-.166.33-.08.656-.132.979-.248a2.32 2.32 0 0 0 .746-.416zm-.305-.433c1.949-1.666 2.434-3.069 2.128-4.724-.28-1.524-.634-2.932-1.932-4.156-.965-.91-1.89-.996-2.2-1.489-.31-.492-.01-1.392-.686-2.497-.619-1.011-1.111-2.49-4.909-3.695-3.065-.973-5.106-1.184-6.934 1.311-1.318 1.8-.786.69-3.068 1.11-3.383.626-4.229 5.072-3.892 8.752.226 2.482.854 4.405 2.207 5.483.906.722 1.804.707 2.197 1.167.445.522.367 1.53 1.162 2.638 1.437 2.001 3.22 2.255 5.202 2.553 2.596.39 5.45.236 7.418-2.428.767-1.04.528-2.417 1.098-3.125.39-.485 1.502-.297 2.21-.9" fill="#3d8133"/><path d="M76.76 136.804c1.949-1.666 2.434-3.069 2.128-4.724-.28-1.524-.634-2.932-1.932-4.155-.965-.911-1.89-.997-2.2-1.49-.31-.492-.01-1.392-.686-2.497-.619-1.011-1.111-2.49-4.909-3.695-3.065-.974-5.106-1.184-6.934 1.311-1.318 1.8-.786.69-3.068 1.11-3.383.626-4.229 5.072-3.892 8.752.226 2.482.854 4.405 2.207 5.483.906.722 1.804.707 2.197 1.167.445.522.367 1.53 1.162 2.638 1.437 2.001 3.22 2.255 5.202 2.553 2.596.391 5.45.237 7.418-2.428.767-1.04.528-2.417 1.098-3.125.39-.485 1.502-.297 2.21-.9zm.53-3.257c.534-1.493.002-3.248-1.64-4.507-1.314-1.006-4.617 2.974-5.375-.278-.242-1.042 5.065-4.51.865-5.644-1.767-.478-4.421-3.083-7.067-1.67-1.783.952.035 4.198.035 5.367 0 .954-.753 1.549-1.364 1.27-.277-.125-.51-1.03-.656-1.112-2.33-1.284-.56-3.975-4.184-1.749-2.335 1.436-2.441 10.376 1.623 10.376.846 0 2.327-1.58 3.21-2.068.596-.328 1.267.028 1.236.515-.04.644-.246 1.07-1.51 1.926-.75.507-.299 2.13-.266 2.408.409 3.455 10.242 4.468 10.064-.278-.02-.466-1.252-1.081-2.18-1.641-1.03-.623-.628-2.453.591-2.453.991 0 1.821 1.242 2.634 1.51 1.73.588 3.218.168 3.984-1.972" fill="#88ca26"/><path d="M76.483 129.12c-.844-1.427-3.077-.59-3.647-1.286-.787-.959 1.99-3.996-1.116-5.526-1.966-.97-3.98-1.883-6.195-1.743-1.481.093-2.95.595-2.874 2.747.081 2.31-.262 1.855-1.71.943-1.842-1.159-4.092.512-4.732 2.77-.646 2.293-.785 6.156.605 7.72a4.568 4.568 0 0 0 1.802 1.216c.679.24 1.448.204 2.22 1.096.952 1.1.729 2.794 2.45 3.875 2.716 1.708 7.706 2.272 9.128-1.128.37-.89-.15-2.252.564-2.895.506-.453 1.794.159 3.4-.995 1.234-.886 2.19-2.81 1.338-5.05-.204-.536-.746-.918-1.233-1.743zm.807 4.427c.534-1.493.002-3.248-1.64-4.507-1.314-1.006-4.617 2.974-5.375-.278-.242-1.042 5.065-4.51.865-5.644-1.766-.478-4.421-3.083-7.067-1.67-1.783.952.035 4.198.035 5.367 0 .954-.753 1.549-1.364 1.27-.277-.125-.51-1.03-.656-1.112-2.33-1.284-.56-3.975-4.184-1.749-2.335 1.436-2.441 10.376 1.623 10.376.846 0 2.325-1.58 3.21-2.068.596-.328 1.267.028 1.236.515-.04.644-.246 1.07-1.51 1.926-.75.507-.299 2.13-.266 2.408.409 3.456 10.242 4.468 10.062-.278-.017-.466-1.25-1.081-2.179-1.641-1.03-.623-.627-2.453.592-2.453.991 0 1.821 1.242 2.634 1.51 1.73.588 3.218.168 3.984-1.972" fill="#a4d71c"/></g><g fill-rule="evenodd"><path d="M125.174 119.33c1.607-1.374 2.741-2.935 2.31-5.266-.332-1.807-.77-3.213-2.097-4.463-.454-.43-.922-.711-1.461-.982-.137-.07-.568-.268-.654-.404-.075-.118-.103-.621-.12-.773-.071-.64-.23-1.178-.56-1.717-.173-.28-.324-.569-.502-.845a5.666 5.666 0 0 0-.847-1.038c-1.05-1.005-2.517-1.615-3.835-2.032-2.903-.923-5.36-1.373-7.46 1.493-.086.12-.605.838-.747.865-.094.019-.415-.037-.524-.047a5.62 5.62 0 0 0-1.492.096c-.86.16-1.635.554-2.285 1.2-1.925 1.907-2.266 5.452-2.02 8.146.196 2.151.733 4.535 2.411 5.874.449.357.905.563 1.423.756.17.064.578.196.703.342.156.182.27.655.34.893.189.64.412 1.177.795 1.708 1.5 2.09 3.283 2.419 5.525 2.756 2.963.447 5.858.099 7.869-2.624.426-.575.59-1.21.725-1.92.064-.338.148-.923.36-1.188.062-.078.329-.144.417-.166.33-.08.656-.132.98-.248a2.32 2.32 0 0 0 .746-.417zm-.305-.433c1.949-1.666 2.434-3.069 2.128-4.724-.28-1.524-.634-2.932-1.932-4.156-.966-.91-1.89-.996-2.2-1.489-.311-.492-.01-1.392-.687-2.497-.618-1.011-1.11-2.49-4.908-3.695-3.065-.973-5.106-1.184-6.935 1.311-1.317 1.8-.785.69-3.067 1.11-3.384.626-4.23 5.072-3.893 8.752.227 2.482.854 4.405 2.208 5.483.905.722 1.803.707 2.196 1.167.446.522.367 1.53 1.163 2.638 1.436 2.001 3.22 2.255 5.201 2.553 2.597.39 5.45.236 7.418-2.428.768-1.04.529-2.417 1.099-3.125.39-.485 1.502-.297 2.209-.9" fill="#3d8133"/><path d="M124.869 118.897c1.949-1.666 2.434-3.069 2.128-4.724-.28-1.524-.634-2.932-1.932-4.155-.966-.911-1.89-.997-2.2-1.49-.311-.492-.01-1.392-.687-2.497-.618-1.011-1.11-2.49-4.908-3.695-3.065-.974-5.106-1.184-6.935 1.311-1.317 1.8-.785.69-3.067 1.11-3.384.626-4.23 5.072-3.893 8.752.227 2.482.854 4.405 2.208 5.483.905.722 1.803.707 2.196 1.167.446.522.367 1.53 1.163 2.638 1.436 2.001 3.22 2.255 5.201 2.553 2.597.391 5.45.237 7.418-2.428.768-1.04.529-2.417 1.099-3.125.39-.485 1.502-.297 2.209-.9zm.53-3.257c.533-1.493.002-3.248-1.64-4.507-1.314-1.006-4.617 2.974-5.375-.278-.243-1.042 5.064-4.51.865-5.644-1.768-.478-4.422-3.083-7.067-1.67-1.783.952.034 4.198.034 5.367 0 .954-.753 1.549-1.363 1.27-.278-.125-.511-1.031-.656-1.112-2.331-1.284-.56-3.975-4.185-1.749-2.335 1.436-2.44 10.376 1.624 10.376.845 0 2.326-1.58 3.21-2.068.596-.328 1.266.028 1.235.515-.04.644-.246 1.07-1.509 1.926-.75.507-.3 2.13-.266 2.408.408 3.455 10.242 4.468 10.063-.278-.019-.466-1.252-1.081-2.18-1.642-1.03-.622-.628-2.452.592-2.452.99 0 1.82 1.242 2.633 1.51 1.73.588 3.219.168 3.985-1.972" fill="#88ca26"/><path d="M124.591 111.214c-.843-1.428-3.076-.592-3.646-1.287-.787-.96 1.99-3.996-1.116-5.526-1.967-.97-3.98-1.883-6.196-1.743-1.48.093-2.949.595-2.873 2.747.08 2.31-.263 1.855-1.71.942-1.842-1.158-4.093.513-4.732 2.77-.647 2.294-.785 6.157.604 7.721a4.568 4.568 0 0 0 1.802 1.216c.68.239 1.448.204 2.221 1.095.951 1.101.728 2.795 2.449 3.875 2.716 1.71 7.707 2.273 9.128-1.127.37-.89-.15-2.253.565-2.895.506-.453 1.793.159 3.399-.995 1.235-.887 2.191-2.81 1.339-5.05-.205-.536-.747-.918-1.234-1.743zm.808 4.426c.533-1.493.002-3.248-1.64-4.507-1.314-1.006-4.617 2.974-5.375-.278-.243-1.042 5.064-4.51.865-5.644-1.766-.478-4.422-3.083-7.067-1.67-1.783.952.034 4.198.034 5.367 0 .954-.753 1.549-1.363 1.27-.278-.125-.511-1.031-.656-1.112-2.331-1.284-.56-3.975-4.185-1.749-2.335 1.436-2.44 10.376 1.624 10.376.845 0 2.325-1.58 3.21-2.068.596-.328 1.266.028 1.235.515-.04.644-.246 1.07-1.509 1.926-.75.507-.3 2.13-.266 2.408.408 3.456 10.242 4.468 10.062-.278-.017-.466-1.25-1.081-2.18-1.642-1.029-.622-.627-2.452.593-2.452.99 0 1.82 1.242 2.633 1.51 1.73.588 3.219.168 3.985-1.972" fill="#a4d71c"/></g><g fill-rule="evenodd"><path d="M64.21 52.334c-.377-2.08-1.153-3.846-3.384-4.65-1.727-.623-3.162-.953-4.911-.436-.6.175-1.08.437-1.585.766-.129.084-.518.356-.678.362-.14.005-.588-.224-.729-.286-.589-.261-1.133-.394-1.765-.382-.329.008-.654-.007-.983.008-.457.02-.892.086-1.323.21-1.397.4-2.663 1.36-3.688 2.287-2.26 2.042-3.887 3.938-2.47 7.195.06.135.42.945.371 1.082-.031.09-.24.34-.305.429a5.62 5.62 0 0 0-.668 1.337 4.306 4.306 0 0 0-.116 2.578c.677 2.623 3.568 4.705 6.018 5.85 1.957.915 4.287 1.653 6.289.878.534-.208.942-.498 1.37-.848.14-.115.461-.4.65-.435.236-.043.702.097.943.157.647.158 1.224.237 1.876.174 2.561-.244 3.743-1.617 5.164-3.384 1.88-2.334 3.037-5.01 1.699-8.12-.282-.657-.748-1.12-1.293-1.593-.26-.225-.722-.593-.845-.91-.036-.093.041-.356.067-.444.098-.326.217-.633.28-.97a2.32 2.32 0 0 0 .016-.855zm-.527.046c-.457-2.523-1.424-3.65-3.008-4.219-1.458-.525-2.852-.93-4.564-.426-1.272.376-1.813 1.131-2.394 1.15-.582.021-1.208-.692-2.503-.665-1.185.025-2.711-.296-5.665 2.377-2.385 2.157-3.596 3.814-2.362 6.65.89 2.045.2 1.027-.587 3.21-1.165 3.237 2.25 6.208 5.597 7.772 2.258 1.055 4.235 1.482 5.849.857 1.08-.419 1.52-1.202 2.115-1.31.675-.121 1.506.454 2.864.326 2.452-.233 3.57-1.646 4.826-3.206 1.646-2.046 2.95-4.589 1.641-7.631-.511-1.187-1.82-1.674-2.145-2.523-.223-.582.5-1.448.336-2.362" fill="#3d8133"/><path d="M63.683 52.38c-.457-2.523-1.424-3.65-3.008-4.219-1.458-.525-2.852-.93-4.563-.425-1.273.375-1.814 1.13-2.395 1.15-.582.02-1.208-.693-2.503-.666-1.185.025-2.711-.296-5.665 2.377-2.386 2.157-3.596 3.814-2.362 6.65.89 2.045.2 1.027-.587 3.21-1.165 3.237 2.25 6.208 5.597 7.772 2.258 1.055 4.235 1.482 5.849.857 1.08-.419 1.52-1.202 2.115-1.31.675-.121 1.506.454 2.864.326 2.452-.233 3.57-1.646 4.826-3.206 1.647-2.046 2.951-4.588 1.641-7.631-.511-1.187-1.82-1.674-2.145-2.523-.223-.582.5-1.448.336-2.362zm-2.546-2.1c-1.021-1.213-2.805-1.638-4.72-.854-1.53.628.242 5.487-2.948 4.502-1.023-.315-1.344-6.647-4.44-3.591-1.303 1.286-4.89 2.265-5.003 5.263-.077 2.02 3.643 2.085 4.653 2.674.824.481.958 1.431.41 1.818-.249.176-1.148-.078-1.291.006-2.284 1.367-3.716-1.52-3.62 2.733.064 2.74 7.732 7.337 9.78 3.827.426-.73-.192-2.806-.168-3.815.017-.68.662-1.08 1.067-.807.536.358.8.751.903 2.273.06.904 1.689 1.332 1.946 1.444 3.19 1.388 9.02-6.595 4.831-8.832-.412-.219-1.565.536-2.516 1.056-1.057.576-2.435-.694-1.82-1.747.499-.856 1.99-.947 2.631-1.514 1.38-1.199 1.767-2.696.305-4.436" fill="#88ca26"/><path d="M56.907 48.747c-1.659.01-2.062 2.36-2.95 2.501-1.224.197-2.448-3.732-5.335-1.82-1.829 1.21-3.632 2.488-4.628 4.472-.666 1.327-.972 2.847.925 3.867 2.035 1.094 1.47 1.161-.048 1.952-1.929 1.007-1.62 3.793.009 5.483 1.654 1.714 4.921 3.78 6.973 3.369a4.568 4.568 0 0 0 1.958-.944c.548-.466.906-1.148 2.065-1.366 1.43-.267 2.78.779 4.581-.162 2.845-1.486 5.847-5.512 3.626-8.453-.581-.768-2.02-1.006-2.215-1.947-.137-.665 1.04-1.469.853-3.437-.143-1.514-1.322-3.309-3.688-3.702-.565-.093-1.168.182-2.126.187zm4.23 1.533c-1.021-1.213-2.805-1.638-4.72-.854-1.53.628.242 5.487-2.948 4.502-1.023-.315-1.344-6.647-4.44-3.591-1.302 1.285-4.89 2.265-5.003 5.263-.077 2.02 3.643 2.085 4.653 2.674.824.481.958 1.431.41 1.818-.249.176-1.148-.078-1.291.006-2.284 1.367-3.716-1.52-3.62 2.733.064 2.74 7.732 7.337 9.78 3.827.426-.73-.193-2.805-.168-3.815.017-.68.662-1.08 1.067-.807.536.358.8.751.903 2.273.06.904 1.689 1.332 1.946 1.444 3.19 1.389 9.02-6.595 4.83-8.83-.41-.221-1.564.534-2.515 1.054-1.057.576-2.435-.694-1.82-1.747.499-.856 1.99-.947 2.631-1.514 1.38-1.199 1.767-2.696.305-4.436" fill="#a4d71c"/></g><g fill-rule="evenodd"><path d="M92.167 73.944c.34 1.815.244 3.508-1.376 4.898-.127.109-.251.215-.375.315l-.24-.367c.113-.093.226-.188.337-.284 1.151-.988 1.609-2.225 1.196-4.423-.15-.797-1.03-1.262-1.026-1.808.004-.797.952-1.627 1.006-2.761.141-2.905-1.756-4.538-3.783-5.654-1.548-.853-2.933-1.629-5.067-1.005-1.181.344-1.698 1.089-2.304 1.213-.535.11-1.152-.38-2.188-.364-1.553.027-3.08 1.03-4.646 2.635-.296.302-.583.624-.858.96l-.438-.153c.321-.4.654-.773.983-1.11 1.357-1.392 3.08-2.764 5.007-2.796.514-.009.949.091 1.419.234.155.048.515.173.683.139.21-.044.558-.312.742-.44.494-.343.954-.598 1.52-.763 2.23-.651 3.658.072 5.408 1.036 2.314 1.273 4.13 3.064 3.988 6.033-.03.628-.278 1.159-.584 1.723-.148.27-.421.723-.425 1.02 0 .088.148.275.198.337.184.233.382.442.541.698.133.208.235.434.282.687" fill="#c71e25"/><path d="M91.733 74.085c.42 2.206-.035 3.443-1.187 4.43-.12.101-.235.202-.352.297l-.408-.628c1.226-1.102 1.48-2.599 1.175-3.686-.471-1.664-1.717-1.932-1.815-2.519-.136-.832 1-1.499 1.245-2.317.934-3.13-2.879-5.422-5.749-5.694-1.816-.172-2.62 1.125-3.91 1.378-1.044.206-1.564-.233-2.174-.431a4.192 4.192 0 0 0-1.95-.124c-1.152.211-2.392 1.35-3.371 2.648l-.486-.172c.284-.348.581-.68.886-.992 1.567-1.605 3.096-2.606 4.654-2.627 1.04-.015 1.662.477 2.198.369.608-.123 1.124-.866 2.309-1.21 2.14-.618 3.532.164 5.086 1.023 2.04 1.125 3.948 2.766 3.815 5.677-.052 1.137-1 1.965-1.002 2.765-.002.545.883 1.014 1.036 1.813" fill="#e63820"/><path d="M73.184 67.42c.99-1.34 2.264-2.53 3.45-2.744a4.214 4.214 0 0 1 1.955.13c.613.198 1.136.64 2.183.437 1.294-.251 2.097-1.55 3.92-1.371 2.878.28 6.71 2.587 5.781 5.72-.242.819-1.382 1.485-1.241 2.318.098.59 1.35.86 1.827 2.53.316 1.116.044 2.66-1.258 3.768l-.256-.397a3.09 3.09 0 0 0 .815-1.232c1.102-3.112-1.307-2.745-2.728-3.837-.859-.659.413-1.247 1.19-1.858 1.52-1.193 1.403-2.173.723-3.282-1.407-2.294-5.504-4.063-7.064-2.545-1.195 1.161-.71 1.096-1.253 1.858-.255.357-1.13.386-1.362-.164-.346-.817-.245-.744-.84-1.202-1.587-1.22-3.83.172-5.37 2.036l-.472-.165" fill="#f14a1f"/></g><g fill-rule="evenodd"><path d="M105.217 42.955c-.35 1.813-1.06 3.352-3.078 4.05a18.18 18.18 0 0 1-.465.156l-.088-.429c.139-.046.279-.092.417-.14 1.434-.498 2.314-1.48 2.737-3.676.153-.796-.495-1.552-.291-2.059.297-.739 1.483-1.163 1.95-2.198 1.198-2.65.032-4.866-1.444-6.648-1.127-1.362-2.13-2.592-4.344-2.796-1.225-.113-1.98.39-2.589.283-.537-.094-.931-.777-1.901-1.142-1.454-.545-3.243-.173-5.289.746a14.36 14.36 0 0 0-1.15.577l-.351-.303a15.43 15.43 0 0 1 1.321-.67c1.774-.797 3.88-1.44 5.684-.764.482.18.849.433 1.234.74.126.1.416.349.584.378.213.037.634-.084.852-.136.585-.137 1.107-.206 1.695-.151 2.312.212 3.375 1.41 4.649 2.948 1.685 2.034 2.718 4.367 1.494 7.076-.258.573-.683.976-1.175 1.388-.237.198-.657.518-.77.793-.031.082.037.31.06.386.087.285.193.552.248.848.047.243.06.49.01.743" fill="#c71e25"/><path d="M104.762 42.927c-.42 2.206-1.297 3.19-2.732 3.685-.148.05-.292.1-.436.146l-.149-.734c1.545-.574 2.332-1.873 2.447-2.997.172-1.72-.888-2.427-.764-3.009.18-.824 1.48-1.027 2.009-1.699 2.018-2.568-.687-6.1-3.257-7.406-1.627-.827-2.85.084-4.143-.154-1.047-.192-1.37-.79-1.864-1.199a4.192 4.192 0 0 0-1.768-.831c-1.15-.227-2.721.377-4.109 1.225l-.388-.338c.391-.22.79-.418 1.188-.598 2.047-.917 3.836-1.287 5.293-.734.974.368 1.371 1.054 1.91 1.15.61.109 1.363-.393 2.591-.278 2.217.21 3.226 1.45 4.356 2.819 1.484 1.795 2.657 4.022 1.465 6.68-.466 1.039-1.651 1.462-1.948 2.204-.202.507.45 1.269.299 2.068" fill="#e63820"/><path d="M89.955 29.917c1.412-.882 3.035-1.523 4.215-1.286a4.214 4.214 0 0 1 1.772.839c.497.41.821 1.012 1.87 1.208 1.296.241 2.52-.671 4.15.164 2.574 1.317 5.29 4.869 3.277 7.443-.526.673-1.83.874-2.006 1.7-.125.585.941 1.296.77 3.024-.114 1.155-.935 2.492-2.552 3.043l-.093-.463a3.083 3.083 0 0 0 1.21-.846c2.168-2.49-.208-3.034-1.128-4.57-.557-.929.842-1.01 1.79-1.292 1.851-.552 2.101-1.506 1.876-2.787-.466-2.651-3.627-5.8-5.636-4.962-1.538.642-1.062.76-1.848 1.268-.368.239-1.192-.055-1.206-.652-.022-.887.044-.782-.34-1.426-1.03-1.717-3.627-1.247-5.744-.079l-.377-.326" fill="#f14a1f"/></g><g fill-rule="evenodd"><path d="M120.415 92.369c-1.099.997-2.269 1.608-3.772.92a15.682 15.682 0 0 1-.344-.162l.162-.333c.102.048.206.098.31.144 1.068.489 2.06.342 3.39-.866.482-.438.484-1.306.852-1.524.536-.319 1.428.077 2.208-.34 2-1.067 2.428-3.192 2.463-5.208.028-1.54.062-2.923-1.108-4.318-.646-.772-1.328-.87-1.625-1.287-.262-.368-.15-1.043-.526-1.836-.564-1.188-1.774-1.96-3.403-2.52a9.829 9.829 0 0 0-.946-.274l-.052-.4c.381.087.75.193 1.09.31 1.413.485 2.94 1.26 3.64 2.734.187.393.273.768.342 1.19.022.138.065.467.147.582.104.146.406.305.557.395.403.243.736.495 1.047.865 1.221 1.457 1.238 2.852 1.207 4.593-.04 2.301-.603 4.428-2.646 5.519-.432.23-.876.255-1.362.246-.234-.004-.633-.032-.834.085-.059.036-.133.226-.157.29-.091.236-.163.473-.278.7a1.656 1.656 0 0 1-.362.495" fill="#c71e25"/><path d="M120.168 92.091c-1.334 1.216-2.324 1.366-3.392.876-.11-.051-.218-.1-.323-.151l.278-.57c1.171.501 2.266.092 2.888-.584.95-1.036.693-2.107 1.052-2.42.51-.442 1.358.166 1.994.023 2.429-.545 2.626-4.415 1.798-6.74-.523-1.472-1.676-1.567-2.3-2.46-.506-.723-.395-1.302-.476-1.853a3.932 3.932 0 0 0-.603-1.555c-.547-.804-1.748-1.3-2.964-1.53l-.055-.445c.333.078.66.173.977.282 1.63.56 2.839 1.335 3.401 2.53.377.796.265 1.475.526 1.845.297.42.977.517 1.624 1.293 1.168 1.4 1.134 2.792 1.104 4.34-.038 2.028-.467 4.165-2.468 5.24-.782.42-1.67.024-2.209.345-.367.22-.37 1.093-.852 1.534" fill="#e63820"/><path d="M118.115 75.078c1.247.222 2.495.723 3.055 1.552.246.364.508.935.601 1.562.083.553-.03 1.135.475 1.861.624.897 1.778.992 2.3 2.471.824 2.335.624 6.225-1.805 6.777-.636.144-1.484-.466-1.994-.02-.36.314-.101 1.39-1.055 2.433-.638.696-1.77 1.111-2.972.554l.177-.358c.362.147.74.191 1.113.13 2.477-.408 1.383-2.12 1.616-3.657.14-.93.983-.186 1.666.166 1.336.69 1.952.204 2.457-.77 1.046-2.014.791-5.892-.777-6.482-1.2-.452-.985-.104-1.688-.215-.33-.053-.656-.715-.369-1.118.427-.597.413-.49.511-1.134.26-1.719-1.463-2.887-3.256-3.322l-.055-.43" fill="#f14a1f"/></g><g fill-rule="evenodd"><path d="M96.932 127.946c-.35 1.814-1.061 3.353-3.079 4.052-.158.054-.312.107-.464.155l-.088-.43c.138-.045.279-.091.417-.14 1.434-.497 2.313-1.479 2.737-3.676.153-.796-.496-1.551-.292-2.058.297-.74 1.484-1.164 1.95-2.199 1.198-2.65.033-4.865-1.443-6.647-1.127-1.362-2.13-2.593-4.344-2.796-1.225-.113-1.98.39-2.589.283-.538-.094-.932-.777-1.902-1.142-1.454-.546-3.242-.173-5.288.745a14.54 14.54 0 0 0-1.15.578l-.352-.303a15.43 15.43 0 0 1 1.322-.67c1.773-.798 3.88-1.441 5.684-.764.482.18.849.433 1.233.739.127.101.416.35.585.38.212.036.633-.086.852-.138.585-.137 1.106-.205 1.694-.15 2.313.212 3.375 1.41 4.65 2.948 1.685 2.034 2.717 4.367 1.494 7.076-.258.573-.683.976-1.175 1.388-.237.197-.657.518-.77.793-.032.082.037.31.06.386.086.284.193.552.248.848.046.242.059.49.01.742" fill="#c71e25"/><path d="M96.476 127.918c-.42 2.207-1.297 3.19-2.731 3.686-.148.05-.292.1-.436.146l-.149-.734c1.545-.574 2.331-1.874 2.446-2.997.173-1.72-.888-2.428-.763-3.009.179-.825 1.48-1.027 2.008-1.7 2.018-2.567-.687-6.099-3.256-7.405-1.627-.827-2.85.084-4.144-.154-1.047-.192-1.37-.791-1.863-1.2a4.192 4.192 0 0 0-1.769-.83c-1.149-.227-2.72.376-4.108 1.225l-.388-.338c.39-.22.79-.419 1.188-.598 2.046-.918 3.836-1.287 5.293-.735.974.369 1.371 1.054 1.91 1.15.61.11 1.363-.393 2.59-.277 2.218.21 3.227 1.45 4.357 2.818 1.483 1.795 2.656 4.022 1.464 6.681-.466 1.039-1.65 1.462-1.947 2.204-.202.507.45 1.269.298 2.067" fill="#e63820"/><path d="M81.67 114.909c1.411-.882 3.034-1.523 4.215-1.286a4.214 4.214 0 0 1 1.772.838c.497.41.82 1.013 1.87 1.208 1.295.242 2.519-.67 4.149.164 2.574 1.318 5.291 4.87 3.278 7.443-.526.673-1.83.874-2.006 1.701-.125.585.94 1.296.77 3.024-.115 1.154-.935 2.491-2.553 3.043l-.092-.463a3.083 3.083 0 0 0 1.21-.847c2.168-2.49-.208-3.033-1.129-4.57-.557-.928.843-1.009 1.79-1.292 1.852-.552 2.102-1.506 1.877-2.787-.466-2.65-3.628-5.8-5.636-4.961-1.539.642-1.063.76-1.848 1.268-.369.238-1.192-.055-1.207-.652-.022-.888.045-.783-.34-1.427-1.029-1.716-3.626-1.246-5.743-.078l-.378-.326" fill="#f14a1f"/></g><g fill-rule="evenodd"><path d="M27.102 75.868c-1.732.734-3.416.953-5.061-.603a23.293 23.293 0 0 1-.374-.362l.321-.34c.11.107.224.217.337.323 1.17 1.106 2.465 1.383 4.562.493.76-.323 1.07-1.405 1.608-1.507.786-.148 1.765.76 2.892.6 2.887-.402 4.175-2.856 4.932-5.355.578-1.91 1.11-3.62.134-5.904-.54-1.264-1.36-1.703-1.586-2.361-.199-.582.18-1.372-.011-2.536-.29-1.745-1.536-3.271-3.383-4.725a14.355 14.355 0 0 0-1.091-.781l.077-.523c.447.285.872.588 1.259.894 1.602 1.259 3.245 2.935 3.603 5.1.096.577.071 1.086.01 1.643-.022.184-.083.614-.021.797.078.23.4.568.559.751.42.49.75.96 1.009 1.566 1.019 2.385.547 4.134-.107 6.292-.863 2.854-2.32 5.247-5.271 5.66-.624.088-1.19-.088-1.797-.324-.292-.114-.784-.335-1.077-.281-.087.017-.246.219-.299.287-.198.253-.371.516-.596.745-.183.19-.388.349-.63.45" fill="#c71e25"/><path d="M26.89 75.406c-2.105.899-3.4.626-4.569-.481-.12-.115-.238-.226-.351-.34l.55-.58c1.293 1.168 2.812 1.165 3.831.61 1.56-.852 1.614-2.308 2.176-2.53.797-.316 1.646.836 2.495.953 3.242.447 4.856-4.292 4.638-7.577-.137-2.08-1.551-2.735-2.02-4.14-.378-1.137-.034-1.808.058-2.532a5.436 5.436 0 0 0-.207-2.222c-.404-1.257-1.735-2.434-3.18-3.286l.087-.58c.39.252.767.523 1.127.806 1.847 1.454 3.092 2.984 3.376 4.735.191 1.17-.189 1.965.009 2.549.223.66 1.043 1.098 1.582 2.366.972 2.292.437 4.012-.147 5.93-.764 2.514-2.058 4.982-4.95 5.395-1.129.161-2.106-.745-2.894-.594-.538.103-.85 1.192-1.612 1.518" fill="#e63820"/><path d="M30.32 53.218c1.487.856 2.877 2.062 3.288 3.356.18.568.308 1.402.203 2.228-.092.73-.439 1.403-.062 2.544.467 1.41 1.882 2.063 2.015 4.151.21 3.298-1.415 8.06-4.66 7.62-.848-.114-1.697-1.27-2.495-.95-.564.225-.618 1.688-2.184 2.547-1.046.573-2.615.565-3.926-.688l.348-.365a2.91 2.91 0 0 0 1.351.68c3.254.64 2.485-2.004 3.32-3.815.505-1.095 1.3.224 2.033.981 1.434 1.482 2.379 1.16 3.357.18 2.024-2.029 3.074-6.987 1.314-8.451-1.347-1.122-1.2-.588-2.043-1.053-.395-.218-.572-1.197-.069-1.566.747-.548.692-.42 1.042-1.179.933-2.024-.817-4.283-2.914-5.657l.082-.563" fill="#f14a1f"/></g><g fill-rule="evenodd"><path d="M57.59 27.812c1.791.45 3.288 1.246 3.874 3.299.045.161.09.318.13.472l-.434.064c-.038-.14-.077-.283-.118-.424-.416-1.46-1.348-2.392-3.517-2.937-.787-.197-1.577.408-2.072.176-.721-.337-1.08-1.546-2.087-2.069-2.58-1.344-4.856-.303-6.717 1.071-1.422 1.05-2.707 1.983-3.034 4.182-.18 1.217.28 1.998.139 2.6-.124.532-.828.887-1.246 1.836-.625 1.421-.353 3.228.45 5.321.15.396.323.792.513 1.182l-.322.333a15.43 15.43 0 0 1-.596-1.357c-.697-1.815-1.223-3.954-.446-5.717.207-.471.48-.824.806-1.19.108-.122.372-.397.411-.564.05-.21-.05-.637-.089-.858-.104-.592-.143-1.116-.056-1.7.34-2.297 1.595-3.291 3.202-4.478 2.125-1.57 4.512-2.47 7.148-1.098.558.29.937.736 1.321 1.25.184.248.48.685.75.813.079.036.31-.02.388-.039.288-.07.561-.161.86-.2.245-.033.493-.031.742.032" fill="#c71e25"/><path d="M57.537 28.265c2.18.542 3.112 1.473 3.527 2.932.042.15.085.297.122.444l-.741.108c-.488-1.575-1.741-2.432-2.856-2.61-1.708-.268-2.474.752-3.047.595-.813-.225-.943-1.535-1.585-2.1-2.451-2.158-6.128.347-7.575 2.84-.917 1.578-.075 2.85-.385 4.128-.25 1.035-.866 1.323-1.3 1.794a4.192 4.192 0 0 0-.93 1.72c-.29 1.134.226 2.737.996 4.17l-.36.368a15.092 15.092 0 0 1-.53-1.22c-.803-2.093-1.072-3.9-.44-5.325.423-.952 1.13-1.31 1.255-1.843.143-.603-.316-1.382-.132-2.602.333-2.202 1.626-3.14 3.056-4.193 1.875-1.381 4.164-2.428 6.752-1.09 1.011.523 1.367 1.73 2.092 2.067.495.23 1.292-.378 2.08-.183" fill="#e63820"/><path d="M43.723 42.325c-.802-1.459-1.351-3.115-1.049-4.28.133-.513.44-1.187.936-1.723.437-.473 1.056-.763 1.31-1.8.313-1.28-.53-2.553.394-4.133 1.46-2.498 5.157-5.013 7.614-2.86.643.564.771 1.877 1.587 2.099.577.157 1.346-.868 3.062-.602 1.146.18 2.436 1.073 2.896 2.719l-.467.066a3.083 3.083 0 0 0-.778-1.255c-2.366-2.303-3.04.039-4.626.873-.958.504-.96-.898-1.19-1.859-.448-1.88-1.387-2.183-2.679-2.03-2.672.319-5.993 3.3-5.267 5.352.555 1.572.699 1.103 1.163 1.916.218.38-.121 1.187-.718 1.168-.887-.027-.779-.088-1.443.26-1.771.932-1.447 3.552-.398 5.73l-.347.359" fill="#f14a1f"/></g><g fill-rule="evenodd"><path d="M65.585 111.446c-.243 1.44-.843 2.678-2.727 3.31-.148.05-.292.097-.434.141l-.105-.333c.13-.042.26-.084.39-.128 1.339-.45 2.127-1.257 2.42-3.002.107-.632-.547-1.2-.378-1.606.245-.593 1.353-.975 1.745-1.808 1.008-2.132-.21-3.826-1.702-5.166-1.14-1.024-2.154-1.95-4.27-2.02-1.17-.039-1.863.388-2.448.328-.516-.051-.924-.572-1.865-.82-1.41-.368-3.092-.003-4.993.803-.359.152-.716.32-1.065.502l-.35-.224a15.68 15.68 0 0 1 1.225-.582c1.646-.699 3.618-1.29 5.367-.832.467.122.829.305 1.21.53.126.074.413.257.575.274.204.02.598-.093.803-.142.55-.132 1.042-.207 1.604-.189 2.21.073 3.28.97 4.568 2.128 1.703 1.53 2.8 3.321 1.772 5.5-.218.462-.602.796-1.05 1.14-.215.165-.599.434-.692.655-.026.065.05.242.077.3.096.22.21.427.277.657.056.189.08.383.046.583" fill="#c71e25"/><path d="M65.15 111.442c-.29 1.752-1.075 2.56-2.414 3.009-.139.045-.273.091-.408.133l-.178-.571c1.441-.515 2.125-1.568 2.178-2.456.079-1.36-.965-1.872-.875-2.334.13-.656 1.357-.868 1.826-1.418 1.792-2.101-.956-4.766-3.464-5.688-1.588-.584-2.706.183-3.948.048-1.005-.108-1.342-.565-1.832-.866-.556-.34-1.225-.521-1.723-.58-1.104-.132-2.569.407-3.846 1.13l-.386-.25a15.4 15.4 0 0 1 1.1-.518c1.9-.805 3.584-1.168 4.997-.794.945.25 1.357.772 1.874.826.585.06 1.276-.365 2.45-.324 2.12.074 3.14 1.007 4.283 2.037 1.5 1.35 2.725 3.052 1.723 5.191-.391.836-1.498 1.217-1.743 1.812-.166.407.49.979.386 1.613" fill="#e63820"/><path d="M50.424 101.822c1.3-.751 2.811-1.321 3.946-1.183a4.5 4.5 0 0 1 1.726.586c.493.302.831.762 1.838.873 1.244.137 2.363-.63 3.955-.04 2.513.93 5.273 3.61 3.486 5.716-.467.55-1.698.762-1.824 1.419-.09.464.96.98.883 2.345-.052.912-.766 1.997-2.277 2.497l-.111-.36a2.93 2.93 0 0 0 1.108-.716c1.94-2.046-.347-2.376-1.3-3.546-.575-.707.752-.827 1.639-1.089 1.734-.51 1.924-1.27 1.647-2.267-.575-2.065-3.738-4.411-5.606-3.67-1.432.568-.973.641-1.695 1.073-.338.203-1.136.006-1.18-.463-.064-.697.004-.617-.394-1.107-1.063-1.308-3.51-.832-5.465.173l-.376-.24" fill="#f14a1f"/></g><g fill-rule="evenodd"><path d="M75.794 104.812c-1.847.006-3.494-.395-4.568-2.24a22.227 22.227 0 0 1-.242-.426l.404-.169c.072.127.144.256.219.383.764 1.31 1.896 1.985 4.134 1.977.81-.003 1.427-.785 1.964-.683.782.15 1.427 1.232 2.533 1.49 2.831.665 4.78-.905 6.245-2.697 1.119-1.368 2.133-2.59 1.906-4.801-.125-1.224-.764-1.867-.776-2.486-.011-.546.583-1.064.754-2.086.255-1.532-.455-3.215-1.75-5.046a14.489 14.489 0 0 0-.789-1.018l.23-.402c.334.388.641.783.913 1.167 1.123 1.587 2.16 3.53 1.843 5.43-.084.508-.26.917-.487 1.353-.075.144-.262.476-.26.647.005.216.206.605.299.81.247.548.415 1.046.475 1.633.237 2.31-.734 3.584-1.998 5.13-1.671 2.046-3.761 3.509-6.655 2.83-.612-.143-1.09-.482-1.59-.886-.238-.194-.634-.545-.925-.602-.087-.016-.298.095-.367.133-.263.14-.505.296-.785.407-.229.092-.47.152-.727.153" fill="#c71e25"/><path d="M75.734 104.36c-2.246.013-3.38-.658-4.142-1.97-.078-.136-.156-.267-.228-.4l.692-.287c.86 1.405 2.287 1.926 3.412 1.823 1.721-.162 2.21-1.34 2.805-1.33.844.018 1.293 1.256 2.054 1.644 2.909 1.486 5.853-1.849 6.64-4.622.499-1.756-.631-2.78-.647-4.095-.013-1.065.513-1.497.818-2.06a4.192 4.192 0 0 0 .475-1.895c0-1.172-.894-2.598-1.994-3.796l.257-.446c.29.342.563.694.815 1.05 1.295 1.832 2.002 3.517 1.741 5.053-.174 1.027-.77 1.549-.76 2.096.01.62.648 1.261.77 2.489.222 2.216-.8 3.445-1.926 4.817-1.475 1.802-3.434 3.382-6.273 2.724-1.109-.257-1.752-1.338-2.538-1.486-.536-.1-1.158.685-1.97.69" fill="#e63820"/><path d="M85.648 87.324c1.137 1.216 2.078 2.685 2.073 3.89a4.214 4.214 0 0 1-.48 1.9c-.308.566-.836 1-.826 2.066.012 1.319 1.144 2.344.638 4.104-.797 2.78-3.758 6.13-6.672 4.65-.762-.386-1.21-1.627-2.055-1.64-.598-.01-1.09 1.172-2.819 1.338-1.155.11-2.625-.438-3.478-1.919l.437-.18c.272.428.634.776 1.064 1.024 2.86 1.648 2.937-.788 4.267-1.987.804-.726 1.152.632 1.612 1.507.899 1.71 1.883 1.772 3.097 1.305 2.511-.968 4.992-4.677 3.782-6.487-.926-1.386-.95-.896-1.6-1.569-.305-.315-.176-1.18.408-1.31.866-.192.776-.106 1.334-.608 1.486-1.34.524-3.798-1.03-5.65l.248-.434" fill="#f14a1f"/></g></svg>