<svg xmlns="http://www.w3.org/2000/svg" width="600" height="600" viewBox="0 0 158.75 158.75"><g fill-rule="evenodd"><path d="M72.24 27.517c1.114.134 2.297.583 2.961 1.412l.18.226-.25.15c-.39.23-.792.43-1.222.575-.08.027-.16.05-.24.074.314.18.534.473.612.918l.044.249-.25.044c-.918.165-1.647.403-2.502.255.057.094.119.187.188.29l.18.265-.302.113c-1.72.648-3.316.426-4.998-.161-1.543-.539-2.374-.713-3.88.012-1.098.53-2.169 1.282-3.153 2.04.453.082.901.156 1.377.129 1.503-.086 2.982-.655 4.46-.945 1.131-.222 2.423-.106 3.573-.065l.313.012-.08.303c-.124.468-.34.86-.67 1.155 1.762.28 3.517.85 4.91 1.974l.298.241-.341.18c-.248.13-.466.229-.74.294a3.07 3.07 0 0 1-.406.068c.988.603 2.458 1.499 2.767 2.652l.06.229-.2.126c-1.054.665-2.822.329-3.975.128l-.015-.002c.262.298.481.612.685 1.007l.2.389-.44-.02c-1.248-.057-2.445-.423-3.562-.959.498 1.104.726 2.463.335 3.56l-.097.271-.256-.13a6.09 6.09 0 0 1-1.173-.75 5.105 5.105 0 0 1-.215-.19c.019.406-.122.79-.486 1.135l-.192.18-.173-.195c-.648-.74-1.246-1.246-1.564-2.101-.06.116-.115.238-.175.373l-.132.296-.255-.196c-1.523-1.172-2.157-2.765-2.514-4.582-.092-.465-.164-.932-.248-1.399-.057-.314-.123-.634-.245-.93a2.315 2.315 0 0 0-.077-.172c-.368-.728-.924-1.182-1.72-1.298-1.402 1.131-.1.16-1.522 1.26l-.148.115-.152-.107c-.346-.242-.562-.484-.675-.9l-.044-.164.136-.103 1.798-.95c.116-.788-.157-1.444-.738-2.003a1.905 1.905 0 0 0-.14-.125c-.247-.203-.534-.36-.817-.508-.421-.218-.846-.424-1.265-.65-1.63-.876-2.966-1.95-3.636-3.75l-.113-.302.32-.039c.148-.017.28-.034.41-.057-.725-.556-1.033-1.277-1.548-2.114l-.136-.223.23-.13c.436-.247.846-.269 1.228-.13a4.52 4.52 0 0 1-.118-.262 6.148 6.148 0 0 1-.373-1.342l-.049-.283.29-.013c1.163-.051 2.394.567 3.302 1.368-.183-1.225-.18-2.476.134-3.687l.11-.424.312.305a4.8 4.8 0 0 1 .762.95v-.014c.149-1.161.348-2.95 1.294-3.76l.18-.154.2.124c1.01.635 1.433 2.304 1.72 3.425.053-.126.114-.25.183-.367.144-.244.303-.423.5-.62l.272-.275.142.356c.664 1.662.693 3.508.441 5.275.379-.23.818-.32 1.3-.301l.315.012-.082.303c-.298 1.111-.568 2.38-1.115 3.396-.711 1.326-1.69 2.573-2.216 3.984-.157.424-.22.85-.272 1.285 2.026-1.533 4.095-3.494 3.89-6.22-.134-1.778.201-3.393 1.317-4.833l.197-.255.2.25c.078.096.15.183.222.264.11-.86.554-1.487.98-2.315l.117-.226.225.115c.401.205.616.502.696.856.046-.07.092-.14.142-.209.265-.368.574-.693.91-.998l.216-.195.163.239c.569.839.666 2.03.505 3.081.871-.738 1.848-1.359 2.928-1.739l.379-.133-.045.397c-.03.262-.068.482-.164.732a2.758 2.758 0 0 1-.13.29c.996-.493 2.471-1.215 3.542-.921l.233.065-.006.244c-.035 1.143-1.23 2.381-1.994 3.186.354-.058.703-.08 1.102-.056l.463.026-.277.374c-.706.954-1.623 1.723-2.626 2.35" fill="#498130"/><path d="M74.683 25.004c-.402-.025-.852-.04-1.83.23 1.12-1.2 2.438-2.454 2.469-3.604l.001-.047-.045-.013c-1.108-.31-2.695.581-4.172 1.297.669-.842.717-1.298.758-1.68-1.257.44-2.386 1.224-3.4 2.196.377-1.286.294-2.753-.31-3.644-.99.9-1.083 1.392-1.484 1.857.175-.772-.04-1.22-.539-1.477-.56 1.098-1.005 1.663-.96 2.729-.14-.096-.263-.168-.647-.646-1.136 1.474-1.363 3.081-1.24 4.641.225 2.837-1.817 4.855-4.415 6.757.085-.63.108-1.26.35-1.917.52-1.413 1.446-2.575 2.203-3.996.497-.933.769-2.174 1.074-3.327-.624-.026-1.192.131-1.64.694.363-2.026.376-4.051-.335-5.818-.289.292-.638.641-.873 1.736-.436-1.641-.805-3.485-1.84-4.14l-.042-.026-.039.033c-.94.807-1.064 2.69-1.284 4.381-.46-.947-.787-1.288-1.09-1.584-.358 1.404-.289 2.891.035 4.376-.954-1.125-2.438-1.938-3.678-1.888.237 1.362.634 1.712.823 2.317-.605-.574-1.142-.628-1.673-.329.674 1.092.928 1.792 1.93 2.332-.17.071-.309.141-.974.22.677 1.803 2.047 2.825 3.517 3.622 1.125.61 1.762.838 2.27 1.327.725.7.95 1.49.798 2.325l-1.826.96c.1.363.285.555.576.76 1.276-.987.067-.085 1.55-1.278.856.094 1.555.54 2.015 1.45.318.63.349 1.305.6 2.56.329 1.64.901 3.25 2.426 4.428.27-.613.378-.725.496-.867.221 1.119.815 1.567 1.66 2.533.443-.42.55-.95.178-1.697.524.36.742.84 1.973 1.469.413-1.17.072-2.828-.72-4.071 1.322.747 2.723 1.25 4.17 1.322-.194-.376-.423-.79-1.193-1.507 1.681.288 3.517.723 4.566.062l.043-.027-.013-.05c-.32-1.18-1.975-2.075-3.414-2.976 1.116.098 1.552-.133 1.916-.323-1.48-1.2-3.418-1.784-5.462-2.033.67-.262.988-.76 1.147-1.364-1.192-.048-2.458-.153-3.496.047-1.581.306-2.964.849-4.467.929-.716.039-1.338-.134-1.982-.238 1.23-.968 2.465-1.842 3.617-2.395 1.457-.698 2.292-.63 4.054-.008 1.475.521 3.056.834 4.799.182-.343-.51-.376-.647-.425-.81 1.004.358 1.675.1 2.89-.113-.1-.553-.464-.89-1.253-.95.562-.245 1.06-.19 2.211-.87-.71-.887-2.207-1.407-3.614-1.37 1.294-.697 2.436-1.57 3.26-2.69" fill="#65b931"/><path d="M72.776 23.207c-2.313.801-5.146 2.122-6.68 4.489-.055-1.49.223-3.565.168-5.055-1.017 3.64-1.285 4.962-2.52 7.54 2.307-.802 4.703-1.217 7.593-.436-1.448-.742-2.881-1.472-4.83-1.468 2.106-2.011 3.804-3.608 6.27-5.07m-.512 15.933c-1.682-1.78-5.773-2.92-8.561-3.344 1.335-.663 3.062-1.227 4.397-1.891-3.737.571-4.838 1.92-7.22.91 1.68 1.773 4.363 5.294 5.745 7.583.08-1.626-1.047-3.569-3.072-5.428 2.698 1.09 6.363.525 8.711 2.17M57.826 19.58c1.204 2.132 1.091 6.378.674 9.167 1.027-1.08 2.075-2.564 3.102-3.644-1.646 3.402-3.26 4.057-2.995 6.632-1.2-2.128-3.775-5.73-5.556-7.724 1.578.402 3.102 2.052 4.283 4.534-.247-2.9 1.373-6.236.492-8.965" fill="#59a133"/><path d="M32.815 69.344c-.993-.154-2.038-.593-2.607-1.356l-.154-.208.229-.126a5.74 5.74 0 0 1 1.111-.477c.073-.022.145-.04.219-.059-.276-.171-.465-.44-.52-.84l-.032-.225.225-.032c.827-.118 1.487-.31 2.248-.15a6.256 6.256 0 0 0-.16-.266l-.152-.242.274-.092c1.56-.526 2.981-.278 4.469.3 1.365.53 2.103.712 3.475.11.999-.44 1.98-1.08 2.885-1.728-.403-.088-.802-.168-1.228-.159-1.349.03-2.69.494-4.023.708-1.02.163-2.172.02-3.2-.054l-.28-.02.08-.27c.127-.414.331-.758.636-1.012-1.568-.305-3.122-.87-4.334-1.92l-.26-.225.312-.15a2.73 2.73 0 0 1 .672-.24c.12-.025.242-.04.365-.049-.865-.57-2.154-1.418-2.395-2.46l-.047-.207.185-.106c.963-.563 2.535-.207 3.562.008.003.002.009.002.012.003a4.334 4.334 0 0 1-.581-.923l-.167-.354.393.031c1.116.09 2.176.455 3.159.97-.411-1.005-.573-2.228-.189-3.198l.095-.24.226.124c.368.202.714.43 1.026.71.065.056.126.116.187.176-.004-.365.134-.704.47-1.002l.178-.156.148.181c.557.682 1.078 1.154 1.335 1.93.058-.102.11-.21.17-.329l.126-.26.222.183c1.327 1.096 1.845 2.542 2.108 4.18.068.42.118.84.179 1.26.041.283.09.572.19.84.02.053.04.106.064.157.307.663.79 1.087 1.5 1.215 1.29-.969.094-.14 1.401-1.08l.136-.099.133.1c.302.228.488.452.576.828l.035.148-.125.088-1.64.794c-.128.702.096 1.298.598 1.816.039.041.08.08.122.117.215.19.467.34.716.48.37.208.744.406 1.112.62 1.432.836 2.594 1.84 3.138 3.472l.092.273-.288.025a6.259 6.259 0 0 0-.368.04c.631.519.884 1.174 1.32 1.94l.115.204-.21.109c-.399.207-.766.214-1.104.078.035.078.068.157.098.238.147.393.236.797.291 1.213l.036.255-.26.003c-1.043.009-2.126-.583-2.914-1.328.126 1.102.085 2.222-.234 3.296l-.112.377-.27-.283a4.308 4.308 0 0 1-.652-.874l-.001.012c-.17 1.035-.404 2.63-1.275 3.327l-.166.131-.176-.117c-.884-.6-1.21-2.107-1.432-3.12a2.92 2.92 0 0 1-.176.324 2.713 2.713 0 0 1-.468.54l-.251.237-.117-.324c-.542-1.508-.51-3.162-.23-4.735-.346.193-.742.26-1.173.228l-.282-.02.083-.27c.302-.984.583-2.112 1.104-3.005.678-1.165 1.593-2.25 2.108-3.497.154-.375.223-.755.284-1.142-1.862 1.31-3.776 3-3.676 5.447.064 1.596-.286 3.031-1.33 4.286l-.184.222-.172-.23a6.55 6.55 0 0 0-.19-.243c-.126.766-.542 1.314-.95 2.042l-.111.199-.198-.11c-.353-.196-.536-.469-.597-.788a4.704 4.704 0 0 1-.133.182 5.71 5.71 0 0 1-.846.865l-.2.169-.138-.22c-.483-.768-.533-1.837-.356-2.774-.803.634-1.697 1.16-2.675 1.466l-.344.107.053-.354c.035-.233.075-.43.169-.65a2.47 2.47 0 0 1 .126-.256c-.907.41-2.25 1.01-3.2.715l-.207-.066.013-.218c.067-1.022 1.176-2.093 1.884-2.79a4.35 4.35 0 0 1-.987.016l-.415-.038.26-.326c.662-.832 1.507-1.492 2.424-2.022" fill="#498130"/><path d="M30.55 71.518c.36.035.762.063 1.645-.149-1.04 1.04-2.259 2.122-2.322 3.15l-.003.042.04.013c.983.312 2.431-.436 3.776-1.031-.625.733-.682 1.14-.731 1.48 1.139-.354 2.174-1.021 3.112-1.86-.377 1.14-.348 2.455.165 3.272.914-.774 1.012-1.212 1.385-1.617-.18.687-.002 1.094.437 1.34.536-.965.952-1.458.944-2.413.122.09.23.158.56.598 1.063-1.285 1.316-2.716 1.254-4.116-.113-2.547 1.778-4.29 4.163-5.912-.096.562-.136 1.124-.373 1.706-.51 1.248-1.375 2.26-2.096 3.508-.475.82-.757 1.922-1.065 2.945.557.043 1.071-.08 1.489-.57-.388 1.803-.462 3.615.119 5.219.268-.253.591-.554.835-1.527.34 1.483.613 3.145 1.518 3.763l.038.025.036-.028c.866-.694 1.036-2.375 1.286-3.883.381.863.664 1.178.926 1.453.364-1.246.349-2.58.105-3.919.82 1.036 2.122 1.81 3.234 1.805-.17-1.227-.514-1.552-.665-2.1.524.533 1.003.598 1.488.346-.57-.998-.775-1.633-1.656-2.148.154-.058.281-.117.88-.165-.55-1.637-1.745-2.594-3.036-3.353-.99-.581-1.552-.805-1.991-1.259-.628-.649-.805-1.363-.642-2.106l1.664-.803c-.078-.328-.237-.506-.492-.699-1.173.845-.063.075-1.427 1.097-.764-.11-1.375-.533-1.76-1.36-.265-.575-.27-1.18-.457-2.312-.243-1.478-.705-2.937-2.034-4.04-.26.541-.361.638-.471.761-.163-1.008-.68-1.428-1.408-2.319-.409.362-.52.833-.211 1.514-.458-.338-.638-.776-1.72-1.376-.407 1.035-.154 2.529.518 3.667-1.161-.71-2.4-1.205-3.693-1.314.162.343.354.72 1.021 1.387-1.496-.31-3.126-.757-4.085-.198l-.04.023.01.044c.25 1.068 1.704 1.92 2.964 2.771-.996-.122-1.393.071-1.726.23 1.288 1.12 3.005 1.703 4.827 1.99-.608.214-.908.649-1.069 1.185 1.066.08 2.196.214 3.131.067 1.425-.224 2.68-.667 4.028-.692.643-.013 1.194.16 1.767.274-1.13.829-2.264 1.573-3.313 2.032-1.326.58-2.071.492-3.629-.119-1.304-.513-2.71-.842-4.29-.313.29.467.315.592.355.738-.889-.351-1.497-.14-2.591.012.072.498.387.81 1.092.89-.511.202-.956.136-2.007.71.61.816 1.932 1.328 3.193 1.338-1.18.584-2.23 1.33-3.002 2.306" fill="#65b931"/><path d="M32.201 73.187c2.096-.646 4.674-1.74 6.12-3.811.003 1.335-.31 3.184-.307 4.52 1.023-3.227 1.305-4.402 2.49-6.672-2.09.646-4.248.944-6.811.154 1.274.71 2.534 1.407 4.278 1.465-1.947 1.735-3.517 3.111-5.77 4.344m.953-14.249c1.45 1.646 5.078 2.795 7.56 3.26-1.215.553-2.778 1.004-3.994 1.557 3.363-.395 4.39-1.57 6.492-.59-1.449-1.64-3.742-4.875-4.907-6.968-.123 1.453.826 3.228 2.58 4.955-2.381-1.06-5.68-.668-7.73-2.214m12.317 17.961c-1.011-1.946-.778-5.744-.318-8.228-.952.935-1.937 2.231-2.89 3.166 1.58-2.995 3.044-3.53 2.888-5.844 1.007 1.942 3.2 5.247 4.733 7.088-1.4-.41-2.713-1.934-3.693-4.193.13 2.604-1.423 5.54-.72 8.01" fill="#59a133"/><path d="M75.313 97.196c.36-.945 1.012-1.882 1.881-2.282l.238-.11.076.253c.117.391.204.787.237 1.194.006.076.01.152.012.228.227-.236.53-.365.937-.337l.227.016-.015.229c-.057.838-.007 1.529-.323 2.245.094-.03.19-.063.295-.102l.27-.099.034.289c.19 1.647-.351 2.994-1.232 4.338-.808 1.233-1.14 1.922-.835 3.398.223 1.076.648 2.177 1.096 3.204.171-.38.334-.755.414-1.177.252-1.334.078-2.752.146-4.109.053-1.038.436-2.143.723-3.14l.078-.272.248.137c.382.21.679.484.865.837.629-1.48 1.51-2.892 2.798-3.866l.276-.208.082.338c.06.246.1.457.097.712a2.768 2.768 0 0 1-.03.37c.744-.733 1.849-1.824 2.925-1.843l.213-.003.067.204c.352 1.066-.328 2.54-.755 3.506l-.005.012c.318-.165.64-.287 1.03-.38l.384-.09-.113.38c-.322 1.08-.904 2.048-1.616 2.908 1.075-.194 2.313-.098 3.188.484l.216.144-.17.196c-.275.32-.572.613-.912.862-.07.052-.142.1-.213.147.36.072.665.28.888.673l.116.207-.21.109c-.787.406-1.361.819-2.18.91.09.078.184.153.29.235l.23.18-.228.18c-1.357 1.077-2.89 1.284-4.557 1.2-.428-.02-.852-.06-1.279-.088a4.184 4.184 0 0 0-.867.012 2.088 2.088 0 0 0-.167.03c-.718.163-1.236.55-1.511 1.222.684 1.473.117.122.77 1.607l.069.154-.127.11c-.287.25-.546.386-.935.394l-.153.003-.06-.141-.44-1.781c-.664-.274-1.298-.178-1.913.208a2.17 2.17 0 0 0-.14.096 4.152 4.152 0 0 0-.623.604c-.283.32-.556.648-.844.965-1.123 1.236-2.354 2.17-4.076 2.364l-.288.033.036-.29a6.3 6.3 0 0 0 .038-.37c-.643.513-1.342.625-2.187.893l-.225.07-.063-.229c-.12-.436-.05-.799.154-1.103a4.077 4.077 0 0 1-.255.047 5.545 5.545 0 0 1-1.255.033l-.259-.02.051-.255c.21-1.03 1.02-1.971 1.919-2.591-1.112-.107-2.207-.383-3.197-.922l-.348-.188.335-.207c.341-.21.657-.351.998-.46l-.012-.003c-.984-.383-2.506-.948-3.01-1.952l-.094-.191.152-.148c.776-.746 2.33-.752 3.373-.758a2.939 2.939 0 0 1-.282-.24 2.731 2.731 0 0 1-.434-.574l-.18-.297.342-.047c1.6-.219 3.221.16 4.712.764-.118-.38-.101-.784.02-1.203l.08-.273.247.138c.907.504 1.958 1.017 2.728 1.716 1.006.913 1.883 2.04 3.003 2.809.336.23.697.378 1.065.519-.9-2.107-2.164-4.346-4.594-4.761-1.585-.27-2.925-.916-3.942-2.207l-.18-.228.262-.12c.101-.048.193-.091.28-.137-.729-.284-1.181-.81-1.812-1.364l-.173-.15.15-.172c.267-.306.574-.43.9-.422a4.735 4.735 0 0 1-.15-.17 5.749 5.749 0 0 1-.675-1.014l-.125-.232.245-.09c.859-.315 1.922-.14 2.807.23-.456-.924-.786-1.913-.883-2.941l-.034-.361.338.126c.222.083.407.164.605.303.077.053.153.113.225.177-.214-.98-.524-2.428-.034-3.3l.109-.19.211.058c.993.28 1.816 1.596 2.354 2.44.026-.322.083-.632.19-.976l.124-.4.267.324c.681.826 1.154 1.796 1.484 2.81" fill="#498130"/><path d="M73.647 94.511c-.11.346-.221.737-.198 1.65-.807-1.24-1.616-2.668-2.615-2.945l-.041-.012-.021.037c-.513.902-.08 2.485.225 3.934-.591-.77-.98-.91-1.305-1.03.11 1.195.55 2.354 1.18 3.454-1.043-.61-2.345-.857-3.257-.523.571 1.063.982 1.25 1.302 1.703-.638-.321-1.076-.231-1.41.149.838.73 1.236 1.243 2.178 1.436-.114.1-.204.193-.706.425 1.042 1.316 2.399 1.865 3.79 2.097 2.531.423 3.852 2.65 4.95 5.338-.533-.212-1.079-.37-1.601-.724-1.123-.764-1.938-1.828-3.016-2.8-.708-.639-1.735-1.147-2.677-1.665-.16.54-.145 1.071.25 1.585v.001c-1.694-.76-3.464-1.213-5.165-.976.193.316.422.698 1.329 1.142-1.531.024-3.225-.056-4.024.707l-.032.031.02.042c.502.998 2.121 1.518 3.554 2.08-.93.194-1.3.407-1.624.607 1.15.62 2.467.884 3.837.924-1.193.59-2.228 1.71-2.455 2.806 1.244.09 1.636-.18 2.208-.214-.635.404-.8.862-.654 1.393 1.103-.352 1.77-.421 2.462-1.181.025.164.057.301-.02.9 1.726-.198 2.918-1.174 3.937-2.287.779-.852 1.117-1.359 1.656-1.696.77-.483 1.51-.508 2.209-.192l.441 1.807c.34-.008.549-.128.792-.338-.586-1.332-.06-.077-.781-1.635.269-.728.812-1.242 1.708-1.447.621-.141 1.218-.02 2.372.033 1.506.07 3.04-.08 4.403-1.157-.477-.37-.552-.489-.65-.623 1.027.05 1.549-.371 2.578-.9-.27-.479-.71-.688-1.445-.526.428-.38.897-.465 1.715-1.405-.934-.617-2.459-.68-3.72-.258.942-.995 1.69-2.11 2.067-3.361-.371.087-.783.198-1.579.715.619-1.409 1.4-2.92 1.05-3.982l-.014-.043h-.046c-1.103.023-2.247 1.275-3.35 2.339.33-.956.223-1.388.136-1.748-1.372 1.033-2.306 2.602-2.97 4.336-.084-.643-.45-1.03-.943-1.3-.302 1.032-.671 2.116-.722 3.069-.078 1.45.096 2.778-.162 4.111-.122.635-.409 1.142-.64 1.682-.58-1.287-1.075-2.559-1.307-3.688-.293-1.427-.051-2.142.877-3.548.778-1.177 1.397-2.492 1.206-4.16-.52.189-.648.187-.8.196.531-.802.451-1.445.53-2.554-.505-.034-.879.211-1.104.889-.092-.546.066-.97-.28-2.125-.93.429-1.712 1.625-1.986 2.864-.328-1.285-.843-2.474-1.642-3.44" fill="#65b931"/><path d="M71.658 95.787c.197 2.2.734 4.967 2.471 6.825-1.315-.277-3.07-.973-4.386-1.25 2.963 1.684 4.06 2.207 6.048 3.85-.198-2.194-.04-4.38 1.275-6.74-.966 1.106-1.917 2.2-2.339 3.906-1.3-2.28-2.327-4.114-3.069-6.59M85.49 99.71c-1.925 1.084-3.816 4.415-4.794 6.762-.29-1.313-.407-2.947-.696-4.26-.316 3.395.625 4.653-.78 6.517 1.919-1.084 5.585-2.664 7.89-3.374-1.406-.424-3.352.138-5.42 1.505 1.542-2.124 1.847-5.455 3.8-7.15m-20.267 8.368c2.129-.589 5.82.437 8.169 1.41-.721-1.134-1.791-2.375-2.512-3.51 2.618 2.183 2.839 3.738 5.15 4.068-2.124.586-5.837 2.054-7.971 3.177.696-1.293 2.473-2.267 4.902-2.759-2.592-.416-5.158-2.562-7.738-2.386" fill="#59a133"/><path d="M48.733 104.921c.887.248 1.79.762 2.226 1.517l.118.206-.223.09c-.345.139-.696.25-1.063.314a4.424 4.424 0 0 1-.205.03c.233.186.375.451.383.821l.004.208-.208.005c-.766.018-1.387.12-2.063-.107.034.083.073.167.116.26l.113.236-.26.055c-1.477.31-2.744-.07-4.035-.758-1.185-.63-1.838-.876-3.151-.476-.957.292-1.92.768-2.814 1.26.357.123.712.24 1.1.277 1.231.119 2.503-.157 3.739-.208.946-.038 1.98.218 2.908.396l.253.048-.104.237c-.159.364-.383.655-.688.853 1.395.447 2.748 1.13 3.738 2.218l.212.232-.3.103a2.502 2.502 0 0 1-.638.147 2.52 2.52 0 0 1-.338.004c.726.613 1.807 1.524 1.914 2.499l.02.193-.18.077c-.937.408-2.33-.087-3.24-.394-.004-.002-.01-.002-.012-.004.175.275.313.557.43.903l.112.341-.353-.071c-1.006-.203-1.932-.65-2.771-1.225.265.959.28 2.09-.175 2.931l-.112.209-.192-.138a5.002 5.002 0 0 1-.858-.757 4.192 4.192 0 0 1-.15-.18c-.036.332-.199.626-.537.86l-.179.123-.115-.181c-.433-.68-.856-1.167-1.006-1.901-.064.086-.124.179-.19.28l-.143.224-.183-.19c-1.089-1.142-1.404-2.515-1.466-4.034-.016-.39-.016-.777-.026-1.167a3.81 3.81 0 0 0-.082-.786c-.012-.05-.025-.1-.041-.148-.208-.638-.601-1.076-1.234-1.27-1.279.743-.1.117-1.392.833l-.135.074-.11-.106c-.25-.24-.395-.463-.435-.815l-.015-.139.123-.066 1.578-.545c.194-.625.054-1.192-.347-1.718a1.564 1.564 0 0 0-.099-.12 3.781 3.781 0 0 0-.599-.514c-.314-.23-.633-.45-.945-.686-1.213-.916-2.162-1.955-2.48-3.5l-.055-.259.266.009c.121.004.231.007.339.004-.519-.541-.678-1.165-.991-1.91l-.083-.197.203-.077c.385-.145.72-.112 1.013.048a3.713 3.713 0 0 1-.063-.226 5.049 5.049 0 0 1-.134-1.136l-.004-.236.236.025c.95.105 1.872.76 2.509 1.525.004-1.017.164-2.033.57-2.976l.143-.33.215.286c.22.292.373.567.499.867l.002-.012c.266-.924.653-2.35 1.521-2.89l.166-.101.147.126c.74.641.874 2.049.966 2.995.059-.096.124-.189.195-.276.147-.18.299-.304.484-.44l.255-.189.07.307c.331 1.432.123 2.934-.303 4.336.336-.139.703-.157 1.093-.081l.254.049-.105.236c-.38.864-.76 1.86-1.33 2.616-.744.987-1.694 1.876-2.298 2.956-.18.324-.285.663-.382 1.008 1.836-.99 3.762-2.322 3.936-4.56.115-1.46.59-2.728 1.676-3.757l.191-.182.131.227c.051.088.098.167.147.242.198-.684.636-1.137 1.087-1.756l.122-.168.168.121c.3.217.437.485.458.782.046-.051.092-.102.141-.151.261-.266.553-.491.864-.696l.2-.132.102.215c.357.752.286 1.73.024 2.563.8-.49 1.67-.87 2.594-1.043l.324-.062-.087.317a2.303 2.303 0 0 1-.224.574 2.28 2.28 0 0 1-.142.22c.87-.276 2.158-.677 2.99-.305l.181.083-.035.196c-.172.924-1.297 1.779-2.018 2.337.294-.003.58.023.901.092l.373.079-.272.269c-.693.686-1.533 1.195-2.425 1.578" fill="#498130"/><path d="M51.03 103.188c-.323-.07-.686-.14-1.513-.043 1.059-.834 2.286-1.686 2.454-2.616l.008-.038-.036-.016c-.86-.39-2.26.134-3.548.53.648-.6.744-.964.826-1.268-1.075.198-2.09.694-3.035 1.356.467-.997.583-2.198.205-2.996-.917.605-1.053.993-1.436 1.32.238-.604.12-.994-.253-1.266-.593.82-1.024 1.224-1.121 2.095-.101-.096-.193-.17-.444-.605-1.107 1.054-1.493 2.33-1.588 3.61-.174 2.33-2.084 3.713-4.43 4.931.148-.501.245-1.01.524-1.512.599-1.082 1.496-1.909 2.288-2.967.521-.695.897-1.668 1.289-2.565-.503-.1-.984-.043-1.417.357h-.001c.55-1.599.813-3.24.458-4.763-.271.2-.599.44-.926 1.299-.149-1.387-.217-2.93-.974-3.59l-.031-.027-.036.022c-.864.537-1.201 2.049-1.592 3.395-.254-.827-.477-1.145-.685-1.423-.467 1.095-.597 2.31-.52 3.556-.634-1.032-1.736-1.878-2.749-1.993.022 1.135.3 1.468.377 1.984-.419-.543-.848-.653-1.316-.477.41.97.528 1.57 1.274 2.134-.146.037-.268.076-.818.056.323 1.55 1.307 2.55 2.4 3.381.837.636 1.325.9 1.676 1.362.5.658.585 1.327.356 1.987l-1.602.55c.036.307.161.486.372.69 1.16-.642.065-.062 1.418-.844.683.183 1.194.634 1.454 1.43.18.55.12 1.102.166 2.152.061 1.372.324 2.75 1.414 3.898.296-.464.398-.541.511-.641.04.935.465 1.373 1.03 2.263.412-.285.565-.701.357-1.354.38.357.497.775 1.417 1.439.482-.899.413-2.286-.075-3.395.98.772 2.054 1.357 3.22 1.596-.11-.33-.245-.694-.78-1.373 1.329.445 2.764 1.028 3.698.623l.038-.016-.004-.042c-.112-.999-1.342-1.932-2.398-2.844.894.22 1.276.087 1.596-.022-1.05-1.159-2.55-1.876-4.178-2.334.577-.13.897-.493 1.102-.963-.962-.189-1.976-.433-2.844-.4-1.32.05-2.511.317-3.741.193-.586-.058-1.07-.276-1.58-.441 1.12-.632 2.233-1.186 3.237-1.49 1.27-.385 1.94-.225 3.29.5 1.133.609 2.376 1.061 3.872.75-.213-.456-.223-.572-.243-.71.77.416 1.347.29 2.36.27-.012-.46-.265-.78-.898-.928.487-.128.885-.02 1.904-.43-.466-.808-1.615-1.417-2.761-1.563 1.137-.404 2.173-.97 2.982-1.774" fill="#65b931"/><path d="M49.708 101.49c-1.978.36-4.443 1.077-5.984 2.806.142-1.216.628-2.865.77-4.081-1.282 2.827-1.665 3.865-2.99 5.803 1.972-.361 3.969-.398 6.217.598-1.083-.784-2.154-1.555-3.736-1.797 1.96-1.368 3.539-2.45 5.723-3.329m-2.412 12.867c-1.142-1.655-4.32-3.094-6.529-3.787 1.167-.37 2.639-.612 3.805-.984-3.104-.004-4.167.953-5.974-.167 1.142 1.65 2.878 4.844 3.713 6.875.268-1.31-.403-3.027-1.813-4.79 2.053 1.223 5.099 1.224 6.798 2.853M38.03 96.673c.71 1.881.085 5.313-.603 7.524.969-.748 2.006-1.82 2.974-2.569-1.762 2.555-3.153 2.885-3.261 5.007-.707-1.877-2.346-5.123-3.541-6.965 1.23.525 2.26 2.055 2.907 4.217.163-2.385 1.896-4.89 1.523-7.214" fill="#59a133"/><path d="M108.416 25.878c.588-.478 1.362-.841 2.076-.775l.195.019-.046.192a4.224 4.224 0 0 1-.371 1.015c.235-.068.481-.037.733.133l.142.096-.096.142c-.351.523-.578.99-1.051 1.335.072.016.146.03.229.045l.212.037-.086.2c-.494 1.139-1.35 1.81-2.426 2.35-.986.496-1.461.818-1.817 1.89-.258.781-.396 1.654-.49 2.488.253-.182.499-.364.71-.608.663-.77 1.082-1.755 1.635-2.609.424-.653 1.087-1.226 1.647-1.765l.153-.146.11.181c.168.28.257.569.245.868.964-.724 2.065-1.309 3.265-1.457l.257-.031-.074.25a2.058 2.058 0 0 1-.204.498c-.047.079-.1.155-.158.228.757-.196 1.883-.489 2.587-.098l.14.079-.033.157c-.172.823-1.166 1.524-1.805 1.99-.003 0-.005.004-.008.005.268.013.523.054.81.14l.283.087-.216.203c-.614.58-1.354.989-2.138 1.28.77.277 1.536.804 1.885 1.509l.086.174-.183.064a4.114 4.114 0 0 1-.916.216 3.449 3.449 0 0 1-.193.016c.207.181.327.43.323.77l-.002.177-.176-.008c-.663-.033-1.19.02-1.755-.228.028.084.062.168.099.26l.082.203-.215.032c-1.284.19-2.355-.251-3.405-.931-.27-.174-.53-.358-.796-.537a3.134 3.134 0 0 0-.567-.318 2.118 2.118 0 0 0-.12-.043c-.526-.163-1.007-.107-1.438.226-.109 1.211.031.123-.102 1.33l-.014.126-.123.024c-.28.054-.5.045-.754-.096l-.1-.055.013-.115.384-1.318c-.328-.427-.776-.603-1.32-.583a.891.891 0 0 0-.126.01 3.11 3.11 0 0 0-.63.157c-.304.102-.604.211-.91.309-1.19.38-2.34.523-3.529.003l-.199-.086.132-.174c.06-.08.115-.152.164-.226-.61.091-1.105-.099-1.753-.242l-.172-.038.045-.173c.085-.328.267-.537.513-.657a3.054 3.054 0 0 1-.182-.065 4.153 4.153 0 0 1-.826-.45l-.161-.11.13-.146c.521-.588 1.4-.896 2.215-.96-.681-.487-1.287-1.076-1.727-1.797l-.154-.253.294-.008c.3-.009.558.019.82.076l-.007-.006c-.495-.618-1.269-1.555-1.219-2.395l.01-.159.155-.039c.782-.192 1.791.386 2.47.774a2.201 2.201 0 0 1-.092-.262 2.046 2.046 0 0 1-.066-.534l-.006-.26.24.097c1.119.459 2.028 1.312 2.768 2.264.066-.292.228-.547.464-.773l.154-.147.109.182c.399.667.888 1.394 1.125 2.136.31.969.455 2.03.893 2.948.132.275.31.506.496.736.207-1.704.227-3.63-1.193-4.81-.926-.77-1.552-1.692-1.727-2.91l-.032-.215.215.02c.084.007.16.013.233.017-.366-.458-.462-.968-.663-1.564l-.055-.163.161-.055c.288-.098.533-.063.743.064a4.306 4.306 0 0 1-.091-1.077l.005-.197.193.033c.675.118 1.298.63 1.733 1.202.05-.77.208-1.535.531-2.238l.113-.246.172.208a1.894 1.894 0 0 1 .358.623c.229-.715.571-1.77 1.217-2.152l.141-.083.115.117c.54.554.579 1.716.61 2.465a3.28 3.28 0 0 1 .49-.562l.231-.212.051.31c.132.791.075 1.597-.092 2.379" fill="#498130"/><path d="M108.343 23.512c-.2.183-.42.394-.747.996-.057-1.108-.047-2.337-.59-2.891l-.023-.023-.027.016c-.67.392-.984 1.581-1.33 2.634-.095-.72-.294-.957-.46-1.157-.377.817-.526 1.733-.53 2.682-.448-.787-1.199-1.435-1.915-1.56-.029.903.167 1.178.205 1.592-.293-.448-.611-.554-.97-.433.269.788.334 1.27.873 1.748-.112.023-.205.05-.617.011.182 1.244.855 2.11 1.67 2.782 1.483 1.223 1.503 3.162 1.207 5.317-.266-.338-.561-.644-.767-1.07-.441-.917-.57-1.912-.904-2.947-.22-.68-.695-1.394-1.111-2.083-.306.29-.497.64-.433 1.121-.814-1.128-1.791-2.085-2.982-2.57.006.278.011.611.433 1.24-1.002-.56-2.07-1.247-2.874-1.052l-.033.008-.002.035c-.05.835.805 1.78 1.523 2.681-.675-.222-.995-.223-1.28-.215.513.833 1.268 1.498 2.14 2.038-.994-.065-2.085.274-2.644.899.773.525 1.129.496 1.512.689-.563.024-.842.26-.946.658.846.185 1.306.39 2.039.158-.045.116-.077.216-.352.576 1.194.518 2.334.333 3.411-.006.825-.26 1.234-.462 1.71-.479.68-.023 1.17.238 1.504.705l-.392 1.337c.224.122.404.123.64.078.12-1.083-.01-.073.107-1.353.448-.371.993-.5 1.651-.298.455.142.797.444 1.525.912.95.61 2 1.089 3.289.902-.171-.42-.175-.524-.188-.648.647.418 1.143.34 2.01.383.003-.412-.204-.712-.74-.883.42-.085.755.035 1.638-.267-.374-.75-1.338-1.364-2.314-1.563.984-.291 1.886-.735 2.6-1.404-.273-.082-.581-.165-1.291-.129.929-.68 2.002-1.367 2.174-2.187l.007-.033-.03-.017c-.724-.4-1.935-.017-3.048.26.571-.497.664-.817.743-1.083-1.277.155-2.471.822-3.553 1.697.188-.449.096-.836-.123-1.197-.583.556-1.229 1.12-1.62 1.719-.593.91-.98 1.837-1.646 2.605-.318.365-.694.586-1.047.85.108-1.052.264-2.062.537-2.881.345-1.035.77-1.409 1.9-1.972.945-.47 1.84-1.091 2.342-2.244-.408-.073-.49-.122-.593-.174.646-.32.835-.766 1.303-1.456-.315-.211-.65-.193-1.05.162.145-.388.406-.604.616-1.482-.764-.072-1.72.41-2.362 1.111.27-.955.381-1.92.225-2.846" fill="#65b931"/><path d="M106.575 23.593c-.697 1.5-1.387 3.495-.958 5.351-.749-.673-1.626-1.782-2.375-2.455 1.29 2.203 1.805 2.954 2.477 4.765.694-1.497 1.618-2.855 3.355-3.892-1.041.355-2.068.708-2.982 1.655.013-1.966.035-3.54.483-5.424m7.495 7.732c-1.654-.02-4.13 1.43-5.644 2.585.305-.96.842-2.063 1.147-3.023-1.478 2.083-1.34 3.251-2.95 3.933 1.65.017 4.62.368 6.38.773-.752-.803-2.224-1.168-4.078-1.058 1.797-.799 3.244-2.843 5.145-3.21m-16.277-2.178c1.6.417 3.609 2.466 4.767 3.979-.043-1.006-.27-2.212-.313-3.218.879 2.397.44 3.488 1.813 4.57-1.596-.418-4.554-.86-6.359-.932.937-.576 2.453-.542 4.213.051-1.524-1.242-2.383-3.596-4.121-4.45" fill="#59a133"/><path d="M117.064 84.862c.34-.855.947-1.7 1.744-2.052l.217-.096.066.23c.102.358.175.72.2 1.091.005.07.007.138.008.207.21-.211.488-.325.857-.293l.207.017-.017.208c-.063.763-.027 1.392-.324 2.04.086-.026.173-.055.27-.089l.247-.086.027.263c.151 1.502-.36 2.722-1.18 3.933-.753 1.112-1.066 1.735-.808 3.083.19.983.561 1.99.955 2.932.161-.343.314-.683.393-1.066.248-1.211.108-2.505.189-3.739.062-.945.425-1.946.7-2.85l.076-.246.224.128c.345.197.61.45.775.774.593-1.34 1.415-2.613 2.601-3.482l.254-.185.07.309c.051.224.084.417.079.65a2.52 2.52 0 0 1-.032.336c.687-.658 1.707-1.636 2.687-1.639h.195l.057.187c.307.976-.332 2.308-.734 3.182l-.005.01a3.94 3.94 0 0 1 .943-.33l.35-.077-.108.344c-.307.979-.85 1.852-1.51 2.625.98-.162 2.107-.057 2.895.484l.196.134-.157.177c-.256.287-.53.55-.843.772-.064.046-.13.089-.196.131.326.07.602.263.799.625l.103.19-.192.096c-.723.359-1.251.727-1.997.8.08.072.165.14.26.217l.206.166-.209.162c-1.25.962-2.648 1.13-4.166 1.03-.389-.024-.774-.065-1.163-.097a3.81 3.81 0 0 0-.79-.001c-.05.007-.102.014-.152.025-.656.139-1.133.484-1.393 1.092.603 1.35.106.113.68 1.473l.06.142-.117.098c-.264.224-.502.344-.856.346h-.14l-.053-.129-.375-1.627c-.601-.258-1.18-.18-1.745.164a1.564 1.564 0 0 0-.13.085 3.781 3.781 0 0 0-.574.542c-.262.288-.515.582-.782.866-1.04 1.11-2.173 1.944-3.743 2.097l-.263.026.036-.263c.017-.12.032-.229.04-.336-.593.458-1.23.55-2.003.783l-.206.061-.054-.21c-.104-.398-.035-.728.155-1.002a3.713 3.713 0 0 1-.232.04c-.382.05-.761.047-1.144.012l-.235-.02.05-.233c.205-.934.955-1.78 1.782-2.333-1.011-.113-2.004-.378-2.899-.882l-.313-.177.307-.184a3.95 3.95 0 0 1 .915-.404l-.011-.004c-.89-.362-2.268-.897-2.713-1.818l-.083-.175.14-.133c.717-.668 2.13-.653 3.08-.644a2.676 2.676 0 0 1-.252-.223 2.487 2.487 0 0 1-.387-.528l-.161-.273.313-.038c1.459-.177 2.93.189 4.28.76-.103-.349-.082-.716.034-1.095l.076-.247.224.129c.818.47 1.768.952 2.46 1.6.903.843 1.687 1.882 2.696 2.597.303.214.629.353.963.487-.79-1.93-1.911-3.986-4.119-4.397-1.439-.268-2.65-.874-3.559-2.063l-.16-.21.24-.107c.093-.041.176-.08.256-.12-.66-.269-1.064-.753-1.631-1.266l-.155-.14.139-.154c.247-.275.528-.383.826-.372a4.312 4.312 0 0 1-.136-.157 5.235 5.235 0 0 1-.6-.933l-.11-.212.224-.079c.786-.275 1.751-.102 2.552.248-.403-.847-.69-1.753-.764-2.69l-.026-.33.306.12c.202.08.369.155.547.284.07.05.137.106.203.164-.182-.894-.444-2.217.014-3.005l.101-.171.192.056c.9.268 1.631 1.477 2.11 2.253.028-.293.084-.574.186-.886l.119-.362.238.298c.609.762 1.026 1.651 1.313 2.58" fill="#498130"/><path d="M115.584 82.395c-.105.314-.212.667-.203 1.5-.718-1.141-1.435-2.452-2.341-2.718l-.037-.011-.02.033c-.479.815-.106 2.262.151 3.585-.527-.708-.88-.842-1.174-.956.084 1.09.47 2.152 1.028 3.162-.942-.57-2.124-.813-2.958-.52.505.974.876 1.15 1.162 1.567-.577-.301-.977-.225-1.286.117.753.676 1.108 1.148 1.963 1.337-.105.09-.188.173-.648.377.93 1.213 2.158 1.731 3.423 1.961 2.298.42 3.47 2.465 4.434 4.927-.483-.2-.978-.35-1.449-.68-1.012-.71-1.74-1.69-2.708-2.59-.636-.592-1.563-1.069-2.414-1.553-.153.489-.147.973.205 1.447-1.532-.715-3.137-1.15-4.688-.959.17.291.374.642 1.194 1.058-1.395.002-2.936-.094-3.673.59l-.03.027.018.038c.443.916 1.91 1.411 3.207 1.942-.849.165-1.188.354-1.487.531 1.04.58 2.234.838 3.48.894-1.093.52-2.05 1.527-2.272 2.522 1.13.098 1.492-.143 2.013-.166-.584.36-.74.775-.614 1.26 1.008-.306 1.617-.36 2.258-1.042.02.15.047.275-.032.82 1.575-.158 2.674-1.03 3.616-2.03.721-.764 1.036-1.221 1.532-1.522.707-.428 1.382-.44 2.013-.144l.377 1.652c.31-.003.501-.11.726-.297-.516-1.221-.054-.072-.69-1.5.256-.66.758-1.12 1.576-1.294.567-.12 1.11-.002 2.159.063 1.37.084 2.77-.032 4.025-.994-.43-.343-.496-.453-.583-.576.934.06 1.415-.317 2.36-.785-.24-.44-.639-.635-1.31-.498.395-.34.823-.412 1.58-1.256-.841-.575-2.228-.654-3.382-.286.871-.893 1.566-1.898 1.928-3.032-.34.075-.716.17-1.448.63.582-1.274 1.314-2.64 1.01-3.611l-.012-.04h-.042c-1.005.006-2.063 1.13-3.081 2.083.312-.865.221-1.26.147-1.59-1.264.923-2.136 2.339-2.764 3.909v-.001c-.067-.587-.395-.944-.84-1.197-.29.936-.64 1.919-.7 2.785-.09 1.32.05 2.531-.203 3.741-.12.577-.388 1.034-.606 1.523-.51-1.18-.943-2.344-1.14-3.375-.247-1.304-.017-1.952.847-3.22.725-1.06 1.306-2.25 1.155-3.77-.476.164-.592.161-.732.167.496-.723.432-1.31.519-2.318-.46-.038-.804.18-1.018.794-.077-.498.073-.882-.226-1.938-.853.377-1.58 1.456-1.847 2.58-.281-1.174-.734-2.264-1.449-3.154" fill="#65b931"/><path d="M113.755 83.53c.15 2.005.601 4.531 2.157 6.247-1.194-.27-2.782-.927-3.977-1.197 2.676 1.573 3.668 2.064 5.455 3.588-.15-2 .023-3.99 1.252-6.12-.894.994-1.774 1.978-2.182 3.525-1.153-2.094-2.063-3.778-2.705-6.043m12.54 3.76c-1.767.96-3.534 3.967-4.456 6.091-.246-1.2-.33-2.689-.576-3.888-.334 3.087.506 4.245-.799 5.923 1.762-.96 5.122-2.35 7.23-2.964-1.274-.406-3.054.08-4.955 1.296 1.433-1.913 1.756-4.941 3.556-6.458m-18.565 7.343c1.945-.507 5.292.477 7.417 1.395-.64-1.042-1.598-2.187-2.239-3.23 2.354 2.023 2.534 3.442 4.633 3.774-1.94.504-5.342 1.79-7.3 2.784.652-1.168 2.282-2.03 4.5-2.445-2.353-.415-4.66-2.403-7.012-2.278" fill="#59a133"/><path d="M74.143 61.925c.193-.9.65-1.834 1.377-2.315l.199-.13.103.216c.16.336.293.68.379 1.042.016.068.03.135.042.203.172-.244.428-.402.797-.433l.207-.017.017.208c.066.763.206 1.377.02 2.065a4.84 4.84 0 0 0 .252-.132l.23-.126.07.255c.4 1.456.099 2.743-.508 4.074-.557 1.222-.761 1.889-.282 3.175.35.937.885 1.87 1.43 2.731.102-.364.196-.725.21-1.116.043-1.235-.311-2.488-.437-3.718-.097-.942.095-1.99.216-2.927l.033-.255.242.088c.373.137.678.343.894.635.36-1.42.96-2.813 1.983-3.867l.22-.226.12.293c.088.213.153.398.186.628.016.11.024.223.025.337.568-.763 1.41-1.898 2.377-2.064l.191-.032.088.174c.465.911.057 2.332-.194 3.26-.001.003-.001.008-.003.011.264-.191.537-.347.875-.484l.333-.133-.05.357c-.14 1.016-.529 1.968-1.05 2.84.94-.323 2.068-.408 2.935-.005l.215.1-.125.2c-.204.326-.43.63-.703.902-.055.056-.113.11-.171.161.334.016.637.16.892.483l.133.17-.173.127c-.653.475-1.112.926-1.836 1.121.09.058.186.112.292.172l.232.13-.18.193c-1.072 1.158-2.422 1.556-3.935 1.712-.388.04-.775.064-1.163.097a3.81 3.81 0 0 0-.78.13 1.901 1.901 0 0 0-.145.051c-.624.246-1.036.666-1.191 1.31.82 1.23.123.092.916 1.338l.083.13-.099.116c-.224.265-.438.423-.787.484l-.137.024-.075-.119-.64-1.542c-.636-.154-1.194.02-1.694.453-.04.033-.077.068-.113.106a3.767 3.767 0 0 0-.477.63c-.21.327-.41.659-.626.984-.84 1.268-1.819 2.28-3.341 2.692l-.255.07-.008-.266a5.737 5.737 0 0 0-.016-.338c-.509.55-1.122.748-1.845 1.106l-.193.095-.089-.198c-.169-.376-.156-.712-.014-1.014a3.713 3.713 0 0 1-.222.077 5.049 5.049 0 0 1-1.126.203l-.235.02.01-.238c.047-.955.645-1.916 1.368-2.598-1.015.058-2.038-.039-3.005-.387l-.338-.122.272-.232a3.95 3.95 0 0 1 .835-.551l-.012-.002c-.938-.209-2.386-.506-2.978-1.34l-.111-.16.116-.154c.595-.778 1.992-.998 2.93-1.148a2.676 2.676 0 0 1-.287-.178 2.487 2.487 0 0 1-.47-.456l-.203-.242.302-.09c1.409-.418 2.92-.302 4.346.036-.159-.327-.2-.692-.148-1.085l.033-.257.243.09c.885.327 1.902.643 2.692 1.167 1.031.681 1.977 1.575 3.092 2.111.334.161.679.244 1.03.32-1.101-1.772-2.549-3.612-4.794-3.649-1.464-.024-2.759-.42-3.853-1.44l-.194-.18.22-.146c.084-.056.16-.108.232-.16-.695-.156-1.174-.566-1.82-.977l-.175-.112.11-.176c.199-.312.458-.465.753-.504a4.312 4.312 0 0 1-.16-.132 5.235 5.235 0 0 1-.747-.82l-.144-.19.208-.116c.729-.402 1.71-.392 2.557-.181-.538-.768-.972-1.613-1.201-2.525l-.08-.32.32.067c.213.044.39.091.587.188.077.038.153.081.227.128-.328-.85-.807-2.112-.487-2.965l.072-.186.198.023c.932.115 1.855 1.185 2.456 1.87a3.987 3.987 0 0 1 .036-.905l.056-.377.286.255c.727.65 1.287 1.457 1.724 2.324" fill="#498130"/><path d="M72.272 59.739c-.05.327-.097.693.05 1.513-.898-1.006-1.824-2.178-2.761-2.29l-.039-.004-.014.036c-.336.883.273 2.247.747 3.51-.638-.611-1.008-.685-1.317-.748.265 1.062.822 2.044 1.54 2.946-1.023-.404-2.229-.447-3.003-.02.661.878 1.057.99 1.407 1.353-.618-.201-1-.06-1.248.33.855.54 1.284.947 2.159.99-.089.106-.157.202-.577.48 1.12 1.04 2.417 1.347 3.702 1.363 2.337.03 3.833 1.852 5.194 4.119-.51-.117-1.023-.183-1.542-.43-1.116-.532-1.997-1.376-3.101-2.102-.726-.477-1.72-.793-2.64-1.129-.069.508.017.985.444 1.393-1.63-.45-3.285-.612-4.783-.164.217.259.476.57 1.354.845-1.375.233-2.91.396-3.524 1.193l-.025.033.024.034c.59.83 2.12 1.073 3.487 1.38-.81.304-1.113.547-1.378.772 1.121.398 2.343.453 3.581.3-.991.696-1.768 1.848-1.82 2.866 1.131-.092 1.447-.39 1.957-.499-.516.452-.6.887-.396 1.344.944-.469 1.535-.624 2.053-1.403.045.144.092.263.105.813 1.527-.418 2.465-1.461 3.228-2.603.583-.875.817-1.378 1.256-1.757.626-.54 1.289-.665 1.961-.478L79 75.291c.305-.055.476-.191.666-.414-.712-1.118-.065-.062-.93-1.364.142-.693.56-1.23 1.338-1.539.54-.213 1.093-.187 2.139-.298 1.366-.145 2.725-.492 3.803-1.65-.48-.268-.565-.364-.671-.472.93-.096 1.342-.548 2.196-1.167-.31-.393-.735-.52-1.374-.273.333-.4.743-.543 1.349-1.502-.926-.426-2.307-.272-3.383.283.71-1.026 1.227-2.133 1.395-3.312-.322.13-.678.287-1.323.863.362-1.353.856-2.822.395-3.729l-.02-.037-.04.006c-.99.174-1.847 1.46-2.692 2.569.164-.906.008-1.28-.12-1.592-1.092 1.12-1.715 2.661-2.073 4.314-.164-.568-.547-.865-1.029-1.04-.129.97-.31 1.998-.224 2.862.13 1.316.47 2.487.423 3.723-.022.588-.21 1.084-.344 1.602-.699-1.078-1.32-2.154-1.686-3.138-.461-1.244-.343-1.922.298-3.315.537-1.167.912-2.437.51-3.91-.442.24-.557.257-.694.286.368-.795.207-1.363.125-2.372-.46.04-.762.312-.871.953-.159-.478-.075-.882-.546-1.874-.779.515-1.316 1.7-1.39 2.852-.474-1.11-1.103-2.11-1.955-2.868" fill="#65b931"/><path d="M70.659 61.163c.48 1.952 1.348 4.368 3.168 5.8-1.222-.067-2.898-.45-4.12-.517 2.9 1.105 3.96 1.424 5.976 2.628-.483-1.948-.642-3.938.214-6.243-.716 1.129-1.42 2.246-1.564 3.839-1.486-1.872-2.664-3.381-3.674-5.507m12.991 1.616c-1.582 1.242-2.823 4.501-3.379 6.75-.442-1.142-.773-2.597-1.216-3.738.186 3.099 1.207 4.1.2 5.973 1.577-1.24 4.659-3.17 6.635-4.128-1.324-.188-2.998.588-4.67 2.104 1.094-2.125.908-5.165 2.43-6.961M66.568 73.115c1.834-.824 5.298-.412 7.547.139-.806-.921-1.94-1.89-2.746-2.81 2.658 1.601 3.072 2.97 5.198 2.947-1.83.821-4.97 2.656-6.735 3.962.448-1.26 1.912-2.382 4.03-3.161-2.39-.016-4.996-1.592-7.294-1.077" fill="#59a133"/><g><path d="M105.706 126.258c.199.899.172 1.938-.29 2.678l-.126.201-.184-.154a5.262 5.262 0 0 1-.778-.79 4.424 4.424 0 0 1-.123-.167c-.055.293-.222.544-.545.725l-.18.102-.103-.182c-.377-.667-.76-1.167-.877-1.87-.057.07-.113.142-.174.225l-.156.21-.17-.203c-.97-1.157-1.23-2.454-1.232-3.916-.002-1.343-.093-2.034-1.064-3.005-.708-.707-1.583-1.332-2.437-1.889.06.374.124.74.274 1.102.475 1.142 1.317 2.134 1.944 3.2.479.817.74 1.849 1.02 2.752l.077.246-.258.02c-.396.03-.758-.03-1.076-.206.262 1.441.296 2.957-.197 4.342l-.105.296-.232-.216a2.502 2.502 0 0 1-.43-.494 2.52 2.52 0 0 1-.162-.296c-.2.93-.494 2.313-1.304 2.865l-.16.11-.153-.122c-.802-.636-1.021-2.097-1.18-3.046l-.001-.011c-.16.283-.344.538-.595.804l-.247.26-.103-.346c-.296-.983-.337-2.01-.225-3.02-.72.685-1.712 1.23-2.668 1.225h-.237l.031-.235c.05-.381.13-.752.264-1.113.027-.074.057-.146.088-.218-.31.125-.646.12-1.012-.068l-.192-.1.105-.187c.397-.703.627-1.304 1.204-1.783-.107-.015-.217-.024-.338-.034l-.264-.022.082-.25c.495-1.499 1.557-2.423 2.868-3.193.336-.198.678-.38 1.017-.573a3.81 3.81 0 0 0 .654-.442 1.9 1.9 0 0 0 .112-.107c.465-.483.666-1.037.539-1.686-1.257-.778-.15-.033-1.39-.836l-.13-.084.042-.147c.094-.334.223-.567.515-.767l.115-.08.117.078 1.224 1.136c.642-.124 1.077-.514 1.352-1.116.022-.046.041-.094.059-.143.09-.246.134-.512.171-.77.055-.386.1-.772.16-1.157.237-1.502.707-2.829 1.92-3.837l.203-.17.117.238c.054.11.103.208.156.301.233-.712.709-1.146 1.218-1.773l.135-.166.163.143c.31.271.439.583.435.916.055-.055.112-.11.17-.162.287-.257.603-.467.94-.653l.206-.115.088.22c.356.888.21 2.01-.163 2.931.9-.475 1.87-.812 2.893-.898l.359-.03-.151.325a3.95 3.95 0 0 1-.53.849l.011-.004c.94-.2 2.38-.531 3.266-.019l.168.098-.042.189c-.218.955-1.396 1.736-2.188 2.263.113.007.225.02.335.042.229.046.41.12.617.22l.286.135-.237.208c-1.108.966-2.53 1.489-3.968 1.774.28.23.47.546.586.926l.077.247-.258.019c-.942.07-1.998.206-2.934.058-1.221-.191-2.453-.61-3.69-.635-.37-.007-.719.061-1.07.138 1.739 1.153 3.82 2.225 5.877 1.325 1.342-.587 2.684-.766 4.104-.292l.25.083-.138.223a6.005 6.005 0 0 0-.145.244c.697-.148 1.303.025 2.06.131l.207.029-.028.205c-.05.367-.222.614-.474.772.067.017.134.034.2.054a5.24 5.24 0 0 1 1.02.434l.211.114-.141.191c-.496.67-1.392 1.068-2.25 1.229.808.475 1.554 1.063 2.142 1.797l.207.257-.32.073a2.303 2.303 0 0 1-.612.072 2.265 2.265 0 0 1-.26-.022c.652.638 1.612 1.585 1.675 2.495l.013.198-.19.062c-.896.283-2.18-.307-3.011-.68.141.258.253.523.343.838l.106.367-.366-.114c-.931-.288-1.776-.79-2.534-1.396" fill="#498130"/><path d="M108.317 127.468c-.09-.318-.2-.671-.676-1.355 1.235.541 2.565 1.222 3.464.934l.037-.012-.002-.038c-.062-.943-1.183-1.931-2.139-2.881.835.29 1.201.202 1.508.131-.681-.855-1.596-1.517-2.625-2.038 1.099-.058 2.213-.52 2.74-1.231-.967-.523-1.373-.46-1.843-.645.647-.075.935-.363.999-.819-1.003-.136-1.562-.328-2.376-.003.037-.134.059-.25.325-.677-1.451-.48-2.758-.22-3.934.3-2.137.944-4.255-.09-6.436-1.586.513-.105 1.006-.259 1.582-.25 1.236.02 2.388.421 3.694.622.859.132 1.894.005 2.87-.072-.148-.49-.425-.888-.983-1.081 1.67-.27 3.242-.81 4.418-1.84-.305-.145-.67-.321-1.582-.205 1.153-.785 2.482-1.571 2.708-2.55l.01-.04-.037-.022c-.881-.51-2.373-.094-3.744.195.61-.613.784-.96.932-1.275-1.186.104-2.32.562-3.382 1.216.612-1.045.84-2.416.464-3.363-.991.553-1.154.956-1.573 1.267.282-.625.177-1.056-.199-1.387-.663.82-1.136 1.206-1.283 2.13-.1-.112-.193-.2-.434-.696-1.214 1.015-1.634 2.354-1.853 3.71-.166 1.038-.17 1.593-.412 2.12-.344.752-.895 1.14-1.585 1.25l-1.24-1.155c-.254.176-.352.372-.432.653 1.112.721.084.03 1.412.854.16.69.003 1.352-.577 1.956-.402.418-.916.624-1.821 1.16-1.182.7-2.274 1.581-2.772 3.083.548.043.664.096.806.15-.806.474-.993 1.056-1.512 1.974.446.229.885.167 1.363-.323-.136.503-.45.803-.602 1.927 1.02.002 2.211-.712 2.96-1.664-.22 1.228-.23 2.45.107 3.592.24-.253.498-.543.845-1.335.233 1.382.395 2.923 1.191 3.555l.033.027.035-.023c.828-.57 1.072-2.095 1.38-3.455.227.891.524 1.166.77 1.397.528-1.472.454-3.133.092-4.785.385.448.857.56 1.368.518-.286-.936-.548-1.946-.985-2.696-.667-1.142-1.463-2.067-1.934-3.21-.224-.544-.26-1.073-.353-1.6 1.084.69 2.097 1.41 2.838 2.153.937.939 1.111 1.605 1.108 3.138-.004 1.285.183 2.596 1.162 3.769.301-.403.4-.467.512-.55-.005.877.378 1.326.873 2.21.4-.227.563-.6.396-1.23.343.37.434.771 1.275 1.478.494-.792.49-2.092.079-3.172.892.813 1.88 1.46 2.97 1.795" fill="#65b931"/><path d="M109.192 125.502c-1.25-1.575-3.043-3.412-5.294-3.957 1.14-.448 2.824-.796 3.963-1.243-3.097.2-4.194.351-6.528.095 1.248 1.57 2.221 3.314 2.4 5.766.183-1.324.359-2.633-.173-4.141 2.13 1.084 3.829 1.967 5.632 3.48m-12.487 3.932c.922-1.787.696-5.267.266-7.543.877.855 1.783 2.04 2.66 2.894-1.458-2.741-2.803-3.228-2.666-5.349-.918 1.784-2.918 4.82-4.317 6.513 1.282-.38 2.482-1.781 3.372-3.855-.111 2.387 1.322 5.074.685 7.34m11.237-16.503c-1.326 1.513-4.647 2.578-6.921 3.012 1.115.503 2.55.912 3.666 1.415-3.084-.352-4.03-1.425-5.953-.52 1.323-1.508 3.415-4.482 4.477-6.404.116 1.332-.748 2.962-2.35 4.551 2.18-.98 5.205-.63 7.08-2.054" fill="#59a133"/></g><g><path d="M119.864 54.482c1.014.208 2.068.711 2.616 1.523l.15.222-.243.118c-.376.183-.76.336-1.167.437a4.97 4.97 0 0 1-.227.05c.275.19.456.475.494.89l.022.232-.234.022c-.856.082-1.545.246-2.32.045.045.09.095.18.151.281l.145.257-.286.081c-1.632.465-3.081.14-4.584-.527-1.378-.612-2.129-.835-3.57-.283-1.049.403-2.09 1.014-3.053 1.636.41.11.817.212 1.256.224 1.39.034 2.793-.376 4.173-.531 1.058-.119 2.236.086 3.291.211l.287.034-.097.274c-.15.42-.377.765-.703 1.01 1.599.391 3.17 1.049 4.366 2.188l.255.245-.328.138c-.238.1-.445.176-.703.216a2.78 2.78 0 0 1-.378.031c.863.63 2.147 1.565 2.344 2.648l.038.215-.195.101c-1.019.532-2.619.089-3.664-.183-.004-.002-.01-.002-.013-.004.218.294.396.6.553.978l.154.373-.402-.052c-1.144-.146-2.217-.574-3.203-1.151.374 1.053.48 2.32.037 3.298l-.109.243-.226-.139a5.62 5.62 0 0 1-1.021-.78 4.71 4.71 0 0 1-.184-.19c-.013.375-.172.718-.533 1.007l-.19.152-.144-.194c-.54-.728-1.052-1.24-1.279-2.05-.064.102-.124.21-.19.33l-.143.261-.22-.2c-1.31-1.192-1.773-2.704-1.964-4.402-.05-.436-.08-.87-.122-1.306a4.28 4.28 0 0 0-.155-.874 2.136 2.136 0 0 0-.058-.164c-.283-.698-.76-1.157-1.484-1.324-1.374.934-.103.139-1.494 1.044l-.145.094-.132-.11c-.3-.249-.48-.488-.552-.88l-.028-.153.133-.085 1.725-.736c.167-.716-.035-1.34-.526-1.898a1.757 1.757 0 0 0-.12-.126 4.248 4.248 0 0 0-.713-.529c-.37-.233-.745-.455-1.113-.693-1.433-.93-2.58-2.02-3.06-3.726l-.08-.285.297-.012c.137-.005.26-.01.38-.022-.623-.565-.852-1.252-1.262-2.06l-.108-.216.22-.102c.421-.194.8-.183 1.14-.027a4.171 4.171 0 0 1-.089-.249 5.673 5.673 0 0 1-.24-1.262l-.024-.265.267.01c1.074.042 2.159.704 2.933 1.509-.076-1.14.022-2.29.402-3.38l.134-.382.264.304c.269.31.463.605.628.931l.002-.012c.224-1.057.544-2.686 1.474-3.36l.178-.128.174.13c.881.66 1.143 2.227 1.321 3.28a3.12 3.12 0 0 1 .197-.325c.151-.213.311-.365.508-.532l.27-.232.104.338c.485 1.58.37 3.28.006 4.884.365-.182.775-.232 1.218-.178l.288.035-.098.273c-.358.999-.703 2.145-1.282 3.038-.755 1.166-1.75 2.238-2.34 3.496-.177.377-.267.765-.349 1.16 1.98-1.256 4.032-2.902 4.05-5.424.011-1.645.442-3.105 1.577-4.345l.2-.219.166.244c.064.095.123.18.183.26.167-.782.622-1.325 1.078-2.054l.124-.199.198.123c.353.219.528.508.575.84.048-.062.096-.122.147-.181.27-.319.58-.594.912-.85l.214-.163.131.233c.46.814.46 1.916.231 2.871.857-.613 1.802-1.11 2.824-1.376l.359-.095-.072.363a2.587 2.587 0 0 1-.205.66 2.69 2.69 0 0 1-.142.257c.953-.378 2.365-.93 3.327-.579l.21.078-.025.224c-.118 1.048-1.311 2.096-2.075 2.779a4.48 4.48 0 0 1 1.017.031l.425.06-.284.322c-.722.824-1.623 1.462-2.593 1.962" fill="#498130"/><path d="M122.3 52.357c-.367-.053-.78-.102-1.698.073 1.12-1.02 2.427-2.073 2.542-3.128l.005-.043-.04-.015c-.996-.369-2.523.33-3.935.877.679-.724.757-1.14.825-1.488-1.19.308-2.287.944-3.294 1.762.444-1.154.48-2.51-.01-3.375-.978.752-1.1 1.197-1.503 1.595.219-.697.055-1.124-.384-1.399-.6.967-1.05 1.453-1.09 2.437-.12-.099-.23-.174-.546-.643-1.157 1.27-1.487 2.73-1.492 4.174-.009 2.625-2.04 4.326-4.572 5.878.126-.573.194-1.15.466-1.737.586-1.26 1.525-2.257 2.33-3.506.527-.82.871-1.941 1.239-2.979-.571-.071-1.106.03-1.56.514.487-1.836.652-3.697.133-5.375-.288.247-.636.54-.934 1.53-.277-1.542-.476-3.266-1.378-3.946l-.037-.028-.039.028c-.925.67-1.182 2.392-1.513 3.931-.35-.906-.626-1.244-.882-1.54-.435 1.265-.485 2.637-.3 4.027-.792-1.106-2.094-1.966-3.238-2.015.114 1.27.452 1.622.58 2.194-.512-.575-1.002-.665-1.513-.43.537 1.055.717 1.718 1.598 2.29-.161.053-.295.107-.913.128.486 1.71 1.668 2.754 2.96 3.599.989.646 1.557.904 1.987 1.392.614.698.76 1.441.557 2.199l-1.751.744c.064.341.219.532.471.743 1.249-.811.069-.074 1.523-1.059.78.152 1.388.616 1.743 1.487.245.603.222 1.226.358 2.4.177 1.532.582 3.057 1.895 4.255.294-.543.402-.638.522-.76.118 1.046.63 1.504 1.334 2.456.44-.353.577-.832.292-1.547.454.37.619.83 1.703 1.5.468-1.045.281-2.595-.354-3.798 1.16.787 2.41 1.357 3.735 1.532-.15-.36-.329-.758-.983-1.477 1.525.393 3.18.932 4.194.404l.042-.022-.008-.046c-.206-1.11-1.659-2.059-2.914-2.996 1.019.174 1.437-.005 1.786-.152-1.269-1.215-3.008-1.9-4.868-2.284.636-.19.966-.623 1.158-1.167-1.093-.134-2.249-.327-3.219-.222-1.477.161-2.79.556-4.178.516-.661-.02-1.22-.225-1.804-.37 1.204-.797 2.406-1.507 3.508-1.927 1.393-.532 2.155-.406 3.728.3 1.317.59 2.747.998 4.399.53-.276-.493-.296-.623-.33-.776.897.405 1.533.218 2.667.115-.05-.516-.359-.853-1.08-.969.536-.183.99-.093 2.1-.633-.587-.869-1.924-1.46-3.22-1.532 1.242-.543 2.359-1.26 3.201-2.226" fill="#65b931"/><path d="M120.684 50.56c-2.188.56-4.893 1.56-6.483 3.621.062-1.374.475-3.261.537-4.636-1.21 3.27-1.558 4.465-2.889 6.743 2.183-.562 4.417-.763 7.016.175-1.276-.793-2.538-1.572-4.33-1.717 2.088-1.69 3.77-3.029 6.15-4.187m-1.679 14.613c-1.412-1.764-5.087-3.123-7.619-3.724 1.278-.509 2.909-.896 4.186-1.406-3.48.242-4.594 1.4-6.708.29 1.41 1.757 3.611 5.199 4.708 7.409.197-1.49-.692-3.362-2.413-5.225 2.399 1.207 5.812.965 7.846 2.656M107.211 46.09c.946 2.052.52 5.948-.075 8.481 1.026-.915 2.103-2.2 3.129-3.115-1.772 3.003-3.305 3.483-3.257 5.87-.942-2.047-3.037-5.554-4.524-7.523 1.42.49 2.698 2.123 3.595 4.495-.007-2.686 1.736-5.632 1.132-8.207" fill="#59a133"/></g></g></svg>