<svg xmlns="http://www.w3.org/2000/svg" width="19.706" height="24.265" viewBox="0 0 5.214 6.42"><path d="M.017 3.448C-.146 1.681.881.141 2.312.008c1.43-.131 2.722 1.195 2.885 2.962.163 1.768-.864 3.309-2.295 3.441C1.472 6.543.18 5.216.017 3.448" fill="#221d20"/><path d="M2.002 3.486C1.932 2.729 2.438 2.064 3.13 2c.693-.064 1.312.497 1.381 1.254.07.756-.435 1.421-1.128 1.485-.692.064-1.31-.498-1.38-1.253" fill="#695240"/><path d="M3.112 3.418c-.027-.3.173-.565.449-.59.274-.026.52.198.548.499.029.3-.173.565-.448.59-.275.025-.52-.197-.549-.499" fill="#fff"/></svg>