<svg xmlns="http://www.w3.org/2000/svg" width="74.649" height="109.062" viewBox="0 0 19.751 28.856"><path d="M13.81 3.837a.956.956 0 0 0 .61.195c.582.002 1.006-.362 1.093-1.046.067-.523-.098-.973-.32-1.41C14.733.674 13.97.134 13.092.022c-1.489-.19-2.903.922-3.584 2.406-1.099 2.392-.954 5.834-3.122 7.391 0 0 3.88 2.348 5.723.818.778-.647.269-2.029-.022-2.854-.418-1.188-1.054-2.447-1.082-3.755-.016-.726.293-1.448.821-1.814.52-.36 1.146-.105 1.423.534.14.322.157.65.38.916.057.068.117.126.18.174" fill="#509d41"/><path d="M.84 21.447c.912 3.195 3.222 5.858 6.782 4.824 2.519-.732 3.762-3.534 3.507-5.776-.227-2 .001-3.912-.047-5.922-.076-3.24-.986-8.351-5.78-7.93C.3 7.086-.136 11.748.026 15.314c.039.863.263 4.198.814 6.134" fill="#ef2e32"/><path d="M8.483 21.021c-.225 3.598 1.836 8.502 5.674 6.256 2.287-1.339 3.506-4.223 4.363-6.805 1.177-3.54 2.573-9.219-1.402-11.374-1.81-.982-3.213-.3-4.721.693-1.667 1.1-2.195 2.896-2.742 4.966-.227.855-1.043 4.184-1.172 6.264" fill="#ef2e32"/><path d="M7.338 6.927c-1.011.314-1.622 1.51-2.082 2.533-1.12 2.48-1.202 6.16-1.19 7.372.046 4.704 1.747 8.7 2.345 9.792.987 1.798 2.88 2.571 4.42 1.692 2.738-1.563 4.813-6.494 5.224-7.494.826-2.008 1.366-4.656 1.362-6.9-.006-2.803-.942-5.778-3.672-5.681-1.136.04-2.174.025-3.257-.471-1.014-.465-2.038-1.19-3.15-.843" fill="#ef2e32"/><path d="M9.477 28.856c-1.26 0-2.494-.823-3.22-2.148-.643-1.172-2.323-5.231-2.368-9.874-.01-1.098.048-4.88 1.206-7.447.53-1.176 1.162-2.31 2.19-2.629.21-.065.43-.098.653-.098.726 0 1.405.343 2.062.675.188.094.375.189.561.274.903.414 1.77.47 2.5.47.223 0 .448-.006.678-.015l.135-.002c2.733 0 3.713 3.027 3.72 5.86.004 2.225-.523 4.895-1.376 6.968-.736 1.79-2.725 6.11-5.299 7.58a2.88 2.88 0 0 1-1.442.386zM7.938 7.012c-.19 0-.369.028-.547.083-.896.278-1.479 1.336-1.975 2.437-1.128 2.502-1.184 6.22-1.174 7.299.044 4.57 1.692 8.557 2.324 9.708.665 1.211 1.78 1.964 2.911 1.964.445 0 .872-.115 1.267-.34 2.479-1.415 4.426-5.652 5.148-7.408.836-2.032 1.353-4.65 1.349-6.833-.003-1.292-.254-5.507-3.367-5.507-.04 0-.08 0-.122.002a20.26 20.26 0 0 1-.69.014c-.768 0-1.683-.06-2.647-.502-.19-.087-.382-.183-.574-.28-.62-.313-1.26-.637-1.903-.637" fill="#fff"/></svg>