<svg xmlns="http://www.w3.org/2000/svg" width="69.177" height="69.46" viewBox="0 0 18.303 18.378"><path d="M2.078 3.849c3.085-4.13 8.785-5.086 12.736-2.138 3.95 2.95 4.65 8.688 1.567 12.819-3.084 4.129-8.785 5.085-12.736 2.136-3.949-2.95-4.65-8.688-1.567-12.817" fill="#631a1d"/><path d="M1.864 4.136C4.8.204 10.157-.76 13.83 1.982c3.672 2.743 4.268 8.153 1.332 12.085-2.936 3.93-8.293 4.896-11.965 2.153-3.673-2.742-4.27-8.153-1.334-12.084" fill="#93292e"/><path d="M10.284 12.414c.615-.414 1.394-.335 1.739.178.345.512.125 1.264-.49 1.677-.614.414-1.392.334-1.738-.178-.345-.512-.126-1.263.489-1.677M4.375 7.938c.615-.413 1.48-.205 1.932.467.452.67.32 1.55-.295 1.964-.615.414-1.48.206-1.931-.465-.453-.671-.32-1.551.294-1.966m8.937-3.498c.444-.298 1.072-.14 1.404.352.33.491.24 1.133-.203 1.432-.444.298-1.073.141-1.404-.351-.332-.492-.24-1.133.203-1.433M9.066 3.027c.554-.373 1.274-.272 1.609.225.334.498.157 1.204-.397 1.576-.553.373-1.275.272-1.609-.224-.335-.498-.157-1.203.397-1.577M10.51 7.99c.359-.243.837-.163 1.067.179.23.34.124.814-.235 1.055-.36.242-.837.163-1.067-.179-.23-.341-.124-.814.234-1.055M2.087 5.551c.273-.184.615-.156.763.063.148.22.045.548-.228.732-.273.183-.614.155-.763-.065-.147-.22-.045-.546.228-.73m.803 7.075c-.17-.282-.125-.622.1-.759.226-.138.548-.02.72.261.17.282.127.622-.1.76-.226.136-.548.02-.72-.262m3.846-7.064c.36-.242.838-.162 1.068.18.23.341.123.813-.234 1.056-.361.241-.838.163-1.069-.18-.23-.34-.124-.814.235-1.056m-.605-3.079c.502-.338 1.08-.359 1.292-.045.21.314-.025.84-.527 1.179-.502.338-1.08.358-1.291.045-.21-.313.024-.841.526-1.18M4.104 13.873c.36-.241.837-.161 1.068.18.228.34.123.814-.235 1.057-.36.241-.838.16-1.068-.18-.23-.342-.124-.815.235-1.057m9.196-3.187c.359-.243.836-.162 1.066.18.23.341.125.814-.235 1.056-.36.242-.837.162-1.067-.18-.23-.341-.125-.815.235-1.056" fill="#f79387"/></svg>