<svg xmlns="http://www.w3.org/2000/svg" width="24.556" height="38.517" viewBox="0 0 6.497 10.191"><g fill-rule="evenodd"><path d="M4.128 6.793c-1.097.696-1.736 1.531-2.45 2.624 1.454.139 2.04-1.097 2.873-2.113l-.423-.511" fill="#de6a4f"/><path d="M4.477 6.807c-.973.771-1.737 1.863-2.228 3.384.846-.466 1.422-.92 1.912-1.77l.06.292c.455-.36.78-.85.812-1.621l-.556-.285" fill="#e8795e"/><path d="M3.91 7.036c-.051-.13-.029-.353-.016-.486.022-.226.052-.45.065-.68v-.004l.002-.005c.02-.122.039-.243.057-.365.01-.071.024-.14.037-.21.037-.192.047-.382.067-.577.013-.133.033-.309.138-.388.092-.07.215-.044.322-.002.056.022.158.018.214.016.112-.005.224-.014.336-.018.19-.006.438 0 .607.136.204.162.426.002.568.116.058.047.078.118.082.189a.91.91 0 0 1-.012.173 2.894 2.894 0 0 1-.045.228 5.588 5.588 0 0 1-.326.983 1.6 1.6 0 0 1-.187.323l-.139.18c-.125.162-.247.328-.379.484-.096.114-.221.255-.35.325-.177.096-.343.082-.537-.01-.14-.065-.445-.254-.505-.407" fill="#e8795e"/><path d="M3.975 6.985c-.069-.176.028-.62.056-1.122.068-.39.046-.318.096-.574.116-.606-.016-1.08.423-.909.22.086.843-.112 1.133.12.29.23.596-.06.612.23.014.267-.29 1.318-.552 1.649-.307.386-.615.844-.846.97-.117.063-.251.091-.467-.011-.154-.072-.414-.247-.455-.353" fill="#fab6a5"/><path d="M4.2 3.755c.061-.085.194-.138.288-.174.151-.059.303-.11.452-.175l.004-.002.005-.001c.144-.04.285-.088.429-.125.15-.04.302-.09.454-.12.12-.025.263-.04.379.037a.441.441 0 0 1 .17.271c.07.277.125.553.115.833-.003.1-.003.2-.005.3-.006.206-.02.518-.197.625a.198.198 0 0 1-.099.03.404.404 0 0 1-.196-.065c-.061-.033-.12-.066-.184-.088-.048-.017-.143-.003-.193-.001a.532.532 0 0 1-.156-.013c-.143-.037-.285-.029-.43-.086a.871.871 0 0 1-.067-.03c-.06-.031-.118-.07-.176-.106a.728.728 0 0 0-.137-.074c-.005 0-.01-.003-.014-.004-.088-.02-.177.024-.265-.036a.625.625 0 0 1-.265-.432c-.027-.141.01-.458.088-.564" fill="#e06b50"/><path d="M4.268 3.815c.082-.114.362-.174.71-.325.291-.082.233-.074.428-.124.459-.119.793-.285.895.116.051.2.122.5.111.804-.01.306.02.746-.165.858-.111.068-.228-.065-.415-.13-.097-.033-.227-.102-.347-.132-.14-.036-.294.087-.427.034-.141-.056-.216-.288-.334-.329-.094-.032-.25.129-.307.089-.1-.07-.184-.163-.223-.367-.027-.144.023-.425.074-.494" fill="#fab6a5"/><path d="M3.862 3.147a.492.492 0 0 1 .107-.176c.064-.076.132-.15.2-.223a7.22 7.22 0 0 0 .517-.611c.162-.223.26-.492.337-.764.03-.1.055-.205.088-.304.026-.074.063-.173.15-.178.054-.003.098.033.13.079.012.016.03.034.043.048l.088.092a4.3 4.3 0 0 1 .23.255c.089.106.187.237.238.368.045.113.085.23.125.345.058.17.113.34.164.512.056.192.11.392.143.588.02.121.049.323-.017.426a.654.654 0 0 1-.492.3c-.07.01-.145-.013-.214-.028a.297.297 0 0 0-.12-.008c-.105.023-.21.063-.315.09a1.113 1.113 0 0 1-.21.034.996.996 0 0 1-.224-.019c-.06-.01-.121-.023-.182-.025-.016 0-.032 0-.049.002-.072.007-.138.029-.207.051-.06.02-.132.044-.197.033a.205.205 0 0 1-.115-.058c-.04-.04-.058-.092-.077-.143a.842.842 0 0 0-.076-.158c-.086-.137-.097-.376-.065-.527" fill="#e06b50"/><path d="M4.022 3.118c.024-.121.445-.494.771-.95.394-.552.37-1.381.537-1.149.059.083.473.462.585.741.116.29.576 1.555.443 1.77-.08.128-.13.156-.344.18-.09.01-.268-.133-.372-.112-.135.028-.363.251-.535.257-.162.006-.318-.146-.46-.134-.166.014-.277.177-.36.161-.118-.022-.09-.132-.207-.316-.082-.13-.076-.357-.058-.448" fill="#fab6a5"/><path d="M4.355 4.013c-.037.13-.07.265-.14.383a.804.804 0 0 1-.02-.087.877.877 0 0 1 .006-.274.364.364 0 0 0 .154-.022m-.333-.895c.012-.06.124-.185.274-.35.038.353.254.678.116 1.062-.049.033-.09.06-.125.052-.118-.022-.09-.132-.207-.316-.082-.13-.076-.357-.058-.448" fill="#f79f89"/><path d="M3.108 1.648c.018-.126.033-.251.048-.377.008-.073.019-.145.03-.217a.875.875 0 0 0-.095-.535C3.061.457 3.026.4 2.993.34s-.07-.13-.034-.194c.05-.088.18-.044.257-.02a.92.92 0 0 0 .245.025c.118 0 .235-.003.353-.002.299.004.59.04.873.172.257.119.847.498.875.82.02.243-.164.482-.296.655-.054.07-.129.122-.197.177a.54.54 0 0 0-.096.097c-.136.19-.21.424-.346.614a.4.4 0 0 1-.162.123c-.03.014-.078.035-.1.062a.255.255 0 0 0-.032.047c-.048.089-.075.217-.16.272-.178.112-.348.11-.55.034-.145-.055-.463-.222-.529-.374-.056-.129-.04-.357-.03-.493.015-.233.037-.463.044-.697v-.01" fill="#e06b50"/><path d="M3.274 2.74c-.078-.172-.006-.624-.003-1.13.046-.395.029-.322.064-.582C3.419.412 2.8.034 3.245.18 3.529.272 4.1.12 4.67.397c.258.125.784.492.81.744.02.184-.128.238-.284.448-.07.095-.285.23-.361.339-.129.184-.075.346-.197.522-.065.093-.307.135-.367.21-.079.094.004.347-.064.39-.113.07-.244.106-.464.017-.157-.063-.423-.223-.47-.326" fill="#fab6a5"/><path d="M3.274 2.74c-.031-.068-.038-.182-.036-.326.091-.067.003-.417.224-.113.222.303.49.422.809.358-.079.095.004.348-.064.39-.113.071-.244.107-.464.018-.157-.063-.423-.223-.47-.326" fill="#f79f89"/><path d="M2.536 3.038c-.108-.084-.207-.294-.267-.42-.103-.213-.198-.429-.308-.64l-.003-.004-.002-.005c-.048-.12-.097-.239-.147-.358a5.603 5.603 0 0 1-.082-.209 1.394 1.394 0 0 0-.302-.464C1.379.888 1.33.84 1.287.79 1.245.74 1.204.683 1.209.616c.008-.11.13-.149.213-.172a.692.692 0 0 0 .097-.038c.047-.02.093-.044.139-.067.116-.058.23-.117.349-.17.17-.078.417-.182.611-.168.095.007.19.005.284.003.206-.003.516-.019.69.153a.383.383 0 0 1 .085.128.557.557 0 0 1 .021.273C3.687.65 3.67.74 3.664.833a.16.16 0 0 0 .001.038c.007.06.037.128.058.185a.655.655 0 0 1 .05.267c-.006.091-.069.174-.118.241-.022.03-.082.11-.084.15-.009.2.094.406.075.606a1.582 1.582 0 0 1-.093.445c-.085.194-.22.283-.417.322-.14.028-.474.05-.6-.05" fill="#e06b50"/><path d="M1.812.366c.264-.133.591-.29.81-.274.343.025.79-.07.955.175.09.135-.116.357-.132.587-.01.158.255.27.244.454-.007.123-.353.284-.358.408-.01.208.149.41.13.585-.016.174.059.322.016.419-.057.128-.143.234-.363.278a1.371 1.371 0 0 1-.288.021.632.632 0 0 0 .04-.306c-.015-.163-.091-.36-.154-.514-.087-.21-.184-.418-.278-.626a9.506 9.506 0 0 1-.104-.23c-.087-.199-.16-.405-.252-.6-.063-.137-.146-.286-.266-.377" fill="#fab6a5"/><path d="M.1 1.034C.18.937.28.863.385.797.51.718.64.65.768.578.85.533.932.486 1.016.443c.201-.103.506-.24.745-.106.154.085.254.263.33.423.095.2.17.41.26.611.035.08.071.157.107.235.097.212.198.424.287.639.065.156.144.357.16.523a.6.6 0 0 1-.185.528c-.198.201-.511.212-.787.155a2.432 2.432 0 0 1-.952-.463 2.847 2.847 0 0 1-.862-1.119c-.106-.257-.195-.628-.02-.835" fill="#e06b50"/><path d="M.163 1.098C.31.928.52.822.812.658c.291-.163.664-.385.912-.25.229.126.229.618.418 1.049.22.503.614.963.641 1.256a.515.515 0 0 1-.167.453c-.354.356-1.197.109-1.784-.425-.586-.534-.915-1.354-.669-1.643" fill="#fab6a5"/><path d="M2.737 2.224c.457.467.508.361.725.077-.017.174.058.322.015.419-.057.128-.143.235-.363.278-.061.012-.143.02-.225.022a.683.683 0 0 0 .017-.252c-.017-.166-.096-.367-.16-.523l-.01-.02m-.129.062c.094.164.165.308.176.426a.516.516 0 0 1-.167.453c-.305.307-.975.165-1.53-.222.88.07 1.082.104 1.521-.657" fill="#f79f89"/><path d="M1.877 1.069c-.258-.299-.374-.145-.753-.012-.248.087-.5.195-.602.33-.184.24-.058.601.303 1.132-.567-.53-.839-1.05-.566-1.388.144-.178.62-.438.98-.54.358-.1.474-.114.638.478m.266-.463c.167.32.112.233.405.076.285-.152.578-.216.925-.292A1.921 1.921 0 0 0 2.26.37c-.219.062-.22.039-.117.236m1.71-.084c.01.194.018.152.207.16.517.024.851.134 1.246.538-.1-.556-.661-.702-1.182-.815-.232-.05-.286-.137-.271.117M5.62 1.758c.131.182.542 1.278.645 1.481 0-.237-.355-1.352-.463-1.547-.067-.122-.067-.194-.177-.095-.09.08-.074.065-.005.16" fill="#fcdbd5"/><path d="M4.062 7.426l-.72.914-.515.963-.14.37.824-.816.753-.789.04.35.41-.63L4.4 7.65l-.34-.225" fill="#f18d75"/><path d="M4.385 4.934c-.139-.03-.152.497-.172.628-.076.476-.123.927-.041 1.44l.292-1.853c.024-.15.075-.183-.079-.215" fill="#fcdbd5"/></g></svg>