<svg xmlns="http://www.w3.org/2000/svg" width="46.239" height="41.201" viewBox="0 0 12.234 10.901"><g fill-rule="evenodd"><path d="M3.445 7.838a2.473 2.473 0 0 1-.193.032 3.059 3.059 0 0 1-1.04-.057c-.835-.19-1.536-.7-1.868-1.504-.421-1.021-.487-2.097-.021-3.116 1.821-3.984 9.251-4.326 11.434-.537.56.97.594 2.048.27 3.104-.254.832-.904 1.406-1.718 1.673a3.062 3.062 0 0 1-1.03.154 2.709 2.709 0 0 1-.195-.014c.057.63.19 1.256.244 1.886.023.278.017.56-.039.835l-.07.342a28.463 28.463 0 0 0-5.622.265l-.101-.334a2.947 2.947 0 0 1-.116-.829c-.007-.632.068-1.267.065-1.9" fill="#826e34"/><path d="M6.388 10.324a26.35 26.35 0 0 0-2.487.241l-.1.015-.03-.097a2.687 2.687 0 0 1-.104-.747c-.007-.761.1-1.528.053-2.288a1.658 1.658 0 0 1-.503.136c-.31.04-.637.017-.94-.052C1.532 7.364.906 6.917.61 6.2-.823 2.725 2.796.512 5.82.302V.3h.005l.093-.004.092-.005h.005c3.029-.073 6.84 1.79 5.739 5.384-.228.742-.81 1.246-1.534 1.483a2.78 2.78 0 0 1-.931.14 1.67 1.67 0 0 1-.515-.089c.025.761.203 1.515.268 2.273.021.25.016.507-.034.754l-.02.1-.102-.006a26.172 26.172 0 0 0-2.497-.007" fill="#d0b462"/><path d="M.72 6.155c-.316-.765-.262-1.77.047-2.61C1.465 1.65 3.779.83 5.837.701h.006c.028-.003.057-.004.085-.005h.014L6.027.69h.006v.001c2.061-.065 4.442.535 5.315 2.357.386.806.534 1.802.292 2.593-.467 1.523-2.425 1.766-2.987 1.377-.004.83.2 1.638.27 2.475.023.272.011.51-.031.72a26.622 26.622 0 0 0-2.51-.007c-.867.043-1.705.126-2.498.243a2.553 2.553 0 0 1-.099-.715c-.008-.84.119-1.664.037-2.489-.523.44-2.495.381-3.102-1.09zM5.838.7l.09-.005" fill="#f2dd9e"/><path d="M4.223 10.401c-.114.016-.227.031-.339.048a2.558 2.558 0 0 1-.099-.714c-.008-.84.119-1.664.037-2.49a.989.989 0 0 1-.39.18l.004-.01c-.583.149-1.396.007-1.66-.454-.226-.39-.144-.97.076-1.258.476-.627 1.391-.799 2.083-.58l.288 5.279" fill="#d8bf7a"/><path d="M2.862 5.475c.218-.139.748-.277 1.073-.352.026.254.047.672.05.92a1.397 1.397 0 0 0-.698.038.611.611 0 0 0-.28.214c-.249.35.009.623.343.306.032.567-.636.631-.92.438-.377-.256-.507-.967.432-1.564" fill="#705b27"/><path d="M3.981 5.88c.002.058.004.114.004.162a1.397 1.397 0 0 0-.698.039c-.19.073-.439.318-.37.545-.149-.319-.052-.497.138-.612.311-.186.594-.223.926-.135" fill="#826e34"/><path d="M8.55 10.198l.342.015c.042-.21.054-.448.031-.72-.07-.836-.274-1.645-.27-2.475a.988.988 0 0 0 .405.142l-.004-.01c.594.094 1.39-.122 1.61-.607.187-.41.051-.978-.194-1.245-.533-.58-1.46-.665-2.128-.382l.208 5.282" fill="#d8bf7a"/><path d="M9.443 5.166c-.23-.118-.771-.206-1.101-.25-.003.256.016.673.036.92a1.4 1.4 0 0 1 .699-.027.61.61 0 0 1 .298.187c.281.325.05.621-.312.337.021.567.692.568.957.35.35-.291.414-1.011-.577-1.517" fill="#705b27"/><path d="M8.366 5.673l.012.163a1.4 1.4 0 0 1 .699-.027c.197.055.466.275.419.508.118-.332.005-.5-.195-.596a1.115 1.115 0 0 0-.935-.048" fill="#826e34"/><path d="M1.027 6.53c-.956-2.193-.025-3.393.81-4.123.973-.85 2.474-1.34 4.013-1.444V.961a3.12 3.12 0 0 1 .098-.004l.097-.005v.002c1.542-.04 3.082.306 4.13 1.062.9.648 1.94 1.755 1.194 4.028.387-3.163-2.486-4.309-5.278-4.107v.007h-.097a1.608 1.608 0 0 0-.098.01v-.008C3.098 2.007.345 3.418 1.026 6.53" fill="#fef7de"/><path d="M5.559 10.048l.727-.047.728-.02c-.196-1.729-.195-3.382.326-5.084l-1.097.03v-.009l-.195.014-.196.005v.008l-1.094.073c.678 1.646.834 3.292.8 5.03" fill="#fef7de"/></g></svg>