<svg xmlns="http://www.w3.org/2000/svg" width="85.746" height="116.239" viewBox="0 0 22.687 30.755"><path d="M17.545 12.229a.088.088 0 0 1-.004-.151.59.59 0 0 1 .057-.033c.15-.074 3.658-1.831 2.655-4.44-.934-2.429-4.891-1.52-5.339-1.408a.088.088 0 0 1-.043-.171c.464-.116 4.558-1.055 5.547 1.515 1.06 2.758-2.586 4.586-2.742 4.662a.508.508 0 0 0-.04.023.087.087 0 0 1-.091.002" fill="#351f17"/><path d="M18.281 13.208a.088.088 0 0 1 .003-.155c1.657-.869 4.174-3.086 3.098-5.881-1.205-3.135-5.233-2.493-6.439-2.22a.087.087 0 0 1-.105-.068.088.088 0 0 1 .066-.105c1.241-.28 5.386-.937 6.643 2.33 1.12 2.91-1.473 5.204-3.181 6.1a.09.09 0 0 1-.085 0" fill="#351f17"/><path d="M4.674 30.389C3.212 29.557-.17 27.096.007 22.198c.13-3.59 1.66-6.082 3.916-8.718.774-.905 1.585-1.878 2.244-2.956 1.25-2.04 1.982-5.186.637-7.276-.607-.946-1.641-1.487-2.953-1.554a.09.09 0 0 1-.071-.043.089.089 0 0 1-.003-.084C4.24.627 5.827.187 6.78.122A40.613 40.613 0 0 1 9.789 0c1.327.001 2.528.024 3.67.07.657.027 1.095.114 1.378.275.512.291.506.802.441 1.49-.017.185-.052.423-.092.698-.205 1.404-.55 3.754.228 6.092.621 1.867 2.013 3.374 3.36 4.831 1.32 1.43 2.685 2.908 3.308 4.719.809 2.347.962 6.025-.518 8.948-.916 1.811-2.355 3.066-4.16 3.628a.078.078 0 0 1-.026.004L5.411 30.75a.071.071 0 0 1-.033-.007c-.011-.005-.282-.115-.704-.355zM5.78 2.04c.48.273.874.646 1.173 1.111 1.385 2.154.642 5.38-.635 7.464-.666 1.09-1.482 2.069-2.261 2.979-2.233 2.608-3.746 5.07-3.874 8.61-.174 4.8 3.144 7.215 4.578 8.03.355.202.605.312.668.338l11.936.005c1.752-.55 3.15-1.772 4.042-3.535 1.457-2.877 1.305-6.499.509-8.811-.612-1.776-1.964-3.24-3.272-4.656-1.359-1.471-2.764-2.992-3.397-4.896-.79-2.378-.43-4.846-.235-6.172.04-.274.074-.51.091-.689.07-.736.035-1.1-.353-1.32-.257-.147-.67-.227-1.299-.252A91.275 91.275 0 0 0 9.79.177a40.43 40.43 0 0 0-2.996.12c-.87.06-2.288.437-2.792 1.23.671.052 1.27.224 1.78.514" fill="#351f17"/><path d="M19.312 15.5c-.71-.153-1.41-.333-2.16-.289-.887.052-1.687.345-2.579.342-1.011-.003-1.952-.195-2.955-.29-1.76-.165-3.437.31-5.177.22-.854-.044-1.654-.26-2.449-.467-1.576 1.84-2.694 3.827-2.812 7.196-.202 5.758 4.788 7.839 4.788 7.839l10.776.004c4.669-1.496 5.417-7.793 4.16-11.547-.367-1.097-.942-2.088-1.592-3.009" fill="#d40000"/></svg>