<svg xmlns="http://www.w3.org/2000/svg" xmlns:xlink="http://www.w3.org/1999/xlink" width="66.47" height="48.231"><g transform="translate(-71.326 -48.223) scale(.08432)"><linearGradient y2="1005.254" x2="1163.247" y1="1096.031" x1="1163.247" gradientUnits="userSpaceOnUse" id="a"><stop offset="0" stop-color="#9d1b3c"/><stop offset="1" stop-color="#d81f48"/></linearGradient><path d="M1227.9 1071h-129.3c-12.9 0-23.4-10.5-23.4-23.4v-34.1h176.1v34.1c0 13-10.5 23.4-23.4 23.4z" fill="url(#a)"/><linearGradient y2="807.06" x2="1480.548" y1="807.06" x1="845.945" gradientUnits="userSpaceOnUse" id="b"><stop offset="0" stop-color="#9d1b3c"/><stop offset="1" stop-color="#d81f48"/></linearGradient><path d="M1480.5 721.8c0 82.8-34.9 320.5-317.3 320.5-282.4 0-317.3-237.7-317.3-320.5 0-82.8 142.1-149.9 317.3-149.9 175.2 0 317.3 67.1 317.3 149.9z" fill="url(#b)"/><linearGradient y2="807.06" x2="1409.379" y1="807.06" x1="917.114" gradientUnits="userSpaceOnUse" id="c"><stop offset="0" stop-color="#bc2149"/><stop offset="1" stop-color="#ee2b54"/></linearGradient><path d="M1409.4 721.8c0 82.8-27 320.5-246.1 320.5S917.1 804.6 917.1 721.8c0-82.8 110.2-149.9 246.1-149.9 135.9 0 246.2 67.1 246.2 149.9z" fill="url(#c)"/><linearGradient y2="807.06" x2="1313.706" y1="807.06" x1="1012.787" gradientUnits="userSpaceOnUse" id="d"><stop offset="0" stop-color="#9d1b3c"/><stop offset="1" stop-color="#d81f48"/></linearGradient><path d="M1313.7 721.8c0 82.8-16.5 320.5-150.5 320.5s-150.5-237.7-150.5-320.5c0-82.8 67.4-149.9 150.5-149.9s150.5 67.1 150.5 149.9z" fill="url(#d)"/><linearGradient y2="721.778" x2="1480.548" y1="721.778" x1="845.945" gradientUnits="userSpaceOnUse" id="e"><stop offset="0" stop-color="#9d1b3c"/><stop offset="1" stop-color="#d81f48"/></linearGradient><ellipse ry="149.9" rx="317.3" cy="721.8" cx="1163.2" fill="url(#e)"/><radialGradient gradientUnits="userSpaceOnUse" gradientTransform="matrix(1 0 0 .542 0 -3322.942)" r="333.625" cy="7462.873" cx="1163.247" id="f"><stop offset="0" stop-color="#e2bdd1"/><stop offset=".215" stop-color="#e1b9cf"/><stop offset=".477" stop-color="#e1aec8"/><stop offset=".763" stop-color="#df9cbd"/><stop offset="1" stop-color="#de89b3"/><stop offset="1" stop-color="#e2bdd1"/></radialGradient><ellipse ry="133.5" rx="282.4" cy="721.8" cx="1163.2" fill="url(#f)"/><radialGradient gradientUnits="userSpaceOnUse" gradientTransform="matrix(1 0 0 .542 0 -3322.942)" r="170.956" cy="7462.873" cx="1163.247" id="g"><stop offset="0" stop-color="#e2bdd1"/><stop offset=".215" stop-color="#e1b9cf"/><stop offset=".477" stop-color="#e1aec8"/><stop offset=".763" stop-color="#df9cbd"/><stop offset="1" stop-color="#de89b3"/><stop offset="1" stop-color="#e2bdd1"/></radialGradient><path d="M1163.2 825.9c-58 0-112.6-10.7-153.7-30.1-41.6-19.6-64.5-45.9-64.5-74s22.9-54.4 64.5-74c41.1-19.4 95.7-30.1 153.7-30.1 58 0 112.6 10.7 153.7 30.1 41.6 19.6 64.5 45.9 64.5 74s-22.9 54.4-64.5 74c-41 19.4-95.6 30.1-153.7 30.1zm0-204.3c-118.1 0-214.2 44.9-214.2 100.2 0 55.2 96.1 100.2 214.2 100.2s214.2-44.9 214.2-100.2c0-55.2-96.1-100.2-214.2-100.2z" fill="url(#g)"/><radialGradient gradientUnits="userSpaceOnUse" gradientTransform="matrix(1 0 0 .542 0 -3322.942)" r="111.873" cy="7462.873" cx="1163.247" id="h"><stop offset="0" stop-color="#e2bdd1"/><stop offset=".215" stop-color="#e1b9cf"/><stop offset=".477" stop-color="#e1aec8"/><stop offset=".763" stop-color="#df9cbd"/><stop offset="1" stop-color="#de89b3"/><stop offset="1" stop-color="#e2bdd1"/></radialGradient><path d="M1163.2 790.2c-37.9 0-73.5-7-100.3-19.7-27.3-12.9-42.3-30.2-42.3-48.8 0-18.6 15-35.9 42.3-48.8 26.8-12.7 62.4-19.7 100.3-19.7s73.5 7 100.3 19.7c27.3 12.9 42.3 30.2 42.3 48.8 0 18.6-15 35.9-42.3 48.8-26.8 12.8-62.4 19.7-100.3 19.7zm0-132.9c-76.4 0-138.6 28.9-138.6 64.5 0 35.5 62.2 64.5 138.6 64.5 76.4 0 138.6-28.9 138.6-64.5.1-35.6-62.1-64.5-138.6-64.5z" fill="url(#h)"/><g><radialGradient gradientUnits="userSpaceOnUse" gradientTransform="matrix(1 0 0 .542 0 -3322.942)" r="63.698" cy="7462.873" cx="1163.247" id="i"><stop offset="0" stop-color="#e2bdd1"/><stop offset=".215" stop-color="#e1b9cf"/><stop offset=".477" stop-color="#e1aec8"/><stop offset=".763" stop-color="#df9cbd"/><stop offset="1" stop-color="#de89b3"/><stop offset="1" stop-color="#e2bdd1"/></radialGradient><path d="M1163.2 761.1c-21.4 0-41.6-4-56.7-11.1-15.7-7.4-24.3-17.4-24.3-28.2s8.6-20.8 24.3-28.2c15.2-7.2 35.3-11.1 56.7-11.1 21.4 0 41.6 4 56.7 11.1 15.7 7.4 24.3 17.4 24.3 28.2s-8.6 20.8-24.3 28.2c-15.1 7.2-35.3 11.1-56.7 11.1zm0-74.7c-20.8 0-40.4 3.8-55 10.7-14.2 6.7-22 15.4-22 24.6 0 9.2 7.8 17.9 22 24.6 14.7 6.9 34.2 10.7 55 10.7 20.8 0 40.4-3.8 55-10.7 14.2-6.7 22-15.4 22-24.6 0-9.2-7.8-17.9-22-24.6-14.6-6.9-34.1-10.7-55-10.7z" fill="url(#i)"/></g></g><g transform="translate(-66.613 -80.77) scale(.08432)"><radialGradient gradientUnits="userSpaceOnUse" gradientTransform="matrix(1 0 0 .542 0 -3322.942)" r="174.157" cy="8646.044" cx="1402.928" id="j"><stop offset="0" stop-color="#e2bdd1"/><stop offset=".215" stop-color="#e1b9cf"/><stop offset=".477" stop-color="#e1aec8"/><stop offset=".763" stop-color="#df9cbd"/><stop offset="1" stop-color="#de89b3"/><stop offset="1" stop-color="#e2bdd1"/></radialGradient><path d="M1400.4 1351.6c75.1 0 137.7 25 152.7 58.4 3.8-6.4 5.9-13.1 5.9-20.1 0-40.8-69.9-73.8-156.2-73.8-86.2 0-156.2 33-156.2 73.8 0 5.3 1.2 10.4 3.4 15.4 18.7-31 79-53.7 150.4-53.7z" fill="url(#j)"/><defs><path d="M1578 1394.9c.1-.6.1-1.2.2-1.7.1-1.1.2-2.2.2-3.3 0-45.8-78.5-82.9-175.4-82.9s-175.4 37.1-175.4 82.9c0 1.1.1 2.2.2 3.3.1.7.1 1.3.2 2v6.6c.6 10 2.1 22.1 5.1 35.1 8.2 15.1 25.2 28.6 48.3 39.1 14.8 6.8 32.2 12.3 51.4 16.3 21.5 4.5 45.3 7 70.4 7 25 0 48.8-2.5 70.4-7 19.1-4 36.5-9.5 51.3-16.3 23.1-10.5 40.1-24 48.3-39.2 3.6-16.1 5-30.8 5.4-41.9h-.6zm-175.1 59.6c-75.6 0-136.8-28.9-136.8-64.6 0-35.7 61.3-64.6 136.8-64.6 75.6 0 136.8 28.9 136.8 64.6 0 35.7-61.2 64.6-136.8 64.6z" id="k"/></defs><clipPath id="l"><use height="100%" width="100%" overflow="visible" xlink:href="#k"/></clipPath><g clip-path="url(#l)"><linearGradient y2="1417.326" x2="1578.367" y1="1417.326" x1="1227.489" gradientUnits="userSpaceOnUse" id="m"><stop offset="0" stop-color="#9d1b3c"/><stop offset="1" stop-color="#d81f48"/></linearGradient><path d="M1572.5 1394.9c-7.8-13.8-23-26.3-43.5-36.2 6.4 9.6 10 20.2 10 31.2 0 19.1-2.6 53-14.4 86.1 23.1-10.5 40.1-24 48.3-39.2 3.6-16.1 5-30.8 5.4-41.9z" fill="url(#m)"/><linearGradient y2="1417.322" x2="1578.367" y1="1417.322" x1="1227.489" gradientUnits="userSpaceOnUse" id="n"><stop offset="0" stop-color="#9d1b3c"/><stop offset="1" stop-color="#d81f48"/></linearGradient><path d="M1276.8 1358.7c-20.5 10-35.7 22.4-43.5 36.2h-5.5v6.9c.6 10 2.1 22.1 5.1 35.1 8.2 15.1 25.2 28.6 48.3 39.1-11.8-33.1-14.4-67-14.4-86.1 0-11.1 3.6-21.6 10-31.2z" fill="url(#n)"/><linearGradient y2="1415.852" x2="1578.367" y1="1415.852" x1="1227.489" gradientUnits="userSpaceOnUse" id="o"><stop offset="0" stop-color="#9d1b3c"/><stop offset="1" stop-color="#d81f48"/></linearGradient><path d="M1529 1358.7c-16.8-8.2-37.2-14.8-60.1-19.2 10.8 14 17.2 31.4 17.2 50.4 0 22.2-2.2 64.6-12.8 102.4 19.1-4 36.5-9.5 51.3-16.3 11.8-33.1 14.4-67 14.4-86.1 0-11.1-3.6-21.6-10-31.2z" fill="url(#o)"/><linearGradient y2="1415.852" x2="1539.017" y1="1415.852" x1="1266.84" gradientUnits="userSpaceOnUse" id="p"><stop offset="0" stop-color="#bc2149"/><stop offset="1" stop-color="#ee2b54"/></linearGradient><path d="M1529 1358.7c-16.8-8.2-37.2-14.8-60.1-19.2 10.8 14 17.2 31.4 17.2 50.4 0 22.2-2.2 64.6-12.8 102.4 19.1-4 36.5-9.5 51.3-16.3 11.8-33.1 14.4-67 14.4-86.1 0-11.1-3.6-21.6-10-31.2z" fill="url(#p)"/><linearGradient y2="1415.854" x2="1578.367" y1="1415.854" x1="1227.489" gradientUnits="userSpaceOnUse" id="q"><stop offset="0" stop-color="#9d1b3c"/><stop offset="1" stop-color="#d81f48"/></linearGradient><path d="M1336.9 1339.5c-22.8 4.4-43.2 11-60.1 19.2-6.4 9.6-10 20.2-10 31.2 0 19.1 2.6 53 14.4 86.1 14.8 6.8 32.2 12.3 51.4 16.3-10.7-37.7-12.8-80.1-12.8-102.4-.1-19 6.3-36.5 17.1-50.4z" fill="url(#q)"/><linearGradient y2="1415.854" x2="1539.017" y1="1415.854" x1="1266.84" gradientUnits="userSpaceOnUse" id="r"><stop offset="0" stop-color="#bc2149"/><stop offset="1" stop-color="#ee2b54"/></linearGradient><path d="M1336.9 1339.5c-22.8 4.4-43.2 11-60.1 19.2-6.4 9.6-10 20.2-10 31.2 0 19.1 2.6 53 14.4 86.1 14.8 6.8 32.2 12.3 51.4 16.3-10.7-37.7-12.8-80.1-12.8-102.4-.1-19 6.3-36.5 17.1-50.4z" fill="url(#r)"/><linearGradient y2="1416.289" x2="1578.367" y1="1416.289" x1="1227.489" gradientUnits="userSpaceOnUse" id="s"><stop offset="0" stop-color="#9d1b3c"/><stop offset="1" stop-color="#d81f48"/></linearGradient><path d="M1469 1339.5c-20.4-3.9-42.7-6.1-66-6.1-23.4 0-45.7 2.2-66 6.1-10.8 14-17.2 31.4-17.2 50.4 0 22.2 2.2 64.6 12.8 102.4 21.5 4.5 45.3 7 70.4 7 25 0 48.8-2.5 70.4-7 10.7-37.7 12.8-80.1 12.8-102.4-.1-19-6.5-36.5-17.2-50.4z" fill="url(#s)"/><linearGradient y2="1416.289" x2="1539.016" y1="1416.289" x1="1266.84" gradientUnits="userSpaceOnUse" id="t"><stop offset="0" stop-color="#bc2149"/><stop offset="1" stop-color="#ee2b54"/></linearGradient><path d="M1469 1339.5c-20.4-3.9-42.7-6.1-66-6.1-23.4 0-45.7 2.2-66 6.1-10.8 14-17.2 31.4-17.2 50.4 0 22.2 2.2 64.6 12.8 102.4 21.5 4.5 45.3 7 70.4 7 25 0 48.8-2.5 70.4-7 10.7-37.7 12.8-80.1 12.8-102.4-.1-19-6.5-36.5-17.2-50.4z" fill="url(#t)"/><linearGradient y2="1416.289" x2="1486.118" y1="1416.289" x1="1319.738" gradientUnits="userSpaceOnUse" id="u"><stop offset="0" stop-color="#9d1b3c"/><stop offset="1" stop-color="#d81f48"/></linearGradient><path d="M1469 1339.5c-20.4-3.9-42.7-6.1-66-6.1-23.4 0-45.7 2.2-66 6.1-10.8 14-17.2 31.4-17.2 50.4 0 22.2 2.2 64.6 12.8 102.4 21.5 4.5 45.3 7 70.4 7 25 0 48.8-2.5 70.4-7 10.7-37.7 12.8-80.1 12.8-102.4-.1-19-6.5-36.5-17.2-50.4z" fill="url(#u)"/><linearGradient y2="1389.87" x2="1578.367" y1="1389.87" x1="1227.489" gradientUnits="userSpaceOnUse" id="v"><stop offset="0" stop-color="#9d1b3c"/><stop offset="1" stop-color="#d81f48"/></linearGradient><path d="M1402.9 1307c-96.9 0-175.4 37.1-175.4 82.9 0 45.8 78.5 82.9 175.4 82.9s175.4-37.1 175.4-82.9c.1-45.8-78.5-82.9-175.4-82.9zm0 147.5c-75.6 0-136.8-28.9-136.8-64.6 0-35.7 61.3-64.6 136.8-64.6 75.6 0 136.8 28.9 136.8 64.6 0 35.7-61.2 64.6-136.8 64.6z" fill="url(#v)"/><radialGradient gradientUnits="userSpaceOnUse" gradientTransform="matrix(1 0 0 .542 0 -3322.942)" r="184.464" cy="8695.564" cx="1402.928" id="w"><stop offset="0" stop-color="#e2bdd1"/><stop offset=".215" stop-color="#e1b9cf"/><stop offset=".477" stop-color="#e1aec8"/><stop offset=".763" stop-color="#df9cbd"/><stop offset="1" stop-color="#de89b3"/><stop offset="1" stop-color="#e2bdd1"/></radialGradient><ellipse ry="73.8" rx="156.2" cy="1389.9" cx="1402.9" fill="url(#w)"/><g><radialGradient gradientUnits="userSpaceOnUse" gradientTransform="matrix(1 0 0 .542 0 -3322.942)" r="98.843" cy="8695.563" cx="1402.929" id="x"><stop offset="0" stop-color="#e2bdd1"/><stop offset=".215" stop-color="#e1b9cf"/><stop offset=".477" stop-color="#e1aec8"/><stop offset=".763" stop-color="#df9cbd"/><stop offset="1" stop-color="#de89b3"/><stop offset="1" stop-color="#e2bdd1"/></radialGradient><path d="M1402.9 1452c-70.2 0-125.2-27.3-125.2-62.2 0-34.9 55-62.2 125.2-62.2s125.2 27.3 125.2 62.2c0 34.9-55 62.2-125.2 62.2zm0-112.9c-61.7 0-113.9 23.3-113.9 50.8 0 27.5 52.1 50.8 113.9 50.8 61.7 0 113.9-23.3 113.9-50.8 0-27.5-52.2-50.8-113.9-50.8z" fill="url(#x)"/></g><g><radialGradient gradientUnits="userSpaceOnUse" gradientTransform="matrix(1 0 0 .542 0 -3322.942)" r="66.184" cy="8695.563" cx="1402.929" id="y"><stop offset="0" stop-color="#e2bdd1"/><stop offset=".215" stop-color="#e1b9cf"/><stop offset=".477" stop-color="#e1aec8"/><stop offset=".763" stop-color="#df9cbd"/><stop offset="1" stop-color="#de89b3"/><stop offset="1" stop-color="#e2bdd1"/></radialGradient><path d="M1402.9 1432.3c-46.8 0-83.4-18.6-83.4-42.4 0-23.8 36.6-42.4 83.4-42.4 46.8 0 83.4 18.6 83.4 42.4 0 23.8-36.6 42.4-83.4 42.4zm0-73.5c-42.5 0-72.1 16.4-72.1 31.1 0 14.7 29.6 31.1 72.1 31.1 42.5 0 72.1-16.4 72.1-31.1 0-14.7-29.6-31.1-72.1-31.1z" fill="url(#y)"/></g><g><radialGradient gradientUnits="userSpaceOnUse" gradientTransform="matrix(1 0 0 .542 0 -3322.942)" r="39.566" cy="8695.563" cx="1402.928" id="z"><stop offset="0" stop-color="#e2bdd1"/><stop offset=".215" stop-color="#e1b9cf"/><stop offset=".477" stop-color="#e1aec8"/><stop offset=".763" stop-color="#df9cbd"/><stop offset="1" stop-color="#de89b3"/><stop offset="1" stop-color="#e2bdd1"/></radialGradient><path d="M1402.9 1416.2c-28.1 0-49.4-11.3-49.4-26.3s21.2-26.3 49.4-26.3c28.1 0 49.4 11.3 49.4 26.3s-21.2 26.3-49.4 26.3zm0-41.3c-23.2 0-38 8.9-38 15s14.8 15 38 15 38-8.9 38-15c.1-6.1-14.8-15-38-15z" fill="url(#z)"/></g></g><g clip-path="url(#l)"><linearGradient y2="1417.326" x2="1578.367" y1="1417.326" x1="1227.489" gradientUnits="userSpaceOnUse" id="A"><stop offset="0" stop-color="#9d1b3c"/><stop offset="1" stop-color="#d81f48"/></linearGradient><path d="M1572.5 1394.9c-7.8-13.8-23-26.3-43.5-36.2 6.4 9.6 10 20.2 10 31.2 0 19.1-2.6 53-14.4 86.1 23.1-10.5 40.1-24 48.3-39.2 3.6-16.1 5-30.8 5.4-41.9z" fill="url(#A)"/><linearGradient y2="1417.322" x2="1578.367" y1="1417.322" x1="1227.489" gradientUnits="userSpaceOnUse" id="B"><stop offset="0" stop-color="#9d1b3c"/><stop offset="1" stop-color="#d81f48"/></linearGradient><path d="M1276.8 1358.7c-20.5 10-35.7 22.4-43.5 36.2h-5.5v6.9c.6 10 2.1 22.1 5.1 35.1 8.2 15.1 25.2 28.6 48.3 39.1-11.8-33.1-14.4-67-14.4-86.1 0-11.1 3.6-21.6 10-31.2z" fill="url(#B)"/><linearGradient y2="1415.852" x2="1578.367" y1="1415.852" x1="1227.489" gradientUnits="userSpaceOnUse" id="C"><stop offset="0" stop-color="#9d1b3c"/><stop offset="1" stop-color="#d81f48"/></linearGradient><path d="M1529 1358.7c-16.8-8.2-37.2-14.8-60.1-19.2 10.8 14 17.2 31.4 17.2 50.4 0 22.2-2.2 64.6-12.8 102.4 19.1-4 36.5-9.5 51.3-16.3 11.8-33.1 14.4-67 14.4-86.1 0-11.1-3.6-21.6-10-31.2z" fill="url(#C)"/><linearGradient y2="1415.852" x2="1539.017" y1="1415.852" x1="1266.84" gradientUnits="userSpaceOnUse" id="D"><stop offset="0" stop-color="#bc2149"/><stop offset="1" stop-color="#ee2b54"/></linearGradient><path d="M1529 1358.7c-16.8-8.2-37.2-14.8-60.1-19.2 10.8 14 17.2 31.4 17.2 50.4 0 22.2-2.2 64.6-12.8 102.4 19.1-4 36.5-9.5 51.3-16.3 11.8-33.1 14.4-67 14.4-86.1 0-11.1-3.6-21.6-10-31.2z" fill="url(#D)"/><linearGradient y2="1415.854" x2="1578.367" y1="1415.854" x1="1227.489" gradientUnits="userSpaceOnUse" id="E"><stop offset="0" stop-color="#9d1b3c"/><stop offset="1" stop-color="#d81f48"/></linearGradient><path d="M1336.9 1339.5c-22.8 4.4-43.2 11-60.1 19.2-6.4 9.6-10 20.2-10 31.2 0 19.1 2.6 53 14.4 86.1 14.8 6.8 32.2 12.3 51.4 16.3-10.7-37.7-12.8-80.1-12.8-102.4-.1-19 6.3-36.5 17.1-50.4z" fill="url(#E)"/><linearGradient y2="1415.854" x2="1539.017" y1="1415.854" x1="1266.84" gradientUnits="userSpaceOnUse" id="F"><stop offset="0" stop-color="#bc2149"/><stop offset="1" stop-color="#ee2b54"/></linearGradient><path d="M1336.9 1339.5c-22.8 4.4-43.2 11-60.1 19.2-6.4 9.6-10 20.2-10 31.2 0 19.1 2.6 53 14.4 86.1 14.8 6.8 32.2 12.3 51.4 16.3-10.7-37.7-12.8-80.1-12.8-102.4-.1-19 6.3-36.5 17.1-50.4z" fill="url(#F)"/><linearGradient y2="1416.289" x2="1578.367" y1="1416.289" x1="1227.489" gradientUnits="userSpaceOnUse" id="G"><stop offset="0" stop-color="#9d1b3c"/><stop offset="1" stop-color="#d81f48"/></linearGradient><path d="M1469 1339.5c-20.4-3.9-42.7-6.1-66-6.1-23.4 0-45.7 2.2-66 6.1-10.8 14-17.2 31.4-17.2 50.4 0 22.2 2.2 64.6 12.8 102.4 21.5 4.5 45.3 7 70.4 7 25 0 48.8-2.5 70.4-7 10.7-37.7 12.8-80.1 12.8-102.4-.1-19-6.5-36.5-17.2-50.4z" fill="url(#G)"/><linearGradient y2="1416.289" x2="1539.016" y1="1416.289" x1="1266.84" gradientUnits="userSpaceOnUse" id="H"><stop offset="0" stop-color="#bc2149"/><stop offset="1" stop-color="#ee2b54"/></linearGradient><path d="M1469 1339.5c-20.4-3.9-42.7-6.1-66-6.1-23.4 0-45.7 2.2-66 6.1-10.8 14-17.2 31.4-17.2 50.4 0 22.2 2.2 64.6 12.8 102.4 21.5 4.5 45.3 7 70.4 7 25 0 48.8-2.5 70.4-7 10.7-37.7 12.8-80.1 12.8-102.4-.1-19-6.5-36.5-17.2-50.4z" fill="url(#H)"/><linearGradient y2="1416.289" x2="1486.118" y1="1416.289" x1="1319.738" gradientUnits="userSpaceOnUse" id="I"><stop offset="0" stop-color="#9d1b3c"/><stop offset="1" stop-color="#d81f48"/></linearGradient><path d="M1469 1339.5c-20.4-3.9-42.7-6.1-66-6.1-23.4 0-45.7 2.2-66 6.1-10.8 14-17.2 31.4-17.2 50.4 0 22.2 2.2 64.6 12.8 102.4 21.5 4.5 45.3 7 70.4 7 25 0 48.8-2.5 70.4-7 10.7-37.7 12.8-80.1 12.8-102.4-.1-19-6.5-36.5-17.2-50.4z" fill="url(#I)"/><linearGradient y2="1389.87" x2="1578.367" y1="1389.87" x1="1227.489" gradientUnits="userSpaceOnUse" id="J"><stop offset="0" stop-color="#9d1b3c"/><stop offset="1" stop-color="#d81f48"/></linearGradient><path d="M1402.9 1307c-96.9 0-175.4 37.1-175.4 82.9 0 45.8 78.5 82.9 175.4 82.9s175.4-37.1 175.4-82.9c.1-45.8-78.5-82.9-175.4-82.9zm0 147.5c-75.6 0-136.8-28.9-136.8-64.6 0-35.7 61.3-64.6 136.8-64.6 75.6 0 136.8 28.9 136.8 64.6 0 35.7-61.2 64.6-136.8 64.6z" fill="url(#J)"/><radialGradient gradientUnits="userSpaceOnUse" gradientTransform="matrix(1 0 0 .542 0 -3322.942)" r="184.464" cy="8695.564" cx="1402.928" id="K"><stop offset="0" stop-color="#e2bdd1"/><stop offset=".215" stop-color="#e1b9cf"/><stop offset=".477" stop-color="#e1aec8"/><stop offset=".763" stop-color="#df9cbd"/><stop offset="1" stop-color="#de89b3"/><stop offset="1" stop-color="#e2bdd1"/></radialGradient><ellipse ry="73.8" rx="156.2" cy="1389.9" cx="1402.9" fill="url(#K)"/><g><radialGradient gradientUnits="userSpaceOnUse" gradientTransform="matrix(1 0 0 .542 0 -3322.942)" r="98.843" cy="8695.563" cx="1402.929" id="L"><stop offset="0" stop-color="#e2bdd1"/><stop offset=".215" stop-color="#e1b9cf"/><stop offset=".477" stop-color="#e1aec8"/><stop offset=".763" stop-color="#df9cbd"/><stop offset="1" stop-color="#de89b3"/><stop offset="1" stop-color="#e2bdd1"/></radialGradient><path d="M1402.9 1452c-70.2 0-125.2-27.3-125.2-62.2 0-34.9 55-62.2 125.2-62.2s125.2 27.3 125.2 62.2c0 34.9-55 62.2-125.2 62.2zm0-112.9c-61.7 0-113.9 23.3-113.9 50.8 0 27.5 52.1 50.8 113.9 50.8 61.7 0 113.9-23.3 113.9-50.8 0-27.5-52.2-50.8-113.9-50.8z" fill="url(#L)"/></g><g><radialGradient gradientUnits="userSpaceOnUse" gradientTransform="matrix(1 0 0 .542 0 -3322.942)" r="66.184" cy="8695.563" cx="1402.929" id="M"><stop offset="0" stop-color="#e2bdd1"/><stop offset=".215" stop-color="#e1b9cf"/><stop offset=".477" stop-color="#e1aec8"/><stop offset=".763" stop-color="#df9cbd"/><stop offset="1" stop-color="#de89b3"/><stop offset="1" stop-color="#e2bdd1"/></radialGradient><path d="M1402.9 1432.3c-46.8 0-83.4-18.6-83.4-42.4 0-23.8 36.6-42.4 83.4-42.4 46.8 0 83.4 18.6 83.4 42.4 0 23.8-36.6 42.4-83.4 42.4zm0-73.5c-42.5 0-72.1 16.4-72.1 31.1 0 14.7 29.6 31.1 72.1 31.1 42.5 0 72.1-16.4 72.1-31.1 0-14.7-29.6-31.1-72.1-31.1z" fill="url(#M)"/></g><g><radialGradient gradientUnits="userSpaceOnUse" gradientTransform="matrix(1 0 0 .542 0 -3322.942)" r="39.566" cy="8695.563" cx="1402.928" id="N"><stop offset="0" stop-color="#e2bdd1"/><stop offset=".215" stop-color="#e1b9cf"/><stop offset=".477" stop-color="#e1aec8"/><stop offset=".763" stop-color="#df9cbd"/><stop offset="1" stop-color="#de89b3"/><stop offset="1" stop-color="#e2bdd1"/></radialGradient><path d="M1402.9 1416.2c-28.1 0-49.4-11.3-49.4-26.3s21.2-26.3 49.4-26.3c28.1 0 49.4 11.3 49.4 26.3s-21.2 26.3-49.4 26.3zm0-41.3c-23.2 0-38 8.9-38 15s14.8 15 38 15 38-8.9 38-15c.1-6.1-14.8-15-38-15z" fill="url(#N)"/></g></g></g><g transform="translate(-66.613 -80.77) scale(.08432)"><radialGradient gradientUnits="userSpaceOnUse" gradientTransform="matrix(.9897 -.1429 .07743 .5364 -418.727 -3674.675)" r="213.962" cy="9623.516" cx="895.122" id="O"><stop offset="0" stop-color="#e2bdd1"/><stop offset=".215" stop-color="#e1b9cf"/><stop offset=".477" stop-color="#e1aec8"/><stop offset=".763" stop-color="#df9cbd"/><stop offset="1" stop-color="#de89b3"/><stop offset="1" stop-color="#e2bdd1"/></radialGradient><path d="M1207.3 1346.2c91.3-13.2 171.9 6.3 195.9 44.2 3.5-8.4 4.9-17 3.7-25.5-7.2-49.6-98-77.5-202.8-62.3-104.9 15.1-184.1 67.6-176.9 117.1.9 6.4 3.3 12.5 6.9 18.1 17.1-40.8 86.3-79 173.2-91.6z" fill="url(#O)"/><defs><path d="M1430.9 1367.7c0-.7 0-1.4-.1-2.1-.1-1.4-.2-2.7-.4-4.1-8-55.7-110.1-87-227.9-70-117.8 17-206.8 75.9-198.8 131.6.2 1.3.5 2.6.8 3.9l.6 2.4 1.2 8.1c2.5 12 6.4 26.5 12.3 41.8 12.6 17 35.7 30.4 65.6 39.1 19.2 5.6 41.3 9.3 65.3 10.8 27 1.6 56.3.5 86.8-3.9 30.4-4.4 58.9-11.6 84.3-20.8 22.6-8.2 42.7-18 59.6-28.8 26.3-16.9 44.6-36.2 51.9-56.1 1.6-20.3.7-38.3-.8-51.9h-.4zm-202.5 103.2c-91.9 13.3-171.4-11.2-177.7-54.6-6.3-43.4 63.1-89.4 155-102.6 91.9-13.3 171.4 11.2 177.7 54.6 6.3 43.4-63.1 89.4-155 102.6z" id="P"/></defs><clipPath id="Q"><use height="100%" width="100%" overflow="visible" xlink:href="#P"/></clipPath><g clip-path="url(#Q)"><linearGradient gradientTransform="rotate(-8.216 -2115.538 -1121.658)" y2="1876.564" x2="1039.188" y1="1876.564" x1="608.072" gradientUnits="userSpaceOnUse" id="R"><stop offset="0" stop-color="#9d1b3c"/><stop offset="1" stop-color="#d81f48"/></linearGradient><path d="M1424.1 1368.7c-11.9-15.5-32.6-27.9-59.2-36.4 9.5 10.6 15.7 22.8 17.6 36.2 3.3 23.2 6.1 64.9-2.4 107.2 26.3-16.9 44.6-36.2 51.9-56.1 1.6-20.3.7-38.3-.8-51.9z" fill="url(#R)"/><linearGradient gradientTransform="rotate(-8.216 -2115.538 -1121.658)" y2="1876.546" x2="1039.163" y1="1876.546" x1="608.098" gradientUnits="userSpaceOnUse" id="S"><stop offset="0" stop-color="#9d1b3c"/><stop offset="1" stop-color="#d81f48"/></linearGradient><path d="M1058.3 1376.5c-23.1 15.7-39.4 33.5-46.5 51.7l-6.7 1 1.2 8.3c2.5 12 6.4 26.5 12.3 41.8 12.6 17 35.7 30.4 65.6 39.1-20.1-38.2-29.3-79-32.6-102.2-1.9-13.4.6-26.8 6.7-39.7z" fill="url(#S)"/><linearGradient gradientTransform="rotate(-8.216 -2115.538 -1121.658)" y2="1874.75" x2="1039.188" y1="1874.75" x1="608.11" gradientUnits="userSpaceOnUse" id="T"><stop offset="0" stop-color="#9d1b3c"/><stop offset="1" stop-color="#d81f48"/></linearGradient><path d="M1364.9 1332.3c-21.9-7.1-47.9-11.5-76.4-12.8 15.5 15.1 26.4 35.2 29.7 58.3 3.9 27 8.7 78.9 2.4 126.7 22.6-8.2 42.7-18 59.6-28.8 8.5-42.3 5.7-84 2.4-107.2-2-13.5-8.2-25.7-17.7-36.2z" fill="url(#T)"/><linearGradient gradientTransform="rotate(-8.216 -2115.538 -1121.658)" y2="1874.75" x2="990.843" y1="1874.75" x1="656.454" gradientUnits="userSpaceOnUse" id="U"><stop offset="0" stop-color="#bc2149"/><stop offset="1" stop-color="#ee2b54"/></linearGradient><path d="M1364.9 1332.3c-21.9-7.1-47.9-11.5-76.4-12.8 15.5 15.1 26.4 35.2 29.7 58.3 3.9 27 8.7 78.9 2.4 126.7 22.6-8.2 42.7-18 59.6-28.8 8.5-42.3 5.7-84 2.4-107.2-2-13.5-8.2-25.7-17.7-36.2z" fill="url(#U)"/><linearGradient gradientTransform="rotate(-8.216 -2115.538 -1121.658)" y2="1874.746" x2="1039.2" y1="1874.746" x1="608.097" gradientUnits="userSpaceOnUse" id="V"><stop offset="0" stop-color="#9d1b3c"/><stop offset="1" stop-color="#d81f48"/></linearGradient><path d="M1127.9 1342.6c-27 9.3-50.6 20.9-69.7 33.9-6.1 12.8-8.6 26.3-6.7 39.7 3.3 23.2 12.5 64 32.6 102.2 19.2 5.6 41.3 9.3 65.3 10.8-19.6-44-29.7-95.2-33.6-122.2-3.2-23.1 1.5-45.5 12.1-64.4z" fill="url(#V)"/><linearGradient gradientTransform="rotate(-8.216 -2115.538 -1121.658)" y2="1874.746" x2="990.852" y1="1874.746" x1="656.445" gradientUnits="userSpaceOnUse" id="W"><stop offset="0" stop-color="#bc2149"/><stop offset="1" stop-color="#ee2b54"/></linearGradient><path d="M1127.9 1342.6c-27 9.3-50.6 20.9-69.7 33.9-6.1 12.8-8.6 26.3-6.7 39.7 3.3 23.2 12.5 64 32.6 102.2 19.2 5.6 41.3 9.3 65.3 10.8-19.6-44-29.7-95.2-33.6-122.2-3.2-23.1 1.5-45.5 12.1-64.4z" fill="url(#W)"/><linearGradient gradientTransform="rotate(-8.216 -2115.538 -1121.658)" y2="1875.284" x2="1039.189" y1="1875.284" x1="608.098" gradientUnits="userSpaceOnUse" id="X"><stop offset="0" stop-color="#9d1b3c"/><stop offset="1" stop-color="#d81f48"/></linearGradient><path d="M1288.5 1319.5c-25.5-1.2-53 .1-81.4 4.2-28.4 4.1-55.1 10.6-79.2 19-10.6 18.9-15.3 41.2-12 64.3 3.9 27 14 78.2 33.6 122.2 27 1.6 56.3.5 86.8-3.9 30.4-4.4 58.9-11.6 84.3-20.8 6.4-47.8 1.5-99.7-2.4-126.7-3.3-23.1-14.2-43.2-29.7-58.3z" fill="url(#X)"/><linearGradient gradientTransform="rotate(-8.216 -2115.538 -1121.658)" y2="1875.284" x2="990.842" y1="1875.284" x1="656.444" gradientUnits="userSpaceOnUse" id="Y"><stop offset="0" stop-color="#bc2149"/><stop offset="1" stop-color="#ee2b54"/></linearGradient><path d="M1288.5 1319.5c-25.5-1.2-53 .1-81.4 4.2-28.4 4.1-55.1 10.6-79.2 19-10.6 18.9-15.3 41.2-12 64.3 3.9 27 14 78.2 33.6 122.2 27 1.6 56.3.5 86.8-3.9 30.4-4.4 58.9-11.6 84.3-20.8 6.4-47.8 1.5-99.7-2.4-126.7-3.3-23.1-14.2-43.2-29.7-58.3z" fill="url(#Y)"/><linearGradient gradientTransform="rotate(-8.216 -2115.538 -1121.658)" y2="1875.284" x2="925.851" y1="1875.284" x1="721.435" gradientUnits="userSpaceOnUse" id="Z"><stop offset="0" stop-color="#9d1b3c"/><stop offset="1" stop-color="#d81f48"/></linearGradient><path d="M1288.5 1319.5c-25.5-1.2-53 .1-81.4 4.2-28.4 4.1-55.1 10.6-79.2 19-10.6 18.9-15.3 41.2-12 64.3 3.9 27 14 78.2 33.6 122.2 27 1.6 56.3.5 86.8-3.9 30.4-4.4 58.9-11.6 84.3-20.8 6.4-47.8 1.5-99.7-2.4-126.7-3.3-23.1-14.2-43.2-29.7-58.3z" fill="url(#Z)"/><linearGradient gradientTransform="rotate(-8.216 -2115.538 -1121.658)" y2="1842.826" x2="1039.189" y1="1842.826" x1="608.098" gradientUnits="userSpaceOnUse" id="aa"><stop offset="0" stop-color="#9d1b3c"/><stop offset="1" stop-color="#d81f48"/></linearGradient><path d="M1202.5 1291.5c-117.8 17-206.8 75.9-198.8 131.6 8 55.7 110.1 87 227.9 70 117.8-17 206.8-75.9 198.8-131.6-8-55.6-110.1-87-227.9-70zm25.9 179.4c-91.9 13.3-171.4-11.2-177.7-54.6-6.3-43.4 63.1-89.4 155-102.6 91.9-13.3 171.4 11.2 177.7 54.6 6.3 43.4-63.1 89.4-155 102.6z" fill="url(#aa)"/><radialGradient gradientUnits="userSpaceOnUse" gradientTransform="matrix(.9897 -.1429 .07743 .5364 -418.727 -3674.675)" r="226.625" cy="9684.353" cx="895.122" id="ab"><stop offset="0" stop-color="#e2bdd1"/><stop offset=".215" stop-color="#e1b9cf"/><stop offset=".477" stop-color="#e1aec8"/><stop offset=".763" stop-color="#df9cbd"/><stop offset="1" stop-color="#de89b3"/><stop offset="1" stop-color="#e2bdd1"/></radialGradient><path d="M1407 1364.9c7.2 49.6-72.1 102-176.9 117.1-104.9 15.1-195.7-12.8-202.8-62.3-7.2-49.6 72.1-102 176.9-117.1 104.8-15.1 195.6 12.8 202.8 62.3z" fill="url(#ab)"/><g><radialGradient gradientUnits="userSpaceOnUse" gradientTransform="matrix(.9897 -.1429 .07743 .5364 -418.727 -3674.675)" r="121.435" cy="9684.352" cx="895.122" id="ac"><stop offset="0" stop-color="#e2bdd1"/><stop offset=".215" stop-color="#e1b9cf"/><stop offset=".477" stop-color="#e1aec8"/><stop offset=".763" stop-color="#df9cbd"/><stop offset="1" stop-color="#de89b3"/><stop offset="1" stop-color="#e2bdd1"/></radialGradient><path d="M1228 1467.9c-85.4 12.3-157-11.2-163.2-53.6-6.2-42.4 56-85.2 141.3-97.6 85.4-12.3 157 11.2 163.2 53.6 6.2 42.4-55.9 85.3-141.3 97.6zm-19.8-137.4c-75 10.8-134.4 48.3-129.5 81.8 4.8 33.5 72.3 52.6 147.4 41.8 75-10.8 134.4-48.3 129.5-81.8-4.9-33.4-72.4-52.6-147.4-41.8z" fill="url(#ac)"/></g><g><radialGradient gradientUnits="userSpaceOnUse" gradientTransform="matrix(.9897 -.1429 .07743 .5364 -418.727 -3674.675)" r="81.312" cy="9684.352" cx="895.122" id="ad"><stop offset="0" stop-color="#e2bdd1"/><stop offset=".215" stop-color="#e1b9cf"/><stop offset=".477" stop-color="#e1aec8"/><stop offset=".763" stop-color="#df9cbd"/><stop offset="1" stop-color="#de89b3"/><stop offset="1" stop-color="#e2bdd1"/></radialGradient><path d="M1224.5 1443.9c-56.9 8.2-104.7-8-108.9-36.9-4.2-28.9 37.1-58 94-66.2 56.9-8.2 104.7 8 108.9 36.9 4.2 28.9-37.1 58-94 66.2zm-12.9-89.4c-51.7 7.5-84.8 32.6-82.2 50.4 2.6 17.9 41.4 32.6 93.1 25.1 51.7-7.5 84.8-32.6 82.2-50.4-2.6-17.8-41.4-32.5-93.1-25.1z" fill="url(#ad)"/></g><g><radialGradient gradientUnits="userSpaceOnUse" gradientTransform="matrix(.9897 -.1429 .07743 .5364 -418.727 -3674.675)" r="48.609" cy="9684.352" cx="895.122" id="ae"><stop offset="0" stop-color="#e2bdd1"/><stop offset=".215" stop-color="#e1b9cf"/><stop offset=".477" stop-color="#e1aec8"/><stop offset=".763" stop-color="#df9cbd"/><stop offset="1" stop-color="#de89b3"/><stop offset="1" stop-color="#e2bdd1"/></radialGradient><path d="M1221.7 1424.3c-34.2 4.9-62-5.1-64.7-23.3-2.6-18.2 21.2-35.7 55.4-40.7 34.2-4.9 62 5.1 64.7 23.3 2.6 18.3-21.2 35.8-55.4 40.7zm-7.3-50.2c-28.2 4.1-44.7 17.5-43.6 24.9 1.1 7.4 20.6 15.6 48.9 11.5 28.2-4.1 44.7-17.5 43.6-24.9-1.1-7.4-20.6-15.6-48.9-11.5z" fill="url(#ae)"/></g></g><g clip-path="url(#Q)"><linearGradient gradientTransform="rotate(-8.216 -2115.538 -1121.658)" y2="1876.564" x2="1039.188" y1="1876.564" x1="608.072" gradientUnits="userSpaceOnUse" id="af"><stop offset="0" stop-color="#9d1b3c"/><stop offset="1" stop-color="#d81f48"/></linearGradient><path d="M1424.1 1368.7c-11.9-15.5-32.6-27.9-59.2-36.4 9.5 10.6 15.7 22.8 17.6 36.2 3.3 23.2 6.1 64.9-2.4 107.2 26.3-16.9 44.6-36.2 51.9-56.1 1.6-20.3.7-38.3-.8-51.9z" fill="url(#af)"/><linearGradient gradientTransform="rotate(-8.216 -2115.538 -1121.658)" y2="1876.546" x2="1039.163" y1="1876.546" x1="608.098" gradientUnits="userSpaceOnUse" id="ag"><stop offset="0" stop-color="#9d1b3c"/><stop offset="1" stop-color="#d81f48"/></linearGradient><path d="M1058.3 1376.5c-23.1 15.7-39.4 33.5-46.5 51.7l-6.7 1 1.2 8.3c2.5 12 6.4 26.5 12.3 41.8 12.6 17 35.7 30.4 65.6 39.1-20.1-38.2-29.3-79-32.6-102.2-1.9-13.4.6-26.8 6.7-39.7z" fill="url(#ag)"/><linearGradient gradientTransform="rotate(-8.216 -2115.538 -1121.658)" y2="1874.75" x2="1039.188" y1="1874.75" x1="608.11" gradientUnits="userSpaceOnUse" id="ah"><stop offset="0" stop-color="#9d1b3c"/><stop offset="1" stop-color="#d81f48"/></linearGradient><path d="M1364.9 1332.3c-21.9-7.1-47.9-11.5-76.4-12.8 15.5 15.1 26.4 35.2 29.7 58.3 3.9 27 8.7 78.9 2.4 126.7 22.6-8.2 42.7-18 59.6-28.8 8.5-42.3 5.7-84 2.4-107.2-2-13.5-8.2-25.7-17.7-36.2z" fill="url(#ah)"/><linearGradient gradientTransform="rotate(-8.216 -2115.538 -1121.658)" y2="1874.75" x2="990.843" y1="1874.75" x1="656.454" gradientUnits="userSpaceOnUse" id="ai"><stop offset="0" stop-color="#bc2149"/><stop offset="1" stop-color="#ee2b54"/></linearGradient><path d="M1364.9 1332.3c-21.9-7.1-47.9-11.5-76.4-12.8 15.5 15.1 26.4 35.2 29.7 58.3 3.9 27 8.7 78.9 2.4 126.7 22.6-8.2 42.7-18 59.6-28.8 8.5-42.3 5.7-84 2.4-107.2-2-13.5-8.2-25.7-17.7-36.2z" fill="url(#ai)"/><linearGradient gradientTransform="rotate(-8.216 -2115.538 -1121.658)" y2="1874.746" x2="1039.2" y1="1874.746" x1="608.097" gradientUnits="userSpaceOnUse" id="aj"><stop offset="0" stop-color="#9d1b3c"/><stop offset="1" stop-color="#d81f48"/></linearGradient><path d="M1127.9 1342.6c-27 9.3-50.6 20.9-69.7 33.9-6.1 12.8-8.6 26.3-6.7 39.7 3.3 23.2 12.5 64 32.6 102.2 19.2 5.6 41.3 9.3 65.3 10.8-19.6-44-29.7-95.2-33.6-122.2-3.2-23.1 1.5-45.5 12.1-64.4z" fill="url(#aj)"/><linearGradient gradientTransform="rotate(-8.216 -2115.538 -1121.658)" y2="1874.746" x2="990.852" y1="1874.746" x1="656.445" gradientUnits="userSpaceOnUse" id="ak"><stop offset="0" stop-color="#bc2149"/><stop offset="1" stop-color="#ee2b54"/></linearGradient><path d="M1127.9 1342.6c-27 9.3-50.6 20.9-69.7 33.9-6.1 12.8-8.6 26.3-6.7 39.7 3.3 23.2 12.5 64 32.6 102.2 19.2 5.6 41.3 9.3 65.3 10.8-19.6-44-29.7-95.2-33.6-122.2-3.2-23.1 1.5-45.5 12.1-64.4z" fill="url(#ak)"/><linearGradient gradientTransform="rotate(-8.216 -2115.538 -1121.658)" y2="1875.284" x2="1039.189" y1="1875.284" x1="608.098" gradientUnits="userSpaceOnUse" id="al"><stop offset="0" stop-color="#9d1b3c"/><stop offset="1" stop-color="#d81f48"/></linearGradient><path d="M1288.5 1319.5c-25.5-1.2-53 .1-81.4 4.2-28.4 4.1-55.1 10.6-79.2 19-10.6 18.9-15.3 41.2-12 64.3 3.9 27 14 78.2 33.6 122.2 27 1.6 56.3.5 86.8-3.9 30.4-4.4 58.9-11.6 84.3-20.8 6.4-47.8 1.5-99.7-2.4-126.7-3.3-23.1-14.2-43.2-29.7-58.3z" fill="url(#al)"/><linearGradient gradientTransform="rotate(-8.216 -2115.538 -1121.658)" y2="1875.284" x2="990.842" y1="1875.284" x1="656.444" gradientUnits="userSpaceOnUse" id="am"><stop offset="0" stop-color="#bc2149"/><stop offset="1" stop-color="#ee2b54"/></linearGradient><path d="M1288.5 1319.5c-25.5-1.2-53 .1-81.4 4.2-28.4 4.1-55.1 10.6-79.2 19-10.6 18.9-15.3 41.2-12 64.3 3.9 27 14 78.2 33.6 122.2 27 1.6 56.3.5 86.8-3.9 30.4-4.4 58.9-11.6 84.3-20.8 6.4-47.8 1.5-99.7-2.4-126.7-3.3-23.1-14.2-43.2-29.7-58.3z" fill="url(#am)"/><linearGradient gradientTransform="rotate(-8.216 -2115.538 -1121.658)" y2="1875.284" x2="925.851" y1="1875.284" x1="721.435" gradientUnits="userSpaceOnUse" id="an"><stop offset="0" stop-color="#9d1b3c"/><stop offset="1" stop-color="#d81f48"/></linearGradient><path d="M1288.5 1319.5c-25.5-1.2-53 .1-81.4 4.2-28.4 4.1-55.1 10.6-79.2 19-10.6 18.9-15.3 41.2-12 64.3 3.9 27 14 78.2 33.6 122.2 27 1.6 56.3.5 86.8-3.9 30.4-4.4 58.9-11.6 84.3-20.8 6.4-47.8 1.5-99.7-2.4-126.7-3.3-23.1-14.2-43.2-29.7-58.3z" fill="url(#an)"/><linearGradient gradientTransform="rotate(-8.216 -2115.538 -1121.658)" y2="1842.826" x2="1039.189" y1="1842.826" x1="608.098" gradientUnits="userSpaceOnUse" id="ao"><stop offset="0" stop-color="#9d1b3c"/><stop offset="1" stop-color="#d81f48"/></linearGradient><path d="M1202.5 1291.5c-117.8 17-206.8 75.9-198.8 131.6 8 55.7 110.1 87 227.9 70 117.8-17 206.8-75.9 198.8-131.6-8-55.6-110.1-87-227.9-70zm25.9 179.4c-91.9 13.3-171.4-11.2-177.7-54.6-6.3-43.4 63.1-89.4 155-102.6 91.9-13.3 171.4 11.2 177.7 54.6 6.3 43.4-63.1 89.4-155 102.6z" fill="url(#ao)"/><radialGradient gradientUnits="userSpaceOnUse" gradientTransform="matrix(.9897 -.1429 .07743 .5364 -418.727 -3674.675)" r="226.625" cy="9684.353" cx="895.122" id="ap"><stop offset="0" stop-color="#e2bdd1"/><stop offset=".215" stop-color="#e1b9cf"/><stop offset=".477" stop-color="#e1aec8"/><stop offset=".763" stop-color="#df9cbd"/><stop offset="1" stop-color="#de89b3"/><stop offset="1" stop-color="#e2bdd1"/></radialGradient><path d="M1407 1364.9c7.2 49.6-72.1 102-176.9 117.1-104.9 15.1-195.7-12.8-202.8-62.3-7.2-49.6 72.1-102 176.9-117.1 104.8-15.1 195.6 12.8 202.8 62.3z" fill="url(#ap)"/><g><radialGradient gradientUnits="userSpaceOnUse" gradientTransform="matrix(.9897 -.1429 .07743 .5364 -418.727 -3674.675)" r="121.435" cy="9684.352" cx="895.122" id="aq"><stop offset="0" stop-color="#e2bdd1"/><stop offset=".215" stop-color="#e1b9cf"/><stop offset=".477" stop-color="#e1aec8"/><stop offset=".763" stop-color="#df9cbd"/><stop offset="1" stop-color="#de89b3"/><stop offset="1" stop-color="#e2bdd1"/></radialGradient><path d="M1228 1467.9c-85.4 12.3-157-11.2-163.2-53.6-6.2-42.4 56-85.2 141.3-97.6 85.4-12.3 157 11.2 163.2 53.6 6.2 42.4-55.9 85.3-141.3 97.6zm-19.8-137.4c-75 10.8-134.4 48.3-129.5 81.8 4.8 33.5 72.3 52.6 147.4 41.8 75-10.8 134.4-48.3 129.5-81.8-4.9-33.4-72.4-52.6-147.4-41.8z" fill="url(#aq)"/></g><g><radialGradient gradientUnits="userSpaceOnUse" gradientTransform="matrix(.9897 -.1429 .07743 .5364 -418.727 -3674.675)" r="81.312" cy="9684.352" cx="895.122" id="ar"><stop offset="0" stop-color="#e2bdd1"/><stop offset=".215" stop-color="#e1b9cf"/><stop offset=".477" stop-color="#e1aec8"/><stop offset=".763" stop-color="#df9cbd"/><stop offset="1" stop-color="#de89b3"/><stop offset="1" stop-color="#e2bdd1"/></radialGradient><path d="M1224.5 1443.9c-56.9 8.2-104.7-8-108.9-36.9-4.2-28.9 37.1-58 94-66.2 56.9-8.2 104.7 8 108.9 36.9 4.2 28.9-37.1 58-94 66.2zm-12.9-89.4c-51.7 7.5-84.8 32.6-82.2 50.4 2.6 17.9 41.4 32.6 93.1 25.1 51.7-7.5 84.8-32.6 82.2-50.4-2.6-17.8-41.4-32.5-93.1-25.1z" fill="url(#ar)"/></g><g><radialGradient gradientUnits="userSpaceOnUse" gradientTransform="matrix(.9897 -.1429 .07743 .5364 -418.727 -3674.675)" r="48.609" cy="9684.352" cx="895.122" id="as"><stop offset="0" stop-color="#e2bdd1"/><stop offset=".215" stop-color="#e1b9cf"/><stop offset=".477" stop-color="#e1aec8"/><stop offset=".763" stop-color="#df9cbd"/><stop offset="1" stop-color="#de89b3"/><stop offset="1" stop-color="#e2bdd1"/></radialGradient><path d="M1221.7 1424.3c-34.2 4.9-62-5.1-64.7-23.3-2.6-18.2 21.2-35.7 55.4-40.7 34.2-4.9 62 5.1 64.7 23.3 2.6 18.3-21.2 35.8-55.4 40.7zm-7.3-50.2c-28.2 4.1-44.7 17.5-43.6 24.9 1.1 7.4 20.6 15.6 48.9 11.5 28.2-4.1 44.7-17.5 43.6-24.9-1.1-7.4-20.6-15.6-48.9-11.5z" fill="url(#as)"/></g></g></g><g transform="translate(-66.613 -80.77) scale(.08432)"><radialGradient gradientUnits="userSpaceOnUse" gradientTransform="matrix(1 0 0 .542 0 -3322.942)" r="174.157" cy="8474.865" cx="1265.779" id="at"><stop offset="0" stop-color="#e2bdd1"/><stop offset=".215" stop-color="#e1b9cf"/><stop offset=".477" stop-color="#e1aec8"/><stop offset=".763" stop-color="#df9cbd"/><stop offset="1" stop-color="#de89b3"/><stop offset="1" stop-color="#e2bdd1"/></radialGradient><path d="M1263.3 1258.8c75.1 0 137.7 25 152.7 58.4 3.8-6.4 5.9-13.1 5.9-20.1 0-40.8-69.9-73.8-156.2-73.8-86.3 0-156.2 33-156.2 73.8 0 5.3 1.2 10.4 3.4 15.4 18.7-31 78.9-53.7 150.4-53.7z" fill="url(#at)"/><defs><path d="M1440.9 1302.1c.1-.6.1-1.2.2-1.7.1-1.1.2-2.2.2-3.3 0-45.8-78.5-82.9-175.4-82.9s-175.4 37.1-175.4 82.9c0 1.1.1 2.2.2 3.3.1.7.1 1.3.2 2v6.6c.6 10 2.1 22.1 5.1 35.1 8.2 15.1 25.2 28.6 48.3 39.1 14.8 6.8 32.2 12.3 51.4 16.3 21.5 4.5 45.3 7 70.4 7 25 0 48.8-2.5 70.4-7 19.1-4 36.5-9.5 51.3-16.3 23.1-10.5 40.1-24 48.3-39.2 3.6-16.1 5-30.8 5.4-41.9h-.6zm-175.1 59.6c-75.6 0-136.8-28.9-136.8-64.6 0-35.7 61.3-64.6 136.8-64.6 75.6 0 136.8 28.9 136.8 64.6 0 35.7-61.3 64.6-136.8 64.6z" id="au"/></defs><clipPath id="av"><use height="100%" width="100%" overflow="visible" xlink:href="#au"/></clipPath><g clip-path="url(#av)"><linearGradient y2="1324.551" x2="1441.218" y1="1324.551" x1="1090.341" gradientUnits="userSpaceOnUse" id="aw"><stop offset="0" stop-color="#9d1b3c"/><stop offset="1" stop-color="#d81f48"/></linearGradient><path d="M1435.3 1302.1c-7.8-13.8-23-26.3-43.5-36.2 6.4 9.6 10 20.2 10 31.2 0 19.1-2.6 53-14.4 86.1 23.1-10.5 40.1-24 48.3-39.2 3.6-16.1 5-30.8 5.4-41.9z" fill="url(#aw)"/><linearGradient y2="1324.546" x2="1441.218" y1="1324.546" x1="1090.341" gradientUnits="userSpaceOnUse" id="ax"><stop offset="0" stop-color="#9d1b3c"/><stop offset="1" stop-color="#d81f48"/></linearGradient><path d="M1139.7 1265.9c-20.5 10-35.7 22.4-43.5 36.2h-5.5v6.9c.6 10 2.1 22.1 5.1 35.1 8.2 15.1 25.2 28.6 48.3 39.1-11.8-33.1-14.4-67-14.4-86.1 0-11 3.6-21.6 10-31.2z" fill="url(#ax)"/><linearGradient y2="1323.077" x2="1441.218" y1="1323.077" x1="1090.341" gradientUnits="userSpaceOnUse" id="ay"><stop offset="0" stop-color="#9d1b3c"/><stop offset="1" stop-color="#d81f48"/></linearGradient><path d="M1391.9 1265.9c-16.8-8.2-37.2-14.8-60.1-19.2 10.8 14 17.2 31.4 17.2 50.4 0 22.2-2.2 64.6-12.8 102.4 19.1-4 36.5-9.5 51.3-16.3 11.8-33.1 14.4-67 14.4-86.1 0-11-3.6-21.6-10-31.2z" fill="url(#ay)"/><linearGradient y2="1323.077" x2="1401.868" y1="1323.077" x1="1129.691" gradientUnits="userSpaceOnUse" id="az"><stop offset="0" stop-color="#bc2149"/><stop offset="1" stop-color="#ee2b54"/></linearGradient><path d="M1391.9 1265.9c-16.8-8.2-37.2-14.8-60.1-19.2 10.8 14 17.2 31.4 17.2 50.4 0 22.2-2.2 64.6-12.8 102.4 19.1-4 36.5-9.5 51.3-16.3 11.8-33.1 14.4-67 14.4-86.1 0-11-3.6-21.6-10-31.2z" fill="url(#az)"/><linearGradient y2="1323.079" x2="1441.218" y1="1323.079" x1="1090.341" gradientUnits="userSpaceOnUse" id="aA"><stop offset="0" stop-color="#9d1b3c"/><stop offset="1" stop-color="#d81f48"/></linearGradient><path d="M1199.7 1246.7c-22.8 4.4-43.2 11-60.1 19.2-6.4 9.6-10 20.2-10 31.2 0 19.1 2.6 53 14.4 86.1 14.8 6.8 32.2 12.3 51.4 16.3-10.7-37.7-12.8-80.1-12.8-102.4 0-19 6.4-36.4 17.1-50.4z" fill="url(#aA)"/><linearGradient y2="1323.079" x2="1401.868" y1="1323.079" x1="1129.691" gradientUnits="userSpaceOnUse" id="aB"><stop offset="0" stop-color="#bc2149"/><stop offset="1" stop-color="#ee2b54"/></linearGradient><path d="M1199.7 1246.7c-22.8 4.4-43.2 11-60.1 19.2-6.4 9.6-10 20.2-10 31.2 0 19.1 2.6 53 14.4 86.1 14.8 6.8 32.2 12.3 51.4 16.3-10.7-37.7-12.8-80.1-12.8-102.4 0-19 6.4-36.4 17.1-50.4z" fill="url(#aB)"/><linearGradient y2="1323.514" x2="1441.218" y1="1323.514" x1="1090.341" gradientUnits="userSpaceOnUse" id="aC"><stop offset="0" stop-color="#9d1b3c"/><stop offset="1" stop-color="#d81f48"/></linearGradient><path d="M1331.8 1246.7c-20.4-3.9-42.7-6.1-66-6.1-23.4 0-45.7 2.2-66 6.1-10.8 14-17.2 31.4-17.2 50.4 0 22.2 2.2 64.6 12.8 102.4 21.5 4.5 45.3 7 70.4 7 25 0 48.8-2.5 70.4-7 10.7-37.7 12.8-80.1 12.8-102.4 0-19-6.4-36.4-17.2-50.4z" fill="url(#aC)"/><linearGradient y2="1323.514" x2="1401.867" y1="1323.514" x1="1129.691" gradientUnits="userSpaceOnUse" id="aD"><stop offset="0" stop-color="#bc2149"/><stop offset="1" stop-color="#ee2b54"/></linearGradient><path d="M1331.8 1246.7c-20.4-3.9-42.7-6.1-66-6.1-23.4 0-45.7 2.2-66 6.1-10.8 14-17.2 31.4-17.2 50.4 0 22.2 2.2 64.6 12.8 102.4 21.5 4.5 45.3 7 70.4 7 25 0 48.8-2.5 70.4-7 10.7-37.7 12.8-80.1 12.8-102.4 0-19-6.4-36.4-17.2-50.4z" fill="url(#aD)"/><linearGradient y2="1323.514" x2="1348.969" y1="1323.514" x1="1182.589" gradientUnits="userSpaceOnUse" id="aE"><stop offset="0" stop-color="#9d1b3c"/><stop offset="1" stop-color="#d81f48"/></linearGradient><path d="M1331.8 1246.7c-20.4-3.9-42.7-6.1-66-6.1-23.4 0-45.7 2.2-66 6.1-10.8 14-17.2 31.4-17.2 50.4 0 22.2 2.2 64.6 12.8 102.4 21.5 4.5 45.3 7 70.4 7 25 0 48.8-2.5 70.4-7 10.7-37.7 12.8-80.1 12.8-102.4 0-19-6.4-36.4-17.2-50.4z" fill="url(#aE)"/><linearGradient y2="1297.095" x2="1441.218" y1="1297.095" x1="1090.341" gradientUnits="userSpaceOnUse" id="aF"><stop offset="0" stop-color="#9d1b3c"/><stop offset="1" stop-color="#d81f48"/></linearGradient><path d="M1265.8 1214.2c-96.9 0-175.4 37.1-175.4 82.9 0 45.8 78.5 82.9 175.4 82.9s175.4-37.1 175.4-82.9c0-45.8-78.5-82.9-175.4-82.9zm0 147.5c-75.6 0-136.8-28.9-136.8-64.6 0-35.7 61.3-64.6 136.8-64.6 75.6 0 136.8 28.9 136.8 64.6 0 35.7-61.3 64.6-136.8 64.6z" fill="url(#aF)"/><radialGradient gradientUnits="userSpaceOnUse" gradientTransform="matrix(1 0 0 .542 0 -3322.942)" r="184.464" cy="8524.385" cx="1265.779" id="aG"><stop offset="0" stop-color="#e2bdd1"/><stop offset=".215" stop-color="#e1b9cf"/><stop offset=".477" stop-color="#e1aec8"/><stop offset=".763" stop-color="#df9cbd"/><stop offset="1" stop-color="#de89b3"/><stop offset="1" stop-color="#e2bdd1"/></radialGradient><ellipse ry="73.8" rx="156.2" cy="1297.1" cx="1265.8" fill="url(#aG)"/><g><radialGradient gradientUnits="userSpaceOnUse" gradientTransform="matrix(1 0 0 .542 0 -3322.942)" r="98.843" cy="8524.384" cx="1265.78" id="aH"><stop offset="0" stop-color="#e2bdd1"/><stop offset=".215" stop-color="#e1b9cf"/><stop offset=".477" stop-color="#e1aec8"/><stop offset=".763" stop-color="#df9cbd"/><stop offset="1" stop-color="#de89b3"/><stop offset="1" stop-color="#e2bdd1"/></radialGradient><path d="M1265.8 1359.3c-70.2 0-125.2-27.3-125.2-62.2 0-34.9 55-62.2 125.2-62.2s125.2 27.3 125.2 62.2c0 34.8-55 62.2-125.2 62.2zm0-113c-61.7 0-113.9 23.3-113.9 50.8 0 27.5 52.1 50.8 113.9 50.8 61.7 0 113.9-23.3 113.9-50.8 0-27.5-52.2-50.8-113.9-50.8z" fill="url(#aH)"/></g><g><radialGradient gradientUnits="userSpaceOnUse" gradientTransform="matrix(1 0 0 .542 0 -3322.942)" r="66.184" cy="8524.384" cx="1265.78" id="aI"><stop offset="0" stop-color="#e2bdd1"/><stop offset=".215" stop-color="#e1b9cf"/><stop offset=".477" stop-color="#e1aec8"/><stop offset=".763" stop-color="#df9cbd"/><stop offset="1" stop-color="#de89b3"/><stop offset="1" stop-color="#e2bdd1"/></radialGradient><path d="M1265.8 1339.5c-46.8 0-83.4-18.6-83.4-42.4 0-23.8 36.6-42.4 83.4-42.4 46.8 0 83.4 18.6 83.4 42.4 0 23.8-36.6 42.4-83.4 42.4zm0-73.5c-42.5 0-72.1 16.4-72.1 31.1 0 14.7 29.6 31.1 72.1 31.1 42.5 0 72.1-16.4 72.1-31.1 0-14.7-29.6-31.1-72.1-31.1z" fill="url(#aI)"/></g><g><radialGradient gradientUnits="userSpaceOnUse" gradientTransform="matrix(1 0 0 .542 0 -3322.942)" r="39.566" cy="8524.384" cx="1265.779" id="aJ"><stop offset="0" stop-color="#e2bdd1"/><stop offset=".215" stop-color="#e1b9cf"/><stop offset=".477" stop-color="#e1aec8"/><stop offset=".763" stop-color="#df9cbd"/><stop offset="1" stop-color="#de89b3"/><stop offset="1" stop-color="#e2bdd1"/></radialGradient><path d="M1265.8 1323.4c-28.1 0-49.4-11.3-49.4-26.3s21.2-26.3 49.4-26.3c28.1 0 49.4 11.3 49.4 26.3s-21.3 26.3-49.4 26.3zm0-41.3c-23.2 0-38 8.9-38 15s14.8 15 38 15 38-8.9 38-15-14.8-15-38-15z" fill="url(#aJ)"/></g></g><g clip-path="url(#av)"><linearGradient y2="1324.551" x2="1441.218" y1="1324.551" x1="1090.341" gradientUnits="userSpaceOnUse" id="aK"><stop offset="0" stop-color="#9d1b3c"/><stop offset="1" stop-color="#d81f48"/></linearGradient><path d="M1435.3 1302.1c-7.8-13.8-23-26.3-43.5-36.2 6.4 9.6 10 20.2 10 31.2 0 19.1-2.6 53-14.4 86.1 23.1-10.5 40.1-24 48.3-39.2 3.6-16.1 5-30.8 5.4-41.9z" fill="url(#aK)"/><linearGradient y2="1324.546" x2="1441.218" y1="1324.546" x1="1090.341" gradientUnits="userSpaceOnUse" id="aL"><stop offset="0" stop-color="#9d1b3c"/><stop offset="1" stop-color="#d81f48"/></linearGradient><path d="M1139.7 1265.9c-20.5 10-35.7 22.4-43.5 36.2h-5.5v6.9c.6 10 2.1 22.1 5.1 35.1 8.2 15.1 25.2 28.6 48.3 39.1-11.8-33.1-14.4-67-14.4-86.1 0-11 3.6-21.6 10-31.2z" fill="url(#aL)"/><linearGradient y2="1323.077" x2="1441.218" y1="1323.077" x1="1090.341" gradientUnits="userSpaceOnUse" id="aM"><stop offset="0" stop-color="#9d1b3c"/><stop offset="1" stop-color="#d81f48"/></linearGradient><path d="M1391.9 1265.9c-16.8-8.2-37.2-14.8-60.1-19.2 10.8 14 17.2 31.4 17.2 50.4 0 22.2-2.2 64.6-12.8 102.4 19.1-4 36.5-9.5 51.3-16.3 11.8-33.1 14.4-67 14.4-86.1 0-11-3.6-21.6-10-31.2z" fill="url(#aM)"/><linearGradient y2="1323.077" x2="1401.868" y1="1323.077" x1="1129.691" gradientUnits="userSpaceOnUse" id="aN"><stop offset="0" stop-color="#bc2149"/><stop offset="1" stop-color="#ee2b54"/></linearGradient><path d="M1391.9 1265.9c-16.8-8.2-37.2-14.8-60.1-19.2 10.8 14 17.2 31.4 17.2 50.4 0 22.2-2.2 64.6-12.8 102.4 19.1-4 36.5-9.5 51.3-16.3 11.8-33.1 14.4-67 14.4-86.1 0-11-3.6-21.6-10-31.2z" fill="url(#aN)"/><linearGradient y2="1323.079" x2="1441.218" y1="1323.079" x1="1090.341" gradientUnits="userSpaceOnUse" id="aO"><stop offset="0" stop-color="#9d1b3c"/><stop offset="1" stop-color="#d81f48"/></linearGradient><path d="M1199.7 1246.7c-22.8 4.4-43.2 11-60.1 19.2-6.4 9.6-10 20.2-10 31.2 0 19.1 2.6 53 14.4 86.1 14.8 6.8 32.2 12.3 51.4 16.3-10.7-37.7-12.8-80.1-12.8-102.4 0-19 6.4-36.4 17.1-50.4z" fill="url(#aO)"/><linearGradient y2="1323.079" x2="1401.868" y1="1323.079" x1="1129.691" gradientUnits="userSpaceOnUse" id="aP"><stop offset="0" stop-color="#bc2149"/><stop offset="1" stop-color="#ee2b54"/></linearGradient><path d="M1199.7 1246.7c-22.8 4.4-43.2 11-60.1 19.2-6.4 9.6-10 20.2-10 31.2 0 19.1 2.6 53 14.4 86.1 14.8 6.8 32.2 12.3 51.4 16.3-10.7-37.7-12.8-80.1-12.8-102.4 0-19 6.4-36.4 17.1-50.4z" fill="url(#aP)"/><linearGradient y2="1323.514" x2="1441.218" y1="1323.514" x1="1090.341" gradientUnits="userSpaceOnUse" id="aQ"><stop offset="0" stop-color="#9d1b3c"/><stop offset="1" stop-color="#d81f48"/></linearGradient><path d="M1331.8 1246.7c-20.4-3.9-42.7-6.1-66-6.1-23.4 0-45.7 2.2-66 6.1-10.8 14-17.2 31.4-17.2 50.4 0 22.2 2.2 64.6 12.8 102.4 21.5 4.5 45.3 7 70.4 7 25 0 48.8-2.5 70.4-7 10.7-37.7 12.8-80.1 12.8-102.4 0-19-6.4-36.4-17.2-50.4z" fill="url(#aQ)"/><linearGradient y2="1323.514" x2="1401.867" y1="1323.514" x1="1129.691" gradientUnits="userSpaceOnUse" id="aR"><stop offset="0" stop-color="#bc2149"/><stop offset="1" stop-color="#ee2b54"/></linearGradient><path d="M1331.8 1246.7c-20.4-3.9-42.7-6.1-66-6.1-23.4 0-45.7 2.2-66 6.1-10.8 14-17.2 31.4-17.2 50.4 0 22.2 2.2 64.6 12.8 102.4 21.5 4.5 45.3 7 70.4 7 25 0 48.8-2.5 70.4-7 10.7-37.7 12.8-80.1 12.8-102.4 0-19-6.4-36.4-17.2-50.4z" fill="url(#aR)"/><linearGradient y2="1323.514" x2="1348.969" y1="1323.514" x1="1182.589" gradientUnits="userSpaceOnUse" id="aS"><stop offset="0" stop-color="#9d1b3c"/><stop offset="1" stop-color="#d81f48"/></linearGradient><path d="M1331.8 1246.7c-20.4-3.9-42.7-6.1-66-6.1-23.4 0-45.7 2.2-66 6.1-10.8 14-17.2 31.4-17.2 50.4 0 22.2 2.2 64.6 12.8 102.4 21.5 4.5 45.3 7 70.4 7 25 0 48.8-2.5 70.4-7 10.7-37.7 12.8-80.1 12.8-102.4 0-19-6.4-36.4-17.2-50.4z" fill="url(#aS)"/><linearGradient y2="1297.095" x2="1441.218" y1="1297.095" x1="1090.341" gradientUnits="userSpaceOnUse" id="aT"><stop offset="0" stop-color="#9d1b3c"/><stop offset="1" stop-color="#d81f48"/></linearGradient><path d="M1265.8 1214.2c-96.9 0-175.4 37.1-175.4 82.9 0 45.8 78.5 82.9 175.4 82.9s175.4-37.1 175.4-82.9c0-45.8-78.5-82.9-175.4-82.9zm0 147.5c-75.6 0-136.8-28.9-136.8-64.6 0-35.7 61.3-64.6 136.8-64.6 75.6 0 136.8 28.9 136.8 64.6 0 35.7-61.3 64.6-136.8 64.6z" fill="url(#aT)"/><radialGradient gradientUnits="userSpaceOnUse" gradientTransform="matrix(1 0 0 .542 0 -3322.942)" r="184.464" cy="8524.385" cx="1265.779" id="aU"><stop offset="0" stop-color="#e2bdd1"/><stop offset=".215" stop-color="#e1b9cf"/><stop offset=".477" stop-color="#e1aec8"/><stop offset=".763" stop-color="#df9cbd"/><stop offset="1" stop-color="#de89b3"/><stop offset="1" stop-color="#e2bdd1"/></radialGradient><ellipse ry="73.8" rx="156.2" cy="1297.1" cx="1265.8" fill="url(#aU)"/><g><radialGradient gradientUnits="userSpaceOnUse" gradientTransform="matrix(1 0 0 .542 0 -3322.942)" r="98.843" cy="8524.384" cx="1265.78" id="aV"><stop offset="0" stop-color="#e2bdd1"/><stop offset=".215" stop-color="#e1b9cf"/><stop offset=".477" stop-color="#e1aec8"/><stop offset=".763" stop-color="#df9cbd"/><stop offset="1" stop-color="#de89b3"/><stop offset="1" stop-color="#e2bdd1"/></radialGradient><path d="M1265.8 1359.3c-70.2 0-125.2-27.3-125.2-62.2 0-34.9 55-62.2 125.2-62.2s125.2 27.3 125.2 62.2c0 34.8-55 62.2-125.2 62.2zm0-113c-61.7 0-113.9 23.3-113.9 50.8 0 27.5 52.1 50.8 113.9 50.8 61.7 0 113.9-23.3 113.9-50.8 0-27.5-52.2-50.8-113.9-50.8z" fill="url(#aV)"/></g><g><radialGradient gradientUnits="userSpaceOnUse" gradientTransform="matrix(1 0 0 .542 0 -3322.942)" r="66.184" cy="8524.384" cx="1265.78" id="aW"><stop offset="0" stop-color="#e2bdd1"/><stop offset=".215" stop-color="#e1b9cf"/><stop offset=".477" stop-color="#e1aec8"/><stop offset=".763" stop-color="#df9cbd"/><stop offset="1" stop-color="#de89b3"/><stop offset="1" stop-color="#e2bdd1"/></radialGradient><path d="M1265.8 1339.5c-46.8 0-83.4-18.6-83.4-42.4 0-23.8 36.6-42.4 83.4-42.4 46.8 0 83.4 18.6 83.4 42.4 0 23.8-36.6 42.4-83.4 42.4zm0-73.5c-42.5 0-72.1 16.4-72.1 31.1 0 14.7 29.6 31.1 72.1 31.1 42.5 0 72.1-16.4 72.1-31.1 0-14.7-29.6-31.1-72.1-31.1z" fill="url(#aW)"/></g><g><radialGradient gradientUnits="userSpaceOnUse" gradientTransform="matrix(1 0 0 .542 0 -3322.942)" r="39.566" cy="8524.384" cx="1265.779" id="aX"><stop offset="0" stop-color="#e2bdd1"/><stop offset=".215" stop-color="#e1b9cf"/><stop offset=".477" stop-color="#e1aec8"/><stop offset=".763" stop-color="#df9cbd"/><stop offset="1" stop-color="#de89b3"/><stop offset="1" stop-color="#e2bdd1"/></radialGradient><path d="M1265.8 1323.4c-28.1 0-49.4-11.3-49.4-26.3s21.2-26.3 49.4-26.3c28.1 0 49.4 11.3 49.4 26.3s-21.3 26.3-49.4 26.3zm0-41.3c-23.2 0-38 8.9-38 15s14.8 15 38 15 38-8.9 38-15-14.8-15-38-15z" fill="url(#aX)"/></g></g></g></svg>