<svg xmlns="http://www.w3.org/2000/svg" width="99.927" height="135.655" viewBox="0 0 26.439 35.892"><path d="M5.944 34.57c2.779 1.113 5.609 1.586 8.58 1.176 1.086-.15 2.14.034 3.188-.21 1.11-.26 2.204-.945 3.035-1.7.894-.812 1.497-1.992 2.045-3.062 1.378-2.681 1.893-6.37 1.308-9.346-.579-2.924-3.034-6.221-5.55-7.885-4.97-3.288-15.021-1.971-17.22 4.215-1.24 3.49-1.86 7.114-.76 10.735.862 2.833 2.554 4.946 5.374 6.076" fill="#d91f26"/><path d="M11.026 5.301c.438.982 1.035 1.883 1.483 2.862.359.786.787 2.123.367 2.949-.346-.115-.7-.298-1.027-.458a37.106 37.106 0 0 1-3.943-2.222A10.717 10.717 0 0 1 6.179 7.05a8.422 8.422 0 0 1-.755-.872c-.123-.162-.679-.788-.638-.986-.753 3.653 4.337 6.124 6.719 7.474-1.386-.065-1.814 2.22-2.323 3.143 1.612-.204 2.348-1.936 4.084-2.069-.014 1.375 1.368 2.048 1.732 3.31.442 1.54-.344 2.2-1.172 3.329 3.49-.497 1.922-5.514 1.699-7.06 2.302.839 4.215-.392 6.109-1.656.98-.654 3.607-3.647 4.805-1.267-.288-2.935-2.445-1.203-3.911-.263-1.848 1.186-3.621 1.224-5.73 1.436.408-.719.85-2.272 1.643-2.724.93-.528 2.37.225 3.206.632-1.988-3.502-5.117-1.208-6.985.8-.566-1.916-.935-3.53-2.124-5.245C11.416 3.415 10.65 1.896 10.064 0c-.145 1.94.149 3.48.962 5.301" fill="#509d41"/></svg>