<svg xmlns="http://www.w3.org/2000/svg" width="41.34" height="33.6" viewBox="0 0 10.938 8.89"><g fill-rule="evenodd"><path d="M6.374 2.28c.265-.323.645-.604 1.038-.646l.108-.011-.004.108a2.39 2.39 0 0 1-.09.59.464.464 0 0 1 .411-.008l.087.037-.036.087c-.133.321-.205.598-.423.837h.129l.119-.004-.025.117c-.143.67-.533 1.127-1.056 1.537-.48.376-.701.602-.777 1.22-.054.452-.033.94.007 1.4.117-.125.23-.25.317-.406.275-.489.394-1.068.6-1.59.158-.4.454-.782.699-1.135l.066-.096.08.087a.86.86 0 0 1 .227.442c.442-.497.975-.933 1.608-1.144l.135-.045-.012.143a1.136 1.136 0 0 1-.117.433c.388-.19.965-.47 1.39-.336l.083.027v.089c-.004.464-.465.951-.76 1.273l-.003.004c.146-.022.289-.028.453-.012l.163.015-.095.134c-.269.38-.624.683-1.017.926.446.066.919.267 1.185.61l.065.086-.092.054a2.27 2.27 0 0 1-.574.246.528.528 0 0 1 .258.382l.019.096-.097.015c-.362.055-.642.14-.974.068.024.043.052.084.082.13l.066.101-.112.04c-.674.243-1.302.122-1.944-.131-.165-.065-.326-.136-.49-.204a1.73 1.73 0 0 0-.34-.11.863.863 0 0 0-.07-.01c-.303-.031-.557.052-.754.279.073.667.03.063.09.731l.006.07-.064.026a.562.562 0 0 1-.418.03l-.06-.018-.006-.064.064-.755c-.224-.195-.485-.241-.777-.172a.71.71 0 0 0-.068.02c-.114.036-.22.094-.324.154-.153.088-.303.18-.458.266-.603.336-1.21.539-1.91.387l-.116-.025.052-.108c.024-.05.045-.095.064-.14-.32.115-.608.067-.975.06L.91 8.465l.005-.098a.528.528 0 0 1 .206-.412 2.292 2.292 0 0 1-.602-.168l-.098-.042.053-.093c.219-.376.66-.638 1.094-.762a3.434 3.434 0 0 1-1.13-.783l-.111-.12.158-.037c.162-.037.304-.05.452-.048-.002 0-.003-.002-.005-.003-.334-.28-.856-.702-.92-1.162L0 4.649l.08-.038c.402-.189 1.01.014 1.42.15a1.215 1.215 0 0 1-.078-.132 1.13 1.13 0 0 1-.094-.282l-.032-.14.14.026c.656.126 1.241.489 1.745.923a.852.852 0 0 1 .167-.469l.067-.096.08.087c.288.316.632.656.841 1.032.273.49.468 1.048.805 1.497.101.135.223.24.349.344-.074-.944-.273-1.988-1.17-2.472-.586-.315-1.025-.745-1.253-1.385l-.04-.113.118-.013.128-.016c-.248-.208-.356-.473-.53-.774l-.048-.082.082-.047a.464.464 0 0 1 .408-.047 2.377 2.377 0 0 1-.167-.573L3 1.922l.108-.003c.378-.01.771.199 1.07.461a3.498 3.498 0 0 1 .042-1.269l.034-.146.116.095a1.045 1.045 0 0 1 .262.297c.045-.412.115-1.02.423-1.297L5.122 0l.076.05c.351.242.5.866.599 1.268A1.81 1.81 0 0 1 6.001.96l.101-.14.062.162c.157.414.214.856.21 1.297" fill="#498130"/><path d="M6.076 1.007c-.089.121-.184.26-.296.62C5.628 1.036 5.5.37 5.145.129l-.014-.01-.014.012c-.32.285-.36.963-.431 1.57-.13-.379-.264-.486-.375-.576-.115.483-.096.996.005 1.51-.328-.377-.805-.646-1.206-.636.083.492.219.62.285.84-.208-.21-.391-.233-.573-.129.232.397.32.65.664.85-.058.025-.105.05-.333.074.234.653.693 1.048 1.208 1.323.935.5 1.158 1.546 1.233 2.745-.18-.154-.374-.288-.531-.496-.34-.447-.518-.972-.812-1.495-.193-.344-.528-.679-.828-1.006-.134.19-.199.4-.112.654-.563-.522-1.197-.933-1.894-1.065.034.15.073.33.37.623-.604-.193-1.257-.448-1.67-.255L.1 4.67l.003.02c.064.457.63.874 1.117 1.284-.39-.047-.563-.012-.717.023.369.395.85.672 1.381.869-.545.074-1.099.376-1.332.775.475.2.664.145.893.208-.302.074-.427.232-.44.459.478.008.749.069 1.12-.137-.012.067-.018.125-.127.35.703.15 1.299-.075 1.845-.376.418-.23.617-.384.873-.445.365-.088.659 0 .89.217l-.066.766a.474.474 0 0 0 .355-.028c-.053-.6-.013-.038-.09-.744.202-.25.483-.38.86-.341.263.027.48.153.925.327.581.226 1.202.37 1.878.128-.138-.208-.151-.264-.172-.33.395.156.656.06 1.129-.012-.043-.223-.188-.363-.497-.396.218-.093.413-.064.858-.324-.285-.365-.873-.592-1.423-.593.5-.265.94-.603 1.254-1.043-.157-.015-.333-.026-.713.07.428-.469.934-.958.937-1.42v-.019l-.018-.006c-.435-.137-1.048.203-1.62.474.254-.331.27-.514.283-.667-.674.223-1.247.714-1.737 1.306.053-.263-.04-.463-.197-.634-.255.364-.543.74-.688 1.107-.222.557-.33 1.1-.607 1.589-.132.232-.311.393-.474.574-.056-.58-.082-1.144-.024-1.617.074-.598.263-.846.813-1.274.46-.359.876-.792 1.022-1.47-.229.005-.279-.013-.34-.03.315-.243.368-.506.546-.93-.193-.08-.372-.033-.55.202.036-.226.154-.37.171-.869-.421.045-.885.41-1.156.86.041-.547-.004-1.081-.19-1.565" fill="#65b931"/><path d="M5.128 1.244c-.214.888-.369 2.043.066 3-.479-.282-1.074-.787-1.553-1.069.938 1.051 1.3 1.401 1.86 2.308.213-.886.564-1.722 1.39-2.472-.524.305-1.041.609-1.432 1.22-.208-1.064-.367-1.919-.33-2.987m4.899 3.365c-.897.17-2.078 1.225-2.772 2.015.06-.552.23-1.208.29-1.76-.572 1.288-.37 1.905-1.166 2.45.895-.171 2.54-.306 3.536-.28-.494-.351-1.33-.388-2.322-.126.885-.628 1.445-1.893 2.434-2.299m-9.045.599c.911.051 2.222.94 3.013 1.632-.132-.54-.387-1.167-.52-1.706.737 1.2.618 1.839 1.48 2.274-.91-.052-2.558.033-3.542.19.443-.414 1.268-.56 2.285-.432C2.739 6.66 2.017 5.48.983 5.208" fill="#59a133"/></g></svg>