<svg xmlns="http://www.w3.org/2000/svg" width="20.665" height="27.345" viewBox="0 0 5.468 7.235"><g fill-rule="evenodd"><path d="M1.016 1.04L.522 6.346l-.5.659.154.136c.21.199.365.047.592-.133l4.376-3.453c.336-.267.358-.137.298-.56l-.036-.244-.29-.05c-1.037-1.627-2.21-1.924-4.1-1.66" fill="#fac009"/><path d="M3.906.717c.899.372 1.301.991 1.483 1.945l.017.09L.28 6.813c-.32.254-.296.293-.257-.123l.6-6.44.095-.03c.763-.241 2.84-.502 3.19.496" fill="#fac009"/><path d="M.763.363L.17 6.71l5.07-4.02c-.178-.934-.567-1.513-1.457-1.86C3.552-.107 1.527.124.763.364" fill="#f9f13a"/><path d="M.402 6.323C.1 6.603.364 5.916.39 5.738c.024-.178-.015-.354.061-.463.075-.11.182-.134.32-.089.137.046.342.244.421.334.079.09.187.03.027.177s-.514.346-.816.626m.517-4.94l-.267 2.31c-.029.256-.05.46-.017.714.05.385.052.254.21-.276.246-.829.396-.647.15.027-.221.645.009.593.246.208 1.423-1.54-1.117 1.711.531-.23l1.432-2.103c.405-.594.233-1.026-.51-.81-.578.169-.351.836-1.11 1.805.163-1.728 1.437-1.875-.04-2.26C.919.798.99.76.919 1.384M2.707 3.43c.443-.568.652-1.147 1.157-1.309.755-.241.502.111.163.464-.702.733-.329.397.29.077.52-.27.397-.136.207.184-.388.653-1.572 1.418-2.469 2.019-.263.176-.5.337-.687.478.026-.753.85-1.355 1.339-1.913" fill="#fac009"/></g></svg>