<svg xmlns="http://www.w3.org/2000/svg" width="600" height="600" viewBox="0 0 158.75 158.75"><g fill-rule="evenodd"><path d="M98.065 4.363c9.54 2.349 18.582 6.355 26.666 11.973a78.705 78.705 0 0 1 19.45 19.376c10.2 14.523 15.479 32.432 14.214 50.346A72.278 72.278 0 0 1 156.3 98.99a81.265 81.265 0 0 1-6.402 16.83c-6.49 12.654-16.214 23.609-28.058 31.336-18.712 12.209-40.571 15.193-61.816 9.257-17.706-4.948-33.811-14.564-45.153-29.35C5.036 114.239-.359 98.559-.364 82.233A74.211 74.211 0 0 1 3.09 59.877C9.03 41.102 21.654 24.582 38.15 14.08 56.324 2.514 77.378-.73 98.065 4.363" fill="#da671b"/><path d="M98.009 2.214c9.54 2.349 18.582 6.356 26.665 11.974a78.67 78.67 0 0 1 19.453 19.376c10.198 14.523 15.476 32.432 14.213 50.346a72.375 72.375 0 0 1-2.095 12.932 81.265 81.265 0 0 1-6.404 16.828c-6.487 12.655-16.212 23.61-28.056 31.338-18.712 12.208-40.571 15.193-61.815 9.256-17.706-4.948-33.812-14.563-45.153-29.349C4.98 112.09-.417 96.411-.418 80.084A74.18 74.18 0 0 1 3.035 57.73c5.94-18.775 18.564-35.296 35.06-45.797C56.269.365 77.322-2.88 98.009 2.213" fill="#da671b"/><path d="M97.579 2.995c9.427 2.32 18.338 6.268 26.326 11.82a77.532 77.532 0 0 1 19.186 19.112c10.053 14.313 15.266 31.97 14.02 49.628a71.329 71.329 0 0 1-2.06 12.717c-4.98 19.37-17.37 36.673-34.002 47.525-18.446 12.035-39.973 14.969-60.926 9.113-17.52-4.895-33.419-14.359-44.642-28.99C5.797 111.294.486 95.865.483 79.79a73.002 73.002 0 0 1 3.396-21.997C9.743 39.259 22.212 22.939 38.5 12.572 56.423 1.163 77.166-2.03 97.58 2.995" fill="#fab60b"/><path d="M97.817 4.27C77.564-.718 56.985 2.443 39.191 13.768 23.02 24.063 10.63 40.276 4.807 58.683A72.32 72.32 0 0 0 1.44 80.485c0 15.932 5.27 31.226 14.868 43.74 11.141 14.525 26.983 23.939 44.372 28.799 20.785 5.808 42.133 2.91 60.44-9.035a78.682 78.682 0 0 0 14.191-11.887 81.64 81.64 0 0 0 5.745-6.791c6.399-8.462 11.172-18.196 13.82-28.5a70.417 70.417 0 0 0 2.039-12.6c1.236-17.516-3.94-35.035-13.91-49.234a77.06 77.06 0 0 0-19.047-18.971c-7.926-5.51-16.792-9.435-26.142-11.737" fill="#f1ac1c"/><path d="M97.964 5.516C77.889.574 57.504 3.7 39.866 14.927c-16.039 10.21-28.33 26.296-34.104 44.551A71.603 71.603 0 0 0 2.43 81.054c.003 15.772 5.22 30.91 14.72 43.298 11.056 14.416 26.792 23.749 44.05 28.572 20.595 5.755 41.735 2.893 59.878-8.945a77.986 77.986 0 0 0 14.064-11.784c9.232-9.775 16.039-21.912 19.4-34.988a69.94 69.94 0 0 0 2.018-12.465c1.225-17.354-3.909-34.715-13.789-48.781a76.34 76.34 0 0 0-18.88-18.806c-7.859-5.463-16.651-9.354-25.926-11.639" fill="#ea9e28"/><path d="M97.282 6.522c-19.66-4.84-39.613-1.783-56.888 9.21C24.676 25.738 12.631 41.508 6.971 59.395a70.077 70.077 0 0 0-3.258 21.099c.003 15.425 5.105 30.228 14.396 42.344 10.845 14.138 26.284 23.279 43.208 28.007 20.165 5.636 40.847 2.841 58.611-8.75a76.405 76.405 0 0 0 13.775-11.54c9.043-9.574 15.713-21.464 19.006-34.274a68.384 68.384 0 0 0 1.972-12.184c1.198-16.987-3.831-33.983-13.502-47.752a74.755 74.755 0 0 0-18.492-18.418c-7.703-5.353-16.318-9.166-25.405-11.404" fill="#e49234"/><path d="M96.086 10.273c8.622 2.122 19.119 3.84 26.503 8.972 6.868 4.773 10.11 12.434 14.786 19.093 4.65 6.62 11.304 12.41 13.522 20.49 1.239 4.516.898 9.601.38 14.225-.386 3.443-.936 6.89-1.18 10.342a64.766 64.766 0 0 1-1.872 11.567c-2.198 8.549-3.326 17.87-8.543 25.247-5.388 7.62-14.643 12.87-22.308 17.872-7.943 5.182-15.83 11.628-25.439 13.014-9.548 1.379-20.707-2.169-29.881-4.733-.465-.132-.991-.195-1.47-.25-.747-.083-1.501-.14-2.249-.198-2.01-.156-4.007-.315-6.003-.597-4.896-.692-9.823-2.085-13.822-5.115-3.524-2.67-6.627-5.335-9.225-8.958-1.098-1.531-2.092-3.144-3.122-4.722a103.314 103.314 0 0 0-4.557-6.444c-5.221-6.808-11.595-14.221-13.868-22.69-2.552-9.505 1.984-26.025 4.954-35.412.498-1.578.838-3.22 1.13-4.846.323-1.799.585-3.61.877-5.413.696-4.3 1.608-9.23 4.096-12.887 5.814-8.547 15.13-14.43 23.664-19.862 1.107-.703 2.15-1.56 3.143-2.424 1.141-.994 2.245-2.033 3.359-3.057 2.47-2.271 5.56-5.086 8.754-6.169 12.628-4.283 26.022-.086 38.371 2.955" fill="#cf5b1e"/><path d="M95.664 10.733c8.45 2.08 19.078 3.862 26.236 8.84 6.683 4.643 9.867 12.202 14.564 18.89 4.646 6.617 11.27 12.415 13.41 20.214 2.01 7.326-.303 16.608-.842 24.275a63.788 63.788 0 0 1-1.848 11.402c-2.196 8.545-3.32 17.784-8.396 24.965-5.238 7.407-14.515 12.698-22.086 17.637-8.299 5.417-15.799 11.556-25.078 12.896-9.204 1.328-20.185-2.11-29.54-4.724-3.434-.962-15.244.077-23.261-5.995-10.093-7.647-8.897-9.748-16.757-19.995-5.221-6.808-11.524-14.17-13.728-22.378-2.477-9.231 2.115-25.9 4.96-34.894 2.2-6.95 1.891-16.925 5.98-22.935C24.961 30.573 34.206 24.725 42.7 19.32c4.75-3.025 9.949-9.845 15.068-11.582 12.197-4.136 25.009-.178 37.896 2.995" fill="#9e1b20"/><path d="M95.51 11.637c-11.7-2.881-25.281-6.415-37.24-2.36-5.645 1.913-10.02 7.51-15.04 10.706-8.166 5.198-17.081 11.709-22.636 19.873-2.181 3.207-3.005 7.928-3.615 11.706-.58 3.578-1.953 8.04-3.049 11.5-2.756 8.715-6.405 24.461-4.047 33.249 2.138 7.96 8.104 15.744 13.034 22.17 5.532 7.213 9.409 13.682 16.89 19.348 7.362 5.577 16.258 4.815 24.13 7.016 8.704 2.433 18.454 4.687 27.485 3.383 1.78-.257 3.52-.71 5.218-1.318 6.833-2.442 13.639-6.865 19.712-10.826 7.266-4.743 16.043-10.52 21.132-17.72 4.886-6.91 6.554-16.22 8.626-24.277 1.798-6.997 1.7-14.64 2.505-21.81.47-4.207.837-9.043-.29-13.15a20.192 20.192 0 0 0-.904-2.57c-1.695-3.95-4.565-7.446-7.264-10.728-1.72-2.092-3.458-4.178-5.017-6.4-3.287-4.678-5.922-10.033-9.637-14.357-1.342-1.563-2.825-2.97-4.514-4.145-6.966-4.84-17.313-7.28-25.479-9.29" fill="#ea1c2a"/><path d="M63.889 143.008c11.174 2.75 22.938 5.392 34.273 1.548 2.788-.944 7.292-2.253 9.513-4.16 2.231-1.914 4.441-3.883 6.922-5.465 7.927-5.045 16.743-11.405 22.111-19.3 1.812-2.665 2.546-7.213 3.055-10.369.671-4.16 2.008-8.418 3.28-12.437 2.553-8.072 6.296-23.765 4.113-31.9-2.031-7.57-8.02-15.278-12.714-21.4-5.337-6.956-9.535-13.787-16.63-19.162-6.535-4.95-15.846-4.419-23.511-6.562-8.336-2.33-17.966-4.632-26.655-3.378a23.64 23.64 0 0 0-4.592 1.162c-6.786 2.427-13.402 6.785-19.44 10.725-6.996 4.564-15.76 10.254-20.648 17.168-4.616 6.53-5.301 16.249-7.272 23.913-1.8 7.004-2.642 14.415-3.449 21.6-.418 3.748-.826 8.321.176 11.976.2.721.45 1.427.747 2.114 1.57 3.656 4.379 7.022 6.882 10.064 1.838 2.235 3.686 4.461 5.353 6.834 3.3 4.7 5.959 10.141 9.68 14.474 1.155 1.347 2.44 2.575 3.894 3.586 6.713 4.667 17.028 7.028 24.912 8.97" fill="#f0b522"/><path d="M40.653 25.404c8.959-.095 13.07-7.643 20.515-8.852 1.559-.252 3.604.483 5.494.832l-.7-2.38c-.512-1.756-2.304-2.764-5.066-1.825-6.545 2.226-17.27 10.682-20.243 12.225zm76.635 32.274c-2.604 1.786-2.431 8.04-4.75 10.827-1.78 2.145-5.152 1.202-5.831 3.537-.515 1.77 3.368 2.955 4.85 3.385 4.395 1.278.716 7.595 5.365 8.303 2.905.443 2.801-6.251 6.219-6.446 1.42-.08 3.778-2.018 4.337-3.506 1.413-3.774-5.728-6.413-7.045-9.605-.376-.91-2.125-8.418-3.145-6.495zm-61.99-34.644c-10.415.717-3.464 4.773-.475 7.535 2.88 2.663 1.437 6.067.303 9.97-.972 3.343-.074 7.043 3.992 4.765 1.664-.933 1.068-2.022 2.008-3.37 1.551-2.22 3.058-1.472 3.984-4.655.532-1.832-1.666-2.238-1.912-4.043-1.746-12.766 1.045-10.818-7.9-10.202zm-28.333 19.55c-1.503 1.62-2.895 5.517-1.276 7.536 3.548 4.416 8.02 3.899 9.375-.763 1.07-3.683 9.971-.07 10.858-3.122 1.29-4.435-4.251-3.431-5.821-6.343-1.744-3.236 2.018-7.312.825-9.525-3.05-5.661-12.584 10.735-13.96 12.217zm-7.38 26.572c-2.182 5.92-3.448 10.99-2.932 17.169.252 3.007-1.112 7.114.013 10.583 1.307 4.03 2.384 4.417 5.435 7.277 3.492 3.272 4.816-2.805 5.434-4.932.556-1.912 3.265-1.783 3.655-3.123 1.46-5.026-6.047-4.902-6.628-10.645-.384-3.802-.182-5.28.88-8.93.393-1.355 8.917-10.72 1.469-8.99-1.668.386-2.006 3.644-4.409 1.393-1.212-1.135-2.192-2.297-2.917.198zm33.144 18.586c-.834 2.872-4.421 6.619-7.06 7.366-2.199.624-2.344 4.434-.736 4.901 4.634 1.347 2.816 2.585 4.362 5.453 2.005 3.72 5.185-3.281 5.49-4.333.89-3.058 13.826 5.011 14.948 4.46 2.57-1.261 3.836-3.723 1.26-5.911-7.183-6.098-9.263-6.231-10.674-16.008-.589-4.077-.078-4.9-2.56-7.719-5.202-5.909-4.48 9.898-5.03 11.791zm-16.997 34.473c5.658 10.498 23.147 21.31 35.328 17.767 6.12-1.78-2.075-5.06-1.198-8.08 1.66-5.711-3.043-5.61-6.722-5.209-3.152.345-8.478-1.355-10.043-3.616-2.9-4.19-4.105-6.476-8.68-2.408-2.67 2.374-7.2-2.776-8.685 1.546zm59.536 2.366c-4.73-1.433-3.794 9.565-6.648 11.263-1.65.98-8.158 3.558-2.329 5.252 5.519 1.604 9.074 2.064 14.411.004 2.299-.888 3.407-3.058 4.067-5.329.795-2.736-2.15-3.281-3.992-4.764-1.372-1.105-.606-5.059-2.277-5.545-.814-.236-4.067-1.066-3.232-.881zM86.85 79.756c-1.001 3.444-.406 6.111-1.478 9.8-.764 2.628-2.65 2.434-3.225 4.412-.388 1.336 3.966 1.739 4.925 1.548 3.347-.665 14.086 6.39 15.127 4.63 1.31-2.217 1.036-4.815-1.9-5.668-5.32-1.546-7.539-7.011-8.159-11.673-.217-1.626-4.755-5.68-5.29-3.049zm34.826 21.458c-1.232 2.267-1.965 5.189-2.774 7.973-.831 2.86-9.174 5.175-2.978 8.668 3.818 2.15 4.928 4.331 9.84 2.743 2.397-.775 6.414-4.516 7.282-6.952.424-1.187 2.114-5.225 1.535-6.064-1.827-2.639-4.946-.884-7.6-3.372-.842-.79-1.522-1.937-2.528-2.711-1.54-1.185-1.597-.07-2.777-.285zm21.212-37.954c-3.247 2.696-12.862 12.135-9.527 16.646 1.625 2.198 4.924 4.306 4.043 7.337-1.02 3.51-3.35 9.273 2.32 7.766 2.758-.736 3.345-15.698 3.738-17.98.54-3.147.202-5.417 1.196-8.837.522-1.798.15-4.84-1.77-4.932zM83.531 16.01c1.484 7.16 4.713 5.825 2.23 14.367-.88 3.024-7.26 2.612-9.971 3.613-6.182 2.281 4.209 6.077 4.956 6.557 8.038 5.132 4.549 16.044-2.846 19.633-3.705 1.797-9.744 6.715-5.254 11.378 1.678 1.742 5.948.657 8.896 2.153 8.086 4.102 22.36 1.767 9.889-4.598-5.651-2.884-1.464-25.425 1.948-25.592 9.687-.477-2.298-7.051-.55-13.066 1.561-5.369 20.551-9.488 9.312-12.755-1.483-.431-3.416 1.797-6.02 1.04-2.745-.798-5.839-2.51-7.903-3.11-1.857-.54-4.413.227-4.687.38" fill="#f8da35"/><path d="M34.5 113.413c-4.461-2.534-4.434-8.833.857-10.346 5.38-1.54 11.094 9.104 18.623 7.274 7.481-1.82 1.67-8.467 12.554-.692 11.334 8.098 2.856-16.397 23.331-5.773 4.315 2.239 13.927 5.915 16.507.924 5.941-11.494 2.037-4.29-.333-12.497-4.178-14.47 10.709.85 15.938-.792 3.277-1.029 2.296-6.153 6.186-5.022 3.766 1.095 2.17 5.134 1.382 7.841-1.091 3.754 6.876 3.62 5.607 7.985-1.555 5.351-8.977-4.314-12.62-5.373-5.04-1.465-6.778 8.221-10.01 11.35-5.22 5.057-8.1 6.158-5.377 13.782 5.638 15.79-15.046-7.81-17.774-5.477-4.11 3.515-1.544 12.416-10.199 9.9-4.749-1.38-9.856-10.038-16.506-7.742-6.008 2.074-5.049 3.542-11.596-2.596-6.673-6.254-10.951.445-16.57-2.746zm66.966-70.953c.95 8.451-4.16 6.443-6.347 13.964-2.009 6.91 5 12.089 11.035 9.253 5.223-2.454 3.444-6.404 6.845-8.86 11.778-8.502 10.35 6.728 17.424 8.784 4.93 1.434 10.447-5.915 8.816-10.923-2.539-7.79-10.858-4.417-12.875-12.887-2.139-8.968.328-15.249-10.792-18.481-4.218-1.226-2.76 8.497-5.869 7.593-12.672-3.683-9.647-.998-8.237 11.557zM71.345 16.5c-.373 1.282-.414 7.924-1.34 8.29-4.544 1.783-4.527 3.455-3.9 8.165.351 2.646 8.084-3.553 11.71-3.57 5.122-.023 4.307-3.007 4.033-7.044-.371-5.437-7.962-14.583-10.503-5.842zM25.401 55.998c-7.202-2.094-8.069 9.223 2.813 7.637 9.827-1.432 4.106 10.527 2.702 15.355-1.303 4.486 4.77 9.88 7.621 12.601C50.567 103.07 44.992 53.58 57.21 68.81c1.685 2.102 7.414 8.778 8.964 4.31 2.105-6.074-.775-7.967-.59-13.191.19-5.3 8.796-4.028 10.603-10.247 1.994-6.859-4.13-12.684-8.663-6.393-7.431 10.318-6.668 17.559-15.189 5.04-1.112-1.635-5.14.75-5.47 1.51-5.257 12.076-10.825 9.253-21.463 6.16zm47.481 37.05c-2.8-.814-4.403-2.276-6.099-4.717-4.841-6.96 1.477-7.702 2.995-12.924.38-1.308-1.214-3.608 1.856-2.716 3.573 1.039 1.244 2.476 2.758 4.677 2.432 3.541 6.957-2.435 7.534 1.88.376 2.81-.882 5.66-1.747 8.637-.665 2.29.762 10.917-3.287 9.74-2.496-.726-1.73-3.759-4.01-4.577zm22.05-10.795c-.484-.896-1.743-3.33-1.212-4.227.633-1.074 3.367-.04 3.883-1.817.501-1.724 1.8-1.336 3.169-.938.577.167 1.576.277 1.928.716.692.861.177 1.497 1.23 2.061 2.13 1.144 4.714.575 3.836 3.596-.381 1.31-2.746.329-3.75.305-2.092-.05-.782 5.312-1.042 6.207-1.547 5.322-7.027-4.017-8.042-5.903" fill="#f5ca2f"/></g></svg>