<svg xmlns="http://www.w3.org/2000/svg" width="156.098" height="146.494" viewBox="0 0 41.301 38.76"><path d="M41.301 38.76s-21.943-7.282-27.322-7.883c-5.378-.6-6.694-2.342-9.077-2.386C2.52 28.445 0 27.317 0 27.317s2.116-7.936 5.34-11.393c3.224-3.457 5.608-6.32 8.356-9.204 2.748-2.884 6.018-5.98 9.4-6.72 0 0 6.574 14.526 9.681 20.347 3.107 5.82 8.524 18.413 8.524 18.413" fill="#fcd449"/><path d="M23.6 6.075l-3.455 1.62L17.56 9.9s-5.363 6.077-5.708 6.492c-.346.415-3.822 4.408-5.046 6.06-.917 1.235-2.21 4.441-2.802 5.976.298.035.6.058.9.064 2.382.044 3.698 1.787 9.076 2.386 5.38.601 27.322 7.883 27.322 7.883s-5.417-12.594-8.524-18.413c-1.896-3.551-5.08-10.339-7.276-15.096l-1.9.824" fill="#fde48d"/><path d="M23.259 4.508c-1.47.62-2.86 1.207-3.977 1.927-1.593 1.03-2.828 2.508-4.022 3.937-.844 1.01-1.641 1.964-2.54 2.747-2.49 2.173-4.828 4.989-6.413 7.725-.837 1.445-1.472 2.971-2.086 4.448-.424 1.015-.838 2.003-1.303 2.95.633.136 1.312.236 1.984.249.168.002.33.016.49.035.342-.75.66-1.504.97-2.25.616-1.48 1.198-2.877 1.966-4.204 1.476-2.548 3.657-5.173 5.983-7.202 1.021-.89 1.908-1.953 2.767-2.98 1.145-1.37 2.226-2.664 3.555-3.522.959-.62 2.265-1.171 3.648-1.755a88.394 88.394 0 0 0 1.543-.662l-.98-2.124c-.523.232-1.055.458-1.585.681" fill="#f89a16"/><path d="M8.2 16.395s2.894-.94 5.18.709c2.288 1.646 2.84 4.668 2.84 4.668s-2.347.832-4.818-.634c-2.47-1.466-3.201-4.743-3.201-4.743" fill="#509d41"/><path d="M15.429 21.903a.064.064 0 0 1-.023-.026c-.02-.034-1.992-3.51-6.036-4.747-.038-.013-.062-.05-.055-.087.008-.035.046-.055.085-.043 4.107 1.256 6.109 4.787 6.129 4.823.02.035.007.075-.026.09a.077.077 0 0 1-.074-.01" fill="#fff"/><path d="M9.727 18.594a.082.082 0 0 1-.029-.042.06.06 0 0 1 .049-.079 6.267 6.267 0 0 0 1.65-.537c-.134-.674-.791-1.244-.797-1.25-.031-.026-.037-.07-.013-.096.024-.027.071-.028.1-.002.03.026.737.64.858 1.387a.062.062 0 0 1-.032.065c-.008.004-.817.426-1.728.57a.076.076 0 0 1-.058-.015m1.713 1.126a.079.079 0 0 1-.024-.03.062.062 0 0 1 .031-.087c.521-.192 1.521-.291 1.794-.316-.207-1.115-.634-1.897-.638-1.905-.019-.035-.007-.075.027-.09s.077.001.096.037c.019.033.46.84.665 2.016a.06.06 0 0 1-.054.073c-.013 0-1.25.102-1.826.314a.077.077 0 0 1-.072-.012m.98 1.144a.073.073 0 0 1-.03-.05.06.06 0 0 1 .06-.071c.747-.022 1.498-.519 1.624-.606l.187-.973c.007-.037.043-.057.082-.046.039.011.064.049.058.085l-.192.996a.065.065 0 0 1-.024.037c-.034.025-.858.619-1.715.643a.075.075 0 0 1-.05-.015" fill="#fff"/><path d="M21.438 21.905s3.04-.138 4.807 2.057c1.768 2.195 1.5 5.254 1.5 5.254s-2.484.18-4.477-1.888c-1.994-2.07-1.83-5.423-1.83-5.423" fill="#509d41"/><path d="M26.947 29.132a.077.077 0 0 1-.015-.03c-.01-.038-.99-3.913-4.56-6.177-.035-.023-.048-.066-.03-.098.016-.033.058-.042.092-.02 3.627 2.3 4.62 6.236 4.631 6.276a.063.063 0 0 1-.05.08.073.073 0 0 1-.068-.03" fill="#fff"/><path d="M22.326 24.43a.083.083 0 0 1-.016-.048c0-.038.03-.067.068-.062a6.233 6.233 0 0 0 1.733-.081c.05-.685-.432-1.41-.437-1.417-.023-.033-.016-.076.014-.096.03-.02.075-.008.096.025.023.033.542.811.46 1.565a.061.061 0 0 1-.048.053c-.01.002-.9.193-1.818.091a.078.078 0 0 1-.052-.03m1.354 1.542a.082.082 0 0 1-.016-.035c-.007-.038.017-.073.055-.076.552-.047 1.543.121 1.812.17a7 7 0 0 0-.11-2.006.062.062 0 0 1 .05-.08.08.08 0 0 1 .083.062c.01.037.22.933.107 2.12a.06.06 0 0 1-.073.055c-.012-.002-1.232-.233-1.843-.18a.075.075 0 0 1-.066-.03m.641 1.362a.076.076 0 0 1-.016-.057.06.06 0 0 1 .076-.052c.728.177 1.583-.103 1.728-.154l.439-.889c.016-.032.056-.043.09-.022.035.021.05.064.034.098l-.45.909a.065.065 0 0 1-.033.029c-.039.016-.99.37-1.824.166a.077.077 0 0 1-.044-.028" fill="#fff"/><path d="M32.67 25.864c.99 1.512 2.874 1.886 3.76 1.978-1.177-2.546-2.383-5.069-3.387-6.99-.253.481-1.572 3.175-.372 5.012m-15.015 5.578s-1.59-2.875-3.935-3.04c-1.39-.1-2.58.932-3.322 1.79.965.274 2.12.523 3.58.685.84.095 2.083.351 3.584.717.06-.093.093-.152.093-.152" fill="#509d41"/><path d="M18.656 8.042c-.458.332-.93.706-1.382 1.117 1.759 1.679 5.467 5.947 6.679 7.352.354-.345.778-.61 1.33-.828.907-.36 1.605-.965 1.902-1.907.817-2.595-1.463-6.107-4.61-6.767-1.33-.278-2.843.256-3.92 1.033" fill="#d91f26"/><path d="M19.005 8.488a15.7 15.7 0 0 0-1.312 1.059c1.716 1.73 4.56 4.982 5.89 6.518.01-.01.021-.024.033-.035.407-.38.885-.67 1.503-.914a3.02 3.02 0 0 0 .956-.58c.281-.264.476-.572.593-.945.306-.974.103-2.18-.558-3.31-.823-1.406-2.183-2.427-3.637-2.733-1.239-.26-2.603.316-3.468.94" fill="#ef2e32"/><path d="M24.252 14.708c.395-.016.717-.408.936-.727.284-.415.516-.905.624-1.398.289-1.318-.3-2.532-1.243-3.432a4.586 4.586 0 0 0-1.863-1.095 3.83 3.83 0 0 0-2.326.049c-1.578.545-1.824 1.373-1.347 1.75 1.383 1.096 3.323 1.227 4.05 3.068.225.572.21 1.383.836 1.706a.66.66 0 0 0 .333.08" fill="#d91f26"/><path d="M23.616 12.094c.043.097.323.133.536.08.232-.058.398-.262.321-.459-.075-.194-.354-.219-.554-.089-.2.133-.357.346-.303.468m.108.916c.024.104.292.19.512.178.238-.013.44-.183.4-.39-.037-.206-.306-.281-.528-.19-.22.092-.414.272-.384.402m-.529-1.882c.05.093.332.106.54.038.227-.075.376-.293.284-.483-.09-.189-.37-.19-.56-.044-.188.148-.327.372-.264.489m-.542-.603c.077.071.348-.005.524-.139.19-.144.261-.397.115-.546-.148-.15-.413-.063-.544.136-.133.2-.192.459-.095.549m-.903-.315c.099.037.32-.136.432-.325.123-.206.094-.466-.099-.55-.193-.084-.405.097-.452.332-.047.234-.006.496.119.543" fill="#f79526"/><path d="M19.595 11.564c1.06 1.16 2.187 2.436 3.073 3.45-.047-2.611-2.416-3.308-3.073-3.45" fill="#f14847"/><path d="M17.732 9.61c1.5-1.375 2.944-2.046 4.294-1.995.27.01.539.05.801.117 1.374.354 2.562 1.309 3.26 2.62.582 1.094.72 2.273.379 3.234a2.13 2.13 0 0 1-.569.882c-.248.229-.572.425-1.022.616-.577.246-1.026.524-1.408.865l.156.18c.364-.324.79-.589 1.345-.825.476-.202.823-.411 1.092-.66.284-.262.491-.582.632-.977.363-1.025.22-2.274-.394-3.427-.73-1.37-1.973-2.368-3.412-2.74-1.657-.426-3.46.23-5.324 1.94l.17.17" fill="#f14847"/><path d="M22.307 30.696a15.95 15.95 0 0 0 1.64-.681c-1.215-2.107-3.57-7.247-4.338-8.936-.437.232-.918.366-1.51.42-.971.09-1.812.474-2.362 1.294-1.515 2.26-.316 6.271 2.517 7.79 1.198.643 2.801.558 4.053.113" fill="#d91f26"/><path d="M22.098 30.17a15.51 15.51 0 0 0 1.557-.647c-1.16-2.142-2.973-6.063-3.816-7.911l-.042.024c-.497.25-1.038.393-1.7.454a3.032 3.032 0 0 0-1.08.286 2.148 2.148 0 0 0-.836.74c-.568.849-.712 2.063-.396 3.333.394 1.581 1.41 2.944 2.72 3.647 1.116.597 2.588.43 3.593.074" fill="#ef2e32"/><path d="M18.814 22.724c-.382-.095-.803.191-1.102.435-.39.318-.75.723-.993 1.165-.649 1.184-.426 2.515.226 3.644.37.643.858 1.17 1.48 1.576a3.82 3.82 0 0 0 2.245.608c1.667-.08 2.137-.805 1.785-1.301-1.018-1.44-2.842-2.112-3.02-4.085-.056-.613.187-1.385-.323-1.872a.669.669 0 0 0-.298-.17" fill="#d91f26"/><path d="M18.688 25.412c-.014-.105-.272-.218-.491-.227-.239-.01-.456.138-.438.348.018.21.278.31.507.241.23-.07.44-.23.422-.362m.154-.91c.006-.105-.226-.264-.44-.315-.233-.054-.473.053-.495.262-.022.21.216.357.453.331.238-.025.475-.144.482-.278m-.022 1.955c-.021-.102-.288-.195-.508-.188-.238.009-.443.175-.408.383.034.208.302.288.524.2.223-.088.42-.264.393-.395m.349.733c-.053-.092-.336-.094-.54-.016-.223.085-.363.308-.265.493.099.185.378.176.56.022.184-.155.313-.386.246-.5m.778.557c-.084-.064-.345.04-.507.19-.175.163-.221.42-.06.556.162.134.417.02.528-.191.111-.213.145-.475.039-.555" fill="#f79526"/><path d="M22.398 27.053a212.878 212.878 0 0 1-1.978-4.175c-.69 2.519 1.387 3.854 1.978 4.175" fill="#f14847"/><path d="M23.636 29.453c-1.827.896-3.402 1.134-4.683.704a3.827 3.827 0 0 1-.736-.337c-1.218-.726-2.09-1.978-2.39-3.432-.25-1.214-.051-2.384.547-3.21a2.14 2.14 0 0 1 .794-.686c.303-.15.67-.247 1.155-.303.623-.075 1.132-.214 1.594-.434a48.766 48.766 0 0 0-.099-.217c-.44.208-.925.343-1.523.413-.514.06-.906.163-1.233.326-.347.171-.636.42-.882.76-.637.881-.85 2.12-.587 3.4.314 1.52 1.226 2.827 2.502 3.588 1.47.877 3.385.755 5.655-.362a7.977 7.977 0 0 1-.114-.21" fill="#f14847"/><path d="M27.013 31.365a16.325 16.325 0 0 0-.473 1.712c2.409.34 7.908 1.653 9.711 2.089.087-.487.277-.95.599-1.449.53-.82.744-1.718.437-2.657-.847-2.586-4.745-4.113-7.688-2.818-1.244.549-2.163 1.863-2.586 3.123" fill="#d91f26"/><path d="M27.557 31.525a15.653 15.653 0 0 0-.45 1.624c2.403.407 6.608 1.395 8.583 1.87.004-.016.004-.032.007-.048.11-.546.33-1.06.69-1.619a3.06 3.06 0 0 0 .44-1.027 2.136 2.136 0 0 0-.069-1.114c-.317-.97-1.186-1.833-2.38-2.366-1.488-.664-3.188-.702-4.549-.103-1.158.508-1.932 1.77-2.272 2.783" fill="#ef2e32"/><path d="M35.445 33.526c.311-.242.345-.75.337-1.136a4.065 4.065 0 0 0-.307-1.5c-.533-1.24-1.717-1.885-3.008-2.067a4.585 4.585 0 0 0-2.153.194 3.822 3.822 0 0 0-1.862 1.394c-.965 1.363-.683 2.179-.076 2.208 1.762.086 3.416-.938 5.079.137.516.334.975 1.001 1.673.9a.656.656 0 0 0 .317-.13" fill="#d91f26"/><path d="M33.406 31.77c.09.054.34-.08.482-.246.155-.182.17-.445-.006-.56-.175-.115-.415.027-.502.25-.086.225-.089.489.025.556m.623.683c.078.07.347-.015.519-.154.185-.149.25-.405.098-.55-.15-.146-.414-.05-.54.153-.126.204-.178.463-.077.551m-1.526-1.222c.093.046.332-.107.46-.285.14-.192.136-.457-.05-.557-.184-.101-.412.06-.48.29-.068.23-.05.493.07.552m-.794-.175c.105.013.28-.207.346-.418.07-.227-.019-.476-.225-.512-.207-.035-.371.19-.362.43.008.239.11.483.241.5m-.917.27c.102-.027.18-.297.162-.517-.02-.237-.195-.433-.4-.39-.206.046-.274.316-.175.535.098.218.285.406.413.372" fill="#f79526"/><path d="M29.827 33.681c1.537.326 3.196.707 4.508 1.015-1.558-2.095-3.89-1.281-4.508-1.015" fill="#f14847"/><path d="M27.175 33.177c.42-1.99 1.203-3.377 2.33-4.121.225-.149.467-.275.72-.372 1.322-.512 2.844-.428 4.174.232 1.11.55 1.91 1.429 2.193 2.409.104.364.122.707.05 1.048-.068.33-.217.679-.472 1.096-.326.537-.53 1.023-.641 1.523l.232.056c.106-.476.3-.94.614-1.454.268-.442.428-.814.502-1.173a2.365 2.365 0 0 0-.055-1.163c-.302-1.044-1.145-1.976-2.316-2.557-1.39-.688-2.983-.776-4.368-.24-1.596.618-2.68 2.201-3.2 4.678.077.011.156.025.237.038" fill="#f14847"/><path d="M19.226 20.634c-1.364.032-2.493-.838-2.519-1.943-.026-1.105 1.061-2.025 2.426-2.059 1.365-.032 2.493.838 2.519 1.944.027 1.104-1.06 2.026-2.426 2.058" fill="#221d20"/><path d="M19.36 19.112c-.584.013-1.069-.41-1.081-.943-.013-.536.45-.981 1.035-.995.584-.014 1.068.409 1.08.944.013.535-.45.98-1.034.994" fill="#695240"/><path d="M19.367 18.256c-.231.005-.425-.161-.43-.375-.006-.212.18-.389.412-.394.232-.006.425.162.43.375.004.213-.18.389-.412.394" fill="#fff"/><path d="M31.557 25.422c-.735 1.15-2.087 1.602-3.018 1.006-.93-.596-1.089-2.011-.354-3.162.736-1.15 2.087-1.6 3.019-1.005.931.595 1.09 2.01.353 3.161" fill="#221d20"/><path d="M30.369 24.462c-.315.493-.935.659-1.386.37-.452-.288-.562-.92-.247-1.414.315-.492.936-.658 1.386-.369.451.288.562.921.247 1.413" fill="#695240"/><path d="M29.663 23.979c-.125.195-.371.262-.551.147-.178-.114-.223-.366-.098-.562.125-.196.373-.262.551-.147.18.115.224.365.098.562" fill="#fff"/><path d="M10.703 21.123c-1.177-.49-2.464-.35-3.513.266.176.662.456 1.667.62 2.04.251.575.835 2.066 1.042 3.243.116.652.484 1.645.79 2.401 1.343-.235 2.561-1.162 3.143-2.556.886-2.13-.045-4.545-2.082-5.394" fill="#631a1d"/><path d="M10.305 21.348c-1.02-.426-2.137-.329-3.081.168.177.657.432 1.563.585 1.913.252.575.836 2.066 1.043 3.243.103.585.41 1.444.694 2.16 1.138-.31 2.148-1.16 2.659-2.383.845-2.028-.005-4.312-1.9-5.101" fill="#93292e"/><path d="M9.906 26.264c.222-.246.568-.297.774-.112.207.185.194.535-.029.781-.222.248-.568.298-.774.113-.206-.185-.193-.535.03-.782m.443-3.792c.159-.178.45-.179.647 0 .197.176.227.465.069.643-.16.178-.45.178-.648 0-.198-.177-.229-.465-.069-.643m-1.998-.149c.2-.223.524-.258.723-.08.2.18.2.506 0 .73-.2.221-.523.256-.723.077-.2-.179-.2-.505 0-.727m1.169 1.996a.342.342 0 0 1 .483-.039c.137.123.143.34.014.484a.343.343 0 0 1-.483.04.343.343 0 0 1-.014-.485m-1.567-.547c.072.175.151.38.235.609a.365.365 0 0 0 .208-.114.343.343 0 0 0-.014-.484.338.338 0 0 0-.429-.01m3.214-.011c.181-.202.43-.274.556-.16.126.113.081.367-.1.569-.18.2-.43.273-.556.16-.125-.113-.081-.368.1-.57m-.14 1.424a.341.341 0 0 1 .482-.039c.136.124.143.34.013.484a.343.343 0 0 1-.482.039.342.342 0 0 1-.013-.484" fill="#f79387"/><path d="M29.32 21.174c.948-.854 1.372-2.076 1.265-3.288-.674-.124-1.702-.303-2.108-.315-.628-.018-2.226-.129-3.378-.445-.638-.176-1.694-.267-2.508-.314-.363 1.315-.046 2.811.965 3.933 1.546 1.715 4.127 1.906 5.765.43" fill="#631a1d"/><path d="M29.289 20.718c.821-.74 1.212-1.79 1.167-2.856-.67-.122-1.598-.28-1.98-.29-.627-.02-2.225-.13-3.377-.446-.573-.157-1.48-.247-2.249-.298-.207 1.161.127 2.438 1.016 3.423 1.47 1.632 3.898 1.841 5.423.467" fill="#93292e"/><path d="M25.017 18.252c.127.307.025.642-.23.749-.256.106-.567-.055-.695-.361-.128-.307-.025-.641.23-.748.255-.107.566.055.695.36m3.237 2.025c.092.22-.032.483-.277.586-.245.102-.518.007-.61-.214-.093-.221.03-.483.275-.586.246-.103.518-.007.612.214m.99-1.742c.115.277.01.584-.24.687-.247.104-.54-.036-.656-.311-.115-.276-.008-.583.238-.687.249-.104.543.035.658.311m-2.304.202a.34.34 0 0 1-.173.453.343.343 0 0 1-.442-.195.341.341 0 0 1 .17-.453.343.343 0 0 1 .444.195m1.165-1.182a19.962 19.962 0 0 1-.65-.048.366.366 0 0 0 .014.236.344.344 0 0 0 .443.195.339.339 0 0 0 .193-.383m-1.367 2.909c.105.25.064.505-.092.57-.157.066-.367-.083-.472-.333-.105-.25-.064-.505.093-.571.155-.065.367.084.471.334m-1.225-.737a.343.343 0 0 1-.172.454.344.344 0 0 1-.443-.196.342.342 0 0 1 .172-.453.342.342 0 0 1 .443.195" fill="#f79387"/><path d="M12.69 12.784c-.74 1.037-.89 2.323-.524 3.483.684-.024 1.727-.072 2.126-.148.617-.116 2.201-.354 3.394-.294.662.033 1.712-.105 2.518-.235.07-1.362-.562-2.756-1.792-3.633-1.878-1.34-4.44-.97-5.722.827" fill="#631a1d"/><path d="M12.82 13.221c-.642.901-.797 2.01-.524 3.042.681-.026 1.621-.073 1.996-.144.617-.116 2.201-.354 3.394-.294.594.03 1.5-.079 2.26-.194-.047-1.178-.65-2.353-1.73-3.124-1.787-1.276-4.204-.956-5.396.714" fill="#93292e"/><path d="M17.524 14.707c-.19-.271-.164-.621.063-.78.227-.16.565-.068.756.202.19.272.163.62-.063.78-.226.16-.565.07-.756-.202m-3.598-1.277c-.138-.196-.073-.48.143-.632.217-.154.506-.119.644.077.137.195.074.478-.144.632-.217.154-.504.118-.643-.077m-.591 1.914c-.172-.245-.135-.569.084-.722.22-.155.538-.082.71.161.172.245.134.568-.085.723-.22.155-.537.081-.71-.162m2.208-.694a.343.343 0 0 1 .07-.48.343.343 0 0 1 .475.094c.111.16.08.374-.07.48a.344.344 0 0 1-.475-.095m-.882 1.406c.186-.03.404-.063.644-.094a.356.356 0 0 0-.064-.227.343.343 0 0 0-.475-.095.338.338 0 0 0-.106.416m.707-3.135c-.157-.223-.171-.48-.032-.578.138-.097.376.004.532.224.157.22.171.48.033.578-.138.097-.377-.003-.533-.225m1.356.455a.342.342 0 0 1 .07-.48.344.344 0 0 1 .474.095.343.343 0 0 1-.07.48.342.342 0 0 1-.474-.095" fill="#f79387"/></svg>