<?xml version="1.0" encoding="utf-8"?>
<!-- Generator: Adobe Illustrator 16.0.1, SVG Export Plug-In . SVG Version: 6.00 Build 0)  -->
<!DOCTYPE svg PUBLIC "-//W3C//DTD SVG 1.1//EN" "http://www.w3.org/Graphics/SVG/1.1/DTD/svg11.dtd">
<svg version="1.1" id="Layer_1" xmlns="http://www.w3.org/2000/svg" xmlns:xlink="http://www.w3.org/1999/xlink" x="0px" y="0px"
	 width="496.475px" height="2001px" viewBox="0 0 496.475 2001" enable-background="new 0 0 496.475 2001" xml:space="preserve">
<path fill-rule="evenodd" clip-rule="evenodd" d="M164.489,1840.452c-7.325-3.554-13.934-6.433-20.227-9.889
	c-9.128-5.016-17.776-10.953-27.088-15.576c-12.802-6.357-23.498-16.532-37.849-20.109c-11.685-2.912-23.092-6.928-34.768-9.884
	c-8.759-2.218-17.774-3.406-26.611-5.35c-1.789-0.394-3.288-2.111-4.921-3.218c1.458-1.077,2.766-2.613,4.401-3.154
	c8.23-2.726,16.568-2.33,24.915-0.358c4.824,1.14,9.761,1.869,14.508,3.26c15.998,4.683,31.321,11.003,46.013,18.947
	c13.932,7.534,27.976,14.885,42.207,21.831c10.791,5.269,21.928,9.837,32.985,14.537c1.356,0.577,3.392,0.537,4.758-0.047
	c8.791-3.752,18.112-2.082,27.175-2.986c8.074-0.806,16.118-1.921,24.16-3.018c5.342-0.729,10.659-1.645,15.981-2.511
	c8.153-1.329,16.312-2.63,24.448-4.052c9.599-1.677,19.188-3.406,28.758-5.233c7.432-1.418,14.775-3.901,22.252-4.349
	c13.69-0.818,27.463-0.851,41.175-0.413c4.412,0.141,8.848,2.544,13.09,4.342c8.076,3.421,16.064,6.046,25.187,4.83
	c5.634-0.75,11.529,0.144,17.275,0.662c5.805,0.524,10.889-0.592,16.133-3.452c8.308-4.534,10.068-3.436,11.636,4.886
	c5.382,2.697,11.225-4.07,17.229,0.943c-7.843,6.654-7.779,14.145-3.747,22.245c0.431,0.864,0.111,2.159-0.016,3.235
	c-0.673,5.723-1.892,11.431-1.983,17.158c-0.135,8.467-3.025,10.952-10.737,13.684c-8.413,2.979-10.969-3.275-15.776-6.841
	c-8.353-6.193-16.157-13.742-27.012-15.338c-2.901-0.426-6.114,1.256-10.787,2.343c5.249,5.916,9.216,10.983,13.791,15.422
	c9.838,9.546,21.529,16.077,34.361,20.946c6.407,2.431,12.188,6.484,18.323,9.665c3.823,1.982,7.782,3.699,11.675,5.549
	c5.605,2.666,10.691,6.019,13.217,11.962c0.768,1.809,1.138,4.296,0.512,6.053c-0.734,2.059-2.607,4.928-4.255,5.119
	c-1.854,0.215-4.146-1.992-6.004-3.454c-6.577-5.175-12.81-10.825-19.642-15.625c-5.216-3.666-11.106-6.388-16.777-9.376
	c-1.511-0.795-3.318-1.025-4.869-1.479c-0.561,6.565-0.512,12.699-1.735,18.565c-1.41,6.766-6.488,10.204-13.143,9.545
	c-1.629-0.162-3.856-2.017-4.367-3.567c-0.512-1.553,0.547-3.81,1.376-5.539c0.429-0.895,1.78-1.501,2.841-1.913
	c6.624-2.573,5.484-10.547,0.78-13.692c-2.872-1.921-5.995-3.889-9.283-4.678c-7.707-1.847-15.591-2.953-23.388-4.443
	c-9.86-1.886-19.772-3.566-29.531-5.887c-6.397-1.521-12.045-4.414-9.006-13.213c-14.104,2.762-27.188,5.728-40.417,7.754
	c-7.122,1.091-14.539,1.182-21.736,0.618c-8.364-0.654-16.721-2.136-24.912-3.998c-5.341-1.215-10.447-3.592-15.548-5.715
	c-13.617-5.672-27.345-6.853-41.421-1.738c-6.651,2.417-13.63,4.048-20.067,6.917c-10.854,4.837-21.678,9.882-31.997,15.748
	c-12.415,7.058-24.577,14.65-36.313,22.783c-10.954,7.592-17.375,18.949-22.11,31.165c-0.428,1.106,0.998,3.755,2.262,4.494
	c1.748,1.025,4.211,0.742,6.275,1.335c3.558,1.02,7.254,1.892,10.468,3.616c1.521,0.816,3.182,3.771,2.782,5.198
	c-0.582,2.078-2.635,4.536-4.64,5.288c-9.263,3.479-22.778-2.737-27.216-11.646c-2.682-5.382-0.98-9.93,1.597-14.481
	c2.176-3.846,4.881-7.413,6.837-11.359c3.809-7.685,7.215-15.568,10.877-23.328c1.294-2.74,2.329-5.036,6.305-5.995
	c3.883-0.938,7.054-4.831,10.962-7.745c-5.823,0.288-10.843,0.743-15.863,0.737c-7.739-0.009-15.688-1.517-23.155-0.183
	c-7.045,1.258-14.125,4.518-20.206,8.426c-7.868,5.055-14.274,12.415-22.216,17.314c-7.256,4.475-15.743,7.497-24.295,2.315
	c-1.271-0.771-2.506-3.134-2.275-4.514c0.422-2.53,0.695-6.504,4.686-5.801c14.376,2.532,21.816-7.647,30.465-15.909
	c5.951-5.686,11.957-11.391,18.508-16.331c2.613-1.971,6.717-2.352,10.215-2.685c8.806-0.838,17.707-0.823,26.463-1.971
	c5.123-0.67,10.14-2.651,15.027-4.508c10.027-3.808,16.708-12.163,24.718-18.721c5.031-4.117,10.22-8.043,15.345-12.044
	C162.255,1842.009,163.025,1841.499,164.489,1840.452z"/>
<path fill-rule="evenodd" clip-rule="evenodd" d="M173.202,93.333c-5.104-1.095-10.236-2.076-15.306-3.309
	c-8.505-2.07-17.344-3.384-25.377-6.65c-18.249-7.42-36.164-15.68-54.076-23.899c-10.98-5.039-21.569-10.939-32.595-15.869
	c-6.865-3.069-14.07-5.773-21.403-7.254c-4.567-0.922-9.677,0.604-14.507,1.291C5.792,38.23,5.4,36.257,6.472,33.116
	c1.656-4.848,11.697-9.961,16.686-8.074c15.413,5.833,30.974,11.38,45.998,18.107c12.432,5.565,24.049,12.921,36.284,18.963
	c7.919,3.912,16.182,7.218,24.506,10.196c10.754,3.849,21.669,7.273,32.611,10.563c14.234,4.28,28.439,4.713,43.014,0.633
	c6.598-1.848,13.767-1.129,20.776,0.94c16.059,4.74,32.217,9.248,48.539,12.951c8.319,1.888,16.897,2.078,25.58-0.492
	c12.622-3.737,25.483-6.934,38.452-9.128c7.336-1.242,14.823,0.153,22.215,3.148c6.735,2.73,14.431,3.325,21.781,4.229
	c5.117,0.63,10.364,0.193,15.553,0.233c7.158,0.057,14.322-0.061,21.471,0.23c5.063,0.206,9.411-1.184,13.553-4.003
	c6.418-4.369,9.561-3.069,11.233,5.375c3.351-0.554,6.745-1.285,10.18-1.619c2.032-0.198,4.126,0.231,6.191,0.378
	c-0.793,1.853-1.075,4.421-2.478,5.421c-3.927,2.8-2.627,6.578-1.666,9.497c2.475,7.52,2.393,14.796,0.412,22.328
	c-0.518,1.963,0.002,4.277,0.354,6.377c1.299,7.763-2.572,12.936-10.239,13.74c-2.828,0.296-5.612,0.999-7.735,1.391
	c-8.335-6.392-16.552-12.906-25.053-19.029c-1.688-1.217-4.58-1.583-6.714-1.201c-5.271,0.944-10.423,2.55-16.212,4.042
	c6.227,10.906,15.372,15.429,25.914,18.049c4.755,1.181,9.422,2.732,14.098,4.213c7.021,2.223,14.054,4.418,21.011,6.83
	c11.802,4.091,23.701,7.962,35.261,12.664c7.246,2.947,9.779,12.703,6.124,19.69c-0.917,1.753-2.024,3.523-2.403,5.414
	c-0.482,2.409-1.254,4.495-3.945,3.863c-2.013-0.473-3.772-2.053-5.611-3.194c-0.221-0.137-0.328-0.603-0.334-0.919
	c-0.176-8.569-6.531-10.728-13.109-12.385c-15.956-4.017-31.87-8.265-47.965-11.644c-12.201-2.562-24.693-3.703-36.981-5.896
	c-9.563-1.708-18.464-4.809-21.618-15.625c-1.099-3.764-4.191-1.958-6.291-1.796c-1.161,0.09-3.21,2.245-3.079,3.232
	c0.667,5.023,1.026,10.389,3.136,14.859c5.048,10.687,10.387,21.405,19.99,29.002c5.105,4.038,10.912,4.866,17.124,2.891
	c7.428-2.362,12.542-0.015,14.122,6.453c1.083,4.434-0.788,7.497-5.344,8.064c-10.943,1.363-21.213-0.409-29.91-7.679
	c-10.455-8.738-21.051-17.344-30.988-26.645c-5.219-4.886-9.475-10.922-13.523-16.876c-1.648-2.424-1.594-6.007-2.531-9.985
	c-5.582-0.407-12.328-0.797-19.055-1.409c-18.642-1.699-36.7-5.748-54.038-13.014c-8.185-3.431-16.542-6.563-25.036-9.116
	c-8.946-2.69-18.267-2.472-27.234-0.1c-12.87,3.404-25.567,7.46-38.324,11.286c-7.444,2.232-14.876,1.47-22.412,0.446
	c-10.223-1.39-20.506-4.803-30.81-1.464c-5.225,1.693-10.188,4.503-14.896,7.412c-7.445,4.6-14.362,10.079-21.922,14.462
	c-4.582,2.658-9.818,4.564-15.002,5.714c-7.323,1.626-8.877,0.61-11.342-6.125c-1.124-3.069-2.485-4.478-5.849-4.901
	c-2.602-0.327-5.871-1.495-7.337-3.43c-3.073-4.055-1.178-8.626,3.89-9.985c4.256-1.142,8.723-2.003,13.105-2.046
	c6.974-0.068,12.086-3.973,17.455-7.379c4.296-2.725,8.294-5.917,12.453-8.859c3.686-2.608,7.789-3.092,11.65-0.929
	c5.565,3.119,9.164,0.058,13.085-3.135c1.342-1.094,3.747-2.392,4.953-1.89c6.339,2.646,11.929-0.166,16.974-2.709
	c8.19-4.131,15.747-9.514,23.597-14.327c8.091-4.96,16.211-9.873,24.319-14.806C173.155,94.169,173.179,93.751,173.202,93.333z
	 M70.612,153.62c-0.347-0.507-0.694-1.015-1.041-1.521c-5.262,2.949-10.524,5.897-15.787,8.846c0.446,0.743,0.892,1.486,1.337,2.229
	C60.285,159.989,65.449,156.804,70.612,153.62z"/>
<path fill-rule="evenodd" clip-rule="evenodd" d="M381.387,1615.821c-3.353,1.146-5.63,1.928-8.167,2.795
	c0.517,3.416,1.383,6.777,1.474,10.158c0.341,12.715-15.627,24.215-27.468,19.938c-4.539-1.639-9.867-10.074-8.224-13.516
	c0.639-1.336,2.403-2.785,3.794-2.939c1.611-0.18,3.45,0.852,5.052,1.643c1.74,0.857,4.301,3.281,4.805,2.881
	c2.612-2.074,5.133-4.578,6.75-7.455c0.806-1.436,0.281-4.672-0.891-5.834c-0.972-0.963-3.93-0.543-5.738,0.064
	c-9.17,3.074-18.083,7.1-27.427,9.412c-6.194,1.533-13.025,1.43-19.463,0.85c-12.146-1.098-24.219-3.01-36.306-4.705
	c-3.695-0.52-7.336-1.439-11.283-2.232c-2.421,10.941-7.299,19.928-15.43,26.891c-4.883,4.18-9.768,8.449-15.127,11.951
	c-4.633,3.025-6.31,6.619-4.631,11.674c2.126,6.4,4.433,12.744,6.825,19.049c2.096,5.521,6.811,5.219,11.589,5.141
	c3.405-0.057,7.056,0.012,10.149,1.195c1.947,0.746,3.803,3.498,4.262,5.656c0.243,1.139-2.322,3.609-4.086,4.322
	c-9.938,4.012-21.614-0.68-27.328-10.268c-5.036-8.451-10.268-16.801-15.772-24.953c-3.06-4.529-1.455-8.295,1.065-11.883
	c5.021-7.152,2.938-15.258,4.34-22.881c-0.383-0.275-0.764-0.551-1.146-0.826c-4.285,2.529-8.532,5.125-12.864,7.57
	c-4.69,2.648-9.293,5.549-14.23,7.643c-11.677,4.953-23.802,8.922-35.234,14.361c-10.96,5.213-17.881,16.66-13.871,29.586
	c2.747-0.254,5.651-0.381,8.508-0.818c4.198-0.643,5.777,1.582,6.135,5.252c0.32,3.283-2.823,7.354-5.915,7.111
	c-5.867-0.461-11.756-1.096-17.5-2.301c-1.224-0.258-2.702-3.299-2.63-4.996c0.244-5.742,1.095-11.461,1.785-17.18
	c0.813-6.723,1.701-13.438,2.556-20.154c0.642-5.047,3.29-8.869,7.91-10.717c14.908-5.957,24.925-17.268,34.104-29.801
	c5.139-7.016,11.115-13.42,16.745-20.076c1.442-1.705,2.996-3.314,4.56-5.035c-6.288-1.143-12.015-1.744-17.475-3.289
	c-6.293-1.781-12.53-4.008-18.467-6.746c-8.211-3.785-15.866-8.871-24.247-12.158c-5.332-2.09-11.538-2.514-17.372-2.623
	c-7.207-0.137-14.431,1.141-21.654,1.234c-8.035,0.104-16.078-0.461-24.119-0.686c-9.355-0.264-18.746-1.148-26.965-5.742
	c-3.855-2.156-6.545-6.51-9.467-10.109c-0.471-0.578,0.247-2.871,1.083-3.543c0.772-0.625,2.579-0.512,3.693-0.092
	c22.013,8.303,44.793,7.934,67.851,7.25c10.565-0.313,21.578,0.256,31.762,5.316c10.619,5.277,21.398,10.828,32.748,13.855
	c10.366,2.768,21.592,3.002,32.434,2.965c4.503-0.016,8.865-4.039,13.52-5.523c6.671-2.127,13.501-4.801,20.355-5.092
	c13.388-0.568,26.452-2.152,39.555-5.074c15.578-3.477,31.322-6.314,47.495-6.115c14.734,0.182,27.287-6.262,39.231-14.391
	c6.766-4.605,13.76-9.408,22.576-9.107c3.012,0.104,6.104,1.486,8.985,1.074c12.235-1.754,24.451-3.729,36.565-6.164
	c3.018-0.607,5.825-2.99,8.388-4.992c6.972-5.445,9.295-4.797,11.584,4.492c2.558-1.006,5.021-1.982,7.49-2.945
	c1.834-0.715,3.636-1.545,5.521-2.094c3.158-0.916,4.393,0.85,3.054,3.367c-4.071,7.662-2.818,14.479,2.304,21.039
	c0.439,0.561,0.533,1.627,0.383,2.377c-1.373,6.83-0.555,13.412,1.401,20.068c1.614,5.49-2.18,10.713-8.771,13.053
	c-4.988,1.773-9.498,2.783-13.689-2.439c-1.969-2.453-5.208-5.4-9.539-3.604c-0.395,0.162-1.293-0.391-1.703-0.842
	c-5.201-5.729-12.334-6.703-19.354-7.807c-7.685-1.205-17.778,7.758-17.308,15.566c0.338,5.59,0.641,11.381,2.35,16.627
	c1.479,4.543,4.15,9.297,7.65,12.455c6.855,6.188,14.417,11.691,22.142,16.787c6.231,4.111,9.162,8.85,7.468,15.953
	c-1.584,6.645-4.225,12.615-11.5,15.129c-3.53,1.221-6.7,0.33-9.716-1.131c-2.18-1.057-1.516-6.25,1.05-8.898
	c1.258-1.299,2.76-2.363,4.158-3.523c5.11-4.242,4.645-9.219-1.426-11.822c-4.846-2.078-9.991-3.441-14.936-5.305
	c-7.826-2.945-15.693-5.818-23.355-9.154C379.659,1627.755,378.096,1621.72,381.387,1615.821z"/>
<path fill-rule="evenodd" clip-rule="evenodd" d="M437.539,595.109c5.078-1.42,9.764-2.73,15.575-4.355
	c-0.276,2.125,0.165,4.809-0.858,5.6c-6.071,4.701-2.833,10.801-1.848,15.738c1.069,5.352,1.954,10.125-0.025,15.379
	c-0.755,2.004-0.604,4.654-0.041,6.793c2.156,8.188-0.895,13.779-9.098,15.902c-2.951,0.764-5.928,1.426-7.791,1.871
	c-3.469-2.99-6.518-6.037-9.979-8.504c-5.992-4.275-12.004-8.656-18.515-12.002c-2.19-1.127-5.928,0.756-8.958,1.266
	c-6.615,1.113-11.93,4.381-16.221,9.518c-0.769,0.922-2.233,1.254-3.367,1.877c-2.439,1.342-5.1,2.406-7.262,4.105
	c-5.729,4.5-11.768,7.676-19.355,7.648c-8.75-0.031-10.988,2.121-12.752,10.635c-0.497,2.4-1.24,4.754-1.951,7.105
	c-2.723,9.016-2.138,17.557,3.447,25.457c0.752,1.063,1.376,2.277,1.779,3.514c1.248,3.82,3.195,5.689,7.796,5.438
	c4.848-0.264,9.571,1.584,11.95,6.471c2.18,4.477,1.005,6.785-3.9,7.094c-5.807,0.367-11.659,0.156-17.483-0.031
	c-1.169-0.037-2.647-0.799-3.398-1.709c-4.509-5.467-9.256-10.811-13.088-16.736c-2.233-3.453-3.321-7.824-4.197-11.938
	c-1.691-7.93-2.856-15.973-4.275-23.963c-0.109-0.615-0.51-1.18-1.113-2.521c-3.679,2.879-7.785,5.006-10.361,8.32
	c-6.339,8.156-14.864,5.158-22.825,5.621c-3.595,0.209-7.258,0.797-10.688,1.859c-4.29,1.328-8.374,3.32-12.535,5.021
	c-3.634-8.76,3.152-18.518,11.378-18.252c5.265,0.172,10.531,0.348,15.798,0.416c5.222,0.066,9.077-1.99,11.528-6.904
	c1.609-3.23,4.261-5.939,5.872-9.168c0.6-1.201,0.162-3.984-0.814-4.742c-7.604-5.895-11.771-13.414-13.381-22.951
	c-1.104-6.537-3.091-13.162-6.03-19.078c-2.337-4.705-3.801-4.006-6.033,0.695c-4.604,9.699-11.293,16.902-22.938,17.623
	c-4.908,0.305-9.859,0.572-14.669,1.49c-1.834,0.352-4.609,2.367-4.733,3.814c-0.357,4.203-0.624,8.945,0.965,12.666
	c2.707,6.336,1.486,12.42,0.768,18.584c-0.51,4.367-7.916,7.314-11.962,5.152c-7.686-4.107-7.729-6.012-0.928-11.41
	c1.465-1.16,2.899-3.93,2.537-5.557c-1.818-8.16-4.184-16.203-6.517-24.24c-0.275-0.945-1.404-1.926-2.373-2.34
	c-5.107-2.186-10.244-4.33-15.469-6.215c-3.264-1.178-6.412-0.58-8.16,2.746c-3.352,6.377-6.447,12.889-9.707,19.314
	c-1.629,3.211-3.325,6.391-5.09,9.529c-3.487,6.205-10.033,6.734-15.256,5.361c-3.616-0.951-6.176-6.186-8.947-9.709
	c-0.305-0.389,0.853-2.465,1.779-3.17c1.969-1.5,4.235-3.686,6.377-3.682c6.996,0.014,9.277-5.584,11.73-9.936
	c3.173-5.625,4.764-12.145,6.998-18.295c1.405-3.873,1.844-8.613,4.424-11.367c1.762-1.879,6.568-1.68,9.835-1.199
	c5.089,0.752,10.025,2.531,15.027,3.875c0.404-0.455,0.809-0.91,1.213-1.365c-3.34-9.701-6.681-19.404-10.236-29.732
	c-4.558,1.596-10.691,3.213-16.36,5.836c-14.777,6.84-30.225,11.07-46.293,13.361c-7.16,1.021-14.227,2.834-21.409,3.525
	c-4.529,0.436-9.282-0.088-13.78-0.971c-13.127-2.576-27.117-2.15-38.752-10.189c-4.576-3.16-9.159-6.594-10.683-12.449
	c-0.672-2.584,0.079-4.543,3.183-3.873c6.589,1.422,13.167,2.936,19.67,4.703c9.689,2.633,19.164,6.469,29.008,7.992
	c7.834,1.213,16.304,0.809,24.105-0.777c15.582-3.17,31.044-7.158,46.287-11.709c17.785-5.307,35.149-12.033,52.957-17.256
	c10.771-3.158,21.982-4.955,33.098-6.73c6.3-1.006,12.809-1.016,19.216-0.914c3.361,0.053,6.795,1.029,10.042,2.068
	c13.602,4.355,25.966,10.018,35.17,22.197c6.181,8.182,12.423,17.521,23.068,21.076c5.812,1.938,11.975,3.809,18.006,3.895
	c11.064,0.154,21.742,1.703,32.406,4.496c8.729,2.287,17.565,2.336,25.957-1.857c0.893-0.445,1.711-1.045,2.618-1.453
	C434.198,585.135,436.201,586.172,437.539,595.109z"/>
<path fill-rule="evenodd" clip-rule="evenodd" d="M438.018,362.324c4.609-0.907,8.775-1.773,12.961-2.519
	c1.018-0.181,2.107,0.036,3.164,0.07c-0.072,1.222,0.357,2.971-0.289,3.581c-6.119,5.763-3.709,12.25-1.877,18.719
	c0.088,0.313,0.445,0.594,0.439,0.886c-0.18,9.472,0.264,19.023-0.881,28.38c-0.537,4.391-5.789,5.85-10.137,6.539
	c-2.395,0.381-10.498-2.721-13.045-4.41c-6.816-4.527-13.43-9.508-20.721-13.1c-2.959-1.457-7.465,0.197-11.264,0.486
	c-6.92,0.531-8.727,6.246-11.102,11.25c-0.309,0.652,0.451,2.082,1.076,2.867c8.617,10.82,17.199,21.672,26.006,32.338
	c4.533,5.492,11.023,5.73,17.607,6.285c3.533,0.299,7.021,2.621,10.164,4.607c0.531,0.336-0.604,3.689-1.367,5.477
	c-0.258,0.605-1.725,0.887-2.672,0.977c-6.896,0.646-13.799,1.207-20.771,1.801c-2.572-6.316-7.125-10.83-13.564-13.805
	c-9.381-4.336-18.564-9.098-27.844-13.654c-5.348-2.627-10.754-5.133-16.064-7.832c-3.936-2.002-7.998-3.902-11.514-6.508
	c-1.557-1.152-1.898-3.943-2.977-6.416c-4.963,3.318-10.957,0.486-16.795-0.475c-4.5-0.742-7.076,1.283-9.547,4.141
	c-4.402,5.088-8.561,10.393-13.061,15.391c-2.715,3.014-2.891,5.701-0.32,8.768c1.9,2.266,3.361,5.01,5.586,6.861
	c1.742,1.451,4.318,1.969,6.588,2.707c6.742,2.197,6.756,2.16,6.713,10.611c-6.561,0-13.152,0.076-19.738-0.09
	c-0.893-0.021-1.982-1.086-2.596-1.943c-5.225-7.33-10.422-14.684-15.434-22.158c-0.541-0.809-0.244-2.668,0.328-3.656
	c4.123-7.109,9.824-13.434,10.578-22.168c0.352-4.09,0.541-8.236,1.387-12.232c1.377-6.518-3.645-9.846-6.678-14.021
	c-3.463-4.766-7.49-9.152-11.537-13.455c-3.484-3.707-7.309-7.099-11.045-10.563c-2.592-2.402-4.086-0.49-6.219,1.214
	c-5.004,4-10.244,7.795-15.763,11.032c-3.622,2.125-7.897,3.142-11.886,4.637c-12.794,4.798-26.177,4.731-39.551,4.971
	c-1.752,0.031-4.406,1.07-5.064,2.415c-4.119,8.414-7.513,17.191-11.736,25.549c-1.957,3.873-4.838,7.516-8.036,10.465
	c-3.727,3.438-11.196,0.934-12.642-4.023c-0.992-3.406-1.158-7.055-1.727-10.811c8.941,0.047,12.095-6.645,16.215-11.754
	c2.863-3.551,5.07-7.686,7.227-11.742c2.194-4.13-0.023-8.838-4.691-9.818c-6.128-1.288-12.206-1.241-17.5,2.892
	c-5.333,4.163-10.589,8.421-15.955,12.54c-9.905,7.598-20.73,13.08-33.581,12.102c-2.48-0.189-5.64-2.826-6.856-5.176
	c-1.33-2.572,3.254-7.23,6.604-7.66c4.694-0.602,9.37-1.371,14.074-1.865c7.239-0.758,12.239-5.104,16.837-10.159
	c8.451-9.295,16.885-18.604,24.924-27.464c5.545,4.01,10.569,7.914,15.879,11.384c3.214,2.101,6.081,1.868,7.816-2.489
	c0.881-2.208,2.916-3.952,4.41-5.92c2.04-2.686,4.172-2.797,6.56-0.399c1.748,1.757,3.4,3.789,5.509,4.946
	c1.495,0.821,4.133,1.123,5.434,0.319c1.408-0.871,2.488-3.253,2.607-5.049c0.424-6.365-0.248-12.852,0.654-19.125
	c1.228-8.541,8.279-13.139,14.385-18.159c1.593-1.31,3.438-2.312,5.168-3.454c-0.13-0.425-0.259-0.85-0.389-1.273
	c-8.472,0.45-16.94,0.97-25.417,1.33c-8.049,0.342-16.105,0.534-24.159,0.76c-8.395,0.236-16.801,0.802-25.184,0.567
	c-12.996-0.362-26.019-0.852-38.949-2.113c-8.814-0.86-17.583-2.75-26.206-4.86c-10.979-2.686-22.065-5.367-32.544-9.479
	c-4.203-1.65-7.065-6.985-10.18-10.926c-0.627-0.793-0.066-3.206,0.75-4.234c0.589-0.743,2.712-0.937,3.801-0.501
	c24.137,9.679,28.37,13.515,14.889,6.6c14.454,7.417,29.657,11.855,45.942,12.711c7.189,0.379,14.328,1.843,21.517,2.114
	c14.125,0.534,28.271,0.83,42.405,0.753c13.696-0.075,27.388-0.924,41.085-1.095c13.344-0.167,26.749-0.635,40.018,0.415
	c9.439,0.747,18.527,3.955,26.725,9.457c11.625,7.804,24.018,14.498,35.41,22.607c12.316,8.765,26.146,8.868,40.199,9.968
	c5.945,0.466,11.881,3.602,17.406,6.357c9.336,4.658,18.746,7.121,29.414,6.692c8.051-0.323,15.189-1.719,22.264-5.529
	c5.809-3.128,6.428-2.462,7.926,3.762C437.749,360.175,437.795,360.833,438.018,362.324z"/>
<path fill-rule="evenodd" clip-rule="evenodd" d="M270.429,1420.628c9.457,4.66,18.348,9.403,27.561,13.404
	c3.749,1.629,8.203,1.617,12.323,2.422c1.135,0.222,2.233,0.656,3.325,1.061c7.615,2.819,8.311,6.017,2.602,11.894
	c-3.252,3.35-10.51,4.428-14.495,1.807c-3.214-2.114-6.028-4.83-9.206-7.008c-2.012-1.381-4.274-2.524-6.58-3.327
	c-8.879-3.09-17.859-5.892-26.725-9.021c-4.739-1.672-8.299-0.786-10.973,3.579c-4.314,7.043-11.229,9.725-18.881,11.38
	c-3.353,0.727-6.533,2.249-9.793,3.409c0.02,0.579,0.039,1.159,0.059,1.738c4.426,2.537,8.641,5.638,13.354,7.398
	c2.757,1.03,6.577,0.658,9.458-0.371c7.123-2.545,13.143-1.903,16.449,2.66c3.138,4.334,1.709,8.776-3.302,10.331
	c-6.127,1.9-12.265,2.055-18.448,0.256c-0.943-0.274-2.01-0.429-2.969-0.291c-8.487,1.214-14.436-3.959-20.861-8.074
	c-6.227-3.988-12.601-7.751-19.706-12.1c4.858-5.887,9.148-11.814,14.182-17.024c8.758-9.064,9.584-12.8,4.55-24.503
	c-5.035-11.705-6.689-24.163-6.025-36.709c0.236-4.445,3.493-8.729,5.826-14.145c-10.588-6.356-21.219-12.916-32.031-19.163
	c-5.973-3.45-12.199-6.479-18.398-9.522c-14.342-7.044-29.657-6.011-44.937-5.262c-6.756,0.331-13.534,0.897-20.274,0.645
	c-6.914-0.26-13.816-1.219-20.682-2.18c-10.012-1.401-19.277-4.171-23.084-15.896c0.634-2.817,2.448-2.909,5.867-1.807
	c6.537,2.107,13.279,3.779,20.06,4.893c8.442,1.387,17.013,2.858,25.519,2.791c12.794-0.101,25.576-1.563,38.371-2.287
	c1.906-0.108,3.907,0.494,5.785,1.042c15.318,4.471,29.395,11.577,42.852,20.069c7.5,4.734,15.113,9.321,22.908,13.546
	c2.948,1.6,6.297,2.277,9.096-1.515c6.189-8.388,16.125-11.074,24.831-15.677c14.174-7.493,29.274-12.053,45.111-13.262
	c7.69-0.587,15.803,0.49,23.316,2.41c9.333,2.385,17.969,3.593,26.603-1.916c2.98-1.901,6.462-3.504,9.902-4.043
	c2.783-0.436,5.988,0.563,8.744,1.614c2.199,0.838,3.467,0.611,5.729-0.306c5.862-2.378,12.089-4.103,18.324-5.256
	c9.277-1.716,18.693-2.685,28.035-4.071c0.902-0.134,1.746-0.909,2.539-1.492c1.339-0.986,2.583-2.104,3.928-3.084
	c6.358-4.639,9.58-3.599,11.707,4.544c4.92-1.909,9.749-3.783,15.713-6.097c-0.166,2.289,0.266,4.437-0.531,5.932
	c-3.556,6.681-1.631,12.688,1.64,18.67c0.606,1.109,1.818,2.477,1.557,3.377c-1.986,6.832-0.447,13.373,1.02,20.002
	c1.282,5.791-0.853,8.834-7.146,12.129c-2.848,1.491-6.131,2.482-9.316,2.856c-1.495,0.176-3.289-1.547-4.836-2.579
	c-2.654-1.771-5.112-3.86-7.855-5.471c-3.065-1.801-6.238-3.561-9.579-4.725c-5.321-1.855-10.8-3.284-16.263-4.696
	c-1.085-0.281-2.656-0.048-3.566,0.581c-6.476,4.475-12.872,9.066-19.222,13.721c-3.483,2.555-4.864,6.469-2.765,9.971
	c2.736,4.563,6.092,9.15,10.227,12.396c8.086,6.347,8.387,9.571,0.68,16.051c-3.84,3.229-7.23,7.139-10.232,11.181
	c-4.42,5.95-14.548,7.469-19.844,2.355c-0.912-0.88-1.667-2.713-1.417-3.874c1.216-5.646,11.7-8.869,16.493-4.474
	c2.793-3.11,5.579-6.215,8.814-9.816c-12.223-5.343-23.422-10.477-36.229-9.92c-1.324,0.058-2.676,0.009-3.988-0.175
	c-12.879-1.799-15.209,0.703-23.197,12.489c-3.231,4.768-6.746,8.472-12.438,10.637c-5.937,2.257-11.259,6.115-16.877,9.226
	C278.99,1416.073,275.117,1418.107,270.429,1420.628z"/>
<path fill-rule="evenodd" clip-rule="evenodd" d="M425.57,830.747c4.185-1.459,7.807-2.851,11.516-3.946
	c1.373-0.406,2.95-0.117,4.434-0.146c-0.158,1.346,0.199,3.269-0.557,3.947c-6.217,5.576-1.947,11.596-0.526,17.135
	c1.218,4.75,2.432,9.09,0.991,14.052c-0.693,2.386-0.334,5.374,0.411,7.827c2.505,8.237-1.428,14.661-9.963,15.942
	c-1.659,0.249-3.161,1.522-4.821,1.79c-1.379,0.223-3.176,0.102-4.284-0.631c-4.376-2.888-8.497-6.16-12.825-9.125
	c-2.867-1.965-6.112-3.408-8.859-5.512c-6.06-4.638-11.961-2.206-17.048,0.994c-7.433,4.676-13.892,10.905-21.341,15.551
	c-5.316,3.313-11.67,4.911-17.393,7.629c-8.108,3.85-16.413,7.463-23.996,12.199c-10.198,6.37-20.215,12.564-32.797,12.436
	c-1.906-0.02-3.815,0.418-6.638,0.754c8.904,10.773,14.621,21.266,3.396,33.217c-1.837-0.717-3.803-1.396-5.696-2.242
	c-3.666-1.633-4.926-5.373-3.251-9.396c2.07-4.975,1.278-7.523-3.603-10.496c-2.603,6.5-7.112,11.34-13.114,14.85
	c-3.788,2.215-11.578,2.297-14.78-0.658c-0.861-0.795-1.646-3.131-1.198-3.637c2.063-2.328,4.28-4.932,7.016-6.123
	c2.283-0.996,6.591,0.965,7.835-0.385c2.828-3.063,4.891-7.174,6.199-11.205c1.319-4.068-2.317-5.754-5.459-6.869
	c-3.747-1.328-7.634-2.256-10.753-3.154c-0.691,4.023-0.881,8.369-2.258,12.303c-1.623,4.631-5.999,6.168-10.445,5.246
	c-2.084-0.432-4.162-2.764-5.446-4.748c-2.146-3.316-0.677-8.254,2.888-8.928c5.111-0.967,4.838-4.281,3.518-7.287
	c-2.296-5.227-5.131-10.279-8.262-15.061c-3.151-4.816-7.016-9.158-10.423-13.815c-2.53-3.46-1.493-5.583,2.586-6.964
	c3.702-1.254,8.348-1.569,9.441-6.45c-11.598-10.866-10.972-23.958-7.114-38.825c-6.9,2.408-12.916,4.404-18.854,6.608
	c-6.277,2.329-12.404,5.081-18.735,7.247c-10.124,3.463-20.226,7.145-30.59,9.719c-11.482,2.85-23.197,5.945-35.163,4.191
	c-12.68-1.859-25.42-3.922-37.759-7.271c-8.355-2.269-14.645-8.604-18.979-16.302c-1.624-2.883-0.083-4.783,2.984-4.259
	c5.822,0.995,11.791,1.878,17.283,3.927c15.634,5.832,31.617,11.185,48.297,9.071c14.706-1.864,29.167-6.136,43.533-10.079
	c13.11-3.599,25.837-8.594,38.945-12.209c11.729-3.236,22.064-8.98,31.908-15.735c10.057-6.902,21.051-11.462,33.124-11.585
	c10.656-0.109,21.059,2.764,31.446,5.543c12.158,3.254,20.361,11.688,29.056,19.57c8.168,7.404,17.137,12.838,28.412,12.416
	c12.862-0.483,25.736-1.372,38.52-2.831c3.834-0.438,7.245-3.784,11.094-5.073C424.163,821.72,424.876,822.381,425.57,830.747z
	 M280.435,887.648c-6.944,4.85-12.641,8.828-18.665,13.034c2.599,3.032,5.101,5.949,8.345,9.733
	C272.371,902.123,279.523,897.191,280.435,887.648z M295.063,907.149c-0.223-0.601-0.444-1.201-0.667-1.802
	c-3.215,1.15-6.431,2.301-9.645,3.452c0.234,0.63,0.469,1.261,0.703,1.892C288.658,909.51,291.861,908.33,295.063,907.149z"/>
<path fill-rule="evenodd" clip-rule="evenodd" d="M425.647,1053.891c0.617,3.049,1.064,5.268,1.685,8.336
	c4.368-1.412,8.655-2.844,12.978-4.16c0.867-0.264,2.366-0.473,2.694-0.041c0.585,0.771,1.012,2.328,0.61,3.076
	c-3.986,7.426-4.021,14.51,1.265,21.359c0.364,0.473,0.559,1.367,0.382,1.92c-2.367,7.396-0.475,14.666,0.627,21.939
	c0.705,4.666-2.259,7.379-5.49,9.229c-3.46,1.982-7.486,3.191-11.418,4.004c-1.345,0.277-3.244-1.539-4.719-2.629
	c-2.243-1.658-4.167-3.797-6.531-5.229c-4.717-2.855-9.6-5.451-14.502-7.982c-1.725-0.891-3.688-1.348-5.574-1.891
	c-6.23-1.791-11.771-0.697-16.989,3.373c-7.92,6.178-16.663,10.924-23.693,18.697c-7.967,8.807-16.784,17.92-30.695,17.895
	c-2.925-0.004-6.12,2.977-8.737,5.133c-7.666,6.322-13.946,14.873-25.402,14.686c-1.785-0.027-3.582,0.568-5.797,0.949
	c-0.867,8.016,2.65,14.289,7.648,19.561c8.812,9.293,19.951,13.688,32.774,13.832c4.456,0.049,6.716,2.15,6.284,6.869
	c-0.162,1.77-0.049,3.695,0.484,5.375c1.321,4.164-1.158,4.547-4.146,4.52c-2.18-0.02-4.443-0.604-6.521-0.188
	c-5.045,1.012-8.15-1.752-11.903-4.447c-5.44-3.906-11.786-6.525-17.56-10.004c-6.165-3.715-12.254-7.596-18.083-11.809
	c-2.134-1.543-4.292-4.025-4.93-6.473c-1.577-6.057-2.282-12.34-3.583-19.98c-3.78,0.855-7.678,0.855-10.566,2.563
	c-6.96,4.115-14.643,3.869-22.047,4.201c-9.85,0.443-19.762-0.432-29.643-0.84c-1.749-0.07-3.555-0.414-5.201-1.002
	c-6.001-2.146-6.35-3.965-1.488-8.109c6.439-5.492,12.865-8.838,21.873-4.289c6.93,3.502,14.604,1.922,21.561-1.842
	c-4.695-0.938-9.334-1.527-13.727-2.906c-1.781-0.559-4.373-3.016-4.199-4.279c0.265-1.934,2.371-3.877,4.125-5.281
	c2.138-1.711,4.938-2.598,7.063-4.32c4.591-3.719,4.266-6.732,0.401-11.09c-5.48-6.176-10.982-12.463-15.425-19.377
	c-2.255-3.51-2.364-8.469-3.143-12.826c-0.464-2.592-0.343-5.287-0.424-6.793c-9.66-1.85-18.842-3.951-28.134-5.293
	c-9.867-1.426-19.851-2.953-29.762-2.826c-5.445,0.07-10.816,3.549-16.275,5.324c-10.976,3.568-21.627,8.477-33.66,7.541
	c-10.357-0.805-20.918-0.322-31.058-2.195c-8.128-1.502-16.443-4.795-19.378-14.277c-0.375-1.211-0.473-2.506-0.895-4.846
	c2.988,0.861,5.232,1.498,7.472,2.156c11.058,3.254,21.772,6.822,33.784,6.98c14.627,0.193,27.46-4.646,40.875-8.836
	c9.586-2.992,19.603-5.146,30.027-3.877c14.277,1.736,28.637,2.787,42.939,4.318c5.818,0.623,10.083,0.023,13.932-5.773
	c4.922-7.414,12.488-12.549,21.131-15.611c5.117-1.813,10.311-3.463,15.289-5.604c7.047-3.035,14.258-1.996,21.297-0.898
	c8.67,1.35,16.248,5.844,23.656,10.344c5.918,3.594,11.437,7.879,17.508,11.166c2.7,1.463,6.307,1.504,9.53,1.691
	c4.626,0.271,9.366-0.469,13.894,0.254c4.431,0.705,8.64,2.75,12.979,4.104c1.264,0.393,2.682,0.748,3.954,0.576
	c8.949-1.193,17.922-2.289,26.802-3.891c8.422-1.52,17.496-0.582,24.758-6.93C418.76,1055.355,422.272,1055.072,425.647,1053.891z"
	/>
</svg>
