<?xml version="1.0" encoding="utf-8"?>
<!-- Generator: Adobe Illustrator 16.0.0, SVG Export Plug-In . SVG Version: 6.00 Build 0)  -->
<!DOCTYPE svg PUBLIC "-//W3C//DTD SVG 1.1//EN" "http://www.w3.org/Graphics/SVG/1.1/DTD/svg11.dtd">
<svg version="1.1" id="Layer_1" xmlns="http://www.w3.org/2000/svg" xmlns:xlink="http://www.w3.org/1999/xlink" x="0px" y="0px"
	 width="6000px" height="600px" viewBox="-1500 0 6000 600" enable-background="new -1500 0 6000 600" xml:space="preserve">
<linearGradient id="SVGID_1_" gradientUnits="userSpaceOnUse" x1="5421.8633" y1="535.2998" x2="5421.8633" y2="535.2998" gradientTransform="matrix(1 0 0 -1 0 601)">
	<stop  offset="0" style="stop-color:#3F230A"/>
	<stop  offset="1.348937e-002" style="stop-color:#3B2109"/>
	<stop  offset="0.1003" style="stop-color:#251506"/>
	<stop  offset="0.2021" style="stop-color:#140B03"/>
	<stop  offset="0.3288" style="stop-color:#090501"/>
	<stop  offset="0.5065" style="stop-color:#020100"/>
	<stop  offset="1" style="stop-color:#000000"/>
</linearGradient>
<path fill="url(#SVGID_1_)" d="M5421.9,65.7"/>
<linearGradient id="SVGID_2_" gradientUnits="userSpaceOnUse" x1="1501.001" y1="116.2607" x2="1501.001" y2="599.1698">
	<stop  offset="0" style="stop-color:#3F230A"/>
	<stop  offset="1.348937e-002" style="stop-color:#3B2109"/>
	<stop  offset="0.1003" style="stop-color:#251506"/>
	<stop  offset="0.2021" style="stop-color:#140B03"/>
	<stop  offset="0.3288" style="stop-color:#090501"/>
	<stop  offset="0.5065" style="stop-color:#020100"/>
	<stop  offset="1" style="stop-color:#000000"/>
</linearGradient>
<path fill="url(#SVGID_2_)" d="M4500,197c-13.5,10.8-28.2,19.8-45.7,24.6c-15.5,4.3-32.1,9.9-46.5,3.3
	c-16.1-7.4-33.7-31.8-45.3-44.4c-14.3-15.6-22.6-38-44.2-31.2c-14.1,4.5-28.3,17.8-40.1,26.3c-32,23-63,42.3-92.8,68.3
	c-22,19.2-53,39.9-82.6,44.8c-19.2,3.2-35.8-3.1-51.4-13.9c-18.7-12.9-30.8-31.8-47.3-47c-9.4-8.6-21.7-14.6-30.3-24.1
	c-5.1-5.6-7.1-14.3-12.4-19.5c-17.3-16.7-34.4-3.3-56.7-2.3c-24.3,1.1-55.2,4.1-79-1.4c-30.2-7-51.2-33.2-72-54.7
	c-21.3-22-32.8-29.1-63.7-24.8c-50.6,6.9-90,40.4-129.6,70.1c-23.1,17.3-60.5,52.3-91.3,47.6c-13.3-2.1-26.8-10.5-38.4-19.4
	c-21.2-16.4-44.5-25.5-66.9-40.3c-30.8-20.3-40.1-25.6-79.4-14.6c-40.1,11.3-69.8,28.9-100,57.2c-39.7,37.2-80.2,73.5-119.7,110.9
	c-17.4,16.5-32.5,35.9-51.9,50.2c-6.2,4.6-11.3,7-15.4,9.6c-15.2-29.2-130.7-183.5-140.1-170.9c-16.3-8.7-24.2-32.2-32.1-48
	c-17.1,12.4-23.7,34.9-39.7,47.8c-5.9-5.9-12.6-11.6-17.9-18.1c-5.6-6.9-10.6-23.6-18.2-28c-9.7-5.7-9.8-5-21.1,1.5
	s-24.8,35.9-37.5,36c-13.6,0.1-18.6-21-27.6-28.1c-6.5-5.1-15.1-6-19.8-10.8c-5.6-5.7-7.9-15.2-12.4-21.8
	c-6-8.9-20.1-31.3-31.4-32.5c-11.2-1.1-35.8,26.3-41.7,33c-10.9,12.6-11.6,19.9-29,15.7c-8-1.9-19.3-10.8-25.9-15.9
	c-9.8-7.5-19.8-17.7-29.3-26.2c-12.3-11.1-24.8-32.9-39.4-40.3c-14-7.1-22.3,5.9-34.4,17.7c-9,8.8-78.9,34.8-79.5,26.5
	c-16.5,6.3-34.6,9.3-50.9,16.1c-19.3,7.9-33.7,25.2-46.6,41.9c-4.8,6.2-12,26.4-21.5,25.9c-19.8-1-25-61.9-52.4-61.2
	c-25.3,0.6-59,31.6-70.5,19c-18.1-19.8-36.5-43.8-50.4-66.3c-23.4,9.3-46.6,31.7-70.4,43.2c-13.9,6.7-18.9,11.8-28.6,23.4
	c-18.9,22.9-42.9,43.1-65.3,62.6c-19.9,17.3-46.4,36.4-74,29.9c-24.5-5.8-44.7-29.5-62.7-45.5c-26.8-23.8-42.7-76.7-80.1-80.2
	c-83-7.8-108.2,83-180.3,102.9c-15.5,4.3-32.1,9.9-46.5,3.3c-16.1-7.4-33.7-31.8-45.3-44.4c-14.3-15.6-22.6-38-44.2-31.2
	c-14.1,4.5-28.3,17.8-40.1,26.3c-32,23-63,42.3-92.8,68.3c-22,19.2-53,39.9-82.6,44.8c-19.2,3.2-35.8-3.1-51.4-13.9
	c-18.7-12.9-30.8-31.8-47.3-47c-9.4-8.6-21.7-14.6-30.3-24.1c-5.1-5.6-7.1-14.3-12.4-19.5c-17.3-16.7-34.4-3.3-56.7-2.3
	c-24.3,1.1-55.2,4.1-79-1.4c-30.2-7-51.2-33.2-72-54.7c-21.3-22-32.8-29.1-63.7-24.8c-50.6,6.9-90,40.4-129.6,70.1
	c-23.1,17.3-60.5,52.3-91.3,47.6c-13.3-2.1-26.8-10.5-38.4-19.4c-21.2-16.4-44.5-25.5-66.9-40.3c-30.8-20.3-40.1-25.6-79.4-14.6
	c-40.1,11.3-69.8,28.9-100,57.2C157,238.8,116.5,275.1,77,312.5c-17.4,16.5-32.5,35.9-51.9,50.2c-7.2,5.3-12.9,7.7-17.3,10.8
	c-4.5-3.7-10.6-5.9-18.6-11.8c-19.4-14.3-34.5-33.7-51.9-50.2c-39.5-37.4-80-73.7-119.7-110.9c-30.2-28.3-59.9-45.9-100-57.2
	c-39.3-11-48.6-5.7-79.4,14.6c-22.4,14.8-45.7,23.9-66.9,40.3c-11.6,8.9-25.1,17.3-38.4,19.4c-30.8,4.7-68.2-30.3-91.3-47.6
	c-39.6-29.7-79-63.2-129.6-70.1c-30.9-4.3-42.4,2.8-63.7,24.8c-20.8,21.5-41.8,47.7-72,54.7c-23.8,5.5-54.7,2.5-79,1.4
	c-22.3-1-39.4-14.4-56.7,2.3c-5.3,5.2-7.3,13.9-12.4,19.5c-8.6,9.5-20.9,15.5-30.3,24.1c-16.5,15.2-28.6,34.1-47.3,47
	c-15.6,10.8-32.2,17.1-51.4,13.9c-29.6-4.9-60.6-25.6-82.6-44.8c-29.8-26-60.8-45.3-92.8-68.3c-11.8-8.5-26-21.8-40.1-26.3
	c-21.6-6.8-29.9,15.6-44.2,31.2c-11.6,12.6-29.2,37-45.3,44.4c-14.4,6.6-31,1-46.5-3.3c-17.5-4.8-32.3-13.8-45.7-24.6l0,404H-1
	c0,0.3,0,0.7,0,1h2987.7h12.3h1501L4500,197z"/>
</svg>
