<?xml version="1.0" encoding="utf-8"?>
<!-- Generator: Adobe Illustrator 16.0.0, SVG Export Plug-In . SVG Version: 6.00 Build 0)  -->
<!DOCTYPE svg PUBLIC "-//W3C//DTD SVG 1.1//EN" "http://www.w3.org/Graphics/SVG/1.1/DTD/svg11.dtd">
<svg version="1.1" id="Layer_1" xmlns="http://www.w3.org/2000/svg" xmlns:xlink="http://www.w3.org/1999/xlink" x="0px" y="0px"
	 width="6000px" height="600px" viewBox="-1500 0 6000 600" enable-background="new -1500 0 6000 600" xml:space="preserve">
<linearGradient id="SVGID_1_" gradientUnits="userSpaceOnUse" x1="1499.9995" y1="216.1982" x2="1499.9995" y2="612.5256">
	<stop  offset="0" style="stop-color:#5A3134"/>
	<stop  offset="0.1209" style="stop-color:#422321"/>
	<stop  offset="0.2601" style="stop-color:#2F1913"/>
	<stop  offset="0.4218" style="stop-color:#211108"/>
	<stop  offset="0.6248" style="stop-color:#190C02"/>
	<stop  offset="1" style="stop-color:#170B00"/>
</linearGradient>
<path fill="url(#SVGID_1_)" d="M4500,601l0-288.9c-37-17-79-34.8-95.2-35.8c-30.5-1.9-127.3,58.5-162.3,40.6
	c-40.5-20.7-71.7-77.8-123.3-68.5c-27.9,5-45.5,38.2-69.7,54.2c-31.5,20.9-64.3,10.8-98.6,5.8c-34.6-5.1-56.5,9.1-87.5,20.5
	c-18.1,6.7-31.2,1.7-47.4,4.5c-9.7,1.7-67.1,14.3-67.1,14.3c-17-1-80.8-56.3-105.8-48.4c-20.8,6.6-34.5,29.9-58.5,35.1
	c-22.4,4.9-46.6-1.9-68.8,5.5c-3.1,1-36.8,11.1-49.9,4.1c-13.1-7-14.6-20-19.9-27c-11.4-14.8-22.9-27.6-37-39.8
	c-20.5-17.6-22.4-22.3-40.9-3.5c-21,21.4-51.2,76.5-88.8,65.9c-20.4-5.8-36.4-36.4-60-36.6c-15.3-0.1-27.6,17.6-36.5,30.1
	c-24.1,33.8-61.6-68.7-108.4-66.3c-33.9,1.7-68.4,76.7-74.4,76.7c-6,0-40.5-75-74.4-76.7c-46.8-2.4-84.3,100.1-108.4,66.3
	c-8.9-12.5-21.2-30.2-36.5-30.1c-23.6,0.2-39.6,30.8-60,36.6c-37.6,10.6-67.8-44.5-88.8-65.9c-18.5-18.8-20.4-14.1-40.9,3.5
	c-14.1,12.2-25.6,25-37,39.8c-5.3,7-6.8,20-19.9,27c-13.1,7-46.8-3.1-49.9-4.1c-22.2-7.4-46.4-0.6-68.8-5.5
	c-24-5.2-37.7-28.5-58.5-35.1c-25-7.9-88.8,47.4-105.8,48.4c0,0-57.4-12.6-67.1-14.3c-16.2-2.8-29.3,2.2-47.4-4.5
	c-31-11.4-52.9-25.6-87.5-20.5c-34.3,5-67.1,15.1-98.6-5.8c-24.2-16-41.8-49.2-69.7-54.2c-51.6-9.3-82.8,47.8-123.3,68.5
	c-35,17.9-131.8-42.5-162.3-40.6c-31.5,2-160.4,67.2-160.4,67.2c-4.3-0.9-8.1-2.1-11.4-3.8c-19.3-9.9-29.5-45.2-39.7-63.6
	c-9.5-17.2-11.2-20.6-31.3-20.6c-16.7,0-30.3,2.6-45.7,8.7c-26.7,10.5-49.4,29-72.6,45.5c-23.9,17.1-45.7,35.8-77,33.5
	c-12.4-0.9-36.5-12.1-37.2-13.7c-6.2-1.2-122.5-35.8-154.8-59.4c-28.6-20.9-48.3-56.4-74-80.7c-10-9.5-22.2-23.7-37.5-19.5
	c-8,2.2-13,11.9-19.5,16.1c-13.5,8.6-31.2,13.1-46.3,18.1c-27.6,9.2-40.6,24-62.9,42.9c-33.8,28.5-74.2,84.6-125.1,73.8
	c-21.8-4.6-28.8-9.5-52.3-6.3c-20.9,2.9-43.3,3.9-63.5,10.4c-12.5,4-24.7,12.7-38.7,9.8c-16.7-3.5-28.9-22.6-38.4-35.7
	c-11.7-16-13.6-24.7-32.7-16.6c-19.7,8.3-35.5,20.4-57.3,27.2c-22.7,7.1-57,26.7-80.4,18.1c-15.2-5.6-22.6-22.9-31.3-35.2
	c-16.5-23.3-35.6-58.4-65.4-63.1c-29.7-4.7-58.9,6.2-78.3,28.2C49,271.2,18.2,338.7,0,343.3v-0.8c-6,0-40.5-75-74.4-76.7
	c-46.8-2.4-84.3,100.1-108.4,66.3c-8.9-12.5-21.2-30.2-36.5-30.1c-23.6,0.2-39.6,30.8-60,36.6c-37.6,10.6-67.8-44.5-88.8-65.9
	c-18.5-18.8-20.4-14.1-40.9,3.5c-14.1,12.2-25.6,25-37,39.8c-5.3,7-6.8,20-19.9,27c-13.1,7-46.8-3.1-49.9-4.1
	c-22.2-7.4-46.4-0.6-68.8-5.5c-24-5.2-37.7-28.5-58.5-35.1c-25-7.9-88.8,47.4-105.8,48.4c0,0-57.4-12.6-67.1-14.3
	c-16.2-2.8-29.3,2.2-47.4-4.5c-31-11.4-52.9-25.6-87.5-20.5c-34.3,5-67.1,15.1-98.6-5.8c-24.2-16-41.8-49.2-69.7-54.2
	c-51.6-9.3-82.8,47.8-123.3,68.5c-35,17.9-131.8-42.5-162.3-40.6c-16.2,1-58.2,18.8-95.2,35.8l0,288.9"/>
</svg>
