<?xml version="1.0" encoding="UTF-8" standalone="no"?>
<!-- Created with Inkscape (http://www.inkscape.org/) -->

<svg
   width="614.16602"
   height="230"
   viewBox="0 0 162.49809 60.854163"
   version="1.1"
   id="svg1"
   inkscape:version="1.4 (e7c3feb100, 2024-10-09)"
   sodipodi:docname="dp-decorator.svg"
   xmlns:inkscape="http://www.inkscape.org/namespaces/inkscape"
   xmlns:sodipodi="http://sodipodi.sourceforge.net/DTD/sodipodi-0.dtd"
   xmlns:xlink="http://www.w3.org/1999/xlink"
   xmlns="http://www.w3.org/2000/svg"
   xmlns:svg="http://www.w3.org/2000/svg"
   xmlns:rdf="http://www.w3.org/1999/02/22-rdf-syntax-ns#"
   xmlns:cc="http://creativecommons.org/ns#"
   xmlns:dc="http://purl.org/dc/elements/1.1/">
  <title
     id="title38">Decorator design pattern illustration in Lua</title>
  <sodipodi:namedview
     id="namedview1"
     pagecolor="#ffffff"
     bordercolor="#666666"
     borderopacity="1.0"
     inkscape:showpageshadow="2"
     inkscape:pageopacity="0.0"
     inkscape:pagecheckerboard="false"
     inkscape:deskcolor="#d1d1d1"
     inkscape:document-units="px"
     showguides="true"
     inkscape:clip-to-page="false"
     inkscape:zoom="1.8101934"
     inkscape:cx="162.6898"
     inkscape:cy="127.61068"
     inkscape:window-width="1920"
     inkscape:window-height="1015"
     inkscape:window-x="0"
     inkscape:window-y="41"
     inkscape:window-maximized="1"
     inkscape:current-layer="layer1"
     labelstyle="default"
     shape-rendering="auto"
     showgrid="false">
    <inkscape:page
       x="0"
       y="0"
       width="162.49809"
       height="60.854164"
       id="page38"
       margin="6.6145835"
       bleed="0" />
    <inkscape:grid
       id="grid3"
       units="px"
       originx="0"
       originy="0"
       spacingx="0.26458332"
       spacingy="0.26458334"
       empcolor="#0099e5"
       empopacity="0.30196078"
       color="#0099e5"
       opacity="0.14901961"
       empspacing="5"
       dotted="false"
       gridanglex="30"
       gridanglez="30"
       visible="false" />
    <sodipodi:guide
       position="39.849885,78.528375"
       orientation="1,0"
       id="guide4"
       inkscape:locked="false" />
  </sodipodi:namedview>
  <defs
     id="defs1">
    <rect
       x="269.22635"
       y="250.03131"
       width="50.828598"
       height="118.98248"
       id="rect23" />
    <rect
       x="47.85817"
       y="44.415749"
       width="544.3349"
       height="137.24828"
       id="rect4" />
    <color-profile
       name="Blue"
       xlink:href="file:///usr/share/color/icc/colord/Bluish.icc"
       id="color-profile2" />
    <rect
       x="24.769148"
       y="355.17749"
       width="136.69324"
       height="70.648178"
       id="rect2" />
    <rect
       x="24.769148"
       y="355.17749"
       width="136.69324"
       height="70.648178"
       id="rect2-2" />
    <rect
       x="24.769148"
       y="355.17749"
       width="136.69324"
       height="70.648178"
       id="rect2-2-6" />
    <rect
       x="24.769148"
       y="355.17749"
       width="136.69324"
       height="70.648178"
       id="rect2-2-6-1" />
    <rect
       x="24.769148"
       y="355.17749"
       width="136.69324"
       height="70.648178"
       id="rect2-2-6-1-3" />
    <rect
       x="24.769148"
       y="355.17749"
       width="136.69324"
       height="70.648178"
       id="rect2-9" />
    <rect
       x="24.769148"
       y="355.17749"
       width="151.59375"
       height="69.811035"
       id="rect2-29" />
    <rect
       x="24.769148"
       y="355.17749"
       width="151.59375"
       height="69.811035"
       id="rect2-29-1" />
    <rect
       x="24.769148"
       y="355.17749"
       width="136.69324"
       height="70.648178"
       id="rect2-9-0" />
    <rect
       x="24.769148"
       y="355.17749"
       width="136.69324"
       height="70.648178"
       id="rect2-8" />
    <rect
       x="24.769148"
       y="355.17749"
       width="136.69324"
       height="70.648178"
       id="rect2-8-6" />
    <rect
       x="24.769148"
       y="355.17749"
       width="136.69324"
       height="70.648178"
       id="rect2-8-64" />
    <rect
       x="24.769148"
       y="355.17749"
       width="136.69324"
       height="70.648178"
       id="rect2-8-7" />
    <rect
       x="24.769148"
       y="355.17749"
       width="136.69324"
       height="70.648178"
       id="rect2-8-2" />
    <rect
       x="24.769148"
       y="355.17749"
       width="136.69324"
       height="70.648178"
       id="rect2-8-9" />
    <rect
       x="24.769148"
       y="355.17749"
       width="136.69324"
       height="70.648178"
       id="rect2-8-71" />
    <rect
       x="24.769148"
       y="355.17749"
       width="136.69324"
       height="70.648178"
       id="rect2-8-73" />
    <rect
       x="24.769148"
       y="355.17749"
       width="136.69324"
       height="70.648178"
       id="rect2-8-8" />
    <rect
       x="24.769148"
       y="355.17749"
       width="136.69324"
       height="70.648178"
       id="rect2-8-81" />
    <rect
       x="24.769148"
       y="355.17749"
       width="136.69324"
       height="70.648178"
       id="rect2-8-68" />
    <rect
       x="24.769148"
       y="355.17749"
       width="136.69324"
       height="70.648178"
       id="rect2-8-1" />
    <rect
       x="24.769148"
       y="355.17749"
       width="136.69324"
       height="70.648178"
       id="rect2-8-646" />
    <rect
       x="24.769148"
       y="355.17749"
       width="136.69324"
       height="70.648178"
       id="rect2-8-4" />
    <rect
       x="24.769148"
       y="355.17749"
       width="136.69324"
       height="70.648178"
       id="rect2-8-99" />
    <rect
       x="24.769148"
       y="355.17749"
       width="136.69324"
       height="70.648178"
       id="rect2-8-0" />
    <rect
       x="24.769148"
       y="355.17749"
       width="136.69324"
       height="70.648178"
       id="rect2-8-96" />
    <rect
       x="24.769148"
       y="355.17749"
       width="136.69324"
       height="70.648178"
       id="rect2-8-66" />
    <rect
       x="24.769148"
       y="355.17749"
       width="136.69324"
       height="70.648178"
       id="rect2-8-67" />
    <rect
       x="24.769148"
       y="355.17749"
       width="136.69324"
       height="70.648178"
       id="rect2-8-28" />
    <rect
       x="24.769148"
       y="355.17749"
       width="136.69324"
       height="70.648178"
       id="rect2-8-76" />
    <rect
       x="24.769148"
       y="355.17749"
       width="42.89035"
       height="19.890348"
       id="rect2-1" />
    <rect
       x="24.769148"
       y="355.17749"
       width="93.973312"
       height="22.012747"
       id="rect2-1-5" />
    <rect
       x="24.769148"
       y="355.17749"
       width="70.963776"
       height="19.856474"
       id="rect2-1-0" />
    <rect
       x="24.769148"
       y="355.17749"
       width="42.89035"
       height="19.890348"
       id="rect2-1-04" />
    <rect
       x="24.769148"
       y="355.17749"
       width="42.89035"
       height="19.890348"
       id="rect2-1-0-2" />
    <rect
       x="24.769148"
       y="355.17749"
       width="32.369827"
       height="18.7763"
       id="rect2-1-5-2" />
    <rect
       x="24.769148"
       y="355.17749"
       width="136.69324"
       height="70.648178"
       id="rect2-8-20" />
    <rect
       x="24.769148"
       y="355.17749"
       width="136.69324"
       height="70.648178"
       id="rect2-8-81-5" />
    <rect
       x="24.769148"
       y="355.17749"
       width="136.69324"
       height="70.648178"
       id="rect2-8-68-5" />
    <rect
       x="24.769148"
       y="355.17749"
       width="136.69324"
       height="70.648178"
       id="rect2-8-1-2" />
    <rect
       x="24.769148"
       y="355.17749"
       width="136.69324"
       height="70.648178"
       id="rect2-8-646-9" />
    <rect
       x="24.769148"
       y="355.17749"
       width="136.69324"
       height="70.648178"
       id="rect2-8-4-0" />
    <rect
       x="24.769148"
       y="355.17749"
       width="136.69324"
       height="70.648178"
       id="rect2-8-99-2" />
    <rect
       x="24.769148"
       y="355.17749"
       width="136.69324"
       height="70.648178"
       id="rect2-8-0-8" />
    <rect
       x="24.769148"
       y="355.17749"
       width="136.69324"
       height="70.648178"
       id="rect2-8-96-3" />
    <rect
       x="24.769148"
       y="355.17749"
       width="136.69324"
       height="70.648178"
       id="rect2-8-66-8" />
    <rect
       x="24.769148"
       y="355.17749"
       width="136.69324"
       height="70.648178"
       id="rect2-8-67-0" />
    <rect
       x="24.769148"
       y="355.17749"
       width="136.69324"
       height="70.648178"
       id="rect2-8-28-4" />
    <rect
       x="24.769148"
       y="355.17749"
       width="136.69324"
       height="70.648178"
       id="rect2-8-76-0" />
    <rect
       x="24.769148"
       y="355.17749"
       width="85.408554"
       height="37.324345"
       id="rect2-1-3" />
    <rect
       x="24.769148"
       y="355.17749"
       width="70.963776"
       height="19.856474"
       id="rect2-1-0-3" />
    <rect
       x="24.769148"
       y="355.17749"
       width="93.973312"
       height="22.012747"
       id="rect2-1-5-7" />
    <rect
       x="24.769148"
       y="355.17749"
       width="136.69324"
       height="70.648178"
       id="rect2-8-3" />
    <rect
       x="24.769148"
       y="355.17749"
       width="136.69324"
       height="70.648178"
       id="rect2-8-81-2" />
    <rect
       x="24.769148"
       y="355.17749"
       width="136.69324"
       height="70.648178"
       id="rect2-8-68-6" />
    <rect
       x="24.769148"
       y="355.17749"
       width="136.69324"
       height="70.648178"
       id="rect2-8-1-5" />
    <rect
       x="24.769148"
       y="355.17749"
       width="136.69324"
       height="70.648178"
       id="rect2-8-646-2" />
    <rect
       x="24.769148"
       y="355.17749"
       width="136.69324"
       height="70.648178"
       id="rect2-8-4-6" />
    <rect
       x="24.769148"
       y="355.17749"
       width="136.69324"
       height="70.648178"
       id="rect2-8-99-5" />
    <rect
       x="24.769148"
       y="355.17749"
       width="136.69324"
       height="70.648178"
       id="rect2-8-0-87" />
    <rect
       x="24.769148"
       y="355.17749"
       width="136.69324"
       height="70.648178"
       id="rect2-8-96-9" />
    <rect
       x="24.769148"
       y="355.17749"
       width="136.69324"
       height="70.648178"
       id="rect2-8-66-6" />
    <rect
       x="24.769148"
       y="355.17749"
       width="136.69324"
       height="70.648178"
       id="rect2-8-67-04" />
    <rect
       x="24.769148"
       y="355.17749"
       width="136.69324"
       height="70.648178"
       id="rect2-8-28-1" />
    <rect
       x="24.769148"
       y="355.17749"
       width="136.69324"
       height="70.648178"
       id="rect2-8-76-04" />
    <rect
       x="24.769148"
       y="355.17749"
       width="85.408554"
       height="37.324345"
       id="rect2-1-3-6" />
    <rect
       x="24.769148"
       y="355.17749"
       width="70.963776"
       height="19.856474"
       id="rect2-1-0-3-7" />
    <rect
       x="24.769148"
       y="355.17749"
       width="93.973312"
       height="22.012747"
       id="rect2-1-5-7-7" />
    <rect
       x="24.769148"
       y="355.17749"
       width="136.69324"
       height="70.648178"
       id="rect2-8-3-4" />
    <rect
       x="24.769148"
       y="355.17749"
       width="136.69324"
       height="70.648178"
       id="rect2-8-81-2-0" />
    <rect
       x="24.769148"
       y="355.17749"
       width="136.69324"
       height="70.648178"
       id="rect2-8-68-6-6" />
    <rect
       x="24.769148"
       y="355.17749"
       width="136.69324"
       height="70.648178"
       id="rect2-8-1-5-4" />
    <rect
       x="24.769148"
       y="355.17749"
       width="136.69324"
       height="70.648178"
       id="rect2-8-646-2-7" />
    <rect
       x="24.769148"
       y="355.17749"
       width="136.69324"
       height="70.648178"
       id="rect2-8-4-6-4" />
    <rect
       x="24.769148"
       y="355.17749"
       width="136.69324"
       height="70.648178"
       id="rect2-8-99-5-8" />
    <rect
       x="24.769148"
       y="355.17749"
       width="136.69324"
       height="70.648178"
       id="rect2-8-0-87-5" />
    <rect
       x="24.769148"
       y="355.17749"
       width="136.69324"
       height="70.648178"
       id="rect2-8-96-9-8" />
    <rect
       x="24.769148"
       y="355.17749"
       width="136.69324"
       height="70.648178"
       id="rect2-8-66-6-2" />
    <rect
       x="24.769148"
       y="355.17749"
       width="136.69324"
       height="70.648178"
       id="rect2-8-67-04-6" />
    <rect
       x="24.769148"
       y="355.17749"
       width="136.69324"
       height="70.648178"
       id="rect2-8-28-1-0" />
    <rect
       x="24.769148"
       y="355.17749"
       width="136.69324"
       height="70.648178"
       id="rect2-8-76-04-6" />
    <rect
       x="24.769148"
       y="355.17749"
       width="85.408554"
       height="37.324345"
       id="rect2-1-3-6-9" />
    <rect
       x="24.769148"
       y="355.17749"
       width="70.963776"
       height="19.856474"
       id="rect2-1-0-3-7-7" />
    <rect
       x="24.769148"
       y="355.17749"
       width="93.973312"
       height="22.012747"
       id="rect2-1-5-7-7-9" />
    <rect
       x="24.769148"
       y="355.17749"
       width="136.69324"
       height="70.648178"
       id="rect2-8-3-4-9" />
    <rect
       x="24.769148"
       y="355.17749"
       width="136.69324"
       height="70.648178"
       id="rect2-8-81-2-0-3" />
    <rect
       x="24.769148"
       y="355.17749"
       width="136.69324"
       height="70.648178"
       id="rect2-8-68-6-6-2" />
    <rect
       x="24.769148"
       y="355.17749"
       width="136.69324"
       height="70.648178"
       id="rect2-8-1-5-4-4" />
    <rect
       x="24.769148"
       y="355.17749"
       width="136.69324"
       height="70.648178"
       id="rect2-8-646-2-7-3" />
    <rect
       x="24.769148"
       y="355.17749"
       width="136.69324"
       height="70.648178"
       id="rect2-8-4-6-4-7" />
    <rect
       x="24.769148"
       y="355.17749"
       width="136.69324"
       height="70.648178"
       id="rect2-8-99-5-8-1" />
    <rect
       x="24.769148"
       y="355.17749"
       width="136.69324"
       height="70.648178"
       id="rect2-8-0-87-5-2" />
    <rect
       x="24.769148"
       y="355.17749"
       width="136.69324"
       height="70.648178"
       id="rect2-8-96-9-8-2" />
    <rect
       x="24.769148"
       y="355.17749"
       width="136.69324"
       height="70.648178"
       id="rect2-8-66-6-2-0" />
    <rect
       x="24.769148"
       y="355.17749"
       width="136.69324"
       height="70.648178"
       id="rect2-8-67-04-6-2" />
    <rect
       x="24.769148"
       y="355.17749"
       width="136.69324"
       height="70.648178"
       id="rect2-8-28-1-0-1" />
    <rect
       x="24.769148"
       y="355.17749"
       width="136.69324"
       height="70.648178"
       id="rect2-8-76-04-6-7" />
    <rect
       x="24.769148"
       y="355.17749"
       width="150.64024"
       height="20.625034"
       id="rect2-1-3-6-9-4" />
    <rect
       x="47.85817"
       y="44.415749"
       width="544.3349"
       height="137.24828"
       id="rect4-8" />
    <rect
       x="47.85817"
       y="44.415749"
       width="544.3349"
       height="137.24828"
       id="rect4-8-7" />
    <rect
       x="47.85817"
       y="44.415749"
       width="544.3349"
       height="137.24828"
       id="rect4-8-5" />
    <rect
       x="47.85817"
       y="44.415749"
       width="544.3349"
       height="137.24828"
       id="rect4-8-5-3" />
    <rect
       x="24.769148"
       y="355.17749"
       width="150.64024"
       height="20.625034"
       id="rect2-1-3-6-9-4-1" />
    <rect
       x="24.769148"
       y="355.17749"
       width="70.963776"
       height="19.856474"
       id="rect2-1-0-3-7-5" />
  </defs>
  <g
     inkscape:label="Layer 1"
     inkscape:groupmode="layer"
     id="layer1"
     transform="translate(-21.109664,-5.2669141)">
    <rect
       style="fill:#ffffff;stroke:none;stroke-width:1.57424"
       id="rect3"
       width="162.49809"
       height="60.854164"
       x="21.109661"
       y="5.2669148"
       sodipodi:insensitive="true" />
    <text
       xml:space="preserve"
       transform="matrix(0.26458333,0,0,0.26458333,23.489311,-71.216588)"
       id="text1"
       style="font-style:normal;font-weight:normal;font-size:13.3333px;line-height:1.25;font-family:sans-serif;white-space:pre;shape-inside:url(#rect2);display:inline;fill:#000000;fill-opacity:1;stroke:none" />
    <rect
       style="fill:#0000ff;stroke:none;stroke-width:0.626025"
       id="rect37-9-8-3-5-5-36"
       width="64.69088"
       height="8.6695175"
       x="111.96205"
       y="12.211883"
       rx="0.8074705"
       ry="1.3065145" />
    <text
       xml:space="preserve"
       style="font-style:normal;font-weight:normal;font-size:5.65763px;line-height:1.25;font-family:sans-serif;fill:#000000;fill-opacity:1;stroke:none;stroke-width:0.163201"
       x="115.15288"
       y="18.017626"
       id="text37-3-4-2-4-4-1"><tspan
         sodipodi:role="line"
         id="tspan37-1-5-0-7-7-0"
         style="font-size:5.65763px;fill:#f9f9f9;stroke-width:0.163201"
         x="115.15288"
         y="18.017626">Bless Spell Decorator</tspan></text>
    <text
       xml:space="preserve"
       transform="matrix(0.26458333,0,0,0.26458333,21.109664,5.2669141)"
       id="text23"
       style="font-style:normal;font-weight:normal;font-size:40px;line-height:1.25;font-family:sans-serif;white-space:pre;shape-inside:url(#rect23);display:inline;fill:#000000;fill-opacity:1;stroke:none" />
    <path
       enable-background="new    "
       d="m 151.61432,58.340154 c -0.20548,-0.225602 0.0617,-5.77e-4 -0.45892,-0.463082 -0.12473,-0.101465 -0.0999,-0.134783 -0.30868,-0.342473 -0.13406,-0.126135 -0.13136,0.0068 -0.44372,-0.491684 -0.0888,-0.12507 -0.24981,-0.281252 -0.24981,-0.281252 -0.026,-0.05127 -0.30892,-0.517139 -0.39979,-0.575894 -0.0462,-0.05848 -0.0786,-0.12777 -0.1314,-0.181572 -0.32885,-0.468989 0.1829,0.384714 -0.26552,-0.384717 -0.0404,-0.07357 -0.1036,-0.130109 -0.15623,-0.193918 -0.0315,-0.02989 -0.21005,-0.600544 -0.52209,-0.709252 -0.0488,-0.01915 -1.13812,-1.387142 -1.15336,-1.408478 -0.54321,-0.990802 -0.0334,0.06055 -0.53067,-1.041439 -0.39092,-0.722131 -0.41696,-0.750838 -0.41696,-0.750838 0.12823,-0.007 0.26534,0.05582 0.32596,0.0399 -0.0254,-0.05212 -0.0597,-0.09892 -0.0907,-0.147258 0.0197,0.0011 0.0399,0.0026 0.0602,0.0049 0.0216,0.02794 0.0385,0.07123 0.0803,0.07123 -0.0247,-0.230002 -0.84025,-0.977545 -0.98453,-0.923444 -0.0347,0.01899 -0.0592,0.05497 -0.099,0.06422 -0.42365,-0.705855 -0.76556,-1.197345 -1.21975,-1.780081 -0.0986,-0.253311 -0.42178,-0.621983 -0.44307,-0.641533 -0.0195,-0.0041 -0.0392,-0.0026 -0.0585,-0.0029 -0.88116,-1.104635 -1.91053,-1.819182 -2.24601,-2.651658 0.065,-0.05055 -0.0155,-0.138287 0.0281,-0.19989 -0.0145,-0.02127 -0.0165,-0.01875 -0.10423,-0.195597 -0.0419,-0.01676 -0.0472,-0.07006 -0.0828,-0.09475 -0.016,-0.0011 -0.0317,-0.0011 -0.0473,-1.26e-4 -0.0767,-0.218164 -0.43741,-0.532928 -0.11098,-2.519338 0.0149,-0.0072 0.0301,-0.01419 0.0456,-0.02066 0.0147,-0.03862 0.012,-0.08045 0.0202,-0.119825 0.19292,-0.267842 0.26812,-0.513779 0.18041,-0.987508 -0.13257,-1.71693 1.30017,-1.474731 1.80139,-1.449169 0.005,0.01713 0.01,0.0347 0.0153,0.05238 0.0606,0.0035 0.12152,0.006 0.18234,8.51e-4 0.007,-0.0097 0.0133,-0.01925 0.0202,-0.02861 0.54266,0.0026 1.22394,-0.07396 1.41706,-0.08032 0.008,0.0091 0.0153,0.01846 0.0234,0.02806 0.062,-0.0026 0.12412,-0.01 0.18443,-0.02574 0.006,-0.01301 0.0125,-0.02574 0.0191,-0.03821 1.18971,-0.03751 0.89603,0.173159 2.50322,-0.256562 0.0213,0.01713 0.046,0.03119 0.075,0.02638 0.0304,-0.0077 0.16426,0.09736 0.20289,-0.04028 0.0431,-0.01404 0.0845,-0.03679 0.11152,-0.07436 0.21652,-0.04522 0.42917,-0.109943 0.64647,-0.149976 0.26037,0.144369 0.68313,-0.238753 0.74227,-0.116721 0.0876,-0.0078 0.17415,-0.02574 0.26085,-0.04133 0.0222,-0.003 0.0256,-0.02861 0.0359,-0.0442 0.51425,-0.111641 0.9126,-0.2419 1.24356,-0.653875 0.32179,-0.401567 0.26427,-0.129026 0.65324,-0.643745 0.003,-0.02144 -0.0484,-0.274239 -0.4267,0.01404 -0.0557,0.03938 -0.28468,0.277811 -0.38134,0.283208 -0.003,-0.180469 0.046,-0.140455 -0.0241,-0.242516 0.004,-0.0213 0.057,-0.691127 0.30388,-1.129432 0.0323,-0.08083 0.0575,-0.186119 0.003,-0.262662 0.004,-0.0104 0.0116,-0.03132 0.0155,-0.04184 -0.0151,-0.02259 -0.0382,-0.03549 -0.0621,-0.04549 -0.049,0.04187 -0.24282,0.40112 -0.2524,0.422413 0.12089,-0.31672 0.18462,-0.491875 0.10865,-0.569393 0.0268,-0.04562 -0.0224,-0.07577 -0.0633,-0.07447 -0.028,0.04218 -0.16159,0.30025 -0.18483,0.347677 -8.5e-4,-0.0377 -0.0128,-0.07356 -0.0403,-0.09983 0.004,-0.01104 0.009,-0.02184 0.013,-0.03235 -0.0136,-0.02248 -0.0365,-0.03145 -0.0613,-0.0334 -0.0845,0.132023 -0.21508,0.479528 -0.22562,0.500778 -0.008,-0.0061 -0.0148,-0.01185 -0.0219,-0.01753 -5e-4,-0.01794 -6.4e-4,-0.03561 -6.4e-4,-0.05329 -0.14984,-0.04526 -0.37118,1.214046 -0.69911,1.575622 -0.0893,-0.06356 -0.20939,-0.0234 -0.30165,0.01404 -0.0765,-0.06763 -0.13029,-0.04837 -0.16273,0.02181 -0.78314,0.05618 -1.29696,0.03145 -1.44033,0.03145 -0.0199,-0.08344 -0.1661,-0.08304 -0.18495,8.51e-4 -0.0902,-0.01094 -0.12943,-0.06674 -0.31933,-5.79e-4 -0.003,0.02806 -0.002,0.05655 0.003,0.08449 -1.46628,0.02124 -1.12519,0.225793 -2.09291,0.195216 -0.022,-0.0311 -0.0129,-0.06341 -0.20706,-0.07577 -0.01,0.0094 -0.0194,0.01832 -0.0294,0.02716 0,0 -0.3469,-0.03912 -1.24694,-0.03912 -0.004,-0.0073 -0.0135,-0.0217 -0.018,-0.02898 -0.0663,-0.0029 -0.13271,-0.0043 -0.1986,0.003 -0.009,0.01404 -0.0173,0.02846 -0.0257,0.04288 -0.27335,-0.01866 -0.56808,-0.189415 -1.01364,-0.246553 -1.38122,-0.14292 -1.03654,0.164744 -1.65049,-0.05005 -0.45604,-0.167166 -0.41416,-0.197745 -0.47464,-0.254755 -0.18603,-0.198127 -0.29802,-0.06513 -0.29802,-0.442555 0.1759,-0.07919 0.26281,0.05274 0.50429,0.05171 l 0.003,0.003 -0.003,0.0152 c -0.0276,0.02587 -0.0516,0.05615 -0.0629,0.09305 0.009,-0.0017 0.0254,-0.0051 0.0339,-0.0069 -0.005,0.02081 -0.01,0.04184 -0.015,0.06277 0.009,0.0156 0.019,0.03107 0.0288,0.04692 0.004,-0.0011 0.0134,-0.003 0.0178,-0.0041 0.003,0.01988 0.009,0.03938 0.0183,0.05771 0.005,-0.0086 0.0162,-0.02572 0.0217,-0.03432 0.003,0.01248 0.005,0.02534 0.008,0.03848 0.008,-0.0096 0.0161,-0.01899 0.0246,-0.02806 l -0.003,-0.0096 c 0.04,-0.07903 0.0621,-0.165192 0.0791,-0.251612 0.21236,-0.06742 0.17753,-0.240263 0.17911,-0.377702 0.003,-0.08268 0.11298,-0.02911 0.0872,-0.247085 0.19325,-0.15174 0.0466,-0.182594 0.0686,-0.299062 0.40933,-0.134931 0.2449,-0.186779 0.10618,-0.424747 0.0192,-0.04562 0.009,-0.09437 -0.004,-0.139713 -0.0155,-0.04979 0.009,-0.09917 0.0129,-0.14868 0.0254,-0.01702 0.0357,0.02092 0.051,0.03483 -7.6e-4,-0.01457 -0.003,-0.02911 -2.5e-4,-0.04315 0.016,-0.01522 0.0345,-0.02727 0.0523,-0.04003 -0.004,-0.02288 -0.006,-0.04614 -7.6e-4,-0.06876 -0.0234,-0.02367 -0.0515,-0.04199 -0.082,-0.05447 -0.003,-0.0071 -0.007,-0.02132 -0.009,-0.02849 0.047,-0.01979 0.10622,-0.0234 0.1722,-0.124115 -0.0433,0.02832 -0.0862,0.05836 -0.13529,0.07603 0.002,-0.01338 0.003,-0.04028 0.005,-0.05369 0.0554,-0.03729 0.0691,-0.109051 0.0886,-0.168568 0.0276,-0.0086 0.0552,-0.0169 0.0831,-0.02493 -0.007,0.013 -0.0134,0.02638 -0.0197,0.0399 0.0562,-0.0082 0.0996,-0.049 0.144,-0.08111 0.0215,-0.02886 0.0443,-0.05693 0.0713,-0.08083 0.0118,0.01052 0.0243,0.0217 0.0365,0.03249 0.009,-0.02196 0.0145,-0.04522 0.0126,-0.06902 0.004,-0.01534 0.007,-0.03094 0.007,-0.04666 0.0106,-0.02248 0.0207,-0.04509 0.0296,-0.0681 0.003,0.01 0.0101,0.03002 0.0135,0.04017 0.26209,-0.374879 -0.0447,-0.738089 -0.44566,-0.923955 -0.089,-0.04303 -0.14817,-0.14271 -0.2511,-0.15635 -0.0542,-0.06173 -0.12515,-0.10463 -0.19963,-0.137122 -3.7e-4,-0.01196 -5.2e-4,-0.02367 -6.4e-4,-0.03536 -0.0162,-0.0068 -0.0323,-0.01352 -0.0483,-0.02003 -0.0143,-0.03938 -0.0609,-0.06173 -0.0971,-0.08058 -0.0842,-0.04341 -0.13075,-0.137119 -0.21628,-0.180789 -0.0194,-0.02522 -0.0434,-0.04679 -0.0695,-0.06421 -0.0321,-0.04641 -0.0686,-0.09422 -0.11556,-0.125158 -0.0307,-0.05397 -0.262,-0.269822 -0.51533,-0.236543 -0.12866,-0.01716 -0.25877,0.01676 -0.38692,-2.9e-4 -0.051,-0.02211 -0.10346,-0.04003 -0.15973,-0.03885 0.0148,0.0066 0.0295,0.01468 0.0449,0.02081 -0.009,-0.0011 -0.0254,-0.0041 -0.034,-0.0053 -0.009,-0.0066 -0.0188,-0.01185 -0.0288,-0.01586 5.2e-4,-0.0047 0.002,-0.01402 0.003,-0.01883 0.0129,-0.0071 0.0257,-0.01416 0.0389,-0.02106 -0.0457,-0.09789 -0.0509,-0.0039 -0.0983,-0.115019 0.007,-0.0039 0.0204,-0.01156 0.0273,-0.01534 -0.004,-0.01807 -0.006,-0.03612 -0.0123,-0.05304 -0.0911,-0.07036 -0.0284,-0.0316 -0.0836,-0.130362 0.003,-0.01702 0.0169,-0.03249 0.0126,-0.05004 -0.0221,-0.04184 -0.0601,-0.08201 -0.11073,-0.08241 -0.0566,-0.192622 -0.0842,-0.730586 -0.5889,-0.724065 -0.22709,-0.07199 -0.63832,0.08523 -0.6596,0.08891 0.30569,-0.173371 0.62397,-0.219207 0.95048,-0.02702 -0.16384,-0.260491 -0.99376,-0.271243 -1.80581,0.708724 -0.003,0.0077 -0.008,0.02326 -0.01,0.03094 0.005,-0.0023 0.42151,-0.53044 0.95853,-0.711059 -0.0213,0.01789 -0.26532,0.156735 -0.29256,0.200677 -0.0317,0.0282 -0.0637,0.05614 -0.0919,0.08787 l -7.7e-4,0.0049 c -0.34379,0.304327 -0.61707,0.50152 -0.63866,0.516374 0.003,-0.03965 0.0466,-0.05901 0.0604,-0.09488 -0.0642,0.05302 -0.0971,0.136589 -0.1713,0.179237 -0.14584,0.110472 -0.3426,0.162066 -0.44228,0.32596 0.15692,-0.158965 0.24936,-0.149658 0.3964,-0.267356 0.003,0.02248 -0.004,0.04367 -0.0116,0.06499 -0.021,0.0042 -0.0417,0.01609 -0.0461,0.03885 -0.0743,0.04607 -0.41923,0.213853 -0.44749,0.439943 -0.16982,0.272774 0.0414,1.015516 0.17649,1.306967 0.004,0.07761 0.0365,0.149849 0.0545,0.224858 0.006,-0.0035 0.0167,-0.0104 0.0221,-0.01378 0.11933,0.434013 0.0537,0.438899 -0.0136,0.538198 -0.13941,-0.208563 -0.47451,-0.665588 -0.47451,-0.665588 0.004,-0.08984 -0.0783,-0.167975 -0.10593,-0.189628 -0.0175,5.78e-4 -0.0351,0.0014 -0.0525,0.0023 -0.69665,-0.890293 -0.37147,-0.103588 -0.38418,-2.148158 0.0508,-0.03366 0.015,-0.09983 0.032,-0.147257 0.26036,-0.33189 0.56692,-0.697565 0.41786,-1.131916 -0.0697,-0.332124 -0.33181,-0.67553 -0.38639,-0.853387 -0.005,-0.0039 -0.0156,-0.0117 -0.0207,-0.0156 0.0191,-0.175622 0.0593,-0.399505 0.19651,-0.465291 0.12677,-0.06077 0.1378,-0.159688 0.31765,-0.33597 0.21073,-0.217144 0.12404,-0.220799 0.24681,-0.471538 0.41117,0.03649 0.30612,0.06755 0.47335,0.05614 0.0502,-0.03845 0.0773,-0.101506 0.12802,-0.140626 0.0724,-0.0538 0.16116,-0.07774 0.23681,-0.125942 10e-6,0 1.50464,-0.192093 1.50466,-0.192093 -0.007,-0.0026 -0.0139,-0.0048 -0.0207,-0.0071 0.75433,-0.04033 0.71557,-0.281741 0.82649,-0.08032 0.5679,-0.143028 1.0951,-0.559639 3.22572,-1.044309 2.04973,-0.49638 3.88916,-0.292516 3.91042,-0.294386 -0.0123,0.0031 -0.0244,0.0063 -0.0364,0.0095 0.39497,-0.02366 1.44491,0.310172 1.46619,0.316082 -0.54148,-0.727997 -1.76133,-1.003215 -2.63401,-1.031391 0.007,-0.0029 0.0142,-0.0055 0.0216,-0.0083 -0.98955,0.09112 -0.76995,-0.461549 -7.58662,1.493495 -0.294,0.08616 -0.56348,0.124116 -0.95111,0.07082 0.0783,-0.16776 0.10319,-0.160196 0.11424,-0.242793 -0.40129,-0.01107 -0.43463,0.551246 -1.08109,0.680907 0.01,-0.06478 -0.0119,-0.275834 -0.35015,-0.141541 -0.0195,-0.06785 -0.069,-0.148168 -0.15142,-0.133336 -0.0994,-0.021 -0.22734,0.118527 -0.26073,0.138799 -0.0697,0.02613 -0.13724,-0.04433 -0.20651,-0.01211 -0.0693,0.02886 -0.10229,0.105546 -0.16689,0.142328 -0.0294,0.02581 -0.17752,-0.05217 -0.23147,0.139968 -0.0285,0.110983 0.007,0.225239 0.002,0.337668 -0.28478,0.151123 -0.49128,0.356626 -0.88938,0.510785 -0.8564,0.367633 -1.03236,0.01702 -1.2854,-0.189882 -0.0107,-0.0026 -0.0213,-0.0048 -0.032,-0.0064 -0.0367,0.102294 0.0398,0.196918 0.0819,0.285037 0.13604,0.320586 0.56314,0.512953 0.81635,0.707043 0.007,-0.0011 0.0217,-0.0032 0.0289,-0.0043 0.24271,-0.304437 0.13157,-0.232658 1.27981,-0.782543 0.0227,0.137758 0.008,0.278131 0.0281,0.416038 0.008,0.05967 0.0751,0.06498 0.0106,0.347932 -0.93254,1.196622 -0.28132,1.795679 -0.24759,1.937982 -0.009,0.05876 -0.0313,0.115681 -0.029,0.175988 0.0149,0.0043 0.0299,0.009 0.0448,0.0139 -0.24405,2.438783 -0.32862,1.755071 0.31102,2.800868 -0.0614,0.07197 0.0649,0.234293 0.12529,0.24564 0.11712,0.184207 0.7397,1.228813 0.75187,1.250192 -0.003,0.119057 0.18164,0.251015 0.20627,0.300482 -0.0319,0.05446 -0.2007,0.226176 -0.21887,0.247468 -0.0636,-0.0026 -0.53958,0.592765 -0.3647,0.861566 0.0171,0.222796 0.16254,0.789554 0.15155,0.939041 -0.006,0.02129 -0.16683,0.927865 -0.095,1.128667 0.009,0.02126 0.10302,0.381339 0.0244,0.591491 0.10008,-0.03245 0.0435,-0.420604 0.0169,-0.539513 0.006,-0.04925 -0.0192,-0.09567 -0.0261,-0.143498 -0.0426,-0.172373 -0.003,-0.317185 0.0803,-0.839211 0.0216,0.06563 0.0101,0.136208 0.0138,0.204182 -0.02,0.07403 -0.003,0.76926 0.0603,0.800093 0.0533,0.236226 0.31712,0.474088 0.41629,0.616182 -0.15476,0.25023 -0.0789,0.458068 0.0301,0.706915 8.6e-4,0.05866 0.12407,0.240753 0.0927,0.414464 -0.63155,0.817517 -0.24256,0.966262 -0.23134,1.080433 0.0351,0.05743 0.0823,0.108137 0.1392,0.144919 0.29936,0.21058 0.0315,0.02808 0.26487,0.260726 0.005,-0.05133 -0.0493,-0.08942 -0.033,-0.141286 0.0163,0.01742 0.0317,0.03561 0.0471,0.05433 1.3e-4,-0.0081 5.2e-4,-0.02417 6.4e-4,-0.03223 0.0104,0.01572 0.0222,0.03041 0.0376,0.04237 5.2e-4,-0.0076 0.002,-0.02259 0.003,-0.03016 -0.05,-0.107351 -0.0784,-0.223156 -0.11359,-0.335842 0.003,-0.01375 0.007,-0.02716 0.0104,-0.04029 0.006,0.01286 0.0118,0.02613 0.0178,0.0395 -0.003,-0.03666 -0.008,-0.07318 -0.01,-0.109689 0.0241,0.03262 0.0355,0.0746 0.0682,0.100465 -0.0288,-0.09554 -0.0967,-0.177535 -0.10385,-0.280339 -0.0219,-0.157604 -0.0101,-0.296341 -0.0101,-0.296341 0.004,-0.0078 0.0142,-0.02326 0.0188,-0.03107 0.008,0.09228 0.0766,0.476385 0.12191,0.58603 -0.008,0.01702 -0.0152,0.03483 -0.0227,0.0525 0.0391,0.07305 0.0827,0.228046 0.088,0.233951 -0.0177,0.04731 -0.0323,0.09579 -0.0461,0.144411 -0.004,-0.0043 -0.0125,-0.01327 -0.0166,-0.01768 -0.0118,-0.0014 -0.0237,-0.0032 -0.0354,-0.0039 0.0734,0.171547 0.005,0.09802 0.0244,0.268122 0.0152,0.02783 0.0312,0.05538 0.0399,0.08654 l -0.0163,0.0055 c 0.0185,0.01742 0.0414,0.02806 0.0665,0.03314 0.009,0.03483 0.0158,0.07044 0.0116,0.106967 -0.0564,-0.01627 -0.0838,-0.06694 -0.10944,-0.114638 0.003,0.04588 0.0305,0.08746 0.0599,0.121396 0.0471,0.02522 0.0877,0.05939 0.12736,0.09449 0.0125,0.02326 0.0259,0.04626 0.039,0.06952 -0.003,-0.02378 -0.004,-0.04797 -0.007,-0.07135 0.0333,0.02143 0.0729,0.0399 0.0857,0.08098 0.002,-0.0057 0.005,-0.01731 0.007,-0.02299 0.0515,0.02456 0.0757,0.07865 0.11386,0.118016 -0.0266,-0.105609 -0.11266,-0.0667 -0.12244,-0.211853 -0.0197,-0.0061 -0.0392,-0.0117 -0.0591,-0.01597 0.013,0.01416 0.0296,0.02352 0.0469,0.03249 -3.7e-4,0.01105 -8.5e-4,0.03315 -0.002,0.04405 -0.0334,-0.0064 -0.0594,-0.02702 -0.0797,-0.05316 0.003,-0.0055 0.0113,-0.01702 0.0151,-0.02274 -0.0194,-0.02444 -0.0554,-0.119569 -0.0434,-0.24226 0.0474,0.07664 0.0393,0.06559 0.0677,0.09579 -0.004,0.02937 -0.007,0.05939 -0.003,0.08942 0.005,-0.01339 0.0105,-0.02638 0.0157,-0.03925 0.006,0.0026 0.0189,0.0081 0.0251,0.01081 8.6e-4,0.01 0.003,0.02989 0.003,0.0399 0.006,-0.01899 0.0125,-0.03807 0.0191,-0.05641 0.0298,0.02299 0.0316,0.06289 0.0369,0.09721 -0.004,0.07163 0.14579,0.200297 0.13349,0.27112 0.0269,0.04041 0.0343,0.08942 0.0584,0.131275 0.004,-0.0079 0.0129,-0.02378 0.0172,-0.03171 8.5e-4,0.0069 0.003,0.02069 0.005,0.02757 -0.021,0.13268 0.024,0.236356 0.0456,0.253057 0.003,-0.02795 -1.3e-4,-0.05564 -0.003,-0.08304 0.0105,0.0063 0.0163,0.113916 0.036,0.160772 0.0152,-0.02664 0.009,-0.05862 0.0118,-0.08746 0.005,1.27e-4 0.0152,5.78e-4 0.0203,5.78e-4 0.003,-0.02417 0.005,-0.04821 0.009,-0.07173 0.013,0.02262 0.0232,0.04666 0.0333,0.0711 0.0221,-0.03483 0.013,-0.07773 0.0155,-0.116444 0.005,2.89e-4 0.0148,0.0011 0.0199,0.0014 0.003,-0.01597 0.006,-0.03171 0.009,-0.04718 0.007,0.049 -0.004,0.09879 0.006,0.147914 l 0.0116,-0.0095 c 0.0516,-0.193196 0.0206,-0.276941 0.0116,-0.323496 l -0.0106,0.0091 c 0.003,-0.02248 0.004,-0.04471 0.005,-0.0668 0.009,0.0011 0.0182,0.0026 0.0273,0.0043 0.0128,0.04536 0.0225,0.09163 0.0394,0.135954 0.0114,-0.03016 0.0105,-0.06265 0.0135,-0.09396 0.006,0.02118 0.009,0.04303 0.0109,0.06539 0.004,-0.0094 0.009,-0.01846 0.0144,-0.02702 l 0.01,-0.0052 c -8.5e-4,0.07499 0.0289,0.145959 0.0408,0.219397 l -0.003,0.01327 -0.0125,-0.0064 c 0.004,0.0616 0.0106,0.123223 0.0142,0.185208 0.033,-0.02196 0.0601,-0.05447 0.0437,-0.09643 0.009,-0.02978 0.014,-0.06055 0.0153,-0.0915 0.01,0.0143 0.0199,0.02846 0.031,0.04237 0,0 0.0231,-0.152485 0.0506,-0.252144 0.0387,0.07585 -0.0179,0.286014 -0.003,0.364444 0.019,-0.02222 0.0382,-0.04887 0.0347,-0.07953 0.0103,-0.02592 0.0657,-0.186653 0.0445,-0.266956 0.0194,-0.06539 0.0346,-0.132041 0.059,-0.195871 0.0117,0.08265 -0.0422,0.153481 -0.0486,0.233673 0.0613,-0.02937 0.0378,-0.123988 0.089,-0.165572 -0.026,0.08327 0.008,0.181681 0.0352,0.202887 0.002,-0.07994 -0.0321,-0.163491 0.004,-0.241092 0.005,0.05563 -0.0212,0.127621 0.0197,0.172203 0.003,-0.01859 0.004,-0.03679 0.007,-0.05484 0.009,0.0079 0.0182,0.01571 0.0276,0.02444 -0.003,-0.242091 0.0511,-0.272904 0.0673,-0.361959 l -0.002,-0.0068 c 0.008,-0.0269 0.0152,-0.05369 0.0231,-0.08019 0.006,0.0076 0.0182,0.02248 0.0243,0.03002 0.0213,-0.04471 0.016,-0.106438 0.0598,-0.136741 0.0889,0.268889 0.1816,0.338288 0.0421,0.908763 -0.0799,0.01609 -0.0727,0.121394 -0.13879,0.151675 -0.0104,0.03574 -0.0191,0.07226 -0.0291,0.108519 -0.0402,0.01844 -0.0535,0.06577 -0.0334,0.104505 0.0161,0.02418 -0.003,0.04965 -0.006,0.07499 0.0663,0.461935 -0.0375,0.644764 -2.17948,2.169982 -0.0121,-0.01664 -0.0161,-0.04199 -0.0359,-0.05043 -0.0288,0 -0.0529,0.02612 -0.0466,0.05563 -0.009,0.0098 -0.41191,0.368248 -0.44359,0.391858 -0.0316,-0.01025 -0.0544,0.0098 -0.0739,0.03145 0.0131,0.02326 0.0254,0.04796 0.0308,0.07473 -0.0213,0.01785 -1.57002,1.319549 -1.84557,1.573157 -0.44473,-0.08235 -1.53714,0.948733 -1.35066,1.175715 0.0771,-0.106057 0.21733,-0.475916 0.56199,-0.567586 -0.0273,0.0467 -0.30711,0.362532 -0.41032,0.670262 0.0203,0.171968 -0.17843,0.13984 -0.0207,0.805298 0.15079,0.488772 0.97039,2.479582 1.02117,2.613704 0.016,0.03366 -0.0439,0.0542 -0.0208,0.08891 0.0112,0.0215 0.1701,0.312403 0.25928,0.304393 0.26851,0.577125 -0.0165,0.04201 0.31974,0.581228 0.0502,0.37394 0.71552,1.01883 0.75122,1.374818 0.0858,0.652177 0.51597,0.496486 -0.23825,1.3266 -0.33395,0.348637 -0.93936,0.465951 -0.85481,0.967898 0.0516,0.173308 0.037,0.134867 0.29724,0.184294 1.25563,0.148509 1.15391,-0.230315 1.4992,-0.407577 0.45708,-0.22282 0.54011,-0.229387 0.63971,-0.332592 0.0423,-0.03961 0.32981,-0.739769 0.086,-1.506882 -0.0362,-0.113703 -0.15174,-0.296743 -0.1418,-0.412274 0.0119,-0.235165 -0.0537,-0.137354 -0.0932,-0.487139 -0.30663,-0.725231 -0.12034,-0.429529 -0.24264,-0.853001 -0.0182,-0.06577 -0.0608,-0.123076 -0.0668,-0.192348 -0.008,-0.04329 -0.0106,-0.105544 -0.0645,-0.115806 -0.005,-0.02124 -0.17684,-1.851268 -0.47335,-1.962803 -0.0776,-0.236758 -0.46508,-0.926376 -0.55458,-1.027544 0.0399,-0.03702 0.0641,-0.08525 0.086,-0.133867 0.0332,-0.0234 0.0689,-0.04405 0.10618,-0.05965 0.0815,-0.0085 0.0722,0.120547 0.35532,-0.100339 0.0157,-0.02482 -0.006,-0.05238 -0.0152,-0.0746 0.35206,-0.175858 0.88179,-0.420477 1.97034,-1.128416 -0.0232,0.02745 -0.0477,0.05395 -0.072,0.08086 0.0117,0.01065 0.0235,0.02143 0.0355,0.03262 1.07925,-1.018023 2.80839,-1.550186 3.04156,-1.657772 0.40306,0.09335 0.67258,0.04919 0.72381,-0.02404 0.58391,0.02725 2.03301,1.504246 2.43759,1.949948 0.0633,0.147362 -0.004,0.05321 0.13674,0.292686 0.0833,-0.04063 -6.4e-4,-0.03929 -0.0478,-0.215616 0.0251,0.02586 0.0441,0.05655 0.0602,0.08904 0,0 0.4437,0.494404 1.54821,1.36534 0.0306,0.02092 -0.0151,0.06539 0.0109,0.09175 0.0845,0.08487 0.1813,0.155967 0.27087,0.235378 0.0295,0.02806 0.0707,0.0077 0.10435,-2.44e-4 0.4624,0.416908 2.03713,2.921414 2.20235,3.141896 0.0157,0.104438 0.24464,0.439876 0.33,0.473472 0.12067,0.04401 0.25447,0.277024 0.38522,0.331421 0.026,0.02277 0.24807,0.323963 0.66622,0.578359 0.007,0.0037 0.41507,0.282506 0.42072,0.295169 0.0304,0.06238 0.0815,0.110602 0.13892,0.148683 0.0607,0.03861 0.0867,0.110475 0.14284,0.154524 0.66129,0.531908 0.35225,0.133827 0.71185,0.601242 0.0591,0.09305 0.18144,0.121905 0.23733,0.218228 0.15299,0.227106 0.18985,0.06723 0.38717,0.381847 0.0362,0.05735 0.10464,0.08228 0.14466,0.136586 0.10271,0.145556 0.34214,1.11913 0.48961,1.12151 1.20789,0.04481 0.92572,0.0252 1.59838,0.419925 0.38416,0.202761 1.31351,0.355178 1.56561,0.0443 0.46672,-0.477258 -1.13175,-0.950607 -2.41753,-2.313267 z M 136.33163,39.399481 c 0.006,0.01431 0.0113,0.02858 0.0172,0.04329 -0.006,-0.0011 -0.0179,-0.0037 -0.0239,-0.0048 -0.0383,0.133359 -0.0337,0.275283 -0.0264,0.412532 0.0346,-0.06615 -0.002,-0.150254 0.0473,-0.212366 0.0177,0.112494 0.01,0.111408 -0.0139,0.369373 -0.11527,-0.179936 -0.0871,-0.403903 -2.5e-4,-0.60802 z m -0.0801,1.866224 c 0.009,0.03107 0.0163,0.06277 0.023,0.09488 0.0106,-0.01441 0.0215,-0.02846 0.0323,-0.04237 0.0134,0.03978 0.0308,0.07812 0.0495,0.115937 0.006,0.184846 0.0778,0.307028 0.0737,0.441642 -0.16465,-0.214723 -0.0118,-0.163704 -0.18729,-0.52872 6.4e-4,-0.02757 0.004,-0.05459 0.009,-0.08137 z m -0.16935,-3.58107 c 0.005,-5.77e-4 0.016,-0.002 0.0213,-0.0026 -0.005,0.02719 -0.10769,0.403053 -0.12698,0.453607 -0.0678,0.08151 -0.16101,0.32577 -0.17534,0.378467 0.008,0.0139 0.0153,0.02806 0.023,0.04237 -0.0306,0.144452 -0.0367,0.152461 -0.14842,0.609426 -0.006,-0.0094 -0.0111,-0.01861 -0.0161,-0.02783 -0.009,-0.05926 0.0207,-0.114233 0.0263,-0.172201 -0.013,0.03406 -0.0266,0.06823 -0.046,0.09929 -0.0489,-0.159792 0.0132,-0.331675 0.003,-0.495315 -0.003,-0.351885 0.0391,-0.224626 0.33286,-0.706641 0.0737,-0.114829 0.0634,-0.128513 0.10682,-0.178469 z m -0.0588,4.064444 c -0.0488,-0.09583 -0.23442,-0.328362 -0.1249,-0.520391 l 0.0118,0.01714 c 0.003,0.07265 0.0285,0.141539 0.0557,0.208071 -0.0199,0.05175 -0.0311,-0.0084 0.0573,0.295171 z m 4e-4,-0.168059 c 0.0396,0.07813 0.11825,0.307219 0.10527,0.394596 -0.0427,-0.06496 -0.12546,-0.338136 -0.10527,-0.394596 z m 0.11553,0.516886 c 7.6e-4,-0.0088 0.003,-0.02664 0.003,-0.03549 0.0315,0.04563 0.0244,0.103335 0.0316,0.155842 0.009,0.05784 -0.0363,0.103461 -0.0654,0.148551 0.003,-0.09084 0.0492,-0.176622 0.0307,-0.268906 z m 0.003,-0.284379 c -0.0508,-0.210217 -0.11785,-0.250612 -0.1856,-0.497144 0.0523,0.04887 0.0498,0.124647 0.0791,0.185865 0.0534,0.137442 0.16453,0.196939 0.10644,0.311279 z m -0.0717,-0.3695 c -0.0398,-0.08485 -0.0915,-0.112193 -0.0131,-0.363125 0.0133,0.03197 0.0209,0.06577 0.0227,0.100593 -0.0472,0.168804 0.003,0.180936 -0.01,0.262532 z m -0.46153,-3.058318 c 0.0364,0.09539 0.009,0.437304 -0.002,0.536773 -0.003,-0.0051 -0.008,-0.01522 -0.0106,-0.02041 -0.002,-0.03598 -0.0113,-0.439835 0.0121,-0.516374 z m 0.36444,-0.846886 c 0.005,0.0037 0.015,0.01092 0.0199,0.01441 0.01,0.0126 0.0195,0.0256 0.029,0.039 -0.0872,0.208496 -0.20605,0.289586 -0.24005,0.317526 0.011,-0.07057 0.15246,-0.31251 0.19118,-0.370946 z m -0.61836,1.514021 c -0.0797,-0.482568 -0.22188,-0.809742 -0.0592,-1.074206 -0.034,0.821661 -0.0226,0.169738 0.069,1.045095 -0.003,0.0072 -0.008,0.02181 -0.01,0.02911 z m 0.0483,-1.204441 c 0.019,-0.02481 0.0369,-0.05109 0.0448,-0.08175 0.0471,-0.105947 0.2545,-0.298187 0.35637,-0.437879 0.05,0.0395 0.0768,0.09968 0.12244,0.143495 -0.75445,1.630934 -0.26177,0.560359 -0.49441,1.943698 -0.008,-0.01597 -0.0155,-0.03223 -0.0226,-0.04809 -0.005,-0.0533 -0.0212,-0.107752 -0.008,-0.160644 0.088,-0.270393 -0.16022,-0.750857 6.4e-4,-1.358834 z m 0.0451,1.574069 c 0.0421,-0.210431 0.0823,-0.590831 0.0825,-0.59149 0.006,0.03053 0.012,0.06134 0.0187,0.09203 -0.0256,0.133616 0.0322,0.266443 0.0234,0.400056 -0.0312,0.12348 -0.0529,0.248893 -0.0768,0.37405 -0.0487,-0.149551 -0.0628,-0.203313 -0.0478,-0.274646 z m 0.0281,0.377428 c -0.0123,0.03418 -0.0219,0.06928 -0.0307,0.104756 -0.0222,-0.06914 -0.0251,-0.14205 -0.0356,-0.213148 0.005,-0.03378 0.0112,-0.06694 0.019,-0.09983 0.0203,0.06813 0.0523,0.135315 0.0473,0.208222 z m 0.38094,1.362492 c -0.20455,-0.229065 -0.50591,-0.534735 -0.45309,-0.998178 0.0664,0.122862 0.14448,0.353904 0.11802,0.484141 0.0488,-0.0239 0.0185,-0.107222 0.01,-0.202886 0.036,0.05017 0.1202,0.24666 0.22278,0.333631 -0.01,-0.02147 -0.45739,-0.64187 -0.25631,-0.968024 0.0145,0.03523 0.0279,0.0711 0.0425,0.106459 -7.6e-4,-0.04992 -0.0163,-0.09734 -0.0311,-0.144389 -4.9e-4,-0.03735 0.0734,-0.379871 0.0784,-0.401354 0.0593,0.376768 -0.0635,0.149084 0.31504,1.758621 -0.007,0.01026 -0.0138,0.02052 -0.0209,0.03094 -0.006,2.57e-4 -0.0187,8.51e-4 -0.0249,0.0011 z m 0.003,0.06148 c 0.009,0.151591 -0.0775,0.14936 0.11176,0.49895 0.11762,0.220907 0.0752,0.07839 0.0306,0.496614 -0.11057,-0.436419 -0.31639,-0.650227 -0.14246,-0.995568 z m -0.13568,2.059887 c -0.21893,-0.213574 0.0767,-0.688873 0.26423,-0.932008 0.0138,0.05551 0.0116,0.113068 0.0116,0.169996 -0.12272,0.201335 -0.27828,0.583775 -0.2758,0.762012 z m 0.24356,0.168317 c -0.0357,-0.01885 -0.0708,-0.03862 -0.10437,-0.06084 -0.0421,-0.270479 0.0374,-0.636644 0.12515,-0.788786 0.0449,0.350185 -0.13942,0.278597 -0.0208,0.849624 z m -0.10839,-0.564464 c -0.004,0.08942 -0.0276,0.176878 -0.0304,0.266698 -0.009,0.07226 0.009,0.144389 0.004,0.216784 -0.0902,-0.06113 -0.13576,-0.03076 0.0261,-0.483482 z m -0.0769,0.477 c 0.18051,0.1429 0.19217,0.06354 0.21237,0.203015 -0.088,-0.06175 -0.23107,-0.108284 -0.21237,-0.203015 z m 0.33089,0.256434 c -0.0556,-0.0045 -0.0941,-0.04992 -0.0997,-0.103588 0.0522,0.0088 0.0954,0.04925 0.0997,0.103588 z m -0.0366,-0.101124 c -0.0445,-0.02892 -0.0862,-0.04394 -0.0914,-0.08083 -0.0363,-0.154671 -0.0412,-0.316079 -0.0126,-0.472579 0.0312,0.198297 0.0176,0.108114 0.10397,0.553411 z m -0.0426,-1.044181 c -0.0158,-0.05576 -0.0104,-0.113854 -0.0129,-0.170651 0.017,-0.02586 0.0345,-0.05121 0.0527,-0.07603 0.003,0.02326 0.005,0.04745 0.008,0.07123 -0.009,0.05989 -0.0106,0.12437 -0.0477,0.175453 z m -0.002,-0.238096 c -0.008,-0.104887 0.0294,-0.206137 0.0398,-0.309601 0.0306,0.04342 0.0325,0.098 0.0346,0.149341 -0.0133,0.05797 -0.0394,0.112281 -0.0744,0.16026 z m 0.10685,0.692849 c -0.0161,-0.04154 -0.056,-0.198701 -0.0255,-0.25514 0.01,-0.0099 0.0202,-0.01948 0.0306,-0.02872 0.003,0.0035 0.0108,0.01066 0.0145,0.01416 0.006,0.09035 -0.0169,0.179386 -0.0195,0.269694 z m 0.0877,-0.63333 c -0.0177,0.03145 -0.031,0.06785 -0.0621,0.08903 -0.0216,0.04938 -0.043,0.09917 -0.0722,0.14492 -0.007,-0.09955 -0.026,-0.05796 0.13687,-0.297635 -5.3e-4,0.02106 -0.002,0.04222 -0.003,0.06368 z m -0.0453,-0.05381 c -0.0426,-0.321349 -0.0152,-0.338625 -0.004,-0.470348 0.10614,0.137014 0.0935,0.324665 0.004,0.470348 z m -0.033,-0.614884 c 0.0101,-0.0017 0.0203,-0.0032 0.0306,-0.0045 -0.0139,-0.02118 -0.0281,-0.04199 -0.0434,-0.06186 -0.0462,-0.262852 -0.0742,-0.167653 -0.0334,-0.282168 -0.009,-0.03924 -0.006,-0.07915 0.009,-0.116189 -8.6e-4,0.146598 0.0535,0.341517 0.10462,0.466589 7.7e-4,0.01 0.003,0.03002 0.003,0.04003 -0.008,-0.002 -0.0237,-0.0063 -0.0315,-0.0083 0.0155,0.03262 0.0334,0.06434 0.0545,0.09396 8.5e-4,-0.0088 0.003,-0.02652 0.003,-0.03536 0.004,0.03874 0.0126,0.07707 0.023,0.114891 -0.002,0.01859 -0.003,0.03729 -0.005,0.05629 -0.0698,-0.165042 -0.0841,-0.181001 -0.11565,-0.263318 z m 0.11619,1.314107 c 0.007,-0.0011 0.0202,-0.0037 0.0268,-0.0048 0,2e-5 0.0665,0.465398 0.0665,0.465419 -0.10542,-0.115638 -0.0925,-0.439348 -0.0933,-0.460619 z m 0.11321,1.365744 c -0.0199,-0.02598 -0.0427,-0.04978 -0.0591,-0.07798 -0.005,-0.02846 7.7e-4,-0.05731 0.002,-0.08526 0.0453,0.03554 0.0954,0.134295 0.0574,0.163235 z m -0.0134,-0.349632 c -0.008,0.0069 -0.0143,0.01404 -0.0212,0.0217 0.0348,0.04887 0.0227,0.10905 0.01,0.163235 -0.009,-0.0032 -0.0247,-0.0099 -0.0328,-0.01327 0.002,-0.06785 -0.009,-0.13491 -0.0294,-0.19938 0.0158,0.01052 0.0318,0.02144 0.0478,0.03236 -0.0113,-0.02549 -0.0232,-0.05043 -0.0357,-0.07486 0.0117,-0.0126 0.0237,-0.02418 0.0357,-0.036 0.006,-0.05342 0.0204,-0.105545 0.023,-0.159346 -0.0898,0.07928 -0.0276,0.09768 -0.0733,0.182996 -0.0673,-0.05421 -0.0382,-0.144792 -0.004,-0.20873 0.008,0.01922 0.0151,0.03874 0.0224,0.05876 -0.009,-0.05538 -0.0153,-0.115553 0.0194,-0.163767 0.0305,0.06237 0.0679,0.1439 0.0386,0.396295 z m 0.009,-1.703774 c -0.008,-0.01468 -0.0148,-0.02923 -0.0221,-0.04329 -0.003,0.01962 -0.007,0.03963 -0.01,0.05965 -0.003,-0.02378 -0.006,-0.04771 -0.008,-0.07123 0.008,-0.01271 0.0156,-0.02522 0.023,-0.0377 0.003,0.01118 0.009,0.03352 0.0117,0.04471 -0.0114,-0.08098 0.0511,-0.140117 0.068,-0.214064 0.003,0.09114 -0.0274,0.179385 -0.0631,0.261916 z m 0.0276,-1.997651 c -0.0111,-0.01025 -0.0221,-0.02041 -0.033,-0.03028 -0.006,-0.249421 -0.0169,-0.507003 0.0749,-0.744206 0,2e-5 -0.0419,0.774465 -0.0419,0.774488 z m 0.24615,1.059268 c -0.0303,-0.135291 -0.0853,-0.271246 -0.0619,-0.411999 0.0244,0.08475 0.0498,0.16961 0.0651,0.256689 0.008,-0.0017 0.0231,-0.0053 0.0308,-0.0071 -0.004,0.08629 -0.0162,0.09841 -0.034,0.162322 z m 0.0607,-6.075333 c -0.12127,-0.320777 -0.45486,-1.037212 -0.21432,-1.300617 0.008,0.571497 0.0349,0.542851 0.22043,1.257588 -0.002,0.01065 -0.004,0.03225 -0.006,0.04303 z m 0.1033,0.127367 c -0.068,-0.441662 -0.38956,-1.133023 -0.18182,-1.523774 0.0377,0.70103 -0.0301,0.429614 0.15777,1.26668 0.002,-0.0217 0.004,-0.04315 0.007,-0.06434 0.002,0.0014 0.006,0.0043 0.009,0.006 -0.0202,0.09124 0.0188,0.181447 0.0207,0.272944 -0.003,0.0107 -0.009,0.03188 -0.0117,0.04252 z m -0.0177,-0.422922 c -0.0252,-0.05472 -0.0498,-0.115935 -0.029,-0.176114 -0.0122,-0.03689 -0.11105,-0.259514 -0.0879,-0.506619 0.0161,0.07615 0.0335,0.152186 0.0576,0.226408 0.002,-0.01493 0.003,-0.02977 0.005,-0.04445 0.003,0.07356 0.0221,0.14479 0.0442,0.214574 0.009,0.09528 -0.006,0.191199 0.01,0.286204 z m -0.0406,-0.987637 c -0.0274,0.03757 -0.0529,0.07643 -0.0774,0.115935 0.01,-0.177409 0.0951,-0.330317 0.23225,-0.447485 -0.0456,0.08408 -0.12263,0.23389 -0.1548,0.33155 z m 0.30895,-0.367673 c -0.0407,0.03132 -0.0797,0.0664 -0.1275,0.08642 -0.005,0.0079 -0.016,0.02367 -0.0213,0.03145 0.002,-0.0054 0.005,-0.01638 0.007,-0.02184 0.0837,-0.08315 0.0477,-0.114257 0.17612,-0.259685 -0.01,0.05487 -0.0244,0.108666 -0.0343,0.16366 z m 0.0988,-0.405518 c -0.15627,0.104927 -0.67534,0.446869 -0.79425,0.863011 -0.10101,-0.504198 0.17716,-0.52328 0.79204,-0.962691 0.0298,-0.01988 0.0568,-0.05068 0.0955,-0.05016 -0.0385,0.05425 -0.0414,0.06285 -0.0933,0.149849 z m 0.15988,3.305406 c 0.0161,-0.126795 0.0264,-0.113876 0.0554,-0.362873 0.0368,-0.05447 0.0597,-0.116317 0.0837,-0.176876 0.01,0.158115 -0.11855,0.453603 -0.13907,0.539749 z m 0.1622,0.387306 c -0.002,0.0029 -0.004,0.0086 -0.006,0.01144 -0.0142,-0.0098 -0.0285,-0.0191 -0.0426,-0.02832 0.014,-0.04184 0.0294,-0.0832 0.0453,-0.124393 0.005,0.04679 0.009,0.09424 0.003,0.141284 z m -0.58088,-3.658142 c 0.002,-0.01649 0.003,-0.03287 0.005,-0.04913 0.0524,-0.05478 0.45588,-0.374281 0.58173,-0.455156 7.7e-4,0.0055 0.003,0.01664 0.003,0.02211 -0.0374,0.06628 -0.53208,0.431827 -0.58953,0.482187 z m 1.83661,0.750583 c -0.0128,0.03704 -0.0246,0.07448 -0.0367,0.111896 -0.17329,0.02439 -0.4481,0.229682 -0.53548,0.307114 -0.03,-0.307835 -0.14184,-0.50048 -0.094,-0.697161 0.0411,-0.163236 0.10554,-0.319864 0.14205,-0.484393 0.18419,-0.118615 0.4212,-0.19936 0.63672,-0.160113 -0.016,0.01025 -0.0204,0.0247 -0.013,0.04353 -0.007,0.0037 -0.0192,0.0113 -0.0256,0.01505 0.0408,0.202037 0.0641,0.1 0.0907,0.217698 0.0121,0.0097 0.0244,0.01936 0.037,0.02911 -0.003,0.01832 -0.006,0.03652 -0.01,0.05497 0.0241,0.03418 0.0333,0.07669 0.0585,0.110091 0.0322,0.08895 -0.17083,0.208262 -0.25067,0.452183 z m -0.92303,-1.466596 c 0.30151,-0.417885 1.18538,-0.353075 1.23368,0.214063 -0.30223,-0.339878 -0.65613,-0.472368 -1.23368,-0.214063 z"
       id="path1-6"
       style="stroke-width:0.52916665;stroke:#ff00ff;stroke-dasharray:none;stroke-linejoin:round;stroke-linecap:round" />
    <rect
       style="fill:#0000ff;stroke:none;stroke-width:0.626025"
       id="rect37-9-8-3-5-5-36-6"
       width="64.69088"
       height="8.6695175"
       x="27.406744"
       y="11.747406"
       rx="0.8074705"
       ry="1.3065145" />
    <text
       xml:space="preserve"
       style="font-style:normal;font-weight:normal;font-size:5.65763px;line-height:1.25;font-family:sans-serif;fill:#000000;fill-opacity:1;stroke:none;stroke-width:0.163201"
       x="53.115791"
       y="18.07365"
       id="text37-3-4-2-4-4-1-2"><tspan
         sodipodi:role="line"
         id="tspan37-1-5-0-7-7-0-6"
         style="font-size:5.65763px;fill:#f9f9f9;stroke-width:0.163201"
         x="53.115791"
         y="18.07365">Hero</tspan></text>
    <path
       enable-background="new    "
       d="m 67.059012,57.875678 c -0.20548,-0.225602 0.0617,-5.77e-4 -0.45892,-0.463082 -0.12473,-0.101465 -0.0999,-0.134783 -0.30868,-0.342473 -0.13406,-0.126135 -0.13136,0.0068 -0.44372,-0.491684 -0.0888,-0.12507 -0.24981,-0.281252 -0.24981,-0.281252 -0.026,-0.05127 -0.30892,-0.517139 -0.39979,-0.575894 -0.0462,-0.05848 -0.0786,-0.12777 -0.1314,-0.181572 -0.32885,-0.468989 0.1829,0.384714 -0.26552,-0.384717 -0.0404,-0.07357 -0.1036,-0.130109 -0.15623,-0.193918 -0.0315,-0.02989 -0.21005,-0.600544 -0.52209,-0.709252 -0.0488,-0.01915 -1.13812,-1.387142 -1.15336,-1.408478 -0.54321,-0.990802 -0.0334,0.06055 -0.53067,-1.041439 -0.39092,-0.722131 -0.41696,-0.750838 -0.41696,-0.750838 0.12823,-0.007 0.26534,0.05582 0.32596,0.0399 -0.0254,-0.05212 -0.0597,-0.09892 -0.0907,-0.147258 0.0197,0.0011 0.0399,0.0026 0.0602,0.0049 0.0216,0.02794 0.0385,0.07123 0.0803,0.07123 -0.0247,-0.230002 -0.84025,-0.977545 -0.98453,-0.923444 -0.0347,0.01899 -0.0592,0.05497 -0.099,0.06422 -0.42365,-0.705855 -0.76556,-1.197345 -1.21975,-1.780081 -0.0986,-0.253311 -0.42178,-0.621983 -0.44307,-0.641533 -0.0195,-0.0041 -0.0392,-0.0026 -0.0585,-0.0029 -0.88116,-1.104635 -1.91053,-1.819182 -2.24601,-2.651658 0.065,-0.05055 -0.0155,-0.138287 0.0281,-0.19989 -0.0145,-0.02127 -0.0165,-0.01875 -0.10423,-0.195597 -0.0419,-0.01676 -0.0472,-0.07006 -0.0828,-0.09475 -0.016,-0.0011 -0.0317,-0.0011 -0.0473,-1.26e-4 -0.0767,-0.218164 -0.43741,-0.532928 -0.11098,-2.519338 0.0149,-0.0072 0.0301,-0.01419 0.0456,-0.02066 0.0147,-0.03862 0.012,-0.08045 0.0202,-0.119825 0.19292,-0.267842 0.26812,-0.513779 0.18041,-0.987508 -0.13257,-1.71693 1.30017,-1.474731 1.80139,-1.449169 0.005,0.01713 0.01,0.0347 0.0153,0.05238 0.0606,0.0035 0.12152,0.006 0.18234,8.51e-4 0.007,-0.0097 0.0133,-0.01925 0.0202,-0.02861 0.54266,0.0026 1.22394,-0.07396 1.41706,-0.08032 0.008,0.0091 0.0153,0.01846 0.0234,0.02806 0.062,-0.0026 0.12412,-0.01 0.18443,-0.02574 0.006,-0.01301 0.0125,-0.02574 0.0191,-0.03821 1.18971,-0.03751 0.89603,0.173159 2.50322,-0.256562 0.0213,0.01713 0.046,0.03119 0.075,0.02638 0.0304,-0.0077 0.16426,0.09736 0.20289,-0.04028 0.0431,-0.01404 0.0845,-0.03679 0.11152,-0.07436 0.21652,-0.04522 0.42917,-0.109943 0.64647,-0.149976 0.26037,0.144369 0.68313,-0.238753 0.74227,-0.116721 0.0876,-0.0078 0.17415,-0.02574 0.26085,-0.04133 0.0222,-0.003 0.0256,-0.02861 0.0359,-0.0442 0.51425,-0.111641 0.9126,-0.2419 1.24356,-0.653875 0.32179,-0.401567 0.26427,-0.129026 0.65324,-0.643745 0.003,-0.02144 -0.0484,-0.274239 -0.4267,0.01404 -0.0557,0.03938 -0.28468,0.277811 -0.38134,0.283208 -0.003,-0.180469 0.046,-0.140455 -0.0241,-0.242516 0.004,-0.0213 0.057,-0.691127 0.30388,-1.129432 0.0323,-0.08083 0.0575,-0.186119 0.003,-0.262662 0.004,-0.0104 0.0116,-0.03132 0.0155,-0.04184 -0.0151,-0.02259 -0.0382,-0.03549 -0.0621,-0.04549 -0.049,0.04187 -0.24282,0.40112 -0.2524,0.422413 0.12089,-0.31672 0.18462,-0.491875 0.10865,-0.569393 0.0268,-0.04562 -0.0224,-0.07577 -0.0633,-0.07447 -0.028,0.04218 -0.16159,0.30025 -0.18483,0.347677 -8.5e-4,-0.0377 -0.0128,-0.07356 -0.0403,-0.09983 0.004,-0.01104 0.009,-0.02184 0.013,-0.03235 -0.0136,-0.02248 -0.0365,-0.03145 -0.0613,-0.0334 -0.0845,0.132023 -0.21508,0.479528 -0.22562,0.500778 -0.008,-0.0061 -0.0148,-0.01185 -0.0219,-0.01753 -5e-4,-0.01794 -6.4e-4,-0.03561 -6.4e-4,-0.05329 -0.14984,-0.04526 -0.37118,1.214046 -0.69911,1.575622 -0.0893,-0.06356 -0.20939,-0.0234 -0.30165,0.01404 -0.0765,-0.06763 -0.13029,-0.04837 -0.16273,0.02181 -0.78314,0.05618 -1.29696,0.03145 -1.44033,0.03145 -0.0199,-0.08344 -0.1661,-0.08304 -0.18495,8.51e-4 -0.0902,-0.01094 -0.12943,-0.06674 -0.31933,-5.79e-4 -0.003,0.02806 -0.002,0.05655 0.003,0.08449 -1.46628,0.02124 -1.12519,0.225793 -2.09291,0.195216 -0.022,-0.0311 -0.0129,-0.06341 -0.20706,-0.07577 -0.01,0.0094 -0.0194,0.01832 -0.0294,0.02716 0,0 -0.3469,-0.03912 -1.24694,-0.03912 -0.004,-0.0073 -0.0135,-0.0217 -0.018,-0.02898 -0.0663,-0.0029 -0.13271,-0.0043 -0.1986,0.003 -0.009,0.01404 -0.0173,0.02846 -0.0257,0.04288 -0.27335,-0.01866 -0.56808,-0.189415 -1.01364,-0.246553 -1.38122,-0.14292 -1.03654,0.164744 -1.65049,-0.05005 -0.45604,-0.167166 -0.41416,-0.197745 -0.47464,-0.254755 -0.18603,-0.198127 -0.29802,-0.06513 -0.29802,-0.442555 0.1759,-0.07919 0.26281,0.05274 0.50429,0.05171 l 0.003,0.003 -0.003,0.0152 c -0.0276,0.02587 -0.0516,0.05615 -0.0629,0.09305 0.009,-0.0017 0.0254,-0.0051 0.0339,-0.0069 -0.005,0.02081 -0.01,0.04184 -0.015,0.06277 0.009,0.0156 0.019,0.03107 0.0288,0.04692 0.004,-0.0011 0.0134,-0.003 0.0178,-0.0041 0.003,0.01988 0.009,0.03938 0.0183,0.05771 0.005,-0.0086 0.0162,-0.02572 0.0217,-0.03432 0.003,0.01248 0.005,0.02534 0.008,0.03848 0.008,-0.0096 0.0161,-0.01899 0.0246,-0.02806 l -0.003,-0.0096 c 0.04,-0.07903 0.0621,-0.165192 0.0791,-0.251612 0.21236,-0.06742 0.17753,-0.240263 0.17911,-0.377702 0.003,-0.08268 0.11298,-0.02911 0.0872,-0.247085 0.19325,-0.15174 0.0466,-0.182594 0.0686,-0.299062 0.40933,-0.134931 0.2449,-0.186779 0.10618,-0.424747 0.0192,-0.04562 0.009,-0.09437 -0.004,-0.139713 -0.0155,-0.04979 0.009,-0.09917 0.0129,-0.14868 0.0254,-0.01702 0.0357,0.02092 0.051,0.03483 -7.6e-4,-0.01457 -0.003,-0.02911 -2.5e-4,-0.04315 0.016,-0.01522 0.0345,-0.02727 0.0523,-0.04003 -0.004,-0.02288 -0.006,-0.04614 -7.6e-4,-0.06876 -0.0234,-0.02367 -0.0515,-0.04199 -0.082,-0.05447 -0.003,-0.0071 -0.007,-0.02132 -0.009,-0.02849 0.047,-0.01979 0.10622,-0.0234 0.1722,-0.124115 -0.0433,0.02832 -0.0862,0.05836 -0.13529,0.07603 0.002,-0.01338 0.003,-0.04028 0.005,-0.05369 0.0554,-0.03729 0.0691,-0.109051 0.0886,-0.168568 0.0276,-0.0086 0.0552,-0.0169 0.0831,-0.02493 -0.007,0.013 -0.0134,0.02638 -0.0197,0.0399 0.0562,-0.0082 0.0996,-0.049 0.144,-0.08111 0.0215,-0.02886 0.0443,-0.05693 0.0713,-0.08083 0.0118,0.01052 0.0243,0.0217 0.0365,0.03249 0.009,-0.02196 0.0145,-0.04522 0.0126,-0.06902 0.004,-0.01534 0.007,-0.03094 0.007,-0.04666 0.0106,-0.02248 0.0207,-0.04509 0.0296,-0.0681 0.003,0.01 0.0101,0.03002 0.0135,0.04017 0.26209,-0.374879 -0.0447,-0.738089 -0.44566,-0.923955 -0.089,-0.04303 -0.14817,-0.14271 -0.2511,-0.15635 -0.0542,-0.06173 -0.12515,-0.10463 -0.19963,-0.137122 -3.7e-4,-0.01196 -5.2e-4,-0.02367 -6.4e-4,-0.03536 -0.0162,-0.0068 -0.0323,-0.01352 -0.0483,-0.02003 -0.0143,-0.03938 -0.0609,-0.06173 -0.0971,-0.08058 -0.0842,-0.04341 -0.13075,-0.137119 -0.21628,-0.180789 -0.0194,-0.02522 -0.0434,-0.04679 -0.0695,-0.06421 -0.0321,-0.04641 -0.0686,-0.09422 -0.11556,-0.125158 -0.0307,-0.05397 -0.262,-0.269822 -0.51533,-0.236543 -0.12866,-0.01716 -0.25877,0.01676 -0.38692,-2.9e-4 -0.051,-0.02211 -0.10346,-0.04003 -0.15973,-0.03885 0.0148,0.0066 0.0295,0.01468 0.0449,0.02081 -0.009,-0.0011 -0.0254,-0.0041 -0.034,-0.0053 -0.009,-0.0066 -0.0188,-0.01185 -0.0288,-0.01586 5.2e-4,-0.0047 0.002,-0.01402 0.003,-0.01883 0.0129,-0.0071 0.0257,-0.01416 0.0389,-0.02106 -0.0457,-0.09789 -0.0509,-0.0039 -0.0983,-0.115019 0.007,-0.0039 0.0204,-0.01156 0.0273,-0.01534 -0.004,-0.01807 -0.006,-0.03612 -0.0123,-0.05304 -0.0911,-0.07036 -0.0284,-0.0316 -0.0836,-0.130362 0.003,-0.01702 0.0169,-0.03249 0.0126,-0.05004 -0.0221,-0.04184 -0.0601,-0.08201 -0.11073,-0.08241 -0.0566,-0.192622 -0.0842,-0.730586 -0.5889,-0.724065 -0.22709,-0.07199 -0.63832,0.08523 -0.6596,0.08891 0.30569,-0.173371 0.62397,-0.219207 0.95048,-0.02702 -0.16384,-0.260491 -0.99376,-0.271243 -1.80581,0.708724 -0.003,0.0077 -0.008,0.02326 -0.01,0.03094 0.005,-0.0023 0.42151,-0.53044 0.95853,-0.711059 -0.0213,0.01789 -0.26532,0.156735 -0.29256,0.200677 -0.0317,0.0282 -0.0637,0.05614 -0.0919,0.08787 l -7.7e-4,0.0049 c -0.34379,0.304327 -0.61707,0.50152 -0.63866,0.516374 0.003,-0.03965 0.0466,-0.05901 0.0604,-0.09488 -0.0642,0.05302 -0.0971,0.136589 -0.1713,0.179237 -0.14584,0.110472 -0.3426,0.162066 -0.44228,0.32596 0.15692,-0.158965 0.24936,-0.149658 0.3964,-0.267356 0.003,0.02248 -0.004,0.04367 -0.0116,0.06499 -0.021,0.0042 -0.0417,0.01609 -0.0461,0.03885 -0.0743,0.04607 -0.41923,0.213853 -0.44749,0.439943 -0.16982,0.272774 0.0414,1.015516 0.17649,1.306967 0.004,0.07761 0.0365,0.149849 0.0545,0.224858 0.006,-0.0035 0.0167,-0.0104 0.0221,-0.01378 0.11933,0.434013 0.0537,0.438899 -0.0136,0.538198 -0.13941,-0.208563 -0.47451,-0.665588 -0.47451,-0.665588 0.004,-0.08984 -0.0783,-0.167975 -0.10593,-0.189628 -0.0175,5.78e-4 -0.0351,0.0014 -0.0525,0.0023 -0.69665,-0.890293 -0.37147,-0.103588 -0.38418,-2.148158 0.0508,-0.03366 0.015,-0.09983 0.032,-0.147257 0.26036,-0.33189 0.56692,-0.697565 0.41786,-1.131916 -0.0697,-0.332124 -0.33181,-0.67553 -0.38639,-0.853387 -0.005,-0.0039 -0.0156,-0.0117 -0.0207,-0.0156 0.0191,-0.175622 0.0593,-0.399505 0.19651,-0.465291 0.12677,-0.06077 0.1378,-0.159688 0.31765,-0.33597 0.21073,-0.217144 0.12404,-0.220799 0.24681,-0.471538 0.41117,0.03649 0.30612,0.06755 0.47335,0.05614 0.0502,-0.03845 0.0773,-0.101506 0.12802,-0.140626 0.0724,-0.0538 0.16116,-0.07774 0.23681,-0.125942 10e-6,0 1.50464,-0.192093 1.50466,-0.192093 -0.007,-0.0026 -0.0139,-0.0048 -0.0207,-0.0071 0.75433,-0.04033 0.71557,-0.281741 0.82649,-0.08032 0.5679,-0.143028 1.0951,-0.559639 3.22572,-1.044309 2.04973,-0.49638 3.88916,-0.292516 3.91042,-0.294386 -0.0123,0.0031 -0.0244,0.0063 -0.0364,0.0095 0.39497,-0.02366 1.44491,0.310172 1.46619,0.316082 -0.54148,-0.727997 -1.76133,-1.003215 -2.63401,-1.031391 0.007,-0.0029 0.0142,-0.0055 0.0216,-0.0083 -0.98955,0.09112 -0.76995,-0.461549 -7.58662,1.493495 -0.294,0.08616 -0.56348,0.124116 -0.95111,0.07082 0.0783,-0.16776 0.10319,-0.160196 0.11424,-0.242793 -0.40129,-0.01107 -0.43463,0.551246 -1.08109,0.680907 0.01,-0.06478 -0.0119,-0.275834 -0.35015,-0.141541 -0.0195,-0.06785 -0.069,-0.148168 -0.15142,-0.133336 -0.0994,-0.021 -0.22734,0.118527 -0.26073,0.138799 -0.0697,0.02613 -0.13724,-0.04433 -0.20651,-0.01211 -0.0693,0.02886 -0.10229,0.105546 -0.16689,0.142328 -0.0294,0.02581 -0.17752,-0.05217 -0.23147,0.139968 -0.0285,0.110983 0.007,0.225239 0.002,0.337668 -0.28478,0.151123 -0.49128,0.356626 -0.88938,0.510785 -0.8564,0.367633 -1.03236,0.01702 -1.2854,-0.189882 -0.0107,-0.0026 -0.0213,-0.0048 -0.032,-0.0064 -0.0367,0.102294 0.0398,0.196918 0.0819,0.285037 0.13604,0.320586 0.56314,0.512953 0.81635,0.707043 0.007,-0.0011 0.0217,-0.0032 0.0289,-0.0043 0.24271,-0.304437 0.13157,-0.232658 1.27981,-0.782543 0.0227,0.137758 0.008,0.278131 0.0281,0.416038 0.008,0.05967 0.0751,0.06498 0.0106,0.347932 -0.93254,1.196622 -0.28132,1.795679 -0.24759,1.937982 -0.009,0.05876 -0.0313,0.115681 -0.029,0.175988 0.0149,0.0043 0.0299,0.009 0.0448,0.0139 -0.24405,2.438783 -0.32862,1.755071 0.31102,2.800868 -0.0614,0.07197 0.0649,0.234293 0.12529,0.24564 0.11712,0.184207 0.7397,1.228813 0.75187,1.250192 -0.003,0.119057 0.18164,0.251015 0.20627,0.300482 -0.0319,0.05446 -0.2007,0.226176 -0.21887,0.247468 -0.0636,-0.0026 -0.53958,0.592765 -0.3647,0.861566 0.0171,0.222796 0.16254,0.789554 0.15155,0.939041 -0.006,0.02129 -0.16683,0.927865 -0.095,1.128667 0.009,0.02126 0.10302,0.381339 0.0244,0.591491 0.10008,-0.03245 0.0435,-0.420604 0.0169,-0.539513 0.006,-0.04925 -0.0192,-0.09567 -0.0261,-0.143498 -0.0426,-0.172373 -0.003,-0.317185 0.0803,-0.839211 0.0216,0.06563 0.0101,0.136208 0.0138,0.204182 -0.02,0.07403 -0.003,0.76926 0.0603,0.800093 0.0533,0.236226 0.31712,0.474088 0.41629,0.616182 -0.15476,0.25023 -0.0789,0.458068 0.0301,0.706915 8.6e-4,0.05866 0.12407,0.240753 0.0927,0.414464 -0.63155,0.817517 -0.24256,0.966262 -0.23134,1.080433 0.0351,0.05743 0.0823,0.108137 0.1392,0.144919 0.29936,0.21058 0.0315,0.02808 0.26487,0.260726 0.005,-0.05133 -0.0493,-0.08942 -0.033,-0.141286 0.0163,0.01742 0.0317,0.03561 0.0471,0.05433 1.3e-4,-0.0081 5.2e-4,-0.02417 6.4e-4,-0.03223 0.0104,0.01572 0.0222,0.03041 0.0376,0.04237 5.2e-4,-0.0076 0.002,-0.02259 0.003,-0.03016 -0.05,-0.107351 -0.0784,-0.223156 -0.11359,-0.335842 0.003,-0.01375 0.007,-0.02716 0.0104,-0.04029 0.006,0.01286 0.0118,0.02613 0.0178,0.0395 -0.003,-0.03666 -0.008,-0.07318 -0.01,-0.109689 0.0241,0.03262 0.0355,0.0746 0.0682,0.100465 -0.0288,-0.09554 -0.0967,-0.177535 -0.10385,-0.280339 -0.0219,-0.157604 -0.0101,-0.296341 -0.0101,-0.296341 0.004,-0.0078 0.0142,-0.02326 0.0188,-0.03107 0.008,0.09228 0.0766,0.476385 0.12191,0.58603 -0.008,0.01702 -0.0152,0.03483 -0.0227,0.0525 0.0391,0.07305 0.0827,0.228046 0.088,0.233951 -0.0177,0.04731 -0.0323,0.09579 -0.0461,0.144411 -0.004,-0.0043 -0.0125,-0.01327 -0.0166,-0.01768 -0.0118,-0.0014 -0.0237,-0.0032 -0.0354,-0.0039 0.0734,0.171547 0.005,0.09802 0.0244,0.268122 0.0152,0.02783 0.0312,0.05538 0.0399,0.08654 l -0.0163,0.0055 c 0.0185,0.01742 0.0414,0.02806 0.0665,0.03314 0.009,0.03483 0.0158,0.07044 0.0116,0.106967 -0.0564,-0.01627 -0.0838,-0.06694 -0.10944,-0.114638 0.003,0.04588 0.0305,0.08746 0.0599,0.121396 0.0471,0.02522 0.0877,0.05939 0.12736,0.09449 0.0125,0.02326 0.0259,0.04626 0.039,0.06952 -0.003,-0.02378 -0.004,-0.04797 -0.007,-0.07135 0.0333,0.02143 0.0729,0.0399 0.0857,0.08098 0.002,-0.0057 0.005,-0.01731 0.007,-0.02299 0.0515,0.02456 0.0757,0.07865 0.11386,0.118016 -0.0266,-0.105609 -0.11266,-0.0667 -0.12244,-0.211853 -0.0197,-0.0061 -0.0392,-0.0117 -0.0591,-0.01597 0.013,0.01416 0.0296,0.02352 0.0469,0.03249 -3.7e-4,0.01105 -8.5e-4,0.03315 -0.002,0.04405 -0.0334,-0.0064 -0.0594,-0.02702 -0.0797,-0.05316 0.003,-0.0055 0.0113,-0.01702 0.0151,-0.02274 -0.0194,-0.02444 -0.0554,-0.119569 -0.0434,-0.24226 0.0474,0.07664 0.0393,0.06559 0.0677,0.09579 -0.004,0.02937 -0.007,0.05939 -0.003,0.08942 0.005,-0.01339 0.0105,-0.02638 0.0157,-0.03925 0.006,0.0026 0.0189,0.0081 0.0251,0.01081 8.6e-4,0.01 0.003,0.02989 0.003,0.0399 0.006,-0.01899 0.0125,-0.03807 0.0191,-0.05641 0.0298,0.02299 0.0316,0.06289 0.0369,0.09721 -0.004,0.07163 0.14579,0.200297 0.13349,0.27112 0.0269,0.04041 0.0343,0.08942 0.0584,0.131275 0.004,-0.0079 0.0129,-0.02378 0.0172,-0.03171 8.5e-4,0.0069 0.003,0.02069 0.005,0.02757 -0.021,0.13268 0.024,0.236356 0.0456,0.253057 0.003,-0.02795 -1.3e-4,-0.05564 -0.003,-0.08304 0.0105,0.0063 0.0163,0.113916 0.036,0.160772 0.0152,-0.02664 0.009,-0.05862 0.0118,-0.08746 0.005,1.27e-4 0.0152,5.78e-4 0.0203,5.78e-4 0.003,-0.02417 0.005,-0.04821 0.009,-0.07173 0.013,0.02262 0.0232,0.04666 0.0333,0.0711 0.0221,-0.03483 0.013,-0.07773 0.0155,-0.116444 0.005,2.89e-4 0.0148,0.0011 0.0199,0.0014 0.003,-0.01597 0.006,-0.03171 0.009,-0.04718 0.007,0.049 -0.004,0.09879 0.006,0.147914 l 0.0116,-0.0095 c 0.0516,-0.193196 0.0206,-0.276941 0.0116,-0.323496 l -0.0106,0.0091 c 0.003,-0.02248 0.004,-0.04471 0.005,-0.0668 0.009,0.0011 0.0182,0.0026 0.0273,0.0043 0.0128,0.04536 0.0225,0.09163 0.0394,0.135954 0.0114,-0.03016 0.0105,-0.06265 0.0135,-0.09396 0.006,0.02118 0.009,0.04303 0.0109,0.06539 0.004,-0.0094 0.009,-0.01846 0.0144,-0.02702 l 0.01,-0.0052 c -8.5e-4,0.07499 0.0289,0.145959 0.0408,0.219397 l -0.003,0.01327 -0.0125,-0.0064 c 0.004,0.0616 0.0106,0.123223 0.0142,0.185208 0.033,-0.02196 0.0601,-0.05447 0.0437,-0.09643 0.009,-0.02978 0.014,-0.06055 0.0153,-0.0915 0.01,0.0143 0.0199,0.02846 0.031,0.04237 0,0 0.0231,-0.152485 0.0506,-0.252144 0.0387,0.07585 -0.0179,0.286014 -0.003,0.364444 0.019,-0.02222 0.0382,-0.04887 0.0347,-0.07953 0.0103,-0.02592 0.0657,-0.186653 0.0445,-0.266956 0.0194,-0.06539 0.0346,-0.132041 0.059,-0.195871 0.0117,0.08265 -0.0422,0.153481 -0.0486,0.233673 0.0613,-0.02937 0.0378,-0.123988 0.089,-0.165572 -0.026,0.08327 0.008,0.181681 0.0352,0.202887 0.002,-0.07994 -0.0321,-0.163491 0.004,-0.241092 0.005,0.05563 -0.0212,0.127621 0.0197,0.172203 0.003,-0.01859 0.004,-0.03679 0.007,-0.05484 0.009,0.0079 0.0182,0.01571 0.0276,0.02444 -0.003,-0.242091 0.0511,-0.272904 0.0673,-0.361959 l -0.002,-0.0068 c 0.008,-0.0269 0.0152,-0.05369 0.0231,-0.08019 0.006,0.0076 0.0182,0.02248 0.0243,0.03002 0.0213,-0.04471 0.016,-0.106438 0.0598,-0.136741 0.0889,0.268889 0.1816,0.338288 0.0421,0.908763 -0.0799,0.01609 -0.0727,0.121394 -0.13879,0.151675 -0.0104,0.03574 -0.0191,0.07226 -0.0291,0.108519 -0.0402,0.01844 -0.0535,0.06577 -0.0334,0.104505 0.0161,0.02418 -0.003,0.04965 -0.006,0.07499 0.0663,0.461935 -0.0375,0.644764 -2.17948,2.169982 -0.0121,-0.01664 -0.0161,-0.04199 -0.0359,-0.05043 -0.0288,0 -0.0529,0.02612 -0.0466,0.05563 -0.009,0.0098 -0.41191,0.368248 -0.44359,0.391858 -0.0316,-0.01025 -0.0544,0.0098 -0.0739,0.03145 0.0131,0.02326 0.0254,0.04796 0.0308,0.07473 -0.0213,0.01785 -1.57002,1.319549 -1.84557,1.573157 -0.44473,-0.08235 -1.53714,0.948733 -1.35066,1.175715 0.0771,-0.106057 0.21733,-0.475916 0.56199,-0.567586 -0.0273,0.0467 -0.30711,0.362532 -0.41032,0.670262 0.0203,0.171968 -0.17843,0.13984 -0.0207,0.805298 0.15079,0.488772 0.97039,2.479582 1.02117,2.613704 0.016,0.03366 -0.0439,0.0542 -0.0208,0.08891 0.0112,0.0215 0.1701,0.312403 0.25928,0.304393 0.26851,0.577125 -0.0165,0.04201 0.31974,0.581228 0.0502,0.37394 0.71552,1.01883 0.75122,1.374818 0.0858,0.652177 0.51597,0.496486 -0.23825,1.3266 -0.33395,0.348637 -0.93936,0.465951 -0.85481,0.967898 0.0516,0.173308 0.037,0.134867 0.29724,0.184294 1.25563,0.148509 1.15391,-0.230315 1.4992,-0.407577 0.45708,-0.22282 0.54011,-0.229387 0.63971,-0.332592 0.0423,-0.03961 0.32981,-0.739769 0.086,-1.506882 -0.0362,-0.113703 -0.15174,-0.296743 -0.1418,-0.412274 0.0119,-0.235165 -0.0537,-0.137354 -0.0932,-0.487139 -0.30663,-0.725231 -0.12034,-0.429529 -0.24264,-0.853001 -0.0182,-0.06577 -0.0608,-0.123076 -0.0668,-0.192348 -0.008,-0.04329 -0.0106,-0.105544 -0.0645,-0.115806 -0.005,-0.02124 -0.17684,-1.851268 -0.47335,-1.962803 -0.0776,-0.236758 -0.46508,-0.926376 -0.55458,-1.027544 0.0399,-0.03702 0.0641,-0.08525 0.086,-0.133867 0.0332,-0.0234 0.0689,-0.04405 0.10618,-0.05965 0.0815,-0.0085 0.0722,0.120547 0.35532,-0.100339 0.0157,-0.02482 -0.006,-0.05238 -0.0152,-0.0746 0.35206,-0.175858 0.88179,-0.420477 1.97034,-1.128416 -0.0232,0.02745 -0.0477,0.05395 -0.072,0.08086 0.0117,0.01065 0.0235,0.02143 0.0355,0.03262 1.07925,-1.018023 2.80839,-1.550186 3.04156,-1.657772 0.40306,0.09335 0.67258,0.04919 0.72381,-0.02404 0.58391,0.02725 2.03301,1.504246 2.43759,1.949948 0.0633,0.147362 -0.004,0.05321 0.13674,0.292686 0.0833,-0.04063 -6.4e-4,-0.03929 -0.0478,-0.215616 0.0251,0.02586 0.0441,0.05655 0.0602,0.08904 0,0 0.4437,0.494404 1.54821,1.36534 0.0306,0.02092 -0.0151,0.06539 0.0109,0.09175 0.0845,0.08487 0.1813,0.155967 0.27087,0.235378 0.0295,0.02806 0.0707,0.0077 0.10435,-2.44e-4 0.4624,0.416908 2.03713,2.921414 2.20235,3.141896 0.0157,0.104438 0.24464,0.439876 0.33,0.473472 0.12067,0.04401 0.25447,0.277024 0.38522,0.331421 0.026,0.02277 0.24807,0.323963 0.66622,0.578359 0.007,0.0037 0.41507,0.282506 0.42072,0.295169 0.0304,0.06238 0.0815,0.110602 0.13892,0.148683 0.0607,0.03861 0.0867,0.110475 0.14284,0.154524 0.66129,0.531908 0.35225,0.133827 0.71185,0.601242 0.0591,0.09305 0.18144,0.121905 0.23733,0.218228 0.15299,0.227106 0.18985,0.06723 0.38717,0.381847 0.0362,0.05735 0.10464,0.08228 0.14466,0.136586 0.10271,0.145556 0.34214,1.11913 0.48961,1.12151 1.20789,0.04481 0.92572,0.0252 1.59838,0.419925 0.38416,0.202761 1.31351,0.355178 1.56561,0.0443 0.46672,-0.477258 -1.13175,-0.950607 -2.41753,-2.313267 z M 51.776322,38.935005 c 0.006,0.01431 0.0113,0.02858 0.0172,0.04329 -0.006,-0.0011 -0.0179,-0.0037 -0.0239,-0.0048 -0.0383,0.133359 -0.0337,0.275283 -0.0264,0.412532 0.0346,-0.06615 -0.002,-0.150254 0.0473,-0.212366 0.0177,0.112494 0.01,0.111408 -0.0139,0.369373 -0.11527,-0.179936 -0.0871,-0.403903 -2.5e-4,-0.60802 z m -0.0801,1.866224 c 0.009,0.03107 0.0163,0.06277 0.023,0.09488 0.0106,-0.01441 0.0215,-0.02846 0.0323,-0.04237 0.0134,0.03978 0.0308,0.07812 0.0495,0.115937 0.006,0.184846 0.0778,0.307028 0.0737,0.441642 -0.16465,-0.214723 -0.0118,-0.163704 -0.18729,-0.52872 6.4e-4,-0.02757 0.004,-0.05459 0.009,-0.08137 z m -0.16935,-3.58107 c 0.005,-5.77e-4 0.016,-0.002 0.0213,-0.0026 -0.005,0.02719 -0.10769,0.403053 -0.12698,0.453607 -0.0678,0.08151 -0.16101,0.32577 -0.17534,0.378467 0.008,0.0139 0.0153,0.02806 0.023,0.04237 -0.0306,0.144452 -0.0367,0.152461 -0.14842,0.609426 -0.006,-0.0094 -0.0111,-0.01861 -0.0161,-0.02783 -0.009,-0.05926 0.0207,-0.114233 0.0263,-0.172201 -0.013,0.03406 -0.0266,0.06823 -0.046,0.09929 -0.0489,-0.159792 0.0132,-0.331675 0.003,-0.495315 -0.003,-0.351885 0.0391,-0.224626 0.33286,-0.706641 0.0737,-0.114829 0.0634,-0.128513 0.10682,-0.178469 z m -0.0588,4.064444 c -0.0488,-0.09583 -0.23442,-0.328362 -0.1249,-0.520391 l 0.0118,0.01714 c 0.003,0.07265 0.0285,0.141539 0.0557,0.208071 -0.0199,0.05175 -0.0311,-0.0084 0.0573,0.295171 z m 4e-4,-0.168059 c 0.0396,0.07813 0.11825,0.307219 0.10527,0.394596 -0.0427,-0.06496 -0.12546,-0.338136 -0.10527,-0.394596 z m 0.11553,0.516886 c 7.6e-4,-0.0088 0.003,-0.02664 0.003,-0.03549 0.0315,0.04563 0.0244,0.103335 0.0316,0.155842 0.009,0.05784 -0.0363,0.103461 -0.0654,0.148551 0.003,-0.09084 0.0492,-0.176622 0.0307,-0.268906 z m 0.003,-0.284379 c -0.0508,-0.210217 -0.11785,-0.250612 -0.1856,-0.497144 0.0523,0.04887 0.0498,0.124647 0.0791,0.185865 0.0534,0.137442 0.16453,0.196939 0.10644,0.311279 z m -0.0717,-0.3695 c -0.0398,-0.08485 -0.0915,-0.112193 -0.0131,-0.363125 0.0133,0.03197 0.0209,0.06577 0.0227,0.100593 -0.0472,0.168804 0.003,0.180936 -0.01,0.262532 z m -0.46153,-3.058318 c 0.0364,0.09539 0.009,0.437304 -0.002,0.536773 -0.003,-0.0051 -0.008,-0.01522 -0.0106,-0.02041 -0.002,-0.03598 -0.0113,-0.439835 0.0121,-0.516374 z m 0.36444,-0.846886 c 0.005,0.0037 0.015,0.01092 0.0199,0.01441 0.01,0.0126 0.0195,0.0256 0.029,0.039 -0.0872,0.208496 -0.20605,0.289586 -0.24005,0.317526 0.011,-0.07057 0.15246,-0.31251 0.19118,-0.370946 z m -0.61836,1.514021 c -0.0797,-0.482568 -0.22188,-0.809742 -0.0592,-1.074206 -0.034,0.821661 -0.0226,0.169738 0.069,1.045095 -0.003,0.0072 -0.008,0.02181 -0.01,0.02911 z m 0.0483,-1.204441 c 0.019,-0.02481 0.0369,-0.05109 0.0448,-0.08175 0.0471,-0.105947 0.2545,-0.298187 0.35637,-0.437879 0.05,0.0395 0.0768,0.09968 0.12244,0.143495 -0.75445,1.630934 -0.26177,0.560359 -0.49441,1.943698 -0.008,-0.01597 -0.0155,-0.03223 -0.0226,-0.04809 -0.005,-0.0533 -0.0212,-0.107752 -0.008,-0.160644 0.088,-0.270393 -0.16022,-0.750857 6.4e-4,-1.358834 z m 0.0451,1.574069 c 0.0421,-0.210431 0.0823,-0.590831 0.0825,-0.59149 0.006,0.03053 0.012,0.06134 0.0187,0.09203 -0.0256,0.133616 0.0322,0.266443 0.0234,0.400056 -0.0312,0.12348 -0.0529,0.248893 -0.0768,0.37405 -0.0487,-0.149551 -0.0628,-0.203313 -0.0478,-0.274646 z m 0.0281,0.377428 c -0.0123,0.03418 -0.0219,0.06928 -0.0307,0.104756 -0.0222,-0.06914 -0.0251,-0.14205 -0.0356,-0.213148 0.005,-0.03378 0.0112,-0.06694 0.019,-0.09983 0.0203,0.06813 0.0523,0.135315 0.0473,0.208222 z m 0.38094,1.362492 c -0.20455,-0.229065 -0.50591,-0.534735 -0.45309,-0.998178 0.0664,0.122862 0.14448,0.353904 0.11802,0.484141 0.0488,-0.0239 0.0185,-0.107222 0.01,-0.202886 0.036,0.05017 0.1202,0.24666 0.22278,0.333631 -0.01,-0.02147 -0.45739,-0.64187 -0.25631,-0.968024 0.0145,0.03523 0.0279,0.0711 0.0425,0.106459 -7.6e-4,-0.04992 -0.0163,-0.09734 -0.0311,-0.144389 -4.9e-4,-0.03735 0.0734,-0.379871 0.0784,-0.401354 0.0593,0.376768 -0.0635,0.149084 0.31504,1.758621 -0.007,0.01026 -0.0138,0.02052 -0.0209,0.03094 -0.006,2.57e-4 -0.0187,8.51e-4 -0.0249,0.0011 z m 0.003,0.06148 c 0.009,0.151591 -0.0775,0.14936 0.11176,0.49895 0.11762,0.220907 0.0752,0.07839 0.0306,0.496614 -0.11057,-0.436419 -0.31639,-0.650227 -0.14246,-0.995568 z m -0.13568,2.059887 c -0.21893,-0.213574 0.0767,-0.688873 0.26423,-0.932008 0.0138,0.05551 0.0116,0.113068 0.0116,0.169996 -0.12272,0.201335 -0.27828,0.583775 -0.2758,0.762012 z m 0.24356,0.168317 c -0.0357,-0.01885 -0.0708,-0.03862 -0.10437,-0.06084 -0.0421,-0.270479 0.0374,-0.636644 0.12515,-0.788786 0.0449,0.350185 -0.13942,0.278597 -0.0208,0.849624 z m -0.10839,-0.564464 c -0.004,0.08942 -0.0276,0.176878 -0.0304,0.266698 -0.009,0.07226 0.009,0.144389 0.004,0.216784 -0.0902,-0.06113 -0.13576,-0.03076 0.0261,-0.483482 z m -0.0769,0.477 c 0.18051,0.1429 0.19217,0.06354 0.21237,0.203015 -0.088,-0.06175 -0.23107,-0.108284 -0.21237,-0.203015 z m 0.33089,0.256434 c -0.0556,-0.0045 -0.0941,-0.04992 -0.0997,-0.103588 0.0522,0.0088 0.0954,0.04925 0.0997,0.103588 z m -0.0366,-0.101124 c -0.0445,-0.02892 -0.0862,-0.04394 -0.0914,-0.08083 -0.0363,-0.154671 -0.0412,-0.316079 -0.0126,-0.472579 0.0312,0.198297 0.0176,0.108114 0.10397,0.553411 z m -0.0426,-1.044181 c -0.0158,-0.05576 -0.0104,-0.113854 -0.0129,-0.170651 0.017,-0.02586 0.0345,-0.05121 0.0527,-0.07603 0.003,0.02326 0.005,0.04745 0.008,0.07123 -0.009,0.05989 -0.0106,0.12437 -0.0477,0.175453 z m -0.002,-0.238096 c -0.008,-0.104887 0.0294,-0.206137 0.0398,-0.309601 0.0306,0.04342 0.0325,0.098 0.0346,0.149341 -0.0133,0.05797 -0.0394,0.112281 -0.0744,0.16026 z m 0.10685,0.692849 c -0.0161,-0.04154 -0.056,-0.198701 -0.0255,-0.25514 0.01,-0.0099 0.0202,-0.01948 0.0306,-0.02872 0.003,0.0035 0.0108,0.01066 0.0145,0.01416 0.006,0.09035 -0.0169,0.179386 -0.0195,0.269694 z m 0.0877,-0.63333 c -0.0177,0.03145 -0.031,0.06785 -0.0621,0.08903 -0.0216,0.04938 -0.043,0.09917 -0.0722,0.14492 -0.007,-0.09955 -0.026,-0.05796 0.13687,-0.297635 -5.3e-4,0.02106 -0.002,0.04222 -0.003,0.06368 z m -0.0453,-0.05381 c -0.0426,-0.321349 -0.0152,-0.338625 -0.004,-0.470348 0.10614,0.137014 0.0935,0.324665 0.004,0.470348 z m -0.033,-0.614884 c 0.0101,-0.0017 0.0203,-0.0032 0.0306,-0.0045 -0.0139,-0.02118 -0.0281,-0.04199 -0.0434,-0.06186 -0.0462,-0.262852 -0.0742,-0.167653 -0.0334,-0.282168 -0.009,-0.03924 -0.006,-0.07915 0.009,-0.116189 -8.6e-4,0.146598 0.0535,0.341517 0.10462,0.466589 7.7e-4,0.01 0.003,0.03002 0.003,0.04003 -0.008,-0.002 -0.0237,-0.0063 -0.0315,-0.0083 0.0155,0.03262 0.0334,0.06434 0.0545,0.09396 8.5e-4,-0.0088 0.003,-0.02652 0.003,-0.03536 0.004,0.03874 0.0126,0.07707 0.023,0.114891 -0.002,0.01859 -0.003,0.03729 -0.005,0.05629 -0.0698,-0.165042 -0.0841,-0.181001 -0.11565,-0.263318 z m 0.11619,1.314107 c 0.007,-0.0011 0.0202,-0.0037 0.0268,-0.0048 0,2e-5 0.0665,0.465398 0.0665,0.465419 -0.10542,-0.115638 -0.0925,-0.439348 -0.0933,-0.460619 z m 0.11321,1.365744 c -0.0199,-0.02598 -0.0427,-0.04978 -0.0591,-0.07798 -0.005,-0.02846 7.7e-4,-0.05731 0.002,-0.08526 0.0453,0.03554 0.0954,0.134295 0.0574,0.163235 z m -0.0134,-0.349632 c -0.008,0.0069 -0.0143,0.01404 -0.0212,0.0217 0.0348,0.04887 0.0227,0.10905 0.01,0.163235 -0.009,-0.0032 -0.0247,-0.0099 -0.0328,-0.01327 0.002,-0.06785 -0.009,-0.13491 -0.0294,-0.19938 0.0158,0.01052 0.0318,0.02144 0.0478,0.03236 -0.0113,-0.02549 -0.0232,-0.05043 -0.0357,-0.07486 0.0117,-0.0126 0.0237,-0.02418 0.0357,-0.036 0.006,-0.05342 0.0204,-0.105545 0.023,-0.159346 -0.0898,0.07928 -0.0276,0.09768 -0.0733,0.182996 -0.0673,-0.05421 -0.0382,-0.144792 -0.004,-0.20873 0.008,0.01922 0.0151,0.03874 0.0224,0.05876 -0.009,-0.05538 -0.0153,-0.115553 0.0194,-0.163767 0.0305,0.06237 0.0679,0.1439 0.0386,0.396295 z m 0.009,-1.703774 c -0.008,-0.01468 -0.0148,-0.02923 -0.0221,-0.04329 -0.003,0.01962 -0.007,0.03963 -0.01,0.05965 -0.003,-0.02378 -0.006,-0.04771 -0.008,-0.07123 0.008,-0.01271 0.0156,-0.02522 0.023,-0.0377 0.003,0.01118 0.009,0.03352 0.0117,0.04471 -0.0114,-0.08098 0.0511,-0.140117 0.068,-0.214064 0.003,0.09114 -0.0274,0.179385 -0.0631,0.261916 z m 0.0276,-1.997651 c -0.0111,-0.01025 -0.0221,-0.02041 -0.033,-0.03028 -0.006,-0.249421 -0.0169,-0.507003 0.0749,-0.744206 0,2e-5 -0.0419,0.774465 -0.0419,0.774488 z m 0.24615,1.059268 c -0.0303,-0.135291 -0.0853,-0.271246 -0.0619,-0.411999 0.0244,0.08475 0.0498,0.16961 0.0651,0.256689 0.008,-0.0017 0.0231,-0.0053 0.0308,-0.0071 -0.004,0.08629 -0.0162,0.09841 -0.034,0.162322 z m 0.0607,-6.075333 c -0.12127,-0.320777 -0.45486,-1.037212 -0.21432,-1.300617 0.008,0.571497 0.0349,0.542851 0.22043,1.257588 -0.002,0.01065 -0.004,0.03225 -0.006,0.04303 z m 0.1033,0.127367 c -0.068,-0.441662 -0.38956,-1.133023 -0.18182,-1.523774 0.0377,0.70103 -0.0301,0.429614 0.15777,1.26668 0.002,-0.0217 0.004,-0.04315 0.007,-0.06434 0.002,0.0014 0.006,0.0043 0.009,0.006 -0.0202,0.09124 0.0188,0.181447 0.0207,0.272944 -0.003,0.0107 -0.009,0.03188 -0.0117,0.04252 z m -0.0177,-0.422922 c -0.0252,-0.05472 -0.0498,-0.115935 -0.029,-0.176114 -0.0122,-0.03689 -0.11105,-0.259514 -0.0879,-0.506619 0.0161,0.07615 0.0335,0.152186 0.0576,0.226408 0.002,-0.01493 0.003,-0.02977 0.005,-0.04445 0.003,0.07356 0.0221,0.14479 0.0442,0.214574 0.009,0.09528 -0.006,0.191199 0.01,0.286204 z m -0.0406,-0.987637 c -0.0274,0.03757 -0.0529,0.07643 -0.0774,0.115935 0.01,-0.177409 0.0951,-0.330317 0.23225,-0.447485 -0.0456,0.08408 -0.12263,0.23389 -0.1548,0.33155 z m 0.30895,-0.367673 c -0.0407,0.03132 -0.0797,0.0664 -0.1275,0.08642 -0.005,0.0079 -0.016,0.02367 -0.0213,0.03145 0.002,-0.0054 0.005,-0.01638 0.007,-0.02184 0.0837,-0.08315 0.0477,-0.114257 0.17612,-0.259685 -0.01,0.05487 -0.0244,0.108666 -0.0343,0.16366 z m 0.0988,-0.405518 c -0.15627,0.104927 -0.67534,0.446869 -0.79425,0.863011 -0.10101,-0.504198 0.17716,-0.52328 0.79204,-0.962691 0.0298,-0.01988 0.0568,-0.05068 0.0955,-0.05016 -0.0385,0.05425 -0.0414,0.06285 -0.0933,0.149849 z m 0.15988,3.305406 c 0.0161,-0.126795 0.0264,-0.113876 0.0554,-0.362873 0.0368,-0.05447 0.0597,-0.116317 0.0837,-0.176876 0.01,0.158115 -0.11855,0.453603 -0.13907,0.539749 z m 0.1622,0.387306 c -0.002,0.0029 -0.004,0.0086 -0.006,0.01144 -0.0142,-0.0098 -0.0285,-0.0191 -0.0426,-0.02832 0.014,-0.04184 0.0294,-0.0832 0.0453,-0.124393 0.005,0.04679 0.009,0.09424 0.003,0.141284 z m -0.58088,-3.658142 c 0.002,-0.01649 0.003,-0.03287 0.005,-0.04913 0.0524,-0.05478 0.45588,-0.374281 0.58173,-0.455156 7.7e-4,0.0055 0.003,0.01664 0.003,0.02211 -0.0374,0.06628 -0.53208,0.431827 -0.58953,0.482187 z m 1.83661,0.750583 c -0.0128,0.03704 -0.0246,0.07448 -0.0367,0.111896 -0.17329,0.02439 -0.4481,0.229682 -0.53548,0.307114 -0.03,-0.307835 -0.14184,-0.50048 -0.094,-0.697161 0.0411,-0.163236 0.10554,-0.319864 0.14205,-0.484393 0.18419,-0.118615 0.4212,-0.19936 0.63672,-0.160113 -0.016,0.01025 -0.0204,0.0247 -0.013,0.04353 -0.007,0.0037 -0.0192,0.0113 -0.0256,0.01505 0.0408,0.202037 0.0641,0.1 0.0907,0.217698 0.0121,0.0097 0.0244,0.01936 0.037,0.02911 -0.003,0.01832 -0.006,0.03652 -0.01,0.05497 0.0241,0.03418 0.0333,0.07669 0.0585,0.110091 0.0322,0.08895 -0.17083,0.208262 -0.25067,0.452183 z m -0.92303,-1.466596 c 0.30151,-0.417885 1.18538,-0.353075 1.23368,0.214063 -0.30223,-0.339878 -0.65613,-0.472368 -1.23368,-0.214063 z"
       id="path1-6-1"
       style="stroke-width:0.0212491" />
  </g>
  <metadata
     id="metadata38">
    <rdf:RDF>
      <cc:Work
         rdf:about="">
        <dc:title>Decorator design pattern illustration in Lua</dc:title>
        <dc:creator>
          <cc:Agent>
            <dc:title>dknight</dc:title>
          </cc:Agent>
        </dc:creator>
        <dc:publisher>
          <cc:Agent>
            <dc:title>dknight</dc:title>
          </cc:Agent>
        </dc:publisher>
        <dc:language>English</dc:language>
        <dc:subject>
          <rdf:Bag>
            <rdf:li>decorator design pattern lua</rdf:li>
          </rdf:Bag>
        </dc:subject>
        <cc:license
           rdf:resource="http://creativecommons.org/licenses/by/4.0/" />
        <dc:description>Decorator design pattern illustration in Lua</dc:description>
      </cc:Work>
      <cc:License
         rdf:about="http://creativecommons.org/licenses/by/4.0/">
        <cc:permits
           rdf:resource="http://creativecommons.org/ns#Reproduction" />
        <cc:permits
           rdf:resource="http://creativecommons.org/ns#Distribution" />
        <cc:requires
           rdf:resource="http://creativecommons.org/ns#Notice" />
        <cc:requires
           rdf:resource="http://creativecommons.org/ns#Attribution" />
        <cc:permits
           rdf:resource="http://creativecommons.org/ns#DerivativeWorks" />
      </cc:License>
    </rdf:RDF>
  </metadata>
</svg>
