<?xml version="1.0" encoding="UTF-8" standalone="no"?>
<!-- Created with Inkscape (http://www.inkscape.org/) -->

<svg
   width="400"
   height="400"
   viewBox="0 0 105.83333 105.83333"
   version="1.1"
   id="svg1"
   inkscape:version="1.4 (e7c3feb100, 2024-10-09)"
   sodipodi:docname="polysec.svg"
   xmlns:inkscape="http://www.inkscape.org/namespaces/inkscape"
   xmlns:sodipodi="http://sodipodi.sourceforge.net/DTD/sodipodi-0.dtd"
   xmlns="http://www.w3.org/2000/svg"
   xmlns:svg="http://www.w3.org/2000/svg"
   xmlns:rdf="http://www.w3.org/1999/02/22-rdf-syntax-ns#"
   xmlns:cc="http://creativecommons.org/ns#"
   xmlns:dc="http://purl.org/dc/elements/1.1/">
  <title
     id="title1">Polysec Library logo</title>
  <sodipodi:namedview
     id="namedview1"
     pagecolor="#ffffff"
     bordercolor="#666666"
     borderopacity="1.0"
     inkscape:showpageshadow="2"
     inkscape:pageopacity="0.0"
     inkscape:pagecheckerboard="0"
     inkscape:deskcolor="#d1d1d1"
     inkscape:document-units="mm"
     inkscape:zoom="0.73139029"
     inkscape:cx="-100.49354"
     inkscape:cy="413.59586"
     inkscape:window-width="1920"
     inkscape:window-height="1016"
     inkscape:window-x="0"
     inkscape:window-y="40"
     inkscape:window-maximized="1"
     inkscape:current-layer="layer1" />
  <defs
     id="defs1" />
  <g
     inkscape:label="Layer 1"
     inkscape:groupmode="layer"
     id="layer1">
    <path
       id="rect1"
       style="fill:none;stroke:#ff006e;stroke-width:0.974395;stroke-linecap:round;stroke-linejoin:bevel;stroke-miterlimit:3.8"
       d="m 35.594965,50.119026 h 2.767251 m 2.767252,0 h 2.767252 m 2.767252,0 h 2.767251 m 2.767253,0 h 2.767251 m 0,2.767251 v 2.767253 m 0,2.767251 v 2.767252 m 0,2.767252 v 2.767252 m 0,2.767251 v 2.767253 m 0,2.767251 v 2.767251 m 0,2.767252 v 2.767252 m 0,2.767252 v 2.767251 m 0,2.767253 v 2.767251 H 10.689699 V 50.119026 h 2.767251 2.767253 2.767251 2.767252 2.767252 2.767252 m 2.767251,0 h 2.767251"
       sodipodi:nodetypes="cccccccccccccccccccccccccccccccccc" />
    <path
       id="path1"
       style="fill:none;stroke:#ffbe0b;stroke-width:0.852584;stroke-linecap:round;stroke-linejoin:bevel;stroke-miterlimit:3.8"
       d="m 60.380314,35.574826 h 3.922239 l 3.922238,10e-7 h 3.922239 3.92224 3.922238 3.92224 L 99.6027,62.748898 83.913744,89.922965 l -31.377911,-1e-6 -1.961119,-3.396759 m -1.96112,-3.396758 -1.961119,-3.396759 m -1.96112,-3.396759 -1.961119,-3.396759 m -1.961119,-3.396758 -1.96112,-3.396759 m -1.961119,-3.396759 1.96112,-3.396759 m 1.96112,-3.396757 1.961119,-3.396759 m 1.96112,-3.396759 1.96112,-3.396759 m 1.961119,-3.396758 1.96112,-3.396758 m 1.961119,-3.396759 h 3.922239"
       sodipodi:nodetypes="ccccccccccccccccccccccccccc" />
    <path
       id="path2"
       style="fill:none;stroke:#3a86ff;stroke-width:0.913177;stroke-linecap:round;stroke-linejoin:bevel;stroke-miterlimit:3.8"
       inkscape:transform-center-y="-9.0992492"
       d="m 67.012937,41.889345 1.970045,3.41222 m 1.970045,3.412218 1.970045,3.41222 m 1.970046,3.412218 1.970045,3.412219 m 1.970046,3.412219 1.970045,3.412218 h -3.940091 m -3.940091,0 h -3.940091 m -3.94009,0 h -3.940092 -3.94009 m -3.940091,0 h -3.94009 m -3.940093,0 h -3.94009 m -3.94009,0 h -3.940091 m -3.940091,0 h -3.940091 m -3.940091,0 h -3.94009 m 0,0 1.970045,-3.412218 m 1.970046,-3.412219 1.970045,-3.412219 m 0,0 1.970045,-3.412218 1.970045,-3.41222 1.970046,-3.412218 1.970046,-3.41222 1.970045,-3.412218 1.970045,-3.412218 1.970046,-3.41222 1.970045,-3.412218 1.970046,-3.412219 1.970045,-3.412219 1.970045,-3.412219 1.970047,-3.412219 1.970045,-3.412219 1.970045,3.412219 1.970045,3.412219 1.970046,3.412219 1.970045,3.412219 1.970045,3.412219 1.970045,3.412218 1.970045,3.41222 1.970047,3.412218"
       sodipodi:nodetypes="cccccccccccccccccccccccccccccccccccccccccccccccccc" />
  </g>
  <metadata
     id="metadata1">
    <rdf:RDF>
      <cc:License
         rdf:about="http://creativecommons.org/licenses/by/4.0/">
        <cc:permits
           rdf:resource="http://creativecommons.org/ns#Reproduction" />
        <cc:permits
           rdf:resource="http://creativecommons.org/ns#Distribution" />
        <cc:requires
           rdf:resource="http://creativecommons.org/ns#Notice" />
        <cc:requires
           rdf:resource="http://creativecommons.org/ns#Attribution" />
        <cc:permits
           rdf:resource="http://creativecommons.org/ns#DerivativeWorks" />
      </cc:License>
      <cc:Work
         rdf:about="">
        <cc:license
           rdf:resource="http://creativecommons.org/licenses/by/4.0/" />
        <dc:title>Polysec Library logo</dc:title>
        <dc:creator>
          <cc:Agent>
            <dc:title>xdknight</dc:title>
          </cc:Agent>
        </dc:creator>
        <dc:subject>
          <rdf:Bag>
            <rdf:li>lua polygon intersection</rdf:li>
          </rdf:Bag>
        </dc:subject>
      </cc:Work>
    </rdf:RDF>
  </metadata>
</svg>
