<?xml version="1.0" encoding="utf-8"?>
<!DOCTYPE svg PUBLIC "-//W3C//DTD SVG 1.1//EN" "http://www.w3.org/Graphics/SVG/1.1/DTD/svg11.dtd">
<svg version="1.1" xmlns="http://www.w3.org/2000/svg" xmlns:xlink="http://www.w3.org/1999/xlink" x="0px" y="0px"
	 width="491.64px" height="376.09px" viewBox="-105.64 0 491.64 376.09" enable-background="new -105.64 0 491.64 376.09" xml:space="preserve">
	<g id="head">
		<path fill="#ECBC51" d="M98.86,89.18c0-28.25,22.9-51.15,51.15-51.15c20.03,0,37.38,11.52,45.77,28.29
		c3.44,6.88,5.38,14.64,5.38,22.85c0,28.25-22.9,51.15-51.15,51.15C121.76,140.33,98.86,117.43,98.86,89.18z"/>
		<g id="eye">
			<circle fill="#C86545" cx="169.42" cy="74.14" r="12.03"/>
			<circle cx="171.48" cy="75.74" r="6.35"/>
			<circle fill="#FFFFFF" cx="167.56" cy="71.82" r="3.92"/>
		</g>
	</g>
	<path id="tail" fill="#3A2B27" d="M1.85,107.85c0,0,37.9,66.45,96.51,65.87c58.61-0.58-35.02-63.86-35.02-63.86L1.85,107.85z"/>
	<g id="paws">
		<line fill="none" stroke="#8A6B56" stroke-width="4" x1="141.86" y1="168.11" x2="153.61" y2="190.36"/>
		<line fill="none" stroke="#8A6B56" stroke-width="4" x1="124.11" y1="173.19" x2="137.11" y2="197.86"/>
	</g>
	<path id="body" fill="#4E6137" d="M200.66,94.57c5.2,48.79-31.74,79.79-64.27,83.45c-23.69,2.67-38.03-4.3-38.03-4.3
		c-6.34-5.61-28.01-25.86-35.51-63.48L200.66,94.57z"/>
	<path id="beak" fill="#684831" d="M227.11,76.86c-17.88-2.15-25.58,2.74-25.58,2.74s5.85,2.49,17.28-2.1
		c-0.07,10.6-12.32,3.36-17.82,15.88c-2.68-11.29-5.69-28-5.69-28S213.74,67.11,227.11,76.86z"/>
	<g id="branch">
		<path fill="none" stroke="#44230D" stroke-width="20" d="M-105.64,268.86
			c165.02,0.09,290-100.75,363.41-105.99"/>
		<path fill="none" stroke="#44230D" stroke-width="20" d="M155.38,196.44c0,0,96.98,23.41,120.48,46.82"/>
		<path fill="none" stroke="#44230D" stroke-width="20" d="M218.81,215.4c0,0-3.38,38.11-23.52,61.46"/>
	</g>
	<g id="leaves">
		<path fill="#538753" d="M144.78,294.9c-13.34,22.66-5.96,62.72-11.6,81.19c20.98-16.41,60-18.29,76.63-45.1
			c12.67-20.43-4.99-61.44-7.32-66C202.49,264.99,155.72,276.3,144.78,294.9z"/>
		<path fill="#538753" d="M324.3,237.69c-22.02-15.74-57.94-8.76-62.99-4.65c1.2,9.2,4.7,54.95,22.74,67.21
			c21.74,14.78,62.19,10.05,80.25,16.87C349.29,295.1,349.95,256.06,324.3,237.69z"/>
		<path fill="#538753" d="M246.17,164.29c4.58,4.2,45.09,30.96,68.58,27.92c26.07-3.35,53.2-33.73,71.25-40.61
			c-25.83-6.51-51.24-36.18-82.61-32.89C276.42,121.54,246.17,164.29,246.17,164.29z"/>
		<path fill="none" stroke="#6DAD6D" d="M265.98,160.2c0,0,47.3-17.67,90.67-7.67"/>
		<path fill="none" stroke="#6DAD6D" d="M289.98,145.53c0,0,8.54-15.57,26.1-16.28"/>
		<path fill="none" stroke="#6DAD6D" d="M279.98,162.87c0,0,4.67,10.32,31.33,18.99"/>
		<path fill="none" stroke="#6DAD6D" d="M321.98,157.2c0,0,11.3,6.02,24.33,5.66"/>
		<path fill="none" stroke="#6DAD6D" d="M275.86,241.86c22.79,4.67,40.12,44,65.12,57.67"/>
		<path fill="none" stroke="#6DAD6D" d="M288.32,260.86c0,0-7.33,10.67,0,24"/>
		<path fill="none" stroke="#6DAD6D" d="M311.32,258.86c0,0,11.67-1.37,25,10"/>
		<path fill="none" stroke="#6DAD6D" d="M191.65,284.86c0,0-16.33,48.67-48,77.33"/>
		<path fill="none" stroke="#6DAD6D" d="M176.98,296.53c0,0-11.74-3.33-23.37,5.67"/>
		<path fill="none" stroke="#6DAD6D" d="M191.65,306.53c0,0,4,17.67-2.33,30.67"/>
		<path fill="none" stroke="#6DAD6D" d="M155.38,326.86c0,0-11.4,7-11.73,17"/>
	</g>
	<g id="wing">
		<path id="wing" fill="#4C4E30" d="M63.31,16.71c15.67,65.38,84.46,86.65,65.7,111.76C96.57,161.86,0.64,138.71,63.31,16.71z"/>
		<path fill="#3A3A24" d="M62.85,23.86c5.3,64.3,75.64,78.7,58.39,103.74C113.46,138.25,62.85,96.44,62.85,23.86z"/>
		<path fill="#3A3A24" d="M51.32,69.39c-6.33,46.81,27.47,51.1,22.88,63.18C68.81,138.5,37,112.86,51.32,69.4z"/>
		<path fill="#3A3A24" d="M57.98,40.2c4.46,59.7,46.75,77.39,37.18,92.13C89.5,140.45,50.38,109.86,58,40.2z"/>
	</g>
</svg>